M48
;GenerationSoftware,Autodesk,EAGLE,9.5.2*%
;CreationDate,2020-06-24T12:22:39Z*%
FMAT,2
ICI,OFF
INCH,TZ,000.000
T7C0.024
T6C0.031
T5C0.032
T4C0.036
T3C0.047
T2C0.110
%
G90
M72
T2
X2421Y138
X138Y138
X138Y2067
X2421Y2067
T3
X2067Y1358
X2067Y866
X2263Y1358
X2263Y866
T4
X502Y276
X758Y276
T5
X1585Y1112
X895Y1112
X995Y1112
X304Y1112
X404Y1112
X1485Y1112
T6
X2402Y354
X2402Y454
X2402Y554
X2302Y554
X2302Y454
X2302Y354
T7
X1654Y2087
X1457Y551
X1339Y433
X1535Y394
X1772Y394
X1732Y472
X1614Y1732
X1220Y394
X1299Y2047
X1142Y2087
X1299Y1732
X1024Y2087
X1063Y1772
M30