G04 EAGLE Gerber RS-274X export*
G75*
%MOIN*%
%FSLAX34Y34*%
%LPD*%
%INSlot drill/holes/outline*%
%IPPOS*%
%AMOC8*
5,1,8,0,0,1.08239X$1,22.5*%
G01*
%ADD10C,0.000000*%


D10*
X1181Y0D02*
X24409Y0D01*
X25591Y1181D02*
X25591Y20866D01*
X24409Y22244D02*
X1181Y22244D01*
X0Y20866D02*
X0Y1181D01*
X2Y1115D01*
X7Y1049D01*
X17Y983D01*
X30Y918D01*
X46Y854D01*
X66Y791D01*
X90Y729D01*
X117Y669D01*
X147Y610D01*
X181Y553D01*
X218Y498D01*
X258Y445D01*
X300Y394D01*
X346Y346D01*
X394Y300D01*
X445Y258D01*
X498Y218D01*
X553Y181D01*
X610Y147D01*
X669Y117D01*
X729Y90D01*
X791Y66D01*
X854Y46D01*
X918Y30D01*
X983Y17D01*
X1049Y7D01*
X1115Y2D01*
X1181Y0D01*
X24409Y0D02*
X24475Y2D01*
X24541Y7D01*
X24607Y17D01*
X24672Y30D01*
X24736Y46D01*
X24799Y66D01*
X24861Y90D01*
X24921Y117D01*
X24980Y147D01*
X25037Y181D01*
X25092Y218D01*
X25145Y258D01*
X25196Y300D01*
X25244Y346D01*
X25290Y394D01*
X25332Y445D01*
X25372Y498D01*
X25409Y553D01*
X25443Y610D01*
X25473Y669D01*
X25500Y729D01*
X25524Y791D01*
X25544Y854D01*
X25560Y918D01*
X25573Y983D01*
X25583Y1049D01*
X25588Y1115D01*
X25590Y1181D01*
X25590Y20867D02*
X25594Y20936D01*
X25593Y21005D01*
X25589Y21075D01*
X25581Y21144D01*
X25570Y21212D01*
X25555Y21280D01*
X25536Y21347D01*
X25513Y21413D01*
X25487Y21477D01*
X25458Y21540D01*
X25425Y21601D01*
X25389Y21661D01*
X25350Y21718D01*
X25307Y21773D01*
X25262Y21826D01*
X25214Y21876D01*
X25163Y21924D01*
X25110Y21969D01*
X25055Y22010D01*
X24997Y22049D01*
X24937Y22085D01*
X24876Y22117D01*
X24813Y22146D01*
X24748Y22171D01*
X24682Y22193D01*
X24615Y22211D01*
X24547Y22226D01*
X24479Y22237D01*
X24409Y22244D01*
X1182Y22244D02*
X1112Y22237D01*
X1044Y22226D01*
X976Y22211D01*
X909Y22193D01*
X843Y22171D01*
X778Y22146D01*
X715Y22117D01*
X654Y22085D01*
X594Y22049D01*
X536Y22010D01*
X481Y21969D01*
X428Y21924D01*
X377Y21876D01*
X329Y21826D01*
X284Y21773D01*
X241Y21718D01*
X202Y21661D01*
X166Y21601D01*
X133Y21540D01*
X104Y21477D01*
X78Y21413D01*
X55Y21347D01*
X36Y21280D01*
X21Y21212D01*
X10Y21144D01*
X2Y21075D01*
X-2Y21005D01*
X-3Y20936D01*
X1Y20867D01*
X827Y20669D02*
X829Y20716D01*
X835Y20762D01*
X845Y20808D01*
X858Y20853D01*
X876Y20896D01*
X897Y20938D01*
X921Y20978D01*
X949Y21015D01*
X980Y21050D01*
X1014Y21083D01*
X1050Y21112D01*
X1089Y21138D01*
X1130Y21161D01*
X1173Y21180D01*
X1217Y21196D01*
X1262Y21208D01*
X1308Y21216D01*
X1355Y21220D01*
X1401Y21220D01*
X1448Y21216D01*
X1494Y21208D01*
X1539Y21196D01*
X1583Y21180D01*
X1626Y21161D01*
X1667Y21138D01*
X1706Y21112D01*
X1742Y21083D01*
X1776Y21050D01*
X1807Y21015D01*
X1835Y20978D01*
X1859Y20938D01*
X1880Y20896D01*
X1898Y20853D01*
X1911Y20808D01*
X1921Y20762D01*
X1927Y20716D01*
X1929Y20669D01*
X1927Y20622D01*
X1921Y20576D01*
X1911Y20530D01*
X1898Y20485D01*
X1880Y20442D01*
X1859Y20400D01*
X1835Y20360D01*
X1807Y20323D01*
X1776Y20288D01*
X1742Y20255D01*
X1706Y20226D01*
X1667Y20200D01*
X1626Y20177D01*
X1583Y20158D01*
X1539Y20142D01*
X1494Y20130D01*
X1448Y20122D01*
X1401Y20118D01*
X1355Y20118D01*
X1308Y20122D01*
X1262Y20130D01*
X1217Y20142D01*
X1173Y20158D01*
X1130Y20177D01*
X1089Y20200D01*
X1050Y20226D01*
X1014Y20255D01*
X980Y20288D01*
X949Y20323D01*
X921Y20360D01*
X897Y20400D01*
X876Y20442D01*
X858Y20485D01*
X845Y20530D01*
X835Y20576D01*
X829Y20622D01*
X827Y20669D01*
X23662Y20669D02*
X23664Y20716D01*
X23670Y20762D01*
X23680Y20808D01*
X23693Y20853D01*
X23711Y20896D01*
X23732Y20938D01*
X23756Y20978D01*
X23784Y21015D01*
X23815Y21050D01*
X23849Y21083D01*
X23885Y21112D01*
X23924Y21138D01*
X23965Y21161D01*
X24008Y21180D01*
X24052Y21196D01*
X24097Y21208D01*
X24143Y21216D01*
X24190Y21220D01*
X24236Y21220D01*
X24283Y21216D01*
X24329Y21208D01*
X24374Y21196D01*
X24418Y21180D01*
X24461Y21161D01*
X24502Y21138D01*
X24541Y21112D01*
X24577Y21083D01*
X24611Y21050D01*
X24642Y21015D01*
X24670Y20978D01*
X24694Y20938D01*
X24715Y20896D01*
X24733Y20853D01*
X24746Y20808D01*
X24756Y20762D01*
X24762Y20716D01*
X24764Y20669D01*
X24762Y20622D01*
X24756Y20576D01*
X24746Y20530D01*
X24733Y20485D01*
X24715Y20442D01*
X24694Y20400D01*
X24670Y20360D01*
X24642Y20323D01*
X24611Y20288D01*
X24577Y20255D01*
X24541Y20226D01*
X24502Y20200D01*
X24461Y20177D01*
X24418Y20158D01*
X24374Y20142D01*
X24329Y20130D01*
X24283Y20122D01*
X24236Y20118D01*
X24190Y20118D01*
X24143Y20122D01*
X24097Y20130D01*
X24052Y20142D01*
X24008Y20158D01*
X23965Y20177D01*
X23924Y20200D01*
X23885Y20226D01*
X23849Y20255D01*
X23815Y20288D01*
X23784Y20323D01*
X23756Y20360D01*
X23732Y20400D01*
X23711Y20442D01*
X23693Y20485D01*
X23680Y20530D01*
X23670Y20576D01*
X23664Y20622D01*
X23662Y20669D01*
X827Y1378D02*
X829Y1425D01*
X835Y1471D01*
X845Y1517D01*
X858Y1562D01*
X876Y1605D01*
X897Y1647D01*
X921Y1687D01*
X949Y1724D01*
X980Y1759D01*
X1014Y1792D01*
X1050Y1821D01*
X1089Y1847D01*
X1130Y1870D01*
X1173Y1889D01*
X1217Y1905D01*
X1262Y1917D01*
X1308Y1925D01*
X1355Y1929D01*
X1401Y1929D01*
X1448Y1925D01*
X1494Y1917D01*
X1539Y1905D01*
X1583Y1889D01*
X1626Y1870D01*
X1667Y1847D01*
X1706Y1821D01*
X1742Y1792D01*
X1776Y1759D01*
X1807Y1724D01*
X1835Y1687D01*
X1859Y1647D01*
X1880Y1605D01*
X1898Y1562D01*
X1911Y1517D01*
X1921Y1471D01*
X1927Y1425D01*
X1929Y1378D01*
X1927Y1331D01*
X1921Y1285D01*
X1911Y1239D01*
X1898Y1194D01*
X1880Y1151D01*
X1859Y1109D01*
X1835Y1069D01*
X1807Y1032D01*
X1776Y997D01*
X1742Y964D01*
X1706Y935D01*
X1667Y909D01*
X1626Y886D01*
X1583Y867D01*
X1539Y851D01*
X1494Y839D01*
X1448Y831D01*
X1401Y827D01*
X1355Y827D01*
X1308Y831D01*
X1262Y839D01*
X1217Y851D01*
X1173Y867D01*
X1130Y886D01*
X1089Y909D01*
X1050Y935D01*
X1014Y964D01*
X980Y997D01*
X949Y1032D01*
X921Y1069D01*
X897Y1109D01*
X876Y1151D01*
X858Y1194D01*
X845Y1239D01*
X835Y1285D01*
X829Y1331D01*
X827Y1378D01*
X23662Y1378D02*
X23664Y1425D01*
X23670Y1471D01*
X23680Y1517D01*
X23693Y1562D01*
X23711Y1605D01*
X23732Y1647D01*
X23756Y1687D01*
X23784Y1724D01*
X23815Y1759D01*
X23849Y1792D01*
X23885Y1821D01*
X23924Y1847D01*
X23965Y1870D01*
X24008Y1889D01*
X24052Y1905D01*
X24097Y1917D01*
X24143Y1925D01*
X24190Y1929D01*
X24236Y1929D01*
X24283Y1925D01*
X24329Y1917D01*
X24374Y1905D01*
X24418Y1889D01*
X24461Y1870D01*
X24502Y1847D01*
X24541Y1821D01*
X24577Y1792D01*
X24611Y1759D01*
X24642Y1724D01*
X24670Y1687D01*
X24694Y1647D01*
X24715Y1605D01*
X24733Y1562D01*
X24746Y1517D01*
X24756Y1471D01*
X24762Y1425D01*
X24764Y1378D01*
X24762Y1331D01*
X24756Y1285D01*
X24746Y1239D01*
X24733Y1194D01*
X24715Y1151D01*
X24694Y1109D01*
X24670Y1069D01*
X24642Y1032D01*
X24611Y997D01*
X24577Y964D01*
X24541Y935D01*
X24502Y909D01*
X24461Y886D01*
X24418Y867D01*
X24374Y851D01*
X24329Y839D01*
X24283Y831D01*
X24236Y827D01*
X24190Y827D01*
X24143Y831D01*
X24097Y839D01*
X24052Y851D01*
X24008Y867D01*
X23965Y886D01*
X23924Y909D01*
X23885Y935D01*
X23849Y964D01*
X23815Y997D01*
X23784Y1032D01*
X23756Y1069D01*
X23732Y1109D01*
X23711Y1151D01*
X23693Y1194D01*
X23680Y1239D01*
X23670Y1285D01*
X23664Y1331D01*
X23662Y1378D01*
M02*
