G04 EAGLE Gerber RS-274X export*
G75*
%MOIN*%
%FSLAX34Y34*%
%LPD*%
%INBottom silk*%
%IPPOS*%
%AMOC8*
5,1,8,0,0,1.08239X$1,22.5*%
G01*
%ADD10C,0.000000*%
%ADD11C,0.007000*%
%ADD12C,0.004000*%
%ADD13R,0.046600X0.003330*%
%ADD14R,0.063300X0.003340*%
%ADD15R,0.070000X0.003330*%
%ADD16R,0.086600X0.003330*%
%ADD17R,0.096700X0.003340*%
%ADD18R,0.106600X0.003330*%
%ADD19R,0.113400X0.003330*%
%ADD20R,0.033300X0.003340*%
%ADD21R,0.040000X0.003340*%
%ADD22R,0.030000X0.003330*%
%ADD23R,0.033300X0.003330*%
%ADD24R,0.030000X0.003340*%
%ADD25R,0.033400X0.003340*%
%ADD26R,0.040000X0.003330*%
%ADD27R,0.046700X0.003330*%
%ADD28R,0.050000X0.003330*%
%ADD29R,0.050000X0.003340*%
%ADD30R,0.053300X0.003330*%
%ADD31R,0.056700X0.003330*%
%ADD32R,0.060000X0.003340*%
%ADD33R,0.026600X0.003330*%
%ADD34R,0.026700X0.003330*%
%ADD35R,0.023300X0.003330*%
%ADD36R,0.020000X0.003330*%
%ADD37R,0.023400X0.003330*%
%ADD38R,0.023300X0.003340*%
%ADD39R,0.020000X0.003340*%
%ADD40R,0.023400X0.003340*%
%ADD41R,0.016700X0.003330*%
%ADD42R,0.016700X0.003340*%
%ADD43R,0.043300X0.003340*%
%ADD44R,0.060000X0.003330*%
%ADD45R,0.016600X0.003330*%
%ADD46R,0.073300X0.003330*%
%ADD47R,0.016600X0.003340*%
%ADD48R,0.083300X0.003340*%
%ADD49R,0.080000X0.003340*%
%ADD50R,0.096700X0.003330*%
%ADD51R,0.093400X0.003330*%
%ADD52R,0.126600X0.003330*%
%ADD53R,0.123300X0.003330*%
%ADD54R,0.133300X0.003340*%
%ADD55R,0.130000X0.003340*%
%ADD56R,0.063300X0.003330*%
%ADD57R,0.056700X0.003340*%
%ADD58R,0.043400X0.003330*%
%ADD59R,0.043400X0.003340*%
%ADD60R,0.046700X0.003340*%
%ADD61R,0.043300X0.003330*%
%ADD62R,0.013400X0.003330*%
%ADD63R,0.010000X0.003330*%
%ADD64R,0.026700X0.003340*%
%ADD65R,0.053300X0.003340*%
%ADD66R,0.013300X0.003330*%
%ADD67R,0.036600X0.003330*%
%ADD68R,0.046600X0.003340*%
%ADD69R,0.036700X0.003340*%
%ADD70R,0.056600X0.003330*%
%ADD71R,0.036700X0.003330*%
%ADD72R,0.110000X0.003340*%
%ADD73R,0.070000X0.003340*%
%ADD74R,0.086700X0.003340*%
%ADD75R,0.113300X0.003330*%
%ADD76R,0.080000X0.003330*%
%ADD77R,0.033400X0.003330*%
%ADD78R,0.116700X0.003330*%
%ADD79R,0.090000X0.003330*%
%ADD80R,0.180000X0.003340*%
%ADD81R,0.166700X0.003330*%
%ADD82R,0.066600X0.003330*%
%ADD83R,0.093300X0.003340*%
%ADD84R,0.076600X0.003330*%
%ADD85R,0.096600X0.003330*%
%ADD86R,0.100000X0.003330*%
%ADD87R,0.083400X0.003330*%
%ADD88R,0.026600X0.003340*%
%ADD89R,0.106600X0.003340*%
%ADD90R,0.090000X0.003340*%
%ADD91R,0.100000X0.003340*%
%ADD92R,0.103300X0.003340*%
%ADD93R,0.093300X0.003330*%
%ADD94R,0.103300X0.003330*%
%ADD95R,0.110000X0.003330*%
%ADD96R,0.053400X0.003330*%
%ADD97R,0.003400X0.003330*%
%ADD98R,0.003300X0.003340*%
%ADD99R,0.066700X0.003340*%
%ADD100R,0.106700X0.003340*%
%ADD101R,0.056600X0.003340*%
%ADD102R,0.066700X0.003330*%
%ADD103R,0.076700X0.003330*%
%ADD104R,0.113300X0.003340*%
%ADD105R,0.036600X0.003340*%
%ADD106R,0.113400X0.003340*%
%ADD107R,0.106700X0.003330*%
%ADD108R,0.006700X0.003340*%
%ADD109R,0.083300X0.003330*%
%ADD110R,0.010000X0.003340*%
%ADD111C,0.001000*%
%ADD112C,0.006000*%
%ADD113C,0.003000*%
%ADD114C,0.005000*%


D10*
X1181Y0D02*
X24409Y0D01*
X25591Y1181D02*
X25591Y20866D01*
X24409Y22244D02*
X1181Y22244D01*
X0Y20866D02*
X0Y1181D01*
X2Y1115D01*
X7Y1049D01*
X17Y983D01*
X30Y918D01*
X46Y854D01*
X66Y791D01*
X90Y729D01*
X117Y669D01*
X147Y610D01*
X181Y553D01*
X218Y498D01*
X258Y445D01*
X300Y394D01*
X346Y346D01*
X394Y300D01*
X445Y258D01*
X498Y218D01*
X553Y181D01*
X610Y147D01*
X669Y117D01*
X729Y90D01*
X791Y66D01*
X854Y46D01*
X918Y30D01*
X983Y17D01*
X1049Y7D01*
X1115Y2D01*
X1181Y0D01*
X24409Y0D02*
X24475Y2D01*
X24541Y7D01*
X24607Y17D01*
X24672Y30D01*
X24736Y46D01*
X24799Y66D01*
X24861Y90D01*
X24921Y117D01*
X24980Y147D01*
X25037Y181D01*
X25092Y218D01*
X25145Y258D01*
X25196Y300D01*
X25244Y346D01*
X25290Y394D01*
X25332Y445D01*
X25372Y498D01*
X25409Y553D01*
X25443Y610D01*
X25473Y669D01*
X25500Y729D01*
X25524Y791D01*
X25544Y854D01*
X25560Y918D01*
X25573Y983D01*
X25583Y1049D01*
X25588Y1115D01*
X25590Y1181D01*
X25590Y20867D02*
X25594Y20936D01*
X25593Y21005D01*
X25589Y21075D01*
X25581Y21144D01*
X25570Y21212D01*
X25555Y21280D01*
X25536Y21347D01*
X25513Y21413D01*
X25487Y21477D01*
X25458Y21540D01*
X25425Y21601D01*
X25389Y21661D01*
X25350Y21718D01*
X25307Y21773D01*
X25262Y21826D01*
X25214Y21876D01*
X25163Y21924D01*
X25110Y21969D01*
X25055Y22010D01*
X24997Y22049D01*
X24937Y22085D01*
X24876Y22117D01*
X24813Y22146D01*
X24748Y22171D01*
X24682Y22193D01*
X24615Y22211D01*
X24547Y22226D01*
X24479Y22237D01*
X24409Y22244D01*
X1182Y22244D02*
X1112Y22237D01*
X1044Y22226D01*
X976Y22211D01*
X909Y22193D01*
X843Y22171D01*
X778Y22146D01*
X715Y22117D01*
X654Y22085D01*
X594Y22049D01*
X536Y22010D01*
X481Y21969D01*
X428Y21924D01*
X377Y21876D01*
X329Y21826D01*
X284Y21773D01*
X241Y21718D01*
X202Y21661D01*
X166Y21601D01*
X133Y21540D01*
X104Y21477D01*
X78Y21413D01*
X55Y21347D01*
X36Y21280D01*
X21Y21212D01*
X10Y21144D01*
X2Y21075D01*
X-2Y21005D01*
X-3Y20936D01*
X1Y20867D01*
D11*
X22131Y18936D02*
X22131Y18145D01*
X22131Y18936D02*
X21735Y18936D01*
X21604Y18804D01*
X21604Y18672D01*
X21735Y18541D01*
X21604Y18409D01*
X21604Y18277D01*
X21735Y18145D01*
X22131Y18145D01*
X22131Y18541D02*
X21735Y18541D01*
X21339Y18672D02*
X21339Y18277D01*
X21207Y18145D01*
X20812Y18145D01*
X20812Y18013D02*
X20812Y18672D01*
X20812Y18013D02*
X20944Y17882D01*
X21075Y17882D01*
X19755Y18145D02*
X19755Y18936D01*
X19360Y18936D01*
X19228Y18804D01*
X19228Y18541D01*
X19360Y18409D01*
X19755Y18409D01*
X19492Y18409D02*
X19228Y18145D01*
X18963Y18277D02*
X18963Y18672D01*
X18963Y18277D02*
X18832Y18145D01*
X18436Y18145D01*
X18436Y18013D02*
X18436Y18672D01*
X18436Y18013D02*
X18568Y17882D01*
X18700Y17882D01*
X18040Y18672D02*
X17776Y18672D01*
X17644Y18541D01*
X17644Y18145D01*
X18040Y18145D01*
X18171Y18277D01*
X18040Y18409D01*
X17644Y18409D01*
X17380Y18672D02*
X17380Y18145D01*
X17380Y18672D02*
X16984Y18672D01*
X16852Y18541D01*
X16852Y18145D01*
X15796Y18145D02*
X15796Y18936D01*
X15532Y18409D02*
X15796Y18145D01*
X15532Y18409D02*
X15269Y18145D01*
X15269Y18936D01*
X14872Y18672D02*
X14609Y18672D01*
X14477Y18541D01*
X14477Y18145D01*
X14872Y18145D01*
X15004Y18277D01*
X14872Y18409D01*
X14477Y18409D01*
X14212Y18936D02*
X14080Y18936D01*
X14080Y18145D01*
X14212Y18145D02*
X13948Y18145D01*
X13684Y18145D02*
X13684Y18672D01*
X13552Y18672D01*
X13421Y18541D01*
X13421Y18145D01*
X13421Y18541D02*
X13289Y18672D01*
X13157Y18541D01*
X13157Y18145D01*
X12892Y18145D02*
X12497Y18145D01*
X12365Y18277D01*
X12497Y18409D01*
X12760Y18409D01*
X12892Y18541D01*
X12760Y18672D01*
X12365Y18672D01*
X12100Y18936D02*
X11969Y18936D01*
X11969Y18145D01*
X12100Y18145D02*
X11837Y18145D01*
X11441Y18145D02*
X11177Y18145D01*
X11441Y18145D02*
X11572Y18277D01*
X11572Y18541D01*
X11441Y18672D01*
X11177Y18672D01*
X11045Y18541D01*
X11045Y18409D01*
X11572Y18409D01*
X10781Y18277D02*
X10781Y18672D01*
X10781Y18277D02*
X10649Y18145D01*
X10253Y18145D01*
X10253Y18013D02*
X10253Y18672D01*
X10253Y18013D02*
X10385Y17882D01*
X10517Y17882D01*
X8405Y18409D02*
X8141Y18145D01*
X8405Y18409D02*
X8405Y18672D01*
X8141Y18936D01*
X7482Y18936D02*
X7350Y18804D01*
X7482Y18936D02*
X7745Y18936D01*
X7877Y18804D01*
X7877Y18277D01*
X7745Y18145D01*
X7482Y18145D01*
X7350Y18277D01*
X7085Y18145D02*
X6822Y18409D01*
X6822Y18672D01*
X7085Y18936D01*
X6557Y18145D02*
X6030Y18145D01*
X6557Y18145D02*
X6030Y18672D01*
X6030Y18804D01*
X6162Y18936D01*
X6425Y18936D01*
X6557Y18804D01*
X5765Y18804D02*
X5765Y18277D01*
X5765Y18804D02*
X5634Y18936D01*
X5370Y18936D01*
X5238Y18804D01*
X5238Y18277D01*
X5370Y18145D01*
X5634Y18145D01*
X5765Y18277D01*
X5238Y18804D01*
X4974Y18672D02*
X4710Y18936D01*
X4710Y18145D01*
X4974Y18145D02*
X4446Y18145D01*
X4182Y18936D02*
X3655Y18936D01*
X4182Y18936D02*
X4182Y18541D01*
X3918Y18672D01*
X3786Y18672D01*
X3655Y18541D01*
X3655Y18277D01*
X3786Y18145D01*
X4050Y18145D01*
X4182Y18277D01*
D12*
X24523Y6780D02*
X24523Y6319D01*
X24523Y6780D02*
X24293Y6780D01*
X24216Y6703D01*
X24216Y6549D01*
X24293Y6473D01*
X24523Y6473D01*
X24062Y6319D02*
X24062Y6780D01*
X23832Y6780D01*
X23756Y6703D01*
X23756Y6549D01*
X23832Y6473D01*
X24062Y6473D01*
X23909Y6473D02*
X23756Y6319D01*
X23525Y6780D02*
X23372Y6780D01*
X23525Y6780D02*
X23602Y6703D01*
X23602Y6396D01*
X23525Y6319D01*
X23372Y6319D01*
X23295Y6396D01*
X23295Y6703D01*
X23372Y6780D01*
X22911Y6780D02*
X22835Y6703D01*
X22911Y6780D02*
X23065Y6780D01*
X23142Y6703D01*
X23142Y6396D01*
X23065Y6319D01*
X22911Y6319D01*
X22835Y6396D01*
X22835Y6549D01*
X22988Y6549D01*
D10*
X827Y20669D02*
X829Y20716D01*
X835Y20762D01*
X845Y20808D01*
X858Y20853D01*
X876Y20896D01*
X897Y20938D01*
X921Y20978D01*
X949Y21015D01*
X980Y21050D01*
X1014Y21083D01*
X1050Y21112D01*
X1089Y21138D01*
X1130Y21161D01*
X1173Y21180D01*
X1217Y21196D01*
X1262Y21208D01*
X1308Y21216D01*
X1355Y21220D01*
X1401Y21220D01*
X1448Y21216D01*
X1494Y21208D01*
X1539Y21196D01*
X1583Y21180D01*
X1626Y21161D01*
X1667Y21138D01*
X1706Y21112D01*
X1742Y21083D01*
X1776Y21050D01*
X1807Y21015D01*
X1835Y20978D01*
X1859Y20938D01*
X1880Y20896D01*
X1898Y20853D01*
X1911Y20808D01*
X1921Y20762D01*
X1927Y20716D01*
X1929Y20669D01*
X1927Y20622D01*
X1921Y20576D01*
X1911Y20530D01*
X1898Y20485D01*
X1880Y20442D01*
X1859Y20400D01*
X1835Y20360D01*
X1807Y20323D01*
X1776Y20288D01*
X1742Y20255D01*
X1706Y20226D01*
X1667Y20200D01*
X1626Y20177D01*
X1583Y20158D01*
X1539Y20142D01*
X1494Y20130D01*
X1448Y20122D01*
X1401Y20118D01*
X1355Y20118D01*
X1308Y20122D01*
X1262Y20130D01*
X1217Y20142D01*
X1173Y20158D01*
X1130Y20177D01*
X1089Y20200D01*
X1050Y20226D01*
X1014Y20255D01*
X980Y20288D01*
X949Y20323D01*
X921Y20360D01*
X897Y20400D01*
X876Y20442D01*
X858Y20485D01*
X845Y20530D01*
X835Y20576D01*
X829Y20622D01*
X827Y20669D01*
X23662Y20669D02*
X23664Y20716D01*
X23670Y20762D01*
X23680Y20808D01*
X23693Y20853D01*
X23711Y20896D01*
X23732Y20938D01*
X23756Y20978D01*
X23784Y21015D01*
X23815Y21050D01*
X23849Y21083D01*
X23885Y21112D01*
X23924Y21138D01*
X23965Y21161D01*
X24008Y21180D01*
X24052Y21196D01*
X24097Y21208D01*
X24143Y21216D01*
X24190Y21220D01*
X24236Y21220D01*
X24283Y21216D01*
X24329Y21208D01*
X24374Y21196D01*
X24418Y21180D01*
X24461Y21161D01*
X24502Y21138D01*
X24541Y21112D01*
X24577Y21083D01*
X24611Y21050D01*
X24642Y21015D01*
X24670Y20978D01*
X24694Y20938D01*
X24715Y20896D01*
X24733Y20853D01*
X24746Y20808D01*
X24756Y20762D01*
X24762Y20716D01*
X24764Y20669D01*
X24762Y20622D01*
X24756Y20576D01*
X24746Y20530D01*
X24733Y20485D01*
X24715Y20442D01*
X24694Y20400D01*
X24670Y20360D01*
X24642Y20323D01*
X24611Y20288D01*
X24577Y20255D01*
X24541Y20226D01*
X24502Y20200D01*
X24461Y20177D01*
X24418Y20158D01*
X24374Y20142D01*
X24329Y20130D01*
X24283Y20122D01*
X24236Y20118D01*
X24190Y20118D01*
X24143Y20122D01*
X24097Y20130D01*
X24052Y20142D01*
X24008Y20158D01*
X23965Y20177D01*
X23924Y20200D01*
X23885Y20226D01*
X23849Y20255D01*
X23815Y20288D01*
X23784Y20323D01*
X23756Y20360D01*
X23732Y20400D01*
X23711Y20442D01*
X23693Y20485D01*
X23680Y20530D01*
X23670Y20576D01*
X23664Y20622D01*
X23662Y20669D01*
X827Y1378D02*
X829Y1425D01*
X835Y1471D01*
X845Y1517D01*
X858Y1562D01*
X876Y1605D01*
X897Y1647D01*
X921Y1687D01*
X949Y1724D01*
X980Y1759D01*
X1014Y1792D01*
X1050Y1821D01*
X1089Y1847D01*
X1130Y1870D01*
X1173Y1889D01*
X1217Y1905D01*
X1262Y1917D01*
X1308Y1925D01*
X1355Y1929D01*
X1401Y1929D01*
X1448Y1925D01*
X1494Y1917D01*
X1539Y1905D01*
X1583Y1889D01*
X1626Y1870D01*
X1667Y1847D01*
X1706Y1821D01*
X1742Y1792D01*
X1776Y1759D01*
X1807Y1724D01*
X1835Y1687D01*
X1859Y1647D01*
X1880Y1605D01*
X1898Y1562D01*
X1911Y1517D01*
X1921Y1471D01*
X1927Y1425D01*
X1929Y1378D01*
X1927Y1331D01*
X1921Y1285D01*
X1911Y1239D01*
X1898Y1194D01*
X1880Y1151D01*
X1859Y1109D01*
X1835Y1069D01*
X1807Y1032D01*
X1776Y997D01*
X1742Y964D01*
X1706Y935D01*
X1667Y909D01*
X1626Y886D01*
X1583Y867D01*
X1539Y851D01*
X1494Y839D01*
X1448Y831D01*
X1401Y827D01*
X1355Y827D01*
X1308Y831D01*
X1262Y839D01*
X1217Y851D01*
X1173Y867D01*
X1130Y886D01*
X1089Y909D01*
X1050Y935D01*
X1014Y964D01*
X980Y997D01*
X949Y1032D01*
X921Y1069D01*
X897Y1109D01*
X876Y1151D01*
X858Y1194D01*
X845Y1239D01*
X835Y1285D01*
X829Y1331D01*
X827Y1378D01*
X23662Y1378D02*
X23664Y1425D01*
X23670Y1471D01*
X23680Y1517D01*
X23693Y1562D01*
X23711Y1605D01*
X23732Y1647D01*
X23756Y1687D01*
X23784Y1724D01*
X23815Y1759D01*
X23849Y1792D01*
X23885Y1821D01*
X23924Y1847D01*
X23965Y1870D01*
X24008Y1889D01*
X24052Y1905D01*
X24097Y1917D01*
X24143Y1925D01*
X24190Y1929D01*
X24236Y1929D01*
X24283Y1925D01*
X24329Y1917D01*
X24374Y1905D01*
X24418Y1889D01*
X24461Y1870D01*
X24502Y1847D01*
X24541Y1821D01*
X24577Y1792D01*
X24611Y1759D01*
X24642Y1724D01*
X24670Y1687D01*
X24694Y1647D01*
X24715Y1605D01*
X24733Y1562D01*
X24746Y1517D01*
X24756Y1471D01*
X24762Y1425D01*
X24764Y1378D01*
X24762Y1331D01*
X24756Y1285D01*
X24746Y1239D01*
X24733Y1194D01*
X24715Y1151D01*
X24694Y1109D01*
X24670Y1069D01*
X24642Y1032D01*
X24611Y997D01*
X24577Y964D01*
X24541Y935D01*
X24502Y909D01*
X24461Y886D01*
X24418Y867D01*
X24374Y851D01*
X24329Y839D01*
X24283Y831D01*
X24236Y827D01*
X24190Y827D01*
X24143Y831D01*
X24097Y839D01*
X24052Y851D01*
X24008Y867D01*
X23965Y886D01*
X23924Y909D01*
X23885Y935D01*
X23849Y964D01*
X23815Y997D01*
X23784Y1032D01*
X23756Y1069D01*
X23732Y1109D01*
X23711Y1151D01*
X23693Y1194D01*
X23680Y1239D01*
X23670Y1285D01*
X23664Y1331D01*
X23662Y1378D01*
D13*
X17348Y6466D03*
D14*
X17365Y6499D03*
D15*
X17365Y6533D03*
D16*
X17348Y6566D03*
D17*
X17332Y6599D03*
D18*
X17348Y6633D03*
D19*
X17348Y6666D03*
D20*
X17782Y6699D03*
D21*
X16948Y6699D03*
D22*
X17798Y6733D03*
D23*
X16915Y6733D03*
D22*
X17831Y6766D03*
D23*
X16882Y6766D03*
D24*
X17865Y6799D03*
D25*
X16848Y6799D03*
D26*
X17948Y6833D03*
X16781Y6833D03*
D27*
X18015Y6866D03*
D28*
X16698Y6866D03*
D29*
X18065Y6899D03*
X16665Y6899D03*
D30*
X18115Y6933D03*
X16615Y6933D03*
D31*
X18132Y6966D03*
X16565Y6966D03*
D32*
X18148Y6999D03*
X16548Y6999D03*
D33*
X18348Y7033D03*
D34*
X17982Y7033D03*
D35*
X16732Y7033D03*
D33*
X16348Y7033D03*
D34*
X18382Y7066D03*
D36*
X17981Y7066D03*
D35*
X16732Y7066D03*
D37*
X16298Y7066D03*
D38*
X18432Y7099D03*
D39*
X18015Y7099D03*
D38*
X16732Y7099D03*
X16265Y7099D03*
D35*
X18465Y7133D03*
D36*
X18015Y7133D03*
X16715Y7133D03*
D35*
X16232Y7133D03*
D34*
X18482Y7166D03*
D35*
X18032Y7166D03*
D36*
X16715Y7166D03*
X16215Y7166D03*
D40*
X18498Y7199D03*
D38*
X18032Y7199D03*
D39*
X16715Y7199D03*
X16181Y7199D03*
D35*
X18532Y7233D03*
X18032Y7233D03*
D36*
X16715Y7233D03*
D41*
X16165Y7233D03*
D36*
X18548Y7266D03*
D34*
X18015Y7266D03*
X16715Y7266D03*
D41*
X16165Y7266D03*
D42*
X18565Y7299D03*
D43*
X17932Y7299D03*
D21*
X16748Y7299D03*
D42*
X16132Y7299D03*
D36*
X18581Y7333D03*
D44*
X17915Y7333D03*
X16781Y7333D03*
D36*
X16115Y7333D03*
D45*
X18598Y7366D03*
D15*
X17931Y7366D03*
D46*
X16782Y7366D03*
D36*
X16115Y7366D03*
D47*
X18598Y7399D03*
D48*
X17932Y7399D03*
D49*
X16781Y7399D03*
D47*
X16098Y7399D03*
D36*
X18581Y7433D03*
D50*
X17932Y7433D03*
D51*
X16748Y7433D03*
D45*
X16098Y7433D03*
D52*
X18048Y7466D03*
D53*
X16632Y7466D03*
D54*
X18015Y7499D03*
D55*
X16665Y7499D03*
D28*
X18431Y7533D03*
D15*
X17331Y7533D03*
D30*
X16282Y7533D03*
D13*
X18448Y7566D03*
D56*
X17332Y7566D03*
D13*
X16248Y7566D03*
D43*
X18465Y7599D03*
D57*
X17332Y7599D03*
D43*
X16232Y7599D03*
D26*
X18515Y7633D03*
D13*
X17348Y7633D03*
D58*
X16198Y7633D03*
D26*
X18548Y7666D03*
X17348Y7666D03*
D13*
X16148Y7666D03*
D59*
X18598Y7699D03*
D25*
X17348Y7699D03*
D60*
X16115Y7699D03*
D61*
X18632Y7733D03*
D22*
X17365Y7733D03*
D27*
X16082Y7733D03*
D13*
X18648Y7766D03*
D22*
X17365Y7766D03*
D28*
X16065Y7766D03*
D60*
X18682Y7799D03*
D38*
X17365Y7799D03*
D29*
X16031Y7799D03*
D28*
X18698Y7833D03*
D37*
X17398Y7833D03*
D27*
X16015Y7833D03*
D62*
X9548Y7833D03*
D63*
X8198Y7833D03*
D34*
X6482Y7833D03*
D30*
X18715Y7866D03*
D36*
X17415Y7866D03*
D27*
X16015Y7866D03*
D41*
X9532Y7866D03*
D36*
X8215Y7866D03*
D23*
X6482Y7866D03*
D38*
X18865Y7899D03*
D64*
X18582Y7899D03*
D38*
X17432Y7899D03*
X16132Y7899D03*
D39*
X15848Y7899D03*
D38*
X9532Y7899D03*
D64*
X8215Y7899D03*
D21*
X6481Y7899D03*
D37*
X18898Y7933D03*
D36*
X18581Y7933D03*
D35*
X17432Y7933D03*
X16132Y7933D03*
D36*
X15815Y7933D03*
D35*
X9532Y7933D03*
D34*
X8215Y7933D03*
D13*
X6448Y7933D03*
D36*
X18915Y7966D03*
X18581Y7966D03*
D35*
X17432Y7966D03*
D36*
X16115Y7966D03*
D45*
X15798Y7966D03*
D35*
X9532Y7966D03*
D22*
X8231Y7966D03*
D28*
X6431Y7966D03*
D39*
X18915Y7999D03*
X18615Y7999D03*
D38*
X17432Y7999D03*
D39*
X16115Y7999D03*
D47*
X15798Y7999D03*
D38*
X9532Y7999D03*
D24*
X8231Y7999D03*
D65*
X6415Y7999D03*
D41*
X18932Y8033D03*
D34*
X18615Y8033D03*
D35*
X17432Y8033D03*
D37*
X16098Y8033D03*
D66*
X15782Y8033D03*
D35*
X9532Y8033D03*
D22*
X8231Y8033D03*
D30*
X6382Y8033D03*
D36*
X18948Y8066D03*
D58*
X18498Y8066D03*
D35*
X17432Y8066D03*
D27*
X16215Y8066D03*
D41*
X15765Y8066D03*
D35*
X9532Y8066D03*
D22*
X8231Y8066D03*
D67*
X6298Y8066D03*
D42*
X18965Y8099D03*
D29*
X18465Y8099D03*
D38*
X17432Y8099D03*
D68*
X16248Y8099D03*
D42*
X15765Y8099D03*
D38*
X9532Y8099D03*
D24*
X8231Y8099D03*
D69*
X6265Y8099D03*
D66*
X18982Y8133D03*
D44*
X18415Y8133D03*
D34*
X17415Y8133D03*
D70*
X16298Y8133D03*
D41*
X15732Y8133D03*
D35*
X9532Y8133D03*
D22*
X8231Y8133D03*
D71*
X6232Y8133D03*
D66*
X18982Y8166D03*
D15*
X18398Y8166D03*
D13*
X17348Y8166D03*
D15*
X16331Y8166D03*
D41*
X15732Y8166D03*
D35*
X9532Y8166D03*
D22*
X8231Y8166D03*
D67*
X6198Y8166D03*
D72*
X18498Y8199D03*
D73*
X17365Y8199D03*
D74*
X16315Y8199D03*
D42*
X15732Y8199D03*
D38*
X9532Y8199D03*
D24*
X8231Y8199D03*
D20*
X6182Y8199D03*
D75*
X18482Y8233D03*
D76*
X17348Y8233D03*
D75*
X16215Y8233D03*
D35*
X9532Y8233D03*
D22*
X8231Y8233D03*
D77*
X6148Y8233D03*
D78*
X18465Y8266D03*
D79*
X17331Y8266D03*
D78*
X16232Y8266D03*
D35*
X9532Y8266D03*
D22*
X8231Y8266D03*
X6131Y8266D03*
D65*
X18782Y8299D03*
D80*
X17381Y8299D03*
D29*
X15898Y8299D03*
D38*
X9532Y8299D03*
D24*
X8231Y8299D03*
D64*
X6115Y8299D03*
D28*
X18798Y8333D03*
D81*
X17382Y8333D03*
D27*
X15882Y8333D03*
D35*
X9532Y8333D03*
D67*
X8198Y8333D03*
D34*
X6115Y8333D03*
D61*
X18832Y8366D03*
D15*
X17798Y8366D03*
D82*
X16948Y8366D03*
D61*
X15865Y8366D03*
D37*
X14698Y8366D03*
D35*
X13332Y8366D03*
D56*
X11732Y8366D03*
D70*
X10398Y8366D03*
D34*
X9515Y8366D03*
D31*
X9065Y8366D03*
D16*
X7948Y8366D03*
D34*
X6782Y8366D03*
D22*
X6098Y8366D03*
D21*
X18848Y8399D03*
D68*
X17848Y8399D03*
D60*
X16882Y8399D03*
D69*
X15832Y8399D03*
D24*
X14698Y8399D03*
D38*
X13332Y8399D03*
D49*
X11748Y8399D03*
D73*
X10398Y8399D03*
D83*
X9182Y8399D03*
X7915Y8399D03*
D20*
X6782Y8399D03*
D24*
X6065Y8399D03*
D23*
X18882Y8433D03*
D26*
X17848Y8433D03*
D61*
X16865Y8433D03*
D23*
X15815Y8433D03*
D22*
X14698Y8433D03*
D34*
X13315Y8433D03*
D79*
X11765Y8433D03*
D84*
X10398Y8433D03*
D50*
X9165Y8433D03*
D85*
X7898Y8433D03*
D67*
X6798Y8433D03*
D22*
X6065Y8433D03*
D34*
X18915Y8466D03*
D23*
X17882Y8466D03*
D26*
X16848Y8466D03*
D22*
X15798Y8466D03*
X14698Y8466D03*
X13331Y8466D03*
D86*
X11748Y8466D03*
D87*
X10398Y8466D03*
D86*
X9148Y8466D03*
X7881Y8466D03*
D26*
X6815Y8466D03*
D23*
X6082Y8466D03*
D88*
X18948Y8499D03*
D24*
X17898Y8499D03*
X16798Y8499D03*
D64*
X15782Y8499D03*
D24*
X14698Y8499D03*
D25*
X13348Y8499D03*
D89*
X11748Y8499D03*
D90*
X10398Y8499D03*
D91*
X9148Y8499D03*
D92*
X7865Y8499D03*
D43*
X6832Y8499D03*
D20*
X6082Y8499D03*
D22*
X18965Y8533D03*
D34*
X17915Y8533D03*
D22*
X16765Y8533D03*
D33*
X15748Y8533D03*
D22*
X14698Y8533D03*
D77*
X13348Y8533D03*
D19*
X11748Y8533D03*
D93*
X10382Y8533D03*
D94*
X9132Y8533D03*
D18*
X7848Y8533D03*
D26*
X6848Y8533D03*
D71*
X6065Y8533D03*
D22*
X18965Y8566D03*
D33*
X17948Y8566D03*
X16748Y8566D03*
X15748Y8566D03*
D22*
X14698Y8566D03*
D77*
X13348Y8566D03*
D78*
X11765Y8566D03*
D85*
X10398Y8566D03*
D94*
X9132Y8566D03*
D95*
X7831Y8566D03*
D26*
X6881Y8566D03*
D71*
X6065Y8566D03*
D64*
X18982Y8599D03*
D38*
X17965Y8599D03*
D64*
X16715Y8599D03*
D38*
X15732Y8599D03*
D24*
X14698Y8599D03*
D25*
X13348Y8599D03*
D29*
X12131Y8599D03*
D60*
X11382Y8599D03*
D69*
X10732Y8599D03*
X10065Y8599D03*
D43*
X9432Y8599D03*
D21*
X8781Y8599D03*
D29*
X8131Y8599D03*
D43*
X7465Y8599D03*
D20*
X6915Y8599D03*
D43*
X6065Y8599D03*
D37*
X18998Y8633D03*
D34*
X17982Y8633D03*
X16715Y8633D03*
D37*
X15698Y8633D03*
D22*
X14698Y8633D03*
D77*
X13348Y8633D03*
D58*
X12198Y8633D03*
D71*
X11332Y8633D03*
X10765Y8633D03*
D77*
X10048Y8633D03*
D26*
X9448Y8633D03*
D71*
X8765Y8633D03*
D13*
X8148Y8633D03*
D71*
X7432Y8633D03*
D23*
X6915Y8633D03*
D27*
X6082Y8633D03*
D35*
X19032Y8666D03*
D34*
X18015Y8666D03*
X16715Y8666D03*
D37*
X15698Y8666D03*
D22*
X14698Y8666D03*
D77*
X13348Y8666D03*
D26*
X12248Y8666D03*
D67*
X11298Y8666D03*
D23*
X10782Y8666D03*
D22*
X10031Y8666D03*
D71*
X9465Y8666D03*
X8732Y8666D03*
D61*
X8165Y8666D03*
D23*
X7415Y8666D03*
D22*
X6931Y8666D03*
D28*
X6065Y8666D03*
D38*
X19032Y8699D03*
X18032Y8699D03*
D40*
X16698Y8699D03*
D64*
X15682Y8699D03*
D24*
X14698Y8699D03*
D25*
X13348Y8699D03*
D69*
X12265Y8699D03*
D20*
X11282Y8699D03*
D24*
X10798Y8699D03*
D64*
X10015Y8699D03*
D20*
X9482Y8699D03*
X8715Y8699D03*
D21*
X8181Y8699D03*
D20*
X7382Y8699D03*
D24*
X6931Y8699D03*
D29*
X6065Y8699D03*
D35*
X19032Y8733D03*
D36*
X18048Y8733D03*
D35*
X16665Y8733D03*
D34*
X15682Y8733D03*
D22*
X14698Y8733D03*
D77*
X13348Y8733D03*
D23*
X12282Y8733D03*
D22*
X11265Y8733D03*
X10798Y8733D03*
D34*
X10015Y8733D03*
D22*
X9498Y8733D03*
X8698Y8733D03*
D67*
X8198Y8733D03*
D23*
X7382Y8733D03*
D22*
X6931Y8733D03*
D96*
X6048Y8733D03*
D35*
X19032Y8766D03*
D36*
X18048Y8766D03*
D35*
X16632Y8766D03*
D34*
X15682Y8766D03*
D22*
X14698Y8766D03*
D77*
X13348Y8766D03*
D34*
X12282Y8766D03*
D33*
X11248Y8766D03*
D22*
X10798Y8766D03*
D34*
X10015Y8766D03*
X9515Y8766D03*
X8682Y8766D03*
D23*
X8215Y8766D03*
D22*
X7365Y8766D03*
X6931Y8766D03*
D31*
X6065Y8766D03*
D38*
X19032Y8799D03*
X18065Y8799D03*
X16632Y8799D03*
D64*
X15682Y8799D03*
D24*
X14698Y8799D03*
D25*
X13348Y8799D03*
D64*
X12282Y8799D03*
D88*
X11248Y8799D03*
D24*
X10798Y8799D03*
D64*
X10015Y8799D03*
X9515Y8799D03*
D24*
X8665Y8799D03*
X8231Y8799D03*
D88*
X7348Y8799D03*
D24*
X6931Y8799D03*
D57*
X6065Y8799D03*
D35*
X19032Y8833D03*
X18065Y8833D03*
X16632Y8833D03*
D34*
X15682Y8833D03*
D22*
X14698Y8833D03*
D77*
X13348Y8833D03*
D37*
X12298Y8833D03*
D22*
X11231Y8833D03*
X10798Y8833D03*
D34*
X10015Y8833D03*
X9515Y8833D03*
D77*
X8648Y8833D03*
D22*
X8231Y8833D03*
D33*
X7348Y8833D03*
D22*
X6931Y8833D03*
D56*
X6065Y8833D03*
D35*
X19032Y8866D03*
X18065Y8866D03*
D36*
X16615Y8866D03*
D34*
X15682Y8866D03*
D22*
X14698Y8866D03*
D77*
X13348Y8866D03*
D97*
X12298Y8866D03*
D22*
X11231Y8866D03*
X10798Y8866D03*
D34*
X10015Y8866D03*
D35*
X9532Y8866D03*
D77*
X8648Y8866D03*
D22*
X8231Y8866D03*
D33*
X7348Y8866D03*
D22*
X6931Y8866D03*
D56*
X6065Y8866D03*
D38*
X19032Y8899D03*
X18065Y8899D03*
D98*
X17332Y8899D03*
D39*
X16615Y8899D03*
D64*
X15682Y8899D03*
D24*
X14698Y8899D03*
D25*
X13348Y8899D03*
D24*
X11231Y8899D03*
X10798Y8899D03*
D64*
X10015Y8899D03*
D38*
X9532Y8899D03*
D25*
X8648Y8899D03*
D24*
X8231Y8899D03*
D88*
X7348Y8899D03*
D24*
X6931Y8899D03*
D99*
X6082Y8899D03*
D35*
X19032Y8933D03*
X18065Y8933D03*
D62*
X17348Y8933D03*
D36*
X16615Y8933D03*
D34*
X15682Y8933D03*
D22*
X14698Y8933D03*
D77*
X13348Y8933D03*
D22*
X11231Y8933D03*
X10798Y8933D03*
D34*
X10015Y8933D03*
D35*
X9532Y8933D03*
D22*
X8631Y8933D03*
X8231Y8933D03*
D33*
X7348Y8933D03*
D22*
X6931Y8933D03*
X6265Y8933D03*
X5865Y8933D03*
D35*
X19032Y8966D03*
X18065Y8966D03*
D36*
X17348Y8966D03*
X16615Y8966D03*
D34*
X15682Y8966D03*
D22*
X14698Y8966D03*
D77*
X13348Y8966D03*
D22*
X11265Y8966D03*
X10798Y8966D03*
D34*
X10015Y8966D03*
D35*
X9532Y8966D03*
D22*
X8631Y8966D03*
X8231Y8966D03*
D33*
X7348Y8966D03*
D22*
X6931Y8966D03*
X6298Y8966D03*
D77*
X5848Y8966D03*
D38*
X19032Y8999D03*
X18065Y8999D03*
D39*
X17348Y8999D03*
X16615Y8999D03*
D64*
X15682Y8999D03*
D24*
X14698Y8999D03*
D25*
X13348Y8999D03*
D20*
X11282Y8999D03*
D24*
X10798Y8999D03*
D64*
X10015Y8999D03*
D38*
X9532Y8999D03*
D24*
X8631Y8999D03*
X8231Y8999D03*
D88*
X7348Y8999D03*
D24*
X6931Y8999D03*
X6298Y8999D03*
X5831Y8999D03*
D35*
X19032Y9033D03*
X18065Y9033D03*
D33*
X17348Y9033D03*
D36*
X16615Y9033D03*
D37*
X15698Y9033D03*
D22*
X14698Y9033D03*
D77*
X13348Y9033D03*
D67*
X11298Y9033D03*
D22*
X10798Y9033D03*
D34*
X10015Y9033D03*
D35*
X9532Y9033D03*
D22*
X8631Y9033D03*
X8231Y9033D03*
D33*
X7348Y9033D03*
D22*
X6931Y9033D03*
X6298Y9033D03*
D23*
X5815Y9033D03*
D37*
X18998Y9066D03*
D35*
X18065Y9066D03*
D33*
X17348Y9066D03*
D35*
X16632Y9066D03*
D36*
X15715Y9066D03*
D23*
X14682Y9066D03*
D77*
X13348Y9066D03*
D26*
X11315Y9066D03*
D22*
X10798Y9066D03*
D34*
X10015Y9066D03*
D35*
X9532Y9066D03*
D22*
X8631Y9066D03*
X8231Y9066D03*
D33*
X7348Y9066D03*
D22*
X6931Y9066D03*
D23*
X6315Y9066D03*
X5815Y9066D03*
D64*
X18982Y9099D03*
D38*
X18065Y9099D03*
D88*
X17348Y9099D03*
D38*
X16632Y9099D03*
X15732Y9099D03*
D48*
X14432Y9099D03*
D25*
X13348Y9099D03*
D21*
X11348Y9099D03*
D24*
X10798Y9099D03*
D64*
X10015Y9099D03*
D38*
X9532Y9099D03*
D24*
X8631Y9099D03*
X8231Y9099D03*
D88*
X7348Y9099D03*
D24*
X6931Y9099D03*
X6331Y9099D03*
X5798Y9099D03*
D33*
X18948Y9133D03*
D35*
X18065Y9133D03*
D33*
X17348Y9133D03*
D35*
X16632Y9133D03*
X15732Y9133D03*
D93*
X14382Y9133D03*
D77*
X13348Y9133D03*
D30*
X11415Y9133D03*
D22*
X10798Y9133D03*
D34*
X10015Y9133D03*
D35*
X9532Y9133D03*
D77*
X8648Y9133D03*
D22*
X8231Y9133D03*
D33*
X7348Y9133D03*
D22*
X6931Y9133D03*
D33*
X6348Y9133D03*
D22*
X5798Y9133D03*
D34*
X18915Y9166D03*
D35*
X18065Y9166D03*
D33*
X17348Y9166D03*
X16648Y9166D03*
X15748Y9166D03*
D94*
X14332Y9166D03*
D77*
X13348Y9166D03*
D31*
X11465Y9166D03*
D22*
X10798Y9166D03*
D34*
X10015Y9166D03*
X9515Y9166D03*
D22*
X8665Y9166D03*
X8231Y9166D03*
D33*
X7348Y9166D03*
D22*
X6931Y9166D03*
X6365Y9166D03*
X5765Y9166D03*
D64*
X18915Y9199D03*
D38*
X18032Y9199D03*
D88*
X17348Y9199D03*
X16648Y9199D03*
D64*
X15782Y9199D03*
D100*
X14315Y9199D03*
D25*
X13348Y9199D03*
D101*
X11498Y9199D03*
D24*
X10798Y9199D03*
D64*
X10015Y9199D03*
X9515Y9199D03*
X8682Y9199D03*
D20*
X8215Y9199D03*
D88*
X7348Y9199D03*
D24*
X6931Y9199D03*
D20*
X6382Y9199D03*
D88*
X5748Y9199D03*
D34*
X18882Y9233D03*
D35*
X18032Y9233D03*
D33*
X17348Y9233D03*
D34*
X16682Y9233D03*
X15815Y9233D03*
D95*
X14298Y9233D03*
D77*
X13348Y9233D03*
D102*
X11582Y9233D03*
D22*
X10798Y9233D03*
D34*
X10015Y9233D03*
D22*
X9498Y9233D03*
D34*
X8682Y9233D03*
D23*
X8215Y9233D03*
D22*
X7365Y9233D03*
X6931Y9233D03*
X6398Y9233D03*
X5731Y9233D03*
X18865Y9266D03*
D34*
X18015Y9266D03*
D33*
X17348Y9266D03*
D37*
X16698Y9266D03*
D33*
X15848Y9266D03*
D95*
X14298Y9266D03*
D77*
X13348Y9266D03*
D103*
X11665Y9266D03*
D22*
X10798Y9266D03*
D34*
X10015Y9266D03*
D23*
X9482Y9266D03*
D34*
X8682Y9266D03*
D67*
X8198Y9266D03*
D23*
X7382Y9266D03*
D22*
X6931Y9266D03*
D23*
X6415Y9266D03*
X5715Y9266D03*
D69*
X18832Y9299D03*
D64*
X18015Y9299D03*
D88*
X17348Y9299D03*
D64*
X16715Y9299D03*
D20*
X15882Y9299D03*
D104*
X14282Y9299D03*
D25*
X13348Y9299D03*
D49*
X11715Y9299D03*
D24*
X10798Y9299D03*
D64*
X10015Y9299D03*
D69*
X9465Y9299D03*
D24*
X8698Y9299D03*
D105*
X8198Y9299D03*
D20*
X7415Y9299D03*
D24*
X6931Y9299D03*
D20*
X6415Y9299D03*
X5715Y9299D03*
D67*
X18798Y9333D03*
D22*
X17998Y9333D03*
D33*
X17348Y9333D03*
D23*
X16715Y9333D03*
X15915Y9333D03*
D75*
X14282Y9333D03*
D77*
X13348Y9333D03*
D103*
X11765Y9333D03*
D22*
X10798Y9333D03*
D34*
X10015Y9333D03*
D26*
X9448Y9333D03*
D22*
X8731Y9333D03*
D26*
X8181Y9333D03*
D71*
X7432Y9333D03*
D22*
X6931Y9333D03*
X6431Y9333D03*
X5698Y9333D03*
D26*
X18748Y9366D03*
D61*
X18032Y9366D03*
D33*
X17348Y9366D03*
D58*
X16698Y9366D03*
D26*
X15981Y9366D03*
D22*
X14698Y9366D03*
D26*
X13881Y9366D03*
D77*
X13348Y9366D03*
D46*
X11815Y9366D03*
D22*
X10798Y9366D03*
D34*
X10015Y9366D03*
D61*
X9432Y9366D03*
D77*
X8748Y9366D03*
D61*
X8165Y9366D03*
D26*
X7448Y9366D03*
D22*
X6931Y9366D03*
X6431Y9366D03*
X5698Y9366D03*
D106*
X18348Y9399D03*
D88*
X17348Y9399D03*
D104*
X16382Y9399D03*
D24*
X14698Y9399D03*
D69*
X13865Y9399D03*
D25*
X13348Y9399D03*
D73*
X11865Y9399D03*
D24*
X10798Y9399D03*
D64*
X10015Y9399D03*
D92*
X9132Y9399D03*
D72*
X7831Y9399D03*
D24*
X6931Y9399D03*
X6465Y9399D03*
X5665Y9399D03*
D75*
X18315Y9433D03*
D33*
X17348Y9433D03*
D75*
X16415Y9433D03*
D22*
X14698Y9433D03*
D71*
X13832Y9433D03*
D77*
X13348Y9433D03*
D102*
X11915Y9433D03*
D22*
X10798Y9433D03*
D34*
X10015Y9433D03*
D94*
X9132Y9433D03*
D95*
X7831Y9433D03*
D22*
X6931Y9433D03*
D34*
X6482Y9433D03*
D22*
X5665Y9433D03*
D75*
X18282Y9466D03*
D33*
X17348Y9466D03*
D19*
X16448Y9466D03*
D22*
X14698Y9466D03*
D23*
X13815Y9466D03*
D77*
X13348Y9466D03*
D44*
X11981Y9466D03*
D22*
X10798Y9466D03*
D34*
X10015Y9466D03*
D86*
X9148Y9466D03*
D18*
X7848Y9466D03*
D22*
X6931Y9466D03*
D34*
X6482Y9466D03*
D33*
X5648Y9466D03*
D100*
X18215Y9499D03*
D88*
X17348Y9499D03*
D72*
X16498Y9499D03*
D24*
X14698Y9499D03*
X13798Y9499D03*
D25*
X13348Y9499D03*
D59*
X12098Y9499D03*
D24*
X10798Y9499D03*
D64*
X10015Y9499D03*
D91*
X9148Y9499D03*
D89*
X7848Y9499D03*
D24*
X6931Y9499D03*
D64*
X6482Y9499D03*
D88*
X5648Y9499D03*
D107*
X18182Y9533D03*
D33*
X17348Y9533D03*
D95*
X16531Y9533D03*
D22*
X14698Y9533D03*
D34*
X13782Y9533D03*
D22*
X13331Y9533D03*
D26*
X12115Y9533D03*
D22*
X10798Y9533D03*
D34*
X10015Y9533D03*
D50*
X9165Y9533D03*
D94*
X7865Y9533D03*
D22*
X6931Y9533D03*
D34*
X6482Y9533D03*
D35*
X5632Y9533D03*
D30*
X18382Y9566D03*
D22*
X17765Y9566D03*
D33*
X17348Y9566D03*
D23*
X16915Y9566D03*
D28*
X16331Y9566D03*
D22*
X14698Y9566D03*
D34*
X13782Y9566D03*
D22*
X13331Y9566D03*
D71*
X12132Y9566D03*
D22*
X10798Y9566D03*
D34*
X10015Y9566D03*
D93*
X9182Y9566D03*
D50*
X7865Y9566D03*
D22*
X6931Y9566D03*
D37*
X6498Y9566D03*
D35*
X5632Y9566D03*
D64*
X18382Y9599D03*
D88*
X17748Y9599D03*
X17348Y9599D03*
D24*
X16931Y9599D03*
D64*
X16315Y9599D03*
D24*
X14698Y9599D03*
D64*
X13782Y9599D03*
D38*
X13332Y9599D03*
D25*
X12148Y9599D03*
D40*
X10798Y9599D03*
D39*
X10015Y9599D03*
X9548Y9599D03*
D32*
X9048Y9599D03*
D74*
X7915Y9599D03*
D24*
X6931Y9599D03*
D39*
X6481Y9599D03*
X5615Y9599D03*
D35*
X17732Y9633D03*
D33*
X17348Y9633D03*
D35*
X16965Y9633D03*
D22*
X14698Y9633D03*
D34*
X13782Y9633D03*
D23*
X12182Y9633D03*
D35*
X9065Y9633D03*
D34*
X7782Y9633D03*
D22*
X6931Y9633D03*
D41*
X17732Y9666D03*
D33*
X17348Y9666D03*
D36*
X16981Y9666D03*
D22*
X14698Y9666D03*
D34*
X13782Y9666D03*
D22*
X12198Y9666D03*
D66*
X9082Y9666D03*
D41*
X7765Y9666D03*
D22*
X6931Y9666D03*
D108*
X17715Y9699D03*
D88*
X17348Y9699D03*
D108*
X16982Y9699D03*
D24*
X14698Y9699D03*
D64*
X13782Y9699D03*
X12215Y9699D03*
D24*
X6931Y9699D03*
D33*
X17348Y9733D03*
D22*
X14698Y9733D03*
D34*
X13782Y9733D03*
X12215Y9733D03*
D41*
X11265Y9733D03*
D22*
X6931Y9733D03*
D33*
X17348Y9766D03*
D22*
X14698Y9766D03*
X13798Y9766D03*
D34*
X12215Y9766D03*
D36*
X11281Y9766D03*
D22*
X6931Y9766D03*
D88*
X17348Y9799D03*
D24*
X14698Y9799D03*
D20*
X13815Y9799D03*
D24*
X12198Y9799D03*
D38*
X11265Y9799D03*
D24*
X6931Y9799D03*
D33*
X17348Y9833D03*
D22*
X14698Y9833D03*
X13831Y9833D03*
D35*
X13332Y9833D03*
D22*
X12165Y9833D03*
D34*
X11282Y9833D03*
D22*
X6931Y9833D03*
D33*
X17348Y9866D03*
D22*
X14698Y9866D03*
D77*
X13848Y9866D03*
D22*
X13331Y9866D03*
X12165Y9866D03*
D23*
X11315Y9866D03*
D22*
X6931Y9866D03*
D88*
X17348Y9899D03*
D24*
X14698Y9899D03*
D21*
X13881Y9899D03*
D24*
X13331Y9899D03*
D25*
X12148Y9899D03*
D69*
X11332Y9899D03*
D24*
X6931Y9899D03*
D33*
X17348Y9933D03*
D23*
X14682Y9933D03*
D58*
X13898Y9933D03*
D71*
X13332Y9933D03*
X12132Y9933D03*
D26*
X11348Y9933D03*
D22*
X6931Y9933D03*
D33*
X17348Y9966D03*
D75*
X14282Y9966D03*
D71*
X13332Y9966D03*
D78*
X11732Y9966D03*
D22*
X6931Y9966D03*
D88*
X17348Y9999D03*
D104*
X14282Y9999D03*
D24*
X13331Y9999D03*
D72*
X11731Y9999D03*
D24*
X6931Y9999D03*
D33*
X17348Y10033D03*
D95*
X14298Y10033D03*
D34*
X13315Y10033D03*
D94*
X11732Y10033D03*
D22*
X6931Y10033D03*
D33*
X17348Y10066D03*
D107*
X14315Y10066D03*
D41*
X13332Y10066D03*
D50*
X11732Y10066D03*
D22*
X6931Y10066D03*
D88*
X17348Y10099D03*
D92*
X14332Y10099D03*
D90*
X11731Y10099D03*
D24*
X6931Y10099D03*
D33*
X17348Y10133D03*
D50*
X14332Y10133D03*
D109*
X11732Y10133D03*
D22*
X6931Y10133D03*
D33*
X17348Y10166D03*
D16*
X14348Y10166D03*
D15*
X11731Y10166D03*
D22*
X6931Y10166D03*
D38*
X17365Y10199D03*
D43*
X11732Y10199D03*
D38*
X6932Y10199D03*
D36*
X17348Y10233D03*
D35*
X6932Y10233D03*
D41*
X17365Y10266D03*
X6932Y10266D03*
D110*
X17365Y10299D03*
X6931Y10299D03*
D111*
X34Y-105D02*
X43Y-114D01*
X34Y-105D02*
X15Y-105D01*
X5Y-114D01*
X5Y-152D01*
X15Y-162D01*
X34Y-162D01*
X43Y-152D01*
X67Y-124D02*
X76Y-124D01*
X76Y-133D01*
X67Y-133D01*
X67Y-124D01*
X67Y-152D02*
X76Y-152D01*
X76Y-162D01*
X67Y-162D01*
X67Y-152D01*
X98Y-162D02*
X136Y-105D01*
X159Y-105D02*
X159Y-152D01*
X169Y-162D01*
X188Y-162D01*
X197Y-152D01*
X197Y-105D01*
X221Y-162D02*
X249Y-162D01*
X259Y-152D01*
X249Y-143D01*
X230Y-143D01*
X221Y-133D01*
X230Y-124D01*
X259Y-124D01*
X292Y-162D02*
X311Y-162D01*
X292Y-162D02*
X283Y-152D01*
X283Y-133D01*
X292Y-124D01*
X311Y-124D01*
X321Y-133D01*
X321Y-143D01*
X283Y-143D01*
X344Y-162D02*
X344Y-124D01*
X344Y-143D02*
X363Y-124D01*
X373Y-124D01*
X396Y-162D02*
X424Y-162D01*
X434Y-152D01*
X424Y-143D01*
X405Y-143D01*
X396Y-133D01*
X405Y-124D01*
X434Y-124D01*
X457Y-162D02*
X495Y-105D01*
X519Y-105D02*
X519Y-162D01*
X519Y-105D02*
X548Y-105D01*
X557Y-114D01*
X557Y-133D01*
X548Y-143D01*
X519Y-143D01*
X538Y-143D02*
X557Y-162D01*
X581Y-152D02*
X581Y-124D01*
X581Y-152D02*
X590Y-162D01*
X619Y-162D01*
X619Y-172D02*
X619Y-124D01*
X619Y-172D02*
X609Y-181D01*
X600Y-181D01*
X652Y-124D02*
X671Y-124D01*
X681Y-133D01*
X681Y-162D01*
X652Y-162D01*
X642Y-152D01*
X652Y-143D01*
X681Y-143D01*
X704Y-162D02*
X704Y-124D01*
X733Y-124D01*
X742Y-133D01*
X742Y-162D01*
X766Y-162D02*
X804Y-105D01*
X828Y-105D02*
X828Y-162D01*
X828Y-105D02*
X856Y-105D01*
X866Y-114D01*
X866Y-133D01*
X856Y-143D01*
X828Y-143D01*
X889Y-124D02*
X899Y-124D01*
X899Y-162D01*
X908Y-162D02*
X889Y-162D01*
X899Y-105D02*
X899Y-95D01*
X940Y-124D02*
X968Y-124D01*
X940Y-124D02*
X930Y-133D01*
X930Y-152D01*
X940Y-162D01*
X968Y-162D01*
X1002Y-152D02*
X1002Y-114D01*
X1002Y-152D02*
X1011Y-162D01*
X1011Y-124D02*
X992Y-124D01*
X1033Y-124D02*
X1033Y-152D01*
X1043Y-162D01*
X1071Y-162D01*
X1071Y-124D01*
X1095Y-124D02*
X1095Y-162D01*
X1095Y-143D02*
X1114Y-124D01*
X1123Y-124D01*
X1156Y-162D02*
X1175Y-162D01*
X1156Y-162D02*
X1146Y-152D01*
X1146Y-133D01*
X1156Y-124D01*
X1175Y-124D01*
X1184Y-133D01*
X1184Y-143D01*
X1146Y-143D01*
X1208Y-162D02*
X1237Y-162D01*
X1246Y-152D01*
X1237Y-143D01*
X1218Y-143D01*
X1208Y-133D01*
X1218Y-124D01*
X1246Y-124D01*
X1270Y-162D02*
X1308Y-105D01*
X1331Y-105D02*
X1341Y-105D01*
X1341Y-162D01*
X1350Y-162D02*
X1331Y-162D01*
X1382Y-162D02*
X1401Y-162D01*
X1411Y-152D01*
X1411Y-133D01*
X1401Y-124D01*
X1382Y-124D01*
X1373Y-133D01*
X1373Y-152D01*
X1382Y-162D01*
X1453Y-181D02*
X1463Y-181D01*
X1472Y-172D01*
X1472Y-124D01*
X1444Y-124D01*
X1434Y-133D01*
X1434Y-152D01*
X1444Y-162D01*
X1472Y-162D01*
X1505Y-162D02*
X1524Y-162D01*
X1534Y-152D01*
X1534Y-133D01*
X1524Y-124D01*
X1505Y-124D01*
X1496Y-133D01*
X1496Y-152D01*
X1505Y-162D01*
X1558Y-133D02*
X1596Y-133D01*
X1619Y-133D02*
X1657Y-133D01*
X1681Y-162D02*
X1710Y-162D01*
X1719Y-152D01*
X1710Y-143D01*
X1690Y-143D01*
X1681Y-133D01*
X1690Y-124D01*
X1719Y-124D01*
X1743Y-124D02*
X1743Y-162D01*
X1743Y-124D02*
X1752Y-124D01*
X1762Y-133D01*
X1762Y-162D01*
X1762Y-133D02*
X1771Y-124D01*
X1781Y-133D01*
X1781Y-162D01*
X1814Y-124D02*
X1833Y-124D01*
X1842Y-133D01*
X1842Y-162D01*
X1814Y-162D01*
X1804Y-152D01*
X1814Y-143D01*
X1842Y-143D01*
X1866Y-105D02*
X1876Y-105D01*
X1876Y-162D01*
X1885Y-162D02*
X1866Y-162D01*
X1907Y-105D02*
X1917Y-105D01*
X1917Y-162D01*
X1926Y-162D02*
X1907Y-162D01*
X1948Y-133D02*
X1986Y-133D01*
X2010Y-124D02*
X2010Y-162D01*
X2010Y-143D02*
X2029Y-124D01*
X2039Y-124D01*
X2071Y-162D02*
X2090Y-162D01*
X2071Y-162D02*
X2061Y-152D01*
X2061Y-133D01*
X2071Y-124D01*
X2090Y-124D01*
X2099Y-133D01*
X2099Y-143D01*
X2061Y-143D01*
X2161Y-162D02*
X2161Y-105D01*
X2161Y-162D02*
X2133Y-162D01*
X2123Y-152D01*
X2123Y-133D01*
X2133Y-124D01*
X2161Y-124D01*
X2185Y-152D02*
X2185Y-162D01*
X2185Y-152D02*
X2194Y-152D01*
X2194Y-162D01*
X2185Y-162D01*
X2216Y-162D02*
X2216Y-105D01*
X2216Y-162D02*
X2244Y-162D01*
X2254Y-152D01*
X2254Y-133D01*
X2244Y-124D01*
X2216Y-124D01*
X2277Y-124D02*
X2277Y-162D01*
X2277Y-124D02*
X2287Y-124D01*
X2296Y-133D01*
X2296Y-162D01*
X2296Y-133D02*
X2306Y-124D01*
X2315Y-133D01*
X2315Y-162D01*
X2339Y-181D02*
X2339Y-124D01*
X2368Y-124D01*
X2377Y-133D01*
X2377Y-152D01*
X2368Y-162D01*
X2339Y-162D01*
D12*
X2489Y16699D02*
X2949Y16699D01*
X2949Y16929D01*
X2872Y17006D01*
X2719Y17006D01*
X2642Y16929D01*
X2642Y16699D01*
X2642Y16853D02*
X2489Y17006D01*
X2795Y17160D02*
X2949Y17313D01*
X2489Y17313D01*
X2489Y17160D02*
X2489Y17466D01*
X8394Y16699D02*
X8854Y16699D01*
X8854Y16929D01*
X8778Y17006D01*
X8624Y17006D01*
X8547Y16929D01*
X8547Y16699D01*
X8547Y16853D02*
X8394Y17006D01*
X8394Y17160D02*
X8394Y17466D01*
X8394Y17160D02*
X8701Y17466D01*
X8778Y17466D01*
X8854Y17390D01*
X8854Y17236D01*
X8778Y17160D01*
X14300Y16699D02*
X14760Y16699D01*
X14760Y16929D01*
X14683Y17006D01*
X14530Y17006D01*
X14453Y16929D01*
X14453Y16699D01*
X14453Y16853D02*
X14300Y17006D01*
X14683Y17160D02*
X14760Y17236D01*
X14760Y17390D01*
X14683Y17466D01*
X14606Y17466D01*
X14530Y17390D01*
X14530Y17313D01*
X14530Y17390D02*
X14453Y17466D01*
X14376Y17466D01*
X14300Y17390D01*
X14300Y17236D01*
X14376Y17160D01*
X10493Y2236D02*
X10493Y1776D01*
X10493Y2236D02*
X10263Y2236D01*
X10186Y2160D01*
X10186Y2006D01*
X10263Y1929D01*
X10493Y1929D01*
X10340Y1929D02*
X10186Y1776D01*
X9803Y1776D02*
X9803Y2236D01*
X10033Y2006D01*
X9726Y2006D01*
D112*
X18831Y1796D02*
X19751Y1796D01*
X19171Y3716D02*
X18831Y3716D01*
X19171Y3716D02*
X19411Y3716D01*
X19751Y3716D01*
D10*
X19411Y3716D02*
X19409Y3695D01*
X19404Y3675D01*
X19395Y3656D01*
X19383Y3639D01*
X19368Y3624D01*
X19351Y3612D01*
X19332Y3603D01*
X19312Y3598D01*
X19291Y3596D01*
X19270Y3598D01*
X19250Y3603D01*
X19231Y3612D01*
X19214Y3624D01*
X19199Y3639D01*
X19187Y3656D01*
X19178Y3675D01*
X19173Y3695D01*
X19171Y3716D01*
D113*
X20223Y3769D02*
X20536Y4083D01*
X20223Y4083D02*
X20536Y3769D01*
X20536Y3926D02*
X20223Y3926D01*
X20380Y3769D02*
X20380Y4083D01*
D114*
X20746Y4371D02*
X21046Y4371D01*
X21046Y3921D01*
X20746Y3921D01*
X20896Y4146D02*
X21046Y4146D01*
X20586Y4371D02*
X20286Y4371D01*
X20586Y4371D02*
X20586Y3921D01*
X20286Y3921D01*
X20436Y4146D02*
X20586Y4146D01*
X20126Y3921D02*
X20126Y4371D01*
X19900Y4371D01*
X19825Y4296D01*
X19825Y4146D01*
X19900Y4071D01*
X20126Y4071D01*
X19665Y3921D02*
X19665Y4371D01*
X19440Y4371D01*
X19365Y4296D01*
X19365Y4146D01*
X19440Y4071D01*
X19665Y4071D01*
X19515Y4071D02*
X19365Y3921D01*
X19130Y4371D02*
X18980Y4371D01*
X19130Y4371D02*
X19205Y4296D01*
X19205Y3996D01*
X19130Y3921D01*
X18980Y3921D01*
X18905Y3996D01*
X18905Y4296D01*
X18980Y4371D01*
X18744Y4371D02*
X18744Y3921D01*
X18594Y4221D02*
X18744Y4371D01*
X18594Y4221D02*
X18444Y4371D01*
X18444Y3921D01*
D12*
X13222Y2555D02*
X13222Y2095D01*
X13222Y2555D02*
X12992Y2555D01*
X12915Y2478D01*
X12915Y2325D01*
X12992Y2248D01*
X13222Y2248D01*
X13069Y2248D02*
X12915Y2095D01*
X12762Y2555D02*
X12455Y2555D01*
X12762Y2555D02*
X12762Y2325D01*
X12608Y2402D01*
X12532Y2402D01*
X12455Y2325D01*
X12455Y2172D01*
X12532Y2095D01*
X12685Y2095D01*
X12762Y2172D01*
X15191Y2095D02*
X15191Y2555D01*
X14960Y2555D01*
X14884Y2478D01*
X14884Y2325D01*
X14960Y2248D01*
X15191Y2248D01*
X15037Y2248D02*
X14884Y2095D01*
X14577Y2478D02*
X14423Y2555D01*
X14577Y2478D02*
X14730Y2325D01*
X14730Y2172D01*
X14654Y2095D01*
X14500Y2095D01*
X14423Y2172D01*
X14423Y2248D01*
X14500Y2325D01*
X14730Y2325D01*
X16765Y2095D02*
X16765Y2555D01*
X16535Y2555D01*
X16459Y2478D01*
X16459Y2325D01*
X16535Y2248D01*
X16765Y2248D01*
X16612Y2248D02*
X16459Y2095D01*
X16305Y2555D02*
X15998Y2555D01*
X15998Y2478D01*
X16305Y2172D01*
X16305Y2095D01*
X11273Y6492D02*
X11197Y6415D01*
X11273Y6492D02*
X11427Y6492D01*
X11504Y6415D01*
X11504Y6109D01*
X11427Y6032D01*
X11273Y6032D01*
X11197Y6109D01*
X11043Y6339D02*
X10890Y6492D01*
X10890Y6032D01*
X11043Y6032D02*
X10736Y6032D01*
M02*
