G04 EAGLE Gerber RS-274X export*
G75*
%MOIN*%
%FSLAX34Y34*%
%LPD*%
%INBottom copper*%
%IPPOS*%
%AMOC8*
5,1,8,0,0,1.08239X$1,22.5*%
G01*
%ADD10C,0.000000*%
%ADD11R,0.050000X0.061811*%
%ADD12R,0.066000X0.066000*%
%ADD13P,0.071438X8X22.500000*%
%ADD14R,0.059055X0.051181*%
%ADD15C,0.070500*%
%ADD16P,0.092003X8X22.500000*%
%ADD17R,0.051181X0.059055*%
%ADD18R,0.078000X0.022000*%
%ADD19R,0.051496X0.051496*%
%ADD20C,0.051496*%
%ADD21C,0.016000*%
%ADD22C,0.024000*%
%ADD23C,0.039622*%

G36*
X23296Y401D02*
X23296Y401D01*
X23298Y401D01*
X23304Y402D01*
X23310Y402D01*
X23312Y403D01*
X23314Y403D01*
X23319Y405D01*
X23325Y407D01*
X23327Y408D01*
X23329Y409D01*
X23334Y412D01*
X23339Y415D01*
X23340Y416D01*
X23342Y417D01*
X23346Y421D01*
X23351Y425D01*
X23352Y426D01*
X23354Y428D01*
X23357Y432D01*
X23361Y437D01*
X23362Y439D01*
X23363Y441D01*
X23365Y446D01*
X23368Y451D01*
X23368Y453D01*
X23369Y455D01*
X23371Y461D01*
X23372Y466D01*
X23372Y468D01*
X23373Y470D01*
X23373Y476D01*
X23373Y482D01*
X23373Y484D01*
X23373Y486D01*
X23372Y492D01*
X23371Y498D01*
X23371Y500D01*
X23370Y502D01*
X23368Y507D01*
X23366Y513D01*
X23365Y514D01*
X23364Y516D01*
X23361Y521D01*
X23358Y526D01*
X23357Y528D01*
X23356Y530D01*
X23349Y537D01*
X23348Y538D01*
X23250Y629D01*
X23059Y982D01*
X22992Y1378D01*
X23059Y1774D01*
X23250Y2127D01*
X23545Y2399D01*
X23913Y2561D01*
X24313Y2594D01*
X24703Y2495D01*
X25039Y2276D01*
X25048Y2264D01*
X25052Y2260D01*
X25055Y2256D01*
X25057Y2254D01*
X25059Y2253D01*
X25063Y2249D01*
X25068Y2246D01*
X25070Y2245D01*
X25072Y2244D01*
X25077Y2241D01*
X25082Y2239D01*
X25084Y2238D01*
X25086Y2237D01*
X25092Y2236D01*
X25097Y2235D01*
X25099Y2234D01*
X25102Y2234D01*
X25107Y2234D01*
X25113Y2233D01*
X25115Y2234D01*
X25117Y2234D01*
X25123Y2235D01*
X25128Y2235D01*
X25131Y2236D01*
X25133Y2237D01*
X25138Y2239D01*
X25143Y2240D01*
X25145Y2242D01*
X25148Y2243D01*
X25152Y2246D01*
X25157Y2248D01*
X25159Y2250D01*
X25161Y2251D01*
X25165Y2255D01*
X25169Y2259D01*
X25170Y2261D01*
X25172Y2263D01*
X25175Y2267D01*
X25178Y2271D01*
X25179Y2274D01*
X25181Y2276D01*
X25183Y2281D01*
X25185Y2286D01*
X25186Y2288D01*
X25187Y2290D01*
X25188Y2296D01*
X25189Y2301D01*
X25189Y2304D01*
X25190Y2306D01*
X25189Y2308D01*
X25190Y2313D01*
X25190Y19735D01*
X25189Y19740D01*
X25189Y19745D01*
X25188Y19748D01*
X25188Y19750D01*
X25187Y19755D01*
X25185Y19761D01*
X25184Y19763D01*
X25184Y19765D01*
X25181Y19770D01*
X25179Y19775D01*
X25177Y19777D01*
X25176Y19779D01*
X25173Y19783D01*
X25169Y19788D01*
X25168Y19789D01*
X25166Y19791D01*
X25162Y19795D01*
X25158Y19798D01*
X25156Y19800D01*
X25154Y19801D01*
X25149Y19804D01*
X25144Y19806D01*
X25142Y19807D01*
X25140Y19808D01*
X25134Y19810D01*
X25129Y19812D01*
X25127Y19812D01*
X25124Y19813D01*
X25119Y19813D01*
X25114Y19814D01*
X25111Y19814D01*
X25109Y19814D01*
X25103Y19813D01*
X25098Y19813D01*
X25095Y19812D01*
X25093Y19812D01*
X25088Y19810D01*
X25083Y19809D01*
X25080Y19808D01*
X25078Y19807D01*
X25073Y19804D01*
X25068Y19802D01*
X25066Y19800D01*
X25064Y19799D01*
X25060Y19795D01*
X25056Y19792D01*
X25054Y19790D01*
X25052Y19788D01*
X25051Y19787D01*
X25048Y19783D01*
X25039Y19772D01*
X24703Y19552D01*
X24313Y19453D01*
X23913Y19486D01*
X23545Y19648D01*
X23250Y19920D01*
X23059Y20273D01*
X22992Y20669D01*
X23059Y21065D01*
X23250Y21419D01*
X23545Y21691D01*
X23547Y21692D01*
X23553Y21695D01*
X23560Y21699D01*
X23561Y21699D01*
X23566Y21704D01*
X23572Y21709D01*
X23573Y21710D01*
X23577Y21715D01*
X23582Y21721D01*
X23582Y21722D01*
X23586Y21729D01*
X23589Y21735D01*
X23589Y21736D01*
X23591Y21743D01*
X23593Y21750D01*
X23593Y21751D01*
X23594Y21759D01*
X23594Y21766D01*
X23594Y21767D01*
X23593Y21774D01*
X23592Y21782D01*
X23592Y21783D01*
X23590Y21790D01*
X23587Y21797D01*
X23587Y21798D01*
X23583Y21804D01*
X23580Y21810D01*
X23579Y21811D01*
X23574Y21817D01*
X23569Y21822D01*
X23569Y21823D01*
X23568Y21823D01*
X23562Y21827D01*
X23557Y21832D01*
X23556Y21832D01*
X23549Y21835D01*
X23542Y21839D01*
X23541Y21839D01*
X23534Y21841D01*
X23527Y21842D01*
X23526Y21843D01*
X23524Y21843D01*
X23515Y21843D01*
X22705Y21843D01*
X22704Y21843D01*
X22703Y21843D01*
X22696Y21842D01*
X22690Y21842D01*
X22689Y21841D01*
X22688Y21841D01*
X22681Y21839D01*
X22674Y21837D01*
X22673Y21836D01*
X22667Y21833D01*
X22661Y21830D01*
X22660Y21829D01*
X22659Y21828D01*
X22654Y21824D01*
X22649Y21819D01*
X22648Y21819D01*
X22647Y21818D01*
X22643Y21813D01*
X22639Y21807D01*
X22638Y21806D01*
X22638Y21805D01*
X22635Y21799D01*
X22632Y21793D01*
X22631Y21792D01*
X22631Y21791D01*
X22629Y21785D01*
X22627Y21778D01*
X22627Y21777D01*
X22627Y21776D01*
X22626Y21764D01*
X22626Y21433D01*
X22579Y21386D01*
X22012Y21386D01*
X21965Y21433D01*
X21965Y21764D01*
X21964Y21765D01*
X21965Y21766D01*
X21964Y21773D01*
X21963Y21780D01*
X21963Y21781D01*
X21963Y21782D01*
X21960Y21788D01*
X21958Y21795D01*
X21958Y21796D01*
X21958Y21797D01*
X21954Y21803D01*
X21951Y21809D01*
X21950Y21809D01*
X21950Y21810D01*
X21945Y21816D01*
X21941Y21821D01*
X21940Y21821D01*
X21939Y21822D01*
X21934Y21826D01*
X21928Y21831D01*
X21927Y21831D01*
X21927Y21832D01*
X21920Y21835D01*
X21914Y21838D01*
X21913Y21838D01*
X21912Y21839D01*
X21906Y21840D01*
X21899Y21842D01*
X21898Y21842D01*
X21897Y21842D01*
X21885Y21843D01*
X21705Y21843D01*
X21704Y21843D01*
X21703Y21843D01*
X21696Y21842D01*
X21690Y21842D01*
X21689Y21841D01*
X21688Y21841D01*
X21681Y21839D01*
X21674Y21837D01*
X21673Y21836D01*
X21667Y21833D01*
X21661Y21830D01*
X21660Y21829D01*
X21659Y21828D01*
X21654Y21824D01*
X21649Y21819D01*
X21648Y21819D01*
X21647Y21818D01*
X21643Y21813D01*
X21639Y21807D01*
X21638Y21806D01*
X21638Y21805D01*
X21635Y21799D01*
X21632Y21793D01*
X21631Y21792D01*
X21631Y21791D01*
X21629Y21785D01*
X21627Y21778D01*
X21627Y21777D01*
X21627Y21776D01*
X21626Y21764D01*
X21626Y21433D01*
X21579Y21386D01*
X21012Y21386D01*
X20965Y21433D01*
X20965Y21764D01*
X20964Y21765D01*
X20965Y21766D01*
X20964Y21773D01*
X20963Y21780D01*
X20963Y21781D01*
X20963Y21782D01*
X20960Y21788D01*
X20958Y21795D01*
X20958Y21796D01*
X20958Y21797D01*
X20954Y21803D01*
X20951Y21809D01*
X20950Y21809D01*
X20950Y21810D01*
X20945Y21816D01*
X20941Y21821D01*
X20940Y21821D01*
X20939Y21822D01*
X20934Y21826D01*
X20928Y21831D01*
X20927Y21831D01*
X20927Y21832D01*
X20920Y21835D01*
X20914Y21838D01*
X20913Y21838D01*
X20912Y21839D01*
X20906Y21840D01*
X20899Y21842D01*
X20898Y21842D01*
X20897Y21842D01*
X20885Y21843D01*
X20705Y21843D01*
X20704Y21843D01*
X20703Y21843D01*
X20696Y21842D01*
X20690Y21842D01*
X20689Y21841D01*
X20688Y21841D01*
X20681Y21839D01*
X20674Y21837D01*
X20673Y21836D01*
X20667Y21833D01*
X20661Y21830D01*
X20660Y21829D01*
X20659Y21828D01*
X20654Y21824D01*
X20649Y21819D01*
X20648Y21819D01*
X20647Y21818D01*
X20643Y21813D01*
X20639Y21807D01*
X20638Y21806D01*
X20638Y21805D01*
X20635Y21799D01*
X20632Y21793D01*
X20631Y21792D01*
X20631Y21791D01*
X20629Y21785D01*
X20627Y21778D01*
X20627Y21777D01*
X20627Y21776D01*
X20626Y21764D01*
X20626Y21433D01*
X20579Y21386D01*
X20012Y21386D01*
X19965Y21433D01*
X19965Y21764D01*
X19964Y21765D01*
X19965Y21766D01*
X19964Y21773D01*
X19963Y21780D01*
X19963Y21781D01*
X19963Y21782D01*
X19960Y21788D01*
X19958Y21795D01*
X19958Y21796D01*
X19958Y21797D01*
X19954Y21803D01*
X19951Y21809D01*
X19950Y21809D01*
X19950Y21810D01*
X19945Y21816D01*
X19941Y21821D01*
X19940Y21821D01*
X19939Y21822D01*
X19934Y21826D01*
X19928Y21831D01*
X19927Y21831D01*
X19927Y21832D01*
X19920Y21835D01*
X19914Y21838D01*
X19913Y21838D01*
X19912Y21839D01*
X19906Y21840D01*
X19899Y21842D01*
X19898Y21842D01*
X19897Y21842D01*
X19885Y21843D01*
X19340Y21843D01*
X19339Y21843D01*
X19338Y21843D01*
X19331Y21842D01*
X19325Y21842D01*
X19324Y21841D01*
X19323Y21841D01*
X19316Y21839D01*
X19310Y21837D01*
X19309Y21837D01*
X19308Y21836D01*
X19302Y21833D01*
X19296Y21830D01*
X19295Y21829D01*
X19293Y21831D01*
X19292Y21831D01*
X19292Y21832D01*
X19285Y21835D01*
X19279Y21838D01*
X19278Y21838D01*
X19277Y21839D01*
X19271Y21840D01*
X19264Y21842D01*
X19263Y21842D01*
X19262Y21842D01*
X19250Y21843D01*
X18705Y21843D01*
X18704Y21843D01*
X18703Y21843D01*
X18696Y21842D01*
X18690Y21842D01*
X18689Y21841D01*
X18688Y21841D01*
X18681Y21839D01*
X18674Y21837D01*
X18673Y21836D01*
X18667Y21833D01*
X18661Y21830D01*
X18660Y21829D01*
X18659Y21828D01*
X18654Y21824D01*
X18649Y21819D01*
X18648Y21819D01*
X18647Y21818D01*
X18643Y21813D01*
X18639Y21807D01*
X18638Y21806D01*
X18638Y21805D01*
X18635Y21799D01*
X18632Y21793D01*
X18631Y21792D01*
X18631Y21791D01*
X18629Y21785D01*
X18627Y21778D01*
X18627Y21777D01*
X18627Y21776D01*
X18626Y21764D01*
X18626Y21433D01*
X18579Y21386D01*
X18012Y21386D01*
X17965Y21433D01*
X17965Y21764D01*
X17964Y21765D01*
X17965Y21766D01*
X17964Y21773D01*
X17963Y21780D01*
X17963Y21781D01*
X17963Y21782D01*
X17960Y21788D01*
X17958Y21795D01*
X17958Y21796D01*
X17958Y21797D01*
X17954Y21803D01*
X17951Y21809D01*
X17950Y21809D01*
X17950Y21810D01*
X17945Y21816D01*
X17941Y21821D01*
X17940Y21821D01*
X17939Y21822D01*
X17934Y21826D01*
X17928Y21831D01*
X17927Y21831D01*
X17927Y21832D01*
X17920Y21835D01*
X17914Y21838D01*
X17913Y21838D01*
X17912Y21839D01*
X17906Y21840D01*
X17899Y21842D01*
X17898Y21842D01*
X17897Y21842D01*
X17885Y21843D01*
X17340Y21843D01*
X17339Y21843D01*
X17338Y21843D01*
X17331Y21842D01*
X17325Y21842D01*
X17324Y21841D01*
X17323Y21841D01*
X17316Y21839D01*
X17310Y21837D01*
X17309Y21837D01*
X17308Y21836D01*
X17302Y21833D01*
X17296Y21830D01*
X17295Y21829D01*
X17293Y21831D01*
X17292Y21831D01*
X17292Y21832D01*
X17285Y21835D01*
X17279Y21838D01*
X17278Y21838D01*
X17277Y21839D01*
X17271Y21840D01*
X17264Y21842D01*
X17263Y21842D01*
X17262Y21842D01*
X17250Y21843D01*
X16705Y21843D01*
X16704Y21843D01*
X16703Y21843D01*
X16696Y21842D01*
X16690Y21842D01*
X16689Y21841D01*
X16688Y21841D01*
X16681Y21839D01*
X16674Y21837D01*
X16673Y21836D01*
X16667Y21833D01*
X16661Y21830D01*
X16660Y21829D01*
X16659Y21828D01*
X16654Y21824D01*
X16649Y21819D01*
X16648Y21819D01*
X16647Y21818D01*
X16643Y21813D01*
X16639Y21807D01*
X16638Y21806D01*
X16638Y21805D01*
X16635Y21799D01*
X16632Y21793D01*
X16631Y21792D01*
X16631Y21791D01*
X16629Y21785D01*
X16627Y21778D01*
X16627Y21777D01*
X16627Y21776D01*
X16626Y21764D01*
X16626Y21433D01*
X16579Y21386D01*
X16535Y21386D01*
X16534Y21386D01*
X16533Y21386D01*
X16526Y21385D01*
X16520Y21384D01*
X16519Y21384D01*
X16518Y21384D01*
X16511Y21382D01*
X16504Y21380D01*
X16504Y21379D01*
X16503Y21379D01*
X16497Y21375D01*
X16491Y21372D01*
X16490Y21371D01*
X16489Y21371D01*
X16484Y21366D01*
X16479Y21362D01*
X16478Y21361D01*
X16477Y21360D01*
X16473Y21355D01*
X16469Y21350D01*
X16468Y21349D01*
X16468Y21348D01*
X16465Y21342D01*
X16462Y21336D01*
X16461Y21335D01*
X16461Y21334D01*
X16459Y21327D01*
X16457Y21320D01*
X16457Y21319D01*
X16457Y21318D01*
X16456Y21307D01*
X16456Y21224D01*
X16456Y21223D01*
X16456Y21222D01*
X16457Y21215D01*
X16458Y21209D01*
X16458Y21208D01*
X16458Y21207D01*
X16460Y21200D01*
X16462Y21193D01*
X16463Y21193D01*
X16463Y21192D01*
X16466Y21186D01*
X16470Y21180D01*
X16470Y21179D01*
X16471Y21178D01*
X16475Y21173D01*
X16480Y21168D01*
X16481Y21167D01*
X16481Y21166D01*
X16487Y21162D01*
X16492Y21158D01*
X16493Y21157D01*
X16494Y21157D01*
X16500Y21154D01*
X16506Y21150D01*
X16507Y21150D01*
X16508Y21150D01*
X16515Y21148D01*
X16521Y21146D01*
X16522Y21146D01*
X16523Y21146D01*
X16535Y21145D01*
X16591Y21145D01*
X16693Y21103D01*
X16772Y21024D01*
X16814Y20922D01*
X16814Y20811D01*
X16772Y20708D01*
X16693Y20630D01*
X16591Y20587D01*
X16480Y20587D01*
X16377Y20630D01*
X16299Y20708D01*
X16257Y20809D01*
X16256Y20810D01*
X16256Y20812D01*
X16253Y20817D01*
X16250Y20823D01*
X16249Y20824D01*
X16248Y20826D01*
X16240Y20835D01*
X16196Y20879D01*
X16135Y21027D01*
X16135Y21307D01*
X16134Y21308D01*
X16135Y21308D01*
X16134Y21315D01*
X16133Y21322D01*
X16133Y21323D01*
X16133Y21324D01*
X16130Y21331D01*
X16128Y21337D01*
X16128Y21338D01*
X16128Y21339D01*
X16124Y21345D01*
X16121Y21351D01*
X16120Y21352D01*
X16120Y21353D01*
X16115Y21358D01*
X16111Y21363D01*
X16110Y21364D01*
X16109Y21365D01*
X16104Y21369D01*
X16098Y21373D01*
X16097Y21374D01*
X16090Y21377D01*
X16084Y21380D01*
X16083Y21381D01*
X16082Y21381D01*
X16076Y21383D01*
X16069Y21385D01*
X16068Y21385D01*
X16067Y21385D01*
X16055Y21386D01*
X16012Y21386D01*
X15965Y21433D01*
X15965Y21764D01*
X15964Y21765D01*
X15965Y21766D01*
X15964Y21773D01*
X15963Y21780D01*
X15963Y21781D01*
X15963Y21782D01*
X15960Y21788D01*
X15958Y21795D01*
X15958Y21796D01*
X15958Y21797D01*
X15954Y21803D01*
X15951Y21809D01*
X15950Y21809D01*
X15950Y21810D01*
X15945Y21816D01*
X15941Y21821D01*
X15940Y21821D01*
X15939Y21822D01*
X15934Y21826D01*
X15928Y21831D01*
X15927Y21831D01*
X15927Y21832D01*
X15920Y21835D01*
X15914Y21838D01*
X15913Y21838D01*
X15912Y21839D01*
X15906Y21840D01*
X15899Y21842D01*
X15898Y21842D01*
X15897Y21842D01*
X15885Y21843D01*
X15705Y21843D01*
X15704Y21843D01*
X15703Y21843D01*
X15696Y21842D01*
X15690Y21842D01*
X15689Y21841D01*
X15688Y21841D01*
X15681Y21839D01*
X15674Y21837D01*
X15673Y21836D01*
X15667Y21833D01*
X15661Y21830D01*
X15660Y21829D01*
X15659Y21828D01*
X15654Y21824D01*
X15649Y21819D01*
X15648Y21819D01*
X15647Y21818D01*
X15643Y21813D01*
X15639Y21807D01*
X15638Y21806D01*
X15638Y21805D01*
X15635Y21799D01*
X15632Y21793D01*
X15631Y21792D01*
X15631Y21791D01*
X15629Y21785D01*
X15627Y21778D01*
X15627Y21777D01*
X15627Y21776D01*
X15626Y21764D01*
X15626Y21433D01*
X15579Y21386D01*
X15012Y21386D01*
X14965Y21433D01*
X14965Y21764D01*
X14964Y21765D01*
X14965Y21766D01*
X14964Y21773D01*
X14963Y21780D01*
X14963Y21781D01*
X14963Y21782D01*
X14960Y21788D01*
X14958Y21795D01*
X14958Y21796D01*
X14958Y21797D01*
X14954Y21803D01*
X14951Y21809D01*
X14950Y21809D01*
X14950Y21810D01*
X14945Y21816D01*
X14941Y21821D01*
X14940Y21821D01*
X14939Y21822D01*
X14934Y21826D01*
X14928Y21831D01*
X14927Y21831D01*
X14927Y21832D01*
X14920Y21835D01*
X14914Y21838D01*
X14913Y21838D01*
X14912Y21839D01*
X14906Y21840D01*
X14899Y21842D01*
X14898Y21842D01*
X14897Y21842D01*
X14885Y21843D01*
X14705Y21843D01*
X14704Y21843D01*
X14703Y21843D01*
X14696Y21842D01*
X14690Y21842D01*
X14689Y21841D01*
X14688Y21841D01*
X14681Y21839D01*
X14674Y21837D01*
X14673Y21836D01*
X14667Y21833D01*
X14661Y21830D01*
X14660Y21829D01*
X14659Y21828D01*
X14654Y21824D01*
X14649Y21819D01*
X14648Y21819D01*
X14647Y21818D01*
X14643Y21813D01*
X14639Y21807D01*
X14638Y21806D01*
X14638Y21805D01*
X14635Y21799D01*
X14632Y21793D01*
X14631Y21792D01*
X14631Y21791D01*
X14629Y21785D01*
X14627Y21778D01*
X14627Y21777D01*
X14627Y21776D01*
X14626Y21764D01*
X14626Y21433D01*
X14579Y21386D01*
X14012Y21386D01*
X13965Y21433D01*
X13965Y21764D01*
X13964Y21765D01*
X13965Y21766D01*
X13964Y21773D01*
X13963Y21780D01*
X13963Y21781D01*
X13963Y21782D01*
X13960Y21788D01*
X13958Y21795D01*
X13958Y21796D01*
X13958Y21797D01*
X13954Y21803D01*
X13951Y21809D01*
X13950Y21809D01*
X13950Y21810D01*
X13945Y21816D01*
X13941Y21821D01*
X13940Y21821D01*
X13939Y21822D01*
X13934Y21826D01*
X13928Y21831D01*
X13927Y21831D01*
X13927Y21832D01*
X13920Y21835D01*
X13914Y21838D01*
X13913Y21838D01*
X13912Y21839D01*
X13906Y21840D01*
X13899Y21842D01*
X13898Y21842D01*
X13897Y21842D01*
X13885Y21843D01*
X13705Y21843D01*
X13704Y21843D01*
X13703Y21843D01*
X13696Y21842D01*
X13690Y21842D01*
X13689Y21841D01*
X13688Y21841D01*
X13681Y21839D01*
X13674Y21837D01*
X13673Y21836D01*
X13667Y21833D01*
X13661Y21830D01*
X13660Y21829D01*
X13659Y21828D01*
X13654Y21824D01*
X13649Y21819D01*
X13648Y21819D01*
X13647Y21818D01*
X13643Y21813D01*
X13639Y21807D01*
X13638Y21806D01*
X13638Y21805D01*
X13635Y21799D01*
X13632Y21793D01*
X13631Y21792D01*
X13631Y21791D01*
X13629Y21785D01*
X13627Y21778D01*
X13627Y21777D01*
X13627Y21776D01*
X13626Y21764D01*
X13626Y21433D01*
X13579Y21386D01*
X13535Y21386D01*
X13534Y21386D01*
X13533Y21386D01*
X13526Y21385D01*
X13520Y21384D01*
X13519Y21384D01*
X13518Y21384D01*
X13511Y21382D01*
X13504Y21380D01*
X13504Y21379D01*
X13503Y21379D01*
X13497Y21375D01*
X13491Y21372D01*
X13490Y21371D01*
X13489Y21371D01*
X13484Y21366D01*
X13479Y21362D01*
X13478Y21361D01*
X13477Y21360D01*
X13473Y21355D01*
X13469Y21350D01*
X13468Y21349D01*
X13468Y21348D01*
X13465Y21342D01*
X13462Y21336D01*
X13461Y21335D01*
X13461Y21334D01*
X13459Y21327D01*
X13457Y21320D01*
X13457Y21319D01*
X13457Y21318D01*
X13456Y21307D01*
X13456Y20683D01*
X13385Y20513D01*
X13269Y20396D01*
X13268Y20395D01*
X13267Y20394D01*
X13263Y20389D01*
X13259Y20384D01*
X13258Y20383D01*
X13257Y20381D01*
X13252Y20371D01*
X13229Y20314D01*
X13150Y20236D01*
X13048Y20194D01*
X12937Y20194D01*
X12834Y20236D01*
X12756Y20314D01*
X12713Y20417D01*
X12713Y20528D01*
X12756Y20630D01*
X12834Y20709D01*
X12937Y20751D01*
X13055Y20751D01*
X13056Y20751D01*
X13057Y20751D01*
X13064Y20752D01*
X13071Y20753D01*
X13072Y20753D01*
X13073Y20753D01*
X13079Y20755D01*
X13086Y20758D01*
X13087Y20758D01*
X13088Y20758D01*
X13094Y20762D01*
X13100Y20765D01*
X13101Y20766D01*
X13102Y20766D01*
X13107Y20771D01*
X13112Y20775D01*
X13113Y20776D01*
X13113Y20777D01*
X13118Y20782D01*
X13122Y20788D01*
X13123Y20789D01*
X13126Y20795D01*
X13129Y20802D01*
X13129Y20803D01*
X13130Y20803D01*
X13131Y20810D01*
X13133Y20817D01*
X13133Y20818D01*
X13134Y20819D01*
X13135Y20831D01*
X13135Y21307D01*
X13134Y21308D01*
X13135Y21308D01*
X13134Y21315D01*
X13133Y21322D01*
X13133Y21323D01*
X13133Y21324D01*
X13130Y21331D01*
X13128Y21337D01*
X13128Y21338D01*
X13128Y21339D01*
X13124Y21345D01*
X13121Y21351D01*
X13120Y21352D01*
X13120Y21353D01*
X13115Y21358D01*
X13111Y21363D01*
X13110Y21364D01*
X13109Y21365D01*
X13104Y21369D01*
X13098Y21373D01*
X13097Y21374D01*
X13090Y21377D01*
X13084Y21380D01*
X13083Y21381D01*
X13082Y21381D01*
X13076Y21383D01*
X13069Y21385D01*
X13068Y21385D01*
X13067Y21385D01*
X13055Y21386D01*
X13012Y21386D01*
X12965Y21433D01*
X12965Y21764D01*
X12964Y21765D01*
X12965Y21766D01*
X12964Y21773D01*
X12963Y21780D01*
X12963Y21781D01*
X12963Y21782D01*
X12960Y21788D01*
X12958Y21795D01*
X12958Y21796D01*
X12958Y21797D01*
X12954Y21803D01*
X12951Y21809D01*
X12950Y21809D01*
X12950Y21810D01*
X12945Y21816D01*
X12941Y21821D01*
X12940Y21821D01*
X12939Y21822D01*
X12934Y21826D01*
X12928Y21831D01*
X12927Y21831D01*
X12927Y21832D01*
X12920Y21835D01*
X12914Y21838D01*
X12913Y21838D01*
X12912Y21839D01*
X12906Y21840D01*
X12899Y21842D01*
X12898Y21842D01*
X12897Y21842D01*
X12885Y21843D01*
X12340Y21843D01*
X12339Y21843D01*
X12338Y21843D01*
X12331Y21842D01*
X12325Y21842D01*
X12324Y21841D01*
X12323Y21841D01*
X12316Y21839D01*
X12310Y21837D01*
X12309Y21837D01*
X12308Y21836D01*
X12302Y21833D01*
X12296Y21830D01*
X12295Y21829D01*
X12293Y21831D01*
X12292Y21831D01*
X12292Y21832D01*
X12285Y21835D01*
X12279Y21838D01*
X12278Y21838D01*
X12277Y21839D01*
X12271Y21840D01*
X12264Y21842D01*
X12263Y21842D01*
X12262Y21842D01*
X12250Y21843D01*
X11705Y21843D01*
X11704Y21843D01*
X11703Y21843D01*
X11696Y21842D01*
X11690Y21842D01*
X11689Y21841D01*
X11688Y21841D01*
X11681Y21839D01*
X11674Y21837D01*
X11673Y21836D01*
X11667Y21833D01*
X11661Y21830D01*
X11660Y21829D01*
X11659Y21828D01*
X11654Y21824D01*
X11649Y21819D01*
X11648Y21819D01*
X11647Y21818D01*
X11643Y21813D01*
X11639Y21807D01*
X11638Y21806D01*
X11638Y21805D01*
X11635Y21799D01*
X11632Y21793D01*
X11631Y21792D01*
X11631Y21791D01*
X11629Y21785D01*
X11627Y21778D01*
X11627Y21777D01*
X11627Y21776D01*
X11626Y21764D01*
X11626Y21433D01*
X11579Y21386D01*
X11575Y21386D01*
X11574Y21386D01*
X11573Y21386D01*
X11566Y21385D01*
X11560Y21384D01*
X11559Y21384D01*
X11558Y21384D01*
X11551Y21382D01*
X11544Y21380D01*
X11544Y21379D01*
X11543Y21379D01*
X11537Y21375D01*
X11531Y21372D01*
X11530Y21371D01*
X11529Y21371D01*
X11524Y21366D01*
X11519Y21362D01*
X11518Y21361D01*
X11517Y21360D01*
X11513Y21355D01*
X11509Y21350D01*
X11508Y21349D01*
X11508Y21348D01*
X11505Y21342D01*
X11502Y21336D01*
X11501Y21335D01*
X11501Y21334D01*
X11499Y21327D01*
X11497Y21320D01*
X11497Y21319D01*
X11497Y21318D01*
X11496Y21307D01*
X11496Y21188D01*
X11496Y21187D01*
X11496Y21186D01*
X11497Y21179D01*
X11498Y21173D01*
X11498Y21171D01*
X11498Y21170D01*
X11500Y21164D01*
X11502Y21158D01*
X11503Y21156D01*
X11503Y21155D01*
X11507Y21150D01*
X11510Y21144D01*
X11511Y21143D01*
X11511Y21142D01*
X11516Y21137D01*
X11520Y21132D01*
X11521Y21131D01*
X11522Y21130D01*
X11527Y21126D01*
X11532Y21122D01*
X11533Y21121D01*
X11534Y21120D01*
X11545Y21115D01*
X11575Y21103D01*
X11654Y21024D01*
X11696Y20922D01*
X11696Y20811D01*
X11654Y20708D01*
X11575Y20630D01*
X11473Y20587D01*
X11362Y20587D01*
X11259Y20630D01*
X11181Y20708D01*
X11138Y20813D01*
X11137Y20818D01*
X11137Y20819D01*
X11137Y20820D01*
X11135Y20827D01*
X11133Y20833D01*
X11132Y20834D01*
X11132Y20835D01*
X11131Y20837D01*
X11128Y20844D01*
X11095Y20902D01*
X11095Y21307D01*
X11094Y21308D01*
X11095Y21308D01*
X11094Y21315D01*
X11093Y21322D01*
X11093Y21323D01*
X11093Y21324D01*
X11090Y21331D01*
X11088Y21337D01*
X11088Y21338D01*
X11088Y21339D01*
X11084Y21345D01*
X11081Y21351D01*
X11080Y21352D01*
X11080Y21353D01*
X11075Y21358D01*
X11071Y21363D01*
X11070Y21364D01*
X11069Y21365D01*
X11064Y21369D01*
X11058Y21373D01*
X11057Y21374D01*
X11050Y21377D01*
X11044Y21380D01*
X11043Y21381D01*
X11042Y21381D01*
X11036Y21383D01*
X11029Y21385D01*
X11028Y21385D01*
X11027Y21385D01*
X11015Y21386D01*
X11012Y21386D01*
X10965Y21433D01*
X10965Y21764D01*
X10964Y21765D01*
X10965Y21766D01*
X10964Y21773D01*
X10963Y21780D01*
X10963Y21781D01*
X10963Y21782D01*
X10960Y21788D01*
X10958Y21795D01*
X10958Y21796D01*
X10958Y21797D01*
X10954Y21803D01*
X10951Y21809D01*
X10950Y21809D01*
X10950Y21810D01*
X10945Y21816D01*
X10941Y21821D01*
X10940Y21821D01*
X10939Y21822D01*
X10934Y21826D01*
X10928Y21831D01*
X10927Y21831D01*
X10927Y21832D01*
X10920Y21835D01*
X10914Y21838D01*
X10913Y21838D01*
X10912Y21839D01*
X10906Y21840D01*
X10899Y21842D01*
X10898Y21842D01*
X10897Y21842D01*
X10885Y21843D01*
X10705Y21843D01*
X10704Y21843D01*
X10703Y21843D01*
X10696Y21842D01*
X10690Y21842D01*
X10689Y21841D01*
X10688Y21841D01*
X10681Y21839D01*
X10674Y21837D01*
X10673Y21836D01*
X10667Y21833D01*
X10661Y21830D01*
X10660Y21829D01*
X10659Y21828D01*
X10654Y21824D01*
X10649Y21819D01*
X10648Y21819D01*
X10647Y21818D01*
X10643Y21813D01*
X10639Y21807D01*
X10638Y21806D01*
X10638Y21805D01*
X10635Y21799D01*
X10632Y21793D01*
X10631Y21792D01*
X10631Y21791D01*
X10629Y21785D01*
X10627Y21778D01*
X10627Y21777D01*
X10627Y21776D01*
X10626Y21764D01*
X10626Y21433D01*
X10579Y21386D01*
X10575Y21386D01*
X10574Y21386D01*
X10573Y21386D01*
X10566Y21385D01*
X10560Y21384D01*
X10559Y21384D01*
X10558Y21384D01*
X10551Y21382D01*
X10544Y21380D01*
X10544Y21379D01*
X10543Y21379D01*
X10537Y21375D01*
X10531Y21372D01*
X10530Y21371D01*
X10529Y21371D01*
X10524Y21366D01*
X10519Y21362D01*
X10518Y21361D01*
X10517Y21360D01*
X10513Y21355D01*
X10509Y21350D01*
X10508Y21349D01*
X10508Y21348D01*
X10505Y21342D01*
X10502Y21336D01*
X10501Y21335D01*
X10501Y21334D01*
X10499Y21327D01*
X10497Y21320D01*
X10497Y21319D01*
X10497Y21318D01*
X10496Y21307D01*
X10496Y20983D01*
X10496Y20982D01*
X10496Y20980D01*
X10497Y20974D01*
X10498Y20968D01*
X10498Y20966D01*
X10498Y20964D01*
X10502Y20953D01*
X10515Y20922D01*
X10515Y20811D01*
X10473Y20708D01*
X10394Y20630D01*
X10292Y20587D01*
X10181Y20587D01*
X10078Y20630D01*
X10000Y20708D01*
X9957Y20811D01*
X9957Y20922D01*
X10000Y21024D01*
X10071Y21096D01*
X10072Y21097D01*
X10073Y21098D01*
X10077Y21103D01*
X10081Y21108D01*
X10082Y21109D01*
X10083Y21110D01*
X10086Y21116D01*
X10089Y21122D01*
X10089Y21123D01*
X10090Y21125D01*
X10091Y21131D01*
X10093Y21137D01*
X10093Y21138D01*
X10094Y21140D01*
X10095Y21152D01*
X10095Y21307D01*
X10094Y21308D01*
X10095Y21308D01*
X10094Y21315D01*
X10093Y21322D01*
X10093Y21323D01*
X10093Y21324D01*
X10090Y21331D01*
X10088Y21337D01*
X10088Y21338D01*
X10088Y21339D01*
X10084Y21345D01*
X10081Y21351D01*
X10080Y21352D01*
X10080Y21353D01*
X10075Y21358D01*
X10071Y21363D01*
X10070Y21364D01*
X10069Y21365D01*
X10064Y21369D01*
X10058Y21373D01*
X10057Y21374D01*
X10050Y21377D01*
X10044Y21380D01*
X10043Y21381D01*
X10042Y21381D01*
X10036Y21383D01*
X10029Y21385D01*
X10028Y21385D01*
X10027Y21385D01*
X10015Y21386D01*
X10012Y21386D01*
X9965Y21433D01*
X9965Y21764D01*
X9964Y21765D01*
X9965Y21766D01*
X9964Y21773D01*
X9963Y21780D01*
X9963Y21781D01*
X9963Y21782D01*
X9960Y21788D01*
X9958Y21795D01*
X9958Y21796D01*
X9958Y21797D01*
X9954Y21803D01*
X9951Y21809D01*
X9950Y21809D01*
X9950Y21810D01*
X9945Y21816D01*
X9941Y21821D01*
X9940Y21821D01*
X9939Y21822D01*
X9934Y21826D01*
X9928Y21831D01*
X9927Y21831D01*
X9927Y21832D01*
X9920Y21835D01*
X9914Y21838D01*
X9913Y21838D01*
X9912Y21839D01*
X9906Y21840D01*
X9899Y21842D01*
X9898Y21842D01*
X9897Y21842D01*
X9885Y21843D01*
X9340Y21843D01*
X9339Y21843D01*
X9338Y21843D01*
X9331Y21842D01*
X9325Y21842D01*
X9324Y21841D01*
X9323Y21841D01*
X9316Y21839D01*
X9310Y21837D01*
X9309Y21837D01*
X9308Y21836D01*
X9302Y21833D01*
X9296Y21830D01*
X9295Y21829D01*
X9293Y21831D01*
X9292Y21831D01*
X9292Y21832D01*
X9285Y21835D01*
X9279Y21838D01*
X9278Y21838D01*
X9277Y21839D01*
X9271Y21840D01*
X9264Y21842D01*
X9263Y21842D01*
X9262Y21842D01*
X9250Y21843D01*
X8705Y21843D01*
X8704Y21843D01*
X8703Y21843D01*
X8696Y21842D01*
X8690Y21842D01*
X8689Y21841D01*
X8688Y21841D01*
X8681Y21839D01*
X8674Y21837D01*
X8673Y21836D01*
X8667Y21833D01*
X8661Y21830D01*
X8660Y21829D01*
X8659Y21828D01*
X8654Y21824D01*
X8649Y21819D01*
X8648Y21819D01*
X8647Y21818D01*
X8643Y21813D01*
X8639Y21807D01*
X8638Y21806D01*
X8638Y21805D01*
X8635Y21799D01*
X8632Y21793D01*
X8631Y21792D01*
X8631Y21791D01*
X8629Y21785D01*
X8627Y21778D01*
X8627Y21777D01*
X8627Y21776D01*
X8626Y21764D01*
X8626Y21433D01*
X8579Y21386D01*
X8012Y21386D01*
X7965Y21433D01*
X7965Y21764D01*
X7964Y21765D01*
X7965Y21766D01*
X7964Y21773D01*
X7963Y21780D01*
X7963Y21781D01*
X7963Y21782D01*
X7960Y21788D01*
X7958Y21795D01*
X7958Y21796D01*
X7958Y21797D01*
X7954Y21803D01*
X7951Y21809D01*
X7950Y21809D01*
X7950Y21810D01*
X7945Y21816D01*
X7941Y21821D01*
X7940Y21821D01*
X7939Y21822D01*
X7934Y21826D01*
X7928Y21831D01*
X7927Y21831D01*
X7927Y21832D01*
X7920Y21835D01*
X7914Y21838D01*
X7913Y21838D01*
X7912Y21839D01*
X7906Y21840D01*
X7899Y21842D01*
X7898Y21842D01*
X7897Y21842D01*
X7885Y21843D01*
X7705Y21843D01*
X7704Y21843D01*
X7703Y21843D01*
X7696Y21842D01*
X7690Y21842D01*
X7689Y21841D01*
X7688Y21841D01*
X7681Y21839D01*
X7674Y21837D01*
X7673Y21836D01*
X7667Y21833D01*
X7661Y21830D01*
X7660Y21829D01*
X7659Y21828D01*
X7654Y21824D01*
X7649Y21819D01*
X7648Y21819D01*
X7647Y21818D01*
X7643Y21813D01*
X7639Y21807D01*
X7638Y21806D01*
X7638Y21805D01*
X7635Y21799D01*
X7632Y21793D01*
X7631Y21792D01*
X7631Y21791D01*
X7629Y21785D01*
X7627Y21778D01*
X7627Y21777D01*
X7627Y21776D01*
X7626Y21764D01*
X7626Y21433D01*
X7579Y21386D01*
X7012Y21386D01*
X6965Y21433D01*
X6965Y21764D01*
X6964Y21765D01*
X6965Y21766D01*
X6964Y21773D01*
X6963Y21780D01*
X6963Y21781D01*
X6963Y21782D01*
X6960Y21788D01*
X6958Y21795D01*
X6958Y21796D01*
X6958Y21797D01*
X6954Y21803D01*
X6951Y21809D01*
X6950Y21809D01*
X6950Y21810D01*
X6945Y21816D01*
X6941Y21821D01*
X6940Y21821D01*
X6939Y21822D01*
X6934Y21826D01*
X6928Y21831D01*
X6927Y21831D01*
X6927Y21832D01*
X6920Y21835D01*
X6914Y21838D01*
X6913Y21838D01*
X6912Y21839D01*
X6906Y21840D01*
X6899Y21842D01*
X6898Y21842D01*
X6897Y21842D01*
X6885Y21843D01*
X6705Y21843D01*
X6704Y21843D01*
X6703Y21843D01*
X6696Y21842D01*
X6690Y21842D01*
X6689Y21841D01*
X6688Y21841D01*
X6681Y21839D01*
X6674Y21837D01*
X6673Y21836D01*
X6667Y21833D01*
X6661Y21830D01*
X6660Y21829D01*
X6659Y21828D01*
X6654Y21824D01*
X6649Y21819D01*
X6648Y21819D01*
X6647Y21818D01*
X6643Y21813D01*
X6639Y21807D01*
X6638Y21806D01*
X6638Y21805D01*
X6635Y21799D01*
X6632Y21793D01*
X6631Y21792D01*
X6631Y21791D01*
X6629Y21785D01*
X6627Y21778D01*
X6627Y21777D01*
X6627Y21776D01*
X6626Y21764D01*
X6626Y21433D01*
X6579Y21386D01*
X6012Y21386D01*
X5965Y21433D01*
X5965Y21764D01*
X5964Y21765D01*
X5965Y21766D01*
X5964Y21773D01*
X5963Y21780D01*
X5963Y21781D01*
X5963Y21782D01*
X5960Y21788D01*
X5958Y21795D01*
X5958Y21796D01*
X5958Y21797D01*
X5954Y21803D01*
X5951Y21809D01*
X5950Y21809D01*
X5950Y21810D01*
X5945Y21816D01*
X5941Y21821D01*
X5940Y21821D01*
X5939Y21822D01*
X5934Y21826D01*
X5928Y21831D01*
X5927Y21831D01*
X5927Y21832D01*
X5920Y21835D01*
X5914Y21838D01*
X5913Y21838D01*
X5912Y21839D01*
X5906Y21840D01*
X5899Y21842D01*
X5898Y21842D01*
X5897Y21842D01*
X5885Y21843D01*
X5340Y21843D01*
X5339Y21843D01*
X5338Y21843D01*
X5331Y21842D01*
X5325Y21842D01*
X5324Y21841D01*
X5323Y21841D01*
X5316Y21839D01*
X5310Y21837D01*
X5309Y21837D01*
X5308Y21836D01*
X5302Y21833D01*
X5296Y21830D01*
X5295Y21829D01*
X5293Y21831D01*
X5292Y21831D01*
X5292Y21832D01*
X5285Y21835D01*
X5279Y21838D01*
X5278Y21838D01*
X5277Y21839D01*
X5271Y21840D01*
X5264Y21842D01*
X5263Y21842D01*
X5262Y21842D01*
X5250Y21843D01*
X4705Y21843D01*
X4704Y21843D01*
X4703Y21843D01*
X4696Y21842D01*
X4690Y21842D01*
X4689Y21841D01*
X4688Y21841D01*
X4681Y21839D01*
X4674Y21837D01*
X4673Y21836D01*
X4667Y21833D01*
X4661Y21830D01*
X4660Y21829D01*
X4659Y21828D01*
X4654Y21824D01*
X4649Y21819D01*
X4648Y21819D01*
X4647Y21818D01*
X4643Y21813D01*
X4639Y21807D01*
X4638Y21806D01*
X4638Y21805D01*
X4635Y21799D01*
X4632Y21793D01*
X4631Y21792D01*
X4631Y21791D01*
X4629Y21785D01*
X4627Y21778D01*
X4627Y21777D01*
X4627Y21776D01*
X4626Y21764D01*
X4626Y21433D01*
X4579Y21386D01*
X4012Y21386D01*
X3965Y21433D01*
X3965Y21536D01*
X3964Y21537D01*
X3965Y21538D01*
X3964Y21544D01*
X3963Y21551D01*
X3963Y21552D01*
X3963Y21553D01*
X3960Y21560D01*
X3958Y21566D01*
X3958Y21567D01*
X3958Y21568D01*
X3954Y21574D01*
X3951Y21580D01*
X3950Y21581D01*
X3950Y21582D01*
X3945Y21587D01*
X3941Y21592D01*
X3940Y21593D01*
X3939Y21594D01*
X3934Y21598D01*
X3928Y21602D01*
X3927Y21603D01*
X3920Y21606D01*
X3914Y21609D01*
X3913Y21610D01*
X3912Y21610D01*
X3906Y21612D01*
X3899Y21614D01*
X3898Y21614D01*
X3897Y21614D01*
X3885Y21615D01*
X3705Y21615D01*
X3704Y21615D01*
X3703Y21615D01*
X3696Y21614D01*
X3690Y21613D01*
X3689Y21613D01*
X3688Y21613D01*
X3681Y21611D01*
X3674Y21609D01*
X3674Y21608D01*
X3673Y21608D01*
X3667Y21604D01*
X3661Y21601D01*
X3660Y21600D01*
X3659Y21600D01*
X3654Y21595D01*
X3649Y21591D01*
X3648Y21590D01*
X3647Y21590D01*
X3643Y21584D01*
X3639Y21579D01*
X3638Y21578D01*
X3638Y21577D01*
X3635Y21571D01*
X3632Y21565D01*
X3631Y21564D01*
X3631Y21563D01*
X3629Y21556D01*
X3627Y21549D01*
X3627Y21548D01*
X3627Y21547D01*
X3626Y21536D01*
X3626Y21433D01*
X3579Y21386D01*
X3012Y21386D01*
X2965Y21433D01*
X2965Y21764D01*
X2964Y21765D01*
X2965Y21766D01*
X2964Y21773D01*
X2963Y21780D01*
X2963Y21781D01*
X2963Y21782D01*
X2960Y21788D01*
X2958Y21795D01*
X2958Y21796D01*
X2958Y21797D01*
X2954Y21803D01*
X2951Y21809D01*
X2950Y21809D01*
X2950Y21810D01*
X2945Y21816D01*
X2941Y21821D01*
X2940Y21821D01*
X2939Y21822D01*
X2934Y21826D01*
X2928Y21831D01*
X2927Y21831D01*
X2927Y21832D01*
X2920Y21835D01*
X2914Y21838D01*
X2913Y21838D01*
X2912Y21839D01*
X2906Y21840D01*
X2899Y21842D01*
X2898Y21842D01*
X2897Y21842D01*
X2885Y21843D01*
X2047Y21843D01*
X2046Y21843D01*
X2039Y21842D01*
X2032Y21842D01*
X2031Y21842D01*
X2030Y21841D01*
X2024Y21839D01*
X2017Y21837D01*
X2016Y21837D01*
X2015Y21837D01*
X2009Y21833D01*
X2003Y21830D01*
X2002Y21829D01*
X1996Y21824D01*
X1991Y21819D01*
X1990Y21819D01*
X1990Y21818D01*
X1985Y21813D01*
X1981Y21807D01*
X1981Y21806D01*
X1980Y21806D01*
X1977Y21799D01*
X1974Y21793D01*
X1974Y21792D01*
X1973Y21792D01*
X1971Y21785D01*
X1969Y21778D01*
X1969Y21777D01*
X1969Y21776D01*
X1969Y21769D01*
X1968Y21762D01*
X1968Y21761D01*
X1969Y21754D01*
X1970Y21746D01*
X1971Y21745D01*
X1973Y21738D01*
X1975Y21732D01*
X1976Y21731D01*
X1976Y21730D01*
X1980Y21724D01*
X1983Y21718D01*
X1984Y21717D01*
X1989Y21711D01*
X1994Y21706D01*
X1995Y21705D01*
X2004Y21698D01*
X2204Y21567D01*
X2451Y21250D01*
X2581Y20870D01*
X2581Y20468D01*
X2451Y20089D01*
X2204Y19772D01*
X1868Y19552D01*
X1479Y19453D01*
X1078Y19486D01*
X711Y19648D01*
X534Y19811D01*
X528Y19815D01*
X523Y19819D01*
X522Y19820D01*
X521Y19820D01*
X515Y19823D01*
X509Y19826D01*
X508Y19826D01*
X507Y19827D01*
X500Y19829D01*
X494Y19830D01*
X493Y19831D01*
X492Y19831D01*
X485Y19831D01*
X478Y19832D01*
X477Y19831D01*
X476Y19832D01*
X469Y19831D01*
X462Y19830D01*
X461Y19829D01*
X460Y19829D01*
X454Y19827D01*
X447Y19825D01*
X446Y19824D01*
X445Y19824D01*
X440Y19820D01*
X434Y19817D01*
X433Y19816D01*
X432Y19815D01*
X427Y19811D01*
X422Y19806D01*
X421Y19805D01*
X420Y19805D01*
X416Y19799D01*
X412Y19794D01*
X412Y19793D01*
X411Y19792D01*
X408Y19786D01*
X406Y19780D01*
X405Y19778D01*
X405Y19777D01*
X403Y19771D01*
X402Y19764D01*
X402Y19763D01*
X401Y19762D01*
X401Y19759D01*
X401Y19752D01*
X401Y2295D01*
X401Y2288D01*
X402Y2281D01*
X402Y2280D01*
X402Y2279D01*
X404Y2273D01*
X406Y2266D01*
X407Y2265D01*
X407Y2264D01*
X410Y2258D01*
X413Y2252D01*
X414Y2251D01*
X415Y2250D01*
X419Y2245D01*
X423Y2240D01*
X424Y2239D01*
X425Y2238D01*
X430Y2234D01*
X435Y2230D01*
X436Y2229D01*
X437Y2228D01*
X443Y2225D01*
X449Y2222D01*
X450Y2222D01*
X451Y2221D01*
X458Y2219D01*
X464Y2217D01*
X465Y2217D01*
X466Y2217D01*
X473Y2216D01*
X480Y2216D01*
X481Y2216D01*
X482Y2216D01*
X489Y2216D01*
X495Y2217D01*
X496Y2217D01*
X498Y2218D01*
X504Y2220D01*
X510Y2222D01*
X511Y2222D01*
X513Y2223D01*
X518Y2226D01*
X524Y2229D01*
X525Y2230D01*
X526Y2230D01*
X528Y2232D01*
X534Y2237D01*
X711Y2399D01*
X1078Y2561D01*
X1479Y2594D01*
X1868Y2495D01*
X2204Y2276D01*
X2451Y1959D01*
X2581Y1579D01*
X2581Y1177D01*
X2451Y797D01*
X2242Y529D01*
X2240Y526D01*
X2238Y523D01*
X2236Y519D01*
X2234Y515D01*
X2232Y512D01*
X2231Y509D01*
X2230Y505D01*
X2228Y501D01*
X2227Y497D01*
X2226Y494D01*
X2226Y489D01*
X2225Y485D01*
X2226Y482D01*
X2225Y478D01*
X2226Y474D01*
X2226Y469D01*
X2227Y466D01*
X2227Y462D01*
X2229Y458D01*
X2230Y454D01*
X2231Y451D01*
X2232Y447D01*
X2234Y444D01*
X2236Y440D01*
X2238Y437D01*
X2240Y434D01*
X2243Y430D01*
X2246Y427D01*
X2248Y425D01*
X2251Y422D01*
X2254Y419D01*
X2257Y416D01*
X2260Y414D01*
X2263Y412D01*
X2267Y410D01*
X2271Y408D01*
X2274Y407D01*
X2277Y406D01*
X2282Y404D01*
X2286Y403D01*
X2289Y402D01*
X2293Y402D01*
X2299Y401D01*
X2301Y401D01*
X2303Y401D01*
X2305Y401D01*
X23294Y401D01*
X23296Y401D01*
G37*
%LPC*%
G36*
X11185Y1414D02*
X11185Y1414D01*
X10781Y1545D01*
X10437Y1795D01*
X10187Y2139D01*
X10127Y2325D01*
X10125Y2329D01*
X10124Y2333D01*
X10122Y2336D01*
X10120Y2340D01*
X10118Y2343D01*
X10116Y2347D01*
X10113Y2350D01*
X10111Y2352D01*
X10108Y2355D01*
X10105Y2359D01*
X10102Y2361D01*
X10100Y2363D01*
X10096Y2366D01*
X10093Y2368D01*
X10089Y2370D01*
X10086Y2372D01*
X10082Y2373D01*
X10078Y2375D01*
X10075Y2376D01*
X10072Y2377D01*
X10067Y2378D01*
X10063Y2379D01*
X10059Y2379D01*
X10056Y2380D01*
X10054Y2380D01*
X10051Y2380D01*
X9927Y2380D01*
X9899Y2409D01*
X9898Y2409D01*
X9897Y2410D01*
X9892Y2414D01*
X9886Y2418D01*
X9885Y2419D01*
X9885Y2420D01*
X9878Y2423D01*
X9872Y2426D01*
X9871Y2426D01*
X9871Y2427D01*
X9864Y2428D01*
X9857Y2430D01*
X9856Y2430D01*
X9855Y2431D01*
X9848Y2431D01*
X9842Y2432D01*
X9841Y2432D01*
X9840Y2432D01*
X9833Y2431D01*
X9826Y2430D01*
X9825Y2430D01*
X9824Y2430D01*
X9817Y2427D01*
X9811Y2425D01*
X9810Y2425D01*
X9809Y2424D01*
X9803Y2421D01*
X9797Y2417D01*
X9796Y2417D01*
X9795Y2416D01*
X9786Y2409D01*
X9758Y2380D01*
X9179Y2380D01*
X9132Y2427D01*
X9132Y2516D01*
X9132Y2517D01*
X9132Y2518D01*
X9131Y2525D01*
X9130Y2532D01*
X9130Y2533D01*
X9130Y2534D01*
X9128Y2540D01*
X9126Y2547D01*
X9125Y2548D01*
X9121Y2554D01*
X9118Y2561D01*
X9117Y2561D01*
X9117Y2562D01*
X9112Y2567D01*
X9108Y2573D01*
X9107Y2573D01*
X9107Y2574D01*
X9101Y2578D01*
X9096Y2582D01*
X9095Y2583D01*
X9094Y2584D01*
X9088Y2587D01*
X9082Y2590D01*
X9081Y2590D01*
X9080Y2590D01*
X9073Y2592D01*
X9066Y2594D01*
X9065Y2594D01*
X9064Y2594D01*
X9053Y2595D01*
X8164Y2595D01*
X8163Y2595D01*
X8162Y2595D01*
X8155Y2594D01*
X8149Y2594D01*
X8148Y2593D01*
X8147Y2593D01*
X8140Y2591D01*
X8133Y2589D01*
X8133Y2588D01*
X8132Y2588D01*
X8126Y2585D01*
X8120Y2581D01*
X8119Y2581D01*
X8118Y2580D01*
X8113Y2576D01*
X8107Y2571D01*
X8107Y2570D01*
X8106Y2570D01*
X8102Y2564D01*
X8098Y2560D01*
X7789Y2250D01*
X7370Y2250D01*
X7073Y2546D01*
X7073Y2965D01*
X7370Y3262D01*
X7789Y3262D01*
X8098Y2952D01*
X8099Y2951D01*
X8100Y2950D01*
X8104Y2944D01*
X8109Y2939D01*
X8110Y2939D01*
X8110Y2938D01*
X8116Y2934D01*
X8121Y2929D01*
X8122Y2929D01*
X8123Y2928D01*
X8129Y2925D01*
X8135Y2922D01*
X8136Y2922D01*
X8137Y2921D01*
X8144Y2920D01*
X8150Y2918D01*
X8151Y2918D01*
X8152Y2918D01*
X8164Y2917D01*
X9053Y2917D01*
X9054Y2917D01*
X9055Y2917D01*
X9061Y2918D01*
X9068Y2918D01*
X9069Y2919D01*
X9070Y2919D01*
X9077Y2921D01*
X9083Y2923D01*
X9084Y2923D01*
X9085Y2924D01*
X9091Y2927D01*
X9097Y2930D01*
X9098Y2931D01*
X9099Y2932D01*
X9104Y2936D01*
X9109Y2941D01*
X9110Y2941D01*
X9111Y2942D01*
X9115Y2947D01*
X9119Y2953D01*
X9120Y2954D01*
X9120Y2955D01*
X9123Y2961D01*
X9126Y2967D01*
X9127Y2968D01*
X9127Y2969D01*
X9129Y2975D01*
X9131Y2982D01*
X9131Y2983D01*
X9131Y2984D01*
X9132Y2996D01*
X9132Y3085D01*
X9179Y3132D01*
X9758Y3132D01*
X9786Y3103D01*
X9787Y3103D01*
X9788Y3102D01*
X9793Y3098D01*
X9799Y3093D01*
X9800Y3093D01*
X9800Y3092D01*
X9807Y3089D01*
X9813Y3086D01*
X9814Y3086D01*
X9814Y3085D01*
X9821Y3083D01*
X9828Y3081D01*
X9829Y3081D01*
X9830Y3081D01*
X9837Y3081D01*
X9843Y3080D01*
X9844Y3080D01*
X9845Y3080D01*
X9852Y3081D01*
X9859Y3082D01*
X9860Y3082D01*
X9861Y3082D01*
X9868Y3085D01*
X9874Y3087D01*
X9875Y3087D01*
X9876Y3088D01*
X9882Y3091D01*
X9888Y3094D01*
X9889Y3095D01*
X9890Y3096D01*
X9899Y3103D01*
X9927Y3132D01*
X10506Y3132D01*
X10553Y3085D01*
X10553Y2427D01*
X10506Y2380D01*
X10505Y2378D01*
X10503Y2376D01*
X10500Y2372D01*
X10496Y2368D01*
X10495Y2366D01*
X10493Y2364D01*
X10491Y2359D01*
X10489Y2354D01*
X10488Y2352D01*
X10487Y2349D01*
X10486Y2344D01*
X10484Y2339D01*
X10484Y2336D01*
X10484Y2334D01*
X10484Y2328D01*
X10483Y2323D01*
X10483Y2321D01*
X10483Y2318D01*
X10484Y2313D01*
X10485Y2308D01*
X10486Y2305D01*
X10486Y2302D01*
X10488Y2298D01*
X10490Y2293D01*
X10491Y2290D01*
X10492Y2288D01*
X10496Y2281D01*
X10497Y2279D01*
X10498Y2278D01*
X10668Y2044D01*
X10672Y2039D01*
X10677Y2034D01*
X10678Y2033D01*
X10679Y2032D01*
X10681Y2030D01*
X10686Y2026D01*
X10924Y1853D01*
X10929Y1850D01*
X10935Y1847D01*
X10936Y1846D01*
X10937Y1845D01*
X10940Y1844D01*
X10946Y1842D01*
X11226Y1751D01*
X11229Y1750D01*
X11232Y1749D01*
X11239Y1748D01*
X11241Y1748D01*
X11243Y1748D01*
X11244Y1747D01*
X11391Y1736D01*
X11394Y1736D01*
X11398Y1736D01*
X12730Y1736D01*
X12733Y1736D01*
X12736Y1736D01*
X12741Y1737D01*
X12745Y1737D01*
X12748Y1738D01*
X12751Y1739D01*
X12756Y1740D01*
X12760Y1742D01*
X12763Y1743D01*
X12766Y1744D01*
X12770Y1747D01*
X12774Y1749D01*
X12777Y1751D01*
X12779Y1753D01*
X12783Y1756D01*
X12786Y1759D01*
X12788Y1762D01*
X12791Y1764D01*
X12793Y1768D01*
X12796Y1772D01*
X12798Y1775D01*
X12799Y1777D01*
X12801Y1782D01*
X12803Y1786D01*
X12804Y1789D01*
X12806Y1792D01*
X12806Y1796D01*
X12808Y1801D01*
X12808Y1804D01*
X12809Y1807D01*
X12809Y1812D01*
X12809Y1817D01*
X12809Y1820D01*
X12809Y1823D01*
X12808Y1828D01*
X12807Y1832D01*
X12806Y1835D01*
X12805Y1838D01*
X12803Y1843D01*
X12802Y1847D01*
X12800Y1850D01*
X12799Y1853D01*
X12796Y1857D01*
X12794Y1861D01*
X12792Y1863D01*
X12790Y1866D01*
X12787Y1869D01*
X12784Y1873D01*
X12781Y1875D01*
X12779Y1877D01*
X12773Y1881D01*
X12771Y1882D01*
X12770Y1883D01*
X12769Y1884D01*
X12457Y2062D01*
X12216Y2327D01*
X12070Y2652D01*
X12064Y2703D01*
X12063Y2707D01*
X12063Y2712D01*
X12061Y2715D01*
X12061Y2718D01*
X12059Y2723D01*
X12058Y2727D01*
X12056Y2730D01*
X12055Y2733D01*
X12052Y2737D01*
X12050Y2741D01*
X12047Y2743D01*
X12045Y2746D01*
X12042Y2749D01*
X12039Y2752D01*
X12037Y2754D01*
X12034Y2757D01*
X12030Y2759D01*
X12027Y2762D01*
X12024Y2763D01*
X12021Y2765D01*
X12017Y2767D01*
X12012Y2769D01*
X12009Y2770D01*
X12006Y2771D01*
X12002Y2772D01*
X11997Y2773D01*
X11993Y2773D01*
X11990Y2773D01*
X11988Y2773D01*
X11985Y2774D01*
X11935Y2774D01*
X11888Y2821D01*
X11888Y3478D01*
X11935Y3526D01*
X11984Y3526D01*
X11985Y3526D01*
X11986Y3526D01*
X11993Y3527D01*
X12000Y3527D01*
X12001Y3527D01*
X12002Y3528D01*
X12009Y3530D01*
X12015Y3532D01*
X12016Y3532D01*
X12017Y3533D01*
X12023Y3536D01*
X12029Y3539D01*
X12030Y3540D01*
X12031Y3541D01*
X12036Y3545D01*
X12041Y3550D01*
X12042Y3550D01*
X12042Y3551D01*
X12047Y3556D01*
X12051Y3562D01*
X12051Y3563D01*
X12052Y3564D01*
X12055Y3570D01*
X12058Y3576D01*
X12058Y3577D01*
X12059Y3578D01*
X12061Y3584D01*
X12062Y3591D01*
X12063Y3592D01*
X12063Y3593D01*
X12064Y3605D01*
X12064Y3651D01*
X12064Y3652D01*
X12064Y3653D01*
X12064Y3654D01*
X12063Y3660D01*
X12062Y3667D01*
X12062Y3668D01*
X12061Y3669D01*
X12059Y3675D01*
X12057Y3682D01*
X12057Y3683D01*
X12056Y3684D01*
X12053Y3690D01*
X12050Y3696D01*
X12049Y3697D01*
X12048Y3698D01*
X12040Y3707D01*
X11968Y3779D01*
X11926Y3882D01*
X11926Y3992D01*
X11968Y4095D01*
X12047Y4173D01*
X12149Y4216D01*
X12260Y4216D01*
X12363Y4173D01*
X12441Y4095D01*
X12484Y3992D01*
X12484Y3882D01*
X12441Y3779D01*
X12408Y3746D01*
X12407Y3745D01*
X12406Y3744D01*
X12402Y3739D01*
X12398Y3734D01*
X12398Y3733D01*
X12397Y3732D01*
X12394Y3726D01*
X12391Y3720D01*
X12391Y3719D01*
X12390Y3717D01*
X12388Y3711D01*
X12387Y3705D01*
X12386Y3704D01*
X12386Y3702D01*
X12385Y3690D01*
X12385Y3605D01*
X12385Y3604D01*
X12385Y3603D01*
X12386Y3596D01*
X12387Y3589D01*
X12387Y3588D01*
X12387Y3587D01*
X12389Y3581D01*
X12391Y3574D01*
X12392Y3573D01*
X12392Y3572D01*
X12396Y3566D01*
X12399Y3560D01*
X12400Y3559D01*
X12405Y3553D01*
X12409Y3548D01*
X12410Y3548D01*
X12410Y3547D01*
X12416Y3543D01*
X12421Y3538D01*
X12422Y3538D01*
X12423Y3537D01*
X12429Y3534D01*
X12435Y3531D01*
X12436Y3531D01*
X12437Y3530D01*
X12444Y3529D01*
X12451Y3527D01*
X12452Y3527D01*
X12453Y3527D01*
X12464Y3526D01*
X12514Y3526D01*
X12542Y3497D01*
X12543Y3496D01*
X12544Y3496D01*
X12549Y3491D01*
X12555Y3487D01*
X12556Y3486D01*
X12562Y3483D01*
X12569Y3480D01*
X12569Y3479D01*
X12570Y3479D01*
X12577Y3477D01*
X12584Y3475D01*
X12585Y3475D01*
X12586Y3475D01*
X12592Y3474D01*
X12599Y3474D01*
X12600Y3474D01*
X12601Y3474D01*
X12608Y3475D01*
X12615Y3476D01*
X12616Y3476D01*
X12617Y3476D01*
X12624Y3478D01*
X12630Y3480D01*
X12631Y3481D01*
X12632Y3481D01*
X12638Y3485D01*
X12644Y3488D01*
X12645Y3489D01*
X12654Y3497D01*
X12683Y3526D01*
X12732Y3526D01*
X12733Y3526D01*
X12734Y3526D01*
X12741Y3527D01*
X12748Y3527D01*
X12749Y3527D01*
X12750Y3528D01*
X12757Y3530D01*
X12763Y3532D01*
X12764Y3532D01*
X12765Y3533D01*
X12771Y3536D01*
X12777Y3539D01*
X12778Y3540D01*
X12779Y3541D01*
X12784Y3545D01*
X12789Y3550D01*
X12790Y3550D01*
X12791Y3551D01*
X12795Y3556D01*
X12799Y3562D01*
X12799Y3563D01*
X12800Y3564D01*
X12803Y3570D01*
X12806Y3576D01*
X12806Y3577D01*
X12807Y3578D01*
X12809Y3584D01*
X12810Y3591D01*
X12811Y3592D01*
X12811Y3593D01*
X12812Y3605D01*
X12812Y4350D01*
X12811Y4353D01*
X12811Y4358D01*
X12809Y4384D01*
X12808Y4390D01*
X12807Y4396D01*
X12806Y4398D01*
X12806Y4400D01*
X12805Y4402D01*
X12803Y4407D01*
X12783Y4455D01*
X12782Y4457D01*
X12782Y4458D01*
X12779Y4464D01*
X12776Y4469D01*
X12775Y4470D01*
X12774Y4472D01*
X12766Y4481D01*
X12729Y4518D01*
X12728Y4519D01*
X12726Y4520D01*
X12721Y4524D01*
X12717Y4528D01*
X12715Y4529D01*
X12714Y4530D01*
X12703Y4535D01*
X12655Y4555D01*
X12649Y4557D01*
X12644Y4559D01*
X12641Y4559D01*
X12640Y4560D01*
X12637Y4560D01*
X12632Y4561D01*
X12606Y4563D01*
X12604Y4563D01*
X12598Y4564D01*
X1425Y4564D01*
X1139Y4656D01*
X896Y4833D01*
X719Y5076D01*
X627Y5362D01*
X627Y16653D01*
X626Y16655D01*
X626Y16658D01*
X607Y16932D01*
X676Y17493D01*
X854Y18031D01*
X1134Y18523D01*
X1504Y18951D01*
X1950Y19298D01*
X2456Y19552D01*
X2906Y19677D01*
X2912Y19679D01*
X2918Y19681D01*
X2919Y19682D01*
X2921Y19682D01*
X2926Y19686D01*
X2932Y19689D01*
X2933Y19690D01*
X2934Y19691D01*
X2939Y19695D01*
X2943Y19699D01*
X2944Y19700D01*
X2946Y19702D01*
X2949Y19707D01*
X2953Y19712D01*
X2954Y19713D01*
X2955Y19715D01*
X2957Y19720D01*
X2960Y19726D01*
X2960Y19728D01*
X2961Y19729D01*
X2962Y19735D01*
X2964Y19741D01*
X2964Y19743D01*
X2964Y19745D01*
X2964Y19747D01*
X2965Y19753D01*
X2965Y19905D01*
X3013Y19954D01*
X3017Y19954D01*
X3018Y19955D01*
X3019Y19955D01*
X3026Y19957D01*
X3032Y19959D01*
X3033Y19960D01*
X3034Y19960D01*
X3040Y19963D01*
X3046Y19967D01*
X3047Y19967D01*
X3048Y19968D01*
X3053Y19972D01*
X3058Y19977D01*
X3059Y19978D01*
X3060Y19978D01*
X3064Y19984D01*
X3068Y19989D01*
X3068Y19990D01*
X3069Y19991D01*
X3073Y19999D01*
X3229Y20155D01*
X3433Y20239D01*
X11110Y20239D01*
X11269Y20174D01*
X11390Y20052D01*
X11411Y20002D01*
X11412Y20001D01*
X11412Y19999D01*
X11415Y19994D01*
X11418Y19988D01*
X11419Y19987D01*
X11420Y19986D01*
X11424Y19981D01*
X11429Y19976D01*
X11430Y19975D01*
X11430Y19974D01*
X11436Y19970D01*
X11441Y19966D01*
X11442Y19965D01*
X11443Y19964D01*
X11449Y19962D01*
X11455Y19958D01*
X11456Y19958D01*
X11457Y19958D01*
X11464Y19956D01*
X11470Y19954D01*
X11471Y19954D01*
X11472Y19954D01*
X11484Y19953D01*
X11579Y19953D01*
X11626Y19905D01*
X11626Y19220D01*
X11579Y19173D01*
X11012Y19173D01*
X10965Y19220D01*
X10965Y19839D01*
X10964Y19840D01*
X10965Y19841D01*
X10964Y19848D01*
X10963Y19854D01*
X10963Y19855D01*
X10963Y19856D01*
X10960Y19863D01*
X10958Y19870D01*
X10958Y19871D01*
X10954Y19877D01*
X10951Y19883D01*
X10950Y19884D01*
X10950Y19885D01*
X10945Y19890D01*
X10941Y19895D01*
X10940Y19896D01*
X10939Y19897D01*
X10934Y19901D01*
X10928Y19905D01*
X10927Y19906D01*
X10920Y19909D01*
X10914Y19913D01*
X10913Y19913D01*
X10912Y19913D01*
X10906Y19915D01*
X10899Y19917D01*
X10898Y19917D01*
X10897Y19917D01*
X10885Y19918D01*
X10705Y19918D01*
X10704Y19918D01*
X10703Y19918D01*
X10696Y19917D01*
X10690Y19916D01*
X10689Y19916D01*
X10688Y19916D01*
X10681Y19914D01*
X10674Y19912D01*
X10674Y19911D01*
X10673Y19911D01*
X10667Y19908D01*
X10661Y19904D01*
X10660Y19904D01*
X10659Y19903D01*
X10654Y19899D01*
X10649Y19894D01*
X10648Y19893D01*
X10647Y19893D01*
X10643Y19887D01*
X10639Y19882D01*
X10638Y19881D01*
X10638Y19880D01*
X10635Y19874D01*
X10632Y19868D01*
X10631Y19867D01*
X10631Y19866D01*
X10629Y19859D01*
X10627Y19853D01*
X10627Y19852D01*
X10627Y19851D01*
X10626Y19839D01*
X10626Y19220D01*
X10579Y19173D01*
X10575Y19173D01*
X10574Y19173D01*
X10573Y19173D01*
X10566Y19172D01*
X10560Y19172D01*
X10559Y19171D01*
X10558Y19171D01*
X10551Y19169D01*
X10544Y19167D01*
X10544Y19166D01*
X10543Y19166D01*
X10537Y19163D01*
X10531Y19159D01*
X10530Y19159D01*
X10529Y19158D01*
X10524Y19154D01*
X10519Y19149D01*
X10518Y19149D01*
X10517Y19148D01*
X10513Y19142D01*
X10509Y19137D01*
X10508Y19136D01*
X10508Y19135D01*
X10505Y19129D01*
X10502Y19123D01*
X10501Y19122D01*
X10501Y19121D01*
X10499Y19114D01*
X10497Y19108D01*
X10497Y19107D01*
X10497Y19106D01*
X10496Y19094D01*
X10496Y18827D01*
X10397Y18587D01*
X10213Y18403D01*
X9973Y18303D01*
X4744Y18303D01*
X4742Y18303D01*
X4739Y18303D01*
X4619Y18295D01*
X4617Y18295D01*
X4615Y18295D01*
X4603Y18293D01*
X4371Y18230D01*
X4367Y18229D01*
X4363Y18228D01*
X4359Y18226D01*
X4356Y18225D01*
X4355Y18224D01*
X4352Y18222D01*
X4144Y18102D01*
X4140Y18100D01*
X4137Y18097D01*
X4133Y18095D01*
X4131Y18093D01*
X4130Y18092D01*
X4128Y18090D01*
X3958Y17920D01*
X3955Y17916D01*
X3952Y17913D01*
X3949Y17909D01*
X3948Y17908D01*
X3947Y17906D01*
X3945Y17903D01*
X3852Y17743D01*
X3850Y17737D01*
X3847Y17731D01*
X3846Y17730D01*
X3846Y17728D01*
X3844Y17722D01*
X3843Y17716D01*
X3843Y17714D01*
X3842Y17713D01*
X3842Y17707D01*
X3842Y17700D01*
X3842Y17699D01*
X3842Y17697D01*
X3843Y17691D01*
X3844Y17684D01*
X3844Y17683D01*
X3845Y17682D01*
X3847Y17676D01*
X3849Y17670D01*
X3850Y17668D01*
X3850Y17667D01*
X3854Y17662D01*
X3857Y17656D01*
X3858Y17655D01*
X3859Y17654D01*
X3861Y17652D01*
X3865Y17647D01*
X3919Y17593D01*
X3919Y17014D01*
X3891Y16985D01*
X3890Y16984D01*
X3889Y16984D01*
X3885Y16978D01*
X3881Y16973D01*
X3880Y16972D01*
X3880Y16971D01*
X3877Y16965D01*
X3873Y16959D01*
X3873Y16958D01*
X3873Y16957D01*
X3871Y16951D01*
X3869Y16944D01*
X3869Y16943D01*
X3869Y16942D01*
X3868Y16935D01*
X3868Y16928D01*
X3868Y16927D01*
X3868Y16926D01*
X3868Y16919D01*
X3869Y16912D01*
X3870Y16912D01*
X3870Y16911D01*
X3872Y16904D01*
X3874Y16897D01*
X3875Y16897D01*
X3875Y16896D01*
X3878Y16890D01*
X3882Y16884D01*
X3882Y16883D01*
X3883Y16882D01*
X3891Y16873D01*
X3919Y16844D01*
X3919Y16266D01*
X3872Y16218D01*
X3345Y16218D01*
X3343Y16218D01*
X3342Y16218D01*
X3336Y16218D01*
X3329Y16217D01*
X3328Y16217D01*
X3326Y16216D01*
X3320Y16214D01*
X3314Y16212D01*
X3313Y16212D01*
X3312Y16211D01*
X3306Y16208D01*
X3300Y16205D01*
X3299Y16204D01*
X3298Y16203D01*
X3293Y16199D01*
X3288Y16195D01*
X3287Y16194D01*
X3286Y16193D01*
X3282Y16187D01*
X3278Y16182D01*
X3277Y16181D01*
X3277Y16180D01*
X3271Y16170D01*
X3254Y16128D01*
X3253Y16123D01*
X3251Y16118D01*
X3250Y16115D01*
X3250Y16113D01*
X3250Y16111D01*
X3249Y16106D01*
X3244Y16063D01*
X3244Y16060D01*
X3244Y16055D01*
X3244Y11535D01*
X3244Y11534D01*
X3244Y11532D01*
X3245Y11526D01*
X3246Y11519D01*
X3246Y11518D01*
X3246Y11516D01*
X3248Y11510D01*
X3250Y11504D01*
X3251Y11503D01*
X3251Y11502D01*
X3255Y11496D01*
X3258Y11490D01*
X3259Y11489D01*
X3260Y11488D01*
X3267Y11479D01*
X3454Y11292D01*
X3454Y10952D01*
X3213Y10711D01*
X2873Y10711D01*
X2633Y10952D01*
X2633Y11292D01*
X2819Y11479D01*
X2820Y11480D01*
X2821Y11481D01*
X2825Y11486D01*
X2829Y11491D01*
X2830Y11492D01*
X2831Y11494D01*
X2834Y11499D01*
X2837Y11505D01*
X2837Y11507D01*
X2838Y11508D01*
X2839Y11514D01*
X2841Y11520D01*
X2841Y11522D01*
X2842Y11523D01*
X2843Y11535D01*
X2843Y16195D01*
X2949Y16452D01*
X3144Y16647D01*
X3145Y16648D01*
X3146Y16649D01*
X3150Y16654D01*
X3154Y16659D01*
X3155Y16660D01*
X3156Y16662D01*
X3158Y16667D01*
X3161Y16673D01*
X3162Y16674D01*
X3162Y16676D01*
X3164Y16682D01*
X3166Y16688D01*
X3166Y16690D01*
X3166Y16691D01*
X3167Y16703D01*
X3167Y16844D01*
X3196Y16873D01*
X3197Y16874D01*
X3202Y16880D01*
X3206Y16885D01*
X3206Y16886D01*
X3207Y16887D01*
X3210Y16893D01*
X3213Y16899D01*
X3214Y16900D01*
X3214Y16901D01*
X3216Y16908D01*
X3218Y16914D01*
X3218Y16915D01*
X3218Y16916D01*
X3219Y16923D01*
X3219Y16930D01*
X3219Y16931D01*
X3219Y16932D01*
X3218Y16939D01*
X3217Y16946D01*
X3217Y16947D01*
X3217Y16948D01*
X3215Y16954D01*
X3213Y16961D01*
X3212Y16962D01*
X3212Y16963D01*
X3208Y16969D01*
X3205Y16975D01*
X3204Y16975D01*
X3204Y16976D01*
X3196Y16985D01*
X3167Y17014D01*
X3167Y17593D01*
X3215Y17640D01*
X3323Y17640D01*
X3329Y17640D01*
X3335Y17641D01*
X3337Y17641D01*
X3338Y17641D01*
X3344Y17643D01*
X3351Y17645D01*
X3352Y17646D01*
X3353Y17646D01*
X3359Y17649D01*
X3365Y17652D01*
X3366Y17653D01*
X3367Y17654D01*
X3372Y17658D01*
X3377Y17662D01*
X3378Y17663D01*
X3379Y17664D01*
X3383Y17669D01*
X3387Y17674D01*
X3388Y17675D01*
X3389Y17676D01*
X3392Y17682D01*
X3395Y17687D01*
X3396Y17689D01*
X3396Y17690D01*
X3397Y17693D01*
X3399Y17699D01*
X3438Y17844D01*
X3623Y18164D01*
X3884Y18425D01*
X4203Y18609D01*
X4560Y18705D01*
X9843Y18705D01*
X9845Y18705D01*
X9850Y18705D01*
X9884Y18708D01*
X9890Y18710D01*
X9895Y18710D01*
X9898Y18711D01*
X9899Y18711D01*
X9902Y18712D01*
X9907Y18714D01*
X9969Y18740D01*
X9970Y18741D01*
X9972Y18741D01*
X9977Y18744D01*
X9983Y18747D01*
X9984Y18748D01*
X9986Y18749D01*
X9995Y18757D01*
X10042Y18805D01*
X10043Y18805D01*
X10044Y18806D01*
X10045Y18807D01*
X10048Y18812D01*
X10052Y18817D01*
X10053Y18818D01*
X10053Y18819D01*
X10054Y18820D01*
X10059Y18830D01*
X10085Y18893D01*
X10087Y18898D01*
X10089Y18904D01*
X10089Y18906D01*
X10090Y18908D01*
X10090Y18910D01*
X10091Y18915D01*
X10094Y18949D01*
X10094Y18952D01*
X10095Y18957D01*
X10095Y19094D01*
X10094Y19095D01*
X10095Y19096D01*
X10094Y19103D01*
X10093Y19110D01*
X10093Y19111D01*
X10093Y19112D01*
X10090Y19118D01*
X10088Y19125D01*
X10088Y19126D01*
X10088Y19127D01*
X10084Y19133D01*
X10081Y19139D01*
X10080Y19139D01*
X10080Y19140D01*
X10075Y19145D01*
X10071Y19151D01*
X10070Y19151D01*
X10069Y19152D01*
X10064Y19156D01*
X10058Y19161D01*
X10057Y19161D01*
X10057Y19162D01*
X10050Y19165D01*
X10044Y19168D01*
X10043Y19168D01*
X10042Y19168D01*
X10036Y19170D01*
X10029Y19172D01*
X10028Y19172D01*
X10027Y19172D01*
X10015Y19173D01*
X10012Y19173D01*
X9965Y19220D01*
X9965Y19839D01*
X9964Y19840D01*
X9965Y19841D01*
X9964Y19848D01*
X9963Y19854D01*
X9963Y19855D01*
X9963Y19856D01*
X9960Y19863D01*
X9958Y19870D01*
X9958Y19871D01*
X9954Y19877D01*
X9951Y19883D01*
X9950Y19884D01*
X9950Y19885D01*
X9945Y19890D01*
X9941Y19895D01*
X9940Y19896D01*
X9939Y19897D01*
X9934Y19901D01*
X9928Y19905D01*
X9927Y19906D01*
X9920Y19909D01*
X9914Y19913D01*
X9913Y19913D01*
X9912Y19913D01*
X9906Y19915D01*
X9899Y19917D01*
X9898Y19917D01*
X9897Y19917D01*
X9885Y19918D01*
X9705Y19918D01*
X9704Y19918D01*
X9703Y19918D01*
X9696Y19917D01*
X9690Y19916D01*
X9689Y19916D01*
X9688Y19916D01*
X9681Y19914D01*
X9674Y19912D01*
X9674Y19911D01*
X9673Y19911D01*
X9667Y19908D01*
X9661Y19904D01*
X9660Y19904D01*
X9659Y19903D01*
X9654Y19899D01*
X9649Y19894D01*
X9648Y19893D01*
X9647Y19893D01*
X9643Y19887D01*
X9639Y19882D01*
X9638Y19881D01*
X9638Y19880D01*
X9635Y19874D01*
X9632Y19868D01*
X9631Y19867D01*
X9631Y19866D01*
X9629Y19859D01*
X9627Y19853D01*
X9627Y19852D01*
X9627Y19851D01*
X9626Y19839D01*
X9626Y19220D01*
X9579Y19173D01*
X9012Y19173D01*
X8965Y19220D01*
X8965Y19839D01*
X8964Y19840D01*
X8965Y19841D01*
X8964Y19848D01*
X8963Y19854D01*
X8963Y19855D01*
X8963Y19856D01*
X8960Y19863D01*
X8958Y19870D01*
X8958Y19871D01*
X8954Y19877D01*
X8951Y19883D01*
X8950Y19884D01*
X8950Y19885D01*
X8945Y19890D01*
X8941Y19895D01*
X8940Y19896D01*
X8939Y19897D01*
X8934Y19901D01*
X8928Y19905D01*
X8927Y19906D01*
X8920Y19909D01*
X8914Y19913D01*
X8913Y19913D01*
X8912Y19913D01*
X8906Y19915D01*
X8899Y19917D01*
X8898Y19917D01*
X8897Y19917D01*
X8885Y19918D01*
X8705Y19918D01*
X8704Y19918D01*
X8703Y19918D01*
X8696Y19917D01*
X8690Y19916D01*
X8689Y19916D01*
X8688Y19916D01*
X8681Y19914D01*
X8674Y19912D01*
X8674Y19911D01*
X8673Y19911D01*
X8667Y19908D01*
X8661Y19904D01*
X8660Y19904D01*
X8659Y19903D01*
X8654Y19899D01*
X8649Y19894D01*
X8648Y19893D01*
X8647Y19893D01*
X8643Y19887D01*
X8639Y19882D01*
X8638Y19881D01*
X8638Y19880D01*
X8635Y19874D01*
X8632Y19868D01*
X8631Y19867D01*
X8631Y19866D01*
X8629Y19859D01*
X8627Y19853D01*
X8627Y19852D01*
X8627Y19851D01*
X8626Y19839D01*
X8626Y19220D01*
X8579Y19173D01*
X8012Y19173D01*
X7965Y19220D01*
X7965Y19839D01*
X7964Y19840D01*
X7965Y19841D01*
X7964Y19848D01*
X7963Y19854D01*
X7963Y19855D01*
X7963Y19856D01*
X7960Y19863D01*
X7958Y19870D01*
X7958Y19871D01*
X7954Y19877D01*
X7951Y19883D01*
X7950Y19884D01*
X7950Y19885D01*
X7945Y19890D01*
X7941Y19895D01*
X7940Y19896D01*
X7939Y19897D01*
X7934Y19901D01*
X7928Y19905D01*
X7927Y19906D01*
X7920Y19909D01*
X7914Y19913D01*
X7913Y19913D01*
X7912Y19913D01*
X7906Y19915D01*
X7899Y19917D01*
X7898Y19917D01*
X7897Y19917D01*
X7885Y19918D01*
X7725Y19918D01*
X7724Y19918D01*
X7723Y19918D01*
X7716Y19917D01*
X7710Y19916D01*
X7709Y19916D01*
X7708Y19916D01*
X7701Y19914D01*
X7694Y19912D01*
X7694Y19911D01*
X7693Y19911D01*
X7687Y19908D01*
X7681Y19904D01*
X7680Y19904D01*
X7679Y19903D01*
X7674Y19899D01*
X7669Y19894D01*
X7668Y19893D01*
X7667Y19893D01*
X7663Y19887D01*
X7659Y19882D01*
X7658Y19881D01*
X7658Y19880D01*
X7655Y19874D01*
X7652Y19868D01*
X7651Y19867D01*
X7651Y19866D01*
X7649Y19859D01*
X7647Y19853D01*
X7647Y19852D01*
X7647Y19851D01*
X7646Y19839D01*
X7646Y19687D01*
X7340Y19687D01*
X7339Y19687D01*
X7338Y19687D01*
X7331Y19686D01*
X7325Y19686D01*
X7324Y19685D01*
X7323Y19685D01*
X7316Y19683D01*
X7310Y19681D01*
X7309Y19681D01*
X7308Y19680D01*
X7302Y19677D01*
X7296Y19673D01*
X7295Y19673D01*
X7293Y19675D01*
X7292Y19675D01*
X7292Y19676D01*
X7285Y19679D01*
X7279Y19682D01*
X7278Y19682D01*
X7277Y19682D01*
X7271Y19684D01*
X7264Y19686D01*
X7263Y19686D01*
X7262Y19686D01*
X7250Y19687D01*
X6945Y19687D01*
X6945Y19839D01*
X6944Y19840D01*
X6945Y19841D01*
X6944Y19848D01*
X6943Y19854D01*
X6943Y19855D01*
X6943Y19856D01*
X6940Y19863D01*
X6938Y19870D01*
X6938Y19871D01*
X6934Y19877D01*
X6931Y19883D01*
X6930Y19884D01*
X6930Y19885D01*
X6925Y19890D01*
X6921Y19895D01*
X6920Y19896D01*
X6919Y19897D01*
X6914Y19901D01*
X6908Y19905D01*
X6907Y19906D01*
X6900Y19909D01*
X6894Y19913D01*
X6893Y19913D01*
X6892Y19913D01*
X6886Y19915D01*
X6879Y19917D01*
X6878Y19917D01*
X6877Y19917D01*
X6865Y19918D01*
X6705Y19918D01*
X6704Y19918D01*
X6703Y19918D01*
X6696Y19917D01*
X6690Y19916D01*
X6689Y19916D01*
X6688Y19916D01*
X6681Y19914D01*
X6674Y19912D01*
X6674Y19911D01*
X6673Y19911D01*
X6667Y19908D01*
X6661Y19904D01*
X6660Y19904D01*
X6659Y19903D01*
X6654Y19899D01*
X6649Y19894D01*
X6648Y19893D01*
X6647Y19893D01*
X6643Y19887D01*
X6639Y19882D01*
X6638Y19881D01*
X6638Y19880D01*
X6635Y19874D01*
X6632Y19868D01*
X6631Y19867D01*
X6631Y19866D01*
X6629Y19859D01*
X6627Y19853D01*
X6627Y19852D01*
X6627Y19851D01*
X6626Y19839D01*
X6626Y19220D01*
X6579Y19173D01*
X6012Y19173D01*
X5965Y19220D01*
X5965Y19839D01*
X5964Y19840D01*
X5965Y19841D01*
X5964Y19848D01*
X5963Y19854D01*
X5963Y19855D01*
X5963Y19856D01*
X5960Y19863D01*
X5958Y19870D01*
X5958Y19871D01*
X5954Y19877D01*
X5951Y19883D01*
X5950Y19884D01*
X5950Y19885D01*
X5945Y19890D01*
X5941Y19895D01*
X5940Y19896D01*
X5939Y19897D01*
X5934Y19901D01*
X5928Y19905D01*
X5927Y19906D01*
X5920Y19909D01*
X5914Y19913D01*
X5913Y19913D01*
X5912Y19913D01*
X5906Y19915D01*
X5899Y19917D01*
X5898Y19917D01*
X5897Y19917D01*
X5885Y19918D01*
X5705Y19918D01*
X5704Y19918D01*
X5703Y19918D01*
X5696Y19917D01*
X5690Y19916D01*
X5689Y19916D01*
X5688Y19916D01*
X5681Y19914D01*
X5674Y19912D01*
X5674Y19911D01*
X5673Y19911D01*
X5667Y19908D01*
X5661Y19904D01*
X5660Y19904D01*
X5659Y19903D01*
X5654Y19899D01*
X5649Y19894D01*
X5648Y19893D01*
X5647Y19893D01*
X5643Y19887D01*
X5639Y19882D01*
X5638Y19881D01*
X5638Y19880D01*
X5635Y19874D01*
X5632Y19868D01*
X5631Y19867D01*
X5631Y19866D01*
X5629Y19859D01*
X5627Y19853D01*
X5627Y19852D01*
X5627Y19851D01*
X5626Y19839D01*
X5626Y19220D01*
X5579Y19173D01*
X5012Y19173D01*
X4965Y19220D01*
X4965Y19839D01*
X4964Y19840D01*
X4965Y19841D01*
X4964Y19848D01*
X4963Y19854D01*
X4963Y19855D01*
X4963Y19856D01*
X4960Y19863D01*
X4958Y19870D01*
X4958Y19871D01*
X4954Y19877D01*
X4951Y19883D01*
X4950Y19884D01*
X4950Y19885D01*
X4945Y19890D01*
X4941Y19895D01*
X4940Y19896D01*
X4939Y19897D01*
X4934Y19901D01*
X4928Y19905D01*
X4927Y19906D01*
X4920Y19909D01*
X4914Y19913D01*
X4913Y19913D01*
X4912Y19913D01*
X4906Y19915D01*
X4899Y19917D01*
X4898Y19917D01*
X4897Y19917D01*
X4885Y19918D01*
X4705Y19918D01*
X4704Y19918D01*
X4703Y19918D01*
X4696Y19917D01*
X4690Y19916D01*
X4689Y19916D01*
X4688Y19916D01*
X4681Y19914D01*
X4674Y19912D01*
X4674Y19911D01*
X4673Y19911D01*
X4667Y19908D01*
X4661Y19904D01*
X4660Y19904D01*
X4659Y19903D01*
X4654Y19899D01*
X4649Y19894D01*
X4648Y19893D01*
X4647Y19893D01*
X4643Y19887D01*
X4639Y19882D01*
X4638Y19881D01*
X4638Y19880D01*
X4635Y19874D01*
X4632Y19868D01*
X4631Y19867D01*
X4631Y19866D01*
X4629Y19859D01*
X4627Y19853D01*
X4627Y19852D01*
X4627Y19851D01*
X4626Y19839D01*
X4626Y19220D01*
X4579Y19173D01*
X4012Y19173D01*
X3965Y19220D01*
X3965Y19839D01*
X3964Y19840D01*
X3965Y19841D01*
X3964Y19848D01*
X3963Y19854D01*
X3963Y19855D01*
X3963Y19856D01*
X3960Y19863D01*
X3958Y19870D01*
X3958Y19871D01*
X3954Y19877D01*
X3951Y19883D01*
X3950Y19884D01*
X3950Y19885D01*
X3945Y19890D01*
X3941Y19895D01*
X3940Y19896D01*
X3939Y19897D01*
X3934Y19901D01*
X3928Y19905D01*
X3927Y19906D01*
X3920Y19909D01*
X3914Y19913D01*
X3913Y19913D01*
X3912Y19913D01*
X3906Y19915D01*
X3899Y19917D01*
X3898Y19917D01*
X3897Y19917D01*
X3885Y19918D01*
X3705Y19918D01*
X3704Y19918D01*
X3703Y19918D01*
X3696Y19917D01*
X3690Y19916D01*
X3689Y19916D01*
X3688Y19916D01*
X3681Y19914D01*
X3674Y19912D01*
X3674Y19911D01*
X3673Y19911D01*
X3667Y19908D01*
X3661Y19904D01*
X3660Y19904D01*
X3659Y19903D01*
X3654Y19899D01*
X3649Y19894D01*
X3648Y19893D01*
X3647Y19893D01*
X3643Y19887D01*
X3639Y19882D01*
X3638Y19881D01*
X3638Y19880D01*
X3635Y19874D01*
X3632Y19868D01*
X3631Y19867D01*
X3631Y19866D01*
X3629Y19859D01*
X3627Y19853D01*
X3627Y19852D01*
X3627Y19851D01*
X3626Y19839D01*
X3626Y19220D01*
X3579Y19173D01*
X3012Y19173D01*
X2965Y19220D01*
X2965Y19243D01*
X2964Y19246D01*
X2964Y19250D01*
X2963Y19254D01*
X2963Y19258D01*
X2962Y19262D01*
X2961Y19266D01*
X2960Y19270D01*
X2958Y19273D01*
X2957Y19277D01*
X2955Y19280D01*
X2953Y19284D01*
X2951Y19287D01*
X2948Y19290D01*
X2946Y19293D01*
X2943Y19296D01*
X2941Y19299D01*
X2938Y19302D01*
X2935Y19304D01*
X2932Y19307D01*
X2928Y19309D01*
X2925Y19311D01*
X2922Y19313D01*
X2918Y19315D01*
X2914Y19316D01*
X2911Y19317D01*
X2907Y19319D01*
X2903Y19320D01*
X2899Y19321D01*
X2895Y19321D01*
X2892Y19322D01*
X2887Y19322D01*
X2883Y19322D01*
X2880Y19321D01*
X2876Y19321D01*
X2870Y19320D01*
X2868Y19320D01*
X2866Y19320D01*
X2864Y19319D01*
X2584Y19242D01*
X2582Y19241D01*
X2580Y19241D01*
X2569Y19236D01*
X2136Y19019D01*
X2135Y19018D01*
X2133Y19017D01*
X2123Y19010D01*
X1741Y18713D01*
X1739Y18711D01*
X1738Y18710D01*
X1729Y18702D01*
X1413Y18335D01*
X1412Y18334D01*
X1410Y18333D01*
X1404Y18323D01*
X1164Y17901D01*
X1164Y17900D01*
X1163Y17898D01*
X1158Y17887D01*
X1006Y17427D01*
X1005Y17425D01*
X1005Y17424D01*
X1002Y17412D01*
X942Y16931D01*
X942Y16919D01*
X947Y16711D01*
X947Y16710D01*
X947Y16709D01*
X948Y16702D01*
X948Y16699D01*
X948Y16670D01*
X948Y16668D01*
X948Y16664D01*
X950Y16639D01*
X949Y16635D01*
X949Y16633D01*
X949Y16632D01*
X949Y16630D01*
X948Y16623D01*
X948Y5512D01*
X948Y5510D01*
X948Y5506D01*
X955Y5420D01*
X956Y5417D01*
X956Y5413D01*
X957Y5407D01*
X958Y5404D01*
X958Y5403D01*
X959Y5402D01*
X1012Y5239D01*
X1014Y5233D01*
X1017Y5227D01*
X1018Y5225D01*
X1018Y5224D01*
X1020Y5222D01*
X1023Y5217D01*
X1124Y5078D01*
X1128Y5073D01*
X1132Y5068D01*
X1133Y5067D01*
X1134Y5066D01*
X1136Y5065D01*
X1141Y5061D01*
X1280Y4960D01*
X1285Y4957D01*
X1291Y4953D01*
X1292Y4953D01*
X1293Y4952D01*
X1296Y4951D01*
X1302Y4949D01*
X1465Y4896D01*
X1468Y4895D01*
X1471Y4894D01*
X1477Y4893D01*
X1480Y4892D01*
X1481Y4892D01*
X1483Y4892D01*
X1569Y4885D01*
X1571Y4885D01*
X1575Y4885D01*
X9209Y4885D01*
X9210Y4885D01*
X9211Y4885D01*
X9218Y4886D01*
X9225Y4887D01*
X9226Y4887D01*
X9233Y4889D01*
X9240Y4891D01*
X9240Y4892D01*
X9241Y4892D01*
X9247Y4896D01*
X9253Y4899D01*
X9254Y4900D01*
X9255Y4900D01*
X9260Y4905D01*
X9266Y4909D01*
X9266Y4910D01*
X9267Y4910D01*
X9271Y4916D01*
X9275Y4921D01*
X9276Y4922D01*
X9276Y4923D01*
X9279Y4929D01*
X9283Y4935D01*
X9283Y4936D01*
X9283Y4937D01*
X9285Y4944D01*
X9287Y4951D01*
X9287Y4952D01*
X9287Y4953D01*
X9288Y4964D01*
X9288Y5544D01*
X9313Y5603D01*
X9358Y5648D01*
X9417Y5673D01*
X10234Y5673D01*
X10235Y5673D01*
X10236Y5673D01*
X10243Y5673D01*
X10249Y5674D01*
X10250Y5674D01*
X10251Y5675D01*
X10258Y5677D01*
X10264Y5679D01*
X10265Y5679D01*
X10266Y5680D01*
X10272Y5683D01*
X10278Y5686D01*
X10279Y5687D01*
X10280Y5687D01*
X10285Y5692D01*
X10290Y5696D01*
X10291Y5697D01*
X10292Y5698D01*
X10296Y5703D01*
X10300Y5709D01*
X10301Y5710D01*
X10304Y5717D01*
X10307Y5723D01*
X10308Y5724D01*
X10308Y5725D01*
X10310Y5731D01*
X10312Y5738D01*
X10312Y5739D01*
X10312Y5740D01*
X10313Y5752D01*
X10313Y5841D01*
X10360Y5888D01*
X10939Y5888D01*
X10953Y5873D01*
X10954Y5873D01*
X10955Y5872D01*
X10960Y5868D01*
X10966Y5863D01*
X10967Y5863D01*
X10967Y5862D01*
X10974Y5859D01*
X10980Y5856D01*
X10981Y5856D01*
X10981Y5855D01*
X10988Y5853D01*
X10995Y5852D01*
X10996Y5851D01*
X10997Y5851D01*
X11004Y5851D01*
X11010Y5850D01*
X11011Y5850D01*
X11012Y5850D01*
X11019Y5851D01*
X11026Y5852D01*
X11027Y5852D01*
X11028Y5852D01*
X11035Y5855D01*
X11041Y5857D01*
X11042Y5857D01*
X11043Y5858D01*
X11049Y5861D01*
X11055Y5864D01*
X11056Y5865D01*
X11057Y5866D01*
X11066Y5873D01*
X11080Y5888D01*
X11103Y5901D01*
X11128Y5908D01*
X11270Y5908D01*
X11270Y5560D01*
X11271Y5559D01*
X11270Y5558D01*
X11271Y5551D01*
X11272Y5544D01*
X11272Y5543D01*
X11272Y5542D01*
X11275Y5536D01*
X11277Y5529D01*
X11277Y5528D01*
X11277Y5527D01*
X11281Y5521D01*
X11284Y5515D01*
X11285Y5514D01*
X11287Y5512D01*
X11283Y5507D01*
X11283Y5506D01*
X11282Y5505D01*
X11279Y5499D01*
X11276Y5493D01*
X11276Y5492D01*
X11275Y5491D01*
X11274Y5484D01*
X11272Y5478D01*
X11272Y5477D01*
X11271Y5476D01*
X11270Y5464D01*
X11270Y5116D01*
X11128Y5116D01*
X11103Y5123D01*
X11080Y5136D01*
X11066Y5150D01*
X11065Y5151D01*
X11064Y5152D01*
X11059Y5156D01*
X11053Y5160D01*
X11052Y5161D01*
X11045Y5164D01*
X11039Y5168D01*
X11038Y5168D01*
X11031Y5170D01*
X11024Y5172D01*
X11023Y5172D01*
X11022Y5172D01*
X11015Y5173D01*
X11008Y5173D01*
X11007Y5173D01*
X11000Y5172D01*
X10993Y5172D01*
X10992Y5171D01*
X10991Y5171D01*
X10984Y5169D01*
X10978Y5167D01*
X10977Y5166D01*
X10976Y5166D01*
X10970Y5163D01*
X10964Y5159D01*
X10963Y5159D01*
X10962Y5158D01*
X10953Y5150D01*
X10939Y5136D01*
X10360Y5136D01*
X10313Y5183D01*
X10313Y5272D01*
X10313Y5273D01*
X10313Y5274D01*
X10312Y5281D01*
X10311Y5288D01*
X10311Y5289D01*
X10309Y5296D01*
X10307Y5303D01*
X10306Y5303D01*
X10306Y5304D01*
X10302Y5310D01*
X10299Y5316D01*
X10299Y5317D01*
X10298Y5318D01*
X10293Y5323D01*
X10289Y5329D01*
X10288Y5329D01*
X10288Y5330D01*
X10282Y5334D01*
X10277Y5338D01*
X10276Y5339D01*
X10275Y5339D01*
X10269Y5342D01*
X10263Y5346D01*
X10262Y5346D01*
X10261Y5346D01*
X10254Y5348D01*
X10247Y5350D01*
X10246Y5350D01*
X10234Y5351D01*
X9689Y5351D01*
X9688Y5351D01*
X9687Y5351D01*
X9680Y5350D01*
X9673Y5349D01*
X9672Y5349D01*
X9671Y5349D01*
X9665Y5347D01*
X9658Y5345D01*
X9657Y5344D01*
X9656Y5344D01*
X9650Y5341D01*
X9644Y5337D01*
X9643Y5337D01*
X9643Y5336D01*
X9637Y5332D01*
X9632Y5327D01*
X9631Y5326D01*
X9627Y5320D01*
X9622Y5315D01*
X9622Y5314D01*
X9621Y5313D01*
X9618Y5307D01*
X9615Y5301D01*
X9615Y5300D01*
X9614Y5299D01*
X9613Y5292D01*
X9611Y5286D01*
X9611Y5285D01*
X9610Y5284D01*
X9610Y5272D01*
X9610Y4964D01*
X9610Y4963D01*
X9610Y4962D01*
X9610Y4956D01*
X9611Y4949D01*
X9611Y4948D01*
X9612Y4947D01*
X9614Y4940D01*
X9616Y4934D01*
X9616Y4933D01*
X9617Y4932D01*
X9620Y4926D01*
X9623Y4920D01*
X9624Y4919D01*
X9624Y4918D01*
X9629Y4913D01*
X9633Y4908D01*
X9634Y4907D01*
X9635Y4906D01*
X9640Y4902D01*
X9646Y4898D01*
X9647Y4897D01*
X9654Y4894D01*
X9660Y4891D01*
X9661Y4890D01*
X9662Y4890D01*
X9668Y4888D01*
X9675Y4886D01*
X9676Y4886D01*
X9677Y4886D01*
X9689Y4885D01*
X12705Y4885D01*
X12901Y4804D01*
X13052Y4653D01*
X13083Y4577D01*
X13084Y4577D01*
X13084Y4576D01*
X13087Y4570D01*
X13091Y4564D01*
X13091Y4563D01*
X13091Y4562D01*
X13096Y4557D01*
X13101Y4551D01*
X13102Y4550D01*
X13107Y4546D01*
X13113Y4541D01*
X13114Y4541D01*
X13121Y4537D01*
X13127Y4534D01*
X13128Y4534D01*
X13135Y4532D01*
X13142Y4530D01*
X13143Y4530D01*
X13144Y4530D01*
X13151Y4529D01*
X13158Y4529D01*
X13159Y4529D01*
X13166Y4530D01*
X13174Y4530D01*
X13174Y4531D01*
X13175Y4531D01*
X13182Y4533D01*
X13189Y4535D01*
X13189Y4536D01*
X13190Y4536D01*
X13196Y4540D01*
X13202Y4543D01*
X13203Y4544D01*
X13212Y4552D01*
X13228Y4567D01*
X13330Y4610D01*
X13441Y4610D01*
X13544Y4567D01*
X13622Y4489D01*
X13665Y4386D01*
X13665Y4275D01*
X13622Y4173D01*
X13544Y4094D01*
X13441Y4052D01*
X13330Y4052D01*
X13243Y4088D01*
X13242Y4088D01*
X13241Y4089D01*
X13234Y4091D01*
X13228Y4093D01*
X13227Y4093D01*
X13226Y4093D01*
X13219Y4093D01*
X13212Y4094D01*
X13211Y4094D01*
X13210Y4094D01*
X13203Y4093D01*
X13196Y4092D01*
X13195Y4092D01*
X13188Y4090D01*
X13181Y4088D01*
X13181Y4087D01*
X13180Y4087D01*
X13174Y4084D01*
X13167Y4080D01*
X13166Y4079D01*
X13161Y4075D01*
X13155Y4070D01*
X13155Y4069D01*
X13154Y4069D01*
X13150Y4063D01*
X13146Y4058D01*
X13145Y4057D01*
X13145Y4056D01*
X13142Y4050D01*
X13138Y4043D01*
X13138Y4042D01*
X13136Y4035D01*
X13134Y4028D01*
X13134Y4027D01*
X13133Y4015D01*
X13133Y3605D01*
X13133Y3604D01*
X13133Y3603D01*
X13134Y3596D01*
X13135Y3589D01*
X13135Y3588D01*
X13135Y3587D01*
X13137Y3581D01*
X13139Y3574D01*
X13140Y3573D01*
X13140Y3572D01*
X13144Y3566D01*
X13147Y3560D01*
X13148Y3559D01*
X13153Y3553D01*
X13157Y3548D01*
X13158Y3548D01*
X13159Y3547D01*
X13164Y3543D01*
X13169Y3538D01*
X13170Y3538D01*
X13171Y3537D01*
X13177Y3534D01*
X13183Y3531D01*
X13184Y3531D01*
X13185Y3530D01*
X13192Y3529D01*
X13199Y3527D01*
X13200Y3527D01*
X13201Y3527D01*
X13212Y3526D01*
X13262Y3526D01*
X13309Y3478D01*
X13309Y2821D01*
X13262Y2774D01*
X12683Y2774D01*
X12654Y2802D01*
X12654Y2803D01*
X12653Y2804D01*
X12648Y2808D01*
X12642Y2812D01*
X12641Y2813D01*
X12634Y2816D01*
X12628Y2820D01*
X12627Y2820D01*
X12626Y2820D01*
X12620Y2822D01*
X12613Y2824D01*
X12612Y2824D01*
X12611Y2824D01*
X12604Y2825D01*
X12597Y2825D01*
X12596Y2825D01*
X12595Y2825D01*
X12589Y2824D01*
X12582Y2824D01*
X12581Y2823D01*
X12580Y2823D01*
X12573Y2821D01*
X12567Y2819D01*
X12566Y2818D01*
X12565Y2818D01*
X12559Y2814D01*
X12553Y2811D01*
X12552Y2810D01*
X12551Y2810D01*
X12542Y2802D01*
X12514Y2774D01*
X12500Y2774D01*
X12498Y2773D01*
X12496Y2773D01*
X12490Y2773D01*
X12484Y2772D01*
X12482Y2771D01*
X12481Y2771D01*
X12475Y2769D01*
X12469Y2767D01*
X12468Y2766D01*
X12466Y2766D01*
X12461Y2763D01*
X12455Y2760D01*
X12454Y2759D01*
X12452Y2758D01*
X12448Y2753D01*
X12443Y2750D01*
X12442Y2748D01*
X12441Y2747D01*
X12437Y2742D01*
X12433Y2737D01*
X12433Y2736D01*
X12431Y2734D01*
X12429Y2729D01*
X12426Y2723D01*
X12426Y2721D01*
X12425Y2720D01*
X12424Y2714D01*
X12422Y2708D01*
X12422Y2706D01*
X12421Y2704D01*
X12421Y2698D01*
X12421Y2692D01*
X12421Y2690D01*
X12421Y2688D01*
X12422Y2683D01*
X12423Y2677D01*
X12423Y2675D01*
X12424Y2673D01*
X12428Y2662D01*
X12491Y2521D01*
X12494Y2516D01*
X12497Y2510D01*
X12498Y2509D01*
X12499Y2508D01*
X12501Y2506D01*
X12505Y2501D01*
X12658Y2332D01*
X12662Y2328D01*
X12667Y2324D01*
X12668Y2323D01*
X12669Y2322D01*
X12672Y2320D01*
X12677Y2317D01*
X12874Y2204D01*
X12878Y2203D01*
X12880Y2201D01*
X12886Y2199D01*
X12889Y2198D01*
X12890Y2197D01*
X12892Y2197D01*
X12984Y2170D01*
X12989Y2169D01*
X12994Y2168D01*
X12997Y2167D01*
X12999Y2167D01*
X13002Y2167D01*
X13006Y2167D01*
X17875Y2167D01*
X17877Y2167D01*
X17878Y2167D01*
X17884Y2168D01*
X17891Y2168D01*
X17892Y2169D01*
X17894Y2169D01*
X17900Y2171D01*
X17906Y2173D01*
X17907Y2174D01*
X17909Y2174D01*
X17914Y2177D01*
X17920Y2180D01*
X17921Y2181D01*
X17922Y2182D01*
X17931Y2190D01*
X17941Y2200D01*
X17942Y2201D01*
X17947Y2207D01*
X17951Y2212D01*
X17952Y2213D01*
X17952Y2214D01*
X17955Y2220D01*
X17958Y2226D01*
X17959Y2227D01*
X17959Y2228D01*
X17961Y2235D01*
X17963Y2241D01*
X17963Y2242D01*
X17963Y2243D01*
X17964Y2250D01*
X17964Y2257D01*
X17964Y2258D01*
X17964Y2259D01*
X17963Y2266D01*
X17963Y2273D01*
X17962Y2273D01*
X17962Y2274D01*
X17960Y2281D01*
X17958Y2288D01*
X17957Y2288D01*
X17957Y2289D01*
X17953Y2295D01*
X17950Y2301D01*
X17949Y2302D01*
X17949Y2303D01*
X17941Y2312D01*
X17931Y2322D01*
X17930Y2323D01*
X17929Y2324D01*
X17924Y2328D01*
X17919Y2332D01*
X17918Y2333D01*
X17916Y2334D01*
X17911Y2336D01*
X17905Y2339D01*
X17904Y2340D01*
X17902Y2340D01*
X17896Y2342D01*
X17890Y2344D01*
X17888Y2344D01*
X17887Y2344D01*
X17875Y2345D01*
X14709Y2345D01*
X14467Y2424D01*
X14261Y2574D01*
X14139Y2741D01*
X14134Y2747D01*
X14129Y2752D01*
X14129Y2753D01*
X14123Y2757D01*
X14116Y2762D01*
X14109Y2765D01*
X14102Y2769D01*
X14094Y2771D01*
X14087Y2773D01*
X14086Y2773D01*
X14075Y2774D01*
X13904Y2774D01*
X13856Y2821D01*
X13856Y3478D01*
X13904Y3526D01*
X13953Y3526D01*
X13954Y3526D01*
X13955Y3526D01*
X13962Y3527D01*
X13969Y3527D01*
X13970Y3527D01*
X13971Y3528D01*
X13977Y3530D01*
X13984Y3532D01*
X13985Y3532D01*
X13985Y3533D01*
X13991Y3536D01*
X13998Y3539D01*
X13998Y3540D01*
X13999Y3541D01*
X14004Y3545D01*
X14010Y3550D01*
X14011Y3551D01*
X14015Y3556D01*
X14019Y3562D01*
X14020Y3563D01*
X14021Y3564D01*
X14024Y3570D01*
X14027Y3576D01*
X14027Y3577D01*
X14027Y3578D01*
X14029Y3584D01*
X14031Y3591D01*
X14031Y3592D01*
X14031Y3593D01*
X14032Y3605D01*
X14032Y5244D01*
X14114Y5441D01*
X14264Y5591D01*
X14275Y5596D01*
X14276Y5596D01*
X14277Y5597D01*
X14283Y5600D01*
X14289Y5603D01*
X14290Y5604D01*
X14291Y5605D01*
X14296Y5609D01*
X14301Y5613D01*
X14302Y5614D01*
X14303Y5615D01*
X14307Y5620D01*
X14311Y5625D01*
X14311Y5627D01*
X14312Y5628D01*
X14318Y5638D01*
X14331Y5670D01*
X14409Y5748D01*
X14511Y5791D01*
X14622Y5791D01*
X14725Y5748D01*
X14803Y5670D01*
X14846Y5567D01*
X14846Y5456D01*
X14803Y5354D01*
X14725Y5275D01*
X14622Y5233D01*
X14511Y5233D01*
X14471Y5250D01*
X14470Y5250D01*
X14469Y5250D01*
X14463Y5252D01*
X14456Y5254D01*
X14455Y5254D01*
X14454Y5255D01*
X14447Y5255D01*
X14440Y5256D01*
X14439Y5256D01*
X14438Y5256D01*
X14431Y5255D01*
X14425Y5254D01*
X14424Y5254D01*
X14423Y5254D01*
X14416Y5251D01*
X14409Y5249D01*
X14408Y5249D01*
X14402Y5245D01*
X14396Y5242D01*
X14395Y5241D01*
X14394Y5241D01*
X14389Y5236D01*
X14384Y5231D01*
X14383Y5231D01*
X14382Y5230D01*
X14378Y5225D01*
X14374Y5219D01*
X14373Y5218D01*
X14373Y5217D01*
X14367Y5207D01*
X14362Y5194D01*
X14361Y5189D01*
X14359Y5183D01*
X14358Y5181D01*
X14358Y5179D01*
X14357Y5177D01*
X14357Y5172D01*
X14354Y5146D01*
X14354Y5143D01*
X14354Y5138D01*
X14354Y3605D01*
X14354Y3604D01*
X14354Y3603D01*
X14355Y3596D01*
X14355Y3589D01*
X14356Y3588D01*
X14356Y3587D01*
X14358Y3581D01*
X14360Y3574D01*
X14360Y3573D01*
X14361Y3572D01*
X14364Y3566D01*
X14367Y3560D01*
X14368Y3559D01*
X14369Y3559D01*
X14373Y3553D01*
X14378Y3548D01*
X14379Y3547D01*
X14384Y3543D01*
X14390Y3538D01*
X14391Y3538D01*
X14392Y3537D01*
X14398Y3534D01*
X14404Y3531D01*
X14405Y3531D01*
X14406Y3530D01*
X14412Y3529D01*
X14419Y3527D01*
X14420Y3527D01*
X14421Y3527D01*
X14433Y3526D01*
X14482Y3526D01*
X14511Y3497D01*
X14512Y3496D01*
X14518Y3491D01*
X14523Y3487D01*
X14524Y3487D01*
X14525Y3486D01*
X14531Y3483D01*
X14537Y3480D01*
X14538Y3479D01*
X14539Y3479D01*
X14546Y3477D01*
X14552Y3475D01*
X14553Y3475D01*
X14554Y3475D01*
X14561Y3474D01*
X14568Y3474D01*
X14569Y3474D01*
X14570Y3474D01*
X14577Y3475D01*
X14584Y3476D01*
X14585Y3476D01*
X14592Y3478D01*
X14599Y3480D01*
X14599Y3481D01*
X14600Y3481D01*
X14606Y3485D01*
X14612Y3488D01*
X14613Y3489D01*
X14614Y3489D01*
X14623Y3497D01*
X14652Y3526D01*
X14701Y3526D01*
X14702Y3526D01*
X14703Y3526D01*
X14710Y3527D01*
X14717Y3527D01*
X14718Y3527D01*
X14719Y3528D01*
X14725Y3530D01*
X14732Y3532D01*
X14733Y3532D01*
X14734Y3533D01*
X14740Y3536D01*
X14746Y3539D01*
X14746Y3540D01*
X14747Y3541D01*
X14752Y3545D01*
X14758Y3550D01*
X14759Y3551D01*
X14763Y3556D01*
X14768Y3562D01*
X14768Y3563D01*
X14769Y3564D01*
X14772Y3570D01*
X14775Y3576D01*
X14775Y3577D01*
X14775Y3578D01*
X14777Y3584D01*
X14779Y3591D01*
X14779Y3592D01*
X14779Y3593D01*
X14780Y3605D01*
X14780Y3638D01*
X14868Y3849D01*
X15029Y4010D01*
X15064Y4025D01*
X15065Y4025D01*
X15066Y4026D01*
X15072Y4029D01*
X15078Y4032D01*
X15079Y4033D01*
X15080Y4034D01*
X15085Y4038D01*
X15090Y4042D01*
X15091Y4043D01*
X15092Y4044D01*
X15096Y4049D01*
X15100Y4054D01*
X15100Y4056D01*
X15101Y4057D01*
X15107Y4068D01*
X15118Y4095D01*
X15196Y4173D01*
X15299Y4216D01*
X15410Y4216D01*
X15512Y4173D01*
X15591Y4095D01*
X15633Y3992D01*
X15633Y3882D01*
X15591Y3779D01*
X15512Y3701D01*
X15410Y3658D01*
X15289Y3658D01*
X15288Y3658D01*
X15281Y3657D01*
X15273Y3657D01*
X15273Y3656D01*
X15272Y3656D01*
X15265Y3654D01*
X15258Y3652D01*
X15257Y3652D01*
X15251Y3648D01*
X15244Y3644D01*
X15238Y3639D01*
X15232Y3634D01*
X15227Y3628D01*
X15223Y3622D01*
X15222Y3621D01*
X15219Y3614D01*
X15215Y3608D01*
X15215Y3607D01*
X15213Y3600D01*
X15211Y3593D01*
X15211Y3592D01*
X15210Y3584D01*
X15210Y3577D01*
X15210Y3576D01*
X15211Y3569D01*
X15212Y3561D01*
X15212Y3560D01*
X15214Y3553D01*
X15217Y3546D01*
X15217Y3545D01*
X15221Y3539D01*
X15225Y3533D01*
X15225Y3532D01*
X15233Y3523D01*
X15278Y3478D01*
X15278Y3390D01*
X15278Y3389D01*
X15278Y3388D01*
X15278Y3381D01*
X15279Y3374D01*
X15279Y3373D01*
X15280Y3372D01*
X15282Y3365D01*
X15284Y3359D01*
X15284Y3358D01*
X15285Y3357D01*
X15288Y3351D01*
X15291Y3345D01*
X15292Y3344D01*
X15292Y3343D01*
X15297Y3338D01*
X15302Y3333D01*
X15302Y3332D01*
X15303Y3332D01*
X15308Y3327D01*
X15314Y3323D01*
X15315Y3323D01*
X15316Y3322D01*
X15322Y3319D01*
X15328Y3316D01*
X15329Y3316D01*
X15330Y3315D01*
X15336Y3313D01*
X15343Y3312D01*
X15344Y3311D01*
X15345Y3311D01*
X15357Y3310D01*
X15746Y3310D01*
X15747Y3310D01*
X15754Y3311D01*
X15761Y3312D01*
X15762Y3312D01*
X15763Y3312D01*
X15770Y3315D01*
X15776Y3317D01*
X15777Y3317D01*
X15778Y3317D01*
X15784Y3321D01*
X15790Y3324D01*
X15791Y3325D01*
X15792Y3325D01*
X15797Y3330D01*
X15802Y3334D01*
X15803Y3335D01*
X15804Y3336D01*
X15808Y3341D01*
X15812Y3347D01*
X15813Y3347D01*
X15813Y3348D01*
X15816Y3354D01*
X15819Y3361D01*
X15820Y3362D01*
X15822Y3369D01*
X15824Y3376D01*
X15824Y3377D01*
X15824Y3378D01*
X15825Y3390D01*
X15825Y3478D01*
X15872Y3526D01*
X16451Y3526D01*
X16479Y3497D01*
X16480Y3496D01*
X16481Y3496D01*
X16486Y3491D01*
X16492Y3487D01*
X16493Y3486D01*
X16499Y3483D01*
X16506Y3480D01*
X16507Y3479D01*
X16514Y3477D01*
X16521Y3475D01*
X16522Y3475D01*
X16523Y3475D01*
X16529Y3474D01*
X16536Y3474D01*
X16537Y3474D01*
X16538Y3474D01*
X16545Y3475D01*
X16552Y3476D01*
X16553Y3476D01*
X16554Y3476D01*
X16561Y3478D01*
X16567Y3480D01*
X16568Y3481D01*
X16569Y3481D01*
X16575Y3485D01*
X16581Y3488D01*
X16582Y3489D01*
X16591Y3497D01*
X16620Y3526D01*
X16669Y3526D01*
X16670Y3526D01*
X16671Y3526D01*
X16678Y3527D01*
X16685Y3527D01*
X16686Y3527D01*
X16687Y3528D01*
X16694Y3530D01*
X16700Y3532D01*
X16701Y3532D01*
X16702Y3533D01*
X16708Y3536D01*
X16714Y3539D01*
X16715Y3540D01*
X16716Y3541D01*
X16721Y3545D01*
X16726Y3550D01*
X16727Y3550D01*
X16728Y3551D01*
X16732Y3556D01*
X16736Y3562D01*
X16736Y3563D01*
X16737Y3564D01*
X16740Y3570D01*
X16743Y3576D01*
X16743Y3577D01*
X16744Y3578D01*
X16746Y3584D01*
X16747Y3591D01*
X16748Y3592D01*
X16748Y3593D01*
X16749Y3605D01*
X16749Y4425D01*
X16836Y4636D01*
X16998Y4798D01*
X17032Y4812D01*
X17033Y4813D01*
X17035Y4813D01*
X17040Y4816D01*
X17046Y4820D01*
X17047Y4820D01*
X17048Y4821D01*
X17053Y4825D01*
X17058Y4830D01*
X17059Y4831D01*
X17060Y4832D01*
X17064Y4837D01*
X17068Y4842D01*
X17069Y4843D01*
X17070Y4844D01*
X17075Y4855D01*
X17086Y4882D01*
X17165Y4961D01*
X17267Y5003D01*
X17378Y5003D01*
X17481Y4961D01*
X17559Y4882D01*
X17602Y4780D01*
X17602Y4669D01*
X17559Y4566D01*
X17481Y4488D01*
X17378Y4446D01*
X17267Y4446D01*
X17205Y4471D01*
X17204Y4472D01*
X17203Y4472D01*
X17197Y4474D01*
X17190Y4476D01*
X17189Y4476D01*
X17188Y4476D01*
X17181Y4477D01*
X17174Y4477D01*
X17173Y4477D01*
X17172Y4477D01*
X17166Y4476D01*
X17159Y4476D01*
X17158Y4475D01*
X17157Y4475D01*
X17150Y4473D01*
X17144Y4471D01*
X17143Y4470D01*
X17142Y4470D01*
X17136Y4467D01*
X17130Y4463D01*
X17129Y4463D01*
X17128Y4462D01*
X17123Y4458D01*
X17118Y4453D01*
X17117Y4452D01*
X17116Y4452D01*
X17112Y4446D01*
X17108Y4441D01*
X17108Y4440D01*
X17107Y4439D01*
X17102Y4428D01*
X17080Y4375D01*
X17078Y4370D01*
X17076Y4364D01*
X17076Y4362D01*
X17075Y4360D01*
X17075Y4357D01*
X17074Y4353D01*
X17071Y4319D01*
X17071Y4316D01*
X17070Y4311D01*
X17070Y3605D01*
X17070Y3604D01*
X17070Y3603D01*
X17071Y3596D01*
X17072Y3589D01*
X17072Y3588D01*
X17072Y3587D01*
X17074Y3581D01*
X17076Y3574D01*
X17077Y3573D01*
X17077Y3572D01*
X17081Y3566D01*
X17084Y3560D01*
X17085Y3559D01*
X17090Y3553D01*
X17094Y3548D01*
X17095Y3548D01*
X17096Y3547D01*
X17101Y3543D01*
X17106Y3538D01*
X17107Y3538D01*
X17108Y3537D01*
X17114Y3534D01*
X17120Y3531D01*
X17121Y3531D01*
X17122Y3530D01*
X17129Y3529D01*
X17136Y3527D01*
X17137Y3527D01*
X17138Y3527D01*
X17149Y3526D01*
X17199Y3526D01*
X17246Y3478D01*
X17246Y3246D01*
X17246Y3245D01*
X17246Y3244D01*
X17247Y3237D01*
X17248Y3230D01*
X17248Y3229D01*
X17248Y3228D01*
X17250Y3222D01*
X17252Y3215D01*
X17253Y3214D01*
X17253Y3213D01*
X17257Y3207D01*
X17260Y3201D01*
X17261Y3201D01*
X17261Y3200D01*
X17266Y3194D01*
X17270Y3189D01*
X17271Y3189D01*
X17271Y3188D01*
X17277Y3184D01*
X17282Y3179D01*
X17283Y3179D01*
X17284Y3178D01*
X17290Y3175D01*
X17296Y3172D01*
X17297Y3172D01*
X17298Y3171D01*
X17305Y3170D01*
X17312Y3168D01*
X17313Y3168D01*
X17314Y3168D01*
X17325Y3167D01*
X17875Y3167D01*
X17877Y3167D01*
X17878Y3167D01*
X17884Y3168D01*
X17891Y3168D01*
X17892Y3169D01*
X17894Y3169D01*
X17900Y3171D01*
X17906Y3173D01*
X17907Y3174D01*
X17909Y3174D01*
X17914Y3177D01*
X17920Y3180D01*
X17921Y3181D01*
X17922Y3182D01*
X17931Y3190D01*
X17941Y3200D01*
X17942Y3201D01*
X17947Y3207D01*
X17951Y3212D01*
X17952Y3213D01*
X17952Y3214D01*
X17955Y3220D01*
X17958Y3226D01*
X17959Y3227D01*
X17959Y3228D01*
X17961Y3235D01*
X17963Y3241D01*
X17963Y3242D01*
X17963Y3243D01*
X17964Y3250D01*
X17964Y3257D01*
X17964Y3258D01*
X17964Y3259D01*
X17963Y3266D01*
X17963Y3273D01*
X17962Y3274D01*
X17960Y3281D01*
X17958Y3288D01*
X17957Y3288D01*
X17957Y3289D01*
X17953Y3295D01*
X17950Y3301D01*
X17949Y3302D01*
X17949Y3303D01*
X17941Y3312D01*
X17889Y3364D01*
X17889Y3366D01*
X17889Y3367D01*
X17888Y3368D01*
X17886Y3374D01*
X17884Y3381D01*
X17884Y3382D01*
X17883Y3383D01*
X17880Y3389D01*
X17877Y3395D01*
X17876Y3395D01*
X17875Y3397D01*
X17871Y3402D01*
X17867Y3407D01*
X17866Y3407D01*
X17865Y3408D01*
X17860Y3412D01*
X17854Y3416D01*
X17853Y3417D01*
X17852Y3418D01*
X17842Y3423D01*
X17812Y3435D01*
X17646Y3602D01*
X17627Y3647D01*
X17626Y3648D01*
X17626Y3650D01*
X17623Y3655D01*
X17620Y3661D01*
X17619Y3662D01*
X17618Y3663D01*
X17614Y3668D01*
X17610Y3673D01*
X17608Y3674D01*
X17607Y3675D01*
X17602Y3679D01*
X17597Y3683D01*
X17596Y3684D01*
X17595Y3685D01*
X17584Y3690D01*
X17559Y3701D01*
X17480Y3779D01*
X17438Y3882D01*
X17438Y3992D01*
X17480Y4095D01*
X17559Y4173D01*
X17661Y4216D01*
X17772Y4216D01*
X17874Y4173D01*
X17953Y4095D01*
X17995Y3992D01*
X17995Y3882D01*
X17966Y3811D01*
X17966Y3809D01*
X17965Y3808D01*
X17963Y3802D01*
X17961Y3796D01*
X17961Y3794D01*
X17961Y3793D01*
X17961Y3786D01*
X17960Y3780D01*
X17960Y3779D01*
X17960Y3777D01*
X17961Y3771D01*
X17962Y3764D01*
X17962Y3763D01*
X17962Y3762D01*
X17964Y3755D01*
X17966Y3749D01*
X17967Y3748D01*
X17967Y3747D01*
X17971Y3741D01*
X17974Y3735D01*
X17975Y3734D01*
X17975Y3733D01*
X17983Y3724D01*
X17985Y3722D01*
X17987Y3721D01*
X17988Y3720D01*
X17993Y3716D01*
X17998Y3712D01*
X17999Y3711D01*
X18001Y3710D01*
X18011Y3705D01*
X18016Y3703D01*
X18018Y3702D01*
X18020Y3701D01*
X18026Y3700D01*
X18032Y3698D01*
X18033Y3698D01*
X18035Y3698D01*
X18047Y3697D01*
X18785Y3697D01*
X18832Y3649D01*
X18832Y3362D01*
X18782Y3312D01*
X18781Y3311D01*
X18780Y3311D01*
X18776Y3305D01*
X18772Y3300D01*
X18771Y3299D01*
X18771Y3298D01*
X18767Y3292D01*
X18764Y3286D01*
X18764Y3285D01*
X18763Y3284D01*
X18762Y3277D01*
X18760Y3271D01*
X18760Y3270D01*
X18759Y3269D01*
X18759Y3262D01*
X18758Y3255D01*
X18758Y3254D01*
X18758Y3253D01*
X18759Y3246D01*
X18760Y3239D01*
X18760Y3238D01*
X18761Y3237D01*
X18763Y3231D01*
X18765Y3224D01*
X18765Y3223D01*
X18766Y3222D01*
X18769Y3216D01*
X18773Y3210D01*
X18774Y3209D01*
X18782Y3200D01*
X18832Y3149D01*
X18832Y2862D01*
X18782Y2812D01*
X18781Y2811D01*
X18780Y2811D01*
X18776Y2805D01*
X18772Y2800D01*
X18771Y2799D01*
X18771Y2798D01*
X18767Y2792D01*
X18764Y2786D01*
X18764Y2785D01*
X18763Y2784D01*
X18762Y2777D01*
X18760Y2771D01*
X18760Y2770D01*
X18759Y2769D01*
X18759Y2762D01*
X18758Y2755D01*
X18758Y2754D01*
X18758Y2753D01*
X18759Y2746D01*
X18760Y2739D01*
X18760Y2738D01*
X18761Y2737D01*
X18763Y2731D01*
X18765Y2724D01*
X18765Y2723D01*
X18766Y2722D01*
X18769Y2716D01*
X18773Y2710D01*
X18774Y2709D01*
X18782Y2700D01*
X18832Y2649D01*
X18832Y2362D01*
X18782Y2312D01*
X18781Y2311D01*
X18780Y2311D01*
X18776Y2305D01*
X18772Y2300D01*
X18771Y2299D01*
X18771Y2298D01*
X18767Y2292D01*
X18764Y2286D01*
X18764Y2285D01*
X18763Y2284D01*
X18762Y2277D01*
X18760Y2271D01*
X18760Y2270D01*
X18759Y2269D01*
X18759Y2262D01*
X18758Y2255D01*
X18758Y2254D01*
X18758Y2253D01*
X18759Y2246D01*
X18760Y2239D01*
X18760Y2238D01*
X18761Y2237D01*
X18763Y2231D01*
X18765Y2224D01*
X18765Y2223D01*
X18766Y2222D01*
X18769Y2216D01*
X18773Y2210D01*
X18774Y2209D01*
X18782Y2200D01*
X18832Y2149D01*
X18832Y1861D01*
X18830Y1859D01*
X18830Y1858D01*
X18827Y1851D01*
X18823Y1845D01*
X18823Y1844D01*
X18821Y1837D01*
X18819Y1830D01*
X18819Y1829D01*
X18818Y1829D01*
X18818Y1821D01*
X18817Y1814D01*
X18817Y1813D01*
X18818Y1806D01*
X18819Y1798D01*
X18819Y1797D01*
X18822Y1790D01*
X18824Y1783D01*
X18824Y1782D01*
X18828Y1776D01*
X18832Y1769D01*
X18837Y1763D01*
X18842Y1757D01*
X18843Y1757D01*
X18848Y1752D01*
X18854Y1748D01*
X18855Y1747D01*
X18862Y1744D01*
X18868Y1741D01*
X18869Y1741D01*
X18869Y1740D01*
X18877Y1739D01*
X18884Y1737D01*
X18885Y1736D01*
X18897Y1736D01*
X19670Y1736D01*
X19676Y1736D01*
X19682Y1736D01*
X19684Y1737D01*
X19686Y1737D01*
X19692Y1739D01*
X19697Y1740D01*
X19699Y1741D01*
X19701Y1742D01*
X19706Y1745D01*
X19712Y1747D01*
X19713Y1748D01*
X19715Y1749D01*
X19719Y1753D01*
X19724Y1757D01*
X19726Y1758D01*
X19727Y1759D01*
X19731Y1764D01*
X19735Y1769D01*
X19736Y1770D01*
X19737Y1772D01*
X19740Y1777D01*
X19743Y1782D01*
X19743Y1784D01*
X19744Y1786D01*
X19746Y1792D01*
X19748Y1797D01*
X19748Y1799D01*
X19748Y1801D01*
X19749Y1807D01*
X19750Y1813D01*
X19749Y1815D01*
X19750Y1817D01*
X19749Y1823D01*
X19748Y1829D01*
X19748Y1830D01*
X19748Y1832D01*
X19746Y1838D01*
X19744Y1844D01*
X19743Y1846D01*
X19743Y1847D01*
X19741Y1850D01*
X19739Y1854D01*
X19737Y1857D01*
X19731Y1883D01*
X19731Y1927D01*
X20221Y1927D01*
X20712Y1927D01*
X20712Y1883D01*
X20705Y1857D01*
X20704Y1854D01*
X20701Y1849D01*
X20699Y1844D01*
X20698Y1842D01*
X20697Y1840D01*
X20696Y1834D01*
X20694Y1829D01*
X20694Y1827D01*
X20694Y1825D01*
X20694Y1819D01*
X20693Y1813D01*
X20693Y1811D01*
X20693Y1809D01*
X20694Y1803D01*
X20695Y1797D01*
X20696Y1795D01*
X20696Y1793D01*
X20698Y1788D01*
X20700Y1782D01*
X20701Y1781D01*
X20702Y1779D01*
X20705Y1774D01*
X20708Y1769D01*
X20709Y1767D01*
X20710Y1765D01*
X20715Y1761D01*
X20718Y1757D01*
X20720Y1756D01*
X20721Y1754D01*
X20726Y1751D01*
X20731Y1747D01*
X20733Y1746D01*
X20734Y1745D01*
X20740Y1743D01*
X20745Y1740D01*
X20747Y1740D01*
X20749Y1739D01*
X20755Y1738D01*
X20761Y1736D01*
X20763Y1736D01*
X20764Y1736D01*
X20767Y1736D01*
X20772Y1736D01*
X21260Y1736D01*
X21262Y1736D01*
X21268Y1736D01*
X21298Y1739D01*
X21303Y1740D01*
X21309Y1741D01*
X21311Y1742D01*
X21313Y1742D01*
X21315Y1743D01*
X21320Y1745D01*
X21376Y1767D01*
X21377Y1768D01*
X21379Y1769D01*
X21384Y1772D01*
X21389Y1775D01*
X21391Y1776D01*
X21392Y1777D01*
X21401Y1785D01*
X21444Y1827D01*
X21445Y1828D01*
X21446Y1830D01*
X21450Y1834D01*
X21454Y1839D01*
X21454Y1841D01*
X21456Y1842D01*
X21461Y1853D01*
X21484Y1908D01*
X21485Y1914D01*
X21487Y1919D01*
X21488Y1922D01*
X21488Y1923D01*
X21489Y1926D01*
X21489Y1931D01*
X21492Y1961D01*
X21492Y1963D01*
X21493Y1969D01*
X21493Y5906D01*
X21493Y5908D01*
X21492Y5913D01*
X21489Y5943D01*
X21488Y5949D01*
X21488Y5955D01*
X21487Y5957D01*
X21486Y5959D01*
X21485Y5961D01*
X21484Y5966D01*
X21461Y6021D01*
X21460Y6023D01*
X21459Y6024D01*
X21456Y6030D01*
X21453Y6035D01*
X21452Y6036D01*
X21451Y6038D01*
X21444Y6047D01*
X21401Y6089D01*
X21400Y6090D01*
X21399Y6092D01*
X21394Y6095D01*
X21389Y6099D01*
X21388Y6100D01*
X21386Y6101D01*
X21376Y6107D01*
X21320Y6129D01*
X21315Y6131D01*
X21309Y6133D01*
X21307Y6134D01*
X21305Y6134D01*
X21302Y6134D01*
X21298Y6135D01*
X21268Y6138D01*
X21265Y6138D01*
X21260Y6138D01*
X18666Y6138D01*
X18217Y6259D01*
X17815Y6491D01*
X17487Y6819D01*
X17255Y7221D01*
X17135Y7669D01*
X17135Y19094D01*
X17134Y19095D01*
X17135Y19096D01*
X17134Y19103D01*
X17133Y19110D01*
X17133Y19111D01*
X17133Y19112D01*
X17130Y19118D01*
X17128Y19125D01*
X17128Y19126D01*
X17128Y19127D01*
X17124Y19133D01*
X17121Y19139D01*
X17120Y19139D01*
X17120Y19140D01*
X17115Y19145D01*
X17111Y19151D01*
X17110Y19151D01*
X17109Y19152D01*
X17104Y19156D01*
X17098Y19161D01*
X17097Y19161D01*
X17097Y19162D01*
X17090Y19165D01*
X17084Y19168D01*
X17083Y19168D01*
X17082Y19168D01*
X17076Y19170D01*
X17069Y19172D01*
X17068Y19172D01*
X17067Y19172D01*
X17055Y19173D01*
X17012Y19173D01*
X16965Y19220D01*
X16965Y19905D01*
X17012Y19953D01*
X17579Y19953D01*
X17626Y19905D01*
X17626Y19220D01*
X17579Y19173D01*
X17535Y19173D01*
X17534Y19173D01*
X17533Y19173D01*
X17526Y19172D01*
X17520Y19172D01*
X17519Y19171D01*
X17518Y19171D01*
X17511Y19169D01*
X17504Y19167D01*
X17504Y19166D01*
X17503Y19166D01*
X17497Y19163D01*
X17491Y19159D01*
X17490Y19159D01*
X17489Y19158D01*
X17484Y19154D01*
X17479Y19149D01*
X17478Y19149D01*
X17477Y19148D01*
X17473Y19142D01*
X17469Y19137D01*
X17468Y19136D01*
X17468Y19135D01*
X17465Y19129D01*
X17462Y19123D01*
X17461Y19122D01*
X17461Y19121D01*
X17459Y19114D01*
X17457Y19108D01*
X17457Y19107D01*
X17457Y19106D01*
X17456Y19094D01*
X17456Y7902D01*
X17456Y7900D01*
X17456Y7896D01*
X17468Y7719D01*
X17468Y7717D01*
X17468Y7715D01*
X17470Y7703D01*
X17562Y7360D01*
X17564Y7356D01*
X17565Y7351D01*
X17567Y7347D01*
X17568Y7345D01*
X17569Y7343D01*
X17570Y7341D01*
X17748Y7033D01*
X17751Y7029D01*
X17753Y7025D01*
X17756Y7022D01*
X17757Y7020D01*
X17759Y7018D01*
X17761Y7016D01*
X18012Y6765D01*
X18016Y6762D01*
X18019Y6759D01*
X18023Y6756D01*
X18024Y6755D01*
X18026Y6754D01*
X18028Y6752D01*
X18029Y6752D01*
X18337Y6574D01*
X18341Y6572D01*
X18345Y6570D01*
X18349Y6569D01*
X18351Y6568D01*
X18353Y6567D01*
X18356Y6566D01*
X18699Y6474D01*
X18701Y6474D01*
X18703Y6473D01*
X18715Y6472D01*
X18892Y6460D01*
X18894Y6460D01*
X18898Y6460D01*
X21370Y6460D01*
X21574Y6376D01*
X21730Y6220D01*
X21814Y6016D01*
X21814Y1858D01*
X21730Y1654D01*
X21574Y1498D01*
X21370Y1414D01*
X11185Y1414D01*
G37*
%LPD*%
%LPC*%
G36*
X14684Y10711D02*
X14684Y10711D01*
X14444Y10952D01*
X14444Y11292D01*
X14630Y11479D01*
X14631Y11480D01*
X14632Y11481D01*
X14636Y11486D01*
X14640Y11491D01*
X14641Y11492D01*
X14642Y11494D01*
X14645Y11499D01*
X14648Y11505D01*
X14648Y11507D01*
X14649Y11508D01*
X14650Y11514D01*
X14652Y11520D01*
X14652Y11522D01*
X14653Y11523D01*
X14654Y11535D01*
X14654Y16195D01*
X14760Y16452D01*
X14955Y16647D01*
X14956Y16648D01*
X14957Y16649D01*
X14961Y16654D01*
X14965Y16659D01*
X14966Y16660D01*
X14967Y16662D01*
X14969Y16667D01*
X14972Y16673D01*
X14973Y16674D01*
X14974Y16676D01*
X14975Y16682D01*
X14977Y16688D01*
X14977Y16690D01*
X14977Y16691D01*
X14978Y16703D01*
X14978Y16844D01*
X15007Y16873D01*
X15008Y16874D01*
X15013Y16880D01*
X15017Y16885D01*
X15017Y16886D01*
X15018Y16887D01*
X15021Y16893D01*
X15024Y16899D01*
X15025Y16900D01*
X15025Y16901D01*
X15027Y16908D01*
X15029Y16914D01*
X15029Y16915D01*
X15029Y16916D01*
X15030Y16923D01*
X15030Y16930D01*
X15030Y16931D01*
X15030Y16932D01*
X15029Y16939D01*
X15028Y16946D01*
X15028Y16947D01*
X15028Y16948D01*
X15026Y16954D01*
X15024Y16961D01*
X15023Y16962D01*
X15023Y16963D01*
X15019Y16969D01*
X15016Y16975D01*
X15015Y16975D01*
X15015Y16976D01*
X15007Y16985D01*
X14978Y17014D01*
X14978Y17043D01*
X14978Y17044D01*
X14978Y17045D01*
X14977Y17052D01*
X14977Y17059D01*
X14976Y17059D01*
X14976Y17060D01*
X14974Y17067D01*
X14972Y17074D01*
X14971Y17075D01*
X14968Y17081D01*
X14965Y17087D01*
X14964Y17088D01*
X14963Y17089D01*
X14959Y17094D01*
X14954Y17100D01*
X14953Y17101D01*
X14947Y17105D01*
X14942Y17109D01*
X14941Y17110D01*
X14940Y17110D01*
X14934Y17113D01*
X14928Y17117D01*
X14927Y17117D01*
X14926Y17117D01*
X14920Y17119D01*
X14913Y17121D01*
X14912Y17121D01*
X14911Y17121D01*
X14899Y17122D01*
X13219Y17122D01*
X13217Y17122D01*
X13216Y17122D01*
X13209Y17121D01*
X13203Y17121D01*
X13201Y17120D01*
X13200Y17120D01*
X13194Y17118D01*
X13188Y17116D01*
X13186Y17115D01*
X13185Y17115D01*
X13180Y17111D01*
X13174Y17108D01*
X13173Y17107D01*
X13172Y17107D01*
X13163Y17099D01*
X13150Y17086D01*
X13048Y17044D01*
X12937Y17044D01*
X12834Y17086D01*
X12756Y17165D01*
X12713Y17267D01*
X12713Y17378D01*
X12756Y17481D01*
X12834Y17559D01*
X12937Y17602D01*
X13048Y17602D01*
X13150Y17559D01*
X13163Y17547D01*
X13164Y17546D01*
X13165Y17545D01*
X13170Y17541D01*
X13175Y17537D01*
X13176Y17536D01*
X13177Y17535D01*
X13183Y17532D01*
X13189Y17529D01*
X13190Y17529D01*
X13191Y17528D01*
X13198Y17527D01*
X13204Y17525D01*
X13205Y17525D01*
X13207Y17524D01*
X13219Y17524D01*
X14899Y17524D01*
X14900Y17524D01*
X14901Y17524D01*
X14908Y17524D01*
X14915Y17525D01*
X14916Y17525D01*
X14917Y17526D01*
X14923Y17528D01*
X14930Y17530D01*
X14931Y17530D01*
X14932Y17531D01*
X14938Y17534D01*
X14944Y17537D01*
X14944Y17538D01*
X14945Y17538D01*
X14950Y17543D01*
X14956Y17547D01*
X14956Y17548D01*
X14957Y17549D01*
X14961Y17554D01*
X14966Y17560D01*
X14966Y17561D01*
X14967Y17561D01*
X14970Y17568D01*
X14973Y17574D01*
X14973Y17575D01*
X14974Y17576D01*
X14975Y17582D01*
X14977Y17589D01*
X14977Y17590D01*
X14977Y17591D01*
X14977Y17592D01*
X15026Y17640D01*
X15683Y17640D01*
X15730Y17593D01*
X15730Y17457D01*
X15730Y17456D01*
X15731Y17449D01*
X15732Y17441D01*
X15734Y17433D01*
X15737Y17426D01*
X15740Y17419D01*
X15744Y17412D01*
X15749Y17406D01*
X15754Y17400D01*
X15755Y17400D01*
X15761Y17395D01*
X15767Y17390D01*
X15774Y17387D01*
X15781Y17383D01*
X15788Y17381D01*
X15796Y17379D01*
X15804Y17378D01*
X15812Y17378D01*
X15820Y17379D01*
X15827Y17380D01*
X15828Y17380D01*
X15835Y17382D01*
X15842Y17385D01*
X15843Y17385D01*
X15849Y17389D01*
X15856Y17392D01*
X15856Y17393D01*
X15862Y17398D01*
X15868Y17403D01*
X15873Y17409D01*
X15877Y17415D01*
X15877Y17416D01*
X15883Y17426D01*
X15905Y17481D01*
X15958Y17533D01*
X15959Y17534D01*
X15960Y17535D01*
X15964Y17540D01*
X15968Y17545D01*
X15968Y17547D01*
X15969Y17548D01*
X15972Y17554D01*
X15975Y17559D01*
X15976Y17561D01*
X15976Y17562D01*
X15978Y17568D01*
X15980Y17575D01*
X15980Y17576D01*
X15980Y17577D01*
X15981Y17589D01*
X15981Y19171D01*
X15981Y19173D01*
X15981Y19174D01*
X15980Y19180D01*
X15979Y19187D01*
X15979Y19188D01*
X15979Y19190D01*
X15977Y19196D01*
X15975Y19202D01*
X15974Y19203D01*
X15974Y19205D01*
X15970Y19210D01*
X15967Y19216D01*
X15966Y19217D01*
X15966Y19218D01*
X15965Y19219D01*
X15965Y19905D01*
X16012Y19953D01*
X16579Y19953D01*
X16626Y19905D01*
X16626Y19220D01*
X16579Y19173D01*
X16382Y19173D01*
X16381Y19173D01*
X16380Y19173D01*
X16373Y19172D01*
X16366Y19172D01*
X16365Y19171D01*
X16364Y19171D01*
X16358Y19169D01*
X16351Y19167D01*
X16350Y19166D01*
X16349Y19166D01*
X16343Y19163D01*
X16337Y19159D01*
X16336Y19159D01*
X16335Y19158D01*
X16330Y19154D01*
X16325Y19149D01*
X16324Y19149D01*
X16324Y19148D01*
X16319Y19142D01*
X16315Y19137D01*
X16315Y19136D01*
X16314Y19135D01*
X16311Y19129D01*
X16308Y19123D01*
X16308Y19122D01*
X16307Y19121D01*
X16306Y19114D01*
X16304Y19108D01*
X16304Y19107D01*
X16303Y19106D01*
X16302Y19094D01*
X16302Y17589D01*
X16303Y17588D01*
X16303Y17586D01*
X16303Y17580D01*
X16304Y17574D01*
X16304Y17572D01*
X16305Y17571D01*
X16307Y17565D01*
X16309Y17558D01*
X16309Y17557D01*
X16310Y17556D01*
X16313Y17550D01*
X16316Y17545D01*
X16317Y17544D01*
X16318Y17542D01*
X16326Y17533D01*
X16378Y17481D01*
X16421Y17378D01*
X16421Y17267D01*
X16378Y17165D01*
X16300Y17086D01*
X16197Y17044D01*
X16086Y17044D01*
X15984Y17086D01*
X15905Y17165D01*
X15883Y17219D01*
X15883Y17220D01*
X15879Y17226D01*
X15875Y17233D01*
X15875Y17234D01*
X15870Y17239D01*
X15865Y17245D01*
X15865Y17246D01*
X15859Y17250D01*
X15853Y17255D01*
X15846Y17259D01*
X15839Y17262D01*
X15839Y17263D01*
X15831Y17265D01*
X15824Y17267D01*
X15823Y17267D01*
X15816Y17268D01*
X15808Y17268D01*
X15800Y17267D01*
X15792Y17266D01*
X15785Y17264D01*
X15777Y17261D01*
X15770Y17257D01*
X15764Y17254D01*
X15764Y17253D01*
X15763Y17253D01*
X15758Y17248D01*
X15752Y17243D01*
X15747Y17237D01*
X15742Y17231D01*
X15742Y17230D01*
X15739Y17223D01*
X15735Y17216D01*
X15733Y17209D01*
X15731Y17201D01*
X15730Y17189D01*
X15730Y17014D01*
X15702Y16985D01*
X15701Y16984D01*
X15700Y16984D01*
X15696Y16978D01*
X15692Y16973D01*
X15691Y16972D01*
X15691Y16971D01*
X15688Y16965D01*
X15684Y16959D01*
X15684Y16958D01*
X15684Y16957D01*
X15682Y16951D01*
X15680Y16944D01*
X15680Y16943D01*
X15680Y16942D01*
X15679Y16935D01*
X15679Y16928D01*
X15679Y16927D01*
X15679Y16926D01*
X15680Y16919D01*
X15680Y16912D01*
X15681Y16912D01*
X15681Y16911D01*
X15683Y16904D01*
X15685Y16897D01*
X15686Y16897D01*
X15686Y16896D01*
X15689Y16890D01*
X15693Y16884D01*
X15693Y16883D01*
X15694Y16882D01*
X15702Y16873D01*
X15730Y16844D01*
X15730Y16266D01*
X15683Y16218D01*
X15156Y16218D01*
X15154Y16218D01*
X15153Y16218D01*
X15147Y16218D01*
X15140Y16217D01*
X15139Y16217D01*
X15138Y16216D01*
X15131Y16214D01*
X15125Y16212D01*
X15124Y16212D01*
X15123Y16211D01*
X15117Y16208D01*
X15111Y16205D01*
X15110Y16204D01*
X15109Y16203D01*
X15104Y16199D01*
X15099Y16195D01*
X15098Y16194D01*
X15097Y16193D01*
X15093Y16187D01*
X15089Y16182D01*
X15088Y16181D01*
X15088Y16180D01*
X15082Y16170D01*
X15065Y16128D01*
X15064Y16123D01*
X15062Y16118D01*
X15061Y16115D01*
X15061Y16113D01*
X15061Y16111D01*
X15060Y16106D01*
X15055Y16063D01*
X15055Y16060D01*
X15055Y16055D01*
X15055Y11535D01*
X15055Y11534D01*
X15055Y11532D01*
X15056Y11526D01*
X15057Y11519D01*
X15057Y11518D01*
X15057Y11516D01*
X15059Y11510D01*
X15061Y11504D01*
X15062Y11503D01*
X15062Y11502D01*
X15066Y11496D01*
X15069Y11490D01*
X15070Y11489D01*
X15071Y11488D01*
X15078Y11479D01*
X15265Y11292D01*
X15265Y10952D01*
X15024Y10711D01*
X14684Y10711D01*
G37*
%LPD*%
%LPC*%
G36*
X8779Y10711D02*
X8779Y10711D01*
X8538Y10952D01*
X8538Y11292D01*
X8725Y11479D01*
X8726Y11480D01*
X8727Y11481D01*
X8731Y11486D01*
X8735Y11491D01*
X8736Y11492D01*
X8736Y11494D01*
X8739Y11499D01*
X8742Y11505D01*
X8743Y11507D01*
X8743Y11508D01*
X8745Y11514D01*
X8747Y11520D01*
X8747Y11522D01*
X8747Y11523D01*
X8748Y11535D01*
X8748Y16195D01*
X8855Y16452D01*
X9050Y16647D01*
X9051Y16648D01*
X9052Y16649D01*
X9055Y16654D01*
X9060Y16659D01*
X9060Y16660D01*
X9061Y16662D01*
X9064Y16667D01*
X9067Y16673D01*
X9067Y16674D01*
X9068Y16676D01*
X9070Y16682D01*
X9071Y16688D01*
X9072Y16690D01*
X9072Y16691D01*
X9073Y16703D01*
X9073Y16844D01*
X9101Y16873D01*
X9102Y16874D01*
X9103Y16874D01*
X9107Y16880D01*
X9111Y16885D01*
X9112Y16886D01*
X9112Y16887D01*
X9116Y16893D01*
X9119Y16899D01*
X9119Y16900D01*
X9119Y16901D01*
X9121Y16908D01*
X9123Y16914D01*
X9123Y16915D01*
X9124Y16916D01*
X9124Y16923D01*
X9125Y16930D01*
X9125Y16931D01*
X9125Y16932D01*
X9124Y16939D01*
X9123Y16946D01*
X9123Y16947D01*
X9122Y16948D01*
X9120Y16954D01*
X9118Y16961D01*
X9118Y16962D01*
X9117Y16963D01*
X9114Y16969D01*
X9110Y16975D01*
X9109Y16976D01*
X9101Y16985D01*
X9073Y17014D01*
X9073Y17593D01*
X9120Y17640D01*
X9298Y17640D01*
X9299Y17640D01*
X9300Y17640D01*
X9307Y17641D01*
X9313Y17641D01*
X9315Y17642D01*
X9316Y17642D01*
X9322Y17644D01*
X9328Y17646D01*
X9330Y17647D01*
X9331Y17647D01*
X9337Y17650D01*
X9342Y17654D01*
X9343Y17655D01*
X9345Y17655D01*
X9354Y17663D01*
X9514Y17824D01*
X9740Y17917D01*
X10403Y17917D01*
X10405Y17917D01*
X10406Y17917D01*
X10413Y17918D01*
X10419Y17919D01*
X10421Y17919D01*
X10422Y17919D01*
X10428Y17922D01*
X10434Y17924D01*
X10436Y17924D01*
X10437Y17925D01*
X10442Y17928D01*
X10448Y17931D01*
X10449Y17932D01*
X10451Y17933D01*
X10460Y17940D01*
X10472Y17953D01*
X10574Y17995D01*
X10685Y17995D01*
X10788Y17953D01*
X10866Y17874D01*
X10909Y17772D01*
X10909Y17661D01*
X10866Y17559D01*
X10788Y17480D01*
X10685Y17438D01*
X10574Y17438D01*
X10472Y17480D01*
X10460Y17493D01*
X10458Y17494D01*
X10457Y17495D01*
X10452Y17498D01*
X10447Y17503D01*
X10446Y17503D01*
X10445Y17504D01*
X10439Y17507D01*
X10433Y17510D01*
X10432Y17510D01*
X10431Y17511D01*
X10424Y17513D01*
X10418Y17514D01*
X10417Y17515D01*
X10415Y17515D01*
X10403Y17516D01*
X9904Y17516D01*
X9903Y17516D01*
X9902Y17516D01*
X9895Y17515D01*
X9888Y17514D01*
X9887Y17514D01*
X9886Y17514D01*
X9880Y17512D01*
X9873Y17510D01*
X9872Y17509D01*
X9866Y17505D01*
X9859Y17502D01*
X9859Y17501D01*
X9858Y17501D01*
X9853Y17496D01*
X9847Y17492D01*
X9847Y17491D01*
X9846Y17490D01*
X9842Y17485D01*
X9838Y17480D01*
X9837Y17479D01*
X9836Y17478D01*
X9833Y17472D01*
X9830Y17466D01*
X9830Y17465D01*
X9830Y17464D01*
X9828Y17457D01*
X9826Y17450D01*
X9826Y17449D01*
X9826Y17448D01*
X9825Y17437D01*
X9825Y17014D01*
X9796Y16985D01*
X9796Y16984D01*
X9795Y16984D01*
X9791Y16978D01*
X9786Y16973D01*
X9786Y16972D01*
X9785Y16971D01*
X9782Y16965D01*
X9779Y16959D01*
X9779Y16958D01*
X9778Y16957D01*
X9776Y16951D01*
X9774Y16944D01*
X9774Y16943D01*
X9774Y16942D01*
X9774Y16935D01*
X9773Y16928D01*
X9773Y16927D01*
X9773Y16926D01*
X9774Y16919D01*
X9775Y16912D01*
X9775Y16911D01*
X9777Y16904D01*
X9780Y16897D01*
X9780Y16896D01*
X9784Y16890D01*
X9787Y16884D01*
X9788Y16883D01*
X9788Y16882D01*
X9796Y16873D01*
X9825Y16844D01*
X9825Y16266D01*
X9778Y16218D01*
X9250Y16218D01*
X9249Y16218D01*
X9248Y16218D01*
X9241Y16218D01*
X9234Y16217D01*
X9233Y16217D01*
X9232Y16216D01*
X9226Y16214D01*
X9219Y16212D01*
X9218Y16212D01*
X9217Y16211D01*
X9211Y16208D01*
X9205Y16205D01*
X9205Y16204D01*
X9203Y16203D01*
X9198Y16199D01*
X9193Y16195D01*
X9193Y16194D01*
X9192Y16193D01*
X9188Y16187D01*
X9184Y16182D01*
X9183Y16181D01*
X9182Y16180D01*
X9177Y16170D01*
X9160Y16128D01*
X9158Y16123D01*
X9156Y16118D01*
X9156Y16115D01*
X9155Y16113D01*
X9155Y16111D01*
X9154Y16106D01*
X9150Y16063D01*
X9150Y16060D01*
X9150Y16055D01*
X9150Y11535D01*
X9150Y11534D01*
X9150Y11532D01*
X9150Y11526D01*
X9151Y11519D01*
X9152Y11518D01*
X9152Y11516D01*
X9154Y11510D01*
X9156Y11504D01*
X9156Y11503D01*
X9157Y11502D01*
X9160Y11496D01*
X9163Y11490D01*
X9164Y11489D01*
X9165Y11488D01*
X9173Y11479D01*
X9360Y11292D01*
X9360Y10952D01*
X9119Y10711D01*
X8779Y10711D01*
G37*
%LPD*%
%LPC*%
G36*
X22547Y12796D02*
X22547Y12796D01*
X22388Y12862D01*
X22266Y12984D01*
X22200Y13143D01*
X22200Y14021D01*
X22266Y14180D01*
X22388Y14302D01*
X22547Y14368D01*
X22720Y14368D01*
X22879Y14302D01*
X23001Y14180D01*
X23067Y14021D01*
X23067Y13143D01*
X23001Y12984D01*
X22879Y12862D01*
X22720Y12796D01*
X22547Y12796D01*
G37*
%LPD*%
%LPC*%
G36*
X22547Y7876D02*
X22547Y7876D01*
X22388Y7942D01*
X22266Y8064D01*
X22200Y8223D01*
X22200Y9101D01*
X22266Y9260D01*
X22388Y9382D01*
X22547Y9448D01*
X22720Y9448D01*
X22879Y9382D01*
X23001Y9260D01*
X23067Y9101D01*
X23067Y8223D01*
X23001Y8064D01*
X22879Y7942D01*
X22720Y7876D01*
X22547Y7876D01*
G37*
%LPD*%
%LPC*%
G36*
X21012Y19173D02*
X21012Y19173D01*
X20965Y19220D01*
X20965Y19905D01*
X21012Y19953D01*
X21579Y19953D01*
X21626Y19905D01*
X21626Y19220D01*
X21579Y19173D01*
X21012Y19173D01*
G37*
%LPD*%
%LPC*%
G36*
X12012Y19173D02*
X12012Y19173D01*
X11965Y19220D01*
X11965Y19905D01*
X12012Y19953D01*
X12579Y19953D01*
X12626Y19905D01*
X12626Y19220D01*
X12579Y19173D01*
X12012Y19173D01*
G37*
%LPD*%
%LPC*%
G36*
X18012Y19173D02*
X18012Y19173D01*
X17965Y19220D01*
X17965Y19905D01*
X18012Y19953D01*
X18579Y19953D01*
X18626Y19905D01*
X18626Y19220D01*
X18579Y19173D01*
X18012Y19173D01*
G37*
%LPD*%
%LPC*%
G36*
X19012Y19173D02*
X19012Y19173D01*
X18965Y19220D01*
X18965Y19905D01*
X19012Y19953D01*
X19579Y19953D01*
X19626Y19905D01*
X19626Y19220D01*
X19579Y19173D01*
X19012Y19173D01*
G37*
%LPD*%
%LPC*%
G36*
X13012Y19173D02*
X13012Y19173D01*
X12965Y19220D01*
X12965Y19905D01*
X13012Y19953D01*
X13579Y19953D01*
X13626Y19905D01*
X13626Y19220D01*
X13579Y19173D01*
X13012Y19173D01*
G37*
%LPD*%
%LPC*%
G36*
X20012Y19173D02*
X20012Y19173D01*
X19965Y19220D01*
X19965Y19905D01*
X20012Y19953D01*
X20579Y19953D01*
X20626Y19905D01*
X20626Y19220D01*
X20579Y19173D01*
X20012Y19173D01*
G37*
%LPD*%
%LPC*%
G36*
X14012Y19173D02*
X14012Y19173D01*
X13965Y19220D01*
X13965Y19905D01*
X14012Y19953D01*
X14579Y19953D01*
X14626Y19905D01*
X14626Y19220D01*
X14579Y19173D01*
X14012Y19173D01*
G37*
%LPD*%
%LPC*%
G36*
X23725Y3205D02*
X23725Y3205D01*
X23678Y3252D01*
X23678Y3834D01*
X23725Y3882D01*
X24307Y3882D01*
X24354Y3834D01*
X24354Y3252D01*
X24307Y3205D01*
X23725Y3205D01*
G37*
%LPD*%
%LPC*%
G36*
X22948Y5205D02*
X22948Y5205D01*
X22824Y5257D01*
X22729Y5352D01*
X22678Y5476D01*
X22678Y5611D01*
X22729Y5735D01*
X22824Y5830D01*
X22948Y5882D01*
X23083Y5882D01*
X23207Y5830D01*
X23302Y5735D01*
X23354Y5611D01*
X23354Y5476D01*
X23302Y5352D01*
X23207Y5257D01*
X23083Y5205D01*
X22948Y5205D01*
G37*
%LPD*%
%LPC*%
G36*
X23948Y5205D02*
X23948Y5205D01*
X23824Y5257D01*
X23729Y5352D01*
X23678Y5476D01*
X23678Y5611D01*
X23729Y5735D01*
X23824Y5830D01*
X23948Y5882D01*
X24083Y5882D01*
X24207Y5830D01*
X24302Y5735D01*
X24354Y5611D01*
X24354Y5476D01*
X24302Y5352D01*
X24207Y5257D01*
X24083Y5205D01*
X23948Y5205D01*
G37*
%LPD*%
%LPC*%
G36*
X23948Y4205D02*
X23948Y4205D01*
X23824Y4257D01*
X23729Y4352D01*
X23678Y4476D01*
X23678Y4611D01*
X23729Y4735D01*
X23824Y4830D01*
X23948Y4882D01*
X24083Y4882D01*
X24207Y4830D01*
X24302Y4735D01*
X24354Y4611D01*
X24354Y4476D01*
X24302Y4352D01*
X24207Y4257D01*
X24083Y4205D01*
X23948Y4205D01*
G37*
%LPD*%
%LPC*%
G36*
X20790Y13699D02*
X20790Y13699D01*
X20790Y14373D01*
X20848Y14355D01*
X20911Y14322D01*
X20969Y14280D01*
X21019Y14230D01*
X21061Y14172D01*
X21094Y14109D01*
X21116Y14041D01*
X21127Y13970D01*
X21127Y13699D01*
X20790Y13699D01*
G37*
%LPD*%
%LPC*%
G36*
X20790Y8779D02*
X20790Y8779D01*
X20790Y9453D01*
X20848Y9435D01*
X20911Y9402D01*
X20969Y9360D01*
X21019Y9310D01*
X21061Y9252D01*
X21094Y9189D01*
X21116Y9121D01*
X21127Y9050D01*
X21127Y8779D01*
X20790Y8779D01*
G37*
%LPD*%
%LPC*%
G36*
X20790Y8545D02*
X20790Y8545D01*
X21127Y8545D01*
X21127Y8274D01*
X21116Y8203D01*
X21094Y8136D01*
X21061Y8072D01*
X21019Y8014D01*
X20969Y7964D01*
X20911Y7922D01*
X20848Y7890D01*
X20790Y7871D01*
X20790Y8545D01*
G37*
%LPD*%
%LPC*%
G36*
X20790Y13465D02*
X20790Y13465D01*
X21127Y13465D01*
X21127Y13194D01*
X21116Y13123D01*
X21094Y13056D01*
X21061Y12992D01*
X21019Y12934D01*
X20969Y12884D01*
X20911Y12842D01*
X20848Y12810D01*
X20790Y12791D01*
X20790Y13465D01*
G37*
%LPD*%
%LPC*%
G36*
X20500Y12810D02*
X20500Y12810D01*
X20436Y12842D01*
X20378Y12884D01*
X20328Y12934D01*
X20286Y12992D01*
X20254Y13056D01*
X20231Y13123D01*
X20220Y13194D01*
X20220Y13465D01*
X20557Y13465D01*
X20557Y12791D01*
X20500Y12810D01*
G37*
%LPD*%
%LPC*%
G36*
X20500Y7890D02*
X20500Y7890D01*
X20436Y7922D01*
X20378Y7964D01*
X20328Y8014D01*
X20286Y8072D01*
X20254Y8136D01*
X20231Y8203D01*
X20220Y8274D01*
X20220Y8545D01*
X20557Y8545D01*
X20557Y7871D01*
X20500Y7890D01*
G37*
%LPD*%
%LPC*%
G36*
X20220Y8779D02*
X20220Y8779D01*
X20220Y9050D01*
X20231Y9121D01*
X20254Y9189D01*
X20286Y9252D01*
X20328Y9310D01*
X20378Y9360D01*
X20436Y9402D01*
X20500Y9435D01*
X20557Y9453D01*
X20557Y8779D01*
X20220Y8779D01*
G37*
%LPD*%
%LPC*%
G36*
X20220Y13699D02*
X20220Y13699D01*
X20220Y13970D01*
X20231Y14041D01*
X20254Y14109D01*
X20286Y14172D01*
X20328Y14230D01*
X20378Y14280D01*
X20436Y14322D01*
X20500Y14355D01*
X20557Y14373D01*
X20557Y13699D01*
X20220Y13699D01*
G37*
%LPD*%
%LPC*%
G36*
X4493Y2845D02*
X4493Y2845D01*
X4493Y2974D01*
X4801Y3282D01*
X4930Y3282D01*
X4930Y2845D01*
X4493Y2845D01*
G37*
%LPD*%
%LPC*%
G36*
X5108Y2845D02*
X5108Y2845D01*
X5108Y3282D01*
X5237Y3282D01*
X5545Y2974D01*
X5545Y2845D01*
X5108Y2845D01*
G37*
%LPD*%
%LPC*%
G36*
X4801Y2230D02*
X4801Y2230D01*
X4493Y2538D01*
X4493Y2667D01*
X4930Y2667D01*
X4930Y2230D01*
X4801Y2230D01*
G37*
%LPD*%
%LPC*%
G36*
X5108Y2230D02*
X5108Y2230D01*
X5108Y2667D01*
X5545Y2667D01*
X5545Y2538D01*
X5237Y2230D01*
X5108Y2230D01*
G37*
%LPD*%
%LPC*%
G36*
X20301Y2085D02*
X20301Y2085D01*
X20301Y2427D01*
X20712Y2427D01*
X20712Y2383D01*
X20705Y2357D01*
X20692Y2334D01*
X20670Y2312D01*
X20669Y2311D01*
X20668Y2311D01*
X20664Y2305D01*
X20660Y2300D01*
X20659Y2299D01*
X20659Y2298D01*
X20656Y2292D01*
X20652Y2286D01*
X20652Y2285D01*
X20652Y2284D01*
X20650Y2277D01*
X20648Y2271D01*
X20648Y2270D01*
X20648Y2269D01*
X20647Y2262D01*
X20647Y2255D01*
X20647Y2254D01*
X20647Y2253D01*
X20648Y2246D01*
X20648Y2239D01*
X20649Y2238D01*
X20649Y2237D01*
X20651Y2231D01*
X20653Y2224D01*
X20654Y2223D01*
X20654Y2222D01*
X20658Y2216D01*
X20661Y2210D01*
X20662Y2210D01*
X20662Y2209D01*
X20670Y2200D01*
X20692Y2178D01*
X20705Y2155D01*
X20712Y2129D01*
X20712Y2085D01*
X20301Y2085D01*
G37*
%LPD*%
%LPC*%
G36*
X20301Y2585D02*
X20301Y2585D01*
X20301Y2927D01*
X20712Y2927D01*
X20712Y2883D01*
X20705Y2857D01*
X20692Y2834D01*
X20670Y2812D01*
X20669Y2811D01*
X20668Y2811D01*
X20664Y2805D01*
X20660Y2800D01*
X20659Y2799D01*
X20659Y2798D01*
X20656Y2792D01*
X20652Y2786D01*
X20652Y2785D01*
X20652Y2784D01*
X20650Y2777D01*
X20648Y2771D01*
X20648Y2770D01*
X20648Y2769D01*
X20647Y2762D01*
X20647Y2755D01*
X20647Y2754D01*
X20647Y2753D01*
X20648Y2746D01*
X20648Y2739D01*
X20649Y2738D01*
X20649Y2737D01*
X20651Y2731D01*
X20653Y2724D01*
X20654Y2723D01*
X20654Y2722D01*
X20658Y2716D01*
X20661Y2710D01*
X20662Y2710D01*
X20662Y2709D01*
X20670Y2700D01*
X20692Y2678D01*
X20705Y2655D01*
X20712Y2629D01*
X20712Y2585D01*
X20301Y2585D01*
G37*
%LPD*%
%LPC*%
G36*
X20301Y3085D02*
X20301Y3085D01*
X20301Y3427D01*
X20712Y3427D01*
X20712Y3383D01*
X20705Y3357D01*
X20692Y3334D01*
X20670Y3312D01*
X20669Y3311D01*
X20668Y3311D01*
X20664Y3305D01*
X20660Y3300D01*
X20659Y3299D01*
X20659Y3298D01*
X20656Y3292D01*
X20652Y3286D01*
X20652Y3285D01*
X20652Y3284D01*
X20650Y3277D01*
X20648Y3271D01*
X20648Y3270D01*
X20648Y3269D01*
X20647Y3262D01*
X20647Y3255D01*
X20647Y3254D01*
X20647Y3253D01*
X20648Y3246D01*
X20648Y3239D01*
X20649Y3238D01*
X20649Y3237D01*
X20651Y3231D01*
X20653Y3224D01*
X20654Y3223D01*
X20654Y3222D01*
X20658Y3216D01*
X20661Y3210D01*
X20662Y3210D01*
X20662Y3209D01*
X20670Y3200D01*
X20692Y3178D01*
X20705Y3155D01*
X20712Y3129D01*
X20712Y3085D01*
X20301Y3085D01*
G37*
%LPD*%
%LPC*%
G36*
X19731Y2085D02*
X19731Y2085D01*
X19731Y2129D01*
X19737Y2155D01*
X19751Y2178D01*
X19773Y2200D01*
X19773Y2201D01*
X19774Y2201D01*
X19778Y2207D01*
X19783Y2212D01*
X19783Y2213D01*
X19784Y2214D01*
X19787Y2220D01*
X19790Y2226D01*
X19790Y2227D01*
X19791Y2228D01*
X19793Y2235D01*
X19795Y2241D01*
X19795Y2242D01*
X19795Y2243D01*
X19795Y2250D01*
X19796Y2257D01*
X19796Y2258D01*
X19796Y2259D01*
X19795Y2266D01*
X19794Y2273D01*
X19794Y2274D01*
X19792Y2281D01*
X19789Y2288D01*
X19789Y2289D01*
X19785Y2295D01*
X19782Y2301D01*
X19781Y2302D01*
X19781Y2303D01*
X19773Y2312D01*
X19751Y2334D01*
X19737Y2357D01*
X19731Y2383D01*
X19731Y2427D01*
X20142Y2427D01*
X20142Y2085D01*
X19731Y2085D01*
G37*
%LPD*%
%LPC*%
G36*
X19731Y2585D02*
X19731Y2585D01*
X19731Y2629D01*
X19737Y2655D01*
X19751Y2678D01*
X19773Y2700D01*
X19773Y2701D01*
X19774Y2701D01*
X19778Y2707D01*
X19783Y2712D01*
X19783Y2713D01*
X19784Y2714D01*
X19787Y2720D01*
X19790Y2726D01*
X19790Y2727D01*
X19791Y2728D01*
X19793Y2735D01*
X19795Y2741D01*
X19795Y2742D01*
X19795Y2743D01*
X19795Y2750D01*
X19796Y2757D01*
X19796Y2758D01*
X19796Y2759D01*
X19795Y2766D01*
X19794Y2773D01*
X19794Y2774D01*
X19792Y2781D01*
X19789Y2788D01*
X19789Y2789D01*
X19785Y2795D01*
X19782Y2801D01*
X19781Y2802D01*
X19781Y2803D01*
X19773Y2812D01*
X19751Y2834D01*
X19737Y2857D01*
X19731Y2883D01*
X19731Y2927D01*
X20142Y2927D01*
X20142Y2585D01*
X19731Y2585D01*
G37*
%LPD*%
%LPC*%
G36*
X19731Y3085D02*
X19731Y3085D01*
X19731Y3129D01*
X19737Y3155D01*
X19751Y3178D01*
X19773Y3200D01*
X19773Y3201D01*
X19774Y3201D01*
X19778Y3207D01*
X19783Y3212D01*
X19783Y3213D01*
X19784Y3214D01*
X19787Y3220D01*
X19790Y3226D01*
X19790Y3227D01*
X19791Y3228D01*
X19793Y3235D01*
X19795Y3241D01*
X19795Y3242D01*
X19795Y3243D01*
X19795Y3250D01*
X19796Y3257D01*
X19796Y3258D01*
X19796Y3259D01*
X19795Y3266D01*
X19794Y3273D01*
X19794Y3274D01*
X19792Y3281D01*
X19789Y3288D01*
X19789Y3289D01*
X19785Y3295D01*
X19782Y3301D01*
X19781Y3302D01*
X19781Y3303D01*
X19773Y3312D01*
X19751Y3334D01*
X19737Y3357D01*
X19731Y3383D01*
X19731Y3427D01*
X20142Y3427D01*
X20142Y3085D01*
X19731Y3085D01*
G37*
%LPD*%
%LPC*%
G36*
X15934Y11201D02*
X15934Y11201D01*
X15934Y11553D01*
X16198Y11553D01*
X16223Y11546D01*
X16246Y11533D01*
X16265Y11514D01*
X16278Y11491D01*
X16285Y11465D01*
X16285Y11201D01*
X15934Y11201D01*
G37*
%LPD*%
%LPC*%
G36*
X10028Y11201D02*
X10028Y11201D01*
X10028Y11553D01*
X10292Y11553D01*
X10318Y11546D01*
X10341Y11533D01*
X10359Y11514D01*
X10373Y11491D01*
X10380Y11465D01*
X10380Y11201D01*
X10028Y11201D01*
G37*
%LPD*%
%LPC*%
G36*
X4123Y11201D02*
X4123Y11201D01*
X4123Y11553D01*
X4387Y11553D01*
X4412Y11546D01*
X4435Y11533D01*
X4454Y11514D01*
X4467Y11491D01*
X4474Y11465D01*
X4474Y11201D01*
X4123Y11201D01*
G37*
%LPD*%
%LPC*%
G36*
X15511Y10691D02*
X15511Y10691D01*
X15485Y10698D01*
X15462Y10711D01*
X15444Y10730D01*
X15430Y10753D01*
X15424Y10779D01*
X15424Y11043D01*
X15775Y11043D01*
X15775Y10691D01*
X15511Y10691D01*
G37*
%LPD*%
%LPC*%
G36*
X3700Y10691D02*
X3700Y10691D01*
X3674Y10698D01*
X3651Y10711D01*
X3633Y10730D01*
X3619Y10753D01*
X3613Y10779D01*
X3613Y11043D01*
X3964Y11043D01*
X3964Y10691D01*
X3700Y10691D01*
G37*
%LPD*%
%LPC*%
G36*
X9518Y11201D02*
X9518Y11201D01*
X9518Y11465D01*
X9525Y11491D01*
X9538Y11514D01*
X9557Y11533D01*
X9580Y11546D01*
X9606Y11553D01*
X9870Y11553D01*
X9870Y11201D01*
X9518Y11201D01*
G37*
%LPD*%
%LPC*%
G36*
X9606Y10691D02*
X9606Y10691D01*
X9580Y10698D01*
X9557Y10711D01*
X9538Y10730D01*
X9525Y10753D01*
X9518Y10779D01*
X9518Y11043D01*
X9870Y11043D01*
X9870Y10691D01*
X9606Y10691D01*
G37*
%LPD*%
%LPC*%
G36*
X15424Y11201D02*
X15424Y11201D01*
X15424Y11465D01*
X15430Y11491D01*
X15444Y11514D01*
X15462Y11533D01*
X15485Y11546D01*
X15511Y11553D01*
X15775Y11553D01*
X15775Y11201D01*
X15424Y11201D01*
G37*
%LPD*%
%LPC*%
G36*
X3613Y11201D02*
X3613Y11201D01*
X3613Y11465D01*
X3619Y11491D01*
X3633Y11514D01*
X3651Y11533D01*
X3674Y11546D01*
X3700Y11553D01*
X3964Y11553D01*
X3964Y11201D01*
X3613Y11201D01*
G37*
%LPD*%
%LPC*%
G36*
X10028Y10691D02*
X10028Y10691D01*
X10028Y11043D01*
X10380Y11043D01*
X10380Y10779D01*
X10373Y10753D01*
X10359Y10730D01*
X10341Y10711D01*
X10318Y10698D01*
X10292Y10691D01*
X10028Y10691D01*
G37*
%LPD*%
%LPC*%
G36*
X15934Y10691D02*
X15934Y10691D01*
X15934Y11043D01*
X16285Y11043D01*
X16285Y10779D01*
X16278Y10753D01*
X16265Y10730D01*
X16246Y10711D01*
X16223Y10698D01*
X16198Y10691D01*
X15934Y10691D01*
G37*
%LPD*%
%LPC*%
G36*
X4123Y10691D02*
X4123Y10691D01*
X4123Y11043D01*
X4474Y11043D01*
X4474Y10779D01*
X4467Y10753D01*
X4454Y10730D01*
X4435Y10711D01*
X4412Y10698D01*
X4387Y10691D01*
X4123Y10691D01*
G37*
%LPD*%
%LPC*%
G36*
X15420Y19687D02*
X15420Y19687D01*
X15420Y19973D01*
X15559Y19973D01*
X15584Y19966D01*
X15607Y19953D01*
X15626Y19934D01*
X15639Y19911D01*
X15646Y19885D01*
X15646Y19687D01*
X15420Y19687D01*
G37*
%LPD*%
%LPC*%
G36*
X22420Y19687D02*
X22420Y19687D01*
X22420Y19973D01*
X22559Y19973D01*
X22584Y19966D01*
X22607Y19953D01*
X22626Y19934D01*
X22639Y19911D01*
X22646Y19885D01*
X22646Y19687D01*
X22420Y19687D01*
G37*
%LPD*%
%LPC*%
G36*
X19032Y21366D02*
X19032Y21366D01*
X19006Y21373D01*
X18983Y21386D01*
X18965Y21405D01*
X18951Y21428D01*
X18945Y21453D01*
X18945Y21651D01*
X19171Y21651D01*
X19171Y21366D01*
X19032Y21366D01*
G37*
%LPD*%
%LPC*%
G36*
X5032Y21366D02*
X5032Y21366D01*
X5006Y21373D01*
X4983Y21386D01*
X4965Y21405D01*
X4951Y21428D01*
X4945Y21453D01*
X4945Y21651D01*
X5171Y21651D01*
X5171Y21366D01*
X5032Y21366D01*
G37*
%LPD*%
%LPC*%
G36*
X17032Y21366D02*
X17032Y21366D01*
X17006Y21373D01*
X16983Y21386D01*
X16965Y21405D01*
X16951Y21428D01*
X16945Y21453D01*
X16945Y21651D01*
X17171Y21651D01*
X17171Y21366D01*
X17032Y21366D01*
G37*
%LPD*%
%LPC*%
G36*
X9032Y21366D02*
X9032Y21366D01*
X9006Y21373D01*
X8983Y21386D01*
X8965Y21405D01*
X8951Y21428D01*
X8945Y21453D01*
X8945Y21651D01*
X9171Y21651D01*
X9171Y21366D01*
X9032Y21366D01*
G37*
%LPD*%
%LPC*%
G36*
X12032Y21366D02*
X12032Y21366D01*
X12006Y21373D01*
X11983Y21386D01*
X11965Y21405D01*
X11951Y21428D01*
X11945Y21453D01*
X11945Y21651D01*
X12171Y21651D01*
X12171Y21366D01*
X12032Y21366D01*
G37*
%LPD*%
%LPC*%
G36*
X7032Y19153D02*
X7032Y19153D01*
X7006Y19160D01*
X6983Y19173D01*
X6965Y19192D01*
X6951Y19215D01*
X6945Y19241D01*
X6945Y19439D01*
X7171Y19439D01*
X7171Y19153D01*
X7032Y19153D01*
G37*
%LPD*%
%LPC*%
G36*
X15032Y19153D02*
X15032Y19153D01*
X15006Y19160D01*
X14983Y19173D01*
X14965Y19192D01*
X14951Y19215D01*
X14945Y19241D01*
X14945Y19439D01*
X15171Y19439D01*
X15171Y19153D01*
X15032Y19153D01*
G37*
%LPD*%
%LPC*%
G36*
X22032Y19153D02*
X22032Y19153D01*
X22006Y19160D01*
X21983Y19173D01*
X21965Y19192D01*
X21951Y19215D01*
X21945Y19241D01*
X21945Y19439D01*
X22171Y19439D01*
X22171Y19153D01*
X22032Y19153D01*
G37*
%LPD*%
%LPC*%
G36*
X21945Y19687D02*
X21945Y19687D01*
X21945Y19885D01*
X21951Y19911D01*
X21965Y19934D01*
X21983Y19953D01*
X22006Y19966D01*
X22032Y19973D01*
X22171Y19973D01*
X22171Y19687D01*
X21945Y19687D01*
G37*
%LPD*%
%LPC*%
G36*
X14945Y19687D02*
X14945Y19687D01*
X14945Y19885D01*
X14951Y19911D01*
X14965Y19934D01*
X14983Y19953D01*
X15006Y19966D01*
X15032Y19973D01*
X15171Y19973D01*
X15171Y19687D01*
X14945Y19687D01*
G37*
%LPD*%
%LPC*%
G36*
X7420Y19153D02*
X7420Y19153D01*
X7420Y19439D01*
X7646Y19439D01*
X7646Y19241D01*
X7639Y19215D01*
X7626Y19192D01*
X7607Y19173D01*
X7584Y19160D01*
X7559Y19153D01*
X7420Y19153D01*
G37*
%LPD*%
%LPC*%
G36*
X15420Y19153D02*
X15420Y19153D01*
X15420Y19439D01*
X15646Y19439D01*
X15646Y19241D01*
X15639Y19215D01*
X15626Y19192D01*
X15607Y19173D01*
X15584Y19160D01*
X15559Y19153D01*
X15420Y19153D01*
G37*
%LPD*%
%LPC*%
G36*
X19420Y21366D02*
X19420Y21366D01*
X19420Y21651D01*
X19646Y21651D01*
X19646Y21453D01*
X19639Y21428D01*
X19626Y21405D01*
X19607Y21386D01*
X19584Y21373D01*
X19559Y21366D01*
X19420Y21366D01*
G37*
%LPD*%
%LPC*%
G36*
X17420Y21366D02*
X17420Y21366D01*
X17420Y21651D01*
X17646Y21651D01*
X17646Y21453D01*
X17639Y21428D01*
X17626Y21405D01*
X17607Y21386D01*
X17584Y21373D01*
X17559Y21366D01*
X17420Y21366D01*
G37*
%LPD*%
%LPC*%
G36*
X22420Y19153D02*
X22420Y19153D01*
X22420Y19439D01*
X22646Y19439D01*
X22646Y19241D01*
X22639Y19215D01*
X22626Y19192D01*
X22607Y19173D01*
X22584Y19160D01*
X22559Y19153D01*
X22420Y19153D01*
G37*
%LPD*%
%LPC*%
G36*
X9420Y21366D02*
X9420Y21366D01*
X9420Y21651D01*
X9646Y21651D01*
X9646Y21453D01*
X9639Y21428D01*
X9626Y21405D01*
X9607Y21386D01*
X9584Y21373D01*
X9559Y21366D01*
X9420Y21366D01*
G37*
%LPD*%
%LPC*%
G36*
X12420Y21366D02*
X12420Y21366D01*
X12420Y21651D01*
X12646Y21651D01*
X12646Y21453D01*
X12639Y21428D01*
X12626Y21405D01*
X12607Y21386D01*
X12584Y21373D01*
X12559Y21366D01*
X12420Y21366D01*
G37*
%LPD*%
%LPC*%
G36*
X5420Y21366D02*
X5420Y21366D01*
X5420Y21651D01*
X5646Y21651D01*
X5646Y21453D01*
X5639Y21428D01*
X5626Y21405D01*
X5607Y21386D01*
X5584Y21373D01*
X5559Y21366D01*
X5420Y21366D01*
G37*
%LPD*%
%LPC*%
G36*
X11525Y5639D02*
X11525Y5639D01*
X11525Y5908D01*
X11667Y5908D01*
X11692Y5901D01*
X11715Y5888D01*
X11734Y5869D01*
X11747Y5846D01*
X11754Y5820D01*
X11754Y5639D01*
X11525Y5639D01*
G37*
%LPD*%
%LPC*%
G36*
X11525Y5116D02*
X11525Y5116D01*
X11525Y5385D01*
X11754Y5385D01*
X11754Y5203D01*
X11747Y5178D01*
X11734Y5155D01*
X11715Y5136D01*
X11692Y5123D01*
X11667Y5116D01*
X11525Y5116D01*
G37*
%LPD*%
%LPC*%
G36*
X19731Y3585D02*
X19731Y3585D01*
X19731Y3629D01*
X19737Y3655D01*
X19751Y3678D01*
X19769Y3697D01*
X19792Y3710D01*
X19818Y3717D01*
X20142Y3717D01*
X20142Y3585D01*
X19731Y3585D01*
G37*
%LPD*%
%LPC*%
G36*
X20301Y3585D02*
X20301Y3585D01*
X20301Y3717D01*
X20625Y3717D01*
X20650Y3710D01*
X20673Y3697D01*
X20692Y3678D01*
X20705Y3655D01*
X20712Y3629D01*
X20712Y3585D01*
X20301Y3585D01*
G37*
%LPD*%
%LPC*%
G36*
X22932Y3194D02*
X22932Y3194D01*
X22878Y3211D01*
X22828Y3237D01*
X22782Y3270D01*
X22743Y3310D01*
X22709Y3356D01*
X22684Y3406D01*
X22666Y3459D01*
X22666Y3464D01*
X22936Y3464D01*
X22936Y3193D01*
X22932Y3194D01*
G37*
%LPD*%
%LPC*%
G36*
X23095Y3464D02*
X23095Y3464D01*
X23366Y3464D01*
X23365Y3459D01*
X23348Y3406D01*
X23322Y3356D01*
X23289Y3310D01*
X23249Y3270D01*
X23204Y3237D01*
X23153Y3211D01*
X23100Y3194D01*
X23095Y3193D01*
X23095Y3464D01*
G37*
%LPD*%
%LPC*%
G36*
X23095Y3623D02*
X23095Y3623D01*
X23095Y3893D01*
X23100Y3893D01*
X23153Y3875D01*
X23204Y3850D01*
X23249Y3817D01*
X23289Y3777D01*
X23322Y3731D01*
X23348Y3681D01*
X23365Y3627D01*
X23366Y3623D01*
X23095Y3623D01*
G37*
%LPD*%
%LPC*%
G36*
X22666Y3623D02*
X22666Y3623D01*
X22666Y3627D01*
X22684Y3681D01*
X22709Y3731D01*
X22743Y3777D01*
X22782Y3817D01*
X22828Y3850D01*
X22878Y3875D01*
X22932Y3893D01*
X22936Y3893D01*
X22936Y3623D01*
X22666Y3623D01*
G37*
%LPD*%
%LPC*%
G36*
X22932Y4194D02*
X22932Y4194D01*
X22878Y4211D01*
X22828Y4237D01*
X22782Y4270D01*
X22743Y4310D01*
X22709Y4356D01*
X22684Y4406D01*
X22666Y4459D01*
X22666Y4464D01*
X22936Y4464D01*
X22936Y4193D01*
X22932Y4194D01*
G37*
%LPD*%
%LPC*%
G36*
X23095Y4464D02*
X23095Y4464D01*
X23366Y4464D01*
X23365Y4459D01*
X23348Y4406D01*
X23322Y4356D01*
X23289Y4310D01*
X23249Y4270D01*
X23204Y4237D01*
X23153Y4211D01*
X23100Y4194D01*
X23095Y4193D01*
X23095Y4464D01*
G37*
%LPD*%
%LPC*%
G36*
X22666Y4623D02*
X22666Y4623D01*
X22666Y4627D01*
X22684Y4681D01*
X22709Y4731D01*
X22743Y4777D01*
X22782Y4817D01*
X22828Y4850D01*
X22878Y4875D01*
X22932Y4893D01*
X22936Y4893D01*
X22936Y4623D01*
X22666Y4623D01*
G37*
%LPD*%
%LPC*%
G36*
X23095Y4623D02*
X23095Y4623D01*
X23095Y4893D01*
X23100Y4893D01*
X23153Y4875D01*
X23204Y4850D01*
X23249Y4817D01*
X23289Y4777D01*
X23322Y4731D01*
X23348Y4681D01*
X23365Y4627D01*
X23366Y4623D01*
X23095Y4623D01*
G37*
%LPD*%
D10*
X1181Y0D02*
X24409Y0D01*
X25591Y1181D02*
X25591Y20866D01*
X24409Y22244D02*
X1181Y22244D01*
X0Y20866D02*
X0Y1181D01*
X2Y1115D01*
X7Y1049D01*
X17Y983D01*
X30Y918D01*
X46Y854D01*
X66Y791D01*
X90Y729D01*
X117Y669D01*
X147Y610D01*
X181Y553D01*
X218Y498D01*
X258Y445D01*
X300Y394D01*
X346Y346D01*
X394Y300D01*
X445Y258D01*
X498Y218D01*
X553Y181D01*
X610Y147D01*
X669Y117D01*
X729Y90D01*
X791Y66D01*
X854Y46D01*
X918Y30D01*
X983Y17D01*
X1049Y7D01*
X1115Y2D01*
X1181Y0D01*
X24409Y0D02*
X24475Y2D01*
X24541Y7D01*
X24607Y17D01*
X24672Y30D01*
X24736Y46D01*
X24799Y66D01*
X24861Y90D01*
X24921Y117D01*
X24980Y147D01*
X25037Y181D01*
X25092Y218D01*
X25145Y258D01*
X25196Y300D01*
X25244Y346D01*
X25290Y394D01*
X25332Y445D01*
X25372Y498D01*
X25409Y553D01*
X25443Y610D01*
X25473Y669D01*
X25500Y729D01*
X25524Y791D01*
X25544Y854D01*
X25560Y918D01*
X25573Y983D01*
X25583Y1049D01*
X25588Y1115D01*
X25590Y1181D01*
X25590Y20867D02*
X25594Y20936D01*
X25593Y21005D01*
X25589Y21075D01*
X25581Y21144D01*
X25570Y21212D01*
X25555Y21280D01*
X25536Y21347D01*
X25513Y21413D01*
X25487Y21477D01*
X25458Y21540D01*
X25425Y21601D01*
X25389Y21661D01*
X25350Y21718D01*
X25307Y21773D01*
X25262Y21826D01*
X25214Y21876D01*
X25163Y21924D01*
X25110Y21969D01*
X25055Y22010D01*
X24997Y22049D01*
X24937Y22085D01*
X24876Y22117D01*
X24813Y22146D01*
X24748Y22171D01*
X24682Y22193D01*
X24615Y22211D01*
X24547Y22226D01*
X24479Y22237D01*
X24409Y22244D01*
X1182Y22244D02*
X1112Y22237D01*
X1044Y22226D01*
X976Y22211D01*
X909Y22193D01*
X843Y22171D01*
X778Y22146D01*
X715Y22117D01*
X654Y22085D01*
X594Y22049D01*
X536Y22010D01*
X481Y21969D01*
X428Y21924D01*
X377Y21876D01*
X329Y21826D01*
X284Y21773D01*
X241Y21718D01*
X202Y21661D01*
X166Y21601D01*
X133Y21540D01*
X104Y21477D01*
X78Y21413D01*
X55Y21347D01*
X36Y21280D01*
X21Y21212D01*
X10Y21144D01*
X2Y21075D01*
X-2Y21005D01*
X-3Y20936D01*
X1Y20867D01*
X827Y20669D02*
X829Y20716D01*
X835Y20762D01*
X845Y20808D01*
X858Y20853D01*
X876Y20896D01*
X897Y20938D01*
X921Y20978D01*
X949Y21015D01*
X980Y21050D01*
X1014Y21083D01*
X1050Y21112D01*
X1089Y21138D01*
X1130Y21161D01*
X1173Y21180D01*
X1217Y21196D01*
X1262Y21208D01*
X1308Y21216D01*
X1355Y21220D01*
X1401Y21220D01*
X1448Y21216D01*
X1494Y21208D01*
X1539Y21196D01*
X1583Y21180D01*
X1626Y21161D01*
X1667Y21138D01*
X1706Y21112D01*
X1742Y21083D01*
X1776Y21050D01*
X1807Y21015D01*
X1835Y20978D01*
X1859Y20938D01*
X1880Y20896D01*
X1898Y20853D01*
X1911Y20808D01*
X1921Y20762D01*
X1927Y20716D01*
X1929Y20669D01*
X1927Y20622D01*
X1921Y20576D01*
X1911Y20530D01*
X1898Y20485D01*
X1880Y20442D01*
X1859Y20400D01*
X1835Y20360D01*
X1807Y20323D01*
X1776Y20288D01*
X1742Y20255D01*
X1706Y20226D01*
X1667Y20200D01*
X1626Y20177D01*
X1583Y20158D01*
X1539Y20142D01*
X1494Y20130D01*
X1448Y20122D01*
X1401Y20118D01*
X1355Y20118D01*
X1308Y20122D01*
X1262Y20130D01*
X1217Y20142D01*
X1173Y20158D01*
X1130Y20177D01*
X1089Y20200D01*
X1050Y20226D01*
X1014Y20255D01*
X980Y20288D01*
X949Y20323D01*
X921Y20360D01*
X897Y20400D01*
X876Y20442D01*
X858Y20485D01*
X845Y20530D01*
X835Y20576D01*
X829Y20622D01*
X827Y20669D01*
X23662Y20669D02*
X23664Y20716D01*
X23670Y20762D01*
X23680Y20808D01*
X23693Y20853D01*
X23711Y20896D01*
X23732Y20938D01*
X23756Y20978D01*
X23784Y21015D01*
X23815Y21050D01*
X23849Y21083D01*
X23885Y21112D01*
X23924Y21138D01*
X23965Y21161D01*
X24008Y21180D01*
X24052Y21196D01*
X24097Y21208D01*
X24143Y21216D01*
X24190Y21220D01*
X24236Y21220D01*
X24283Y21216D01*
X24329Y21208D01*
X24374Y21196D01*
X24418Y21180D01*
X24461Y21161D01*
X24502Y21138D01*
X24541Y21112D01*
X24577Y21083D01*
X24611Y21050D01*
X24642Y21015D01*
X24670Y20978D01*
X24694Y20938D01*
X24715Y20896D01*
X24733Y20853D01*
X24746Y20808D01*
X24756Y20762D01*
X24762Y20716D01*
X24764Y20669D01*
X24762Y20622D01*
X24756Y20576D01*
X24746Y20530D01*
X24733Y20485D01*
X24715Y20442D01*
X24694Y20400D01*
X24670Y20360D01*
X24642Y20323D01*
X24611Y20288D01*
X24577Y20255D01*
X24541Y20226D01*
X24502Y20200D01*
X24461Y20177D01*
X24418Y20158D01*
X24374Y20142D01*
X24329Y20130D01*
X24283Y20122D01*
X24236Y20118D01*
X24190Y20118D01*
X24143Y20122D01*
X24097Y20130D01*
X24052Y20142D01*
X24008Y20158D01*
X23965Y20177D01*
X23924Y20200D01*
X23885Y20226D01*
X23849Y20255D01*
X23815Y20288D01*
X23784Y20323D01*
X23756Y20360D01*
X23732Y20400D01*
X23711Y20442D01*
X23693Y20485D01*
X23680Y20530D01*
X23670Y20576D01*
X23664Y20622D01*
X23662Y20669D01*
X827Y1378D02*
X829Y1425D01*
X835Y1471D01*
X845Y1517D01*
X858Y1562D01*
X876Y1605D01*
X897Y1647D01*
X921Y1687D01*
X949Y1724D01*
X980Y1759D01*
X1014Y1792D01*
X1050Y1821D01*
X1089Y1847D01*
X1130Y1870D01*
X1173Y1889D01*
X1217Y1905D01*
X1262Y1917D01*
X1308Y1925D01*
X1355Y1929D01*
X1401Y1929D01*
X1448Y1925D01*
X1494Y1917D01*
X1539Y1905D01*
X1583Y1889D01*
X1626Y1870D01*
X1667Y1847D01*
X1706Y1821D01*
X1742Y1792D01*
X1776Y1759D01*
X1807Y1724D01*
X1835Y1687D01*
X1859Y1647D01*
X1880Y1605D01*
X1898Y1562D01*
X1911Y1517D01*
X1921Y1471D01*
X1927Y1425D01*
X1929Y1378D01*
X1927Y1331D01*
X1921Y1285D01*
X1911Y1239D01*
X1898Y1194D01*
X1880Y1151D01*
X1859Y1109D01*
X1835Y1069D01*
X1807Y1032D01*
X1776Y997D01*
X1742Y964D01*
X1706Y935D01*
X1667Y909D01*
X1626Y886D01*
X1583Y867D01*
X1539Y851D01*
X1494Y839D01*
X1448Y831D01*
X1401Y827D01*
X1355Y827D01*
X1308Y831D01*
X1262Y839D01*
X1217Y851D01*
X1173Y867D01*
X1130Y886D01*
X1089Y909D01*
X1050Y935D01*
X1014Y964D01*
X980Y997D01*
X949Y1032D01*
X921Y1069D01*
X897Y1109D01*
X876Y1151D01*
X858Y1194D01*
X845Y1239D01*
X835Y1285D01*
X829Y1331D01*
X827Y1378D01*
X23662Y1378D02*
X23664Y1425D01*
X23670Y1471D01*
X23680Y1517D01*
X23693Y1562D01*
X23711Y1605D01*
X23732Y1647D01*
X23756Y1687D01*
X23784Y1724D01*
X23815Y1759D01*
X23849Y1792D01*
X23885Y1821D01*
X23924Y1847D01*
X23965Y1870D01*
X24008Y1889D01*
X24052Y1905D01*
X24097Y1917D01*
X24143Y1925D01*
X24190Y1929D01*
X24236Y1929D01*
X24283Y1925D01*
X24329Y1917D01*
X24374Y1905D01*
X24418Y1889D01*
X24461Y1870D01*
X24502Y1847D01*
X24541Y1821D01*
X24577Y1792D01*
X24611Y1759D01*
X24642Y1724D01*
X24670Y1687D01*
X24694Y1647D01*
X24715Y1605D01*
X24733Y1562D01*
X24746Y1517D01*
X24756Y1471D01*
X24762Y1425D01*
X24764Y1378D01*
X24762Y1331D01*
X24756Y1285D01*
X24746Y1239D01*
X24733Y1194D01*
X24715Y1151D01*
X24694Y1109D01*
X24670Y1069D01*
X24642Y1032D01*
X24611Y997D01*
X24577Y964D01*
X24541Y935D01*
X24502Y909D01*
X24461Y886D01*
X24418Y867D01*
X24374Y851D01*
X24329Y839D01*
X24283Y831D01*
X24236Y827D01*
X24190Y827D01*
X24143Y831D01*
X24097Y839D01*
X24052Y851D01*
X24008Y867D01*
X23965Y886D01*
X23924Y909D01*
X23885Y935D01*
X23849Y964D01*
X23815Y997D01*
X23784Y1032D01*
X23756Y1069D01*
X23732Y1109D01*
X23711Y1151D01*
X23693Y1194D01*
X23680Y1239D01*
X23670Y1285D01*
X23664Y1331D01*
X23662Y1378D01*
D11*
X3295Y19563D03*
X3295Y21776D03*
X4295Y19563D03*
X4295Y21776D03*
X5295Y19563D03*
X5295Y21776D03*
X6295Y19563D03*
X6295Y21776D03*
X7295Y19563D03*
X7295Y21776D03*
X8295Y19563D03*
X8295Y21776D03*
X9295Y19563D03*
X9295Y21776D03*
X10295Y19563D03*
X10295Y21776D03*
X11295Y19563D03*
X11295Y21776D03*
X12295Y19563D03*
X12295Y21776D03*
X13295Y19563D03*
X13295Y21776D03*
X14295Y19563D03*
X14295Y21776D03*
X15295Y19563D03*
X15295Y21776D03*
X22295Y21776D03*
X22295Y19563D03*
X21295Y21776D03*
X20295Y21776D03*
X19295Y21776D03*
X18295Y21776D03*
X17295Y21776D03*
X16295Y21776D03*
X21295Y19563D03*
X20295Y19563D03*
X19295Y19563D03*
X18295Y19563D03*
X17295Y19563D03*
X16295Y19563D03*
D12*
X4043Y11122D03*
D13*
X3043Y11122D03*
D12*
X9949Y11122D03*
D13*
X8949Y11122D03*
D12*
X15854Y11122D03*
D13*
X14854Y11122D03*
D14*
X3543Y16555D03*
X3543Y17303D03*
X9449Y16555D03*
X9449Y17303D03*
X15354Y16555D03*
X15354Y17303D03*
D15*
X22634Y9015D02*
X22634Y8310D01*
X22634Y13230D02*
X22634Y13935D01*
X20674Y9015D02*
X20674Y8310D01*
X20674Y13230D02*
X20674Y13935D01*
D16*
X7579Y2756D03*
X5019Y2756D03*
D17*
X9469Y2756D03*
X10217Y2756D03*
D18*
X20221Y3506D03*
X20221Y3006D03*
X20221Y2506D03*
X20221Y2006D03*
X18361Y2006D03*
X18361Y2506D03*
X18361Y3006D03*
X18361Y3506D03*
D17*
X12224Y3150D03*
X12972Y3150D03*
X14193Y3150D03*
X14941Y3150D03*
X16909Y3150D03*
X16161Y3150D03*
D19*
X24016Y3543D03*
D20*
X24016Y4543D03*
X24016Y5543D03*
X23016Y5543D03*
X23016Y4543D03*
X23016Y3543D03*
D17*
X11398Y5512D03*
X10650Y5512D03*
D21*
X4295Y21776D02*
X3295Y21776D01*
D22*
X3543Y16555D02*
X3499Y16553D01*
X3456Y16547D01*
X3414Y16538D01*
X3372Y16525D01*
X3332Y16508D01*
X3293Y16488D01*
X3256Y16465D01*
X3222Y16438D01*
X3189Y16409D01*
X3160Y16376D01*
X3133Y16342D01*
X3110Y16305D01*
X3090Y16266D01*
X3073Y16226D01*
X3060Y16184D01*
X3051Y16142D01*
X3045Y16099D01*
X3043Y16055D01*
X3043Y11122D01*
X8949Y16055D02*
X8951Y16099D01*
X8957Y16142D01*
X8966Y16184D01*
X8979Y16226D01*
X8996Y16266D01*
X9016Y16305D01*
X9039Y16342D01*
X9066Y16376D01*
X9095Y16409D01*
X9128Y16438D01*
X9162Y16465D01*
X9199Y16488D01*
X9238Y16508D01*
X9278Y16525D01*
X9320Y16538D01*
X9362Y16547D01*
X9405Y16553D01*
X9449Y16555D01*
X8949Y16055D02*
X8949Y11122D01*
X14854Y16055D02*
X14856Y16099D01*
X14862Y16142D01*
X14871Y16184D01*
X14884Y16226D01*
X14901Y16266D01*
X14921Y16305D01*
X14944Y16342D01*
X14971Y16376D01*
X15000Y16409D01*
X15033Y16438D01*
X15067Y16465D01*
X15104Y16488D01*
X15143Y16508D01*
X15183Y16525D01*
X15225Y16538D01*
X15267Y16547D01*
X15310Y16553D01*
X15354Y16555D01*
X14854Y16055D02*
X14854Y11122D01*
X4744Y18504D02*
X4677Y18502D01*
X4610Y18496D01*
X4543Y18487D01*
X4477Y18474D01*
X4412Y18457D01*
X4347Y18437D01*
X4284Y18413D01*
X4223Y18385D01*
X4163Y18354D01*
X4105Y18320D01*
X4049Y18282D01*
X3995Y18242D01*
X3944Y18199D01*
X3895Y18152D01*
X3848Y18103D01*
X3805Y18052D01*
X3765Y17998D01*
X3727Y17942D01*
X3693Y17884D01*
X3662Y17824D01*
X3634Y17763D01*
X3610Y17700D01*
X3590Y17635D01*
X3573Y17570D01*
X3560Y17504D01*
X3551Y17437D01*
X3545Y17370D01*
X3543Y17303D01*
X4744Y18504D02*
X9843Y18504D01*
X9885Y18506D01*
X9926Y18512D01*
X9967Y18521D01*
X10007Y18535D01*
X10045Y18551D01*
X10081Y18572D01*
X10116Y18595D01*
X10148Y18622D01*
X10178Y18652D01*
X10205Y18684D01*
X10228Y18719D01*
X10249Y18755D01*
X10265Y18793D01*
X10279Y18833D01*
X10288Y18874D01*
X10294Y18915D01*
X10296Y18957D01*
X10295Y18957D02*
X10295Y19563D01*
X9862Y17716D02*
X9824Y17714D01*
X9786Y17709D01*
X9749Y17700D01*
X9713Y17688D01*
X9678Y17673D01*
X9645Y17654D01*
X9613Y17633D01*
X9584Y17608D01*
X9557Y17581D01*
X9532Y17552D01*
X9511Y17520D01*
X9492Y17487D01*
X9477Y17452D01*
X9465Y17416D01*
X9456Y17379D01*
X9451Y17341D01*
X9449Y17303D01*
X9862Y17717D02*
X10630Y17717D01*
D23*
X10630Y17717D03*
X10236Y20866D03*
D22*
X10249Y20867D01*
X10262Y20872D01*
X10273Y20879D01*
X10282Y20888D01*
X10289Y20899D01*
X10294Y20912D01*
X10295Y20925D01*
X10295Y21776D01*
X15335Y17323D02*
X15343Y17321D01*
X15349Y17317D01*
X15353Y17311D01*
X15355Y17303D01*
X15335Y17323D02*
X12992Y17323D01*
D23*
X12992Y17323D03*
X11417Y20866D03*
D22*
X11396Y20868D01*
X11375Y20873D01*
X11356Y20882D01*
X11339Y20895D01*
X11324Y20910D01*
X11311Y20927D01*
X11302Y20946D01*
X11297Y20967D01*
X11295Y20988D01*
X11295Y21776D01*
D23*
X12992Y20472D03*
D21*
X12992Y20473D02*
X13026Y20475D01*
X13059Y20481D01*
X13092Y20490D01*
X13123Y20503D01*
X13153Y20519D01*
X13181Y20539D01*
X13206Y20562D01*
X13229Y20587D01*
X13249Y20615D01*
X13265Y20645D01*
X13278Y20676D01*
X13287Y20709D01*
X13293Y20742D01*
X13295Y20776D01*
X13295Y21776D01*
X9469Y2756D02*
X7579Y2756D01*
X10217Y2756D02*
X10219Y2690D01*
X10224Y2624D01*
X10234Y2558D01*
X10247Y2493D01*
X10263Y2429D01*
X10283Y2366D01*
X10307Y2304D01*
X10334Y2244D01*
X10364Y2185D01*
X10398Y2128D01*
X10435Y2073D01*
X10475Y2020D01*
X10517Y1969D01*
X10563Y1921D01*
X10611Y1875D01*
X10662Y1833D01*
X10715Y1793D01*
X10770Y1756D01*
X10827Y1722D01*
X10886Y1692D01*
X10946Y1665D01*
X11008Y1641D01*
X11071Y1621D01*
X11135Y1605D01*
X11200Y1592D01*
X11266Y1582D01*
X11332Y1577D01*
X11398Y1575D01*
X21260Y1575D01*
X21299Y1577D01*
X21337Y1583D01*
X21374Y1592D01*
X21411Y1605D01*
X21446Y1622D01*
X21479Y1641D01*
X21510Y1664D01*
X21539Y1690D01*
X21565Y1719D01*
X21588Y1750D01*
X21607Y1783D01*
X21624Y1818D01*
X21637Y1855D01*
X21646Y1892D01*
X21652Y1930D01*
X21654Y1969D01*
X21654Y5906D01*
X21652Y5945D01*
X21646Y5983D01*
X21637Y6020D01*
X21624Y6057D01*
X21607Y6092D01*
X21588Y6125D01*
X21565Y6156D01*
X21539Y6185D01*
X21510Y6211D01*
X21479Y6234D01*
X21446Y6253D01*
X21411Y6270D01*
X21374Y6283D01*
X21337Y6292D01*
X21299Y6298D01*
X21260Y6300D01*
X21260Y6299D02*
X18898Y6299D01*
X18898Y6300D02*
X18819Y6302D01*
X18741Y6308D01*
X18663Y6317D01*
X18585Y6331D01*
X18509Y6348D01*
X18433Y6369D01*
X18358Y6394D01*
X18285Y6422D01*
X18213Y6454D01*
X18143Y6489D01*
X18074Y6528D01*
X18008Y6570D01*
X17944Y6615D01*
X17882Y6664D01*
X17822Y6715D01*
X17765Y6769D01*
X17711Y6826D01*
X17660Y6886D01*
X17611Y6948D01*
X17566Y7012D01*
X17524Y7078D01*
X17485Y7147D01*
X17450Y7217D01*
X17418Y7289D01*
X17390Y7362D01*
X17365Y7437D01*
X17344Y7513D01*
X17327Y7589D01*
X17313Y7667D01*
X17304Y7745D01*
X17298Y7823D01*
X17296Y7902D01*
X17295Y7902D02*
X17295Y19563D01*
X18361Y2006D02*
X12974Y2006D01*
X12915Y2020D01*
X12857Y2038D01*
X12800Y2060D01*
X12745Y2085D01*
X12691Y2113D01*
X12639Y2145D01*
X12590Y2180D01*
X12542Y2218D01*
X12498Y2259D01*
X12455Y2303D01*
X12416Y2349D01*
X12379Y2398D01*
X12346Y2448D01*
X12316Y2501D01*
X12289Y2556D01*
X12266Y2612D01*
X12247Y2669D01*
X12231Y2728D01*
X12218Y2787D01*
X12210Y2848D01*
X12205Y2908D01*
X12204Y2969D01*
X12207Y3030D01*
X12214Y3090D01*
X12224Y3150D01*
X12224Y3917D01*
X12225Y3917D02*
X12223Y3925D01*
X12219Y3931D01*
X12213Y3935D01*
X12205Y3937D01*
D23*
X12205Y3937D03*
X16142Y17323D03*
D21*
X16142Y19409D01*
X16141Y19409D02*
X16143Y19431D01*
X16147Y19452D01*
X16155Y19473D01*
X16165Y19492D01*
X16179Y19510D01*
X16194Y19525D01*
X16212Y19539D01*
X16231Y19549D01*
X16252Y19557D01*
X16273Y19561D01*
X16295Y19563D01*
X17159Y3006D02*
X18361Y3006D01*
X17160Y3006D02*
X17151Y3031D01*
X17139Y3055D01*
X17125Y3077D01*
X17107Y3098D01*
X17087Y3115D01*
X17065Y3130D01*
X17041Y3142D01*
X17015Y3150D01*
X16989Y3155D01*
X16963Y3157D01*
X16936Y3155D01*
X16910Y3150D01*
D23*
X17323Y4724D03*
D21*
X17285Y4722D01*
X17247Y4717D01*
X17210Y4708D01*
X17174Y4696D01*
X17139Y4681D01*
X17106Y4662D01*
X17074Y4641D01*
X17045Y4616D01*
X17018Y4589D01*
X16993Y4560D01*
X16972Y4528D01*
X16953Y4495D01*
X16938Y4460D01*
X16926Y4424D01*
X16917Y4387D01*
X16912Y4349D01*
X16910Y4311D01*
X16909Y4311D02*
X16909Y3150D01*
X11295Y19563D02*
X11295Y19807D01*
X11296Y19807D02*
X11294Y19837D01*
X11289Y19868D01*
X11281Y19897D01*
X11269Y19925D01*
X11254Y19952D01*
X11237Y19977D01*
X11216Y19999D01*
X11194Y20020D01*
X11169Y20037D01*
X11142Y20052D01*
X11114Y20064D01*
X11085Y20072D01*
X11054Y20077D01*
X11024Y20079D01*
X3543Y20079D01*
X3504Y20077D01*
X3466Y20071D01*
X3429Y20062D01*
X3392Y20049D01*
X3357Y20032D01*
X3324Y20013D01*
X3293Y19990D01*
X3264Y19964D01*
X3238Y19935D01*
X3215Y19904D01*
X3196Y19871D01*
X3179Y19836D01*
X3166Y19799D01*
X3157Y19762D01*
X3151Y19724D01*
X3149Y19685D01*
X3272Y19563D02*
X3295Y19563D01*
X3272Y19563D02*
X3251Y19565D01*
X3230Y19570D01*
X3211Y19579D01*
X3194Y19592D01*
X3179Y19607D01*
X3166Y19624D01*
X3157Y19643D01*
X3152Y19664D01*
X3150Y19685D01*
X12972Y4331D02*
X12972Y3150D01*
X12972Y4331D02*
X12972Y4350D01*
X12970Y4387D01*
X12965Y4423D01*
X12956Y4459D01*
X12944Y4493D01*
X12928Y4526D01*
X12909Y4558D01*
X12887Y4587D01*
X12862Y4614D01*
X12835Y4639D01*
X12806Y4661D01*
X12774Y4680D01*
X12741Y4696D01*
X12707Y4708D01*
X12671Y4717D01*
X12635Y4722D01*
X12598Y4724D01*
X9449Y4724D01*
X1575Y4724D01*
X1575Y4725D02*
X1521Y4727D01*
X1468Y4732D01*
X1415Y4741D01*
X1363Y4754D01*
X1311Y4770D01*
X1261Y4790D01*
X1213Y4813D01*
X1166Y4840D01*
X1121Y4869D01*
X1078Y4902D01*
X1038Y4937D01*
X1000Y4975D01*
X965Y5015D01*
X932Y5058D01*
X903Y5103D01*
X876Y5150D01*
X853Y5198D01*
X833Y5248D01*
X817Y5300D01*
X804Y5352D01*
X795Y5405D01*
X790Y5458D01*
X788Y5512D01*
X787Y5512D02*
X787Y16661D01*
X782Y16762D01*
X780Y16864D01*
X782Y16965D01*
X788Y17066D01*
X798Y17167D01*
X811Y17268D01*
X828Y17368D01*
X849Y17467D01*
X874Y17566D01*
X902Y17663D01*
X934Y17759D01*
X970Y17854D01*
X1009Y17948D01*
X1051Y18040D01*
X1097Y18130D01*
X1146Y18219D01*
X1199Y18306D01*
X1255Y18391D01*
X1313Y18473D01*
X1375Y18553D01*
X1440Y18631D01*
X1508Y18707D01*
X1578Y18780D01*
X1652Y18850D01*
X1727Y18917D01*
X1806Y18982D01*
X1886Y19044D01*
X1969Y19102D01*
X2054Y19157D01*
X2141Y19210D01*
X2230Y19258D01*
X2321Y19304D01*
X2413Y19346D01*
X2507Y19385D01*
X2602Y19420D01*
X2698Y19451D01*
X2796Y19479D01*
X2894Y19503D01*
X2994Y19524D01*
X3094Y19541D01*
X3194Y19554D01*
X3295Y19563D01*
X18148Y3506D02*
X18361Y3506D01*
X18148Y3506D02*
X18108Y3508D01*
X18069Y3513D01*
X18030Y3522D01*
X17992Y3535D01*
X17956Y3551D01*
X17921Y3571D01*
X17888Y3593D01*
X17858Y3618D01*
X17829Y3647D01*
X17804Y3677D01*
X17782Y3710D01*
X17762Y3745D01*
X17746Y3781D01*
X17733Y3819D01*
X17724Y3858D01*
X17719Y3897D01*
X17717Y3937D01*
D23*
X17717Y3937D03*
D21*
X15354Y3937D02*
X15316Y3935D01*
X15278Y3930D01*
X15241Y3921D01*
X15205Y3909D01*
X15170Y3894D01*
X15137Y3875D01*
X15105Y3854D01*
X15076Y3829D01*
X15049Y3802D01*
X15024Y3773D01*
X15003Y3741D01*
X14984Y3708D01*
X14969Y3673D01*
X14957Y3637D01*
X14948Y3600D01*
X14943Y3562D01*
X14941Y3524D01*
X14941Y3150D02*
X16161Y3150D01*
X14941Y3150D02*
X14941Y3524D01*
X14943Y3562D01*
X14948Y3600D01*
X14957Y3637D01*
X14969Y3673D01*
X14984Y3708D01*
X15003Y3741D01*
X15024Y3773D01*
X15049Y3802D01*
X15076Y3829D01*
X15105Y3854D01*
X15137Y3875D01*
X15170Y3894D01*
X15205Y3909D01*
X15241Y3921D01*
X15278Y3930D01*
X15316Y3935D01*
X15354Y3937D01*
D23*
X15354Y3937D03*
X13386Y4331D03*
D21*
X12972Y4331D01*
X10650Y5512D02*
X9449Y5512D01*
X9449Y4724D01*
X14837Y2506D02*
X18361Y2506D01*
X14837Y2506D02*
X14789Y2508D01*
X14741Y2513D01*
X14694Y2522D01*
X14647Y2535D01*
X14602Y2551D01*
X14558Y2570D01*
X14515Y2592D01*
X14474Y2618D01*
X14435Y2647D01*
X14399Y2678D01*
X14365Y2712D01*
X14334Y2748D01*
X14305Y2787D01*
X14279Y2828D01*
X14257Y2871D01*
X14238Y2915D01*
X14222Y2960D01*
X14209Y3007D01*
X14200Y3054D01*
X14195Y3102D01*
X14193Y3150D01*
X14193Y5138D01*
X14195Y5175D01*
X14200Y5211D01*
X14209Y5247D01*
X14221Y5281D01*
X14237Y5314D01*
X14256Y5346D01*
X14278Y5375D01*
X14303Y5402D01*
X14330Y5427D01*
X14359Y5449D01*
X14391Y5468D01*
X14424Y5484D01*
X14458Y5496D01*
X14494Y5505D01*
X14530Y5510D01*
X14567Y5512D01*
D23*
X14567Y5512D03*
X16535Y20866D03*
D21*
X16506Y20868D01*
X16478Y20873D01*
X16450Y20882D01*
X16423Y20893D01*
X16399Y20908D01*
X16376Y20926D01*
X16355Y20947D01*
X16337Y20970D01*
X16322Y20994D01*
X16311Y21021D01*
X16302Y21049D01*
X16297Y21077D01*
X16295Y21106D01*
X16295Y21776D01*
M02*
