G04 EAGLE Gerber RS-274X export*
G75*
%MOIN*%
%FSLAX34Y34*%
%LPD*%
%INTop silk*%
%IPPOS*%
%AMOC8*
5,1,8,0,0,1.08239X$1,22.5*%
G01*
%ADD10C,0.000000*%
%ADD11C,0.006000*%
%ADD12C,0.012000*%
%ADD13C,0.010000*%
%ADD14C,0.005000*%
%ADD15C,0.002000*%
%ADD16R,0.020000X0.085000*%
%ADD17C,0.007000*%


D10*
X1181Y0D02*
X24409Y0D01*
X25591Y1181D02*
X25591Y20866D01*
X24409Y22244D02*
X1181Y22244D01*
X0Y20866D02*
X0Y1181D01*
X2Y1115D01*
X7Y1049D01*
X17Y983D01*
X30Y918D01*
X46Y854D01*
X66Y791D01*
X90Y729D01*
X117Y669D01*
X147Y610D01*
X181Y553D01*
X218Y498D01*
X258Y445D01*
X300Y394D01*
X346Y346D01*
X394Y300D01*
X445Y258D01*
X498Y218D01*
X553Y181D01*
X610Y147D01*
X669Y117D01*
X729Y90D01*
X791Y66D01*
X854Y46D01*
X918Y30D01*
X983Y17D01*
X1049Y7D01*
X1115Y2D01*
X1181Y0D01*
X24409Y0D02*
X24475Y2D01*
X24541Y7D01*
X24607Y17D01*
X24672Y30D01*
X24736Y46D01*
X24799Y66D01*
X24861Y90D01*
X24921Y117D01*
X24980Y147D01*
X25037Y181D01*
X25092Y218D01*
X25145Y258D01*
X25196Y300D01*
X25244Y346D01*
X25290Y394D01*
X25332Y445D01*
X25372Y498D01*
X25409Y553D01*
X25443Y610D01*
X25473Y669D01*
X25500Y729D01*
X25524Y791D01*
X25544Y854D01*
X25560Y918D01*
X25573Y983D01*
X25583Y1049D01*
X25588Y1115D01*
X25590Y1181D01*
X25590Y20867D02*
X25594Y20936D01*
X25593Y21005D01*
X25589Y21075D01*
X25581Y21144D01*
X25570Y21212D01*
X25555Y21280D01*
X25536Y21347D01*
X25513Y21413D01*
X25487Y21477D01*
X25458Y21540D01*
X25425Y21601D01*
X25389Y21661D01*
X25350Y21718D01*
X25307Y21773D01*
X25262Y21826D01*
X25214Y21876D01*
X25163Y21924D01*
X25110Y21969D01*
X25055Y22010D01*
X24997Y22049D01*
X24937Y22085D01*
X24876Y22117D01*
X24813Y22146D01*
X24748Y22171D01*
X24682Y22193D01*
X24615Y22211D01*
X24547Y22226D01*
X24479Y22237D01*
X24409Y22244D01*
X1182Y22244D02*
X1112Y22237D01*
X1044Y22226D01*
X976Y22211D01*
X909Y22193D01*
X843Y22171D01*
X778Y22146D01*
X715Y22117D01*
X654Y22085D01*
X594Y22049D01*
X536Y22010D01*
X481Y21969D01*
X428Y21924D01*
X377Y21876D01*
X329Y21826D01*
X284Y21773D01*
X241Y21718D01*
X202Y21661D01*
X166Y21601D01*
X133Y21540D01*
X104Y21477D01*
X78Y21413D01*
X55Y21347D01*
X36Y21280D01*
X21Y21212D01*
X10Y21144D01*
X2Y21075D01*
X-2Y21005D01*
X-3Y20936D01*
X1Y20867D01*
D11*
X1745Y6576D02*
X1852Y6469D01*
X1745Y6576D02*
X1532Y6576D01*
X1425Y6469D01*
X1425Y6042D01*
X1532Y5936D01*
X1745Y5936D01*
X1852Y6042D01*
X1852Y6256D01*
X1638Y6256D01*
X2069Y5936D02*
X2069Y6576D01*
X2390Y6576D01*
X2496Y6469D01*
X2496Y6256D01*
X2390Y6149D01*
X2069Y6149D01*
X2714Y5936D02*
X2927Y5936D01*
X2821Y5936D02*
X2821Y6576D01*
X2927Y6576D02*
X2714Y6576D01*
X3250Y6576D02*
X3464Y6576D01*
X3250Y6576D02*
X3144Y6469D01*
X3144Y6042D01*
X3250Y5936D01*
X3464Y5936D01*
X3571Y6042D01*
X3571Y6469D01*
X3464Y6576D01*
X4433Y5936D02*
X4860Y5936D01*
X4433Y5936D02*
X4860Y6363D01*
X4860Y6469D01*
X4753Y6576D01*
X4539Y6576D01*
X4433Y6469D01*
X5077Y5936D02*
X5504Y5936D01*
X5077Y5936D02*
X5504Y6363D01*
X5504Y6469D01*
X5398Y6576D01*
X5184Y6576D01*
X5077Y6469D01*
X7651Y6576D02*
X7757Y6469D01*
X7651Y6576D02*
X7437Y6576D01*
X7330Y6469D01*
X7330Y6042D01*
X7437Y5936D01*
X7651Y5936D01*
X7757Y6042D01*
X7757Y6256D01*
X7544Y6256D01*
X7975Y5936D02*
X7975Y6576D01*
X8295Y6576D01*
X8402Y6469D01*
X8402Y6256D01*
X8295Y6149D01*
X7975Y6149D01*
X8619Y5936D02*
X8833Y5936D01*
X8726Y5936D02*
X8726Y6576D01*
X8619Y6576D02*
X8833Y6576D01*
X9156Y6576D02*
X9369Y6576D01*
X9156Y6576D02*
X9049Y6469D01*
X9049Y6042D01*
X9156Y5936D01*
X9369Y5936D01*
X9476Y6042D01*
X9476Y6469D01*
X9369Y6576D01*
X10338Y5936D02*
X10765Y5936D01*
X10338Y5936D02*
X10765Y6363D01*
X10765Y6469D01*
X10658Y6576D01*
X10445Y6576D01*
X10338Y6469D01*
X10983Y6469D02*
X11090Y6576D01*
X11303Y6576D01*
X11410Y6469D01*
X11410Y6363D01*
X11303Y6256D01*
X11196Y6256D01*
X11303Y6256D02*
X11410Y6149D01*
X11410Y6042D01*
X11303Y5936D01*
X11090Y5936D01*
X10983Y6042D01*
X13556Y6576D02*
X13663Y6469D01*
X13556Y6576D02*
X13343Y6576D01*
X13236Y6469D01*
X13236Y6042D01*
X13343Y5936D01*
X13556Y5936D01*
X13663Y6042D01*
X13663Y6256D01*
X13449Y6256D01*
X13880Y5936D02*
X13880Y6576D01*
X14201Y6576D01*
X14307Y6469D01*
X14307Y6256D01*
X14201Y6149D01*
X13880Y6149D01*
X14525Y5936D02*
X14738Y5936D01*
X14632Y5936D02*
X14632Y6576D01*
X14738Y6576D02*
X14525Y6576D01*
X15061Y6576D02*
X15275Y6576D01*
X15061Y6576D02*
X14955Y6469D01*
X14955Y6042D01*
X15061Y5936D01*
X15275Y5936D01*
X15382Y6042D01*
X15382Y6469D01*
X15275Y6576D01*
X16244Y5936D02*
X16671Y5936D01*
X16244Y5936D02*
X16671Y6363D01*
X16671Y6469D01*
X16564Y6576D01*
X16350Y6576D01*
X16244Y6469D01*
X17209Y6576D02*
X17209Y5936D01*
X16888Y6256D02*
X17209Y6576D01*
X17315Y6256D02*
X16888Y6256D01*
X19855Y6576D02*
X19962Y6469D01*
X19855Y6576D02*
X19642Y6576D01*
X19535Y6469D01*
X19535Y6042D01*
X19642Y5936D01*
X19855Y5936D01*
X19962Y6042D01*
X19962Y6256D01*
X19749Y6256D01*
X20180Y5936D02*
X20180Y6576D01*
X20500Y6576D01*
X20607Y6469D01*
X20607Y6256D01*
X20500Y6149D01*
X20180Y6149D01*
X20824Y5936D02*
X21038Y5936D01*
X20931Y5936D02*
X20931Y6576D01*
X20824Y6576D02*
X21038Y6576D01*
X21361Y6576D02*
X21574Y6576D01*
X21361Y6576D02*
X21254Y6469D01*
X21254Y6042D01*
X21361Y5936D01*
X21574Y5936D01*
X21681Y6042D01*
X21681Y6469D01*
X21574Y6576D01*
X22543Y5936D02*
X22970Y5936D01*
X22543Y5936D02*
X22970Y6363D01*
X22970Y6469D01*
X22863Y6576D01*
X22650Y6576D01*
X22543Y6469D01*
X23187Y6576D02*
X23615Y6576D01*
X23187Y6576D02*
X23187Y6256D01*
X23401Y6363D01*
X23508Y6363D01*
X23615Y6256D01*
X23615Y6042D01*
X23508Y5936D01*
X23294Y5936D01*
X23187Y6042D01*
X2737Y15970D02*
X2737Y16438D01*
X2737Y15970D02*
X2970Y15737D01*
X3204Y15970D01*
X3204Y16438D01*
X3436Y16204D02*
X3553Y16204D01*
X3553Y15737D01*
X3436Y15737D02*
X3670Y15737D01*
X3553Y16438D02*
X3553Y16554D01*
X3903Y15737D02*
X4253Y15737D01*
X4370Y15854D01*
X4253Y15970D01*
X4020Y15970D01*
X3903Y16087D01*
X4020Y16204D01*
X4370Y16204D01*
X4603Y16204D02*
X4719Y16204D01*
X4719Y15737D01*
X4603Y15737D02*
X4836Y15737D01*
X4719Y16438D02*
X4719Y16554D01*
X5186Y16321D02*
X5186Y15854D01*
X5303Y15737D01*
X5303Y16204D02*
X5069Y16204D01*
X6236Y16438D02*
X6236Y15737D01*
X6236Y16087D02*
X6352Y16204D01*
X6586Y16204D01*
X6703Y16087D01*
X6703Y15737D01*
X7052Y15854D02*
X7052Y16321D01*
X7052Y15854D02*
X7169Y15737D01*
X7169Y16204D02*
X6935Y16204D01*
X7519Y16321D02*
X7519Y15854D01*
X7635Y15737D01*
X7635Y16204D02*
X7402Y16204D01*
X7868Y16204D02*
X7868Y15503D01*
X7868Y16204D02*
X8219Y16204D01*
X8335Y16087D01*
X8335Y15854D01*
X8219Y15737D01*
X7868Y15737D01*
X8568Y15737D02*
X8918Y15737D01*
X9035Y15854D01*
X8918Y15970D01*
X8685Y15970D01*
X8568Y16087D01*
X8685Y16204D01*
X9035Y16204D01*
X9268Y16204D02*
X9385Y16204D01*
X9385Y16087D01*
X9268Y16087D01*
X9268Y16204D01*
X9268Y15854D02*
X9385Y15854D01*
X9385Y15737D01*
X9268Y15737D01*
X9268Y15854D01*
X9618Y15737D02*
X10085Y16438D01*
X10785Y16438D02*
X10318Y15737D01*
X11017Y15503D02*
X11017Y16204D01*
X11368Y16204D01*
X11485Y16087D01*
X11485Y15854D01*
X11368Y15737D01*
X11017Y15737D01*
X11717Y16204D02*
X11834Y16204D01*
X11834Y15737D01*
X11717Y15737D02*
X11951Y15737D01*
X11834Y16438D02*
X11834Y16554D01*
X12184Y15737D02*
X12534Y15737D01*
X12651Y15854D01*
X12534Y15970D01*
X12301Y15970D01*
X12184Y16087D01*
X12301Y16204D01*
X12651Y16204D01*
X12884Y16204D02*
X12884Y15854D01*
X13000Y15737D01*
X13351Y15737D01*
X13351Y16204D01*
X13583Y16204D02*
X13583Y15503D01*
X13583Y16204D02*
X13934Y16204D01*
X14050Y16087D01*
X14050Y15854D01*
X13934Y15737D01*
X13583Y15737D01*
X14283Y15503D02*
X14283Y16204D01*
X14633Y16204D01*
X14750Y16087D01*
X14750Y15854D01*
X14633Y15737D01*
X14283Y15737D01*
X14983Y15737D02*
X14983Y15854D01*
X15100Y15854D01*
X15100Y15737D01*
X14983Y15737D01*
X15333Y16438D02*
X15450Y16438D01*
X15450Y15737D01*
X15566Y15737D02*
X15333Y15737D01*
X15799Y15854D02*
X15799Y16204D01*
X15799Y15854D02*
X15916Y15737D01*
X16266Y15737D01*
X16266Y15620D02*
X16266Y16204D01*
X16266Y15620D02*
X16150Y15503D01*
X16033Y15503D01*
X16499Y15737D02*
X16966Y16438D01*
X17316Y16321D02*
X17316Y15854D01*
X17433Y15737D01*
X17433Y16204D02*
X17199Y16204D01*
X17666Y16204D02*
X17666Y15737D01*
X17666Y15970D02*
X17899Y16204D01*
X18016Y16204D01*
X18365Y16204D02*
X18599Y16204D01*
X18716Y16087D01*
X18716Y15737D01*
X18365Y15737D01*
X18249Y15854D01*
X18365Y15970D01*
X18716Y15970D01*
X19065Y15737D02*
X19065Y16321D01*
X19182Y16438D01*
X19182Y16087D02*
X18948Y16087D01*
X19532Y16321D02*
X19532Y15737D01*
X19532Y16321D02*
X19649Y16438D01*
X19649Y16087D02*
X19415Y16087D01*
X19882Y16204D02*
X19998Y16204D01*
X19998Y15737D01*
X19882Y15737D02*
X20115Y15737D01*
X19998Y16438D02*
X19998Y16554D01*
X20465Y16204D02*
X20815Y16204D01*
X20465Y16204D02*
X20348Y16087D01*
X20348Y15854D01*
X20465Y15737D01*
X20815Y15737D01*
X21048Y15737D02*
X21048Y16438D01*
X21165Y16204D02*
X21048Y16087D01*
X21165Y16204D02*
X21398Y16204D01*
X21515Y16087D01*
X21515Y15737D01*
X21864Y16204D02*
X22098Y16204D01*
X22215Y16087D01*
X22215Y15737D01*
X21864Y15737D01*
X21748Y15854D01*
X21864Y15970D01*
X22215Y15970D01*
X22564Y15854D02*
X22564Y16321D01*
X22564Y15854D02*
X22681Y15737D01*
X22681Y16204D02*
X22447Y16204D01*
X5536Y15298D02*
X5536Y14597D01*
X5536Y15298D02*
X6003Y15298D01*
X5769Y14947D02*
X5536Y14947D01*
X6352Y14597D02*
X6586Y14597D01*
X6703Y14714D01*
X6703Y14947D01*
X6586Y15064D01*
X6352Y15064D01*
X6236Y14947D01*
X6236Y14714D01*
X6352Y14597D01*
X6935Y14597D02*
X6935Y15064D01*
X6935Y14830D02*
X7169Y15064D01*
X7286Y15064D01*
X8218Y15298D02*
X8218Y14597D01*
X8218Y15298D02*
X8569Y15298D01*
X8685Y15181D01*
X8685Y14947D01*
X8569Y14830D01*
X8218Y14830D01*
X8918Y14597D02*
X8918Y15064D01*
X8918Y14830D02*
X9152Y15064D01*
X9268Y15064D01*
X9618Y14597D02*
X9852Y14597D01*
X9968Y14714D01*
X9968Y14947D01*
X9852Y15064D01*
X9618Y15064D01*
X9501Y14947D01*
X9501Y14714D01*
X9618Y14597D01*
X10435Y14363D02*
X10551Y14363D01*
X10668Y14480D01*
X10668Y15064D01*
X10318Y15064D01*
X10201Y14947D01*
X10201Y14714D01*
X10318Y14597D01*
X10668Y14597D01*
X10901Y14597D02*
X10901Y15064D01*
X11134Y15064D02*
X10901Y14830D01*
X11134Y15064D02*
X11251Y15064D01*
X11601Y15064D02*
X11834Y15064D01*
X11951Y14947D01*
X11951Y14597D01*
X11601Y14597D01*
X11484Y14714D01*
X11601Y14830D01*
X11951Y14830D01*
X12184Y14597D02*
X12184Y15064D01*
X12301Y15064D01*
X12417Y14947D01*
X12417Y14597D01*
X12417Y14947D02*
X12534Y15064D01*
X12651Y14947D01*
X12651Y14597D01*
X12884Y14597D02*
X12884Y15064D01*
X13000Y15064D01*
X13117Y14947D01*
X13117Y14597D01*
X13117Y14947D02*
X13234Y15064D01*
X13351Y14947D01*
X13351Y14597D01*
X13583Y15064D02*
X13700Y15064D01*
X13700Y14597D01*
X13583Y14597D02*
X13817Y14597D01*
X13700Y15298D02*
X13700Y15414D01*
X14050Y15064D02*
X14050Y14597D01*
X14050Y15064D02*
X14400Y15064D01*
X14517Y14947D01*
X14517Y14597D01*
X14983Y14363D02*
X15100Y14363D01*
X15217Y14480D01*
X15217Y15064D01*
X14866Y15064D01*
X14750Y14947D01*
X14750Y14714D01*
X14866Y14597D01*
X15217Y14597D01*
X16500Y15298D02*
X16616Y15181D01*
X16500Y15298D02*
X16266Y15298D01*
X16149Y15181D01*
X16149Y14714D01*
X16266Y14597D01*
X16500Y14597D01*
X16616Y14714D01*
X16616Y14947D01*
X16383Y14947D01*
X16849Y15064D02*
X16849Y14714D01*
X16966Y14597D01*
X17316Y14597D01*
X17316Y15064D01*
X17549Y15064D02*
X17666Y15064D01*
X17666Y14597D01*
X17782Y14597D02*
X17549Y14597D01*
X17666Y15298D02*
X17666Y15414D01*
X18482Y15298D02*
X18482Y14597D01*
X18132Y14597D01*
X18015Y14714D01*
X18015Y14947D01*
X18132Y15064D01*
X18482Y15064D01*
X18832Y14597D02*
X19066Y14597D01*
X18832Y14597D02*
X18715Y14714D01*
X18715Y14947D01*
X18832Y15064D01*
X19066Y15064D01*
X19182Y14947D01*
X19182Y14830D01*
X18715Y14830D01*
X19415Y14597D02*
X19765Y14597D01*
X19882Y14714D01*
X19765Y14830D01*
X19532Y14830D01*
X19415Y14947D01*
X19532Y15064D01*
X19882Y15064D01*
D12*
X7019Y19351D02*
X7019Y20733D01*
X7479Y20733D02*
X6558Y20733D01*
X7939Y20272D02*
X7939Y19351D01*
X7939Y19812D02*
X8400Y20272D01*
X8630Y20272D01*
X9321Y20272D02*
X9781Y20272D01*
X10011Y20042D01*
X10011Y19351D01*
X9321Y19351D01*
X9090Y19582D01*
X9321Y19812D01*
X10011Y19812D01*
X10702Y19351D02*
X10702Y20502D01*
X10932Y20733D01*
X10932Y20042D02*
X10472Y20042D01*
X11623Y20502D02*
X11623Y19351D01*
X11623Y20502D02*
X11853Y20733D01*
X11853Y20042D02*
X11392Y20042D01*
X12313Y20272D02*
X12543Y20272D01*
X12543Y19351D01*
X12313Y19351D02*
X12774Y19351D01*
X12543Y20733D02*
X12543Y20963D01*
X13464Y20272D02*
X14155Y20272D01*
X13464Y20272D02*
X13234Y20042D01*
X13234Y19582D01*
X13464Y19351D01*
X14155Y19351D01*
X14615Y19351D02*
X14615Y20733D01*
X14615Y20042D02*
X15536Y20042D01*
X15536Y20733D02*
X15536Y19351D01*
X15996Y19351D02*
X15996Y20272D01*
X16457Y20733D01*
X16917Y20272D01*
X16917Y19351D01*
X16917Y20042D02*
X15996Y20042D01*
X17838Y19351D02*
X17838Y20733D01*
X18298Y20733D02*
X17377Y20733D01*
D11*
X8760Y1064D02*
X8867Y957D01*
X8760Y1064D02*
X8547Y1064D01*
X8440Y957D01*
X8440Y530D01*
X8547Y424D01*
X8760Y424D01*
X8867Y530D01*
X8867Y744D01*
X8654Y744D01*
X9085Y424D02*
X9085Y1064D01*
X9405Y1064D01*
X9512Y957D01*
X9512Y744D01*
X9405Y637D01*
X9085Y637D01*
X9729Y424D02*
X9943Y424D01*
X9836Y424D02*
X9836Y1064D01*
X9729Y1064D02*
X9943Y1064D01*
X10266Y1064D02*
X10479Y1064D01*
X10266Y1064D02*
X10159Y957D01*
X10159Y530D01*
X10266Y424D01*
X10479Y424D01*
X10586Y530D01*
X10586Y957D01*
X10479Y1064D01*
X11448Y1064D02*
X11875Y1064D01*
X11448Y1064D02*
X11448Y744D01*
X11661Y851D01*
X11768Y851D01*
X11875Y744D01*
X11875Y530D01*
X11768Y424D01*
X11555Y424D01*
X11448Y530D01*
D10*
X827Y20669D02*
X829Y20716D01*
X835Y20762D01*
X845Y20808D01*
X858Y20853D01*
X876Y20896D01*
X897Y20938D01*
X921Y20978D01*
X949Y21015D01*
X980Y21050D01*
X1014Y21083D01*
X1050Y21112D01*
X1089Y21138D01*
X1130Y21161D01*
X1173Y21180D01*
X1217Y21196D01*
X1262Y21208D01*
X1308Y21216D01*
X1355Y21220D01*
X1401Y21220D01*
X1448Y21216D01*
X1494Y21208D01*
X1539Y21196D01*
X1583Y21180D01*
X1626Y21161D01*
X1667Y21138D01*
X1706Y21112D01*
X1742Y21083D01*
X1776Y21050D01*
X1807Y21015D01*
X1835Y20978D01*
X1859Y20938D01*
X1880Y20896D01*
X1898Y20853D01*
X1911Y20808D01*
X1921Y20762D01*
X1927Y20716D01*
X1929Y20669D01*
X1927Y20622D01*
X1921Y20576D01*
X1911Y20530D01*
X1898Y20485D01*
X1880Y20442D01*
X1859Y20400D01*
X1835Y20360D01*
X1807Y20323D01*
X1776Y20288D01*
X1742Y20255D01*
X1706Y20226D01*
X1667Y20200D01*
X1626Y20177D01*
X1583Y20158D01*
X1539Y20142D01*
X1494Y20130D01*
X1448Y20122D01*
X1401Y20118D01*
X1355Y20118D01*
X1308Y20122D01*
X1262Y20130D01*
X1217Y20142D01*
X1173Y20158D01*
X1130Y20177D01*
X1089Y20200D01*
X1050Y20226D01*
X1014Y20255D01*
X980Y20288D01*
X949Y20323D01*
X921Y20360D01*
X897Y20400D01*
X876Y20442D01*
X858Y20485D01*
X845Y20530D01*
X835Y20576D01*
X829Y20622D01*
X827Y20669D01*
X23662Y20669D02*
X23664Y20716D01*
X23670Y20762D01*
X23680Y20808D01*
X23693Y20853D01*
X23711Y20896D01*
X23732Y20938D01*
X23756Y20978D01*
X23784Y21015D01*
X23815Y21050D01*
X23849Y21083D01*
X23885Y21112D01*
X23924Y21138D01*
X23965Y21161D01*
X24008Y21180D01*
X24052Y21196D01*
X24097Y21208D01*
X24143Y21216D01*
X24190Y21220D01*
X24236Y21220D01*
X24283Y21216D01*
X24329Y21208D01*
X24374Y21196D01*
X24418Y21180D01*
X24461Y21161D01*
X24502Y21138D01*
X24541Y21112D01*
X24577Y21083D01*
X24611Y21050D01*
X24642Y21015D01*
X24670Y20978D01*
X24694Y20938D01*
X24715Y20896D01*
X24733Y20853D01*
X24746Y20808D01*
X24756Y20762D01*
X24762Y20716D01*
X24764Y20669D01*
X24762Y20622D01*
X24756Y20576D01*
X24746Y20530D01*
X24733Y20485D01*
X24715Y20442D01*
X24694Y20400D01*
X24670Y20360D01*
X24642Y20323D01*
X24611Y20288D01*
X24577Y20255D01*
X24541Y20226D01*
X24502Y20200D01*
X24461Y20177D01*
X24418Y20158D01*
X24374Y20142D01*
X24329Y20130D01*
X24283Y20122D01*
X24236Y20118D01*
X24190Y20118D01*
X24143Y20122D01*
X24097Y20130D01*
X24052Y20142D01*
X24008Y20158D01*
X23965Y20177D01*
X23924Y20200D01*
X23885Y20226D01*
X23849Y20255D01*
X23815Y20288D01*
X23784Y20323D01*
X23756Y20360D01*
X23732Y20400D01*
X23711Y20442D01*
X23693Y20485D01*
X23680Y20530D01*
X23670Y20576D01*
X23664Y20622D01*
X23662Y20669D01*
X827Y1378D02*
X829Y1425D01*
X835Y1471D01*
X845Y1517D01*
X858Y1562D01*
X876Y1605D01*
X897Y1647D01*
X921Y1687D01*
X949Y1724D01*
X980Y1759D01*
X1014Y1792D01*
X1050Y1821D01*
X1089Y1847D01*
X1130Y1870D01*
X1173Y1889D01*
X1217Y1905D01*
X1262Y1917D01*
X1308Y1925D01*
X1355Y1929D01*
X1401Y1929D01*
X1448Y1925D01*
X1494Y1917D01*
X1539Y1905D01*
X1583Y1889D01*
X1626Y1870D01*
X1667Y1847D01*
X1706Y1821D01*
X1742Y1792D01*
X1776Y1759D01*
X1807Y1724D01*
X1835Y1687D01*
X1859Y1647D01*
X1880Y1605D01*
X1898Y1562D01*
X1911Y1517D01*
X1921Y1471D01*
X1927Y1425D01*
X1929Y1378D01*
X1927Y1331D01*
X1921Y1285D01*
X1911Y1239D01*
X1898Y1194D01*
X1880Y1151D01*
X1859Y1109D01*
X1835Y1069D01*
X1807Y1032D01*
X1776Y997D01*
X1742Y964D01*
X1706Y935D01*
X1667Y909D01*
X1626Y886D01*
X1583Y867D01*
X1539Y851D01*
X1494Y839D01*
X1448Y831D01*
X1401Y827D01*
X1355Y827D01*
X1308Y831D01*
X1262Y839D01*
X1217Y851D01*
X1173Y867D01*
X1130Y886D01*
X1089Y909D01*
X1050Y935D01*
X1014Y964D01*
X980Y997D01*
X949Y1032D01*
X921Y1069D01*
X897Y1109D01*
X876Y1151D01*
X858Y1194D01*
X845Y1239D01*
X835Y1285D01*
X829Y1331D01*
X827Y1378D01*
X23662Y1378D02*
X23664Y1425D01*
X23670Y1471D01*
X23680Y1517D01*
X23693Y1562D01*
X23711Y1605D01*
X23732Y1647D01*
X23756Y1687D01*
X23784Y1724D01*
X23815Y1759D01*
X23849Y1792D01*
X23885Y1821D01*
X23924Y1847D01*
X23965Y1870D01*
X24008Y1889D01*
X24052Y1905D01*
X24097Y1917D01*
X24143Y1925D01*
X24190Y1929D01*
X24236Y1929D01*
X24283Y1925D01*
X24329Y1917D01*
X24374Y1905D01*
X24418Y1889D01*
X24461Y1870D01*
X24502Y1847D01*
X24541Y1821D01*
X24577Y1792D01*
X24611Y1759D01*
X24642Y1724D01*
X24670Y1687D01*
X24694Y1647D01*
X24715Y1605D01*
X24733Y1562D01*
X24746Y1517D01*
X24756Y1471D01*
X24762Y1425D01*
X24764Y1378D01*
X24762Y1331D01*
X24756Y1285D01*
X24746Y1239D01*
X24733Y1194D01*
X24715Y1151D01*
X24694Y1109D01*
X24670Y1069D01*
X24642Y1032D01*
X24611Y997D01*
X24577Y964D01*
X24541Y935D01*
X24502Y909D01*
X24461Y886D01*
X24418Y867D01*
X24374Y851D01*
X24329Y839D01*
X24283Y831D01*
X24236Y827D01*
X24190Y827D01*
X24143Y831D01*
X24097Y839D01*
X24052Y851D01*
X24008Y867D01*
X23965Y886D01*
X23924Y909D01*
X23885Y935D01*
X23849Y964D01*
X23815Y997D01*
X23784Y1032D01*
X23756Y1069D01*
X23732Y1109D01*
X23711Y1151D01*
X23693Y1194D01*
X23680Y1239D01*
X23670Y1285D01*
X23664Y1331D01*
X23662Y1378D01*
D13*
X5543Y10122D02*
X5499Y10039D01*
X5452Y9958D01*
X5402Y9880D01*
X5348Y9803D01*
X5292Y9728D01*
X5232Y9657D01*
X5169Y9587D01*
X5103Y9521D01*
X5035Y9457D01*
X4964Y9396D01*
X4891Y9338D01*
X4815Y9283D01*
X4737Y9231D01*
X4657Y9183D01*
X4575Y9138D01*
X4491Y9097D01*
X4405Y9059D01*
X4318Y9025D01*
X4230Y8994D01*
X4140Y8967D01*
X4049Y8944D01*
X3958Y8925D01*
X3866Y8909D01*
X3773Y8898D01*
X3679Y8890D01*
X3586Y8886D01*
X3492Y8887D01*
X3399Y8891D01*
X3306Y8899D01*
X3213Y8910D01*
X3121Y8926D01*
X3029Y8946D01*
X2939Y8969D01*
X2849Y8996D01*
X2761Y9027D01*
X2674Y9062D01*
X2588Y9100D01*
X2505Y9142D01*
X2423Y9187D01*
X2343Y9235D01*
X2265Y9287D01*
X2189Y9342D01*
X2116Y9400D01*
X2045Y9462D01*
X1977Y9526D01*
X1912Y9593D01*
X1849Y9662D01*
X1790Y9734D01*
X1733Y9809D01*
X1680Y9886D01*
X1630Y9965D01*
X1583Y10046D01*
X1540Y10129D01*
X1500Y10213D01*
X1464Y10300D01*
X1431Y10387D01*
X1402Y10476D01*
X1377Y10567D01*
X1356Y10658D01*
X1338Y10750D01*
X1325Y10842D01*
X1315Y10935D01*
X1309Y11028D01*
X1307Y11122D01*
X1309Y11216D01*
X1315Y11309D01*
X1325Y11402D01*
X1338Y11494D01*
X1356Y11586D01*
X1377Y11677D01*
X1402Y11768D01*
X1431Y11857D01*
X1464Y11944D01*
X1500Y12031D01*
X1540Y12115D01*
X1583Y12198D01*
X1630Y12279D01*
X1680Y12358D01*
X1733Y12435D01*
X1790Y12510D01*
X1849Y12582D01*
X1912Y12651D01*
X1977Y12718D01*
X2045Y12782D01*
X2116Y12844D01*
X2189Y12902D01*
X2265Y12957D01*
X2343Y13009D01*
X2423Y13057D01*
X2505Y13102D01*
X2588Y13144D01*
X2674Y13182D01*
X2761Y13217D01*
X2849Y13248D01*
X2939Y13275D01*
X3029Y13298D01*
X3121Y13318D01*
X3213Y13334D01*
X3306Y13345D01*
X3399Y13353D01*
X3492Y13357D01*
X3586Y13358D01*
X3679Y13354D01*
X3773Y13346D01*
X3866Y13335D01*
X3958Y13319D01*
X4049Y13300D01*
X4140Y13277D01*
X4230Y13250D01*
X4318Y13219D01*
X4405Y13185D01*
X4491Y13147D01*
X4575Y13106D01*
X4657Y13061D01*
X4737Y13013D01*
X4815Y12961D01*
X4891Y12906D01*
X4964Y12848D01*
X5035Y12787D01*
X5103Y12723D01*
X5169Y12657D01*
X5232Y12587D01*
X5292Y12516D01*
X5348Y12441D01*
X5402Y12364D01*
X5452Y12286D01*
X5499Y12205D01*
X5543Y12122D01*
D14*
X5293Y11122D02*
X5291Y11041D01*
X5286Y10961D01*
X5276Y10880D01*
X5263Y10800D01*
X5247Y10721D01*
X5226Y10643D01*
X5202Y10566D01*
X5175Y10490D01*
X5144Y10415D01*
X5110Y10342D01*
X5072Y10270D01*
X5031Y10201D01*
X4987Y10133D01*
X4940Y10067D01*
X4889Y10004D01*
X4836Y9943D01*
X4780Y9885D01*
X4722Y9829D01*
X4661Y9776D01*
X4598Y9725D01*
X4532Y9678D01*
X4464Y9634D01*
X4395Y9593D01*
X4323Y9555D01*
X4250Y9521D01*
X4175Y9490D01*
X4099Y9463D01*
X4022Y9439D01*
X3944Y9418D01*
X3865Y9402D01*
X3785Y9389D01*
X3704Y9379D01*
X3624Y9374D01*
X3543Y9372D01*
X3543Y9622D02*
X3619Y9624D01*
X3695Y9630D01*
X3770Y9639D01*
X3845Y9653D01*
X3919Y9670D01*
X3992Y9691D01*
X4064Y9715D01*
X4135Y9744D01*
X4204Y9775D01*
X4271Y9810D01*
X4336Y9849D01*
X4400Y9891D01*
X4461Y9936D01*
X4520Y9984D01*
X4576Y10035D01*
X4630Y10089D01*
X4681Y10145D01*
X4729Y10204D01*
X4774Y10265D01*
X4816Y10329D01*
X4855Y10394D01*
X4890Y10461D01*
X4921Y10530D01*
X4950Y10601D01*
X4974Y10673D01*
X4995Y10746D01*
X5012Y10820D01*
X5026Y10895D01*
X5035Y10970D01*
X5041Y11046D01*
X5043Y11122D01*
X4793Y11122D02*
X4791Y11054D01*
X4786Y10987D01*
X4777Y10920D01*
X4764Y10853D01*
X4747Y10788D01*
X4728Y10723D01*
X4704Y10659D01*
X4677Y10597D01*
X4647Y10536D01*
X4614Y10478D01*
X4578Y10421D01*
X4538Y10366D01*
X4496Y10313D01*
X4450Y10262D01*
X4403Y10215D01*
X4352Y10169D01*
X4299Y10127D01*
X4244Y10087D01*
X4187Y10051D01*
X4129Y10018D01*
X4068Y9988D01*
X4006Y9961D01*
X3942Y9937D01*
X3877Y9918D01*
X3812Y9901D01*
X3745Y9888D01*
X3678Y9879D01*
X3611Y9874D01*
X3543Y9872D01*
X3543Y10122D02*
X3603Y10124D01*
X3664Y10129D01*
X3723Y10138D01*
X3782Y10151D01*
X3841Y10167D01*
X3898Y10187D01*
X3953Y10210D01*
X4008Y10237D01*
X4060Y10266D01*
X4111Y10299D01*
X4160Y10335D01*
X4206Y10373D01*
X4250Y10415D01*
X4292Y10459D01*
X4330Y10505D01*
X4366Y10554D01*
X4399Y10605D01*
X4428Y10657D01*
X4455Y10712D01*
X4478Y10767D01*
X4498Y10824D01*
X4514Y10883D01*
X4527Y10942D01*
X4536Y11001D01*
X4541Y11062D01*
X4543Y11122D01*
X3543Y12872D02*
X3462Y12870D01*
X3382Y12865D01*
X3301Y12855D01*
X3221Y12842D01*
X3142Y12826D01*
X3064Y12805D01*
X2987Y12781D01*
X2911Y12754D01*
X2836Y12723D01*
X2763Y12689D01*
X2691Y12651D01*
X2622Y12610D01*
X2554Y12566D01*
X2488Y12519D01*
X2425Y12468D01*
X2364Y12415D01*
X2306Y12359D01*
X2250Y12301D01*
X2197Y12240D01*
X2146Y12177D01*
X2099Y12111D01*
X2055Y12043D01*
X2014Y11974D01*
X1976Y11902D01*
X1942Y11829D01*
X1911Y11754D01*
X1884Y11678D01*
X1860Y11601D01*
X1839Y11523D01*
X1823Y11444D01*
X1810Y11364D01*
X1800Y11283D01*
X1795Y11203D01*
X1793Y11122D01*
X2043Y11122D02*
X2045Y11198D01*
X2051Y11274D01*
X2060Y11349D01*
X2074Y11424D01*
X2091Y11498D01*
X2112Y11571D01*
X2136Y11643D01*
X2165Y11714D01*
X2196Y11783D01*
X2231Y11850D01*
X2270Y11915D01*
X2312Y11979D01*
X2357Y12040D01*
X2405Y12099D01*
X2456Y12155D01*
X2510Y12209D01*
X2566Y12260D01*
X2625Y12308D01*
X2686Y12353D01*
X2750Y12395D01*
X2815Y12434D01*
X2882Y12469D01*
X2951Y12500D01*
X3022Y12529D01*
X3094Y12553D01*
X3167Y12574D01*
X3241Y12591D01*
X3316Y12605D01*
X3391Y12614D01*
X3467Y12620D01*
X3543Y12622D01*
X3543Y12372D02*
X3475Y12370D01*
X3408Y12365D01*
X3341Y12356D01*
X3274Y12343D01*
X3209Y12326D01*
X3144Y12307D01*
X3080Y12283D01*
X3018Y12256D01*
X2957Y12226D01*
X2899Y12193D01*
X2842Y12157D01*
X2787Y12117D01*
X2734Y12075D01*
X2683Y12029D01*
X2636Y11982D01*
X2590Y11931D01*
X2548Y11878D01*
X2508Y11823D01*
X2472Y11766D01*
X2439Y11708D01*
X2409Y11647D01*
X2382Y11585D01*
X2358Y11521D01*
X2339Y11456D01*
X2322Y11391D01*
X2309Y11324D01*
X2300Y11257D01*
X2295Y11190D01*
X2293Y11122D01*
X2543Y11122D02*
X2545Y11182D01*
X2550Y11243D01*
X2559Y11302D01*
X2572Y11361D01*
X2588Y11420D01*
X2608Y11477D01*
X2631Y11532D01*
X2658Y11587D01*
X2687Y11639D01*
X2720Y11690D01*
X2756Y11739D01*
X2794Y11785D01*
X2836Y11829D01*
X2880Y11871D01*
X2926Y11909D01*
X2975Y11945D01*
X3026Y11978D01*
X3078Y12007D01*
X3133Y12034D01*
X3188Y12057D01*
X3245Y12077D01*
X3304Y12093D01*
X3363Y12106D01*
X3422Y12115D01*
X3483Y12120D01*
X3543Y12122D01*
D13*
X5543Y12122D02*
X5543Y10122D01*
D14*
X1543Y11122D02*
X1545Y11211D01*
X1551Y11300D01*
X1561Y11389D01*
X1575Y11477D01*
X1592Y11564D01*
X1614Y11650D01*
X1640Y11736D01*
X1669Y11820D01*
X1702Y11903D01*
X1738Y11984D01*
X1779Y12064D01*
X1822Y12141D01*
X1869Y12217D01*
X1920Y12290D01*
X1973Y12361D01*
X2030Y12430D01*
X2090Y12496D01*
X2153Y12560D01*
X2218Y12620D01*
X2286Y12678D01*
X2357Y12732D01*
X2430Y12783D01*
X2505Y12831D01*
X2582Y12876D01*
X2661Y12917D01*
X2742Y12954D01*
X2824Y12988D01*
X2908Y13019D01*
X2993Y13045D01*
X3079Y13068D01*
X3166Y13086D01*
X3254Y13101D01*
X3343Y13112D01*
X3432Y13119D01*
X3521Y13122D01*
X3610Y13121D01*
X3699Y13116D01*
X3787Y13107D01*
X3876Y13094D01*
X3963Y13077D01*
X4050Y13057D01*
X4136Y13032D01*
X4220Y13004D01*
X4303Y12972D01*
X4385Y12936D01*
X4465Y12897D01*
X4543Y12854D01*
X4619Y12808D01*
X4693Y12758D01*
X4765Y12705D01*
X4834Y12649D01*
X4901Y12590D01*
X4965Y12528D01*
X5026Y12464D01*
X5085Y12396D01*
X5140Y12326D01*
X5192Y12254D01*
X5241Y12179D01*
X5286Y12103D01*
X5328Y12024D01*
X5366Y11944D01*
X5401Y11862D01*
X5432Y11778D01*
X5460Y11693D01*
X5483Y11607D01*
X5503Y11520D01*
X5519Y11433D01*
X5531Y11344D01*
X5539Y11256D01*
X5543Y11167D01*
X5543Y11077D01*
X5539Y10988D01*
X5531Y10900D01*
X5519Y10811D01*
X5503Y10724D01*
X5483Y10637D01*
X5460Y10551D01*
X5432Y10466D01*
X5401Y10382D01*
X5366Y10300D01*
X5328Y10220D01*
X5286Y10141D01*
X5241Y10065D01*
X5192Y9990D01*
X5140Y9918D01*
X5085Y9848D01*
X5026Y9780D01*
X4965Y9716D01*
X4901Y9654D01*
X4834Y9595D01*
X4765Y9539D01*
X4693Y9486D01*
X4619Y9436D01*
X4543Y9390D01*
X4465Y9347D01*
X4385Y9308D01*
X4303Y9272D01*
X4220Y9240D01*
X4136Y9212D01*
X4050Y9187D01*
X3963Y9167D01*
X3876Y9150D01*
X3787Y9137D01*
X3699Y9128D01*
X3610Y9123D01*
X3521Y9122D01*
X3432Y9125D01*
X3343Y9132D01*
X3254Y9143D01*
X3166Y9158D01*
X3079Y9176D01*
X2993Y9199D01*
X2908Y9225D01*
X2824Y9256D01*
X2742Y9290D01*
X2661Y9327D01*
X2582Y9368D01*
X2505Y9413D01*
X2430Y9461D01*
X2357Y9512D01*
X2286Y9566D01*
X2218Y9624D01*
X2153Y9684D01*
X2090Y9748D01*
X2030Y9814D01*
X1973Y9883D01*
X1920Y9954D01*
X1869Y10027D01*
X1822Y10103D01*
X1779Y10180D01*
X1738Y10260D01*
X1702Y10341D01*
X1669Y10424D01*
X1640Y10508D01*
X1614Y10594D01*
X1592Y10680D01*
X1575Y10767D01*
X1561Y10855D01*
X1551Y10944D01*
X1545Y11033D01*
X1543Y11122D01*
D11*
X2284Y7757D02*
X2284Y7117D01*
X2711Y7117D01*
X2929Y7757D02*
X3356Y7757D01*
X2929Y7757D02*
X2929Y7117D01*
X3356Y7117D01*
X3142Y7437D02*
X2929Y7437D01*
X3573Y7757D02*
X3573Y7117D01*
X3894Y7117D01*
X4000Y7223D01*
X4000Y7650D01*
X3894Y7757D01*
X3573Y7757D01*
X4218Y7544D02*
X4431Y7757D01*
X4431Y7117D01*
X4218Y7117D02*
X4645Y7117D01*
D13*
X11449Y10122D02*
X11405Y10039D01*
X11358Y9958D01*
X11308Y9880D01*
X11254Y9803D01*
X11198Y9728D01*
X11138Y9657D01*
X11075Y9587D01*
X11009Y9521D01*
X10941Y9457D01*
X10870Y9396D01*
X10797Y9338D01*
X10721Y9283D01*
X10643Y9231D01*
X10563Y9183D01*
X10481Y9138D01*
X10397Y9097D01*
X10311Y9059D01*
X10224Y9025D01*
X10136Y8994D01*
X10046Y8967D01*
X9955Y8944D01*
X9864Y8925D01*
X9772Y8909D01*
X9679Y8898D01*
X9585Y8890D01*
X9492Y8886D01*
X9398Y8887D01*
X9305Y8891D01*
X9212Y8899D01*
X9119Y8910D01*
X9027Y8926D01*
X8935Y8946D01*
X8845Y8969D01*
X8755Y8996D01*
X8667Y9027D01*
X8580Y9062D01*
X8494Y9100D01*
X8411Y9142D01*
X8329Y9187D01*
X8249Y9235D01*
X8171Y9287D01*
X8095Y9342D01*
X8022Y9400D01*
X7951Y9462D01*
X7883Y9526D01*
X7818Y9593D01*
X7755Y9662D01*
X7696Y9734D01*
X7639Y9809D01*
X7586Y9886D01*
X7536Y9965D01*
X7489Y10046D01*
X7446Y10129D01*
X7406Y10213D01*
X7370Y10300D01*
X7337Y10387D01*
X7308Y10476D01*
X7283Y10567D01*
X7262Y10658D01*
X7244Y10750D01*
X7231Y10842D01*
X7221Y10935D01*
X7215Y11028D01*
X7213Y11122D01*
X7215Y11216D01*
X7221Y11309D01*
X7231Y11402D01*
X7244Y11494D01*
X7262Y11586D01*
X7283Y11677D01*
X7308Y11768D01*
X7337Y11857D01*
X7370Y11944D01*
X7406Y12031D01*
X7446Y12115D01*
X7489Y12198D01*
X7536Y12279D01*
X7586Y12358D01*
X7639Y12435D01*
X7696Y12510D01*
X7755Y12582D01*
X7818Y12651D01*
X7883Y12718D01*
X7951Y12782D01*
X8022Y12844D01*
X8095Y12902D01*
X8171Y12957D01*
X8249Y13009D01*
X8329Y13057D01*
X8411Y13102D01*
X8494Y13144D01*
X8580Y13182D01*
X8667Y13217D01*
X8755Y13248D01*
X8845Y13275D01*
X8935Y13298D01*
X9027Y13318D01*
X9119Y13334D01*
X9212Y13345D01*
X9305Y13353D01*
X9398Y13357D01*
X9492Y13358D01*
X9585Y13354D01*
X9679Y13346D01*
X9772Y13335D01*
X9864Y13319D01*
X9955Y13300D01*
X10046Y13277D01*
X10136Y13250D01*
X10224Y13219D01*
X10311Y13185D01*
X10397Y13147D01*
X10481Y13106D01*
X10563Y13061D01*
X10643Y13013D01*
X10721Y12961D01*
X10797Y12906D01*
X10870Y12848D01*
X10941Y12787D01*
X11009Y12723D01*
X11075Y12657D01*
X11138Y12587D01*
X11198Y12516D01*
X11254Y12441D01*
X11308Y12364D01*
X11358Y12286D01*
X11405Y12205D01*
X11449Y12122D01*
D14*
X11199Y11122D02*
X11197Y11041D01*
X11192Y10961D01*
X11182Y10880D01*
X11169Y10800D01*
X11153Y10721D01*
X11132Y10643D01*
X11108Y10566D01*
X11081Y10490D01*
X11050Y10415D01*
X11016Y10342D01*
X10978Y10270D01*
X10937Y10201D01*
X10893Y10133D01*
X10846Y10067D01*
X10795Y10004D01*
X10742Y9943D01*
X10686Y9885D01*
X10628Y9829D01*
X10567Y9776D01*
X10504Y9725D01*
X10438Y9678D01*
X10370Y9634D01*
X10301Y9593D01*
X10229Y9555D01*
X10156Y9521D01*
X10081Y9490D01*
X10005Y9463D01*
X9928Y9439D01*
X9850Y9418D01*
X9771Y9402D01*
X9691Y9389D01*
X9610Y9379D01*
X9530Y9374D01*
X9449Y9372D01*
X9449Y9622D02*
X9525Y9624D01*
X9601Y9630D01*
X9676Y9639D01*
X9751Y9653D01*
X9825Y9670D01*
X9898Y9691D01*
X9970Y9715D01*
X10041Y9744D01*
X10110Y9775D01*
X10177Y9810D01*
X10242Y9849D01*
X10306Y9891D01*
X10367Y9936D01*
X10426Y9984D01*
X10482Y10035D01*
X10536Y10089D01*
X10587Y10145D01*
X10635Y10204D01*
X10680Y10265D01*
X10722Y10329D01*
X10761Y10394D01*
X10796Y10461D01*
X10827Y10530D01*
X10856Y10601D01*
X10880Y10673D01*
X10901Y10746D01*
X10918Y10820D01*
X10932Y10895D01*
X10941Y10970D01*
X10947Y11046D01*
X10949Y11122D01*
X10699Y11122D02*
X10697Y11054D01*
X10692Y10987D01*
X10683Y10920D01*
X10670Y10853D01*
X10653Y10788D01*
X10634Y10723D01*
X10610Y10659D01*
X10583Y10597D01*
X10553Y10536D01*
X10520Y10478D01*
X10484Y10421D01*
X10444Y10366D01*
X10402Y10313D01*
X10356Y10262D01*
X10309Y10215D01*
X10258Y10169D01*
X10205Y10127D01*
X10150Y10087D01*
X10093Y10051D01*
X10035Y10018D01*
X9974Y9988D01*
X9912Y9961D01*
X9848Y9937D01*
X9783Y9918D01*
X9718Y9901D01*
X9651Y9888D01*
X9584Y9879D01*
X9517Y9874D01*
X9449Y9872D01*
X9449Y10122D02*
X9509Y10124D01*
X9570Y10129D01*
X9629Y10138D01*
X9688Y10151D01*
X9747Y10167D01*
X9804Y10187D01*
X9859Y10210D01*
X9914Y10237D01*
X9966Y10266D01*
X10017Y10299D01*
X10066Y10335D01*
X10112Y10373D01*
X10156Y10415D01*
X10198Y10459D01*
X10236Y10505D01*
X10272Y10554D01*
X10305Y10605D01*
X10334Y10657D01*
X10361Y10712D01*
X10384Y10767D01*
X10404Y10824D01*
X10420Y10883D01*
X10433Y10942D01*
X10442Y11001D01*
X10447Y11062D01*
X10449Y11122D01*
X9449Y12872D02*
X9368Y12870D01*
X9288Y12865D01*
X9207Y12855D01*
X9127Y12842D01*
X9048Y12826D01*
X8970Y12805D01*
X8893Y12781D01*
X8817Y12754D01*
X8742Y12723D01*
X8669Y12689D01*
X8597Y12651D01*
X8528Y12610D01*
X8460Y12566D01*
X8394Y12519D01*
X8331Y12468D01*
X8270Y12415D01*
X8212Y12359D01*
X8156Y12301D01*
X8103Y12240D01*
X8052Y12177D01*
X8005Y12111D01*
X7961Y12043D01*
X7920Y11974D01*
X7882Y11902D01*
X7848Y11829D01*
X7817Y11754D01*
X7790Y11678D01*
X7766Y11601D01*
X7745Y11523D01*
X7729Y11444D01*
X7716Y11364D01*
X7706Y11283D01*
X7701Y11203D01*
X7699Y11122D01*
X7949Y11122D02*
X7951Y11198D01*
X7957Y11274D01*
X7966Y11349D01*
X7980Y11424D01*
X7997Y11498D01*
X8018Y11571D01*
X8042Y11643D01*
X8071Y11714D01*
X8102Y11783D01*
X8137Y11850D01*
X8176Y11915D01*
X8218Y11979D01*
X8263Y12040D01*
X8311Y12099D01*
X8362Y12155D01*
X8416Y12209D01*
X8472Y12260D01*
X8531Y12308D01*
X8592Y12353D01*
X8656Y12395D01*
X8721Y12434D01*
X8788Y12469D01*
X8857Y12500D01*
X8928Y12529D01*
X9000Y12553D01*
X9073Y12574D01*
X9147Y12591D01*
X9222Y12605D01*
X9297Y12614D01*
X9373Y12620D01*
X9449Y12622D01*
X9449Y12372D02*
X9381Y12370D01*
X9314Y12365D01*
X9247Y12356D01*
X9180Y12343D01*
X9115Y12326D01*
X9050Y12307D01*
X8986Y12283D01*
X8924Y12256D01*
X8863Y12226D01*
X8805Y12193D01*
X8748Y12157D01*
X8693Y12117D01*
X8640Y12075D01*
X8589Y12029D01*
X8542Y11982D01*
X8496Y11931D01*
X8454Y11878D01*
X8414Y11823D01*
X8378Y11766D01*
X8345Y11708D01*
X8315Y11647D01*
X8288Y11585D01*
X8264Y11521D01*
X8245Y11456D01*
X8228Y11391D01*
X8215Y11324D01*
X8206Y11257D01*
X8201Y11190D01*
X8199Y11122D01*
X8449Y11122D02*
X8451Y11182D01*
X8456Y11243D01*
X8465Y11302D01*
X8478Y11361D01*
X8494Y11420D01*
X8514Y11477D01*
X8537Y11532D01*
X8564Y11587D01*
X8593Y11639D01*
X8626Y11690D01*
X8662Y11739D01*
X8700Y11785D01*
X8742Y11829D01*
X8786Y11871D01*
X8832Y11909D01*
X8881Y11945D01*
X8932Y11978D01*
X8984Y12007D01*
X9039Y12034D01*
X9094Y12057D01*
X9151Y12077D01*
X9210Y12093D01*
X9269Y12106D01*
X9328Y12115D01*
X9389Y12120D01*
X9449Y12122D01*
D13*
X11449Y12122D02*
X11449Y10122D01*
D14*
X7449Y11122D02*
X7451Y11211D01*
X7457Y11300D01*
X7467Y11389D01*
X7481Y11477D01*
X7498Y11564D01*
X7520Y11650D01*
X7546Y11736D01*
X7575Y11820D01*
X7608Y11903D01*
X7644Y11984D01*
X7685Y12064D01*
X7728Y12141D01*
X7775Y12217D01*
X7826Y12290D01*
X7879Y12361D01*
X7936Y12430D01*
X7996Y12496D01*
X8059Y12560D01*
X8124Y12620D01*
X8192Y12678D01*
X8263Y12732D01*
X8336Y12783D01*
X8411Y12831D01*
X8488Y12876D01*
X8567Y12917D01*
X8648Y12954D01*
X8730Y12988D01*
X8814Y13019D01*
X8899Y13045D01*
X8985Y13068D01*
X9072Y13086D01*
X9160Y13101D01*
X9249Y13112D01*
X9338Y13119D01*
X9427Y13122D01*
X9516Y13121D01*
X9605Y13116D01*
X9693Y13107D01*
X9782Y13094D01*
X9869Y13077D01*
X9956Y13057D01*
X10042Y13032D01*
X10126Y13004D01*
X10209Y12972D01*
X10291Y12936D01*
X10371Y12897D01*
X10449Y12854D01*
X10525Y12808D01*
X10599Y12758D01*
X10671Y12705D01*
X10740Y12649D01*
X10807Y12590D01*
X10871Y12528D01*
X10932Y12464D01*
X10991Y12396D01*
X11046Y12326D01*
X11098Y12254D01*
X11147Y12179D01*
X11192Y12103D01*
X11234Y12024D01*
X11272Y11944D01*
X11307Y11862D01*
X11338Y11778D01*
X11366Y11693D01*
X11389Y11607D01*
X11409Y11520D01*
X11425Y11433D01*
X11437Y11344D01*
X11445Y11256D01*
X11449Y11167D01*
X11449Y11077D01*
X11445Y10988D01*
X11437Y10900D01*
X11425Y10811D01*
X11409Y10724D01*
X11389Y10637D01*
X11366Y10551D01*
X11338Y10466D01*
X11307Y10382D01*
X11272Y10300D01*
X11234Y10220D01*
X11192Y10141D01*
X11147Y10065D01*
X11098Y9990D01*
X11046Y9918D01*
X10991Y9848D01*
X10932Y9780D01*
X10871Y9716D01*
X10807Y9654D01*
X10740Y9595D01*
X10671Y9539D01*
X10599Y9486D01*
X10525Y9436D01*
X10449Y9390D01*
X10371Y9347D01*
X10291Y9308D01*
X10209Y9272D01*
X10126Y9240D01*
X10042Y9212D01*
X9956Y9187D01*
X9869Y9167D01*
X9782Y9150D01*
X9693Y9137D01*
X9605Y9128D01*
X9516Y9123D01*
X9427Y9122D01*
X9338Y9125D01*
X9249Y9132D01*
X9160Y9143D01*
X9072Y9158D01*
X8985Y9176D01*
X8899Y9199D01*
X8814Y9225D01*
X8730Y9256D01*
X8648Y9290D01*
X8567Y9327D01*
X8488Y9368D01*
X8411Y9413D01*
X8336Y9461D01*
X8263Y9512D01*
X8192Y9566D01*
X8124Y9624D01*
X8059Y9684D01*
X7996Y9748D01*
X7936Y9814D01*
X7879Y9883D01*
X7826Y9954D01*
X7775Y10027D01*
X7728Y10103D01*
X7685Y10180D01*
X7644Y10260D01*
X7608Y10341D01*
X7575Y10424D01*
X7546Y10508D01*
X7520Y10594D01*
X7498Y10680D01*
X7481Y10767D01*
X7467Y10855D01*
X7457Y10944D01*
X7451Y11033D01*
X7449Y11122D01*
D11*
X8190Y7757D02*
X8190Y7117D01*
X8617Y7117D01*
X8834Y7757D02*
X9261Y7757D01*
X8834Y7757D02*
X8834Y7117D01*
X9261Y7117D01*
X9048Y7437D02*
X8834Y7437D01*
X9479Y7757D02*
X9479Y7117D01*
X9799Y7117D01*
X9906Y7223D01*
X9906Y7650D01*
X9799Y7757D01*
X9479Y7757D01*
X10123Y7117D02*
X10550Y7117D01*
X10123Y7117D02*
X10550Y7544D01*
X10550Y7650D01*
X10444Y7757D01*
X10230Y7757D01*
X10123Y7650D01*
D13*
X17354Y10122D02*
X17310Y10039D01*
X17263Y9958D01*
X17213Y9880D01*
X17159Y9803D01*
X17103Y9728D01*
X17043Y9657D01*
X16980Y9587D01*
X16914Y9521D01*
X16846Y9457D01*
X16775Y9396D01*
X16702Y9338D01*
X16626Y9283D01*
X16548Y9231D01*
X16468Y9183D01*
X16386Y9138D01*
X16302Y9097D01*
X16216Y9059D01*
X16129Y9025D01*
X16041Y8994D01*
X15951Y8967D01*
X15860Y8944D01*
X15769Y8925D01*
X15677Y8909D01*
X15584Y8898D01*
X15490Y8890D01*
X15397Y8886D01*
X15303Y8887D01*
X15210Y8891D01*
X15117Y8899D01*
X15024Y8910D01*
X14932Y8926D01*
X14840Y8946D01*
X14750Y8969D01*
X14660Y8996D01*
X14572Y9027D01*
X14485Y9062D01*
X14399Y9100D01*
X14316Y9142D01*
X14234Y9187D01*
X14154Y9235D01*
X14076Y9287D01*
X14000Y9342D01*
X13927Y9400D01*
X13856Y9462D01*
X13788Y9526D01*
X13723Y9593D01*
X13660Y9662D01*
X13601Y9734D01*
X13544Y9809D01*
X13491Y9886D01*
X13441Y9965D01*
X13394Y10046D01*
X13351Y10129D01*
X13311Y10213D01*
X13275Y10300D01*
X13242Y10387D01*
X13213Y10476D01*
X13188Y10567D01*
X13167Y10658D01*
X13149Y10750D01*
X13136Y10842D01*
X13126Y10935D01*
X13120Y11028D01*
X13118Y11122D01*
X13120Y11216D01*
X13126Y11309D01*
X13136Y11402D01*
X13149Y11494D01*
X13167Y11586D01*
X13188Y11677D01*
X13213Y11768D01*
X13242Y11857D01*
X13275Y11944D01*
X13311Y12031D01*
X13351Y12115D01*
X13394Y12198D01*
X13441Y12279D01*
X13491Y12358D01*
X13544Y12435D01*
X13601Y12510D01*
X13660Y12582D01*
X13723Y12651D01*
X13788Y12718D01*
X13856Y12782D01*
X13927Y12844D01*
X14000Y12902D01*
X14076Y12957D01*
X14154Y13009D01*
X14234Y13057D01*
X14316Y13102D01*
X14399Y13144D01*
X14485Y13182D01*
X14572Y13217D01*
X14660Y13248D01*
X14750Y13275D01*
X14840Y13298D01*
X14932Y13318D01*
X15024Y13334D01*
X15117Y13345D01*
X15210Y13353D01*
X15303Y13357D01*
X15397Y13358D01*
X15490Y13354D01*
X15584Y13346D01*
X15677Y13335D01*
X15769Y13319D01*
X15860Y13300D01*
X15951Y13277D01*
X16041Y13250D01*
X16129Y13219D01*
X16216Y13185D01*
X16302Y13147D01*
X16386Y13106D01*
X16468Y13061D01*
X16548Y13013D01*
X16626Y12961D01*
X16702Y12906D01*
X16775Y12848D01*
X16846Y12787D01*
X16914Y12723D01*
X16980Y12657D01*
X17043Y12587D01*
X17103Y12516D01*
X17159Y12441D01*
X17213Y12364D01*
X17263Y12286D01*
X17310Y12205D01*
X17354Y12122D01*
D14*
X17104Y11122D02*
X17102Y11041D01*
X17097Y10961D01*
X17087Y10880D01*
X17074Y10800D01*
X17058Y10721D01*
X17037Y10643D01*
X17013Y10566D01*
X16986Y10490D01*
X16955Y10415D01*
X16921Y10342D01*
X16883Y10270D01*
X16842Y10201D01*
X16798Y10133D01*
X16751Y10067D01*
X16700Y10004D01*
X16647Y9943D01*
X16591Y9885D01*
X16533Y9829D01*
X16472Y9776D01*
X16409Y9725D01*
X16343Y9678D01*
X16275Y9634D01*
X16206Y9593D01*
X16134Y9555D01*
X16061Y9521D01*
X15986Y9490D01*
X15910Y9463D01*
X15833Y9439D01*
X15755Y9418D01*
X15676Y9402D01*
X15596Y9389D01*
X15515Y9379D01*
X15435Y9374D01*
X15354Y9372D01*
X15354Y9622D02*
X15430Y9624D01*
X15506Y9630D01*
X15581Y9639D01*
X15656Y9653D01*
X15730Y9670D01*
X15803Y9691D01*
X15875Y9715D01*
X15946Y9744D01*
X16015Y9775D01*
X16082Y9810D01*
X16147Y9849D01*
X16211Y9891D01*
X16272Y9936D01*
X16331Y9984D01*
X16387Y10035D01*
X16441Y10089D01*
X16492Y10145D01*
X16540Y10204D01*
X16585Y10265D01*
X16627Y10329D01*
X16666Y10394D01*
X16701Y10461D01*
X16732Y10530D01*
X16761Y10601D01*
X16785Y10673D01*
X16806Y10746D01*
X16823Y10820D01*
X16837Y10895D01*
X16846Y10970D01*
X16852Y11046D01*
X16854Y11122D01*
X16604Y11122D02*
X16602Y11054D01*
X16597Y10987D01*
X16588Y10920D01*
X16575Y10853D01*
X16558Y10788D01*
X16539Y10723D01*
X16515Y10659D01*
X16488Y10597D01*
X16458Y10536D01*
X16425Y10478D01*
X16389Y10421D01*
X16349Y10366D01*
X16307Y10313D01*
X16261Y10262D01*
X16214Y10215D01*
X16163Y10169D01*
X16110Y10127D01*
X16055Y10087D01*
X15998Y10051D01*
X15940Y10018D01*
X15879Y9988D01*
X15817Y9961D01*
X15753Y9937D01*
X15688Y9918D01*
X15623Y9901D01*
X15556Y9888D01*
X15489Y9879D01*
X15422Y9874D01*
X15354Y9872D01*
X15354Y10122D02*
X15414Y10124D01*
X15475Y10129D01*
X15534Y10138D01*
X15593Y10151D01*
X15652Y10167D01*
X15709Y10187D01*
X15764Y10210D01*
X15819Y10237D01*
X15871Y10266D01*
X15922Y10299D01*
X15971Y10335D01*
X16017Y10373D01*
X16061Y10415D01*
X16103Y10459D01*
X16141Y10505D01*
X16177Y10554D01*
X16210Y10605D01*
X16239Y10657D01*
X16266Y10712D01*
X16289Y10767D01*
X16309Y10824D01*
X16325Y10883D01*
X16338Y10942D01*
X16347Y11001D01*
X16352Y11062D01*
X16354Y11122D01*
X15354Y12872D02*
X15273Y12870D01*
X15193Y12865D01*
X15112Y12855D01*
X15032Y12842D01*
X14953Y12826D01*
X14875Y12805D01*
X14798Y12781D01*
X14722Y12754D01*
X14647Y12723D01*
X14574Y12689D01*
X14502Y12651D01*
X14433Y12610D01*
X14365Y12566D01*
X14299Y12519D01*
X14236Y12468D01*
X14175Y12415D01*
X14117Y12359D01*
X14061Y12301D01*
X14008Y12240D01*
X13957Y12177D01*
X13910Y12111D01*
X13866Y12043D01*
X13825Y11974D01*
X13787Y11902D01*
X13753Y11829D01*
X13722Y11754D01*
X13695Y11678D01*
X13671Y11601D01*
X13650Y11523D01*
X13634Y11444D01*
X13621Y11364D01*
X13611Y11283D01*
X13606Y11203D01*
X13604Y11122D01*
X13854Y11122D02*
X13856Y11198D01*
X13862Y11274D01*
X13871Y11349D01*
X13885Y11424D01*
X13902Y11498D01*
X13923Y11571D01*
X13947Y11643D01*
X13976Y11714D01*
X14007Y11783D01*
X14042Y11850D01*
X14081Y11915D01*
X14123Y11979D01*
X14168Y12040D01*
X14216Y12099D01*
X14267Y12155D01*
X14321Y12209D01*
X14377Y12260D01*
X14436Y12308D01*
X14497Y12353D01*
X14561Y12395D01*
X14626Y12434D01*
X14693Y12469D01*
X14762Y12500D01*
X14833Y12529D01*
X14905Y12553D01*
X14978Y12574D01*
X15052Y12591D01*
X15127Y12605D01*
X15202Y12614D01*
X15278Y12620D01*
X15354Y12622D01*
X15354Y12372D02*
X15286Y12370D01*
X15219Y12365D01*
X15152Y12356D01*
X15085Y12343D01*
X15020Y12326D01*
X14955Y12307D01*
X14891Y12283D01*
X14829Y12256D01*
X14768Y12226D01*
X14710Y12193D01*
X14653Y12157D01*
X14598Y12117D01*
X14545Y12075D01*
X14494Y12029D01*
X14447Y11982D01*
X14401Y11931D01*
X14359Y11878D01*
X14319Y11823D01*
X14283Y11766D01*
X14250Y11708D01*
X14220Y11647D01*
X14193Y11585D01*
X14169Y11521D01*
X14150Y11456D01*
X14133Y11391D01*
X14120Y11324D01*
X14111Y11257D01*
X14106Y11190D01*
X14104Y11122D01*
X14354Y11122D02*
X14356Y11182D01*
X14361Y11243D01*
X14370Y11302D01*
X14383Y11361D01*
X14399Y11420D01*
X14419Y11477D01*
X14442Y11532D01*
X14469Y11587D01*
X14498Y11639D01*
X14531Y11690D01*
X14567Y11739D01*
X14605Y11785D01*
X14647Y11829D01*
X14691Y11871D01*
X14737Y11909D01*
X14786Y11945D01*
X14837Y11978D01*
X14889Y12007D01*
X14944Y12034D01*
X14999Y12057D01*
X15056Y12077D01*
X15115Y12093D01*
X15174Y12106D01*
X15233Y12115D01*
X15294Y12120D01*
X15354Y12122D01*
D13*
X17354Y12122D02*
X17354Y10122D01*
D14*
X13354Y11122D02*
X13356Y11211D01*
X13362Y11300D01*
X13372Y11389D01*
X13386Y11477D01*
X13403Y11564D01*
X13425Y11650D01*
X13451Y11736D01*
X13480Y11820D01*
X13513Y11903D01*
X13549Y11984D01*
X13590Y12064D01*
X13633Y12141D01*
X13680Y12217D01*
X13731Y12290D01*
X13784Y12361D01*
X13841Y12430D01*
X13901Y12496D01*
X13964Y12560D01*
X14029Y12620D01*
X14097Y12678D01*
X14168Y12732D01*
X14241Y12783D01*
X14316Y12831D01*
X14393Y12876D01*
X14472Y12917D01*
X14553Y12954D01*
X14635Y12988D01*
X14719Y13019D01*
X14804Y13045D01*
X14890Y13068D01*
X14977Y13086D01*
X15065Y13101D01*
X15154Y13112D01*
X15243Y13119D01*
X15332Y13122D01*
X15421Y13121D01*
X15510Y13116D01*
X15598Y13107D01*
X15687Y13094D01*
X15774Y13077D01*
X15861Y13057D01*
X15947Y13032D01*
X16031Y13004D01*
X16114Y12972D01*
X16196Y12936D01*
X16276Y12897D01*
X16354Y12854D01*
X16430Y12808D01*
X16504Y12758D01*
X16576Y12705D01*
X16645Y12649D01*
X16712Y12590D01*
X16776Y12528D01*
X16837Y12464D01*
X16896Y12396D01*
X16951Y12326D01*
X17003Y12254D01*
X17052Y12179D01*
X17097Y12103D01*
X17139Y12024D01*
X17177Y11944D01*
X17212Y11862D01*
X17243Y11778D01*
X17271Y11693D01*
X17294Y11607D01*
X17314Y11520D01*
X17330Y11433D01*
X17342Y11344D01*
X17350Y11256D01*
X17354Y11167D01*
X17354Y11077D01*
X17350Y10988D01*
X17342Y10900D01*
X17330Y10811D01*
X17314Y10724D01*
X17294Y10637D01*
X17271Y10551D01*
X17243Y10466D01*
X17212Y10382D01*
X17177Y10300D01*
X17139Y10220D01*
X17097Y10141D01*
X17052Y10065D01*
X17003Y9990D01*
X16951Y9918D01*
X16896Y9848D01*
X16837Y9780D01*
X16776Y9716D01*
X16712Y9654D01*
X16645Y9595D01*
X16576Y9539D01*
X16504Y9486D01*
X16430Y9436D01*
X16354Y9390D01*
X16276Y9347D01*
X16196Y9308D01*
X16114Y9272D01*
X16031Y9240D01*
X15947Y9212D01*
X15861Y9187D01*
X15774Y9167D01*
X15687Y9150D01*
X15598Y9137D01*
X15510Y9128D01*
X15421Y9123D01*
X15332Y9122D01*
X15243Y9125D01*
X15154Y9132D01*
X15065Y9143D01*
X14977Y9158D01*
X14890Y9176D01*
X14804Y9199D01*
X14719Y9225D01*
X14635Y9256D01*
X14553Y9290D01*
X14472Y9327D01*
X14393Y9368D01*
X14316Y9413D01*
X14241Y9461D01*
X14168Y9512D01*
X14097Y9566D01*
X14029Y9624D01*
X13964Y9684D01*
X13901Y9748D01*
X13841Y9814D01*
X13784Y9883D01*
X13731Y9954D01*
X13680Y10027D01*
X13633Y10103D01*
X13590Y10180D01*
X13549Y10260D01*
X13513Y10341D01*
X13480Y10424D01*
X13451Y10508D01*
X13425Y10594D01*
X13403Y10680D01*
X13386Y10767D01*
X13372Y10855D01*
X13362Y10944D01*
X13356Y11033D01*
X13354Y11122D01*
D11*
X14095Y7757D02*
X14095Y7117D01*
X14522Y7117D01*
X14740Y7757D02*
X15167Y7757D01*
X14740Y7757D02*
X14740Y7117D01*
X15167Y7117D01*
X14953Y7437D02*
X14740Y7437D01*
X15384Y7757D02*
X15384Y7117D01*
X15705Y7117D01*
X15811Y7223D01*
X15811Y7650D01*
X15705Y7757D01*
X15384Y7757D01*
X16029Y7650D02*
X16136Y7757D01*
X16349Y7757D01*
X16456Y7650D01*
X16456Y7544D01*
X16349Y7437D01*
X16242Y7437D01*
X16349Y7437D02*
X16456Y7330D01*
X16456Y7223D01*
X16349Y7117D01*
X16136Y7117D01*
X16029Y7223D01*
X20904Y10372D02*
X20904Y11872D01*
X22404Y11872D01*
X22404Y10372D01*
X20904Y10372D01*
D15*
X21004Y10472D02*
X21004Y11772D01*
X22304Y11772D01*
X22304Y10472D01*
X21004Y10472D01*
D11*
X19254Y10722D02*
X19104Y10722D01*
X19254Y10722D02*
X19254Y11522D01*
X19104Y11522D02*
X19104Y10722D01*
X19104Y11522D02*
X19254Y11522D01*
X19254Y13122D02*
X19654Y13522D01*
X19254Y13122D02*
X19254Y11822D01*
X19654Y13522D02*
X20154Y13522D01*
X21204Y13522D02*
X22104Y13522D01*
X23654Y13522D02*
X24054Y13122D01*
X23654Y13522D02*
X23154Y13522D01*
X22104Y8722D02*
X21204Y8722D01*
X23154Y8722D02*
X23654Y8722D01*
X24054Y9122D01*
X24054Y10422D01*
X19254Y10422D02*
X19254Y9122D01*
X19654Y8722D01*
X20154Y8722D01*
X24204Y10722D02*
X24204Y11522D01*
X24204Y10722D02*
X24054Y10722D01*
X24054Y11522D02*
X24204Y11522D01*
X19254Y13122D02*
X19154Y13022D01*
X19154Y11822D01*
X19254Y11822D01*
X19254Y11522D01*
X19254Y10422D02*
X19154Y10422D01*
X19254Y10422D02*
X19254Y10722D01*
X19154Y10422D02*
X19154Y9222D01*
X19254Y9122D01*
X24054Y10722D02*
X24054Y11522D01*
X24054Y11822D01*
X24054Y10422D02*
X24154Y10422D01*
X24054Y10422D02*
X24054Y10722D01*
X24154Y10422D02*
X24154Y9222D01*
X24054Y9122D01*
X24054Y11822D02*
X24154Y11822D01*
X24054Y11822D02*
X24054Y13122D01*
X24154Y13022D02*
X24154Y11822D01*
X24154Y13022D02*
X24054Y13122D01*
X20254Y11122D02*
X20256Y11197D01*
X20262Y11271D01*
X20272Y11345D01*
X20286Y11418D01*
X20303Y11490D01*
X20325Y11562D01*
X20350Y11632D01*
X20379Y11700D01*
X20412Y11768D01*
X20448Y11833D01*
X20487Y11896D01*
X20530Y11957D01*
X20576Y12016D01*
X20625Y12072D01*
X20677Y12125D01*
X20732Y12176D01*
X20789Y12223D01*
X20849Y12268D01*
X20911Y12309D01*
X20976Y12347D01*
X21042Y12381D01*
X21110Y12412D01*
X21179Y12439D01*
X21250Y12462D01*
X21322Y12482D01*
X21395Y12498D01*
X21468Y12510D01*
X21542Y12518D01*
X21617Y12522D01*
X21691Y12522D01*
X21766Y12518D01*
X21840Y12510D01*
X21913Y12498D01*
X21986Y12482D01*
X22058Y12462D01*
X22129Y12439D01*
X22198Y12412D01*
X22266Y12381D01*
X22332Y12347D01*
X22397Y12309D01*
X22459Y12268D01*
X22519Y12223D01*
X22576Y12176D01*
X22631Y12125D01*
X22683Y12072D01*
X22732Y12016D01*
X22778Y11957D01*
X22821Y11896D01*
X22860Y11833D01*
X22896Y11768D01*
X22929Y11700D01*
X22958Y11632D01*
X22983Y11562D01*
X23005Y11490D01*
X23022Y11418D01*
X23036Y11345D01*
X23046Y11271D01*
X23052Y11197D01*
X23054Y11122D01*
X23052Y11047D01*
X23046Y10973D01*
X23036Y10899D01*
X23022Y10826D01*
X23005Y10754D01*
X22983Y10682D01*
X22958Y10612D01*
X22929Y10544D01*
X22896Y10476D01*
X22860Y10411D01*
X22821Y10348D01*
X22778Y10287D01*
X22732Y10228D01*
X22683Y10172D01*
X22631Y10119D01*
X22576Y10068D01*
X22519Y10021D01*
X22459Y9976D01*
X22397Y9935D01*
X22332Y9897D01*
X22266Y9863D01*
X22198Y9832D01*
X22129Y9805D01*
X22058Y9782D01*
X21986Y9762D01*
X21913Y9746D01*
X21840Y9734D01*
X21766Y9726D01*
X21691Y9722D01*
X21617Y9722D01*
X21542Y9726D01*
X21468Y9734D01*
X21395Y9746D01*
X21322Y9762D01*
X21250Y9782D01*
X21179Y9805D01*
X21110Y9832D01*
X21042Y9863D01*
X20976Y9897D01*
X20911Y9935D01*
X20849Y9976D01*
X20789Y10021D01*
X20732Y10068D01*
X20677Y10119D01*
X20625Y10172D01*
X20576Y10228D01*
X20530Y10287D01*
X20487Y10348D01*
X20448Y10411D01*
X20412Y10476D01*
X20379Y10544D01*
X20350Y10612D01*
X20325Y10682D01*
X20303Y10754D01*
X20286Y10826D01*
X20272Y10899D01*
X20262Y10973D01*
X20256Y11047D01*
X20254Y11122D01*
D15*
X21254Y11122D02*
X21256Y11162D01*
X21262Y11201D01*
X21272Y11240D01*
X21285Y11277D01*
X21303Y11313D01*
X21324Y11347D01*
X21348Y11379D01*
X21375Y11408D01*
X21405Y11435D01*
X21437Y11458D01*
X21472Y11478D01*
X21508Y11494D01*
X21546Y11507D01*
X21585Y11516D01*
X21624Y11521D01*
X21664Y11522D01*
X21704Y11519D01*
X21743Y11512D01*
X21781Y11501D01*
X21819Y11487D01*
X21854Y11468D01*
X21887Y11447D01*
X21919Y11422D01*
X21947Y11394D01*
X21973Y11364D01*
X21995Y11331D01*
X22014Y11296D01*
X22030Y11259D01*
X22042Y11221D01*
X22050Y11182D01*
X22054Y11142D01*
X22054Y11102D01*
X22050Y11062D01*
X22042Y11023D01*
X22030Y10985D01*
X22014Y10948D01*
X21995Y10913D01*
X21973Y10880D01*
X21947Y10850D01*
X21919Y10822D01*
X21887Y10797D01*
X21854Y10776D01*
X21819Y10757D01*
X21781Y10743D01*
X21743Y10732D01*
X21704Y10725D01*
X21664Y10722D01*
X21624Y10723D01*
X21585Y10728D01*
X21546Y10737D01*
X21508Y10750D01*
X21472Y10766D01*
X21437Y10786D01*
X21405Y10809D01*
X21375Y10836D01*
X21348Y10865D01*
X21324Y10897D01*
X21303Y10931D01*
X21285Y10967D01*
X21272Y11004D01*
X21262Y11043D01*
X21256Y11082D01*
X21254Y11122D01*
X21354Y11122D02*
X21356Y11156D01*
X21362Y11190D01*
X21371Y11223D01*
X21385Y11254D01*
X21402Y11284D01*
X21422Y11312D01*
X21445Y11337D01*
X21471Y11360D01*
X21499Y11379D01*
X21529Y11395D01*
X21561Y11407D01*
X21594Y11416D01*
X21628Y11421D01*
X21663Y11422D01*
X21697Y11419D01*
X21730Y11412D01*
X21763Y11402D01*
X21794Y11387D01*
X21823Y11370D01*
X21850Y11349D01*
X21875Y11325D01*
X21897Y11298D01*
X21915Y11270D01*
X21930Y11239D01*
X21942Y11207D01*
X21950Y11173D01*
X21954Y11139D01*
X21954Y11105D01*
X21950Y11071D01*
X21942Y11037D01*
X21930Y11005D01*
X21915Y10974D01*
X21897Y10946D01*
X21875Y10919D01*
X21850Y10895D01*
X21823Y10874D01*
X21794Y10857D01*
X21763Y10842D01*
X21730Y10832D01*
X21697Y10825D01*
X21663Y10822D01*
X21628Y10823D01*
X21594Y10828D01*
X21561Y10837D01*
X21529Y10849D01*
X21499Y10865D01*
X21471Y10884D01*
X21445Y10907D01*
X21422Y10932D01*
X21402Y10960D01*
X21385Y10990D01*
X21371Y11021D01*
X21362Y11054D01*
X21356Y11088D01*
X21354Y11122D01*
D14*
X19878Y9247D02*
X20028Y9097D01*
X19878Y9247D02*
X20329Y9247D01*
X20329Y9097D02*
X20329Y9397D01*
X20329Y12697D02*
X20329Y12997D01*
X20329Y12697D02*
X20028Y12997D01*
X19953Y12997D01*
X19878Y12922D01*
X19878Y12772D01*
X19953Y12697D01*
X23028Y9172D02*
X23103Y9097D01*
X23028Y9172D02*
X23028Y9322D01*
X23103Y9397D01*
X23178Y9397D01*
X23253Y9322D01*
X23253Y9247D01*
X23253Y9322D02*
X23328Y9397D01*
X23403Y9397D01*
X23479Y9322D01*
X23479Y9172D01*
X23403Y9097D01*
X23479Y12972D02*
X23028Y12972D01*
X23253Y12747D01*
X23253Y13047D01*
D16*
X19254Y12447D03*
X19254Y9797D03*
X24054Y12447D03*
X24054Y9797D03*
D17*
X21464Y7647D02*
X21359Y7752D01*
X21149Y7752D01*
X21044Y7647D01*
X21044Y7542D01*
X21149Y7437D01*
X21359Y7437D01*
X21464Y7332D01*
X21464Y7227D01*
X21359Y7122D01*
X21149Y7122D01*
X21044Y7227D01*
X21689Y7542D02*
X21899Y7752D01*
X21899Y7122D01*
X21689Y7122D02*
X22109Y7122D01*
D11*
X7799Y3756D02*
X7399Y3756D01*
X7599Y3956D02*
X7599Y3556D01*
X5799Y2756D02*
X5801Y2800D01*
X5807Y2844D01*
X5817Y2887D01*
X5830Y2929D01*
X5847Y2970D01*
X5868Y3009D01*
X5892Y3046D01*
X5919Y3081D01*
X5949Y3113D01*
X5982Y3143D01*
X6018Y3169D01*
X6055Y3193D01*
X6095Y3212D01*
X6136Y3229D01*
X6179Y3241D01*
X6222Y3250D01*
X6266Y3255D01*
X6310Y3256D01*
X6354Y3253D01*
X6398Y3246D01*
X6441Y3235D01*
X6483Y3221D01*
X6523Y3203D01*
X6562Y3181D01*
X6598Y3157D01*
X6632Y3129D01*
X6664Y3098D01*
X6693Y3064D01*
X6719Y3028D01*
X6741Y2990D01*
X6760Y2950D01*
X6775Y2908D01*
X6787Y2866D01*
X6795Y2822D01*
X6799Y2778D01*
X6799Y2734D01*
X6795Y2690D01*
X6787Y2646D01*
X6775Y2604D01*
X6760Y2562D01*
X6741Y2522D01*
X6719Y2484D01*
X6693Y2448D01*
X6664Y2414D01*
X6632Y2383D01*
X6598Y2355D01*
X6562Y2331D01*
X6523Y2309D01*
X6483Y2291D01*
X6441Y2277D01*
X6398Y2266D01*
X6354Y2259D01*
X6310Y2256D01*
X6266Y2257D01*
X6222Y2262D01*
X6179Y2271D01*
X6136Y2283D01*
X6095Y2300D01*
X6055Y2319D01*
X6018Y2343D01*
X5982Y2369D01*
X5949Y2399D01*
X5919Y2431D01*
X5892Y2466D01*
X5868Y2503D01*
X5847Y2542D01*
X5830Y2583D01*
X5817Y2625D01*
X5807Y2668D01*
X5801Y2712D01*
X5799Y2756D01*
X3899Y2756D02*
X3901Y2854D01*
X3907Y2952D01*
X3917Y3049D01*
X3931Y3146D01*
X3949Y3242D01*
X3971Y3338D01*
X3996Y3432D01*
X4026Y3526D01*
X4059Y3618D01*
X4096Y3708D01*
X4137Y3797D01*
X4181Y3885D01*
X4229Y3970D01*
X4280Y4054D01*
X4335Y4135D01*
X4392Y4214D01*
X4454Y4290D01*
X4518Y4364D01*
X4585Y4436D01*
X4655Y4504D01*
X4727Y4570D01*
X4803Y4632D01*
X4880Y4692D01*
X4961Y4748D01*
X5043Y4801D01*
X5127Y4851D01*
X5214Y4897D01*
X5302Y4939D01*
X5392Y4978D01*
X5483Y5013D01*
X5576Y5045D01*
X5670Y5072D01*
X5765Y5096D01*
X5861Y5116D01*
X5957Y5132D01*
X6055Y5144D01*
X6152Y5152D01*
X6250Y5156D01*
X6348Y5156D01*
X6446Y5152D01*
X6543Y5144D01*
X6641Y5132D01*
X6737Y5116D01*
X6833Y5096D01*
X6928Y5072D01*
X7022Y5045D01*
X7115Y5013D01*
X7206Y4978D01*
X7296Y4939D01*
X7384Y4897D01*
X7471Y4851D01*
X7555Y4801D01*
X7637Y4748D01*
X7718Y4692D01*
X7795Y4632D01*
X7871Y4570D01*
X7943Y4504D01*
X8013Y4436D01*
X8080Y4364D01*
X8144Y4290D01*
X8206Y4214D01*
X8263Y4135D01*
X8318Y4054D01*
X8369Y3970D01*
X8417Y3885D01*
X8461Y3797D01*
X8502Y3708D01*
X8539Y3618D01*
X8572Y3526D01*
X8602Y3432D01*
X8627Y3338D01*
X8649Y3242D01*
X8667Y3146D01*
X8681Y3049D01*
X8691Y2952D01*
X8697Y2854D01*
X8699Y2756D01*
X8697Y2658D01*
X8691Y2560D01*
X8681Y2463D01*
X8667Y2366D01*
X8649Y2270D01*
X8627Y2174D01*
X8602Y2080D01*
X8572Y1986D01*
X8539Y1894D01*
X8502Y1804D01*
X8461Y1715D01*
X8417Y1627D01*
X8369Y1542D01*
X8318Y1458D01*
X8263Y1377D01*
X8206Y1298D01*
X8144Y1222D01*
X8080Y1148D01*
X8013Y1076D01*
X7943Y1008D01*
X7871Y942D01*
X7795Y880D01*
X7718Y820D01*
X7637Y764D01*
X7555Y711D01*
X7471Y661D01*
X7384Y615D01*
X7296Y573D01*
X7206Y534D01*
X7115Y499D01*
X7022Y467D01*
X6928Y440D01*
X6833Y416D01*
X6737Y396D01*
X6641Y380D01*
X6543Y368D01*
X6446Y360D01*
X6348Y356D01*
X6250Y356D01*
X6152Y360D01*
X6055Y368D01*
X5957Y380D01*
X5861Y396D01*
X5765Y416D01*
X5670Y440D01*
X5576Y467D01*
X5483Y499D01*
X5392Y534D01*
X5302Y573D01*
X5214Y615D01*
X5127Y661D01*
X5043Y711D01*
X4961Y764D01*
X4880Y820D01*
X4803Y880D01*
X4727Y942D01*
X4655Y1008D01*
X4585Y1076D01*
X4518Y1148D01*
X4454Y1222D01*
X4392Y1298D01*
X4335Y1377D01*
X4280Y1458D01*
X4229Y1542D01*
X4181Y1627D01*
X4137Y1715D01*
X4096Y1804D01*
X4059Y1894D01*
X4026Y1986D01*
X3996Y2080D01*
X3971Y2174D01*
X3949Y2270D01*
X3931Y2366D01*
X3917Y2463D01*
X3907Y2560D01*
X3901Y2658D01*
X3899Y2756D01*
X7299Y3756D02*
X7301Y3790D01*
X7307Y3824D01*
X7316Y3857D01*
X7330Y3888D01*
X7347Y3918D01*
X7367Y3946D01*
X7390Y3971D01*
X7416Y3994D01*
X7444Y4013D01*
X7474Y4029D01*
X7506Y4041D01*
X7539Y4050D01*
X7573Y4055D01*
X7608Y4056D01*
X7642Y4053D01*
X7675Y4046D01*
X7708Y4036D01*
X7739Y4021D01*
X7768Y4004D01*
X7795Y3983D01*
X7820Y3959D01*
X7842Y3932D01*
X7860Y3904D01*
X7875Y3873D01*
X7887Y3841D01*
X7895Y3807D01*
X7899Y3773D01*
X7899Y3739D01*
X7895Y3705D01*
X7887Y3671D01*
X7875Y3639D01*
X7860Y3608D01*
X7842Y3580D01*
X7820Y3553D01*
X7795Y3529D01*
X7768Y3508D01*
X7739Y3491D01*
X7708Y3476D01*
X7675Y3466D01*
X7642Y3459D01*
X7608Y3456D01*
X7573Y3457D01*
X7539Y3462D01*
X7506Y3471D01*
X7474Y3483D01*
X7444Y3499D01*
X7416Y3518D01*
X7390Y3541D01*
X7367Y3566D01*
X7347Y3594D01*
X7330Y3624D01*
X7316Y3655D01*
X7307Y3688D01*
X7301Y3722D01*
X7299Y3756D01*
D17*
X8982Y2240D02*
X8982Y1610D01*
X8982Y2240D02*
X9297Y2240D01*
X9402Y2135D01*
X9402Y2030D01*
X9297Y1925D01*
X9402Y1820D01*
X9402Y1715D01*
X9297Y1610D01*
X8982Y1610D01*
X8982Y1925D02*
X9297Y1925D01*
X9627Y1715D02*
X9627Y2240D01*
X9627Y1715D02*
X9732Y1610D01*
X9942Y1610D01*
X10047Y1715D01*
X10047Y2240D01*
X10271Y2240D02*
X10692Y2240D01*
X10692Y2135D01*
X10271Y1715D01*
X10271Y1610D01*
X10692Y1610D01*
X10916Y2240D02*
X11336Y2240D01*
X11336Y2135D01*
X10916Y1715D01*
X10916Y1610D01*
X11336Y1610D01*
M02*
