M48
;GenerationSoftware,Autodesk,EAGLE,9.5.2*%
;CreationDate,2020-03-21T16:12:27Z*%
FMAT,2
ICI,OFF
METRIC,TZ,000.000
T4C0.813
T3C0.970
T2C2.800
%
G90
M71
T2
X61869Y26536
X61869Y3541
X3869Y26536
T3
X49648Y27258
X9008Y24718
X52188Y27258
X54728Y27258
X57268Y27258
X11548Y24718
X14088Y24718
X16628Y24718
X19168Y24718
X21708Y24718
X24248Y24718
X26788Y24718
X29328Y24718
X31868Y24718
X34408Y24718
X36948Y24718
X39488Y24718
X42028Y24718
X44568Y24718
X47108Y24718
X49648Y24718
X52188Y24718
X54728Y24718
X57268Y24718
X9008Y27258
X44568Y27258
X11548Y27258
X14088Y27258
X16628Y27258
X19168Y27258
X21708Y27258
X24248Y27258
X26788Y27258
X31868Y27258
X34408Y27258
X36948Y27258
X39488Y27258
X42028Y27258
X47118Y27258
X29328Y27258
T4
X18770Y12500
X16230Y12500
X33770Y12500
X31230Y12500
X48770Y12500
X46230Y12500
X59184Y17878
X59184Y15338
X59184Y12798
X59184Y10258
X59184Y7718
M30