G04 EAGLE Gerber RS-274X export*
G75*
%MOMM*%
%FSLAX34Y34*%
%LPD*%
%INBottom copper*%
%IPPOS*%
%AMOC8*
5,1,8,0,0,1.08239X$1,22.5*%
G01*
%ADD10C,0.000000*%
%ADD11R,1.676400X1.676400*%
%ADD12P,1.814519X8X22.500000*%
%ADD13C,1.320800*%
%ADD14C,1.879600*%
%ADD15C,0.254000*%
%ADD16C,0.203200*%

G36*
X623712Y2956D02*
X623712Y2956D01*
X623750Y2954D01*
X627927Y3283D01*
X627932Y3285D01*
X627938Y3284D01*
X628102Y3318D01*
X636046Y5899D01*
X636078Y5916D01*
X636113Y5924D01*
X636258Y6007D01*
X643016Y10917D01*
X643041Y10943D01*
X643072Y10962D01*
X643185Y11086D01*
X648094Y17843D01*
X648110Y17875D01*
X648133Y17903D01*
X648202Y18055D01*
X650784Y26000D01*
X650785Y26005D01*
X650787Y26010D01*
X650819Y26175D01*
X651147Y30352D01*
X651145Y30374D01*
X651150Y30411D01*
X651150Y270363D01*
X651146Y270384D01*
X651147Y270422D01*
X650819Y274599D01*
X650817Y274604D01*
X650818Y274610D01*
X650784Y274774D01*
X648202Y282718D01*
X648186Y282750D01*
X648177Y282785D01*
X648094Y282931D01*
X643185Y289688D01*
X643159Y289714D01*
X643140Y289744D01*
X643016Y289857D01*
X636258Y294767D01*
X636227Y294783D01*
X636199Y294806D01*
X636046Y294875D01*
X628102Y297456D01*
X628096Y297457D01*
X628091Y297459D01*
X627927Y297491D01*
X623750Y297820D01*
X623728Y297818D01*
X623690Y297822D01*
X33690Y297822D01*
X33669Y297818D01*
X33631Y297820D01*
X29454Y297491D01*
X29449Y297489D01*
X29443Y297490D01*
X29279Y297456D01*
X21334Y294875D01*
X21303Y294858D01*
X21268Y294850D01*
X21122Y294767D01*
X14365Y289857D01*
X14339Y289831D01*
X14309Y289812D01*
X14196Y289688D01*
X9286Y282931D01*
X9270Y282899D01*
X9247Y282871D01*
X9178Y282718D01*
X6597Y274774D01*
X6596Y274769D01*
X6594Y274764D01*
X6562Y274599D01*
X6233Y270422D01*
X6235Y270400D01*
X6231Y270363D01*
X6231Y30411D01*
X6235Y30390D01*
X6233Y30352D01*
X6562Y26175D01*
X6564Y26170D01*
X6563Y26164D01*
X6597Y26000D01*
X9178Y18055D01*
X9195Y18024D01*
X9203Y17989D01*
X9286Y17843D01*
X14196Y11086D01*
X14222Y11060D01*
X14241Y11030D01*
X14365Y10917D01*
X21122Y6007D01*
X21154Y5991D01*
X21182Y5968D01*
X21334Y5899D01*
X29279Y3318D01*
X29284Y3317D01*
X29289Y3315D01*
X29454Y3283D01*
X33631Y2954D01*
X33653Y2956D01*
X33690Y2952D01*
X623690Y2952D01*
X623712Y2956D01*
G37*
%LPC*%
G36*
X458196Y115093D02*
X458196Y115093D01*
X452393Y120896D01*
X452393Y129104D01*
X458196Y134907D01*
X458744Y134907D01*
X458764Y134910D01*
X458783Y134908D01*
X458885Y134930D01*
X458987Y134946D01*
X459004Y134956D01*
X459024Y134960D01*
X459113Y135013D01*
X459204Y135062D01*
X459218Y135076D01*
X459235Y135086D01*
X459302Y135165D01*
X459374Y135240D01*
X459382Y135258D01*
X459395Y135273D01*
X459434Y135369D01*
X459477Y135463D01*
X459479Y135483D01*
X459487Y135501D01*
X459505Y135668D01*
X459505Y153801D01*
X459491Y153891D01*
X459483Y153982D01*
X459471Y154011D01*
X459466Y154043D01*
X459423Y154124D01*
X459387Y154208D01*
X459361Y154240D01*
X459350Y154261D01*
X459327Y154283D01*
X459282Y154339D01*
X423986Y189635D01*
X423912Y189689D01*
X423842Y189748D01*
X423812Y189760D01*
X423786Y189779D01*
X423699Y189806D01*
X423614Y189840D01*
X423573Y189844D01*
X423551Y189851D01*
X423519Y189851D01*
X423447Y189858D01*
X366204Y189858D01*
X328677Y227385D01*
X328677Y239892D01*
X328665Y239963D01*
X328664Y240035D01*
X328646Y240084D01*
X328637Y240135D01*
X328604Y240198D01*
X328579Y240266D01*
X328547Y240306D01*
X328522Y240352D01*
X328470Y240402D01*
X328425Y240458D01*
X328382Y240486D01*
X328344Y240522D01*
X328279Y240552D01*
X328219Y240591D01*
X328168Y240603D01*
X328121Y240625D01*
X328050Y240633D01*
X327980Y240651D01*
X327928Y240647D01*
X327876Y240652D01*
X327806Y240637D01*
X327735Y240632D01*
X327687Y240611D01*
X327636Y240600D01*
X327574Y240563D01*
X327508Y240535D01*
X327452Y240490D01*
X327425Y240474D01*
X327410Y240456D01*
X327378Y240430D01*
X324866Y237919D01*
X320852Y236256D01*
X316506Y236256D01*
X312492Y237919D01*
X309419Y240992D01*
X307756Y245006D01*
X307756Y249351D01*
X309419Y253366D01*
X312492Y256439D01*
X316506Y258102D01*
X320852Y258102D01*
X324866Y256439D01*
X327378Y253927D01*
X327436Y253885D01*
X327488Y253836D01*
X327535Y253814D01*
X327577Y253784D01*
X327646Y253763D01*
X327711Y253732D01*
X327763Y253727D01*
X327812Y253711D01*
X327884Y253713D01*
X327955Y253705D01*
X328006Y253716D01*
X328058Y253718D01*
X328126Y253742D01*
X328196Y253758D01*
X328240Y253784D01*
X328289Y253802D01*
X328345Y253847D01*
X328407Y253884D01*
X328441Y253923D01*
X328481Y253956D01*
X328520Y254016D01*
X328567Y254071D01*
X328586Y254119D01*
X328614Y254163D01*
X328632Y254232D01*
X328659Y254299D01*
X328666Y254370D01*
X328674Y254401D01*
X328673Y254425D01*
X328677Y254465D01*
X328677Y263855D01*
X328665Y263926D01*
X328664Y263998D01*
X328646Y264047D01*
X328637Y264098D01*
X328604Y264161D01*
X328579Y264229D01*
X328547Y264269D01*
X328522Y264315D01*
X328470Y264365D01*
X328425Y264421D01*
X328382Y264449D01*
X328344Y264485D01*
X328279Y264515D01*
X328219Y264554D01*
X328168Y264566D01*
X328121Y264588D01*
X328050Y264596D01*
X327980Y264614D01*
X327928Y264610D01*
X327876Y264616D01*
X327806Y264600D01*
X327735Y264595D01*
X327687Y264574D01*
X327636Y264563D01*
X327574Y264526D01*
X327508Y264498D01*
X327452Y264454D01*
X327425Y264437D01*
X327410Y264419D01*
X327378Y264394D01*
X326457Y263473D01*
X324936Y262368D01*
X323262Y261515D01*
X321474Y260934D01*
X320202Y260733D01*
X320202Y271056D01*
X331139Y271056D01*
X331229Y271070D01*
X331320Y271077D01*
X331350Y271090D01*
X331382Y271095D01*
X331463Y271138D01*
X331546Y271174D01*
X331579Y271199D01*
X331599Y271210D01*
X331621Y271234D01*
X331677Y271279D01*
X332933Y272534D01*
X332986Y272608D01*
X333046Y272678D01*
X333058Y272708D01*
X333077Y272734D01*
X333103Y272821D01*
X333138Y272906D01*
X333142Y272947D01*
X333149Y272969D01*
X333148Y273001D01*
X333156Y273073D01*
X333156Y274751D01*
X334819Y278766D01*
X337892Y281839D01*
X341906Y283502D01*
X346252Y283502D01*
X350266Y281839D01*
X353339Y278766D01*
X355002Y274751D01*
X355002Y270406D01*
X353339Y266392D01*
X350266Y263319D01*
X346252Y261656D01*
X341906Y261656D01*
X337892Y263319D01*
X335566Y265645D01*
X335508Y265686D01*
X335456Y265736D01*
X335409Y265758D01*
X335366Y265788D01*
X335298Y265809D01*
X335233Y265839D01*
X335181Y265845D01*
X335131Y265860D01*
X335059Y265859D01*
X334988Y265866D01*
X334937Y265855D01*
X334885Y265854D01*
X334818Y265829D01*
X334748Y265814D01*
X334703Y265788D01*
X334654Y265770D01*
X334598Y265725D01*
X334537Y265688D01*
X334503Y265648D01*
X334462Y265616D01*
X334424Y265556D01*
X334377Y265501D01*
X334357Y265453D01*
X334329Y265409D01*
X334312Y265340D01*
X334285Y265273D01*
X334277Y265202D01*
X334269Y265170D01*
X334271Y265147D01*
X334267Y265106D01*
X334267Y254651D01*
X334278Y254581D01*
X334280Y254509D01*
X334298Y254460D01*
X334306Y254409D01*
X334340Y254345D01*
X334364Y254278D01*
X334397Y254237D01*
X334421Y254191D01*
X334473Y254142D01*
X334518Y254086D01*
X334562Y254058D01*
X334600Y254022D01*
X334665Y253992D01*
X334725Y253953D01*
X334776Y253940D01*
X334823Y253918D01*
X334894Y253910D01*
X334964Y253893D01*
X335015Y253897D01*
X335067Y253891D01*
X335137Y253906D01*
X335209Y253912D01*
X335257Y253932D01*
X335308Y253943D01*
X335369Y253980D01*
X335435Y254008D01*
X335491Y254053D01*
X335519Y254070D01*
X335534Y254087D01*
X335566Y254113D01*
X337892Y256439D01*
X341906Y258102D01*
X346252Y258102D01*
X350266Y256439D01*
X353339Y253366D01*
X355002Y249351D01*
X355002Y245006D01*
X353339Y240992D01*
X350266Y237919D01*
X346252Y236256D01*
X341906Y236256D01*
X337892Y237919D01*
X335566Y240245D01*
X335508Y240286D01*
X335456Y240336D01*
X335436Y240345D01*
X335428Y240352D01*
X335403Y240362D01*
X335366Y240388D01*
X335298Y240409D01*
X335233Y240439D01*
X335202Y240443D01*
X335200Y240444D01*
X335178Y240446D01*
X335131Y240460D01*
X335064Y240459D01*
X335033Y240462D01*
X335028Y240462D01*
X334988Y240466D01*
X334937Y240455D01*
X334885Y240454D01*
X334818Y240429D01*
X334786Y240423D01*
X334785Y240422D01*
X334748Y240414D01*
X334703Y240388D01*
X334654Y240370D01*
X334598Y240325D01*
X334580Y240314D01*
X334568Y240307D01*
X334566Y240305D01*
X334537Y240288D01*
X334503Y240248D01*
X334462Y240216D01*
X334424Y240156D01*
X334423Y240155D01*
X334398Y240129D01*
X334395Y240123D01*
X334377Y240101D01*
X334357Y240053D01*
X334329Y240009D01*
X334314Y239947D01*
X334295Y239906D01*
X334293Y239894D01*
X334285Y239873D01*
X334277Y239802D01*
X334269Y239770D01*
X334271Y239747D01*
X334267Y239706D01*
X334267Y230016D01*
X334281Y229926D01*
X334288Y229835D01*
X334301Y229805D01*
X334306Y229773D01*
X334349Y229692D01*
X334385Y229608D01*
X334410Y229576D01*
X334421Y229556D01*
X334445Y229533D01*
X334489Y229478D01*
X368296Y195671D01*
X368370Y195618D01*
X368440Y195558D01*
X368470Y195546D01*
X368496Y195527D01*
X368583Y195501D01*
X368668Y195466D01*
X368709Y195462D01*
X368731Y195455D01*
X368763Y195456D01*
X368834Y195448D01*
X426078Y195448D01*
X465095Y156431D01*
X465095Y135668D01*
X465098Y135648D01*
X465096Y135629D01*
X465118Y135527D01*
X465134Y135425D01*
X465144Y135408D01*
X465148Y135388D01*
X465201Y135299D01*
X465250Y135208D01*
X465264Y135194D01*
X465274Y135177D01*
X465353Y135110D01*
X465428Y135038D01*
X465446Y135030D01*
X465461Y135017D01*
X465557Y134978D01*
X465651Y134935D01*
X465671Y134933D01*
X465689Y134925D01*
X465856Y134907D01*
X466404Y134907D01*
X472207Y129104D01*
X472207Y120896D01*
X466404Y115093D01*
X458196Y115093D01*
G37*
%LPD*%
%LPC*%
G36*
X615400Y248822D02*
X615400Y248822D01*
X609321Y251340D01*
X604668Y255993D01*
X602150Y262072D01*
X602150Y268653D01*
X604668Y274732D01*
X609321Y279385D01*
X615400Y281903D01*
X621981Y281903D01*
X628060Y279385D01*
X632713Y274732D01*
X635231Y268653D01*
X635231Y262072D01*
X632713Y255993D01*
X628060Y251340D01*
X621981Y248822D01*
X615400Y248822D01*
G37*
%LPD*%
%LPC*%
G36*
X35400Y248822D02*
X35400Y248822D01*
X29321Y251340D01*
X24668Y255993D01*
X22150Y262072D01*
X22150Y268653D01*
X24668Y274732D01*
X29321Y279385D01*
X35400Y281903D01*
X41981Y281903D01*
X48060Y279385D01*
X52713Y274732D01*
X55231Y268653D01*
X55231Y262072D01*
X52713Y255993D01*
X48060Y251340D01*
X41981Y248822D01*
X35400Y248822D01*
G37*
%LPD*%
%LPC*%
G36*
X615400Y18871D02*
X615400Y18871D01*
X609321Y21389D01*
X604668Y26042D01*
X602150Y32121D01*
X602150Y38702D01*
X604668Y44781D01*
X609321Y49434D01*
X615400Y51952D01*
X621981Y51952D01*
X628060Y49434D01*
X632713Y44781D01*
X635231Y38702D01*
X635231Y32121D01*
X632713Y26042D01*
X628060Y21389D01*
X621981Y18871D01*
X615400Y18871D01*
G37*
%LPD*%
%LPC*%
G36*
X583620Y119855D02*
X583620Y119855D01*
X580633Y121093D01*
X578346Y123379D01*
X577109Y126367D01*
X577109Y129601D01*
X578346Y132589D01*
X580633Y134875D01*
X583620Y136113D01*
X600062Y136113D01*
X603050Y134875D01*
X605337Y132589D01*
X606574Y129601D01*
X606574Y126367D01*
X605337Y123379D01*
X603050Y121093D01*
X600062Y119855D01*
X583620Y119855D01*
G37*
%LPD*%
%LPC*%
G36*
X583620Y145255D02*
X583620Y145255D01*
X580633Y146493D01*
X578346Y148779D01*
X577109Y151767D01*
X577109Y155001D01*
X578346Y157989D01*
X580633Y160275D01*
X583620Y161513D01*
X600062Y161513D01*
X603050Y160275D01*
X605337Y157989D01*
X606574Y155001D01*
X606574Y151767D01*
X605337Y148779D01*
X603050Y146493D01*
X600062Y145255D01*
X583620Y145255D01*
G37*
%LPD*%
%LPC*%
G36*
X583620Y94455D02*
X583620Y94455D01*
X580633Y95693D01*
X578346Y97979D01*
X577109Y100967D01*
X577109Y104201D01*
X578346Y107189D01*
X580633Y109475D01*
X583620Y110713D01*
X600062Y110713D01*
X603050Y109475D01*
X605337Y107189D01*
X606574Y104201D01*
X606574Y100967D01*
X605337Y97979D01*
X603050Y95693D01*
X600062Y94455D01*
X583620Y94455D01*
G37*
%LPD*%
%LPC*%
G36*
X583620Y69055D02*
X583620Y69055D01*
X580633Y70293D01*
X578346Y72579D01*
X577109Y75567D01*
X577109Y78801D01*
X578346Y81789D01*
X580633Y84075D01*
X583620Y85313D01*
X600062Y85313D01*
X603050Y84075D01*
X605337Y81789D01*
X606574Y78801D01*
X606574Y75567D01*
X605337Y72579D01*
X603050Y70293D01*
X600062Y69055D01*
X583620Y69055D01*
G37*
%LPD*%
%LPC*%
G36*
X178686Y115093D02*
X178686Y115093D01*
X177793Y115986D01*
X177793Y134014D01*
X178686Y134907D01*
X196714Y134907D01*
X197607Y134014D01*
X197607Y115986D01*
X196714Y115093D01*
X178686Y115093D01*
G37*
%LPD*%
%LPC*%
G36*
X328686Y115093D02*
X328686Y115093D01*
X327793Y115986D01*
X327793Y134014D01*
X328686Y134907D01*
X346714Y134907D01*
X347607Y134014D01*
X347607Y115986D01*
X346714Y115093D01*
X328686Y115093D01*
G37*
%LPD*%
%LPC*%
G36*
X478686Y115093D02*
X478686Y115093D01*
X477793Y115986D01*
X477793Y134014D01*
X478686Y134907D01*
X496714Y134907D01*
X497607Y134014D01*
X497607Y115986D01*
X496714Y115093D01*
X478686Y115093D01*
G37*
%LPD*%
%LPC*%
G36*
X418106Y236256D02*
X418106Y236256D01*
X414092Y237919D01*
X411019Y240992D01*
X409356Y245006D01*
X409356Y249351D01*
X411019Y253366D01*
X414092Y256439D01*
X418106Y258102D01*
X422452Y258102D01*
X426466Y256439D01*
X429539Y253366D01*
X431202Y249351D01*
X431202Y245006D01*
X429539Y240992D01*
X426466Y237919D01*
X422452Y236256D01*
X418106Y236256D01*
G37*
%LPD*%
%LPC*%
G36*
X468906Y236256D02*
X468906Y236256D01*
X464892Y237919D01*
X461819Y240992D01*
X460156Y245006D01*
X460156Y249351D01*
X461819Y253366D01*
X464892Y256439D01*
X468906Y258102D01*
X473252Y258102D01*
X477266Y256439D01*
X480339Y253366D01*
X482002Y249351D01*
X482002Y245006D01*
X480339Y240992D01*
X477266Y237919D01*
X473252Y236256D01*
X468906Y236256D01*
G37*
%LPD*%
%LPC*%
G36*
X87906Y236256D02*
X87906Y236256D01*
X83892Y237919D01*
X80819Y240992D01*
X79156Y245006D01*
X79156Y249351D01*
X80819Y253366D01*
X83892Y256439D01*
X87906Y258102D01*
X92252Y258102D01*
X96266Y256439D01*
X99339Y253366D01*
X101002Y249351D01*
X101002Y245006D01*
X99339Y240992D01*
X96266Y237919D01*
X92252Y236256D01*
X87906Y236256D01*
G37*
%LPD*%
%LPC*%
G36*
X113306Y236256D02*
X113306Y236256D01*
X109292Y237919D01*
X106219Y240992D01*
X104556Y245006D01*
X104556Y249351D01*
X106219Y253366D01*
X109292Y256439D01*
X113306Y258102D01*
X117652Y258102D01*
X121666Y256439D01*
X124739Y253366D01*
X126402Y249351D01*
X126402Y245006D01*
X124739Y240992D01*
X121666Y237919D01*
X117652Y236256D01*
X113306Y236256D01*
G37*
%LPD*%
%LPC*%
G36*
X138706Y236256D02*
X138706Y236256D01*
X134692Y237919D01*
X131619Y240992D01*
X129956Y245006D01*
X129956Y249351D01*
X131619Y253366D01*
X134692Y256439D01*
X138706Y258102D01*
X143052Y258102D01*
X147066Y256439D01*
X150139Y253366D01*
X151802Y249351D01*
X151802Y245006D01*
X150139Y240992D01*
X147066Y237919D01*
X143052Y236256D01*
X138706Y236256D01*
G37*
%LPD*%
%LPC*%
G36*
X214906Y236256D02*
X214906Y236256D01*
X210892Y237919D01*
X207819Y240992D01*
X206156Y245006D01*
X206156Y249351D01*
X207819Y253366D01*
X210892Y256439D01*
X214906Y258102D01*
X219252Y258102D01*
X223266Y256439D01*
X226339Y253366D01*
X228002Y249351D01*
X228002Y245006D01*
X226339Y240992D01*
X223266Y237919D01*
X219252Y236256D01*
X214906Y236256D01*
G37*
%LPD*%
%LPC*%
G36*
X240306Y236256D02*
X240306Y236256D01*
X236292Y237919D01*
X233219Y240992D01*
X231556Y245006D01*
X231556Y249351D01*
X233219Y253366D01*
X236292Y256439D01*
X240306Y258102D01*
X244652Y258102D01*
X248666Y256439D01*
X251739Y253366D01*
X253402Y249351D01*
X253402Y245006D01*
X251739Y240992D01*
X248666Y237919D01*
X244652Y236256D01*
X240306Y236256D01*
G37*
%LPD*%
%LPC*%
G36*
X291106Y236256D02*
X291106Y236256D01*
X287092Y237919D01*
X284019Y240992D01*
X282356Y245006D01*
X282356Y249351D01*
X284019Y253366D01*
X287092Y256439D01*
X291106Y258102D01*
X295452Y258102D01*
X299466Y256439D01*
X302539Y253366D01*
X304202Y249351D01*
X304202Y245006D01*
X302539Y240992D01*
X299466Y237919D01*
X295452Y236256D01*
X291106Y236256D01*
G37*
%LPD*%
%LPC*%
G36*
X367306Y236256D02*
X367306Y236256D01*
X363292Y237919D01*
X360219Y240992D01*
X358556Y245006D01*
X358556Y249351D01*
X360219Y253366D01*
X363292Y256439D01*
X367306Y258102D01*
X371652Y258102D01*
X375666Y256439D01*
X378739Y253366D01*
X380402Y249351D01*
X380402Y245006D01*
X378739Y240992D01*
X375666Y237919D01*
X371652Y236256D01*
X367306Y236256D01*
G37*
%LPD*%
%LPC*%
G36*
X164106Y236256D02*
X164106Y236256D01*
X160092Y237919D01*
X157019Y240992D01*
X155356Y245006D01*
X155356Y249351D01*
X157019Y253366D01*
X160092Y256439D01*
X164106Y258102D01*
X168452Y258102D01*
X172466Y256439D01*
X175539Y253366D01*
X177202Y249351D01*
X177202Y245006D01*
X175539Y240992D01*
X172466Y237919D01*
X168452Y236256D01*
X164106Y236256D01*
G37*
%LPD*%
%LPC*%
G36*
X265706Y236256D02*
X265706Y236256D01*
X261692Y237919D01*
X258619Y240992D01*
X256956Y245006D01*
X256956Y249351D01*
X258619Y253366D01*
X261692Y256439D01*
X265706Y258102D01*
X270052Y258102D01*
X274066Y256439D01*
X277139Y253366D01*
X278802Y249351D01*
X278802Y245006D01*
X277139Y240992D01*
X274066Y237919D01*
X270052Y236256D01*
X265706Y236256D01*
G37*
%LPD*%
%LPC*%
G36*
X494306Y236256D02*
X494306Y236256D01*
X490292Y237919D01*
X487219Y240992D01*
X485556Y245006D01*
X485556Y249351D01*
X487219Y253366D01*
X490292Y256439D01*
X494306Y258102D01*
X498652Y258102D01*
X502666Y256439D01*
X505739Y253366D01*
X507402Y249351D01*
X507402Y245006D01*
X505739Y240992D01*
X502666Y237919D01*
X498652Y236256D01*
X494306Y236256D01*
G37*
%LPD*%
%LPC*%
G36*
X519706Y236256D02*
X519706Y236256D01*
X515692Y237919D01*
X512619Y240992D01*
X510956Y245006D01*
X510956Y249351D01*
X512619Y253366D01*
X515692Y256439D01*
X519706Y258102D01*
X524052Y258102D01*
X528066Y256439D01*
X531139Y253366D01*
X532802Y249351D01*
X532802Y245006D01*
X531139Y240992D01*
X528066Y237919D01*
X524052Y236256D01*
X519706Y236256D01*
G37*
%LPD*%
%LPC*%
G36*
X545106Y236256D02*
X545106Y236256D01*
X541092Y237919D01*
X538019Y240992D01*
X536356Y245006D01*
X536356Y249351D01*
X538019Y253366D01*
X541092Y256439D01*
X545106Y258102D01*
X549452Y258102D01*
X553466Y256439D01*
X556539Y253366D01*
X558202Y249351D01*
X558202Y245006D01*
X556539Y240992D01*
X553466Y237919D01*
X549452Y236256D01*
X545106Y236256D01*
G37*
%LPD*%
%LPC*%
G36*
X443506Y236256D02*
X443506Y236256D01*
X439492Y237919D01*
X436419Y240992D01*
X434756Y245006D01*
X434756Y249351D01*
X436419Y253366D01*
X439492Y256439D01*
X443506Y258102D01*
X447852Y258102D01*
X451866Y256439D01*
X454939Y253366D01*
X456602Y249351D01*
X456602Y245006D01*
X454939Y240992D01*
X451866Y237919D01*
X447852Y236256D01*
X443506Y236256D01*
G37*
%LPD*%
%LPC*%
G36*
X113306Y261656D02*
X113306Y261656D01*
X109292Y263319D01*
X106219Y266392D01*
X104556Y270406D01*
X104556Y274751D01*
X106219Y278766D01*
X109292Y281839D01*
X113306Y283502D01*
X117652Y283502D01*
X121666Y281839D01*
X124739Y278766D01*
X126402Y274751D01*
X126402Y270406D01*
X124739Y266392D01*
X121666Y263319D01*
X117652Y261656D01*
X113306Y261656D01*
G37*
%LPD*%
%LPC*%
G36*
X214906Y261656D02*
X214906Y261656D01*
X210892Y263319D01*
X207819Y266392D01*
X206156Y270406D01*
X206156Y274751D01*
X207819Y278766D01*
X210892Y281839D01*
X214906Y283502D01*
X219252Y283502D01*
X223266Y281839D01*
X226339Y278766D01*
X228002Y274751D01*
X228002Y270406D01*
X226339Y266392D01*
X223266Y263319D01*
X219252Y261656D01*
X214906Y261656D01*
G37*
%LPD*%
%LPC*%
G36*
X469006Y261656D02*
X469006Y261656D01*
X464992Y263319D01*
X461919Y266392D01*
X460256Y270406D01*
X460256Y274751D01*
X461919Y278766D01*
X464992Y281839D01*
X469006Y283502D01*
X473352Y283502D01*
X477366Y281839D01*
X480439Y278766D01*
X482102Y274751D01*
X482102Y270406D01*
X480439Y266392D01*
X477366Y263319D01*
X473352Y261656D01*
X469006Y261656D01*
G37*
%LPD*%
%LPC*%
G36*
X519706Y261656D02*
X519706Y261656D01*
X515692Y263319D01*
X512619Y266392D01*
X510956Y270406D01*
X510956Y274751D01*
X512619Y278766D01*
X515692Y281839D01*
X519706Y283502D01*
X524052Y283502D01*
X528066Y281839D01*
X531139Y278766D01*
X532802Y274751D01*
X532802Y270406D01*
X531139Y266392D01*
X528066Y263319D01*
X524052Y261656D01*
X519706Y261656D01*
G37*
%LPD*%
%LPC*%
G36*
X189506Y261656D02*
X189506Y261656D01*
X185492Y263319D01*
X182419Y266392D01*
X180756Y270406D01*
X180756Y274751D01*
X182419Y278766D01*
X185492Y281839D01*
X189506Y283502D01*
X193852Y283502D01*
X197866Y281839D01*
X200939Y278766D01*
X202602Y274751D01*
X202602Y270406D01*
X200939Y266392D01*
X197866Y263319D01*
X193852Y261656D01*
X189506Y261656D01*
G37*
%LPD*%
%LPC*%
G36*
X418106Y261656D02*
X418106Y261656D01*
X414092Y263319D01*
X411019Y266392D01*
X409356Y270406D01*
X409356Y274751D01*
X411019Y278766D01*
X414092Y281839D01*
X418106Y283502D01*
X422452Y283502D01*
X426466Y281839D01*
X429539Y278766D01*
X431202Y274751D01*
X431202Y270406D01*
X429539Y266392D01*
X426466Y263319D01*
X422452Y261656D01*
X418106Y261656D01*
G37*
%LPD*%
%LPC*%
G36*
X545106Y261656D02*
X545106Y261656D01*
X541092Y263319D01*
X538019Y266392D01*
X536356Y270406D01*
X536356Y274751D01*
X538019Y278766D01*
X541092Y281839D01*
X545106Y283502D01*
X549452Y283502D01*
X553466Y281839D01*
X556539Y278766D01*
X558202Y274751D01*
X558202Y270406D01*
X556539Y266392D01*
X553466Y263319D01*
X549452Y261656D01*
X545106Y261656D01*
G37*
%LPD*%
%LPC*%
G36*
X570506Y261656D02*
X570506Y261656D01*
X566492Y263319D01*
X563419Y266392D01*
X561756Y270406D01*
X561756Y274751D01*
X563419Y278766D01*
X566492Y281839D01*
X570506Y283502D01*
X574852Y283502D01*
X578866Y281839D01*
X581939Y278766D01*
X583602Y274751D01*
X583602Y270406D01*
X581939Y266392D01*
X578866Y263319D01*
X574852Y261656D01*
X570506Y261656D01*
G37*
%LPD*%
%LPC*%
G36*
X291106Y261656D02*
X291106Y261656D01*
X287092Y263319D01*
X284019Y266392D01*
X282356Y270406D01*
X282356Y274751D01*
X284019Y278766D01*
X287092Y281839D01*
X291106Y283502D01*
X295452Y283502D01*
X299466Y281839D01*
X302539Y278766D01*
X304202Y274751D01*
X304202Y270406D01*
X302539Y266392D01*
X299466Y263319D01*
X295452Y261656D01*
X291106Y261656D01*
G37*
%LPD*%
%LPC*%
G36*
X265706Y261656D02*
X265706Y261656D01*
X261692Y263319D01*
X258619Y266392D01*
X256956Y270406D01*
X256956Y274751D01*
X258619Y278766D01*
X261692Y281839D01*
X265706Y283502D01*
X270052Y283502D01*
X274066Y281839D01*
X277139Y278766D01*
X278802Y274751D01*
X278802Y270406D01*
X277139Y266392D01*
X274066Y263319D01*
X270052Y261656D01*
X265706Y261656D01*
G37*
%LPD*%
%LPC*%
G36*
X392706Y261656D02*
X392706Y261656D01*
X388692Y263319D01*
X385619Y266392D01*
X383956Y270406D01*
X383956Y274751D01*
X385619Y278766D01*
X388692Y281839D01*
X392706Y283502D01*
X397052Y283502D01*
X401066Y281839D01*
X404139Y278766D01*
X405802Y274751D01*
X405802Y270406D01*
X404139Y266392D01*
X401066Y263319D01*
X397052Y261656D01*
X392706Y261656D01*
G37*
%LPD*%
%LPC*%
G36*
X367306Y261656D02*
X367306Y261656D01*
X363292Y263319D01*
X360219Y266392D01*
X358556Y270406D01*
X358556Y274751D01*
X360219Y278766D01*
X363292Y281839D01*
X367306Y283502D01*
X371652Y283502D01*
X375666Y281839D01*
X378739Y278766D01*
X380402Y274751D01*
X380402Y270406D01*
X378739Y266392D01*
X375666Y263319D01*
X371652Y261656D01*
X367306Y261656D01*
G37*
%LPD*%
%LPC*%
G36*
X87906Y261656D02*
X87906Y261656D01*
X83892Y263319D01*
X80819Y266392D01*
X79156Y270406D01*
X79156Y274751D01*
X80819Y278766D01*
X83892Y281839D01*
X87906Y283502D01*
X92252Y283502D01*
X96266Y281839D01*
X99339Y278766D01*
X101002Y274751D01*
X101002Y270406D01*
X99339Y266392D01*
X96266Y263319D01*
X92252Y261656D01*
X87906Y261656D01*
G37*
%LPD*%
%LPC*%
G36*
X164106Y261656D02*
X164106Y261656D01*
X160092Y263319D01*
X157019Y266392D01*
X155356Y270406D01*
X155356Y274751D01*
X157019Y278766D01*
X160092Y281839D01*
X164106Y283502D01*
X168452Y283502D01*
X172466Y281839D01*
X175539Y278766D01*
X177202Y274751D01*
X177202Y270406D01*
X175539Y266392D01*
X172466Y263319D01*
X168452Y261656D01*
X164106Y261656D01*
G37*
%LPD*%
%LPC*%
G36*
X308196Y115093D02*
X308196Y115093D01*
X302393Y120896D01*
X302393Y129104D01*
X308196Y134907D01*
X316404Y134907D01*
X322207Y129104D01*
X322207Y120896D01*
X316404Y115093D01*
X308196Y115093D01*
G37*
%LPD*%
%LPC*%
G36*
X158196Y115093D02*
X158196Y115093D01*
X152393Y120896D01*
X152393Y129104D01*
X158196Y134907D01*
X166404Y134907D01*
X172207Y129104D01*
X172207Y120896D01*
X166404Y115093D01*
X158196Y115093D01*
G37*
%LPD*%
%LPC*%
G36*
X593365Y180307D02*
X593365Y180307D01*
X593365Y187929D01*
X599346Y187929D01*
X601113Y187577D01*
X602777Y186888D01*
X604275Y185887D01*
X605548Y184614D01*
X606549Y183116D01*
X607239Y181451D01*
X607466Y180307D01*
X593365Y180307D01*
G37*
%LPD*%
%LPC*%
G36*
X576216Y180307D02*
X576216Y180307D01*
X576444Y181451D01*
X577133Y183116D01*
X578134Y184614D01*
X579408Y185887D01*
X580906Y186888D01*
X582570Y187577D01*
X584337Y187929D01*
X590318Y187929D01*
X590318Y180307D01*
X576216Y180307D01*
G37*
%LPD*%
%LPC*%
G36*
X593365Y169639D02*
X593365Y169639D01*
X593365Y177261D01*
X607466Y177261D01*
X607239Y176117D01*
X606549Y174452D01*
X605548Y172954D01*
X604275Y171681D01*
X602777Y170680D01*
X601113Y169991D01*
X599346Y169639D01*
X593365Y169639D01*
G37*
%LPD*%
%LPC*%
G36*
X584337Y169639D02*
X584337Y169639D01*
X582570Y169991D01*
X580906Y170680D01*
X579408Y171681D01*
X578134Y172954D01*
X577133Y174452D01*
X576444Y176117D01*
X576216Y177261D01*
X590318Y177261D01*
X590318Y169639D01*
X584337Y169639D01*
G37*
%LPD*%
%LPC*%
G36*
X244002Y274102D02*
X244002Y274102D01*
X244002Y284425D01*
X245274Y284224D01*
X247062Y283643D01*
X248736Y282790D01*
X250257Y281685D01*
X251585Y280356D01*
X252690Y278836D01*
X253543Y277162D01*
X254124Y275374D01*
X254325Y274102D01*
X244002Y274102D01*
G37*
%LPD*%
%LPC*%
G36*
X574202Y248702D02*
X574202Y248702D01*
X574202Y259025D01*
X575474Y258824D01*
X577262Y258243D01*
X578936Y257390D01*
X580457Y256285D01*
X581785Y254956D01*
X582890Y253436D01*
X583743Y251762D01*
X584324Y249974D01*
X584525Y248702D01*
X574202Y248702D01*
G37*
%LPD*%
%LPC*%
G36*
X320202Y274102D02*
X320202Y274102D01*
X320202Y284425D01*
X321474Y284224D01*
X323262Y283643D01*
X324936Y282790D01*
X326457Y281685D01*
X327785Y280356D01*
X328890Y278836D01*
X329743Y277162D01*
X330324Y275374D01*
X330525Y274102D01*
X320202Y274102D01*
G37*
%LPD*%
%LPC*%
G36*
X447202Y274102D02*
X447202Y274102D01*
X447202Y284425D01*
X448474Y284224D01*
X450262Y283643D01*
X451936Y282790D01*
X453457Y281685D01*
X454785Y280356D01*
X455890Y278836D01*
X456743Y277162D01*
X457324Y275374D01*
X457525Y274102D01*
X447202Y274102D01*
G37*
%LPD*%
%LPC*%
G36*
X498002Y274102D02*
X498002Y274102D01*
X498002Y284425D01*
X499274Y284224D01*
X501062Y283643D01*
X502736Y282790D01*
X504257Y281685D01*
X505585Y280356D01*
X506690Y278836D01*
X507543Y277162D01*
X508124Y275374D01*
X508325Y274102D01*
X498002Y274102D01*
G37*
%LPD*%
%LPC*%
G36*
X142402Y274102D02*
X142402Y274102D01*
X142402Y284425D01*
X143674Y284224D01*
X145462Y283643D01*
X147136Y282790D01*
X148657Y281685D01*
X149985Y280356D01*
X151090Y278836D01*
X151943Y277162D01*
X152524Y275374D01*
X152725Y274102D01*
X142402Y274102D01*
G37*
%LPD*%
%LPC*%
G36*
X396402Y248702D02*
X396402Y248702D01*
X396402Y259025D01*
X397674Y258824D01*
X399462Y258243D01*
X401136Y257390D01*
X402657Y256285D01*
X403985Y254956D01*
X405090Y253436D01*
X405943Y251762D01*
X406524Y249974D01*
X406725Y248702D01*
X396402Y248702D01*
G37*
%LPD*%
%LPC*%
G36*
X193202Y248702D02*
X193202Y248702D01*
X193202Y259025D01*
X194474Y258824D01*
X196262Y258243D01*
X197936Y257390D01*
X199457Y256285D01*
X200785Y254956D01*
X201890Y253436D01*
X202743Y251762D01*
X203324Y249974D01*
X203525Y248702D01*
X193202Y248702D01*
G37*
%LPD*%
%LPC*%
G36*
X193202Y245656D02*
X193202Y245656D01*
X203525Y245656D01*
X203324Y244383D01*
X202743Y242596D01*
X201890Y240922D01*
X200785Y239401D01*
X199457Y238073D01*
X197936Y236968D01*
X196262Y236115D01*
X194474Y235534D01*
X193202Y235333D01*
X193202Y245656D01*
G37*
%LPD*%
%LPC*%
G36*
X484633Y274102D02*
X484633Y274102D01*
X484834Y275374D01*
X485415Y277162D01*
X486268Y278836D01*
X487373Y280356D01*
X488701Y281685D01*
X490222Y282790D01*
X491896Y283643D01*
X493683Y284224D01*
X494956Y284425D01*
X494956Y274102D01*
X484633Y274102D01*
G37*
%LPD*%
%LPC*%
G36*
X433833Y274102D02*
X433833Y274102D01*
X434034Y275374D01*
X434615Y277162D01*
X435468Y278836D01*
X436573Y280356D01*
X437901Y281685D01*
X439422Y282790D01*
X441096Y283643D01*
X442883Y284224D01*
X444156Y284425D01*
X444156Y274102D01*
X433833Y274102D01*
G37*
%LPD*%
%LPC*%
G36*
X129033Y274102D02*
X129033Y274102D01*
X129234Y275374D01*
X129815Y277162D01*
X130668Y278836D01*
X131773Y280356D01*
X133101Y281685D01*
X134622Y282790D01*
X136296Y283643D01*
X138083Y284224D01*
X139356Y284425D01*
X139356Y274102D01*
X129033Y274102D01*
G37*
%LPD*%
%LPC*%
G36*
X230633Y274102D02*
X230633Y274102D01*
X230834Y275374D01*
X231415Y277162D01*
X232268Y278836D01*
X233373Y280356D01*
X234701Y281685D01*
X236222Y282790D01*
X237896Y283643D01*
X239683Y284224D01*
X240956Y284425D01*
X240956Y274102D01*
X230633Y274102D01*
G37*
%LPD*%
%LPC*%
G36*
X179833Y248702D02*
X179833Y248702D01*
X180034Y249974D01*
X180615Y251762D01*
X181468Y253436D01*
X182573Y254956D01*
X183901Y256285D01*
X185422Y257390D01*
X187096Y258243D01*
X188883Y258824D01*
X190156Y259025D01*
X190156Y248702D01*
X179833Y248702D01*
G37*
%LPD*%
%LPC*%
G36*
X306833Y274102D02*
X306833Y274102D01*
X307034Y275374D01*
X307615Y277162D01*
X308468Y278836D01*
X309573Y280356D01*
X310901Y281685D01*
X312422Y282790D01*
X314096Y283643D01*
X315883Y284224D01*
X317156Y284425D01*
X317156Y274102D01*
X306833Y274102D01*
G37*
%LPD*%
%LPC*%
G36*
X560833Y248702D02*
X560833Y248702D01*
X561034Y249974D01*
X561615Y251762D01*
X562468Y253436D01*
X563573Y254956D01*
X564901Y256285D01*
X566422Y257390D01*
X568096Y258243D01*
X569883Y258824D01*
X571156Y259025D01*
X571156Y248702D01*
X560833Y248702D01*
G37*
%LPD*%
%LPC*%
G36*
X383033Y248702D02*
X383033Y248702D01*
X383234Y249974D01*
X383815Y251762D01*
X384668Y253436D01*
X385773Y254956D01*
X387101Y256285D01*
X388622Y257390D01*
X390296Y258243D01*
X392083Y258824D01*
X393356Y259025D01*
X393356Y248702D01*
X383033Y248702D01*
G37*
%LPD*%
%LPC*%
G36*
X396402Y245656D02*
X396402Y245656D01*
X406725Y245656D01*
X406524Y244383D01*
X405943Y242596D01*
X405090Y240922D01*
X403985Y239401D01*
X402657Y238073D01*
X401136Y236968D01*
X399462Y236115D01*
X397674Y235534D01*
X396402Y235333D01*
X396402Y245656D01*
G37*
%LPD*%
%LPC*%
G36*
X574202Y245656D02*
X574202Y245656D01*
X584525Y245656D01*
X584324Y244383D01*
X583743Y242596D01*
X582890Y240922D01*
X581785Y239401D01*
X580457Y238073D01*
X578936Y236968D01*
X577262Y236115D01*
X575474Y235534D01*
X574202Y235333D01*
X574202Y245656D01*
G37*
%LPD*%
%LPC*%
G36*
X447202Y271056D02*
X447202Y271056D01*
X457525Y271056D01*
X457324Y269783D01*
X456743Y267996D01*
X455890Y266322D01*
X454785Y264801D01*
X453457Y263473D01*
X451936Y262368D01*
X450262Y261515D01*
X448474Y260934D01*
X447202Y260733D01*
X447202Y271056D01*
G37*
%LPD*%
%LPC*%
G36*
X142402Y271056D02*
X142402Y271056D01*
X152725Y271056D01*
X152524Y269783D01*
X151943Y267996D01*
X151090Y266322D01*
X149985Y264801D01*
X148657Y263473D01*
X147136Y262368D01*
X145462Y261515D01*
X143674Y260934D01*
X142402Y260733D01*
X142402Y271056D01*
G37*
%LPD*%
%LPC*%
G36*
X498002Y271056D02*
X498002Y271056D01*
X508325Y271056D01*
X508124Y269783D01*
X507543Y267996D01*
X506690Y266322D01*
X505585Y264801D01*
X504257Y263473D01*
X502736Y262368D01*
X501062Y261515D01*
X499274Y260934D01*
X498002Y260733D01*
X498002Y271056D01*
G37*
%LPD*%
%LPC*%
G36*
X244002Y271056D02*
X244002Y271056D01*
X254325Y271056D01*
X254124Y269783D01*
X253543Y267996D01*
X252690Y266322D01*
X251585Y264801D01*
X250257Y263473D01*
X248736Y262368D01*
X247062Y261515D01*
X245274Y260934D01*
X244002Y260733D01*
X244002Y271056D01*
G37*
%LPD*%
%LPC*%
G36*
X392083Y235534D02*
X392083Y235534D01*
X390296Y236115D01*
X388622Y236968D01*
X387101Y238073D01*
X385773Y239401D01*
X384668Y240922D01*
X383815Y242596D01*
X383234Y244383D01*
X383033Y245656D01*
X393356Y245656D01*
X393356Y235333D01*
X392083Y235534D01*
G37*
%LPD*%
%LPC*%
G36*
X239683Y260934D02*
X239683Y260934D01*
X237896Y261515D01*
X236222Y262368D01*
X234701Y263473D01*
X233373Y264801D01*
X232268Y266322D01*
X231415Y267996D01*
X230834Y269783D01*
X230633Y271056D01*
X240956Y271056D01*
X240956Y260733D01*
X239683Y260934D01*
G37*
%LPD*%
%LPC*%
G36*
X138083Y260934D02*
X138083Y260934D01*
X136296Y261515D01*
X134622Y262368D01*
X133101Y263473D01*
X131773Y264801D01*
X130668Y266322D01*
X129815Y267996D01*
X129234Y269783D01*
X129033Y271056D01*
X139356Y271056D01*
X139356Y260733D01*
X138083Y260934D01*
G37*
%LPD*%
%LPC*%
G36*
X493683Y260934D02*
X493683Y260934D01*
X491896Y261515D01*
X490222Y262368D01*
X488701Y263473D01*
X487373Y264801D01*
X486268Y266322D01*
X485415Y267996D01*
X484834Y269783D01*
X484633Y271056D01*
X494956Y271056D01*
X494956Y260733D01*
X493683Y260934D01*
G37*
%LPD*%
%LPC*%
G36*
X442883Y260934D02*
X442883Y260934D01*
X441096Y261515D01*
X439422Y262368D01*
X437901Y263473D01*
X436573Y264801D01*
X435468Y266322D01*
X434615Y267996D01*
X434034Y269783D01*
X433833Y271056D01*
X444156Y271056D01*
X444156Y260733D01*
X442883Y260934D01*
G37*
%LPD*%
%LPC*%
G36*
X315883Y260934D02*
X315883Y260934D01*
X314096Y261515D01*
X312422Y262368D01*
X310901Y263473D01*
X309573Y264801D01*
X308468Y266322D01*
X307615Y267996D01*
X307034Y269783D01*
X306833Y271056D01*
X317156Y271056D01*
X317156Y260733D01*
X315883Y260934D01*
G37*
%LPD*%
%LPC*%
G36*
X188883Y235534D02*
X188883Y235534D01*
X187096Y236115D01*
X185422Y236968D01*
X183901Y238073D01*
X182573Y239401D01*
X181468Y240922D01*
X180615Y242596D01*
X180034Y244383D01*
X179833Y245656D01*
X190156Y245656D01*
X190156Y235333D01*
X188883Y235534D01*
G37*
%LPD*%
%LPC*%
G36*
X569883Y235534D02*
X569883Y235534D01*
X568096Y236115D01*
X566422Y236968D01*
X564901Y238073D01*
X563573Y239401D01*
X562468Y240922D01*
X561615Y242596D01*
X561034Y244383D01*
X560833Y245656D01*
X571156Y245656D01*
X571156Y235333D01*
X569883Y235534D01*
G37*
%LPD*%
%LPC*%
G36*
X445678Y272578D02*
X445678Y272578D01*
X445678Y272580D01*
X445680Y272580D01*
X445680Y272578D01*
X445678Y272578D01*
G37*
%LPD*%
%LPC*%
G36*
X318678Y272578D02*
X318678Y272578D01*
X318678Y272580D01*
X318680Y272580D01*
X318680Y272578D01*
X318678Y272578D01*
G37*
%LPD*%
%LPC*%
G36*
X496478Y272578D02*
X496478Y272578D01*
X496478Y272580D01*
X496480Y272580D01*
X496480Y272578D01*
X496478Y272578D01*
G37*
%LPD*%
%LPC*%
G36*
X591840Y178783D02*
X591840Y178783D01*
X591840Y178785D01*
X591842Y178785D01*
X591842Y178783D01*
X591840Y178783D01*
G37*
%LPD*%
%LPC*%
G36*
X140878Y272578D02*
X140878Y272578D01*
X140878Y272580D01*
X140880Y272580D01*
X140880Y272578D01*
X140878Y272578D01*
G37*
%LPD*%
%LPC*%
G36*
X242478Y272578D02*
X242478Y272578D01*
X242478Y272580D01*
X242480Y272580D01*
X242480Y272578D01*
X242478Y272578D01*
G37*
%LPD*%
%LPC*%
G36*
X572678Y247178D02*
X572678Y247178D01*
X572678Y247180D01*
X572680Y247180D01*
X572680Y247178D01*
X572678Y247178D01*
G37*
%LPD*%
%LPC*%
G36*
X394878Y247178D02*
X394878Y247178D01*
X394878Y247180D01*
X394880Y247180D01*
X394880Y247178D01*
X394878Y247178D01*
G37*
%LPD*%
%LPC*%
G36*
X191678Y247178D02*
X191678Y247178D01*
X191678Y247180D01*
X191680Y247180D01*
X191680Y247178D01*
X191678Y247178D01*
G37*
%LPD*%
D10*
X33690Y411D02*
X623690Y411D01*
X653690Y30411D02*
X653690Y270363D01*
X623690Y300363D02*
X33690Y300363D01*
X3690Y270363D02*
X3690Y30411D01*
X3699Y29686D01*
X3725Y28962D01*
X3769Y28238D01*
X3830Y27516D01*
X3909Y26795D01*
X4005Y26076D01*
X4118Y25360D01*
X4249Y24647D01*
X4397Y23937D01*
X4562Y23232D01*
X4744Y22530D01*
X4943Y21833D01*
X5158Y21140D01*
X5391Y20454D01*
X5640Y19773D01*
X5905Y19098D01*
X6186Y18430D01*
X6484Y17769D01*
X6797Y17115D01*
X7126Y16469D01*
X7471Y15831D01*
X7831Y15202D01*
X8206Y14582D01*
X8596Y13971D01*
X9000Y13369D01*
X9419Y12777D01*
X9853Y12196D01*
X10300Y11625D01*
X10761Y11066D01*
X11235Y10517D01*
X11722Y9981D01*
X12222Y9456D01*
X12735Y8943D01*
X13260Y8443D01*
X13796Y7956D01*
X14345Y7482D01*
X14904Y7021D01*
X15475Y6574D01*
X16056Y6140D01*
X16648Y5721D01*
X17250Y5317D01*
X17861Y4927D01*
X18481Y4552D01*
X19110Y4192D01*
X19748Y3847D01*
X20394Y3518D01*
X21048Y3205D01*
X21709Y2907D01*
X22377Y2626D01*
X23052Y2361D01*
X23733Y2112D01*
X24419Y1879D01*
X25112Y1664D01*
X25809Y1465D01*
X26511Y1283D01*
X27216Y1118D01*
X27926Y970D01*
X28639Y839D01*
X29355Y726D01*
X30074Y630D01*
X30795Y551D01*
X31517Y490D01*
X32241Y446D01*
X32965Y420D01*
X33690Y411D01*
X623690Y411D02*
X624415Y420D01*
X625139Y446D01*
X625863Y490D01*
X626585Y551D01*
X627306Y630D01*
X628025Y726D01*
X628741Y839D01*
X629454Y970D01*
X630164Y1118D01*
X630869Y1283D01*
X631571Y1465D01*
X632268Y1664D01*
X632961Y1879D01*
X633647Y2112D01*
X634328Y2361D01*
X635003Y2626D01*
X635671Y2907D01*
X636332Y3205D01*
X636986Y3518D01*
X637632Y3847D01*
X638270Y4192D01*
X638899Y4552D01*
X639519Y4927D01*
X640130Y5317D01*
X640732Y5721D01*
X641324Y6140D01*
X641905Y6574D01*
X642476Y7021D01*
X643035Y7482D01*
X643584Y7956D01*
X644120Y8443D01*
X644645Y8943D01*
X645158Y9456D01*
X645658Y9981D01*
X646145Y10517D01*
X646619Y11066D01*
X647080Y11625D01*
X647527Y12196D01*
X647961Y12777D01*
X648380Y13369D01*
X648784Y13971D01*
X649174Y14582D01*
X649549Y15202D01*
X649909Y15831D01*
X650254Y16469D01*
X650583Y17115D01*
X650896Y17769D01*
X651194Y18430D01*
X651475Y19098D01*
X651740Y19773D01*
X651989Y20454D01*
X652222Y21140D01*
X652437Y21833D01*
X652636Y22530D01*
X652818Y23232D01*
X652983Y23937D01*
X653131Y24647D01*
X653262Y25360D01*
X653375Y26076D01*
X653471Y26795D01*
X653550Y27516D01*
X653611Y28238D01*
X653655Y28962D01*
X653681Y29686D01*
X653690Y30411D01*
X653690Y270363D02*
X653681Y271088D01*
X653655Y271812D01*
X653611Y272536D01*
X653550Y273258D01*
X653471Y273979D01*
X653375Y274698D01*
X653262Y275414D01*
X653131Y276127D01*
X652983Y276837D01*
X652818Y277542D01*
X652636Y278244D01*
X652437Y278941D01*
X652222Y279634D01*
X651989Y280320D01*
X651740Y281001D01*
X651475Y281676D01*
X651194Y282344D01*
X650896Y283005D01*
X650583Y283659D01*
X650254Y284305D01*
X649909Y284943D01*
X649549Y285572D01*
X649174Y286192D01*
X648784Y286803D01*
X648380Y287405D01*
X647961Y287997D01*
X647527Y288578D01*
X647080Y289149D01*
X646619Y289708D01*
X646145Y290257D01*
X645658Y290793D01*
X645158Y291318D01*
X644645Y291831D01*
X644120Y292331D01*
X643584Y292818D01*
X643035Y293292D01*
X642476Y293753D01*
X641905Y294200D01*
X641324Y294634D01*
X640732Y295053D01*
X640130Y295457D01*
X639519Y295847D01*
X638899Y296222D01*
X638270Y296582D01*
X637632Y296927D01*
X636986Y297256D01*
X636332Y297569D01*
X635671Y297867D01*
X635003Y298148D01*
X634328Y298413D01*
X633647Y298662D01*
X632961Y298895D01*
X632268Y299110D01*
X631571Y299309D01*
X630869Y299491D01*
X630164Y299656D01*
X629454Y299804D01*
X628741Y299935D01*
X628025Y300048D01*
X627306Y300144D01*
X626585Y300223D01*
X625863Y300284D01*
X625139Y300328D01*
X624415Y300354D01*
X623690Y300363D01*
X33690Y300363D02*
X32965Y300354D01*
X32241Y300328D01*
X31517Y300284D01*
X30795Y300223D01*
X30074Y300144D01*
X29355Y300048D01*
X28639Y299935D01*
X27926Y299804D01*
X27216Y299656D01*
X26511Y299491D01*
X25809Y299309D01*
X25112Y299110D01*
X24419Y298895D01*
X23733Y298662D01*
X23052Y298413D01*
X22377Y298148D01*
X21709Y297867D01*
X21048Y297569D01*
X20394Y297256D01*
X19748Y296927D01*
X19110Y296582D01*
X18481Y296222D01*
X17861Y295847D01*
X17250Y295457D01*
X16648Y295053D01*
X16056Y294634D01*
X15475Y294200D01*
X14904Y293753D01*
X14345Y293292D01*
X13796Y292818D01*
X13260Y292331D01*
X12735Y291831D01*
X12222Y291318D01*
X11722Y290793D01*
X11235Y290257D01*
X10761Y289708D01*
X10300Y289149D01*
X9853Y288578D01*
X9419Y287997D01*
X9000Y287405D01*
X8596Y286803D01*
X8206Y286192D01*
X7831Y285572D01*
X7471Y284943D01*
X7126Y284305D01*
X6797Y283659D01*
X6484Y283005D01*
X6186Y282344D01*
X5905Y281676D01*
X5640Y281001D01*
X5391Y280320D01*
X5158Y279634D01*
X4943Y278941D01*
X4744Y278244D01*
X4562Y277542D01*
X4397Y276837D01*
X4249Y276127D01*
X4118Y275414D01*
X4005Y274698D01*
X3909Y273979D01*
X3830Y273258D01*
X3769Y272536D01*
X3725Y271812D01*
X3699Y271088D01*
X3690Y270363D01*
X24690Y265363D02*
X24694Y265707D01*
X24707Y266050D01*
X24728Y266393D01*
X24757Y266735D01*
X24795Y267077D01*
X24842Y267417D01*
X24896Y267756D01*
X24959Y268094D01*
X25030Y268430D01*
X25110Y268765D01*
X25197Y269097D01*
X25293Y269427D01*
X25397Y269755D01*
X25508Y270079D01*
X25628Y270402D01*
X25756Y270721D01*
X25891Y271036D01*
X26034Y271349D01*
X26185Y271658D01*
X26343Y271963D01*
X26509Y272264D01*
X26682Y272560D01*
X26862Y272853D01*
X27049Y273141D01*
X27244Y273424D01*
X27445Y273703D01*
X27653Y273976D01*
X27868Y274245D01*
X28089Y274507D01*
X28317Y274765D01*
X28551Y275017D01*
X28791Y275262D01*
X29036Y275502D01*
X29288Y275736D01*
X29546Y275964D01*
X29808Y276185D01*
X30077Y276400D01*
X30350Y276608D01*
X30629Y276809D01*
X30912Y277004D01*
X31200Y277191D01*
X31493Y277371D01*
X31789Y277544D01*
X32090Y277710D01*
X32395Y277868D01*
X32704Y278019D01*
X33017Y278162D01*
X33332Y278297D01*
X33651Y278425D01*
X33974Y278545D01*
X34298Y278656D01*
X34626Y278760D01*
X34956Y278856D01*
X35288Y278943D01*
X35623Y279023D01*
X35959Y279094D01*
X36297Y279157D01*
X36636Y279211D01*
X36976Y279258D01*
X37318Y279296D01*
X37660Y279325D01*
X38003Y279346D01*
X38346Y279359D01*
X38690Y279363D01*
X39034Y279359D01*
X39377Y279346D01*
X39720Y279325D01*
X40062Y279296D01*
X40404Y279258D01*
X40744Y279211D01*
X41083Y279157D01*
X41421Y279094D01*
X41757Y279023D01*
X42092Y278943D01*
X42424Y278856D01*
X42754Y278760D01*
X43082Y278656D01*
X43406Y278545D01*
X43729Y278425D01*
X44048Y278297D01*
X44363Y278162D01*
X44676Y278019D01*
X44985Y277868D01*
X45290Y277710D01*
X45591Y277544D01*
X45887Y277371D01*
X46180Y277191D01*
X46468Y277004D01*
X46751Y276809D01*
X47030Y276608D01*
X47303Y276400D01*
X47572Y276185D01*
X47834Y275964D01*
X48092Y275736D01*
X48344Y275502D01*
X48589Y275262D01*
X48829Y275017D01*
X49063Y274765D01*
X49291Y274507D01*
X49512Y274245D01*
X49727Y273976D01*
X49935Y273703D01*
X50136Y273424D01*
X50331Y273141D01*
X50518Y272853D01*
X50698Y272560D01*
X50871Y272264D01*
X51037Y271963D01*
X51195Y271658D01*
X51346Y271349D01*
X51489Y271036D01*
X51624Y270721D01*
X51752Y270402D01*
X51872Y270079D01*
X51983Y269755D01*
X52087Y269427D01*
X52183Y269097D01*
X52270Y268765D01*
X52350Y268430D01*
X52421Y268094D01*
X52484Y267756D01*
X52538Y267417D01*
X52585Y267077D01*
X52623Y266735D01*
X52652Y266393D01*
X52673Y266050D01*
X52686Y265707D01*
X52690Y265363D01*
X52686Y265019D01*
X52673Y264676D01*
X52652Y264333D01*
X52623Y263991D01*
X52585Y263649D01*
X52538Y263309D01*
X52484Y262970D01*
X52421Y262632D01*
X52350Y262296D01*
X52270Y261961D01*
X52183Y261629D01*
X52087Y261299D01*
X51983Y260971D01*
X51872Y260647D01*
X51752Y260324D01*
X51624Y260005D01*
X51489Y259690D01*
X51346Y259377D01*
X51195Y259068D01*
X51037Y258763D01*
X50871Y258462D01*
X50698Y258166D01*
X50518Y257873D01*
X50331Y257585D01*
X50136Y257302D01*
X49935Y257023D01*
X49727Y256750D01*
X49512Y256481D01*
X49291Y256219D01*
X49063Y255961D01*
X48829Y255709D01*
X48589Y255464D01*
X48344Y255224D01*
X48092Y254990D01*
X47834Y254762D01*
X47572Y254541D01*
X47303Y254326D01*
X47030Y254118D01*
X46751Y253917D01*
X46468Y253722D01*
X46180Y253535D01*
X45887Y253355D01*
X45591Y253182D01*
X45290Y253016D01*
X44985Y252858D01*
X44676Y252707D01*
X44363Y252564D01*
X44048Y252429D01*
X43729Y252301D01*
X43406Y252181D01*
X43082Y252070D01*
X42754Y251966D01*
X42424Y251870D01*
X42092Y251783D01*
X41757Y251703D01*
X41421Y251632D01*
X41083Y251569D01*
X40744Y251515D01*
X40404Y251468D01*
X40062Y251430D01*
X39720Y251401D01*
X39377Y251380D01*
X39034Y251367D01*
X38690Y251363D01*
X38346Y251367D01*
X38003Y251380D01*
X37660Y251401D01*
X37318Y251430D01*
X36976Y251468D01*
X36636Y251515D01*
X36297Y251569D01*
X35959Y251632D01*
X35623Y251703D01*
X35288Y251783D01*
X34956Y251870D01*
X34626Y251966D01*
X34298Y252070D01*
X33974Y252181D01*
X33651Y252301D01*
X33332Y252429D01*
X33017Y252564D01*
X32704Y252707D01*
X32395Y252858D01*
X32090Y253016D01*
X31789Y253182D01*
X31493Y253355D01*
X31200Y253535D01*
X30912Y253722D01*
X30629Y253917D01*
X30350Y254118D01*
X30077Y254326D01*
X29808Y254541D01*
X29546Y254762D01*
X29288Y254990D01*
X29036Y255224D01*
X28791Y255464D01*
X28551Y255709D01*
X28317Y255961D01*
X28089Y256219D01*
X27868Y256481D01*
X27653Y256750D01*
X27445Y257023D01*
X27244Y257302D01*
X27049Y257585D01*
X26862Y257873D01*
X26682Y258166D01*
X26509Y258462D01*
X26343Y258763D01*
X26185Y259068D01*
X26034Y259377D01*
X25891Y259690D01*
X25756Y260005D01*
X25628Y260324D01*
X25508Y260647D01*
X25397Y260971D01*
X25293Y261299D01*
X25197Y261629D01*
X25110Y261961D01*
X25030Y262296D01*
X24959Y262632D01*
X24896Y262970D01*
X24842Y263309D01*
X24795Y263649D01*
X24757Y263991D01*
X24728Y264333D01*
X24707Y264676D01*
X24694Y265019D01*
X24690Y265363D01*
X604690Y265363D02*
X604694Y265707D01*
X604707Y266050D01*
X604728Y266393D01*
X604757Y266735D01*
X604795Y267077D01*
X604842Y267417D01*
X604896Y267756D01*
X604959Y268094D01*
X605030Y268430D01*
X605110Y268765D01*
X605197Y269097D01*
X605293Y269427D01*
X605397Y269755D01*
X605508Y270079D01*
X605628Y270402D01*
X605756Y270721D01*
X605891Y271036D01*
X606034Y271349D01*
X606185Y271658D01*
X606343Y271963D01*
X606509Y272264D01*
X606682Y272560D01*
X606862Y272853D01*
X607049Y273141D01*
X607244Y273424D01*
X607445Y273703D01*
X607653Y273976D01*
X607868Y274245D01*
X608089Y274507D01*
X608317Y274765D01*
X608551Y275017D01*
X608791Y275262D01*
X609036Y275502D01*
X609288Y275736D01*
X609546Y275964D01*
X609808Y276185D01*
X610077Y276400D01*
X610350Y276608D01*
X610629Y276809D01*
X610912Y277004D01*
X611200Y277191D01*
X611493Y277371D01*
X611789Y277544D01*
X612090Y277710D01*
X612395Y277868D01*
X612704Y278019D01*
X613017Y278162D01*
X613332Y278297D01*
X613651Y278425D01*
X613974Y278545D01*
X614298Y278656D01*
X614626Y278760D01*
X614956Y278856D01*
X615288Y278943D01*
X615623Y279023D01*
X615959Y279094D01*
X616297Y279157D01*
X616636Y279211D01*
X616976Y279258D01*
X617318Y279296D01*
X617660Y279325D01*
X618003Y279346D01*
X618346Y279359D01*
X618690Y279363D01*
X619034Y279359D01*
X619377Y279346D01*
X619720Y279325D01*
X620062Y279296D01*
X620404Y279258D01*
X620744Y279211D01*
X621083Y279157D01*
X621421Y279094D01*
X621757Y279023D01*
X622092Y278943D01*
X622424Y278856D01*
X622754Y278760D01*
X623082Y278656D01*
X623406Y278545D01*
X623729Y278425D01*
X624048Y278297D01*
X624363Y278162D01*
X624676Y278019D01*
X624985Y277868D01*
X625290Y277710D01*
X625591Y277544D01*
X625887Y277371D01*
X626180Y277191D01*
X626468Y277004D01*
X626751Y276809D01*
X627030Y276608D01*
X627303Y276400D01*
X627572Y276185D01*
X627834Y275964D01*
X628092Y275736D01*
X628344Y275502D01*
X628589Y275262D01*
X628829Y275017D01*
X629063Y274765D01*
X629291Y274507D01*
X629512Y274245D01*
X629727Y273976D01*
X629935Y273703D01*
X630136Y273424D01*
X630331Y273141D01*
X630518Y272853D01*
X630698Y272560D01*
X630871Y272264D01*
X631037Y271963D01*
X631195Y271658D01*
X631346Y271349D01*
X631489Y271036D01*
X631624Y270721D01*
X631752Y270402D01*
X631872Y270079D01*
X631983Y269755D01*
X632087Y269427D01*
X632183Y269097D01*
X632270Y268765D01*
X632350Y268430D01*
X632421Y268094D01*
X632484Y267756D01*
X632538Y267417D01*
X632585Y267077D01*
X632623Y266735D01*
X632652Y266393D01*
X632673Y266050D01*
X632686Y265707D01*
X632690Y265363D01*
X632686Y265019D01*
X632673Y264676D01*
X632652Y264333D01*
X632623Y263991D01*
X632585Y263649D01*
X632538Y263309D01*
X632484Y262970D01*
X632421Y262632D01*
X632350Y262296D01*
X632270Y261961D01*
X632183Y261629D01*
X632087Y261299D01*
X631983Y260971D01*
X631872Y260647D01*
X631752Y260324D01*
X631624Y260005D01*
X631489Y259690D01*
X631346Y259377D01*
X631195Y259068D01*
X631037Y258763D01*
X630871Y258462D01*
X630698Y258166D01*
X630518Y257873D01*
X630331Y257585D01*
X630136Y257302D01*
X629935Y257023D01*
X629727Y256750D01*
X629512Y256481D01*
X629291Y256219D01*
X629063Y255961D01*
X628829Y255709D01*
X628589Y255464D01*
X628344Y255224D01*
X628092Y254990D01*
X627834Y254762D01*
X627572Y254541D01*
X627303Y254326D01*
X627030Y254118D01*
X626751Y253917D01*
X626468Y253722D01*
X626180Y253535D01*
X625887Y253355D01*
X625591Y253182D01*
X625290Y253016D01*
X624985Y252858D01*
X624676Y252707D01*
X624363Y252564D01*
X624048Y252429D01*
X623729Y252301D01*
X623406Y252181D01*
X623082Y252070D01*
X622754Y251966D01*
X622424Y251870D01*
X622092Y251783D01*
X621757Y251703D01*
X621421Y251632D01*
X621083Y251569D01*
X620744Y251515D01*
X620404Y251468D01*
X620062Y251430D01*
X619720Y251401D01*
X619377Y251380D01*
X619034Y251367D01*
X618690Y251363D01*
X618346Y251367D01*
X618003Y251380D01*
X617660Y251401D01*
X617318Y251430D01*
X616976Y251468D01*
X616636Y251515D01*
X616297Y251569D01*
X615959Y251632D01*
X615623Y251703D01*
X615288Y251783D01*
X614956Y251870D01*
X614626Y251966D01*
X614298Y252070D01*
X613974Y252181D01*
X613651Y252301D01*
X613332Y252429D01*
X613017Y252564D01*
X612704Y252707D01*
X612395Y252858D01*
X612090Y253016D01*
X611789Y253182D01*
X611493Y253355D01*
X611200Y253535D01*
X610912Y253722D01*
X610629Y253917D01*
X610350Y254118D01*
X610077Y254326D01*
X609808Y254541D01*
X609546Y254762D01*
X609288Y254990D01*
X609036Y255224D01*
X608791Y255464D01*
X608551Y255709D01*
X608317Y255961D01*
X608089Y256219D01*
X607868Y256481D01*
X607653Y256750D01*
X607445Y257023D01*
X607244Y257302D01*
X607049Y257585D01*
X606862Y257873D01*
X606682Y258166D01*
X606509Y258462D01*
X606343Y258763D01*
X606185Y259068D01*
X606034Y259377D01*
X605891Y259690D01*
X605756Y260005D01*
X605628Y260324D01*
X605508Y260647D01*
X605397Y260971D01*
X605293Y261299D01*
X605197Y261629D01*
X605110Y261961D01*
X605030Y262296D01*
X604959Y262632D01*
X604896Y262970D01*
X604842Y263309D01*
X604795Y263649D01*
X604757Y263991D01*
X604728Y264333D01*
X604707Y264676D01*
X604694Y265019D01*
X604690Y265363D01*
X604690Y35411D02*
X604694Y35755D01*
X604707Y36098D01*
X604728Y36441D01*
X604757Y36783D01*
X604795Y37125D01*
X604842Y37465D01*
X604896Y37804D01*
X604959Y38142D01*
X605030Y38478D01*
X605110Y38813D01*
X605197Y39145D01*
X605293Y39475D01*
X605397Y39803D01*
X605508Y40127D01*
X605628Y40450D01*
X605756Y40769D01*
X605891Y41084D01*
X606034Y41397D01*
X606185Y41706D01*
X606343Y42011D01*
X606509Y42312D01*
X606682Y42608D01*
X606862Y42901D01*
X607049Y43189D01*
X607244Y43472D01*
X607445Y43751D01*
X607653Y44024D01*
X607868Y44293D01*
X608089Y44555D01*
X608317Y44813D01*
X608551Y45065D01*
X608791Y45310D01*
X609036Y45550D01*
X609288Y45784D01*
X609546Y46012D01*
X609808Y46233D01*
X610077Y46448D01*
X610350Y46656D01*
X610629Y46857D01*
X610912Y47052D01*
X611200Y47239D01*
X611493Y47419D01*
X611789Y47592D01*
X612090Y47758D01*
X612395Y47916D01*
X612704Y48067D01*
X613017Y48210D01*
X613332Y48345D01*
X613651Y48473D01*
X613974Y48593D01*
X614298Y48704D01*
X614626Y48808D01*
X614956Y48904D01*
X615288Y48991D01*
X615623Y49071D01*
X615959Y49142D01*
X616297Y49205D01*
X616636Y49259D01*
X616976Y49306D01*
X617318Y49344D01*
X617660Y49373D01*
X618003Y49394D01*
X618346Y49407D01*
X618690Y49411D01*
X619034Y49407D01*
X619377Y49394D01*
X619720Y49373D01*
X620062Y49344D01*
X620404Y49306D01*
X620744Y49259D01*
X621083Y49205D01*
X621421Y49142D01*
X621757Y49071D01*
X622092Y48991D01*
X622424Y48904D01*
X622754Y48808D01*
X623082Y48704D01*
X623406Y48593D01*
X623729Y48473D01*
X624048Y48345D01*
X624363Y48210D01*
X624676Y48067D01*
X624985Y47916D01*
X625290Y47758D01*
X625591Y47592D01*
X625887Y47419D01*
X626180Y47239D01*
X626468Y47052D01*
X626751Y46857D01*
X627030Y46656D01*
X627303Y46448D01*
X627572Y46233D01*
X627834Y46012D01*
X628092Y45784D01*
X628344Y45550D01*
X628589Y45310D01*
X628829Y45065D01*
X629063Y44813D01*
X629291Y44555D01*
X629512Y44293D01*
X629727Y44024D01*
X629935Y43751D01*
X630136Y43472D01*
X630331Y43189D01*
X630518Y42901D01*
X630698Y42608D01*
X630871Y42312D01*
X631037Y42011D01*
X631195Y41706D01*
X631346Y41397D01*
X631489Y41084D01*
X631624Y40769D01*
X631752Y40450D01*
X631872Y40127D01*
X631983Y39803D01*
X632087Y39475D01*
X632183Y39145D01*
X632270Y38813D01*
X632350Y38478D01*
X632421Y38142D01*
X632484Y37804D01*
X632538Y37465D01*
X632585Y37125D01*
X632623Y36783D01*
X632652Y36441D01*
X632673Y36098D01*
X632686Y35755D01*
X632690Y35411D01*
X632686Y35067D01*
X632673Y34724D01*
X632652Y34381D01*
X632623Y34039D01*
X632585Y33697D01*
X632538Y33357D01*
X632484Y33018D01*
X632421Y32680D01*
X632350Y32344D01*
X632270Y32009D01*
X632183Y31677D01*
X632087Y31347D01*
X631983Y31019D01*
X631872Y30695D01*
X631752Y30372D01*
X631624Y30053D01*
X631489Y29738D01*
X631346Y29425D01*
X631195Y29116D01*
X631037Y28811D01*
X630871Y28510D01*
X630698Y28214D01*
X630518Y27921D01*
X630331Y27633D01*
X630136Y27350D01*
X629935Y27071D01*
X629727Y26798D01*
X629512Y26529D01*
X629291Y26267D01*
X629063Y26009D01*
X628829Y25757D01*
X628589Y25512D01*
X628344Y25272D01*
X628092Y25038D01*
X627834Y24810D01*
X627572Y24589D01*
X627303Y24374D01*
X627030Y24166D01*
X626751Y23965D01*
X626468Y23770D01*
X626180Y23583D01*
X625887Y23403D01*
X625591Y23230D01*
X625290Y23064D01*
X624985Y22906D01*
X624676Y22755D01*
X624363Y22612D01*
X624048Y22477D01*
X623729Y22349D01*
X623406Y22229D01*
X623082Y22118D01*
X622754Y22014D01*
X622424Y21918D01*
X622092Y21831D01*
X621757Y21751D01*
X621421Y21680D01*
X621083Y21617D01*
X620744Y21563D01*
X620404Y21516D01*
X620062Y21478D01*
X619720Y21449D01*
X619377Y21428D01*
X619034Y21415D01*
X618690Y21411D01*
X618346Y21415D01*
X618003Y21428D01*
X617660Y21449D01*
X617318Y21478D01*
X616976Y21516D01*
X616636Y21563D01*
X616297Y21617D01*
X615959Y21680D01*
X615623Y21751D01*
X615288Y21831D01*
X614956Y21918D01*
X614626Y22014D01*
X614298Y22118D01*
X613974Y22229D01*
X613651Y22349D01*
X613332Y22477D01*
X613017Y22612D01*
X612704Y22755D01*
X612395Y22906D01*
X612090Y23064D01*
X611789Y23230D01*
X611493Y23403D01*
X611200Y23583D01*
X610912Y23770D01*
X610629Y23965D01*
X610350Y24166D01*
X610077Y24374D01*
X609808Y24589D01*
X609546Y24810D01*
X609288Y25038D01*
X609036Y25272D01*
X608791Y25512D01*
X608551Y25757D01*
X608317Y26009D01*
X608089Y26267D01*
X607868Y26529D01*
X607653Y26798D01*
X607445Y27071D01*
X607244Y27350D01*
X607049Y27633D01*
X606862Y27921D01*
X606682Y28214D01*
X606509Y28510D01*
X606343Y28811D01*
X606185Y29116D01*
X606034Y29425D01*
X605891Y29738D01*
X605756Y30053D01*
X605628Y30372D01*
X605508Y30695D01*
X605397Y31019D01*
X605293Y31347D01*
X605197Y31677D01*
X605110Y32009D01*
X605030Y32344D01*
X604959Y32680D01*
X604896Y33018D01*
X604842Y33357D01*
X604795Y33697D01*
X604757Y34039D01*
X604728Y34381D01*
X604707Y34724D01*
X604694Y35067D01*
X604690Y35411D01*
D11*
X187700Y125000D03*
D12*
X162300Y125000D03*
D11*
X337700Y125000D03*
D12*
X312300Y125000D03*
D11*
X487700Y125000D03*
D12*
X462300Y125000D03*
D13*
X585237Y178784D02*
X598445Y178784D01*
X598445Y153384D02*
X585237Y153384D01*
X585237Y127984D02*
X598445Y127984D01*
X598445Y102584D02*
X585237Y102584D01*
X585237Y77184D02*
X598445Y77184D01*
D14*
X115479Y272579D03*
X140879Y272579D03*
X166279Y272579D03*
X191679Y272579D03*
X217079Y272579D03*
X242479Y272579D03*
X267879Y272579D03*
X293279Y272579D03*
X318679Y272579D03*
X344079Y272579D03*
X369479Y272579D03*
X394879Y272579D03*
X420279Y272579D03*
X445679Y272579D03*
X471179Y272579D03*
X496479Y272579D03*
X521879Y272579D03*
X547279Y272579D03*
X572679Y272579D03*
X115479Y247179D03*
X140879Y247179D03*
X166279Y247179D03*
X191679Y247179D03*
X217079Y247179D03*
X242479Y247179D03*
X267879Y247179D03*
X293279Y247179D03*
X318679Y247179D03*
X344079Y247179D03*
X369479Y247179D03*
X394879Y247179D03*
X420279Y247179D03*
X445679Y247179D03*
X471079Y247179D03*
X496479Y247179D03*
X521879Y247179D03*
X547279Y247179D03*
X572679Y247179D03*
X90079Y272579D03*
X90079Y247179D03*
D15*
X331472Y228543D02*
X331472Y267480D01*
X331472Y228543D02*
X367361Y192653D01*
X462300Y155274D02*
X462300Y125000D01*
X424920Y192653D02*
X367361Y192653D01*
X424920Y192653D02*
X462300Y155274D01*
D16*
X336571Y272579D02*
X331472Y267480D01*
X336571Y272579D02*
X344079Y272579D01*
M02*
