G04 EAGLE Gerber RS-274X export*
G75*
%MOMM*%
%FSLAX34Y34*%
%LPD*%
%INBottom silk*%
%IPPOS*%
%AMOC8*
5,1,8,0,0,1.08239X$1,22.5*%
G01*
%ADD10C,0.000000*%
%ADD11C,0.076200*%


D10*
X33690Y411D02*
X623690Y411D01*
X653690Y30411D02*
X653690Y270363D01*
X623690Y300363D02*
X33690Y300363D01*
X3690Y270363D02*
X3690Y30411D01*
X3699Y29686D01*
X3725Y28962D01*
X3769Y28238D01*
X3830Y27516D01*
X3909Y26795D01*
X4005Y26076D01*
X4118Y25360D01*
X4249Y24647D01*
X4397Y23937D01*
X4562Y23232D01*
X4744Y22530D01*
X4943Y21833D01*
X5158Y21140D01*
X5391Y20454D01*
X5640Y19773D01*
X5905Y19098D01*
X6186Y18430D01*
X6484Y17769D01*
X6797Y17115D01*
X7126Y16469D01*
X7471Y15831D01*
X7831Y15202D01*
X8206Y14582D01*
X8596Y13971D01*
X9000Y13369D01*
X9419Y12777D01*
X9853Y12196D01*
X10300Y11625D01*
X10761Y11066D01*
X11235Y10517D01*
X11722Y9981D01*
X12222Y9456D01*
X12735Y8943D01*
X13260Y8443D01*
X13796Y7956D01*
X14345Y7482D01*
X14904Y7021D01*
X15475Y6574D01*
X16056Y6140D01*
X16648Y5721D01*
X17250Y5317D01*
X17861Y4927D01*
X18481Y4552D01*
X19110Y4192D01*
X19748Y3847D01*
X20394Y3518D01*
X21048Y3205D01*
X21709Y2907D01*
X22377Y2626D01*
X23052Y2361D01*
X23733Y2112D01*
X24419Y1879D01*
X25112Y1664D01*
X25809Y1465D01*
X26511Y1283D01*
X27216Y1118D01*
X27926Y970D01*
X28639Y839D01*
X29355Y726D01*
X30074Y630D01*
X30795Y551D01*
X31517Y490D01*
X32241Y446D01*
X32965Y420D01*
X33690Y411D01*
X623690Y411D02*
X624415Y420D01*
X625139Y446D01*
X625863Y490D01*
X626585Y551D01*
X627306Y630D01*
X628025Y726D01*
X628741Y839D01*
X629454Y970D01*
X630164Y1118D01*
X630869Y1283D01*
X631571Y1465D01*
X632268Y1664D01*
X632961Y1879D01*
X633647Y2112D01*
X634328Y2361D01*
X635003Y2626D01*
X635671Y2907D01*
X636332Y3205D01*
X636986Y3518D01*
X637632Y3847D01*
X638270Y4192D01*
X638899Y4552D01*
X639519Y4927D01*
X640130Y5317D01*
X640732Y5721D01*
X641324Y6140D01*
X641905Y6574D01*
X642476Y7021D01*
X643035Y7482D01*
X643584Y7956D01*
X644120Y8443D01*
X644645Y8943D01*
X645158Y9456D01*
X645658Y9981D01*
X646145Y10517D01*
X646619Y11066D01*
X647080Y11625D01*
X647527Y12196D01*
X647961Y12777D01*
X648380Y13369D01*
X648784Y13971D01*
X649174Y14582D01*
X649549Y15202D01*
X649909Y15831D01*
X650254Y16469D01*
X650583Y17115D01*
X650896Y17769D01*
X651194Y18430D01*
X651475Y19098D01*
X651740Y19773D01*
X651989Y20454D01*
X652222Y21140D01*
X652437Y21833D01*
X652636Y22530D01*
X652818Y23232D01*
X652983Y23937D01*
X653131Y24647D01*
X653262Y25360D01*
X653375Y26076D01*
X653471Y26795D01*
X653550Y27516D01*
X653611Y28238D01*
X653655Y28962D01*
X653681Y29686D01*
X653690Y30411D01*
X653690Y270363D02*
X653681Y271088D01*
X653655Y271812D01*
X653611Y272536D01*
X653550Y273258D01*
X653471Y273979D01*
X653375Y274698D01*
X653262Y275414D01*
X653131Y276127D01*
X652983Y276837D01*
X652818Y277542D01*
X652636Y278244D01*
X652437Y278941D01*
X652222Y279634D01*
X651989Y280320D01*
X651740Y281001D01*
X651475Y281676D01*
X651194Y282344D01*
X650896Y283005D01*
X650583Y283659D01*
X650254Y284305D01*
X649909Y284943D01*
X649549Y285572D01*
X649174Y286192D01*
X648784Y286803D01*
X648380Y287405D01*
X647961Y287997D01*
X647527Y288578D01*
X647080Y289149D01*
X646619Y289708D01*
X646145Y290257D01*
X645658Y290793D01*
X645158Y291318D01*
X644645Y291831D01*
X644120Y292331D01*
X643584Y292818D01*
X643035Y293292D01*
X642476Y293753D01*
X641905Y294200D01*
X641324Y294634D01*
X640732Y295053D01*
X640130Y295457D01*
X639519Y295847D01*
X638899Y296222D01*
X638270Y296582D01*
X637632Y296927D01*
X636986Y297256D01*
X636332Y297569D01*
X635671Y297867D01*
X635003Y298148D01*
X634328Y298413D01*
X633647Y298662D01*
X632961Y298895D01*
X632268Y299110D01*
X631571Y299309D01*
X630869Y299491D01*
X630164Y299656D01*
X629454Y299804D01*
X628741Y299935D01*
X628025Y300048D01*
X627306Y300144D01*
X626585Y300223D01*
X625863Y300284D01*
X625139Y300328D01*
X624415Y300354D01*
X623690Y300363D01*
X33690Y300363D02*
X32965Y300354D01*
X32241Y300328D01*
X31517Y300284D01*
X30795Y300223D01*
X30074Y300144D01*
X29355Y300048D01*
X28639Y299935D01*
X27926Y299804D01*
X27216Y299656D01*
X26511Y299491D01*
X25809Y299309D01*
X25112Y299110D01*
X24419Y298895D01*
X23733Y298662D01*
X23052Y298413D01*
X22377Y298148D01*
X21709Y297867D01*
X21048Y297569D01*
X20394Y297256D01*
X19748Y296927D01*
X19110Y296582D01*
X18481Y296222D01*
X17861Y295847D01*
X17250Y295457D01*
X16648Y295053D01*
X16056Y294634D01*
X15475Y294200D01*
X14904Y293753D01*
X14345Y293292D01*
X13796Y292818D01*
X13260Y292331D01*
X12735Y291831D01*
X12222Y291318D01*
X11722Y290793D01*
X11235Y290257D01*
X10761Y289708D01*
X10300Y289149D01*
X9853Y288578D01*
X9419Y287997D01*
X9000Y287405D01*
X8596Y286803D01*
X8206Y286192D01*
X7831Y285572D01*
X7471Y284943D01*
X7126Y284305D01*
X6797Y283659D01*
X6484Y283005D01*
X6186Y282344D01*
X5905Y281676D01*
X5640Y281001D01*
X5391Y280320D01*
X5158Y279634D01*
X4943Y278941D01*
X4744Y278244D01*
X4562Y277542D01*
X4397Y276837D01*
X4249Y276127D01*
X4118Y275414D01*
X4005Y274698D01*
X3909Y273979D01*
X3830Y273258D01*
X3769Y272536D01*
X3725Y271812D01*
X3699Y271088D01*
X3690Y270363D01*
X24690Y265363D02*
X24694Y265707D01*
X24707Y266050D01*
X24728Y266393D01*
X24757Y266735D01*
X24795Y267077D01*
X24842Y267417D01*
X24896Y267756D01*
X24959Y268094D01*
X25030Y268430D01*
X25110Y268765D01*
X25197Y269097D01*
X25293Y269427D01*
X25397Y269755D01*
X25508Y270079D01*
X25628Y270402D01*
X25756Y270721D01*
X25891Y271036D01*
X26034Y271349D01*
X26185Y271658D01*
X26343Y271963D01*
X26509Y272264D01*
X26682Y272560D01*
X26862Y272853D01*
X27049Y273141D01*
X27244Y273424D01*
X27445Y273703D01*
X27653Y273976D01*
X27868Y274245D01*
X28089Y274507D01*
X28317Y274765D01*
X28551Y275017D01*
X28791Y275262D01*
X29036Y275502D01*
X29288Y275736D01*
X29546Y275964D01*
X29808Y276185D01*
X30077Y276400D01*
X30350Y276608D01*
X30629Y276809D01*
X30912Y277004D01*
X31200Y277191D01*
X31493Y277371D01*
X31789Y277544D01*
X32090Y277710D01*
X32395Y277868D01*
X32704Y278019D01*
X33017Y278162D01*
X33332Y278297D01*
X33651Y278425D01*
X33974Y278545D01*
X34298Y278656D01*
X34626Y278760D01*
X34956Y278856D01*
X35288Y278943D01*
X35623Y279023D01*
X35959Y279094D01*
X36297Y279157D01*
X36636Y279211D01*
X36976Y279258D01*
X37318Y279296D01*
X37660Y279325D01*
X38003Y279346D01*
X38346Y279359D01*
X38690Y279363D01*
X39034Y279359D01*
X39377Y279346D01*
X39720Y279325D01*
X40062Y279296D01*
X40404Y279258D01*
X40744Y279211D01*
X41083Y279157D01*
X41421Y279094D01*
X41757Y279023D01*
X42092Y278943D01*
X42424Y278856D01*
X42754Y278760D01*
X43082Y278656D01*
X43406Y278545D01*
X43729Y278425D01*
X44048Y278297D01*
X44363Y278162D01*
X44676Y278019D01*
X44985Y277868D01*
X45290Y277710D01*
X45591Y277544D01*
X45887Y277371D01*
X46180Y277191D01*
X46468Y277004D01*
X46751Y276809D01*
X47030Y276608D01*
X47303Y276400D01*
X47572Y276185D01*
X47834Y275964D01*
X48092Y275736D01*
X48344Y275502D01*
X48589Y275262D01*
X48829Y275017D01*
X49063Y274765D01*
X49291Y274507D01*
X49512Y274245D01*
X49727Y273976D01*
X49935Y273703D01*
X50136Y273424D01*
X50331Y273141D01*
X50518Y272853D01*
X50698Y272560D01*
X50871Y272264D01*
X51037Y271963D01*
X51195Y271658D01*
X51346Y271349D01*
X51489Y271036D01*
X51624Y270721D01*
X51752Y270402D01*
X51872Y270079D01*
X51983Y269755D01*
X52087Y269427D01*
X52183Y269097D01*
X52270Y268765D01*
X52350Y268430D01*
X52421Y268094D01*
X52484Y267756D01*
X52538Y267417D01*
X52585Y267077D01*
X52623Y266735D01*
X52652Y266393D01*
X52673Y266050D01*
X52686Y265707D01*
X52690Y265363D01*
X52686Y265019D01*
X52673Y264676D01*
X52652Y264333D01*
X52623Y263991D01*
X52585Y263649D01*
X52538Y263309D01*
X52484Y262970D01*
X52421Y262632D01*
X52350Y262296D01*
X52270Y261961D01*
X52183Y261629D01*
X52087Y261299D01*
X51983Y260971D01*
X51872Y260647D01*
X51752Y260324D01*
X51624Y260005D01*
X51489Y259690D01*
X51346Y259377D01*
X51195Y259068D01*
X51037Y258763D01*
X50871Y258462D01*
X50698Y258166D01*
X50518Y257873D01*
X50331Y257585D01*
X50136Y257302D01*
X49935Y257023D01*
X49727Y256750D01*
X49512Y256481D01*
X49291Y256219D01*
X49063Y255961D01*
X48829Y255709D01*
X48589Y255464D01*
X48344Y255224D01*
X48092Y254990D01*
X47834Y254762D01*
X47572Y254541D01*
X47303Y254326D01*
X47030Y254118D01*
X46751Y253917D01*
X46468Y253722D01*
X46180Y253535D01*
X45887Y253355D01*
X45591Y253182D01*
X45290Y253016D01*
X44985Y252858D01*
X44676Y252707D01*
X44363Y252564D01*
X44048Y252429D01*
X43729Y252301D01*
X43406Y252181D01*
X43082Y252070D01*
X42754Y251966D01*
X42424Y251870D01*
X42092Y251783D01*
X41757Y251703D01*
X41421Y251632D01*
X41083Y251569D01*
X40744Y251515D01*
X40404Y251468D01*
X40062Y251430D01*
X39720Y251401D01*
X39377Y251380D01*
X39034Y251367D01*
X38690Y251363D01*
X38346Y251367D01*
X38003Y251380D01*
X37660Y251401D01*
X37318Y251430D01*
X36976Y251468D01*
X36636Y251515D01*
X36297Y251569D01*
X35959Y251632D01*
X35623Y251703D01*
X35288Y251783D01*
X34956Y251870D01*
X34626Y251966D01*
X34298Y252070D01*
X33974Y252181D01*
X33651Y252301D01*
X33332Y252429D01*
X33017Y252564D01*
X32704Y252707D01*
X32395Y252858D01*
X32090Y253016D01*
X31789Y253182D01*
X31493Y253355D01*
X31200Y253535D01*
X30912Y253722D01*
X30629Y253917D01*
X30350Y254118D01*
X30077Y254326D01*
X29808Y254541D01*
X29546Y254762D01*
X29288Y254990D01*
X29036Y255224D01*
X28791Y255464D01*
X28551Y255709D01*
X28317Y255961D01*
X28089Y256219D01*
X27868Y256481D01*
X27653Y256750D01*
X27445Y257023D01*
X27244Y257302D01*
X27049Y257585D01*
X26862Y257873D01*
X26682Y258166D01*
X26509Y258462D01*
X26343Y258763D01*
X26185Y259068D01*
X26034Y259377D01*
X25891Y259690D01*
X25756Y260005D01*
X25628Y260324D01*
X25508Y260647D01*
X25397Y260971D01*
X25293Y261299D01*
X25197Y261629D01*
X25110Y261961D01*
X25030Y262296D01*
X24959Y262632D01*
X24896Y262970D01*
X24842Y263309D01*
X24795Y263649D01*
X24757Y263991D01*
X24728Y264333D01*
X24707Y264676D01*
X24694Y265019D01*
X24690Y265363D01*
X604690Y265363D02*
X604694Y265707D01*
X604707Y266050D01*
X604728Y266393D01*
X604757Y266735D01*
X604795Y267077D01*
X604842Y267417D01*
X604896Y267756D01*
X604959Y268094D01*
X605030Y268430D01*
X605110Y268765D01*
X605197Y269097D01*
X605293Y269427D01*
X605397Y269755D01*
X605508Y270079D01*
X605628Y270402D01*
X605756Y270721D01*
X605891Y271036D01*
X606034Y271349D01*
X606185Y271658D01*
X606343Y271963D01*
X606509Y272264D01*
X606682Y272560D01*
X606862Y272853D01*
X607049Y273141D01*
X607244Y273424D01*
X607445Y273703D01*
X607653Y273976D01*
X607868Y274245D01*
X608089Y274507D01*
X608317Y274765D01*
X608551Y275017D01*
X608791Y275262D01*
X609036Y275502D01*
X609288Y275736D01*
X609546Y275964D01*
X609808Y276185D01*
X610077Y276400D01*
X610350Y276608D01*
X610629Y276809D01*
X610912Y277004D01*
X611200Y277191D01*
X611493Y277371D01*
X611789Y277544D01*
X612090Y277710D01*
X612395Y277868D01*
X612704Y278019D01*
X613017Y278162D01*
X613332Y278297D01*
X613651Y278425D01*
X613974Y278545D01*
X614298Y278656D01*
X614626Y278760D01*
X614956Y278856D01*
X615288Y278943D01*
X615623Y279023D01*
X615959Y279094D01*
X616297Y279157D01*
X616636Y279211D01*
X616976Y279258D01*
X617318Y279296D01*
X617660Y279325D01*
X618003Y279346D01*
X618346Y279359D01*
X618690Y279363D01*
X619034Y279359D01*
X619377Y279346D01*
X619720Y279325D01*
X620062Y279296D01*
X620404Y279258D01*
X620744Y279211D01*
X621083Y279157D01*
X621421Y279094D01*
X621757Y279023D01*
X622092Y278943D01*
X622424Y278856D01*
X622754Y278760D01*
X623082Y278656D01*
X623406Y278545D01*
X623729Y278425D01*
X624048Y278297D01*
X624363Y278162D01*
X624676Y278019D01*
X624985Y277868D01*
X625290Y277710D01*
X625591Y277544D01*
X625887Y277371D01*
X626180Y277191D01*
X626468Y277004D01*
X626751Y276809D01*
X627030Y276608D01*
X627303Y276400D01*
X627572Y276185D01*
X627834Y275964D01*
X628092Y275736D01*
X628344Y275502D01*
X628589Y275262D01*
X628829Y275017D01*
X629063Y274765D01*
X629291Y274507D01*
X629512Y274245D01*
X629727Y273976D01*
X629935Y273703D01*
X630136Y273424D01*
X630331Y273141D01*
X630518Y272853D01*
X630698Y272560D01*
X630871Y272264D01*
X631037Y271963D01*
X631195Y271658D01*
X631346Y271349D01*
X631489Y271036D01*
X631624Y270721D01*
X631752Y270402D01*
X631872Y270079D01*
X631983Y269755D01*
X632087Y269427D01*
X632183Y269097D01*
X632270Y268765D01*
X632350Y268430D01*
X632421Y268094D01*
X632484Y267756D01*
X632538Y267417D01*
X632585Y267077D01*
X632623Y266735D01*
X632652Y266393D01*
X632673Y266050D01*
X632686Y265707D01*
X632690Y265363D01*
X632686Y265019D01*
X632673Y264676D01*
X632652Y264333D01*
X632623Y263991D01*
X632585Y263649D01*
X632538Y263309D01*
X632484Y262970D01*
X632421Y262632D01*
X632350Y262296D01*
X632270Y261961D01*
X632183Y261629D01*
X632087Y261299D01*
X631983Y260971D01*
X631872Y260647D01*
X631752Y260324D01*
X631624Y260005D01*
X631489Y259690D01*
X631346Y259377D01*
X631195Y259068D01*
X631037Y258763D01*
X630871Y258462D01*
X630698Y258166D01*
X630518Y257873D01*
X630331Y257585D01*
X630136Y257302D01*
X629935Y257023D01*
X629727Y256750D01*
X629512Y256481D01*
X629291Y256219D01*
X629063Y255961D01*
X628829Y255709D01*
X628589Y255464D01*
X628344Y255224D01*
X628092Y254990D01*
X627834Y254762D01*
X627572Y254541D01*
X627303Y254326D01*
X627030Y254118D01*
X626751Y253917D01*
X626468Y253722D01*
X626180Y253535D01*
X625887Y253355D01*
X625591Y253182D01*
X625290Y253016D01*
X624985Y252858D01*
X624676Y252707D01*
X624363Y252564D01*
X624048Y252429D01*
X623729Y252301D01*
X623406Y252181D01*
X623082Y252070D01*
X622754Y251966D01*
X622424Y251870D01*
X622092Y251783D01*
X621757Y251703D01*
X621421Y251632D01*
X621083Y251569D01*
X620744Y251515D01*
X620404Y251468D01*
X620062Y251430D01*
X619720Y251401D01*
X619377Y251380D01*
X619034Y251367D01*
X618690Y251363D01*
X618346Y251367D01*
X618003Y251380D01*
X617660Y251401D01*
X617318Y251430D01*
X616976Y251468D01*
X616636Y251515D01*
X616297Y251569D01*
X615959Y251632D01*
X615623Y251703D01*
X615288Y251783D01*
X614956Y251870D01*
X614626Y251966D01*
X614298Y252070D01*
X613974Y252181D01*
X613651Y252301D01*
X613332Y252429D01*
X613017Y252564D01*
X612704Y252707D01*
X612395Y252858D01*
X612090Y253016D01*
X611789Y253182D01*
X611493Y253355D01*
X611200Y253535D01*
X610912Y253722D01*
X610629Y253917D01*
X610350Y254118D01*
X610077Y254326D01*
X609808Y254541D01*
X609546Y254762D01*
X609288Y254990D01*
X609036Y255224D01*
X608791Y255464D01*
X608551Y255709D01*
X608317Y255961D01*
X608089Y256219D01*
X607868Y256481D01*
X607653Y256750D01*
X607445Y257023D01*
X607244Y257302D01*
X607049Y257585D01*
X606862Y257873D01*
X606682Y258166D01*
X606509Y258462D01*
X606343Y258763D01*
X606185Y259068D01*
X606034Y259377D01*
X605891Y259690D01*
X605756Y260005D01*
X605628Y260324D01*
X605508Y260647D01*
X605397Y260971D01*
X605293Y261299D01*
X605197Y261629D01*
X605110Y261961D01*
X605030Y262296D01*
X604959Y262632D01*
X604896Y262970D01*
X604842Y263309D01*
X604795Y263649D01*
X604757Y263991D01*
X604728Y264333D01*
X604707Y264676D01*
X604694Y265019D01*
X604690Y265363D01*
X604690Y35411D02*
X604694Y35755D01*
X604707Y36098D01*
X604728Y36441D01*
X604757Y36783D01*
X604795Y37125D01*
X604842Y37465D01*
X604896Y37804D01*
X604959Y38142D01*
X605030Y38478D01*
X605110Y38813D01*
X605197Y39145D01*
X605293Y39475D01*
X605397Y39803D01*
X605508Y40127D01*
X605628Y40450D01*
X605756Y40769D01*
X605891Y41084D01*
X606034Y41397D01*
X606185Y41706D01*
X606343Y42011D01*
X606509Y42312D01*
X606682Y42608D01*
X606862Y42901D01*
X607049Y43189D01*
X607244Y43472D01*
X607445Y43751D01*
X607653Y44024D01*
X607868Y44293D01*
X608089Y44555D01*
X608317Y44813D01*
X608551Y45065D01*
X608791Y45310D01*
X609036Y45550D01*
X609288Y45784D01*
X609546Y46012D01*
X609808Y46233D01*
X610077Y46448D01*
X610350Y46656D01*
X610629Y46857D01*
X610912Y47052D01*
X611200Y47239D01*
X611493Y47419D01*
X611789Y47592D01*
X612090Y47758D01*
X612395Y47916D01*
X612704Y48067D01*
X613017Y48210D01*
X613332Y48345D01*
X613651Y48473D01*
X613974Y48593D01*
X614298Y48704D01*
X614626Y48808D01*
X614956Y48904D01*
X615288Y48991D01*
X615623Y49071D01*
X615959Y49142D01*
X616297Y49205D01*
X616636Y49259D01*
X616976Y49306D01*
X617318Y49344D01*
X617660Y49373D01*
X618003Y49394D01*
X618346Y49407D01*
X618690Y49411D01*
X619034Y49407D01*
X619377Y49394D01*
X619720Y49373D01*
X620062Y49344D01*
X620404Y49306D01*
X620744Y49259D01*
X621083Y49205D01*
X621421Y49142D01*
X621757Y49071D01*
X622092Y48991D01*
X622424Y48904D01*
X622754Y48808D01*
X623082Y48704D01*
X623406Y48593D01*
X623729Y48473D01*
X624048Y48345D01*
X624363Y48210D01*
X624676Y48067D01*
X624985Y47916D01*
X625290Y47758D01*
X625591Y47592D01*
X625887Y47419D01*
X626180Y47239D01*
X626468Y47052D01*
X626751Y46857D01*
X627030Y46656D01*
X627303Y46448D01*
X627572Y46233D01*
X627834Y46012D01*
X628092Y45784D01*
X628344Y45550D01*
X628589Y45310D01*
X628829Y45065D01*
X629063Y44813D01*
X629291Y44555D01*
X629512Y44293D01*
X629727Y44024D01*
X629935Y43751D01*
X630136Y43472D01*
X630331Y43189D01*
X630518Y42901D01*
X630698Y42608D01*
X630871Y42312D01*
X631037Y42011D01*
X631195Y41706D01*
X631346Y41397D01*
X631489Y41084D01*
X631624Y40769D01*
X631752Y40450D01*
X631872Y40127D01*
X631983Y39803D01*
X632087Y39475D01*
X632183Y39145D01*
X632270Y38813D01*
X632350Y38478D01*
X632421Y38142D01*
X632484Y37804D01*
X632538Y37465D01*
X632585Y37125D01*
X632623Y36783D01*
X632652Y36441D01*
X632673Y36098D01*
X632686Y35755D01*
X632690Y35411D01*
X632686Y35067D01*
X632673Y34724D01*
X632652Y34381D01*
X632623Y34039D01*
X632585Y33697D01*
X632538Y33357D01*
X632484Y33018D01*
X632421Y32680D01*
X632350Y32344D01*
X632270Y32009D01*
X632183Y31677D01*
X632087Y31347D01*
X631983Y31019D01*
X631872Y30695D01*
X631752Y30372D01*
X631624Y30053D01*
X631489Y29738D01*
X631346Y29425D01*
X631195Y29116D01*
X631037Y28811D01*
X630871Y28510D01*
X630698Y28214D01*
X630518Y27921D01*
X630331Y27633D01*
X630136Y27350D01*
X629935Y27071D01*
X629727Y26798D01*
X629512Y26529D01*
X629291Y26267D01*
X629063Y26009D01*
X628829Y25757D01*
X628589Y25512D01*
X628344Y25272D01*
X628092Y25038D01*
X627834Y24810D01*
X627572Y24589D01*
X627303Y24374D01*
X627030Y24166D01*
X626751Y23965D01*
X626468Y23770D01*
X626180Y23583D01*
X625887Y23403D01*
X625591Y23230D01*
X625290Y23064D01*
X624985Y22906D01*
X624676Y22755D01*
X624363Y22612D01*
X624048Y22477D01*
X623729Y22349D01*
X623406Y22229D01*
X623082Y22118D01*
X622754Y22014D01*
X622424Y21918D01*
X622092Y21831D01*
X621757Y21751D01*
X621421Y21680D01*
X621083Y21617D01*
X620744Y21563D01*
X620404Y21516D01*
X620062Y21478D01*
X619720Y21449D01*
X619377Y21428D01*
X619034Y21415D01*
X618690Y21411D01*
X618346Y21415D01*
X618003Y21428D01*
X617660Y21449D01*
X617318Y21478D01*
X616976Y21516D01*
X616636Y21563D01*
X616297Y21617D01*
X615959Y21680D01*
X615623Y21751D01*
X615288Y21831D01*
X614956Y21918D01*
X614626Y22014D01*
X614298Y22118D01*
X613974Y22229D01*
X613651Y22349D01*
X613332Y22477D01*
X613017Y22612D01*
X612704Y22755D01*
X612395Y22906D01*
X612090Y23064D01*
X611789Y23230D01*
X611493Y23403D01*
X611200Y23583D01*
X610912Y23770D01*
X610629Y23965D01*
X610350Y24166D01*
X610077Y24374D01*
X609808Y24589D01*
X609546Y24810D01*
X609288Y25038D01*
X609036Y25272D01*
X608791Y25512D01*
X608551Y25757D01*
X608317Y26009D01*
X608089Y26267D01*
X607868Y26529D01*
X607653Y26798D01*
X607445Y27071D01*
X607244Y27350D01*
X607049Y27633D01*
X606862Y27921D01*
X606682Y28214D01*
X606509Y28510D01*
X606343Y28811D01*
X606185Y29116D01*
X606034Y29425D01*
X605891Y29738D01*
X605756Y30053D01*
X605628Y30372D01*
X605508Y30695D01*
X605397Y31019D01*
X605293Y31347D01*
X605197Y31677D01*
X605110Y32009D01*
X605030Y32344D01*
X604959Y32680D01*
X604896Y33018D01*
X604842Y33357D01*
X604795Y33697D01*
X604757Y34039D01*
X604728Y34381D01*
X604707Y34724D01*
X604694Y35067D01*
X604690Y35411D01*
D11*
X424878Y47113D02*
X424878Y56511D01*
X422267Y56511D01*
X422167Y56509D01*
X422067Y56503D01*
X421968Y56494D01*
X421868Y56480D01*
X421770Y56463D01*
X421672Y56442D01*
X421575Y56418D01*
X421479Y56389D01*
X421384Y56357D01*
X421291Y56322D01*
X421199Y56283D01*
X421108Y56240D01*
X421020Y56194D01*
X420933Y56144D01*
X420848Y56092D01*
X420765Y56036D01*
X420684Y55977D01*
X420606Y55914D01*
X420530Y55849D01*
X420456Y55781D01*
X420386Y55711D01*
X420318Y55637D01*
X420253Y55561D01*
X420190Y55483D01*
X420131Y55402D01*
X420075Y55319D01*
X420023Y55234D01*
X419973Y55147D01*
X419927Y55059D01*
X419884Y54968D01*
X419845Y54876D01*
X419810Y54783D01*
X419778Y54688D01*
X419749Y54592D01*
X419725Y54495D01*
X419704Y54397D01*
X419687Y54299D01*
X419673Y54199D01*
X419664Y54100D01*
X419658Y54000D01*
X419656Y53900D01*
X419657Y53900D02*
X419657Y49723D01*
X419656Y49723D02*
X419658Y49623D01*
X419664Y49523D01*
X419673Y49424D01*
X419687Y49324D01*
X419704Y49226D01*
X419725Y49128D01*
X419749Y49031D01*
X419778Y48935D01*
X419810Y48840D01*
X419845Y48747D01*
X419884Y48655D01*
X419927Y48564D01*
X419973Y48476D01*
X420023Y48389D01*
X420075Y48304D01*
X420131Y48221D01*
X420190Y48140D01*
X420253Y48062D01*
X420318Y47986D01*
X420386Y47912D01*
X420456Y47842D01*
X420530Y47774D01*
X420606Y47709D01*
X420684Y47646D01*
X420765Y47587D01*
X420848Y47531D01*
X420933Y47479D01*
X421020Y47429D01*
X421108Y47383D01*
X421199Y47340D01*
X421291Y47301D01*
X421384Y47266D01*
X421479Y47234D01*
X421575Y47205D01*
X421672Y47181D01*
X421770Y47160D01*
X421868Y47143D01*
X421968Y47129D01*
X422067Y47120D01*
X422167Y47114D01*
X422267Y47112D01*
X422267Y47113D02*
X424878Y47113D01*
X413950Y47113D02*
X411340Y47113D01*
X413950Y47113D02*
X414027Y47115D01*
X414103Y47121D01*
X414180Y47130D01*
X414256Y47143D01*
X414331Y47160D01*
X414405Y47180D01*
X414478Y47205D01*
X414549Y47232D01*
X414620Y47263D01*
X414688Y47298D01*
X414755Y47336D01*
X414820Y47377D01*
X414883Y47421D01*
X414943Y47468D01*
X415002Y47519D01*
X415057Y47572D01*
X415110Y47627D01*
X415161Y47686D01*
X415208Y47746D01*
X415252Y47809D01*
X415293Y47874D01*
X415331Y47941D01*
X415366Y48009D01*
X415397Y48080D01*
X415424Y48151D01*
X415449Y48224D01*
X415469Y48298D01*
X415486Y48373D01*
X415499Y48449D01*
X415508Y48526D01*
X415514Y48602D01*
X415516Y48679D01*
X415517Y48679D02*
X415517Y51290D01*
X415516Y51290D02*
X415514Y51380D01*
X415508Y51469D01*
X415499Y51559D01*
X415485Y51648D01*
X415468Y51736D01*
X415447Y51823D01*
X415422Y51910D01*
X415393Y51995D01*
X415361Y52079D01*
X415326Y52161D01*
X415286Y52242D01*
X415244Y52321D01*
X415198Y52398D01*
X415148Y52473D01*
X415096Y52546D01*
X415040Y52617D01*
X414982Y52685D01*
X414920Y52750D01*
X414856Y52813D01*
X414789Y52873D01*
X414720Y52930D01*
X414648Y52984D01*
X414574Y53035D01*
X414498Y53083D01*
X414420Y53127D01*
X414340Y53168D01*
X414258Y53206D01*
X414175Y53240D01*
X414090Y53270D01*
X414004Y53297D01*
X413918Y53320D01*
X413830Y53339D01*
X413741Y53354D01*
X413652Y53366D01*
X413563Y53374D01*
X413473Y53378D01*
X413383Y53378D01*
X413293Y53374D01*
X413204Y53366D01*
X413115Y53354D01*
X413026Y53339D01*
X412938Y53320D01*
X412852Y53297D01*
X412766Y53270D01*
X412681Y53240D01*
X412598Y53206D01*
X412516Y53168D01*
X412436Y53127D01*
X412358Y53083D01*
X412282Y53035D01*
X412208Y52984D01*
X412136Y52930D01*
X412067Y52873D01*
X412000Y52813D01*
X411936Y52750D01*
X411874Y52685D01*
X411816Y52617D01*
X411760Y52546D01*
X411708Y52473D01*
X411658Y52398D01*
X411612Y52321D01*
X411570Y52242D01*
X411530Y52161D01*
X411495Y52079D01*
X411463Y51995D01*
X411434Y51910D01*
X411409Y51823D01*
X411388Y51736D01*
X411371Y51648D01*
X411357Y51559D01*
X411348Y51469D01*
X411342Y51380D01*
X411340Y51290D01*
X411340Y50246D01*
X415517Y50246D01*
X406809Y50768D02*
X404198Y49723D01*
X406809Y50768D02*
X406875Y50796D01*
X406940Y50829D01*
X407003Y50864D01*
X407064Y50903D01*
X407123Y50945D01*
X407179Y50990D01*
X407233Y51038D01*
X407284Y51089D01*
X407333Y51142D01*
X407378Y51199D01*
X407421Y51257D01*
X407460Y51317D01*
X407497Y51380D01*
X407529Y51445D01*
X407558Y51511D01*
X407584Y51578D01*
X407606Y51647D01*
X407624Y51717D01*
X407639Y51788D01*
X407650Y51859D01*
X407657Y51931D01*
X407660Y52003D01*
X407659Y52075D01*
X407654Y52148D01*
X407646Y52219D01*
X407634Y52291D01*
X407618Y52361D01*
X407598Y52430D01*
X407574Y52499D01*
X407547Y52566D01*
X407517Y52631D01*
X407483Y52695D01*
X407445Y52757D01*
X407405Y52817D01*
X407361Y52874D01*
X407314Y52929D01*
X407264Y52982D01*
X407212Y53031D01*
X407157Y53078D01*
X407100Y53122D01*
X407040Y53163D01*
X406978Y53200D01*
X406914Y53235D01*
X406849Y53265D01*
X406782Y53293D01*
X406714Y53316D01*
X406644Y53336D01*
X406574Y53352D01*
X406503Y53365D01*
X406431Y53373D01*
X406359Y53378D01*
X406287Y53379D01*
X406286Y53378D02*
X406135Y53374D01*
X405984Y53366D01*
X405833Y53355D01*
X405682Y53339D01*
X405532Y53319D01*
X405382Y53296D01*
X405233Y53269D01*
X405085Y53238D01*
X404937Y53203D01*
X404791Y53165D01*
X404645Y53122D01*
X404501Y53076D01*
X404358Y53027D01*
X404216Y52974D01*
X404076Y52917D01*
X403937Y52856D01*
X404198Y49724D02*
X404132Y49696D01*
X404067Y49663D01*
X404004Y49628D01*
X403943Y49589D01*
X403884Y49547D01*
X403828Y49502D01*
X403774Y49454D01*
X403723Y49403D01*
X403674Y49350D01*
X403629Y49293D01*
X403586Y49235D01*
X403547Y49175D01*
X403510Y49112D01*
X403478Y49047D01*
X403449Y48981D01*
X403423Y48914D01*
X403401Y48845D01*
X403383Y48775D01*
X403368Y48704D01*
X403357Y48633D01*
X403350Y48561D01*
X403347Y48489D01*
X403348Y48417D01*
X403353Y48344D01*
X403361Y48273D01*
X403373Y48201D01*
X403389Y48131D01*
X403409Y48062D01*
X403433Y47993D01*
X403460Y47926D01*
X403490Y47861D01*
X403524Y47797D01*
X403562Y47735D01*
X403602Y47675D01*
X403646Y47618D01*
X403693Y47563D01*
X403743Y47510D01*
X403795Y47461D01*
X403850Y47414D01*
X403907Y47370D01*
X403967Y47329D01*
X404029Y47292D01*
X404093Y47257D01*
X404158Y47227D01*
X404225Y47199D01*
X404293Y47176D01*
X404363Y47156D01*
X404433Y47140D01*
X404504Y47127D01*
X404576Y47119D01*
X404648Y47114D01*
X404720Y47113D01*
X404930Y47118D01*
X405139Y47129D01*
X405348Y47144D01*
X405556Y47164D01*
X405764Y47190D01*
X405971Y47220D01*
X406178Y47255D01*
X406383Y47295D01*
X406588Y47339D01*
X406791Y47389D01*
X406994Y47443D01*
X407195Y47503D01*
X407394Y47566D01*
X407592Y47635D01*
X399712Y47113D02*
X399712Y53378D01*
X399973Y55989D02*
X399973Y56511D01*
X399451Y56511D01*
X399451Y55989D01*
X399973Y55989D01*
X394489Y47113D02*
X391878Y47113D01*
X394489Y47113D02*
X394566Y47115D01*
X394642Y47121D01*
X394719Y47130D01*
X394795Y47143D01*
X394870Y47160D01*
X394944Y47180D01*
X395017Y47205D01*
X395088Y47232D01*
X395159Y47263D01*
X395227Y47298D01*
X395294Y47336D01*
X395359Y47377D01*
X395422Y47421D01*
X395482Y47468D01*
X395541Y47519D01*
X395596Y47572D01*
X395649Y47627D01*
X395700Y47686D01*
X395747Y47746D01*
X395791Y47809D01*
X395832Y47874D01*
X395870Y47941D01*
X395905Y48009D01*
X395936Y48080D01*
X395963Y48151D01*
X395988Y48224D01*
X396008Y48298D01*
X396025Y48373D01*
X396038Y48449D01*
X396047Y48526D01*
X396053Y48602D01*
X396055Y48679D01*
X396055Y51812D01*
X396053Y51889D01*
X396047Y51965D01*
X396038Y52042D01*
X396025Y52118D01*
X396008Y52193D01*
X395988Y52267D01*
X395963Y52340D01*
X395936Y52411D01*
X395905Y52482D01*
X395870Y52550D01*
X395832Y52617D01*
X395791Y52682D01*
X395747Y52745D01*
X395700Y52805D01*
X395649Y52864D01*
X395596Y52919D01*
X395541Y52972D01*
X395482Y53023D01*
X395422Y53070D01*
X395359Y53114D01*
X395294Y53155D01*
X395227Y53193D01*
X395159Y53228D01*
X395088Y53259D01*
X395017Y53286D01*
X394944Y53311D01*
X394870Y53331D01*
X394795Y53348D01*
X394719Y53361D01*
X394642Y53370D01*
X394566Y53376D01*
X394489Y53378D01*
X391878Y53378D01*
X391878Y45547D01*
X391879Y45547D02*
X391881Y45470D01*
X391887Y45394D01*
X391896Y45317D01*
X391909Y45241D01*
X391926Y45166D01*
X391946Y45092D01*
X391971Y45019D01*
X391998Y44948D01*
X392029Y44877D01*
X392064Y44809D01*
X392102Y44742D01*
X392143Y44677D01*
X392187Y44614D01*
X392234Y44554D01*
X392285Y44495D01*
X392338Y44440D01*
X392393Y44387D01*
X392452Y44336D01*
X392512Y44289D01*
X392575Y44245D01*
X392640Y44204D01*
X392707Y44166D01*
X392775Y44131D01*
X392846Y44100D01*
X392917Y44073D01*
X392990Y44048D01*
X393064Y44028D01*
X393139Y44011D01*
X393215Y43998D01*
X393292Y43989D01*
X393368Y43983D01*
X393445Y43981D01*
X393445Y43980D02*
X395533Y43980D01*
X387475Y47113D02*
X387475Y53378D01*
X384865Y53378D01*
X384788Y53376D01*
X384712Y53370D01*
X384635Y53361D01*
X384559Y53348D01*
X384485Y53331D01*
X384410Y53311D01*
X384337Y53286D01*
X384266Y53259D01*
X384195Y53228D01*
X384127Y53193D01*
X384060Y53155D01*
X383995Y53114D01*
X383932Y53070D01*
X383872Y53023D01*
X383813Y52972D01*
X383758Y52919D01*
X383705Y52864D01*
X383654Y52805D01*
X383607Y52745D01*
X383563Y52682D01*
X383522Y52617D01*
X383484Y52550D01*
X383449Y52482D01*
X383418Y52411D01*
X383391Y52340D01*
X383366Y52267D01*
X383346Y52193D01*
X383329Y52118D01*
X383316Y52042D01*
X383307Y51966D01*
X383301Y51889D01*
X383299Y51812D01*
X383298Y51812D02*
X383298Y47113D01*
X377679Y47113D02*
X375069Y47113D01*
X377679Y47113D02*
X377756Y47115D01*
X377832Y47121D01*
X377909Y47130D01*
X377985Y47143D01*
X378060Y47160D01*
X378134Y47180D01*
X378207Y47205D01*
X378278Y47232D01*
X378349Y47263D01*
X378417Y47298D01*
X378484Y47336D01*
X378549Y47377D01*
X378612Y47421D01*
X378672Y47468D01*
X378731Y47519D01*
X378786Y47572D01*
X378839Y47627D01*
X378890Y47686D01*
X378937Y47746D01*
X378981Y47809D01*
X379022Y47874D01*
X379060Y47941D01*
X379095Y48009D01*
X379126Y48080D01*
X379153Y48151D01*
X379178Y48224D01*
X379198Y48298D01*
X379215Y48373D01*
X379228Y48449D01*
X379237Y48526D01*
X379243Y48602D01*
X379245Y48679D01*
X379246Y48679D02*
X379246Y51290D01*
X379245Y51290D02*
X379243Y51380D01*
X379237Y51469D01*
X379228Y51559D01*
X379214Y51648D01*
X379197Y51736D01*
X379176Y51823D01*
X379151Y51910D01*
X379122Y51995D01*
X379090Y52079D01*
X379055Y52161D01*
X379015Y52242D01*
X378973Y52321D01*
X378927Y52398D01*
X378877Y52473D01*
X378825Y52546D01*
X378769Y52617D01*
X378711Y52685D01*
X378649Y52750D01*
X378585Y52813D01*
X378518Y52873D01*
X378449Y52930D01*
X378377Y52984D01*
X378303Y53035D01*
X378227Y53083D01*
X378149Y53127D01*
X378069Y53168D01*
X377987Y53206D01*
X377904Y53240D01*
X377819Y53270D01*
X377733Y53297D01*
X377647Y53320D01*
X377559Y53339D01*
X377470Y53354D01*
X377381Y53366D01*
X377292Y53374D01*
X377202Y53378D01*
X377112Y53378D01*
X377022Y53374D01*
X376933Y53366D01*
X376844Y53354D01*
X376755Y53339D01*
X376667Y53320D01*
X376581Y53297D01*
X376495Y53270D01*
X376410Y53240D01*
X376327Y53206D01*
X376245Y53168D01*
X376165Y53127D01*
X376087Y53083D01*
X376011Y53035D01*
X375937Y52984D01*
X375865Y52930D01*
X375796Y52873D01*
X375729Y52813D01*
X375665Y52750D01*
X375603Y52685D01*
X375545Y52617D01*
X375489Y52546D01*
X375437Y52473D01*
X375387Y52398D01*
X375341Y52321D01*
X375299Y52242D01*
X375259Y52161D01*
X375224Y52079D01*
X375192Y51995D01*
X375163Y51910D01*
X375138Y51823D01*
X375117Y51736D01*
X375100Y51648D01*
X375086Y51559D01*
X375077Y51469D01*
X375071Y51380D01*
X375069Y51290D01*
X375069Y50246D01*
X379246Y50246D01*
X367190Y47113D02*
X367190Y56511D01*
X367190Y47113D02*
X369800Y47113D01*
X369877Y47115D01*
X369953Y47121D01*
X370030Y47130D01*
X370106Y47143D01*
X370181Y47160D01*
X370255Y47180D01*
X370328Y47205D01*
X370399Y47232D01*
X370470Y47263D01*
X370538Y47298D01*
X370605Y47336D01*
X370670Y47377D01*
X370733Y47421D01*
X370793Y47468D01*
X370852Y47519D01*
X370907Y47572D01*
X370960Y47627D01*
X371011Y47686D01*
X371058Y47746D01*
X371102Y47809D01*
X371143Y47874D01*
X371181Y47941D01*
X371216Y48009D01*
X371247Y48080D01*
X371274Y48151D01*
X371299Y48224D01*
X371319Y48298D01*
X371336Y48373D01*
X371349Y48449D01*
X371358Y48526D01*
X371364Y48602D01*
X371366Y48679D01*
X371367Y48679D02*
X371367Y51812D01*
X371366Y51812D02*
X371364Y51889D01*
X371358Y51965D01*
X371349Y52042D01*
X371336Y52118D01*
X371319Y52193D01*
X371299Y52267D01*
X371274Y52340D01*
X371247Y52411D01*
X371216Y52482D01*
X371181Y52550D01*
X371143Y52617D01*
X371102Y52682D01*
X371058Y52745D01*
X371011Y52805D01*
X370960Y52864D01*
X370907Y52919D01*
X370852Y52972D01*
X370793Y53023D01*
X370733Y53070D01*
X370670Y53114D01*
X370605Y53155D01*
X370538Y53193D01*
X370470Y53228D01*
X370399Y53259D01*
X370328Y53286D01*
X370255Y53311D01*
X370181Y53331D01*
X370106Y53348D01*
X370030Y53361D01*
X369953Y53370D01*
X369877Y53376D01*
X369800Y53378D01*
X367190Y53378D01*
X358260Y53378D02*
X358260Y47113D01*
X358521Y55989D02*
X358521Y56511D01*
X357999Y56511D01*
X357999Y55989D01*
X358521Y55989D01*
X354252Y53378D02*
X354252Y47113D01*
X354252Y53378D02*
X351642Y53378D01*
X351565Y53376D01*
X351489Y53370D01*
X351412Y53361D01*
X351336Y53348D01*
X351262Y53331D01*
X351187Y53311D01*
X351114Y53286D01*
X351043Y53259D01*
X350972Y53228D01*
X350904Y53193D01*
X350837Y53155D01*
X350772Y53114D01*
X350709Y53070D01*
X350649Y53023D01*
X350590Y52972D01*
X350535Y52919D01*
X350482Y52864D01*
X350431Y52805D01*
X350384Y52745D01*
X350340Y52682D01*
X350299Y52617D01*
X350261Y52550D01*
X350226Y52482D01*
X350195Y52411D01*
X350168Y52340D01*
X350143Y52267D01*
X350123Y52193D01*
X350106Y52118D01*
X350093Y52042D01*
X350084Y51966D01*
X350078Y51889D01*
X350076Y51812D01*
X350075Y51812D02*
X350075Y47113D01*
X341915Y53378D02*
X338782Y53378D01*
X340870Y56511D02*
X340870Y48679D01*
X340868Y48602D01*
X340862Y48526D01*
X340853Y48449D01*
X340840Y48373D01*
X340823Y48298D01*
X340803Y48224D01*
X340778Y48151D01*
X340751Y48080D01*
X340720Y48009D01*
X340685Y47941D01*
X340647Y47874D01*
X340606Y47809D01*
X340562Y47746D01*
X340515Y47686D01*
X340464Y47627D01*
X340411Y47572D01*
X340356Y47519D01*
X340297Y47468D01*
X340237Y47421D01*
X340174Y47377D01*
X340109Y47336D01*
X340042Y47298D01*
X339974Y47263D01*
X339903Y47232D01*
X339832Y47205D01*
X339759Y47180D01*
X339685Y47160D01*
X339610Y47143D01*
X339534Y47130D01*
X339457Y47121D01*
X339381Y47115D01*
X339304Y47113D01*
X338782Y47113D01*
X335050Y47113D02*
X335050Y56511D01*
X335050Y53378D02*
X332439Y53378D01*
X332362Y53376D01*
X332286Y53370D01*
X332209Y53361D01*
X332133Y53348D01*
X332059Y53331D01*
X331984Y53311D01*
X331911Y53286D01*
X331840Y53259D01*
X331769Y53228D01*
X331701Y53193D01*
X331634Y53155D01*
X331569Y53114D01*
X331506Y53070D01*
X331446Y53023D01*
X331387Y52972D01*
X331332Y52919D01*
X331279Y52864D01*
X331228Y52805D01*
X331181Y52745D01*
X331137Y52682D01*
X331096Y52617D01*
X331058Y52550D01*
X331023Y52482D01*
X330992Y52411D01*
X330965Y52340D01*
X330940Y52267D01*
X330920Y52193D01*
X330903Y52118D01*
X330890Y52042D01*
X330881Y51966D01*
X330875Y51889D01*
X330873Y51812D01*
X330873Y47113D01*
X325254Y47113D02*
X322644Y47113D01*
X325254Y47113D02*
X325331Y47115D01*
X325407Y47121D01*
X325484Y47130D01*
X325560Y47143D01*
X325635Y47160D01*
X325709Y47180D01*
X325782Y47205D01*
X325853Y47232D01*
X325924Y47263D01*
X325992Y47298D01*
X326059Y47336D01*
X326124Y47377D01*
X326187Y47421D01*
X326247Y47468D01*
X326306Y47519D01*
X326361Y47572D01*
X326414Y47627D01*
X326465Y47686D01*
X326512Y47746D01*
X326556Y47809D01*
X326597Y47874D01*
X326635Y47941D01*
X326670Y48009D01*
X326701Y48080D01*
X326728Y48151D01*
X326753Y48224D01*
X326773Y48298D01*
X326790Y48373D01*
X326803Y48449D01*
X326812Y48526D01*
X326818Y48602D01*
X326820Y48679D01*
X326820Y51290D01*
X326818Y51380D01*
X326812Y51469D01*
X326803Y51559D01*
X326789Y51648D01*
X326772Y51736D01*
X326751Y51823D01*
X326726Y51910D01*
X326697Y51995D01*
X326665Y52079D01*
X326630Y52161D01*
X326590Y52242D01*
X326548Y52321D01*
X326502Y52398D01*
X326452Y52473D01*
X326400Y52546D01*
X326344Y52617D01*
X326286Y52685D01*
X326224Y52750D01*
X326160Y52813D01*
X326093Y52873D01*
X326024Y52930D01*
X325952Y52984D01*
X325878Y53035D01*
X325802Y53083D01*
X325724Y53127D01*
X325644Y53168D01*
X325562Y53206D01*
X325479Y53240D01*
X325394Y53270D01*
X325308Y53297D01*
X325222Y53320D01*
X325134Y53339D01*
X325045Y53354D01*
X324956Y53366D01*
X324867Y53374D01*
X324777Y53378D01*
X324687Y53378D01*
X324597Y53374D01*
X324508Y53366D01*
X324419Y53354D01*
X324330Y53339D01*
X324242Y53320D01*
X324156Y53297D01*
X324070Y53270D01*
X323985Y53240D01*
X323902Y53206D01*
X323820Y53168D01*
X323740Y53127D01*
X323662Y53083D01*
X323586Y53035D01*
X323512Y52984D01*
X323440Y52930D01*
X323371Y52873D01*
X323304Y52813D01*
X323240Y52750D01*
X323178Y52685D01*
X323120Y52617D01*
X323064Y52546D01*
X323012Y52473D01*
X322962Y52398D01*
X322916Y52321D01*
X322874Y52242D01*
X322834Y52161D01*
X322799Y52079D01*
X322767Y51995D01*
X322738Y51910D01*
X322713Y51823D01*
X322692Y51736D01*
X322675Y51648D01*
X322661Y51559D01*
X322652Y51469D01*
X322646Y51380D01*
X322644Y51290D01*
X322644Y50246D01*
X326820Y50246D01*
X313627Y49723D02*
X313627Y56511D01*
X313627Y49723D02*
X313625Y49622D01*
X313619Y49521D01*
X313609Y49420D01*
X313596Y49320D01*
X313578Y49220D01*
X313557Y49121D01*
X313531Y49023D01*
X313502Y48926D01*
X313470Y48830D01*
X313433Y48736D01*
X313393Y48643D01*
X313349Y48551D01*
X313302Y48462D01*
X313251Y48374D01*
X313197Y48288D01*
X313140Y48205D01*
X313080Y48123D01*
X313016Y48045D01*
X312950Y47968D01*
X312880Y47895D01*
X312808Y47824D01*
X312733Y47756D01*
X312655Y47691D01*
X312575Y47629D01*
X312493Y47570D01*
X312408Y47514D01*
X312321Y47462D01*
X312233Y47413D01*
X312142Y47367D01*
X312050Y47326D01*
X311956Y47287D01*
X311861Y47253D01*
X311765Y47222D01*
X311667Y47195D01*
X311569Y47171D01*
X311469Y47152D01*
X311369Y47136D01*
X311269Y47124D01*
X311168Y47116D01*
X311067Y47112D01*
X310965Y47112D01*
X310864Y47116D01*
X310763Y47124D01*
X310663Y47136D01*
X310563Y47152D01*
X310463Y47171D01*
X310365Y47195D01*
X310267Y47222D01*
X310171Y47253D01*
X310076Y47287D01*
X309982Y47326D01*
X309890Y47367D01*
X309799Y47413D01*
X309711Y47462D01*
X309624Y47514D01*
X309539Y47570D01*
X309457Y47629D01*
X309377Y47691D01*
X309299Y47756D01*
X309224Y47824D01*
X309152Y47895D01*
X309082Y47968D01*
X309016Y48045D01*
X308952Y48123D01*
X308892Y48205D01*
X308835Y48288D01*
X308781Y48374D01*
X308730Y48462D01*
X308683Y48551D01*
X308639Y48643D01*
X308599Y48736D01*
X308562Y48830D01*
X308530Y48926D01*
X308501Y49023D01*
X308475Y49121D01*
X308454Y49220D01*
X308436Y49320D01*
X308423Y49420D01*
X308413Y49521D01*
X308407Y49622D01*
X308405Y49723D01*
X308406Y49723D02*
X308406Y56511D01*
X303961Y53378D02*
X303961Y47113D01*
X303961Y53378D02*
X301350Y53378D01*
X301273Y53376D01*
X301197Y53370D01*
X301120Y53361D01*
X301044Y53348D01*
X300970Y53331D01*
X300895Y53311D01*
X300822Y53286D01*
X300751Y53259D01*
X300680Y53228D01*
X300612Y53193D01*
X300545Y53155D01*
X300480Y53114D01*
X300417Y53070D01*
X300357Y53023D01*
X300298Y52972D01*
X300243Y52919D01*
X300190Y52864D01*
X300139Y52805D01*
X300092Y52745D01*
X300048Y52682D01*
X300007Y52617D01*
X299969Y52550D01*
X299934Y52482D01*
X299903Y52411D01*
X299876Y52340D01*
X299851Y52267D01*
X299831Y52193D01*
X299814Y52118D01*
X299801Y52042D01*
X299792Y51966D01*
X299786Y51889D01*
X299784Y51812D01*
X299784Y47113D01*
X295776Y47113D02*
X295776Y53378D01*
X296037Y55989D02*
X296037Y56511D01*
X295515Y56511D01*
X295515Y55989D01*
X296037Y55989D01*
X292842Y53378D02*
X289709Y53378D01*
X291798Y56511D02*
X291798Y48679D01*
X291796Y48602D01*
X291790Y48526D01*
X291781Y48449D01*
X291768Y48373D01*
X291751Y48298D01*
X291731Y48224D01*
X291706Y48151D01*
X291679Y48080D01*
X291648Y48009D01*
X291613Y47941D01*
X291575Y47874D01*
X291534Y47809D01*
X291490Y47746D01*
X291443Y47686D01*
X291392Y47627D01*
X291339Y47572D01*
X291284Y47519D01*
X291225Y47468D01*
X291165Y47421D01*
X291102Y47377D01*
X291037Y47336D01*
X290970Y47298D01*
X290902Y47263D01*
X290831Y47232D01*
X290760Y47205D01*
X290687Y47180D01*
X290613Y47160D01*
X290538Y47143D01*
X290462Y47130D01*
X290385Y47121D01*
X290309Y47115D01*
X290232Y47113D01*
X289709Y47113D01*
X284716Y47113D02*
X282105Y47113D01*
X284716Y47113D02*
X284793Y47115D01*
X284869Y47121D01*
X284946Y47130D01*
X285022Y47143D01*
X285097Y47160D01*
X285171Y47180D01*
X285244Y47205D01*
X285315Y47232D01*
X285386Y47263D01*
X285454Y47298D01*
X285521Y47336D01*
X285586Y47377D01*
X285649Y47421D01*
X285709Y47468D01*
X285768Y47519D01*
X285823Y47572D01*
X285876Y47627D01*
X285927Y47686D01*
X285974Y47746D01*
X286018Y47809D01*
X286059Y47874D01*
X286097Y47941D01*
X286132Y48009D01*
X286163Y48080D01*
X286190Y48151D01*
X286215Y48224D01*
X286235Y48298D01*
X286252Y48373D01*
X286265Y48449D01*
X286274Y48526D01*
X286280Y48602D01*
X286282Y48679D01*
X286282Y51290D01*
X286280Y51380D01*
X286274Y51469D01*
X286265Y51559D01*
X286251Y51648D01*
X286234Y51736D01*
X286213Y51823D01*
X286188Y51910D01*
X286159Y51995D01*
X286127Y52079D01*
X286092Y52161D01*
X286052Y52242D01*
X286010Y52321D01*
X285964Y52398D01*
X285914Y52473D01*
X285862Y52546D01*
X285806Y52617D01*
X285748Y52685D01*
X285686Y52750D01*
X285622Y52813D01*
X285555Y52873D01*
X285486Y52930D01*
X285414Y52984D01*
X285340Y53035D01*
X285264Y53083D01*
X285186Y53127D01*
X285106Y53168D01*
X285024Y53206D01*
X284941Y53240D01*
X284856Y53270D01*
X284770Y53297D01*
X284684Y53320D01*
X284596Y53339D01*
X284507Y53354D01*
X284418Y53366D01*
X284329Y53374D01*
X284239Y53378D01*
X284149Y53378D01*
X284059Y53374D01*
X283970Y53366D01*
X283881Y53354D01*
X283792Y53339D01*
X283704Y53320D01*
X283618Y53297D01*
X283532Y53270D01*
X283447Y53240D01*
X283364Y53206D01*
X283282Y53168D01*
X283202Y53127D01*
X283124Y53083D01*
X283048Y53035D01*
X282974Y52984D01*
X282902Y52930D01*
X282833Y52873D01*
X282766Y52813D01*
X282702Y52750D01*
X282640Y52685D01*
X282582Y52617D01*
X282526Y52546D01*
X282474Y52473D01*
X282424Y52398D01*
X282378Y52321D01*
X282336Y52242D01*
X282296Y52161D01*
X282261Y52079D01*
X282229Y51995D01*
X282200Y51910D01*
X282175Y51823D01*
X282154Y51736D01*
X282137Y51648D01*
X282123Y51559D01*
X282114Y51469D01*
X282108Y51380D01*
X282106Y51290D01*
X282105Y51290D02*
X282105Y50246D01*
X286282Y50246D01*
X274226Y47113D02*
X274226Y56511D01*
X274226Y47113D02*
X276837Y47113D01*
X276914Y47115D01*
X276990Y47121D01*
X277067Y47130D01*
X277143Y47143D01*
X277218Y47160D01*
X277292Y47180D01*
X277365Y47205D01*
X277436Y47232D01*
X277507Y47263D01*
X277575Y47298D01*
X277642Y47336D01*
X277707Y47377D01*
X277770Y47421D01*
X277830Y47468D01*
X277889Y47519D01*
X277944Y47572D01*
X277997Y47627D01*
X278048Y47686D01*
X278095Y47746D01*
X278139Y47809D01*
X278180Y47874D01*
X278218Y47941D01*
X278253Y48009D01*
X278284Y48080D01*
X278311Y48151D01*
X278336Y48224D01*
X278356Y48298D01*
X278373Y48373D01*
X278386Y48449D01*
X278395Y48526D01*
X278401Y48602D01*
X278403Y48679D01*
X278403Y51812D01*
X278401Y51889D01*
X278395Y51965D01*
X278386Y52042D01*
X278373Y52118D01*
X278356Y52193D01*
X278336Y52267D01*
X278311Y52340D01*
X278284Y52411D01*
X278253Y52482D01*
X278218Y52550D01*
X278180Y52617D01*
X278139Y52682D01*
X278095Y52745D01*
X278048Y52805D01*
X277997Y52864D01*
X277944Y52919D01*
X277889Y52972D01*
X277830Y53023D01*
X277770Y53070D01*
X277707Y53114D01*
X277642Y53155D01*
X277575Y53193D01*
X277507Y53228D01*
X277436Y53259D01*
X277365Y53286D01*
X277292Y53311D01*
X277218Y53331D01*
X277143Y53348D01*
X277067Y53361D01*
X276990Y53370D01*
X276914Y53376D01*
X276837Y53378D01*
X274226Y53378D01*
X264728Y56511D02*
X264728Y47113D01*
X264728Y50768D02*
X259507Y56511D01*
X262639Y52856D02*
X259507Y47113D01*
X256152Y47113D02*
X256152Y53378D01*
X256413Y55989D02*
X256413Y56511D01*
X255891Y56511D01*
X255891Y55989D01*
X256413Y55989D01*
X252145Y53378D02*
X252145Y47113D01*
X252145Y53378D02*
X249534Y53378D01*
X249457Y53376D01*
X249381Y53370D01*
X249304Y53361D01*
X249228Y53348D01*
X249154Y53331D01*
X249079Y53311D01*
X249006Y53286D01*
X248935Y53259D01*
X248864Y53228D01*
X248796Y53193D01*
X248729Y53155D01*
X248664Y53114D01*
X248601Y53070D01*
X248541Y53023D01*
X248482Y52972D01*
X248427Y52919D01*
X248374Y52864D01*
X248323Y52805D01*
X248276Y52745D01*
X248232Y52682D01*
X248191Y52617D01*
X248153Y52550D01*
X248118Y52482D01*
X248087Y52411D01*
X248060Y52340D01*
X248035Y52267D01*
X248015Y52193D01*
X247998Y52118D01*
X247985Y52042D01*
X247976Y51966D01*
X247970Y51889D01*
X247968Y51812D01*
X247968Y47113D01*
X242395Y47113D02*
X239784Y47113D01*
X242395Y47113D02*
X242472Y47115D01*
X242548Y47121D01*
X242625Y47130D01*
X242701Y47143D01*
X242776Y47160D01*
X242850Y47180D01*
X242923Y47205D01*
X242994Y47232D01*
X243065Y47263D01*
X243133Y47298D01*
X243200Y47336D01*
X243265Y47377D01*
X243328Y47421D01*
X243388Y47468D01*
X243447Y47519D01*
X243502Y47572D01*
X243555Y47627D01*
X243606Y47686D01*
X243653Y47746D01*
X243697Y47809D01*
X243738Y47874D01*
X243776Y47941D01*
X243811Y48009D01*
X243842Y48080D01*
X243869Y48151D01*
X243894Y48224D01*
X243914Y48298D01*
X243931Y48373D01*
X243944Y48449D01*
X243953Y48526D01*
X243959Y48602D01*
X243961Y48679D01*
X243961Y51812D01*
X243959Y51889D01*
X243953Y51965D01*
X243944Y52042D01*
X243931Y52118D01*
X243914Y52193D01*
X243894Y52267D01*
X243869Y52340D01*
X243842Y52411D01*
X243811Y52482D01*
X243776Y52550D01*
X243738Y52617D01*
X243697Y52682D01*
X243653Y52745D01*
X243606Y52805D01*
X243555Y52864D01*
X243502Y52919D01*
X243447Y52972D01*
X243388Y53023D01*
X243328Y53070D01*
X243265Y53114D01*
X243200Y53155D01*
X243133Y53193D01*
X243065Y53228D01*
X242994Y53259D01*
X242923Y53286D01*
X242850Y53311D01*
X242776Y53331D01*
X242701Y53348D01*
X242625Y53361D01*
X242548Y53370D01*
X242472Y53376D01*
X242395Y53378D01*
X239784Y53378D01*
X239784Y45547D01*
X239786Y45470D01*
X239792Y45394D01*
X239801Y45317D01*
X239814Y45241D01*
X239831Y45166D01*
X239851Y45092D01*
X239876Y45019D01*
X239903Y44948D01*
X239934Y44877D01*
X239969Y44809D01*
X240007Y44742D01*
X240048Y44677D01*
X240092Y44614D01*
X240139Y44554D01*
X240190Y44495D01*
X240243Y44440D01*
X240298Y44387D01*
X240357Y44336D01*
X240417Y44289D01*
X240480Y44245D01*
X240545Y44204D01*
X240612Y44166D01*
X240680Y44131D01*
X240751Y44100D01*
X240822Y44073D01*
X240895Y44048D01*
X240969Y44028D01*
X241044Y44011D01*
X241120Y43998D01*
X241197Y43989D01*
X241273Y43983D01*
X241350Y43981D01*
X241350Y43980D02*
X243439Y43980D01*
X231555Y47113D02*
X231555Y56511D01*
X231555Y47113D02*
X234165Y47113D01*
X234242Y47115D01*
X234318Y47121D01*
X234395Y47130D01*
X234471Y47143D01*
X234546Y47160D01*
X234620Y47180D01*
X234693Y47205D01*
X234764Y47232D01*
X234835Y47263D01*
X234903Y47298D01*
X234970Y47336D01*
X235035Y47377D01*
X235098Y47421D01*
X235158Y47468D01*
X235217Y47519D01*
X235272Y47572D01*
X235325Y47627D01*
X235376Y47686D01*
X235423Y47746D01*
X235467Y47809D01*
X235508Y47874D01*
X235546Y47941D01*
X235581Y48009D01*
X235612Y48080D01*
X235639Y48151D01*
X235664Y48224D01*
X235684Y48298D01*
X235701Y48373D01*
X235714Y48449D01*
X235723Y48526D01*
X235729Y48602D01*
X235731Y48679D01*
X235731Y51812D01*
X235729Y51889D01*
X235723Y51965D01*
X235714Y52042D01*
X235701Y52118D01*
X235684Y52193D01*
X235664Y52267D01*
X235639Y52340D01*
X235612Y52411D01*
X235581Y52482D01*
X235546Y52550D01*
X235508Y52617D01*
X235467Y52682D01*
X235423Y52745D01*
X235376Y52805D01*
X235325Y52864D01*
X235272Y52919D01*
X235217Y52972D01*
X235158Y53023D01*
X235098Y53070D01*
X235035Y53114D01*
X234970Y53155D01*
X234903Y53193D01*
X234835Y53228D01*
X234764Y53259D01*
X234693Y53286D01*
X234620Y53311D01*
X234546Y53331D01*
X234471Y53348D01*
X234395Y53361D01*
X234318Y53370D01*
X234242Y53376D01*
X234165Y53378D01*
X231555Y53378D01*
X227456Y51290D02*
X227456Y49201D01*
X227456Y51290D02*
X227454Y51380D01*
X227448Y51469D01*
X227439Y51559D01*
X227425Y51648D01*
X227408Y51736D01*
X227387Y51823D01*
X227362Y51910D01*
X227333Y51995D01*
X227301Y52079D01*
X227266Y52161D01*
X227226Y52242D01*
X227184Y52321D01*
X227138Y52398D01*
X227088Y52473D01*
X227036Y52546D01*
X226980Y52617D01*
X226922Y52685D01*
X226860Y52750D01*
X226796Y52813D01*
X226729Y52873D01*
X226660Y52930D01*
X226588Y52984D01*
X226514Y53035D01*
X226438Y53083D01*
X226360Y53127D01*
X226280Y53168D01*
X226198Y53206D01*
X226115Y53240D01*
X226030Y53270D01*
X225944Y53297D01*
X225858Y53320D01*
X225770Y53339D01*
X225681Y53354D01*
X225592Y53366D01*
X225503Y53374D01*
X225413Y53378D01*
X225323Y53378D01*
X225233Y53374D01*
X225144Y53366D01*
X225055Y53354D01*
X224966Y53339D01*
X224878Y53320D01*
X224792Y53297D01*
X224706Y53270D01*
X224621Y53240D01*
X224538Y53206D01*
X224456Y53168D01*
X224376Y53127D01*
X224298Y53083D01*
X224222Y53035D01*
X224148Y52984D01*
X224076Y52930D01*
X224007Y52873D01*
X223940Y52813D01*
X223876Y52750D01*
X223814Y52685D01*
X223756Y52617D01*
X223700Y52546D01*
X223648Y52473D01*
X223598Y52398D01*
X223552Y52321D01*
X223510Y52242D01*
X223470Y52161D01*
X223435Y52079D01*
X223403Y51995D01*
X223374Y51910D01*
X223349Y51823D01*
X223328Y51736D01*
X223311Y51648D01*
X223297Y51559D01*
X223288Y51469D01*
X223282Y51380D01*
X223280Y51290D01*
X223279Y51290D02*
X223279Y49201D01*
X223280Y49201D02*
X223282Y49111D01*
X223288Y49022D01*
X223297Y48932D01*
X223311Y48843D01*
X223328Y48755D01*
X223349Y48668D01*
X223374Y48581D01*
X223403Y48496D01*
X223435Y48412D01*
X223470Y48330D01*
X223510Y48249D01*
X223552Y48170D01*
X223598Y48093D01*
X223648Y48018D01*
X223700Y47945D01*
X223756Y47874D01*
X223814Y47806D01*
X223876Y47741D01*
X223940Y47678D01*
X224007Y47618D01*
X224076Y47561D01*
X224148Y47507D01*
X224222Y47456D01*
X224298Y47408D01*
X224376Y47364D01*
X224456Y47323D01*
X224538Y47285D01*
X224621Y47251D01*
X224706Y47221D01*
X224792Y47194D01*
X224878Y47171D01*
X224966Y47152D01*
X225055Y47137D01*
X225144Y47125D01*
X225233Y47117D01*
X225323Y47113D01*
X225413Y47113D01*
X225503Y47117D01*
X225592Y47125D01*
X225681Y47137D01*
X225770Y47152D01*
X225858Y47171D01*
X225944Y47194D01*
X226030Y47221D01*
X226115Y47251D01*
X226198Y47285D01*
X226280Y47323D01*
X226360Y47364D01*
X226438Y47408D01*
X226514Y47456D01*
X226588Y47507D01*
X226660Y47561D01*
X226729Y47618D01*
X226796Y47678D01*
X226860Y47741D01*
X226922Y47806D01*
X226980Y47874D01*
X227036Y47945D01*
X227088Y48018D01*
X227138Y48093D01*
X227184Y48170D01*
X227226Y48249D01*
X227266Y48330D01*
X227301Y48412D01*
X227333Y48496D01*
X227362Y48581D01*
X227387Y48668D01*
X227408Y48755D01*
X227425Y48843D01*
X227439Y48932D01*
X227448Y49022D01*
X227454Y49111D01*
X227456Y49201D01*
X219052Y47113D02*
X219052Y53378D01*
X214353Y53378D01*
X214276Y53376D01*
X214200Y53370D01*
X214123Y53361D01*
X214047Y53348D01*
X213972Y53331D01*
X213898Y53311D01*
X213825Y53286D01*
X213754Y53259D01*
X213683Y53228D01*
X213615Y53193D01*
X213548Y53155D01*
X213483Y53114D01*
X213420Y53070D01*
X213360Y53023D01*
X213301Y52972D01*
X213246Y52919D01*
X213193Y52864D01*
X213142Y52805D01*
X213095Y52745D01*
X213051Y52682D01*
X213010Y52617D01*
X212972Y52550D01*
X212937Y52482D01*
X212906Y52411D01*
X212879Y52340D01*
X212854Y52267D01*
X212834Y52193D01*
X212817Y52118D01*
X212804Y52042D01*
X212795Y51965D01*
X212789Y51889D01*
X212787Y51812D01*
X212786Y51812D02*
X212786Y47113D01*
X215919Y47113D02*
X215919Y53378D01*
X422790Y42315D02*
X422926Y42149D01*
X423058Y41979D01*
X423186Y41806D01*
X423310Y41630D01*
X423429Y41452D01*
X423544Y41270D01*
X423655Y41086D01*
X423761Y40899D01*
X423863Y40709D01*
X423960Y40517D01*
X424053Y40323D01*
X424141Y40127D01*
X424224Y39929D01*
X424302Y39728D01*
X424376Y39526D01*
X424444Y39322D01*
X424508Y39117D01*
X424567Y38910D01*
X424621Y38702D01*
X424669Y38492D01*
X424713Y38282D01*
X424752Y38070D01*
X424785Y37858D01*
X424813Y37645D01*
X424837Y37431D01*
X424855Y37217D01*
X424868Y37002D01*
X424875Y36787D01*
X424878Y36572D01*
X424875Y36357D01*
X424868Y36142D01*
X424855Y35927D01*
X424837Y35713D01*
X424813Y35499D01*
X424785Y35286D01*
X424752Y35074D01*
X424713Y34862D01*
X424669Y34652D01*
X424621Y34442D01*
X424567Y34234D01*
X424508Y34027D01*
X424444Y33822D01*
X424376Y33618D01*
X424302Y33416D01*
X424224Y33215D01*
X424141Y33017D01*
X424053Y32821D01*
X423960Y32627D01*
X423863Y32435D01*
X423761Y32245D01*
X423655Y32058D01*
X423544Y31874D01*
X423429Y31693D01*
X423310Y31514D01*
X423186Y31338D01*
X423058Y31165D01*
X422926Y30995D01*
X422790Y30829D01*
X417089Y31873D02*
X415001Y31873D01*
X417089Y31873D02*
X417178Y31875D01*
X417266Y31881D01*
X417354Y31890D01*
X417442Y31903D01*
X417529Y31920D01*
X417615Y31940D01*
X417700Y31965D01*
X417785Y31992D01*
X417868Y32024D01*
X417949Y32058D01*
X418029Y32097D01*
X418107Y32138D01*
X418184Y32183D01*
X418258Y32231D01*
X418331Y32282D01*
X418401Y32336D01*
X418468Y32394D01*
X418534Y32454D01*
X418596Y32516D01*
X418656Y32582D01*
X418714Y32649D01*
X418768Y32719D01*
X418819Y32792D01*
X418867Y32866D01*
X418912Y32943D01*
X418953Y33021D01*
X418992Y33101D01*
X419026Y33182D01*
X419058Y33265D01*
X419085Y33350D01*
X419110Y33435D01*
X419130Y33521D01*
X419147Y33608D01*
X419160Y33696D01*
X419169Y33784D01*
X419175Y33872D01*
X419177Y33961D01*
X419178Y33961D02*
X419178Y39182D01*
X419177Y39182D02*
X419175Y39271D01*
X419169Y39359D01*
X419160Y39447D01*
X419147Y39535D01*
X419130Y39622D01*
X419110Y39708D01*
X419085Y39793D01*
X419058Y39878D01*
X419026Y39961D01*
X418992Y40042D01*
X418953Y40122D01*
X418912Y40200D01*
X418867Y40277D01*
X418819Y40351D01*
X418768Y40424D01*
X418714Y40494D01*
X418656Y40561D01*
X418596Y40627D01*
X418534Y40689D01*
X418468Y40749D01*
X418401Y40807D01*
X418331Y40861D01*
X418258Y40912D01*
X418184Y40960D01*
X418107Y41005D01*
X418029Y41046D01*
X417949Y41085D01*
X417868Y41119D01*
X417785Y41151D01*
X417700Y41178D01*
X417615Y41203D01*
X417529Y41223D01*
X417442Y41240D01*
X417354Y41253D01*
X417266Y41262D01*
X417178Y41268D01*
X417089Y41270D01*
X417089Y41271D02*
X415001Y41271D01*
X409729Y36572D02*
X409732Y36357D01*
X409739Y36142D01*
X409752Y35927D01*
X409770Y35713D01*
X409794Y35499D01*
X409822Y35286D01*
X409855Y35074D01*
X409894Y34862D01*
X409938Y34652D01*
X409986Y34442D01*
X410040Y34234D01*
X410099Y34027D01*
X410163Y33822D01*
X410231Y33618D01*
X410305Y33416D01*
X410383Y33215D01*
X410466Y33017D01*
X410554Y32821D01*
X410647Y32627D01*
X410744Y32435D01*
X410846Y32245D01*
X410952Y32058D01*
X411063Y31874D01*
X411178Y31693D01*
X411297Y31514D01*
X411421Y31338D01*
X411549Y31165D01*
X411681Y30995D01*
X411817Y30829D01*
X409729Y36572D02*
X409732Y36787D01*
X409739Y37002D01*
X409752Y37217D01*
X409770Y37431D01*
X409794Y37645D01*
X409822Y37858D01*
X409855Y38070D01*
X409894Y38282D01*
X409938Y38492D01*
X409986Y38702D01*
X410040Y38910D01*
X410099Y39117D01*
X410163Y39322D01*
X410231Y39526D01*
X410305Y39728D01*
X410383Y39929D01*
X410466Y40127D01*
X410554Y40323D01*
X410647Y40517D01*
X410744Y40709D01*
X410846Y40899D01*
X410952Y41086D01*
X411063Y41270D01*
X411178Y41452D01*
X411297Y41630D01*
X411421Y41806D01*
X411549Y41979D01*
X411681Y42149D01*
X411817Y42315D01*
X400428Y41271D02*
X400428Y31873D01*
X400428Y41271D02*
X397818Y41271D01*
X397717Y41269D01*
X397616Y41263D01*
X397515Y41253D01*
X397415Y41240D01*
X397315Y41222D01*
X397216Y41201D01*
X397118Y41175D01*
X397021Y41146D01*
X396925Y41114D01*
X396831Y41077D01*
X396738Y41037D01*
X396646Y40993D01*
X396557Y40946D01*
X396469Y40895D01*
X396383Y40841D01*
X396300Y40784D01*
X396218Y40724D01*
X396140Y40660D01*
X396063Y40594D01*
X395990Y40524D01*
X395919Y40452D01*
X395851Y40377D01*
X395786Y40299D01*
X395724Y40219D01*
X395665Y40137D01*
X395609Y40052D01*
X395557Y39966D01*
X395508Y39877D01*
X395462Y39786D01*
X395421Y39694D01*
X395382Y39600D01*
X395348Y39505D01*
X395317Y39409D01*
X395290Y39311D01*
X395266Y39213D01*
X395247Y39113D01*
X395231Y39013D01*
X395219Y38913D01*
X395211Y38812D01*
X395207Y38711D01*
X395207Y38609D01*
X395211Y38508D01*
X395219Y38407D01*
X395231Y38307D01*
X395247Y38207D01*
X395266Y38107D01*
X395290Y38009D01*
X395317Y37911D01*
X395348Y37815D01*
X395382Y37720D01*
X395421Y37626D01*
X395462Y37534D01*
X395508Y37443D01*
X395557Y37355D01*
X395609Y37268D01*
X395665Y37183D01*
X395724Y37101D01*
X395786Y37021D01*
X395851Y36943D01*
X395919Y36868D01*
X395990Y36796D01*
X396063Y36726D01*
X396140Y36660D01*
X396218Y36596D01*
X396300Y36536D01*
X396383Y36479D01*
X396469Y36425D01*
X396557Y36374D01*
X396646Y36327D01*
X396738Y36283D01*
X396831Y36243D01*
X396925Y36206D01*
X397021Y36174D01*
X397118Y36145D01*
X397216Y36119D01*
X397315Y36098D01*
X397415Y36080D01*
X397515Y36067D01*
X397616Y36057D01*
X397717Y36051D01*
X397818Y36049D01*
X397818Y36050D02*
X400428Y36050D01*
X391853Y38138D02*
X391853Y31873D01*
X392114Y40749D02*
X392114Y41271D01*
X391592Y41271D01*
X391592Y40749D01*
X392114Y40749D01*
X380358Y31873D02*
X380269Y31875D01*
X380181Y31881D01*
X380093Y31890D01*
X380005Y31903D01*
X379918Y31920D01*
X379832Y31940D01*
X379747Y31965D01*
X379662Y31992D01*
X379579Y32024D01*
X379498Y32058D01*
X379418Y32097D01*
X379340Y32138D01*
X379263Y32183D01*
X379189Y32231D01*
X379116Y32282D01*
X379046Y32336D01*
X378979Y32394D01*
X378913Y32454D01*
X378851Y32516D01*
X378791Y32582D01*
X378733Y32649D01*
X378679Y32719D01*
X378628Y32792D01*
X378580Y32866D01*
X378535Y32943D01*
X378494Y33021D01*
X378455Y33101D01*
X378421Y33182D01*
X378389Y33265D01*
X378362Y33350D01*
X378337Y33435D01*
X378317Y33521D01*
X378300Y33608D01*
X378287Y33696D01*
X378278Y33784D01*
X378272Y33872D01*
X378270Y33961D01*
X380358Y31873D02*
X380487Y31875D01*
X380616Y31881D01*
X380745Y31890D01*
X380873Y31903D01*
X381001Y31920D01*
X381128Y31941D01*
X381255Y31965D01*
X381381Y31993D01*
X381506Y32025D01*
X381630Y32060D01*
X381753Y32099D01*
X381875Y32142D01*
X381995Y32188D01*
X382114Y32238D01*
X382232Y32291D01*
X382348Y32347D01*
X382462Y32407D01*
X382575Y32470D01*
X382685Y32537D01*
X382794Y32606D01*
X382900Y32679D01*
X383005Y32755D01*
X383107Y32834D01*
X383207Y32916D01*
X383304Y33000D01*
X383399Y33088D01*
X383491Y33178D01*
X383229Y39182D02*
X383227Y39271D01*
X383221Y39359D01*
X383212Y39447D01*
X383199Y39535D01*
X383182Y39622D01*
X383162Y39708D01*
X383137Y39793D01*
X383110Y39878D01*
X383078Y39961D01*
X383044Y40042D01*
X383005Y40122D01*
X382964Y40200D01*
X382919Y40277D01*
X382871Y40351D01*
X382820Y40424D01*
X382766Y40494D01*
X382708Y40561D01*
X382648Y40627D01*
X382586Y40689D01*
X382520Y40749D01*
X382453Y40807D01*
X382383Y40861D01*
X382310Y40912D01*
X382236Y40960D01*
X382159Y41005D01*
X382081Y41046D01*
X382001Y41085D01*
X381920Y41119D01*
X381837Y41151D01*
X381752Y41178D01*
X381667Y41203D01*
X381581Y41223D01*
X381494Y41240D01*
X381406Y41253D01*
X381318Y41262D01*
X381230Y41268D01*
X381141Y41270D01*
X381141Y41271D02*
X381021Y41269D01*
X380901Y41264D01*
X380782Y41254D01*
X380662Y41242D01*
X380543Y41225D01*
X380425Y41205D01*
X380307Y41181D01*
X380191Y41154D01*
X380075Y41123D01*
X379960Y41089D01*
X379846Y41051D01*
X379733Y41009D01*
X379622Y40964D01*
X379512Y40916D01*
X379404Y40865D01*
X379297Y40810D01*
X379192Y40752D01*
X379089Y40690D01*
X378988Y40626D01*
X378888Y40558D01*
X378791Y40488D01*
X382186Y37355D02*
X382264Y37403D01*
X382340Y37455D01*
X382413Y37509D01*
X382484Y37567D01*
X382553Y37628D01*
X382619Y37692D01*
X382682Y37759D01*
X382742Y37828D01*
X382799Y37900D01*
X382853Y37974D01*
X382903Y38051D01*
X382951Y38130D01*
X382994Y38210D01*
X383035Y38293D01*
X383071Y38377D01*
X383104Y38462D01*
X383133Y38549D01*
X383159Y38638D01*
X383181Y38727D01*
X383198Y38817D01*
X383212Y38907D01*
X383222Y38999D01*
X383228Y39090D01*
X383230Y39182D01*
X379314Y35788D02*
X379236Y35740D01*
X379160Y35688D01*
X379087Y35634D01*
X379016Y35576D01*
X378947Y35515D01*
X378881Y35451D01*
X378818Y35384D01*
X378758Y35315D01*
X378701Y35243D01*
X378647Y35169D01*
X378597Y35092D01*
X378549Y35013D01*
X378506Y34933D01*
X378465Y34850D01*
X378429Y34766D01*
X378396Y34681D01*
X378367Y34594D01*
X378341Y34505D01*
X378319Y34416D01*
X378302Y34326D01*
X378288Y34236D01*
X378278Y34144D01*
X378272Y34053D01*
X378270Y33961D01*
X379314Y35789D02*
X382185Y37355D01*
X374434Y38138D02*
X374434Y33439D01*
X374432Y33362D01*
X374426Y33286D01*
X374417Y33209D01*
X374404Y33133D01*
X374387Y33058D01*
X374367Y32984D01*
X374342Y32911D01*
X374315Y32840D01*
X374284Y32769D01*
X374249Y32701D01*
X374211Y32634D01*
X374170Y32569D01*
X374126Y32506D01*
X374079Y32446D01*
X374028Y32387D01*
X373975Y32332D01*
X373920Y32279D01*
X373861Y32228D01*
X373801Y32181D01*
X373738Y32137D01*
X373673Y32096D01*
X373606Y32058D01*
X373538Y32023D01*
X373467Y31992D01*
X373396Y31965D01*
X373323Y31940D01*
X373249Y31920D01*
X373174Y31903D01*
X373098Y31890D01*
X373021Y31881D01*
X372945Y31875D01*
X372868Y31873D01*
X370257Y31873D01*
X370257Y38138D01*
X365854Y38138D02*
X365854Y28740D01*
X365854Y38138D02*
X363244Y38138D01*
X363167Y38136D01*
X363091Y38130D01*
X363014Y38121D01*
X362938Y38108D01*
X362864Y38091D01*
X362789Y38071D01*
X362716Y38046D01*
X362645Y38019D01*
X362574Y37988D01*
X362506Y37953D01*
X362439Y37915D01*
X362374Y37874D01*
X362311Y37830D01*
X362251Y37783D01*
X362192Y37732D01*
X362137Y37679D01*
X362084Y37624D01*
X362033Y37565D01*
X361986Y37505D01*
X361942Y37442D01*
X361901Y37377D01*
X361863Y37310D01*
X361828Y37242D01*
X361797Y37171D01*
X361770Y37100D01*
X361745Y37027D01*
X361725Y36953D01*
X361708Y36878D01*
X361695Y36802D01*
X361686Y36726D01*
X361680Y36649D01*
X361678Y36572D01*
X361677Y36572D02*
X361677Y33439D01*
X361678Y33439D02*
X361680Y33362D01*
X361686Y33286D01*
X361695Y33209D01*
X361708Y33133D01*
X361725Y33058D01*
X361745Y32984D01*
X361770Y32911D01*
X361797Y32840D01*
X361828Y32769D01*
X361863Y32701D01*
X361901Y32634D01*
X361942Y32569D01*
X361986Y32506D01*
X362033Y32446D01*
X362084Y32387D01*
X362137Y32332D01*
X362192Y32279D01*
X362251Y32228D01*
X362311Y32181D01*
X362374Y32137D01*
X362439Y32096D01*
X362506Y32058D01*
X362574Y32023D01*
X362645Y31992D01*
X362716Y31965D01*
X362789Y31940D01*
X362864Y31920D01*
X362939Y31903D01*
X363014Y31890D01*
X363091Y31881D01*
X363167Y31875D01*
X363244Y31873D01*
X365854Y31873D01*
X357625Y28740D02*
X357625Y38138D01*
X355014Y38138D01*
X354937Y38136D01*
X354861Y38130D01*
X354784Y38121D01*
X354708Y38108D01*
X354634Y38091D01*
X354559Y38071D01*
X354486Y38046D01*
X354415Y38019D01*
X354344Y37988D01*
X354276Y37953D01*
X354209Y37915D01*
X354144Y37874D01*
X354081Y37830D01*
X354021Y37783D01*
X353962Y37732D01*
X353907Y37679D01*
X353854Y37624D01*
X353803Y37565D01*
X353756Y37505D01*
X353712Y37442D01*
X353671Y37377D01*
X353633Y37310D01*
X353598Y37242D01*
X353567Y37171D01*
X353540Y37100D01*
X353515Y37027D01*
X353495Y36953D01*
X353478Y36878D01*
X353465Y36802D01*
X353456Y36726D01*
X353450Y36649D01*
X353448Y36572D01*
X353448Y33439D01*
X353450Y33362D01*
X353456Y33286D01*
X353465Y33209D01*
X353478Y33133D01*
X353495Y33058D01*
X353515Y32984D01*
X353540Y32911D01*
X353567Y32840D01*
X353598Y32769D01*
X353633Y32701D01*
X353671Y32634D01*
X353712Y32569D01*
X353756Y32506D01*
X353803Y32446D01*
X353854Y32387D01*
X353907Y32332D01*
X353962Y32279D01*
X354021Y32228D01*
X354081Y32181D01*
X354144Y32137D01*
X354209Y32096D01*
X354276Y32058D01*
X354344Y32023D01*
X354415Y31992D01*
X354486Y31965D01*
X354559Y31940D01*
X354634Y31920D01*
X354709Y31903D01*
X354784Y31890D01*
X354861Y31881D01*
X354937Y31875D01*
X355014Y31873D01*
X357625Y31873D01*
X349620Y33439D02*
X349620Y41271D01*
X349620Y33439D02*
X349618Y33362D01*
X349612Y33286D01*
X349603Y33209D01*
X349590Y33133D01*
X349573Y33058D01*
X349553Y32984D01*
X349528Y32911D01*
X349501Y32840D01*
X349470Y32769D01*
X349435Y32701D01*
X349397Y32634D01*
X349356Y32569D01*
X349312Y32506D01*
X349265Y32446D01*
X349214Y32387D01*
X349161Y32332D01*
X349106Y32279D01*
X349047Y32228D01*
X348987Y32181D01*
X348924Y32137D01*
X348859Y32096D01*
X348792Y32058D01*
X348724Y32023D01*
X348653Y31992D01*
X348582Y31965D01*
X348509Y31940D01*
X348435Y31920D01*
X348360Y31903D01*
X348284Y31890D01*
X348207Y31881D01*
X348131Y31875D01*
X348054Y31873D01*
X345174Y28740D02*
X344129Y28740D01*
X340997Y38138D01*
X345174Y38138D02*
X343085Y31873D01*
X424878Y26031D02*
X424878Y16633D01*
X424878Y22898D02*
X422267Y22898D01*
X422190Y22896D01*
X422114Y22890D01*
X422037Y22881D01*
X421961Y22868D01*
X421887Y22851D01*
X421812Y22831D01*
X421739Y22806D01*
X421668Y22779D01*
X421597Y22748D01*
X421529Y22713D01*
X421462Y22675D01*
X421397Y22634D01*
X421334Y22590D01*
X421274Y22543D01*
X421215Y22492D01*
X421160Y22439D01*
X421107Y22384D01*
X421056Y22325D01*
X421009Y22265D01*
X420965Y22202D01*
X420924Y22137D01*
X420886Y22070D01*
X420851Y22002D01*
X420820Y21931D01*
X420793Y21860D01*
X420768Y21787D01*
X420748Y21713D01*
X420731Y21638D01*
X420718Y21562D01*
X420709Y21486D01*
X420703Y21409D01*
X420701Y21332D01*
X420701Y16633D01*
X417417Y22898D02*
X414284Y22898D01*
X416373Y26031D02*
X416373Y18199D01*
X416371Y18122D01*
X416365Y18046D01*
X416356Y17969D01*
X416343Y17893D01*
X416326Y17818D01*
X416306Y17744D01*
X416281Y17671D01*
X416254Y17600D01*
X416223Y17529D01*
X416188Y17461D01*
X416150Y17394D01*
X416109Y17329D01*
X416065Y17266D01*
X416018Y17206D01*
X415967Y17147D01*
X415914Y17092D01*
X415859Y17039D01*
X415800Y16988D01*
X415740Y16941D01*
X415677Y16897D01*
X415612Y16856D01*
X415545Y16818D01*
X415477Y16783D01*
X415406Y16752D01*
X415335Y16725D01*
X415262Y16700D01*
X415188Y16680D01*
X415113Y16663D01*
X415037Y16650D01*
X414960Y16641D01*
X414884Y16635D01*
X414807Y16633D01*
X414284Y16633D01*
X411626Y22898D02*
X408493Y22898D01*
X410582Y26031D02*
X410582Y18199D01*
X410581Y18199D02*
X410579Y18122D01*
X410573Y18046D01*
X410564Y17969D01*
X410551Y17893D01*
X410534Y17818D01*
X410514Y17744D01*
X410489Y17671D01*
X410462Y17600D01*
X410431Y17529D01*
X410396Y17461D01*
X410358Y17394D01*
X410317Y17329D01*
X410273Y17266D01*
X410226Y17206D01*
X410175Y17147D01*
X410122Y17092D01*
X410067Y17039D01*
X410008Y16988D01*
X409948Y16941D01*
X409885Y16897D01*
X409820Y16856D01*
X409753Y16818D01*
X409685Y16783D01*
X409614Y16752D01*
X409543Y16725D01*
X409470Y16700D01*
X409396Y16680D01*
X409321Y16663D01*
X409245Y16650D01*
X409168Y16641D01*
X409092Y16635D01*
X409015Y16633D01*
X408493Y16633D01*
X404716Y13500D02*
X404716Y22898D01*
X402105Y22898D01*
X402028Y22896D01*
X401952Y22890D01*
X401875Y22881D01*
X401799Y22868D01*
X401725Y22851D01*
X401650Y22831D01*
X401577Y22806D01*
X401506Y22779D01*
X401435Y22748D01*
X401367Y22713D01*
X401300Y22675D01*
X401235Y22634D01*
X401172Y22590D01*
X401112Y22543D01*
X401053Y22492D01*
X400998Y22439D01*
X400945Y22384D01*
X400894Y22325D01*
X400847Y22265D01*
X400803Y22202D01*
X400762Y22137D01*
X400724Y22070D01*
X400689Y22002D01*
X400658Y21931D01*
X400631Y21860D01*
X400606Y21787D01*
X400586Y21713D01*
X400569Y21638D01*
X400556Y21562D01*
X400547Y21486D01*
X400541Y21409D01*
X400539Y21332D01*
X400539Y18199D01*
X400541Y18122D01*
X400547Y18046D01*
X400556Y17969D01*
X400569Y17893D01*
X400586Y17818D01*
X400606Y17744D01*
X400631Y17671D01*
X400658Y17600D01*
X400689Y17529D01*
X400724Y17461D01*
X400762Y17394D01*
X400803Y17329D01*
X400847Y17266D01*
X400894Y17206D01*
X400945Y17147D01*
X400998Y17092D01*
X401053Y17039D01*
X401112Y16988D01*
X401172Y16941D01*
X401235Y16897D01*
X401300Y16856D01*
X401367Y16818D01*
X401435Y16783D01*
X401506Y16752D01*
X401577Y16725D01*
X401650Y16700D01*
X401725Y16680D01*
X401800Y16663D01*
X401875Y16650D01*
X401952Y16641D01*
X402028Y16635D01*
X402105Y16633D01*
X404716Y16633D01*
X396053Y20288D02*
X393443Y19243D01*
X396054Y20288D02*
X396120Y20316D01*
X396185Y20349D01*
X396248Y20384D01*
X396309Y20423D01*
X396368Y20465D01*
X396424Y20510D01*
X396478Y20558D01*
X396529Y20609D01*
X396578Y20662D01*
X396623Y20719D01*
X396666Y20777D01*
X396705Y20837D01*
X396742Y20900D01*
X396774Y20965D01*
X396803Y21031D01*
X396829Y21098D01*
X396851Y21167D01*
X396869Y21237D01*
X396884Y21308D01*
X396895Y21379D01*
X396902Y21451D01*
X396905Y21523D01*
X396904Y21595D01*
X396899Y21668D01*
X396891Y21739D01*
X396879Y21811D01*
X396863Y21881D01*
X396843Y21950D01*
X396819Y22019D01*
X396792Y22086D01*
X396762Y22151D01*
X396728Y22215D01*
X396690Y22277D01*
X396650Y22337D01*
X396606Y22394D01*
X396559Y22449D01*
X396509Y22502D01*
X396457Y22551D01*
X396402Y22598D01*
X396345Y22642D01*
X396285Y22683D01*
X396223Y22720D01*
X396159Y22755D01*
X396094Y22785D01*
X396027Y22813D01*
X395959Y22836D01*
X395889Y22856D01*
X395819Y22872D01*
X395748Y22885D01*
X395676Y22893D01*
X395604Y22898D01*
X395532Y22899D01*
X395531Y22898D02*
X395380Y22894D01*
X395229Y22886D01*
X395078Y22875D01*
X394927Y22859D01*
X394777Y22839D01*
X394627Y22816D01*
X394478Y22789D01*
X394330Y22758D01*
X394182Y22723D01*
X394036Y22685D01*
X393890Y22642D01*
X393746Y22596D01*
X393603Y22547D01*
X393461Y22494D01*
X393321Y22437D01*
X393182Y22376D01*
X393443Y19244D02*
X393377Y19216D01*
X393312Y19183D01*
X393249Y19148D01*
X393188Y19109D01*
X393129Y19067D01*
X393073Y19022D01*
X393019Y18974D01*
X392968Y18923D01*
X392919Y18870D01*
X392874Y18813D01*
X392831Y18755D01*
X392792Y18695D01*
X392755Y18632D01*
X392723Y18567D01*
X392694Y18501D01*
X392668Y18434D01*
X392646Y18365D01*
X392628Y18295D01*
X392613Y18224D01*
X392602Y18153D01*
X392595Y18081D01*
X392592Y18009D01*
X392593Y17937D01*
X392598Y17864D01*
X392606Y17793D01*
X392618Y17721D01*
X392634Y17651D01*
X392654Y17582D01*
X392678Y17513D01*
X392705Y17446D01*
X392735Y17381D01*
X392769Y17317D01*
X392807Y17255D01*
X392847Y17195D01*
X392891Y17138D01*
X392938Y17083D01*
X392988Y17030D01*
X393040Y16981D01*
X393095Y16934D01*
X393152Y16890D01*
X393212Y16849D01*
X393274Y16812D01*
X393338Y16777D01*
X393403Y16747D01*
X393470Y16719D01*
X393538Y16696D01*
X393608Y16676D01*
X393678Y16660D01*
X393749Y16647D01*
X393821Y16639D01*
X393893Y16634D01*
X393965Y16633D01*
X394175Y16638D01*
X394384Y16649D01*
X394593Y16664D01*
X394801Y16684D01*
X395009Y16710D01*
X395216Y16740D01*
X395423Y16775D01*
X395628Y16815D01*
X395833Y16859D01*
X396036Y16909D01*
X396239Y16963D01*
X396440Y17023D01*
X396639Y17086D01*
X396837Y17155D01*
X388913Y17416D02*
X388913Y17938D01*
X388391Y17938D01*
X388391Y17416D01*
X388913Y17416D01*
X388913Y21593D02*
X388913Y22115D01*
X388391Y22115D01*
X388391Y21593D01*
X388913Y21593D01*
X384950Y15589D02*
X380773Y27075D01*
X373458Y27075D02*
X377634Y15589D01*
X369664Y13500D02*
X369664Y22898D01*
X367053Y22898D01*
X366976Y22896D01*
X366900Y22890D01*
X366823Y22881D01*
X366747Y22868D01*
X366673Y22851D01*
X366598Y22831D01*
X366525Y22806D01*
X366454Y22779D01*
X366383Y22748D01*
X366315Y22713D01*
X366248Y22675D01*
X366183Y22634D01*
X366120Y22590D01*
X366060Y22543D01*
X366001Y22492D01*
X365946Y22439D01*
X365893Y22384D01*
X365842Y22325D01*
X365795Y22265D01*
X365751Y22202D01*
X365710Y22137D01*
X365672Y22070D01*
X365637Y22002D01*
X365606Y21931D01*
X365579Y21860D01*
X365554Y21787D01*
X365534Y21713D01*
X365517Y21638D01*
X365504Y21562D01*
X365495Y21486D01*
X365489Y21409D01*
X365487Y21332D01*
X365487Y18199D01*
X365489Y18122D01*
X365495Y18046D01*
X365504Y17969D01*
X365517Y17893D01*
X365534Y17818D01*
X365554Y17744D01*
X365579Y17671D01*
X365606Y17600D01*
X365637Y17529D01*
X365672Y17461D01*
X365710Y17394D01*
X365751Y17329D01*
X365795Y17266D01*
X365842Y17206D01*
X365893Y17147D01*
X365946Y17092D01*
X366001Y17039D01*
X366060Y16988D01*
X366120Y16941D01*
X366183Y16897D01*
X366248Y16856D01*
X366315Y16818D01*
X366383Y16783D01*
X366454Y16752D01*
X366525Y16725D01*
X366598Y16700D01*
X366673Y16680D01*
X366748Y16663D01*
X366823Y16650D01*
X366900Y16641D01*
X366976Y16635D01*
X367053Y16633D01*
X369664Y16633D01*
X361830Y16633D02*
X361830Y22898D01*
X362091Y25509D02*
X362091Y26031D01*
X361569Y26031D01*
X361569Y25509D01*
X362091Y25509D01*
X357344Y20288D02*
X354734Y19243D01*
X357344Y20288D02*
X357410Y20316D01*
X357475Y20349D01*
X357538Y20384D01*
X357599Y20423D01*
X357658Y20465D01*
X357714Y20510D01*
X357768Y20558D01*
X357819Y20609D01*
X357868Y20662D01*
X357913Y20719D01*
X357956Y20777D01*
X357995Y20837D01*
X358032Y20900D01*
X358064Y20965D01*
X358093Y21031D01*
X358119Y21098D01*
X358141Y21167D01*
X358159Y21237D01*
X358174Y21308D01*
X358185Y21379D01*
X358192Y21451D01*
X358195Y21523D01*
X358194Y21595D01*
X358189Y21668D01*
X358181Y21739D01*
X358169Y21811D01*
X358153Y21881D01*
X358133Y21950D01*
X358109Y22019D01*
X358082Y22086D01*
X358052Y22151D01*
X358018Y22215D01*
X357980Y22277D01*
X357940Y22337D01*
X357896Y22394D01*
X357849Y22449D01*
X357799Y22502D01*
X357747Y22551D01*
X357692Y22598D01*
X357635Y22642D01*
X357575Y22683D01*
X357513Y22720D01*
X357449Y22755D01*
X357384Y22785D01*
X357317Y22813D01*
X357249Y22836D01*
X357179Y22856D01*
X357109Y22872D01*
X357038Y22885D01*
X356966Y22893D01*
X356894Y22898D01*
X356822Y22899D01*
X356822Y22898D02*
X356671Y22894D01*
X356520Y22886D01*
X356369Y22875D01*
X356218Y22859D01*
X356068Y22839D01*
X355918Y22816D01*
X355769Y22789D01*
X355621Y22758D01*
X355473Y22723D01*
X355327Y22685D01*
X355181Y22642D01*
X355037Y22596D01*
X354894Y22547D01*
X354752Y22494D01*
X354612Y22437D01*
X354473Y22376D01*
X354733Y19244D02*
X354667Y19216D01*
X354602Y19183D01*
X354539Y19148D01*
X354478Y19109D01*
X354419Y19067D01*
X354363Y19022D01*
X354309Y18974D01*
X354258Y18923D01*
X354209Y18870D01*
X354164Y18813D01*
X354121Y18755D01*
X354082Y18695D01*
X354045Y18632D01*
X354013Y18567D01*
X353984Y18501D01*
X353958Y18434D01*
X353936Y18365D01*
X353918Y18295D01*
X353903Y18224D01*
X353892Y18153D01*
X353885Y18081D01*
X353882Y18009D01*
X353883Y17937D01*
X353888Y17864D01*
X353896Y17793D01*
X353908Y17721D01*
X353924Y17651D01*
X353944Y17582D01*
X353968Y17513D01*
X353995Y17446D01*
X354025Y17381D01*
X354059Y17317D01*
X354097Y17255D01*
X354137Y17195D01*
X354181Y17138D01*
X354228Y17083D01*
X354278Y17030D01*
X354330Y16981D01*
X354385Y16934D01*
X354442Y16890D01*
X354502Y16849D01*
X354564Y16812D01*
X354628Y16777D01*
X354693Y16747D01*
X354760Y16719D01*
X354828Y16696D01*
X354898Y16676D01*
X354968Y16660D01*
X355039Y16647D01*
X355111Y16639D01*
X355183Y16634D01*
X355255Y16633D01*
X355465Y16638D01*
X355674Y16649D01*
X355883Y16664D01*
X356091Y16684D01*
X356299Y16710D01*
X356506Y16740D01*
X356713Y16775D01*
X356918Y16815D01*
X357123Y16859D01*
X357326Y16909D01*
X357529Y16963D01*
X357730Y17023D01*
X357929Y17086D01*
X358127Y17155D01*
X349898Y18199D02*
X349898Y22898D01*
X349897Y18199D02*
X349895Y18122D01*
X349889Y18046D01*
X349880Y17969D01*
X349867Y17893D01*
X349850Y17818D01*
X349830Y17744D01*
X349805Y17671D01*
X349778Y17600D01*
X349747Y17529D01*
X349712Y17461D01*
X349674Y17394D01*
X349633Y17329D01*
X349589Y17266D01*
X349542Y17206D01*
X349491Y17147D01*
X349438Y17092D01*
X349383Y17039D01*
X349324Y16988D01*
X349264Y16941D01*
X349201Y16897D01*
X349136Y16856D01*
X349069Y16818D01*
X349001Y16783D01*
X348930Y16752D01*
X348859Y16725D01*
X348786Y16700D01*
X348712Y16680D01*
X348637Y16663D01*
X348561Y16650D01*
X348484Y16641D01*
X348408Y16635D01*
X348331Y16633D01*
X345721Y16633D01*
X345721Y22898D01*
X341318Y22898D02*
X341318Y13500D01*
X341318Y22898D02*
X338707Y22898D01*
X338630Y22896D01*
X338554Y22890D01*
X338477Y22881D01*
X338401Y22868D01*
X338327Y22851D01*
X338252Y22831D01*
X338179Y22806D01*
X338108Y22779D01*
X338037Y22748D01*
X337969Y22713D01*
X337902Y22675D01*
X337837Y22634D01*
X337774Y22590D01*
X337714Y22543D01*
X337655Y22492D01*
X337600Y22439D01*
X337547Y22384D01*
X337496Y22325D01*
X337449Y22265D01*
X337405Y22202D01*
X337364Y22137D01*
X337326Y22070D01*
X337291Y22002D01*
X337260Y21931D01*
X337233Y21860D01*
X337208Y21787D01*
X337188Y21713D01*
X337171Y21638D01*
X337158Y21562D01*
X337149Y21486D01*
X337143Y21409D01*
X337141Y21332D01*
X337141Y18199D01*
X337143Y18122D01*
X337149Y18046D01*
X337158Y17969D01*
X337171Y17893D01*
X337188Y17818D01*
X337208Y17744D01*
X337233Y17671D01*
X337260Y17600D01*
X337291Y17529D01*
X337326Y17461D01*
X337364Y17394D01*
X337405Y17329D01*
X337449Y17266D01*
X337496Y17206D01*
X337547Y17147D01*
X337600Y17092D01*
X337655Y17039D01*
X337714Y16988D01*
X337774Y16941D01*
X337837Y16897D01*
X337902Y16856D01*
X337969Y16818D01*
X338037Y16783D01*
X338108Y16752D01*
X338179Y16725D01*
X338252Y16700D01*
X338327Y16680D01*
X338402Y16663D01*
X338477Y16650D01*
X338554Y16641D01*
X338630Y16635D01*
X338707Y16633D01*
X341318Y16633D01*
X333088Y13500D02*
X333088Y22898D01*
X330478Y22898D01*
X330401Y22896D01*
X330325Y22890D01*
X330248Y22881D01*
X330172Y22868D01*
X330098Y22851D01*
X330023Y22831D01*
X329950Y22806D01*
X329879Y22779D01*
X329808Y22748D01*
X329740Y22713D01*
X329673Y22675D01*
X329608Y22634D01*
X329545Y22590D01*
X329485Y22543D01*
X329426Y22492D01*
X329371Y22439D01*
X329318Y22384D01*
X329267Y22325D01*
X329220Y22265D01*
X329176Y22202D01*
X329135Y22137D01*
X329097Y22070D01*
X329062Y22002D01*
X329031Y21931D01*
X329004Y21860D01*
X328979Y21787D01*
X328959Y21713D01*
X328942Y21638D01*
X328929Y21562D01*
X328920Y21486D01*
X328914Y21409D01*
X328912Y21332D01*
X328911Y21332D02*
X328911Y18199D01*
X328912Y18199D02*
X328914Y18122D01*
X328920Y18046D01*
X328929Y17969D01*
X328942Y17893D01*
X328959Y17818D01*
X328979Y17744D01*
X329004Y17671D01*
X329031Y17600D01*
X329062Y17529D01*
X329097Y17461D01*
X329135Y17394D01*
X329176Y17329D01*
X329220Y17266D01*
X329267Y17206D01*
X329318Y17147D01*
X329371Y17092D01*
X329426Y17039D01*
X329485Y16988D01*
X329545Y16941D01*
X329608Y16897D01*
X329673Y16856D01*
X329740Y16818D01*
X329808Y16783D01*
X329879Y16752D01*
X329950Y16725D01*
X330023Y16700D01*
X330098Y16680D01*
X330173Y16663D01*
X330248Y16650D01*
X330325Y16641D01*
X330401Y16635D01*
X330478Y16633D01*
X333088Y16633D01*
X325515Y16633D02*
X325515Y17155D01*
X324993Y17155D01*
X324993Y16633D01*
X325515Y16633D01*
X321426Y18199D02*
X321426Y26031D01*
X321426Y18199D02*
X321424Y18122D01*
X321418Y18046D01*
X321409Y17969D01*
X321396Y17893D01*
X321379Y17818D01*
X321359Y17744D01*
X321334Y17671D01*
X321307Y17600D01*
X321276Y17529D01*
X321241Y17461D01*
X321203Y17394D01*
X321162Y17329D01*
X321118Y17266D01*
X321071Y17206D01*
X321020Y17147D01*
X320967Y17092D01*
X320912Y17039D01*
X320853Y16988D01*
X320793Y16941D01*
X320730Y16897D01*
X320665Y16856D01*
X320598Y16818D01*
X320530Y16783D01*
X320459Y16752D01*
X320388Y16725D01*
X320315Y16700D01*
X320241Y16680D01*
X320166Y16663D01*
X320090Y16650D01*
X320013Y16641D01*
X319937Y16635D01*
X319860Y16633D01*
X316980Y13500D02*
X315935Y13500D01*
X312803Y22898D01*
X316980Y22898D02*
X314891Y16633D01*
M02*
