G04 EAGLE Gerber RS-274X export*
G75*
%MOMM*%
%FSLAX34Y34*%
%LPD*%
%INTop silk*%
%IPPOS*%
%AMOC8*
5,1,8,0,0,1.08239X$1,22.5*%
G01*
%ADD10C,0.000000*%
%ADD11C,0.177800*%
%ADD12R,0.084581X0.083819*%
%ADD13R,0.084581X0.167637*%
%ADD14R,0.084581X0.254000*%
%ADD15R,0.084581X0.424181*%
%ADD16R,0.084838X0.254000*%
%ADD17R,0.084838X0.508000*%
%ADD18R,0.084581X0.508000*%
%ADD19R,0.084838X0.083819*%
%ADD20R,0.084838X0.424181*%
%ADD21R,0.084838X0.337819*%
%ADD22R,0.084838X0.167637*%
%ADD23R,0.084581X0.337819*%
%ADD24R,0.084581X0.845819*%
%ADD25R,0.084581X0.678181*%
%ADD26R,0.084581X0.848363*%
%ADD27R,0.084581X0.340363*%
%ADD28R,0.084581X1.099819*%
%ADD29R,0.084581X0.932181*%
%ADD30R,0.084581X0.929638*%
%ADD31R,0.084581X0.421637*%
%ADD32R,0.084838X0.340363*%
%ADD33R,0.084838X0.421637*%
%ADD34R,0.084581X0.594363*%
%ADD35R,0.084838X0.678181*%
%ADD36R,0.084838X0.594363*%
%ADD37R,0.084838X0.929638*%
%ADD38R,0.084838X0.591819*%
%ADD39R,0.084581X1.016000*%
%ADD40R,0.084581X0.762000*%
%ADD41R,0.084838X0.848363*%
%ADD42R,0.084838X0.845819*%
%ADD43R,0.084581X0.170181*%
%ADD44R,0.084838X0.762000*%
%ADD45R,0.084581X0.591819*%
%ADD46R,0.084581X0.086363*%
%ADD47R,0.084838X1.270000*%
%ADD48R,0.084581X1.607819*%
%ADD49R,0.084581X1.778000*%
%ADD50R,0.084838X1.016000*%
%ADD51R,0.084838X1.099819*%
%ADD52R,0.084581X0.675638*%
%ADD53R,0.084581X1.186181*%
%ADD54R,0.084838X1.440181*%
%ADD55R,0.084581X1.694181*%
%ADD56R,0.084581X1.691638*%
%ADD57R,0.084581X1.948181*%
%ADD58R,0.084581X1.864363*%
%ADD59R,0.084581X1.353819*%
%ADD60R,0.084581X1.356363*%
%ADD61R,0.084581X1.524000*%
%ADD62R,0.084581X1.270000*%
%ADD63R,0.084838X2.115819*%
%ADD64R,0.084838X1.607819*%
%ADD65R,0.084838X2.118362*%
%ADD66R,0.084581X3.131819*%
%ADD67R,0.084838X1.948181*%
%ADD68R,0.084838X1.945638*%
%ADD69R,0.084581X1.945638*%
%ADD70R,0.084581X1.183638*%
%ADD71C,0.254000*%
%ADD72C,0.127000*%
%ADD73C,0.101600*%
%ADD74C,0.152400*%


D10*
X33690Y411D02*
X623690Y411D01*
X653690Y30411D02*
X653690Y270363D01*
X623690Y300363D02*
X33690Y300363D01*
X3690Y270363D02*
X3690Y30411D01*
X3699Y29686D01*
X3725Y28962D01*
X3769Y28238D01*
X3830Y27516D01*
X3909Y26795D01*
X4005Y26076D01*
X4118Y25360D01*
X4249Y24647D01*
X4397Y23937D01*
X4562Y23232D01*
X4744Y22530D01*
X4943Y21833D01*
X5158Y21140D01*
X5391Y20454D01*
X5640Y19773D01*
X5905Y19098D01*
X6186Y18430D01*
X6484Y17769D01*
X6797Y17115D01*
X7126Y16469D01*
X7471Y15831D01*
X7831Y15202D01*
X8206Y14582D01*
X8596Y13971D01*
X9000Y13369D01*
X9419Y12777D01*
X9853Y12196D01*
X10300Y11625D01*
X10761Y11066D01*
X11235Y10517D01*
X11722Y9981D01*
X12222Y9456D01*
X12735Y8943D01*
X13260Y8443D01*
X13796Y7956D01*
X14345Y7482D01*
X14904Y7021D01*
X15475Y6574D01*
X16056Y6140D01*
X16648Y5721D01*
X17250Y5317D01*
X17861Y4927D01*
X18481Y4552D01*
X19110Y4192D01*
X19748Y3847D01*
X20394Y3518D01*
X21048Y3205D01*
X21709Y2907D01*
X22377Y2626D01*
X23052Y2361D01*
X23733Y2112D01*
X24419Y1879D01*
X25112Y1664D01*
X25809Y1465D01*
X26511Y1283D01*
X27216Y1118D01*
X27926Y970D01*
X28639Y839D01*
X29355Y726D01*
X30074Y630D01*
X30795Y551D01*
X31517Y490D01*
X32241Y446D01*
X32965Y420D01*
X33690Y411D01*
X623690Y411D02*
X624415Y420D01*
X625139Y446D01*
X625863Y490D01*
X626585Y551D01*
X627306Y630D01*
X628025Y726D01*
X628741Y839D01*
X629454Y970D01*
X630164Y1118D01*
X630869Y1283D01*
X631571Y1465D01*
X632268Y1664D01*
X632961Y1879D01*
X633647Y2112D01*
X634328Y2361D01*
X635003Y2626D01*
X635671Y2907D01*
X636332Y3205D01*
X636986Y3518D01*
X637632Y3847D01*
X638270Y4192D01*
X638899Y4552D01*
X639519Y4927D01*
X640130Y5317D01*
X640732Y5721D01*
X641324Y6140D01*
X641905Y6574D01*
X642476Y7021D01*
X643035Y7482D01*
X643584Y7956D01*
X644120Y8443D01*
X644645Y8943D01*
X645158Y9456D01*
X645658Y9981D01*
X646145Y10517D01*
X646619Y11066D01*
X647080Y11625D01*
X647527Y12196D01*
X647961Y12777D01*
X648380Y13369D01*
X648784Y13971D01*
X649174Y14582D01*
X649549Y15202D01*
X649909Y15831D01*
X650254Y16469D01*
X650583Y17115D01*
X650896Y17769D01*
X651194Y18430D01*
X651475Y19098D01*
X651740Y19773D01*
X651989Y20454D01*
X652222Y21140D01*
X652437Y21833D01*
X652636Y22530D01*
X652818Y23232D01*
X652983Y23937D01*
X653131Y24647D01*
X653262Y25360D01*
X653375Y26076D01*
X653471Y26795D01*
X653550Y27516D01*
X653611Y28238D01*
X653655Y28962D01*
X653681Y29686D01*
X653690Y30411D01*
X653690Y270363D02*
X653681Y271088D01*
X653655Y271812D01*
X653611Y272536D01*
X653550Y273258D01*
X653471Y273979D01*
X653375Y274698D01*
X653262Y275414D01*
X653131Y276127D01*
X652983Y276837D01*
X652818Y277542D01*
X652636Y278244D01*
X652437Y278941D01*
X652222Y279634D01*
X651989Y280320D01*
X651740Y281001D01*
X651475Y281676D01*
X651194Y282344D01*
X650896Y283005D01*
X650583Y283659D01*
X650254Y284305D01*
X649909Y284943D01*
X649549Y285572D01*
X649174Y286192D01*
X648784Y286803D01*
X648380Y287405D01*
X647961Y287997D01*
X647527Y288578D01*
X647080Y289149D01*
X646619Y289708D01*
X646145Y290257D01*
X645658Y290793D01*
X645158Y291318D01*
X644645Y291831D01*
X644120Y292331D01*
X643584Y292818D01*
X643035Y293292D01*
X642476Y293753D01*
X641905Y294200D01*
X641324Y294634D01*
X640732Y295053D01*
X640130Y295457D01*
X639519Y295847D01*
X638899Y296222D01*
X638270Y296582D01*
X637632Y296927D01*
X636986Y297256D01*
X636332Y297569D01*
X635671Y297867D01*
X635003Y298148D01*
X634328Y298413D01*
X633647Y298662D01*
X632961Y298895D01*
X632268Y299110D01*
X631571Y299309D01*
X630869Y299491D01*
X630164Y299656D01*
X629454Y299804D01*
X628741Y299935D01*
X628025Y300048D01*
X627306Y300144D01*
X626585Y300223D01*
X625863Y300284D01*
X625139Y300328D01*
X624415Y300354D01*
X623690Y300363D01*
X33690Y300363D02*
X32965Y300354D01*
X32241Y300328D01*
X31517Y300284D01*
X30795Y300223D01*
X30074Y300144D01*
X29355Y300048D01*
X28639Y299935D01*
X27926Y299804D01*
X27216Y299656D01*
X26511Y299491D01*
X25809Y299309D01*
X25112Y299110D01*
X24419Y298895D01*
X23733Y298662D01*
X23052Y298413D01*
X22377Y298148D01*
X21709Y297867D01*
X21048Y297569D01*
X20394Y297256D01*
X19748Y296927D01*
X19110Y296582D01*
X18481Y296222D01*
X17861Y295847D01*
X17250Y295457D01*
X16648Y295053D01*
X16056Y294634D01*
X15475Y294200D01*
X14904Y293753D01*
X14345Y293292D01*
X13796Y292818D01*
X13260Y292331D01*
X12735Y291831D01*
X12222Y291318D01*
X11722Y290793D01*
X11235Y290257D01*
X10761Y289708D01*
X10300Y289149D01*
X9853Y288578D01*
X9419Y287997D01*
X9000Y287405D01*
X8596Y286803D01*
X8206Y286192D01*
X7831Y285572D01*
X7471Y284943D01*
X7126Y284305D01*
X6797Y283659D01*
X6484Y283005D01*
X6186Y282344D01*
X5905Y281676D01*
X5640Y281001D01*
X5391Y280320D01*
X5158Y279634D01*
X4943Y278941D01*
X4744Y278244D01*
X4562Y277542D01*
X4397Y276837D01*
X4249Y276127D01*
X4118Y275414D01*
X4005Y274698D01*
X3909Y273979D01*
X3830Y273258D01*
X3769Y272536D01*
X3725Y271812D01*
X3699Y271088D01*
X3690Y270363D01*
X24690Y265363D02*
X24694Y265707D01*
X24707Y266050D01*
X24728Y266393D01*
X24757Y266735D01*
X24795Y267077D01*
X24842Y267417D01*
X24896Y267756D01*
X24959Y268094D01*
X25030Y268430D01*
X25110Y268765D01*
X25197Y269097D01*
X25293Y269427D01*
X25397Y269755D01*
X25508Y270079D01*
X25628Y270402D01*
X25756Y270721D01*
X25891Y271036D01*
X26034Y271349D01*
X26185Y271658D01*
X26343Y271963D01*
X26509Y272264D01*
X26682Y272560D01*
X26862Y272853D01*
X27049Y273141D01*
X27244Y273424D01*
X27445Y273703D01*
X27653Y273976D01*
X27868Y274245D01*
X28089Y274507D01*
X28317Y274765D01*
X28551Y275017D01*
X28791Y275262D01*
X29036Y275502D01*
X29288Y275736D01*
X29546Y275964D01*
X29808Y276185D01*
X30077Y276400D01*
X30350Y276608D01*
X30629Y276809D01*
X30912Y277004D01*
X31200Y277191D01*
X31493Y277371D01*
X31789Y277544D01*
X32090Y277710D01*
X32395Y277868D01*
X32704Y278019D01*
X33017Y278162D01*
X33332Y278297D01*
X33651Y278425D01*
X33974Y278545D01*
X34298Y278656D01*
X34626Y278760D01*
X34956Y278856D01*
X35288Y278943D01*
X35623Y279023D01*
X35959Y279094D01*
X36297Y279157D01*
X36636Y279211D01*
X36976Y279258D01*
X37318Y279296D01*
X37660Y279325D01*
X38003Y279346D01*
X38346Y279359D01*
X38690Y279363D01*
X39034Y279359D01*
X39377Y279346D01*
X39720Y279325D01*
X40062Y279296D01*
X40404Y279258D01*
X40744Y279211D01*
X41083Y279157D01*
X41421Y279094D01*
X41757Y279023D01*
X42092Y278943D01*
X42424Y278856D01*
X42754Y278760D01*
X43082Y278656D01*
X43406Y278545D01*
X43729Y278425D01*
X44048Y278297D01*
X44363Y278162D01*
X44676Y278019D01*
X44985Y277868D01*
X45290Y277710D01*
X45591Y277544D01*
X45887Y277371D01*
X46180Y277191D01*
X46468Y277004D01*
X46751Y276809D01*
X47030Y276608D01*
X47303Y276400D01*
X47572Y276185D01*
X47834Y275964D01*
X48092Y275736D01*
X48344Y275502D01*
X48589Y275262D01*
X48829Y275017D01*
X49063Y274765D01*
X49291Y274507D01*
X49512Y274245D01*
X49727Y273976D01*
X49935Y273703D01*
X50136Y273424D01*
X50331Y273141D01*
X50518Y272853D01*
X50698Y272560D01*
X50871Y272264D01*
X51037Y271963D01*
X51195Y271658D01*
X51346Y271349D01*
X51489Y271036D01*
X51624Y270721D01*
X51752Y270402D01*
X51872Y270079D01*
X51983Y269755D01*
X52087Y269427D01*
X52183Y269097D01*
X52270Y268765D01*
X52350Y268430D01*
X52421Y268094D01*
X52484Y267756D01*
X52538Y267417D01*
X52585Y267077D01*
X52623Y266735D01*
X52652Y266393D01*
X52673Y266050D01*
X52686Y265707D01*
X52690Y265363D01*
X52686Y265019D01*
X52673Y264676D01*
X52652Y264333D01*
X52623Y263991D01*
X52585Y263649D01*
X52538Y263309D01*
X52484Y262970D01*
X52421Y262632D01*
X52350Y262296D01*
X52270Y261961D01*
X52183Y261629D01*
X52087Y261299D01*
X51983Y260971D01*
X51872Y260647D01*
X51752Y260324D01*
X51624Y260005D01*
X51489Y259690D01*
X51346Y259377D01*
X51195Y259068D01*
X51037Y258763D01*
X50871Y258462D01*
X50698Y258166D01*
X50518Y257873D01*
X50331Y257585D01*
X50136Y257302D01*
X49935Y257023D01*
X49727Y256750D01*
X49512Y256481D01*
X49291Y256219D01*
X49063Y255961D01*
X48829Y255709D01*
X48589Y255464D01*
X48344Y255224D01*
X48092Y254990D01*
X47834Y254762D01*
X47572Y254541D01*
X47303Y254326D01*
X47030Y254118D01*
X46751Y253917D01*
X46468Y253722D01*
X46180Y253535D01*
X45887Y253355D01*
X45591Y253182D01*
X45290Y253016D01*
X44985Y252858D01*
X44676Y252707D01*
X44363Y252564D01*
X44048Y252429D01*
X43729Y252301D01*
X43406Y252181D01*
X43082Y252070D01*
X42754Y251966D01*
X42424Y251870D01*
X42092Y251783D01*
X41757Y251703D01*
X41421Y251632D01*
X41083Y251569D01*
X40744Y251515D01*
X40404Y251468D01*
X40062Y251430D01*
X39720Y251401D01*
X39377Y251380D01*
X39034Y251367D01*
X38690Y251363D01*
X38346Y251367D01*
X38003Y251380D01*
X37660Y251401D01*
X37318Y251430D01*
X36976Y251468D01*
X36636Y251515D01*
X36297Y251569D01*
X35959Y251632D01*
X35623Y251703D01*
X35288Y251783D01*
X34956Y251870D01*
X34626Y251966D01*
X34298Y252070D01*
X33974Y252181D01*
X33651Y252301D01*
X33332Y252429D01*
X33017Y252564D01*
X32704Y252707D01*
X32395Y252858D01*
X32090Y253016D01*
X31789Y253182D01*
X31493Y253355D01*
X31200Y253535D01*
X30912Y253722D01*
X30629Y253917D01*
X30350Y254118D01*
X30077Y254326D01*
X29808Y254541D01*
X29546Y254762D01*
X29288Y254990D01*
X29036Y255224D01*
X28791Y255464D01*
X28551Y255709D01*
X28317Y255961D01*
X28089Y256219D01*
X27868Y256481D01*
X27653Y256750D01*
X27445Y257023D01*
X27244Y257302D01*
X27049Y257585D01*
X26862Y257873D01*
X26682Y258166D01*
X26509Y258462D01*
X26343Y258763D01*
X26185Y259068D01*
X26034Y259377D01*
X25891Y259690D01*
X25756Y260005D01*
X25628Y260324D01*
X25508Y260647D01*
X25397Y260971D01*
X25293Y261299D01*
X25197Y261629D01*
X25110Y261961D01*
X25030Y262296D01*
X24959Y262632D01*
X24896Y262970D01*
X24842Y263309D01*
X24795Y263649D01*
X24757Y263991D01*
X24728Y264333D01*
X24707Y264676D01*
X24694Y265019D01*
X24690Y265363D01*
X604690Y265363D02*
X604694Y265707D01*
X604707Y266050D01*
X604728Y266393D01*
X604757Y266735D01*
X604795Y267077D01*
X604842Y267417D01*
X604896Y267756D01*
X604959Y268094D01*
X605030Y268430D01*
X605110Y268765D01*
X605197Y269097D01*
X605293Y269427D01*
X605397Y269755D01*
X605508Y270079D01*
X605628Y270402D01*
X605756Y270721D01*
X605891Y271036D01*
X606034Y271349D01*
X606185Y271658D01*
X606343Y271963D01*
X606509Y272264D01*
X606682Y272560D01*
X606862Y272853D01*
X607049Y273141D01*
X607244Y273424D01*
X607445Y273703D01*
X607653Y273976D01*
X607868Y274245D01*
X608089Y274507D01*
X608317Y274765D01*
X608551Y275017D01*
X608791Y275262D01*
X609036Y275502D01*
X609288Y275736D01*
X609546Y275964D01*
X609808Y276185D01*
X610077Y276400D01*
X610350Y276608D01*
X610629Y276809D01*
X610912Y277004D01*
X611200Y277191D01*
X611493Y277371D01*
X611789Y277544D01*
X612090Y277710D01*
X612395Y277868D01*
X612704Y278019D01*
X613017Y278162D01*
X613332Y278297D01*
X613651Y278425D01*
X613974Y278545D01*
X614298Y278656D01*
X614626Y278760D01*
X614956Y278856D01*
X615288Y278943D01*
X615623Y279023D01*
X615959Y279094D01*
X616297Y279157D01*
X616636Y279211D01*
X616976Y279258D01*
X617318Y279296D01*
X617660Y279325D01*
X618003Y279346D01*
X618346Y279359D01*
X618690Y279363D01*
X619034Y279359D01*
X619377Y279346D01*
X619720Y279325D01*
X620062Y279296D01*
X620404Y279258D01*
X620744Y279211D01*
X621083Y279157D01*
X621421Y279094D01*
X621757Y279023D01*
X622092Y278943D01*
X622424Y278856D01*
X622754Y278760D01*
X623082Y278656D01*
X623406Y278545D01*
X623729Y278425D01*
X624048Y278297D01*
X624363Y278162D01*
X624676Y278019D01*
X624985Y277868D01*
X625290Y277710D01*
X625591Y277544D01*
X625887Y277371D01*
X626180Y277191D01*
X626468Y277004D01*
X626751Y276809D01*
X627030Y276608D01*
X627303Y276400D01*
X627572Y276185D01*
X627834Y275964D01*
X628092Y275736D01*
X628344Y275502D01*
X628589Y275262D01*
X628829Y275017D01*
X629063Y274765D01*
X629291Y274507D01*
X629512Y274245D01*
X629727Y273976D01*
X629935Y273703D01*
X630136Y273424D01*
X630331Y273141D01*
X630518Y272853D01*
X630698Y272560D01*
X630871Y272264D01*
X631037Y271963D01*
X631195Y271658D01*
X631346Y271349D01*
X631489Y271036D01*
X631624Y270721D01*
X631752Y270402D01*
X631872Y270079D01*
X631983Y269755D01*
X632087Y269427D01*
X632183Y269097D01*
X632270Y268765D01*
X632350Y268430D01*
X632421Y268094D01*
X632484Y267756D01*
X632538Y267417D01*
X632585Y267077D01*
X632623Y266735D01*
X632652Y266393D01*
X632673Y266050D01*
X632686Y265707D01*
X632690Y265363D01*
X632686Y265019D01*
X632673Y264676D01*
X632652Y264333D01*
X632623Y263991D01*
X632585Y263649D01*
X632538Y263309D01*
X632484Y262970D01*
X632421Y262632D01*
X632350Y262296D01*
X632270Y261961D01*
X632183Y261629D01*
X632087Y261299D01*
X631983Y260971D01*
X631872Y260647D01*
X631752Y260324D01*
X631624Y260005D01*
X631489Y259690D01*
X631346Y259377D01*
X631195Y259068D01*
X631037Y258763D01*
X630871Y258462D01*
X630698Y258166D01*
X630518Y257873D01*
X630331Y257585D01*
X630136Y257302D01*
X629935Y257023D01*
X629727Y256750D01*
X629512Y256481D01*
X629291Y256219D01*
X629063Y255961D01*
X628829Y255709D01*
X628589Y255464D01*
X628344Y255224D01*
X628092Y254990D01*
X627834Y254762D01*
X627572Y254541D01*
X627303Y254326D01*
X627030Y254118D01*
X626751Y253917D01*
X626468Y253722D01*
X626180Y253535D01*
X625887Y253355D01*
X625591Y253182D01*
X625290Y253016D01*
X624985Y252858D01*
X624676Y252707D01*
X624363Y252564D01*
X624048Y252429D01*
X623729Y252301D01*
X623406Y252181D01*
X623082Y252070D01*
X622754Y251966D01*
X622424Y251870D01*
X622092Y251783D01*
X621757Y251703D01*
X621421Y251632D01*
X621083Y251569D01*
X620744Y251515D01*
X620404Y251468D01*
X620062Y251430D01*
X619720Y251401D01*
X619377Y251380D01*
X619034Y251367D01*
X618690Y251363D01*
X618346Y251367D01*
X618003Y251380D01*
X617660Y251401D01*
X617318Y251430D01*
X616976Y251468D01*
X616636Y251515D01*
X616297Y251569D01*
X615959Y251632D01*
X615623Y251703D01*
X615288Y251783D01*
X614956Y251870D01*
X614626Y251966D01*
X614298Y252070D01*
X613974Y252181D01*
X613651Y252301D01*
X613332Y252429D01*
X613017Y252564D01*
X612704Y252707D01*
X612395Y252858D01*
X612090Y253016D01*
X611789Y253182D01*
X611493Y253355D01*
X611200Y253535D01*
X610912Y253722D01*
X610629Y253917D01*
X610350Y254118D01*
X610077Y254326D01*
X609808Y254541D01*
X609546Y254762D01*
X609288Y254990D01*
X609036Y255224D01*
X608791Y255464D01*
X608551Y255709D01*
X608317Y255961D01*
X608089Y256219D01*
X607868Y256481D01*
X607653Y256750D01*
X607445Y257023D01*
X607244Y257302D01*
X607049Y257585D01*
X606862Y257873D01*
X606682Y258166D01*
X606509Y258462D01*
X606343Y258763D01*
X606185Y259068D01*
X606034Y259377D01*
X605891Y259690D01*
X605756Y260005D01*
X605628Y260324D01*
X605508Y260647D01*
X605397Y260971D01*
X605293Y261299D01*
X605197Y261629D01*
X605110Y261961D01*
X605030Y262296D01*
X604959Y262632D01*
X604896Y262970D01*
X604842Y263309D01*
X604795Y263649D01*
X604757Y263991D01*
X604728Y264333D01*
X604707Y264676D01*
X604694Y265019D01*
X604690Y265363D01*
X604690Y35411D02*
X604694Y35755D01*
X604707Y36098D01*
X604728Y36441D01*
X604757Y36783D01*
X604795Y37125D01*
X604842Y37465D01*
X604896Y37804D01*
X604959Y38142D01*
X605030Y38478D01*
X605110Y38813D01*
X605197Y39145D01*
X605293Y39475D01*
X605397Y39803D01*
X605508Y40127D01*
X605628Y40450D01*
X605756Y40769D01*
X605891Y41084D01*
X606034Y41397D01*
X606185Y41706D01*
X606343Y42011D01*
X606509Y42312D01*
X606682Y42608D01*
X606862Y42901D01*
X607049Y43189D01*
X607244Y43472D01*
X607445Y43751D01*
X607653Y44024D01*
X607868Y44293D01*
X608089Y44555D01*
X608317Y44813D01*
X608551Y45065D01*
X608791Y45310D01*
X609036Y45550D01*
X609288Y45784D01*
X609546Y46012D01*
X609808Y46233D01*
X610077Y46448D01*
X610350Y46656D01*
X610629Y46857D01*
X610912Y47052D01*
X611200Y47239D01*
X611493Y47419D01*
X611789Y47592D01*
X612090Y47758D01*
X612395Y47916D01*
X612704Y48067D01*
X613017Y48210D01*
X613332Y48345D01*
X613651Y48473D01*
X613974Y48593D01*
X614298Y48704D01*
X614626Y48808D01*
X614956Y48904D01*
X615288Y48991D01*
X615623Y49071D01*
X615959Y49142D01*
X616297Y49205D01*
X616636Y49259D01*
X616976Y49306D01*
X617318Y49344D01*
X617660Y49373D01*
X618003Y49394D01*
X618346Y49407D01*
X618690Y49411D01*
X619034Y49407D01*
X619377Y49394D01*
X619720Y49373D01*
X620062Y49344D01*
X620404Y49306D01*
X620744Y49259D01*
X621083Y49205D01*
X621421Y49142D01*
X621757Y49071D01*
X622092Y48991D01*
X622424Y48904D01*
X622754Y48808D01*
X623082Y48704D01*
X623406Y48593D01*
X623729Y48473D01*
X624048Y48345D01*
X624363Y48210D01*
X624676Y48067D01*
X624985Y47916D01*
X625290Y47758D01*
X625591Y47592D01*
X625887Y47419D01*
X626180Y47239D01*
X626468Y47052D01*
X626751Y46857D01*
X627030Y46656D01*
X627303Y46448D01*
X627572Y46233D01*
X627834Y46012D01*
X628092Y45784D01*
X628344Y45550D01*
X628589Y45310D01*
X628829Y45065D01*
X629063Y44813D01*
X629291Y44555D01*
X629512Y44293D01*
X629727Y44024D01*
X629935Y43751D01*
X630136Y43472D01*
X630331Y43189D01*
X630518Y42901D01*
X630698Y42608D01*
X630871Y42312D01*
X631037Y42011D01*
X631195Y41706D01*
X631346Y41397D01*
X631489Y41084D01*
X631624Y40769D01*
X631752Y40450D01*
X631872Y40127D01*
X631983Y39803D01*
X632087Y39475D01*
X632183Y39145D01*
X632270Y38813D01*
X632350Y38478D01*
X632421Y38142D01*
X632484Y37804D01*
X632538Y37465D01*
X632585Y37125D01*
X632623Y36783D01*
X632652Y36441D01*
X632673Y36098D01*
X632686Y35755D01*
X632690Y35411D01*
X632686Y35067D01*
X632673Y34724D01*
X632652Y34381D01*
X632623Y34039D01*
X632585Y33697D01*
X632538Y33357D01*
X632484Y33018D01*
X632421Y32680D01*
X632350Y32344D01*
X632270Y32009D01*
X632183Y31677D01*
X632087Y31347D01*
X631983Y31019D01*
X631872Y30695D01*
X631752Y30372D01*
X631624Y30053D01*
X631489Y29738D01*
X631346Y29425D01*
X631195Y29116D01*
X631037Y28811D01*
X630871Y28510D01*
X630698Y28214D01*
X630518Y27921D01*
X630331Y27633D01*
X630136Y27350D01*
X629935Y27071D01*
X629727Y26798D01*
X629512Y26529D01*
X629291Y26267D01*
X629063Y26009D01*
X628829Y25757D01*
X628589Y25512D01*
X628344Y25272D01*
X628092Y25038D01*
X627834Y24810D01*
X627572Y24589D01*
X627303Y24374D01*
X627030Y24166D01*
X626751Y23965D01*
X626468Y23770D01*
X626180Y23583D01*
X625887Y23403D01*
X625591Y23230D01*
X625290Y23064D01*
X624985Y22906D01*
X624676Y22755D01*
X624363Y22612D01*
X624048Y22477D01*
X623729Y22349D01*
X623406Y22229D01*
X623082Y22118D01*
X622754Y22014D01*
X622424Y21918D01*
X622092Y21831D01*
X621757Y21751D01*
X621421Y21680D01*
X621083Y21617D01*
X620744Y21563D01*
X620404Y21516D01*
X620062Y21478D01*
X619720Y21449D01*
X619377Y21428D01*
X619034Y21415D01*
X618690Y21411D01*
X618346Y21415D01*
X618003Y21428D01*
X617660Y21449D01*
X617318Y21478D01*
X616976Y21516D01*
X616636Y21563D01*
X616297Y21617D01*
X615959Y21680D01*
X615623Y21751D01*
X615288Y21831D01*
X614956Y21918D01*
X614626Y22014D01*
X614298Y22118D01*
X613974Y22229D01*
X613651Y22349D01*
X613332Y22477D01*
X613017Y22612D01*
X612704Y22755D01*
X612395Y22906D01*
X612090Y23064D01*
X611789Y23230D01*
X611493Y23403D01*
X611200Y23583D01*
X610912Y23770D01*
X610629Y23965D01*
X610350Y24166D01*
X610077Y24374D01*
X609808Y24589D01*
X609546Y24810D01*
X609288Y25038D01*
X609036Y25272D01*
X608791Y25512D01*
X608551Y25757D01*
X608317Y26009D01*
X608089Y26267D01*
X607868Y26529D01*
X607653Y26798D01*
X607445Y27071D01*
X607244Y27350D01*
X607049Y27633D01*
X606862Y27921D01*
X606682Y28214D01*
X606509Y28510D01*
X606343Y28811D01*
X606185Y29116D01*
X606034Y29425D01*
X605891Y29738D01*
X605756Y30053D01*
X605628Y30372D01*
X605508Y30695D01*
X605397Y31019D01*
X605293Y31347D01*
X605197Y31677D01*
X605110Y32009D01*
X605030Y32344D01*
X604959Y32680D01*
X604896Y33018D01*
X604842Y33357D01*
X604795Y33697D01*
X604757Y34039D01*
X604728Y34381D01*
X604707Y34724D01*
X604694Y35067D01*
X604690Y35411D01*
D11*
X248375Y25889D02*
X248375Y45955D01*
X242801Y45955D02*
X253949Y45955D01*
X260679Y39266D02*
X260679Y25889D01*
X260679Y39266D02*
X267367Y39266D01*
X267367Y37037D01*
X276796Y33692D02*
X281813Y33692D01*
X276796Y33693D02*
X276672Y33691D01*
X276549Y33685D01*
X276425Y33675D01*
X276302Y33662D01*
X276179Y33644D01*
X276058Y33622D01*
X275936Y33597D01*
X275816Y33568D01*
X275697Y33535D01*
X275578Y33498D01*
X275461Y33458D01*
X275346Y33413D01*
X275232Y33366D01*
X275119Y33314D01*
X275008Y33259D01*
X274899Y33201D01*
X274792Y33139D01*
X274686Y33074D01*
X274583Y33005D01*
X274482Y32933D01*
X274384Y32858D01*
X274288Y32780D01*
X274194Y32699D01*
X274103Y32615D01*
X274015Y32528D01*
X273930Y32439D01*
X273847Y32346D01*
X273767Y32251D01*
X273691Y32154D01*
X273618Y32054D01*
X273547Y31952D01*
X273480Y31848D01*
X273417Y31742D01*
X273357Y31634D01*
X273300Y31524D01*
X273247Y31412D01*
X273197Y31299D01*
X273151Y31184D01*
X273109Y31067D01*
X273070Y30950D01*
X273035Y30831D01*
X273004Y30711D01*
X272977Y30590D01*
X272953Y30469D01*
X272934Y30346D01*
X272918Y30223D01*
X272906Y30100D01*
X272898Y29977D01*
X272894Y29853D01*
X272894Y29729D01*
X272898Y29605D01*
X272906Y29482D01*
X272918Y29359D01*
X272934Y29236D01*
X272953Y29113D01*
X272977Y28992D01*
X273004Y28871D01*
X273035Y28751D01*
X273070Y28632D01*
X273109Y28515D01*
X273151Y28398D01*
X273197Y28283D01*
X273247Y28170D01*
X273300Y28058D01*
X273357Y27948D01*
X273417Y27840D01*
X273480Y27734D01*
X273547Y27630D01*
X273618Y27528D01*
X273691Y27428D01*
X273767Y27331D01*
X273847Y27236D01*
X273930Y27143D01*
X274015Y27054D01*
X274103Y26967D01*
X274194Y26883D01*
X274288Y26802D01*
X274384Y26724D01*
X274482Y26649D01*
X274583Y26577D01*
X274686Y26508D01*
X274792Y26443D01*
X274899Y26381D01*
X275008Y26323D01*
X275119Y26268D01*
X275232Y26216D01*
X275346Y26169D01*
X275461Y26124D01*
X275578Y26084D01*
X275697Y26047D01*
X275816Y26014D01*
X275936Y25985D01*
X276058Y25960D01*
X276179Y25938D01*
X276302Y25920D01*
X276425Y25907D01*
X276549Y25897D01*
X276672Y25891D01*
X276796Y25889D01*
X281813Y25889D01*
X281813Y35922D01*
X281812Y35922D02*
X281810Y36036D01*
X281804Y36150D01*
X281794Y36264D01*
X281781Y36377D01*
X281763Y36490D01*
X281742Y36602D01*
X281717Y36714D01*
X281688Y36824D01*
X281655Y36934D01*
X281619Y37042D01*
X281579Y37149D01*
X281535Y37254D01*
X281488Y37358D01*
X281437Y37460D01*
X281383Y37561D01*
X281325Y37659D01*
X281264Y37756D01*
X281200Y37850D01*
X281133Y37943D01*
X281062Y38032D01*
X280988Y38120D01*
X280912Y38204D01*
X280833Y38287D01*
X280750Y38366D01*
X280666Y38442D01*
X280578Y38516D01*
X280489Y38587D01*
X280396Y38654D01*
X280302Y38718D01*
X280205Y38779D01*
X280107Y38837D01*
X280006Y38891D01*
X279904Y38942D01*
X279800Y38989D01*
X279695Y39033D01*
X279588Y39073D01*
X279480Y39109D01*
X279370Y39142D01*
X279260Y39171D01*
X279148Y39196D01*
X279036Y39217D01*
X278923Y39235D01*
X278810Y39248D01*
X278696Y39258D01*
X278582Y39264D01*
X278468Y39266D01*
X274009Y39266D01*
X290764Y42611D02*
X290764Y25889D01*
X290765Y42611D02*
X290767Y42725D01*
X290773Y42839D01*
X290783Y42953D01*
X290796Y43066D01*
X290814Y43179D01*
X290835Y43291D01*
X290860Y43403D01*
X290889Y43513D01*
X290922Y43623D01*
X290958Y43731D01*
X290998Y43838D01*
X291042Y43943D01*
X291089Y44047D01*
X291140Y44149D01*
X291194Y44250D01*
X291252Y44348D01*
X291313Y44445D01*
X291377Y44539D01*
X291444Y44632D01*
X291515Y44721D01*
X291589Y44809D01*
X291665Y44893D01*
X291744Y44976D01*
X291827Y45055D01*
X291911Y45131D01*
X291999Y45205D01*
X292088Y45276D01*
X292181Y45343D01*
X292275Y45407D01*
X292372Y45468D01*
X292470Y45526D01*
X292571Y45580D01*
X292673Y45631D01*
X292777Y45678D01*
X292882Y45722D01*
X292989Y45762D01*
X293097Y45798D01*
X293207Y45831D01*
X293317Y45860D01*
X293429Y45885D01*
X293541Y45906D01*
X293654Y45924D01*
X293767Y45937D01*
X293881Y45947D01*
X293995Y45953D01*
X294109Y45955D01*
X295223Y45955D01*
X295223Y39266D02*
X288535Y39266D01*
X301269Y42611D02*
X301269Y25889D01*
X301270Y42611D02*
X301272Y42725D01*
X301278Y42839D01*
X301288Y42953D01*
X301301Y43066D01*
X301319Y43179D01*
X301340Y43291D01*
X301365Y43403D01*
X301394Y43513D01*
X301427Y43623D01*
X301463Y43731D01*
X301503Y43838D01*
X301547Y43943D01*
X301594Y44047D01*
X301645Y44149D01*
X301699Y44250D01*
X301757Y44348D01*
X301818Y44445D01*
X301882Y44539D01*
X301949Y44632D01*
X302020Y44721D01*
X302094Y44809D01*
X302170Y44893D01*
X302249Y44976D01*
X302332Y45055D01*
X302416Y45131D01*
X302504Y45205D01*
X302593Y45276D01*
X302686Y45343D01*
X302780Y45407D01*
X302877Y45468D01*
X302975Y45526D01*
X303076Y45580D01*
X303178Y45631D01*
X303282Y45678D01*
X303387Y45722D01*
X303494Y45762D01*
X303602Y45798D01*
X303712Y45831D01*
X303822Y45860D01*
X303934Y45885D01*
X304046Y45906D01*
X304159Y45924D01*
X304272Y45937D01*
X304386Y45947D01*
X304500Y45953D01*
X304614Y45955D01*
X305728Y45955D01*
X305728Y39266D02*
X299040Y39266D01*
X310787Y39266D02*
X310787Y25889D01*
X310230Y44840D02*
X310230Y45955D01*
X311345Y45955D01*
X311345Y44840D01*
X310230Y44840D01*
X321430Y25889D02*
X325890Y25889D01*
X321430Y25889D02*
X321316Y25891D01*
X321202Y25897D01*
X321088Y25907D01*
X320975Y25920D01*
X320862Y25938D01*
X320750Y25959D01*
X320638Y25984D01*
X320528Y26013D01*
X320418Y26046D01*
X320310Y26082D01*
X320203Y26122D01*
X320098Y26166D01*
X319994Y26213D01*
X319892Y26264D01*
X319791Y26318D01*
X319693Y26376D01*
X319596Y26437D01*
X319502Y26501D01*
X319409Y26568D01*
X319320Y26639D01*
X319232Y26713D01*
X319148Y26789D01*
X319065Y26868D01*
X318986Y26951D01*
X318910Y27035D01*
X318836Y27123D01*
X318765Y27212D01*
X318698Y27305D01*
X318634Y27399D01*
X318573Y27496D01*
X318515Y27594D01*
X318461Y27695D01*
X318410Y27797D01*
X318363Y27901D01*
X318319Y28006D01*
X318279Y28113D01*
X318243Y28221D01*
X318210Y28331D01*
X318181Y28441D01*
X318156Y28553D01*
X318135Y28665D01*
X318117Y28778D01*
X318104Y28891D01*
X318094Y29005D01*
X318088Y29119D01*
X318086Y29233D01*
X318086Y35922D01*
X318088Y36036D01*
X318094Y36150D01*
X318104Y36264D01*
X318117Y36377D01*
X318135Y36490D01*
X318156Y36602D01*
X318181Y36714D01*
X318210Y36824D01*
X318243Y36934D01*
X318279Y37042D01*
X318319Y37149D01*
X318363Y37254D01*
X318410Y37358D01*
X318461Y37460D01*
X318515Y37561D01*
X318573Y37659D01*
X318634Y37756D01*
X318698Y37850D01*
X318765Y37943D01*
X318836Y38032D01*
X318910Y38120D01*
X318986Y38204D01*
X319065Y38287D01*
X319148Y38366D01*
X319232Y38442D01*
X319320Y38516D01*
X319409Y38587D01*
X319502Y38654D01*
X319596Y38718D01*
X319693Y38779D01*
X319791Y38837D01*
X319892Y38891D01*
X319994Y38942D01*
X320098Y38989D01*
X320203Y39033D01*
X320310Y39073D01*
X320418Y39109D01*
X320528Y39142D01*
X320638Y39171D01*
X320750Y39196D01*
X320862Y39217D01*
X320975Y39235D01*
X321088Y39248D01*
X321202Y39258D01*
X321316Y39264D01*
X321430Y39266D01*
X325890Y39266D01*
X342852Y39266D02*
X342852Y19200D01*
X342852Y39266D02*
X348426Y39266D01*
X348540Y39264D01*
X348654Y39258D01*
X348768Y39248D01*
X348881Y39235D01*
X348994Y39217D01*
X349106Y39196D01*
X349218Y39171D01*
X349328Y39142D01*
X349438Y39109D01*
X349546Y39073D01*
X349653Y39033D01*
X349758Y38989D01*
X349862Y38942D01*
X349964Y38891D01*
X350065Y38837D01*
X350163Y38779D01*
X350260Y38718D01*
X350354Y38654D01*
X350447Y38587D01*
X350536Y38516D01*
X350624Y38442D01*
X350708Y38366D01*
X350791Y38287D01*
X350870Y38204D01*
X350946Y38120D01*
X351020Y38032D01*
X351091Y37943D01*
X351158Y37850D01*
X351222Y37756D01*
X351283Y37660D01*
X351341Y37561D01*
X351395Y37460D01*
X351446Y37358D01*
X351493Y37254D01*
X351537Y37149D01*
X351577Y37042D01*
X351613Y36934D01*
X351646Y36824D01*
X351675Y36714D01*
X351700Y36602D01*
X351721Y36490D01*
X351739Y36377D01*
X351752Y36264D01*
X351762Y36150D01*
X351768Y36036D01*
X351770Y35922D01*
X351770Y29233D01*
X351768Y29119D01*
X351762Y29005D01*
X351752Y28891D01*
X351739Y28778D01*
X351721Y28665D01*
X351700Y28553D01*
X351675Y28441D01*
X351646Y28331D01*
X351613Y28221D01*
X351577Y28113D01*
X351537Y28006D01*
X351493Y27901D01*
X351446Y27797D01*
X351395Y27695D01*
X351341Y27594D01*
X351283Y27496D01*
X351222Y27399D01*
X351158Y27305D01*
X351091Y27212D01*
X351020Y27123D01*
X350946Y27035D01*
X350870Y26951D01*
X350791Y26868D01*
X350708Y26789D01*
X350624Y26713D01*
X350536Y26639D01*
X350447Y26568D01*
X350354Y26501D01*
X350260Y26437D01*
X350163Y26376D01*
X350065Y26318D01*
X349964Y26264D01*
X349862Y26213D01*
X349758Y26166D01*
X349653Y26122D01*
X349546Y26082D01*
X349438Y26046D01*
X349328Y26013D01*
X349218Y25984D01*
X349106Y25959D01*
X348994Y25938D01*
X348881Y25920D01*
X348768Y25907D01*
X348654Y25897D01*
X348540Y25891D01*
X348426Y25889D01*
X342852Y25889D01*
X359593Y25889D02*
X359593Y45955D01*
X359593Y37037D02*
X370740Y37037D01*
X370740Y45955D02*
X370740Y25889D01*
X377634Y25889D02*
X384323Y45955D01*
X391011Y25889D01*
X389339Y30906D02*
X379306Y30906D01*
X401625Y25889D02*
X401625Y45955D01*
X396051Y45955D02*
X407199Y45955D01*
X132683Y207037D02*
X129339Y207037D01*
X132683Y207037D02*
X132683Y195889D01*
X125995Y195889D01*
X125863Y195891D01*
X125731Y195897D01*
X125599Y195907D01*
X125468Y195920D01*
X125337Y195938D01*
X125206Y195959D01*
X125077Y195985D01*
X124948Y196014D01*
X124820Y196047D01*
X124693Y196083D01*
X124567Y196124D01*
X124442Y196168D01*
X124319Y196216D01*
X124197Y196267D01*
X124077Y196322D01*
X123959Y196381D01*
X123842Y196443D01*
X123727Y196509D01*
X123615Y196577D01*
X123504Y196650D01*
X123395Y196725D01*
X123289Y196804D01*
X123185Y196885D01*
X123084Y196970D01*
X122985Y197058D01*
X122889Y197149D01*
X122796Y197242D01*
X122705Y197338D01*
X122617Y197437D01*
X122532Y197538D01*
X122451Y197642D01*
X122372Y197748D01*
X122297Y197857D01*
X122224Y197968D01*
X122156Y198080D01*
X122090Y198195D01*
X122028Y198312D01*
X121969Y198430D01*
X121914Y198550D01*
X121863Y198672D01*
X121815Y198795D01*
X121771Y198920D01*
X121730Y199046D01*
X121694Y199173D01*
X121661Y199301D01*
X121632Y199430D01*
X121606Y199559D01*
X121585Y199690D01*
X121567Y199821D01*
X121554Y199952D01*
X121544Y200084D01*
X121538Y200216D01*
X121536Y200348D01*
X121536Y211496D01*
X121538Y211628D01*
X121544Y211760D01*
X121554Y211892D01*
X121567Y212023D01*
X121585Y212154D01*
X121606Y212285D01*
X121632Y212414D01*
X121661Y212543D01*
X121694Y212671D01*
X121730Y212798D01*
X121771Y212924D01*
X121815Y213049D01*
X121863Y213172D01*
X121914Y213294D01*
X121969Y213414D01*
X122028Y213532D01*
X122090Y213649D01*
X122156Y213764D01*
X122224Y213876D01*
X122297Y213987D01*
X122372Y214095D01*
X122451Y214202D01*
X122532Y214306D01*
X122617Y214407D01*
X122705Y214506D01*
X122796Y214602D01*
X122889Y214695D01*
X122985Y214786D01*
X123084Y214874D01*
X123185Y214959D01*
X123289Y215040D01*
X123395Y215119D01*
X123504Y215194D01*
X123615Y215267D01*
X123727Y215335D01*
X123842Y215401D01*
X123959Y215463D01*
X124077Y215522D01*
X124197Y215577D01*
X124319Y215628D01*
X124442Y215676D01*
X124567Y215720D01*
X124693Y215761D01*
X124820Y215797D01*
X124948Y215830D01*
X125077Y215859D01*
X125206Y215885D01*
X125337Y215906D01*
X125468Y215924D01*
X125599Y215937D01*
X125731Y215947D01*
X125863Y215953D01*
X125995Y215955D01*
X132683Y215955D01*
X141497Y215955D02*
X141497Y195889D01*
X141497Y215955D02*
X147071Y215955D01*
X147219Y215953D01*
X147368Y215947D01*
X147516Y215937D01*
X147663Y215923D01*
X147811Y215906D01*
X147958Y215884D01*
X148104Y215858D01*
X148249Y215829D01*
X148394Y215796D01*
X148538Y215759D01*
X148680Y215718D01*
X148822Y215673D01*
X148962Y215624D01*
X149101Y215572D01*
X149238Y215516D01*
X149374Y215457D01*
X149509Y215394D01*
X149641Y215327D01*
X149772Y215257D01*
X149901Y215183D01*
X150028Y215106D01*
X150152Y215026D01*
X150275Y214942D01*
X150395Y214855D01*
X150513Y214765D01*
X150629Y214672D01*
X150742Y214576D01*
X150852Y214477D01*
X150960Y214375D01*
X151065Y214270D01*
X151167Y214162D01*
X151266Y214052D01*
X151362Y213939D01*
X151455Y213823D01*
X151545Y213705D01*
X151632Y213585D01*
X151716Y213462D01*
X151796Y213338D01*
X151873Y213211D01*
X151947Y213082D01*
X152017Y212951D01*
X152084Y212819D01*
X152147Y212684D01*
X152206Y212548D01*
X152262Y212411D01*
X152314Y212272D01*
X152363Y212132D01*
X152408Y211990D01*
X152449Y211848D01*
X152486Y211704D01*
X152519Y211559D01*
X152548Y211414D01*
X152574Y211268D01*
X152596Y211121D01*
X152613Y210973D01*
X152627Y210826D01*
X152637Y210678D01*
X152643Y210529D01*
X152645Y210381D01*
X152643Y210233D01*
X152637Y210084D01*
X152627Y209936D01*
X152613Y209789D01*
X152596Y209641D01*
X152574Y209494D01*
X152548Y209348D01*
X152519Y209203D01*
X152486Y209058D01*
X152449Y208914D01*
X152408Y208772D01*
X152363Y208630D01*
X152314Y208490D01*
X152262Y208351D01*
X152206Y208214D01*
X152147Y208078D01*
X152084Y207943D01*
X152017Y207811D01*
X151947Y207680D01*
X151873Y207551D01*
X151796Y207424D01*
X151716Y207300D01*
X151632Y207177D01*
X151545Y207057D01*
X151455Y206939D01*
X151362Y206823D01*
X151266Y206710D01*
X151167Y206600D01*
X151065Y206492D01*
X150960Y206387D01*
X150852Y206285D01*
X150742Y206186D01*
X150629Y206090D01*
X150513Y205997D01*
X150395Y205907D01*
X150275Y205820D01*
X150152Y205736D01*
X150028Y205656D01*
X149901Y205579D01*
X149772Y205505D01*
X149641Y205435D01*
X149509Y205368D01*
X149374Y205305D01*
X149238Y205246D01*
X149101Y205190D01*
X148962Y205138D01*
X148822Y205089D01*
X148680Y205044D01*
X148538Y205003D01*
X148394Y204966D01*
X148249Y204933D01*
X148104Y204904D01*
X147958Y204878D01*
X147811Y204856D01*
X147663Y204839D01*
X147516Y204825D01*
X147368Y204815D01*
X147219Y204809D01*
X147071Y204807D01*
X141497Y204807D01*
X161096Y195889D02*
X161096Y215955D01*
X158867Y195889D02*
X163326Y195889D01*
X163326Y215955D02*
X158867Y215955D01*
X170353Y210381D02*
X170353Y201463D01*
X170353Y210381D02*
X170355Y210529D01*
X170361Y210678D01*
X170371Y210826D01*
X170385Y210973D01*
X170402Y211121D01*
X170424Y211268D01*
X170450Y211414D01*
X170479Y211559D01*
X170512Y211704D01*
X170549Y211848D01*
X170590Y211990D01*
X170635Y212132D01*
X170684Y212272D01*
X170736Y212411D01*
X170792Y212548D01*
X170851Y212684D01*
X170914Y212819D01*
X170981Y212951D01*
X171051Y213082D01*
X171125Y213211D01*
X171202Y213338D01*
X171282Y213462D01*
X171366Y213585D01*
X171453Y213705D01*
X171543Y213823D01*
X171636Y213939D01*
X171732Y214052D01*
X171831Y214162D01*
X171933Y214270D01*
X172038Y214375D01*
X172146Y214477D01*
X172256Y214576D01*
X172369Y214672D01*
X172485Y214765D01*
X172603Y214855D01*
X172723Y214942D01*
X172846Y215026D01*
X172970Y215106D01*
X173097Y215183D01*
X173226Y215257D01*
X173357Y215327D01*
X173489Y215394D01*
X173624Y215457D01*
X173760Y215516D01*
X173897Y215572D01*
X174036Y215624D01*
X174176Y215673D01*
X174318Y215718D01*
X174460Y215759D01*
X174604Y215796D01*
X174749Y215829D01*
X174894Y215858D01*
X175040Y215884D01*
X175187Y215906D01*
X175335Y215923D01*
X175482Y215937D01*
X175630Y215947D01*
X175779Y215953D01*
X175927Y215955D01*
X176075Y215953D01*
X176224Y215947D01*
X176372Y215937D01*
X176519Y215923D01*
X176667Y215906D01*
X176814Y215884D01*
X176960Y215858D01*
X177105Y215829D01*
X177250Y215796D01*
X177394Y215759D01*
X177536Y215718D01*
X177678Y215673D01*
X177818Y215624D01*
X177957Y215572D01*
X178094Y215516D01*
X178230Y215457D01*
X178365Y215394D01*
X178497Y215327D01*
X178628Y215257D01*
X178757Y215183D01*
X178884Y215106D01*
X179008Y215026D01*
X179131Y214942D01*
X179251Y214855D01*
X179369Y214765D01*
X179485Y214672D01*
X179598Y214576D01*
X179708Y214477D01*
X179816Y214375D01*
X179921Y214270D01*
X180023Y214162D01*
X180122Y214052D01*
X180218Y213939D01*
X180311Y213823D01*
X180401Y213705D01*
X180488Y213585D01*
X180572Y213462D01*
X180652Y213338D01*
X180729Y213211D01*
X180803Y213082D01*
X180873Y212951D01*
X180940Y212819D01*
X181003Y212684D01*
X181062Y212548D01*
X181118Y212411D01*
X181170Y212272D01*
X181219Y212132D01*
X181264Y211990D01*
X181305Y211848D01*
X181342Y211704D01*
X181375Y211559D01*
X181404Y211414D01*
X181430Y211268D01*
X181452Y211121D01*
X181469Y210973D01*
X181483Y210826D01*
X181493Y210678D01*
X181499Y210529D01*
X181501Y210381D01*
X181501Y201463D01*
X181499Y201315D01*
X181493Y201166D01*
X181483Y201018D01*
X181469Y200871D01*
X181452Y200723D01*
X181430Y200576D01*
X181404Y200430D01*
X181375Y200285D01*
X181342Y200140D01*
X181305Y199996D01*
X181264Y199854D01*
X181219Y199712D01*
X181170Y199572D01*
X181118Y199433D01*
X181062Y199296D01*
X181003Y199160D01*
X180940Y199025D01*
X180873Y198893D01*
X180803Y198762D01*
X180729Y198633D01*
X180652Y198506D01*
X180572Y198382D01*
X180488Y198259D01*
X180401Y198139D01*
X180311Y198021D01*
X180218Y197905D01*
X180122Y197792D01*
X180023Y197682D01*
X179921Y197574D01*
X179816Y197469D01*
X179708Y197367D01*
X179598Y197268D01*
X179485Y197172D01*
X179369Y197079D01*
X179251Y196989D01*
X179131Y196902D01*
X179008Y196818D01*
X178884Y196738D01*
X178757Y196661D01*
X178628Y196587D01*
X178497Y196517D01*
X178365Y196450D01*
X178230Y196387D01*
X178094Y196328D01*
X177957Y196272D01*
X177818Y196220D01*
X177678Y196171D01*
X177536Y196126D01*
X177394Y196085D01*
X177250Y196048D01*
X177105Y196015D01*
X176960Y195986D01*
X176814Y195960D01*
X176667Y195938D01*
X176519Y195921D01*
X176372Y195907D01*
X176224Y195897D01*
X176075Y195891D01*
X175927Y195889D01*
X175779Y195891D01*
X175630Y195897D01*
X175482Y195907D01*
X175335Y195921D01*
X175187Y195938D01*
X175040Y195960D01*
X174894Y195986D01*
X174749Y196015D01*
X174604Y196048D01*
X174460Y196085D01*
X174318Y196126D01*
X174176Y196171D01*
X174036Y196220D01*
X173897Y196272D01*
X173760Y196328D01*
X173624Y196387D01*
X173489Y196450D01*
X173357Y196517D01*
X173226Y196587D01*
X173097Y196661D01*
X172970Y196738D01*
X172846Y196818D01*
X172723Y196902D01*
X172603Y196989D01*
X172485Y197079D01*
X172369Y197172D01*
X172256Y197268D01*
X172146Y197367D01*
X172038Y197469D01*
X171933Y197574D01*
X171831Y197682D01*
X171732Y197792D01*
X171636Y197905D01*
X171543Y198021D01*
X171453Y198139D01*
X171366Y198259D01*
X171282Y198382D01*
X171202Y198506D01*
X171125Y198633D01*
X171051Y198762D01*
X170981Y198893D01*
X170914Y199025D01*
X170851Y199160D01*
X170792Y199296D01*
X170736Y199433D01*
X170684Y199572D01*
X170635Y199712D01*
X170590Y199854D01*
X170549Y199996D01*
X170512Y200140D01*
X170479Y200285D01*
X170450Y200430D01*
X170424Y200576D01*
X170402Y200723D01*
X170385Y200871D01*
X170371Y201018D01*
X170361Y201166D01*
X170355Y201315D01*
X170353Y201463D01*
X204910Y215956D02*
X205051Y215954D01*
X205191Y215948D01*
X205332Y215938D01*
X205472Y215924D01*
X205611Y215907D01*
X205750Y215885D01*
X205889Y215860D01*
X206026Y215830D01*
X206163Y215797D01*
X206299Y215760D01*
X206434Y215719D01*
X206567Y215674D01*
X206699Y215626D01*
X206830Y215574D01*
X206959Y215518D01*
X207087Y215459D01*
X207213Y215396D01*
X207337Y215330D01*
X207459Y215260D01*
X207579Y215187D01*
X207697Y215110D01*
X207813Y215031D01*
X207927Y214948D01*
X208038Y214861D01*
X208147Y214772D01*
X208253Y214680D01*
X208357Y214585D01*
X208458Y214487D01*
X208556Y214386D01*
X208651Y214282D01*
X208743Y214176D01*
X208832Y214067D01*
X208919Y213956D01*
X209002Y213842D01*
X209081Y213726D01*
X209158Y213608D01*
X209231Y213488D01*
X209301Y213366D01*
X209367Y213242D01*
X209430Y213116D01*
X209489Y212988D01*
X209545Y212859D01*
X209597Y212728D01*
X209645Y212596D01*
X209690Y212463D01*
X209731Y212328D01*
X209768Y212192D01*
X209801Y212055D01*
X209831Y211918D01*
X209856Y211779D01*
X209878Y211640D01*
X209895Y211501D01*
X209909Y211361D01*
X209919Y211220D01*
X209925Y211080D01*
X209927Y210939D01*
X204910Y215955D02*
X204751Y215953D01*
X204592Y215947D01*
X204434Y215937D01*
X204275Y215924D01*
X204117Y215906D01*
X203960Y215885D01*
X203803Y215859D01*
X203647Y215830D01*
X203491Y215797D01*
X203337Y215760D01*
X203183Y215719D01*
X203031Y215675D01*
X202879Y215627D01*
X202729Y215575D01*
X202580Y215519D01*
X202433Y215460D01*
X202287Y215397D01*
X202142Y215330D01*
X202000Y215260D01*
X201859Y215187D01*
X201720Y215110D01*
X201583Y215030D01*
X201448Y214946D01*
X201315Y214859D01*
X201184Y214769D01*
X201055Y214675D01*
X200929Y214579D01*
X200805Y214479D01*
X200684Y214376D01*
X200565Y214270D01*
X200449Y214162D01*
X200336Y214050D01*
X200225Y213936D01*
X200118Y213819D01*
X200013Y213700D01*
X199911Y213578D01*
X199812Y213453D01*
X199717Y213327D01*
X199624Y213197D01*
X199535Y213066D01*
X199449Y212932D01*
X199366Y212797D01*
X199287Y212659D01*
X199211Y212519D01*
X199138Y212378D01*
X199069Y212235D01*
X199004Y212090D01*
X198942Y211943D01*
X198884Y211796D01*
X198829Y211646D01*
X198779Y211496D01*
X208254Y207037D02*
X208358Y207139D01*
X208459Y207244D01*
X208557Y207351D01*
X208653Y207461D01*
X208745Y207573D01*
X208834Y207688D01*
X208921Y207805D01*
X209004Y207924D01*
X209083Y208046D01*
X209160Y208170D01*
X209233Y208295D01*
X209302Y208423D01*
X209369Y208552D01*
X209431Y208684D01*
X209490Y208817D01*
X209546Y208951D01*
X209598Y209087D01*
X209646Y209224D01*
X209690Y209363D01*
X209731Y209502D01*
X209768Y209643D01*
X209801Y209785D01*
X209830Y209927D01*
X209855Y210070D01*
X209877Y210214D01*
X209895Y210358D01*
X209908Y210503D01*
X209918Y210648D01*
X209924Y210794D01*
X209926Y210939D01*
X208254Y207037D02*
X198778Y195889D01*
X209926Y195889D01*
X217317Y195889D02*
X222891Y195889D01*
X223039Y195891D01*
X223188Y195897D01*
X223336Y195907D01*
X223483Y195921D01*
X223631Y195938D01*
X223778Y195960D01*
X223924Y195986D01*
X224069Y196015D01*
X224214Y196048D01*
X224358Y196085D01*
X224500Y196126D01*
X224642Y196171D01*
X224782Y196220D01*
X224921Y196272D01*
X225058Y196328D01*
X225194Y196387D01*
X225329Y196450D01*
X225461Y196517D01*
X225592Y196587D01*
X225721Y196661D01*
X225848Y196738D01*
X225972Y196818D01*
X226095Y196902D01*
X226215Y196989D01*
X226333Y197079D01*
X226449Y197172D01*
X226562Y197268D01*
X226672Y197367D01*
X226780Y197469D01*
X226885Y197574D01*
X226987Y197682D01*
X227086Y197792D01*
X227182Y197905D01*
X227275Y198021D01*
X227365Y198139D01*
X227452Y198259D01*
X227536Y198382D01*
X227616Y198506D01*
X227693Y198633D01*
X227767Y198762D01*
X227837Y198893D01*
X227904Y199025D01*
X227967Y199160D01*
X228026Y199296D01*
X228082Y199433D01*
X228134Y199572D01*
X228183Y199712D01*
X228228Y199854D01*
X228269Y199996D01*
X228306Y200140D01*
X228339Y200285D01*
X228368Y200430D01*
X228394Y200576D01*
X228416Y200723D01*
X228433Y200871D01*
X228447Y201018D01*
X228457Y201166D01*
X228463Y201315D01*
X228465Y201463D01*
X228463Y201611D01*
X228457Y201760D01*
X228447Y201908D01*
X228433Y202055D01*
X228416Y202203D01*
X228394Y202350D01*
X228368Y202496D01*
X228339Y202641D01*
X228306Y202786D01*
X228269Y202930D01*
X228228Y203072D01*
X228183Y203214D01*
X228134Y203354D01*
X228082Y203493D01*
X228026Y203630D01*
X227967Y203766D01*
X227904Y203901D01*
X227837Y204033D01*
X227767Y204164D01*
X227693Y204293D01*
X227616Y204420D01*
X227536Y204544D01*
X227452Y204667D01*
X227365Y204787D01*
X227275Y204905D01*
X227182Y205021D01*
X227086Y205134D01*
X226987Y205244D01*
X226885Y205352D01*
X226780Y205457D01*
X226672Y205559D01*
X226562Y205658D01*
X226449Y205754D01*
X226333Y205847D01*
X226215Y205937D01*
X226095Y206024D01*
X225972Y206108D01*
X225848Y206188D01*
X225721Y206265D01*
X225592Y206339D01*
X225461Y206409D01*
X225329Y206476D01*
X225194Y206539D01*
X225058Y206598D01*
X224921Y206654D01*
X224782Y206706D01*
X224642Y206755D01*
X224500Y206800D01*
X224358Y206841D01*
X224214Y206878D01*
X224069Y206911D01*
X223924Y206940D01*
X223778Y206966D01*
X223631Y206988D01*
X223483Y207005D01*
X223336Y207019D01*
X223188Y207029D01*
X223039Y207035D01*
X222891Y207037D01*
X224005Y215955D02*
X217317Y215955D01*
X224005Y215955D02*
X224137Y215953D01*
X224269Y215947D01*
X224401Y215937D01*
X224532Y215924D01*
X224663Y215906D01*
X224794Y215885D01*
X224923Y215859D01*
X225052Y215830D01*
X225180Y215797D01*
X225307Y215761D01*
X225433Y215720D01*
X225558Y215676D01*
X225681Y215628D01*
X225803Y215577D01*
X225923Y215522D01*
X226041Y215463D01*
X226158Y215401D01*
X226273Y215335D01*
X226385Y215267D01*
X226496Y215194D01*
X226605Y215119D01*
X226711Y215040D01*
X226815Y214959D01*
X226916Y214874D01*
X227015Y214786D01*
X227111Y214695D01*
X227204Y214602D01*
X227295Y214506D01*
X227383Y214407D01*
X227468Y214306D01*
X227549Y214202D01*
X227628Y214096D01*
X227703Y213987D01*
X227776Y213876D01*
X227844Y213764D01*
X227910Y213649D01*
X227972Y213532D01*
X228031Y213414D01*
X228086Y213294D01*
X228137Y213172D01*
X228185Y213049D01*
X228229Y212924D01*
X228270Y212798D01*
X228306Y212671D01*
X228339Y212543D01*
X228368Y212414D01*
X228394Y212285D01*
X228415Y212154D01*
X228433Y212023D01*
X228446Y211892D01*
X228456Y211760D01*
X228462Y211628D01*
X228464Y211496D01*
X228462Y211364D01*
X228456Y211232D01*
X228446Y211100D01*
X228433Y210969D01*
X228415Y210838D01*
X228394Y210707D01*
X228368Y210578D01*
X228339Y210449D01*
X228306Y210321D01*
X228270Y210194D01*
X228229Y210068D01*
X228185Y209943D01*
X228137Y209820D01*
X228086Y209698D01*
X228031Y209578D01*
X227972Y209460D01*
X227910Y209343D01*
X227844Y209228D01*
X227776Y209116D01*
X227703Y209005D01*
X227628Y208896D01*
X227549Y208790D01*
X227468Y208686D01*
X227383Y208585D01*
X227295Y208486D01*
X227204Y208390D01*
X227111Y208297D01*
X227015Y208206D01*
X226916Y208118D01*
X226815Y208033D01*
X226711Y207952D01*
X226605Y207873D01*
X226496Y207798D01*
X226385Y207725D01*
X226273Y207657D01*
X226158Y207591D01*
X226041Y207529D01*
X225923Y207470D01*
X225803Y207415D01*
X225681Y207364D01*
X225558Y207316D01*
X225433Y207272D01*
X225307Y207231D01*
X225180Y207195D01*
X225052Y207162D01*
X224923Y207133D01*
X224794Y207107D01*
X224663Y207086D01*
X224532Y207068D01*
X224401Y207055D01*
X224269Y207045D01*
X224137Y207039D01*
X224005Y207037D01*
X219546Y207037D01*
X279339Y207037D02*
X282683Y207037D01*
X282683Y195889D01*
X275995Y195889D01*
X275863Y195891D01*
X275731Y195897D01*
X275599Y195907D01*
X275468Y195920D01*
X275337Y195938D01*
X275206Y195959D01*
X275077Y195985D01*
X274948Y196014D01*
X274820Y196047D01*
X274693Y196083D01*
X274567Y196124D01*
X274442Y196168D01*
X274319Y196216D01*
X274197Y196267D01*
X274077Y196322D01*
X273959Y196381D01*
X273842Y196443D01*
X273727Y196509D01*
X273615Y196577D01*
X273504Y196650D01*
X273395Y196725D01*
X273289Y196804D01*
X273185Y196885D01*
X273084Y196970D01*
X272985Y197058D01*
X272889Y197149D01*
X272796Y197242D01*
X272705Y197338D01*
X272617Y197437D01*
X272532Y197538D01*
X272451Y197642D01*
X272372Y197748D01*
X272297Y197857D01*
X272224Y197968D01*
X272156Y198080D01*
X272090Y198195D01*
X272028Y198312D01*
X271969Y198430D01*
X271914Y198550D01*
X271863Y198672D01*
X271815Y198795D01*
X271771Y198920D01*
X271730Y199046D01*
X271694Y199173D01*
X271661Y199301D01*
X271632Y199430D01*
X271606Y199559D01*
X271585Y199690D01*
X271567Y199821D01*
X271554Y199952D01*
X271544Y200084D01*
X271538Y200216D01*
X271536Y200348D01*
X271536Y211496D01*
X271538Y211628D01*
X271544Y211760D01*
X271554Y211892D01*
X271567Y212023D01*
X271585Y212154D01*
X271606Y212285D01*
X271632Y212414D01*
X271661Y212543D01*
X271694Y212671D01*
X271730Y212798D01*
X271771Y212924D01*
X271815Y213049D01*
X271863Y213172D01*
X271914Y213294D01*
X271969Y213414D01*
X272028Y213532D01*
X272090Y213649D01*
X272156Y213764D01*
X272224Y213876D01*
X272297Y213987D01*
X272372Y214095D01*
X272451Y214202D01*
X272532Y214306D01*
X272617Y214407D01*
X272705Y214506D01*
X272796Y214602D01*
X272889Y214695D01*
X272985Y214786D01*
X273084Y214874D01*
X273185Y214959D01*
X273289Y215040D01*
X273395Y215119D01*
X273504Y215194D01*
X273615Y215267D01*
X273727Y215335D01*
X273842Y215401D01*
X273959Y215463D01*
X274077Y215522D01*
X274197Y215577D01*
X274319Y215628D01*
X274442Y215676D01*
X274567Y215720D01*
X274693Y215761D01*
X274820Y215797D01*
X274948Y215830D01*
X275077Y215859D01*
X275206Y215885D01*
X275337Y215906D01*
X275468Y215924D01*
X275599Y215937D01*
X275731Y215947D01*
X275863Y215953D01*
X275995Y215955D01*
X282683Y215955D01*
X291497Y215955D02*
X291497Y195889D01*
X291497Y215955D02*
X297071Y215955D01*
X297219Y215953D01*
X297368Y215947D01*
X297516Y215937D01*
X297663Y215923D01*
X297811Y215906D01*
X297958Y215884D01*
X298104Y215858D01*
X298249Y215829D01*
X298394Y215796D01*
X298538Y215759D01*
X298680Y215718D01*
X298822Y215673D01*
X298962Y215624D01*
X299101Y215572D01*
X299238Y215516D01*
X299374Y215457D01*
X299509Y215394D01*
X299641Y215327D01*
X299772Y215257D01*
X299901Y215183D01*
X300028Y215106D01*
X300152Y215026D01*
X300275Y214942D01*
X300395Y214855D01*
X300513Y214765D01*
X300629Y214672D01*
X300742Y214576D01*
X300852Y214477D01*
X300960Y214375D01*
X301065Y214270D01*
X301167Y214162D01*
X301266Y214052D01*
X301362Y213939D01*
X301455Y213823D01*
X301545Y213705D01*
X301632Y213585D01*
X301716Y213462D01*
X301796Y213338D01*
X301873Y213211D01*
X301947Y213082D01*
X302017Y212951D01*
X302084Y212819D01*
X302147Y212684D01*
X302206Y212548D01*
X302262Y212411D01*
X302314Y212272D01*
X302363Y212132D01*
X302408Y211990D01*
X302449Y211848D01*
X302486Y211704D01*
X302519Y211559D01*
X302548Y211414D01*
X302574Y211268D01*
X302596Y211121D01*
X302613Y210973D01*
X302627Y210826D01*
X302637Y210678D01*
X302643Y210529D01*
X302645Y210381D01*
X302643Y210233D01*
X302637Y210084D01*
X302627Y209936D01*
X302613Y209789D01*
X302596Y209641D01*
X302574Y209494D01*
X302548Y209348D01*
X302519Y209203D01*
X302486Y209058D01*
X302449Y208914D01*
X302408Y208772D01*
X302363Y208630D01*
X302314Y208490D01*
X302262Y208351D01*
X302206Y208214D01*
X302147Y208078D01*
X302084Y207943D01*
X302017Y207811D01*
X301947Y207680D01*
X301873Y207551D01*
X301796Y207424D01*
X301716Y207300D01*
X301632Y207177D01*
X301545Y207057D01*
X301455Y206939D01*
X301362Y206823D01*
X301266Y206710D01*
X301167Y206600D01*
X301065Y206492D01*
X300960Y206387D01*
X300852Y206285D01*
X300742Y206186D01*
X300629Y206090D01*
X300513Y205997D01*
X300395Y205907D01*
X300275Y205820D01*
X300152Y205736D01*
X300028Y205656D01*
X299901Y205579D01*
X299772Y205505D01*
X299641Y205435D01*
X299509Y205368D01*
X299374Y205305D01*
X299238Y205246D01*
X299101Y205190D01*
X298962Y205138D01*
X298822Y205089D01*
X298680Y205044D01*
X298538Y205003D01*
X298394Y204966D01*
X298249Y204933D01*
X298104Y204904D01*
X297958Y204878D01*
X297811Y204856D01*
X297663Y204839D01*
X297516Y204825D01*
X297368Y204815D01*
X297219Y204809D01*
X297071Y204807D01*
X291497Y204807D01*
X311096Y195889D02*
X311096Y215955D01*
X308867Y195889D02*
X313326Y195889D01*
X313326Y215955D02*
X308867Y215955D01*
X320353Y210381D02*
X320353Y201463D01*
X320353Y210381D02*
X320355Y210529D01*
X320361Y210678D01*
X320371Y210826D01*
X320385Y210973D01*
X320402Y211121D01*
X320424Y211268D01*
X320450Y211414D01*
X320479Y211559D01*
X320512Y211704D01*
X320549Y211848D01*
X320590Y211990D01*
X320635Y212132D01*
X320684Y212272D01*
X320736Y212411D01*
X320792Y212548D01*
X320851Y212684D01*
X320914Y212819D01*
X320981Y212951D01*
X321051Y213082D01*
X321125Y213211D01*
X321202Y213338D01*
X321282Y213462D01*
X321366Y213585D01*
X321453Y213705D01*
X321543Y213823D01*
X321636Y213939D01*
X321732Y214052D01*
X321831Y214162D01*
X321933Y214270D01*
X322038Y214375D01*
X322146Y214477D01*
X322256Y214576D01*
X322369Y214672D01*
X322485Y214765D01*
X322603Y214855D01*
X322723Y214942D01*
X322846Y215026D01*
X322970Y215106D01*
X323097Y215183D01*
X323226Y215257D01*
X323357Y215327D01*
X323489Y215394D01*
X323624Y215457D01*
X323760Y215516D01*
X323897Y215572D01*
X324036Y215624D01*
X324176Y215673D01*
X324318Y215718D01*
X324460Y215759D01*
X324604Y215796D01*
X324749Y215829D01*
X324894Y215858D01*
X325040Y215884D01*
X325187Y215906D01*
X325335Y215923D01*
X325482Y215937D01*
X325630Y215947D01*
X325779Y215953D01*
X325927Y215955D01*
X326075Y215953D01*
X326224Y215947D01*
X326372Y215937D01*
X326519Y215923D01*
X326667Y215906D01*
X326814Y215884D01*
X326960Y215858D01*
X327105Y215829D01*
X327250Y215796D01*
X327394Y215759D01*
X327536Y215718D01*
X327678Y215673D01*
X327818Y215624D01*
X327957Y215572D01*
X328094Y215516D01*
X328230Y215457D01*
X328365Y215394D01*
X328497Y215327D01*
X328628Y215257D01*
X328757Y215183D01*
X328884Y215106D01*
X329008Y215026D01*
X329131Y214942D01*
X329251Y214855D01*
X329369Y214765D01*
X329485Y214672D01*
X329598Y214576D01*
X329708Y214477D01*
X329816Y214375D01*
X329921Y214270D01*
X330023Y214162D01*
X330122Y214052D01*
X330218Y213939D01*
X330311Y213823D01*
X330401Y213705D01*
X330488Y213585D01*
X330572Y213462D01*
X330652Y213338D01*
X330729Y213211D01*
X330803Y213082D01*
X330873Y212951D01*
X330940Y212819D01*
X331003Y212684D01*
X331062Y212548D01*
X331118Y212411D01*
X331170Y212272D01*
X331219Y212132D01*
X331264Y211990D01*
X331305Y211848D01*
X331342Y211704D01*
X331375Y211559D01*
X331404Y211414D01*
X331430Y211268D01*
X331452Y211121D01*
X331469Y210973D01*
X331483Y210826D01*
X331493Y210678D01*
X331499Y210529D01*
X331501Y210381D01*
X331501Y201463D01*
X331499Y201315D01*
X331493Y201166D01*
X331483Y201018D01*
X331469Y200871D01*
X331452Y200723D01*
X331430Y200576D01*
X331404Y200430D01*
X331375Y200285D01*
X331342Y200140D01*
X331305Y199996D01*
X331264Y199854D01*
X331219Y199712D01*
X331170Y199572D01*
X331118Y199433D01*
X331062Y199296D01*
X331003Y199160D01*
X330940Y199025D01*
X330873Y198893D01*
X330803Y198762D01*
X330729Y198633D01*
X330652Y198506D01*
X330572Y198382D01*
X330488Y198259D01*
X330401Y198139D01*
X330311Y198021D01*
X330218Y197905D01*
X330122Y197792D01*
X330023Y197682D01*
X329921Y197574D01*
X329816Y197469D01*
X329708Y197367D01*
X329598Y197268D01*
X329485Y197172D01*
X329369Y197079D01*
X329251Y196989D01*
X329131Y196902D01*
X329008Y196818D01*
X328884Y196738D01*
X328757Y196661D01*
X328628Y196587D01*
X328497Y196517D01*
X328365Y196450D01*
X328230Y196387D01*
X328094Y196328D01*
X327957Y196272D01*
X327818Y196220D01*
X327678Y196171D01*
X327536Y196126D01*
X327394Y196085D01*
X327250Y196048D01*
X327105Y196015D01*
X326960Y195986D01*
X326814Y195960D01*
X326667Y195938D01*
X326519Y195921D01*
X326372Y195907D01*
X326224Y195897D01*
X326075Y195891D01*
X325927Y195889D01*
X325779Y195891D01*
X325630Y195897D01*
X325482Y195907D01*
X325335Y195921D01*
X325187Y195938D01*
X325040Y195960D01*
X324894Y195986D01*
X324749Y196015D01*
X324604Y196048D01*
X324460Y196085D01*
X324318Y196126D01*
X324176Y196171D01*
X324036Y196220D01*
X323897Y196272D01*
X323760Y196328D01*
X323624Y196387D01*
X323489Y196450D01*
X323357Y196517D01*
X323226Y196587D01*
X323097Y196661D01*
X322970Y196738D01*
X322846Y196818D01*
X322723Y196902D01*
X322603Y196989D01*
X322485Y197079D01*
X322369Y197172D01*
X322256Y197268D01*
X322146Y197367D01*
X322038Y197469D01*
X321933Y197574D01*
X321831Y197682D01*
X321732Y197792D01*
X321636Y197905D01*
X321543Y198021D01*
X321453Y198139D01*
X321366Y198259D01*
X321282Y198382D01*
X321202Y198506D01*
X321125Y198633D01*
X321051Y198762D01*
X320981Y198893D01*
X320914Y199025D01*
X320851Y199160D01*
X320792Y199296D01*
X320736Y199433D01*
X320684Y199572D01*
X320635Y199712D01*
X320590Y199854D01*
X320549Y199996D01*
X320512Y200140D01*
X320479Y200285D01*
X320450Y200430D01*
X320424Y200576D01*
X320402Y200723D01*
X320385Y200871D01*
X320371Y201018D01*
X320361Y201166D01*
X320355Y201315D01*
X320353Y201463D01*
X354910Y215956D02*
X355051Y215954D01*
X355191Y215948D01*
X355332Y215938D01*
X355472Y215924D01*
X355611Y215907D01*
X355750Y215885D01*
X355889Y215860D01*
X356026Y215830D01*
X356163Y215797D01*
X356299Y215760D01*
X356434Y215719D01*
X356567Y215674D01*
X356699Y215626D01*
X356830Y215574D01*
X356959Y215518D01*
X357087Y215459D01*
X357213Y215396D01*
X357337Y215330D01*
X357459Y215260D01*
X357579Y215187D01*
X357697Y215110D01*
X357813Y215031D01*
X357927Y214948D01*
X358038Y214861D01*
X358147Y214772D01*
X358253Y214680D01*
X358357Y214585D01*
X358458Y214487D01*
X358556Y214386D01*
X358651Y214282D01*
X358743Y214176D01*
X358832Y214067D01*
X358919Y213956D01*
X359002Y213842D01*
X359081Y213726D01*
X359158Y213608D01*
X359231Y213488D01*
X359301Y213366D01*
X359367Y213242D01*
X359430Y213116D01*
X359489Y212988D01*
X359545Y212859D01*
X359597Y212728D01*
X359645Y212596D01*
X359690Y212463D01*
X359731Y212328D01*
X359768Y212192D01*
X359801Y212055D01*
X359831Y211918D01*
X359856Y211779D01*
X359878Y211640D01*
X359895Y211501D01*
X359909Y211361D01*
X359919Y211220D01*
X359925Y211080D01*
X359927Y210939D01*
X354910Y215955D02*
X354751Y215953D01*
X354592Y215947D01*
X354434Y215937D01*
X354275Y215924D01*
X354117Y215906D01*
X353960Y215885D01*
X353803Y215859D01*
X353647Y215830D01*
X353491Y215797D01*
X353337Y215760D01*
X353183Y215719D01*
X353031Y215675D01*
X352879Y215627D01*
X352729Y215575D01*
X352580Y215519D01*
X352433Y215460D01*
X352287Y215397D01*
X352142Y215330D01*
X352000Y215260D01*
X351859Y215187D01*
X351720Y215110D01*
X351583Y215030D01*
X351448Y214946D01*
X351315Y214859D01*
X351184Y214769D01*
X351055Y214675D01*
X350929Y214579D01*
X350805Y214479D01*
X350684Y214376D01*
X350565Y214270D01*
X350449Y214162D01*
X350336Y214050D01*
X350225Y213936D01*
X350118Y213819D01*
X350013Y213700D01*
X349911Y213578D01*
X349812Y213453D01*
X349717Y213327D01*
X349624Y213197D01*
X349535Y213066D01*
X349449Y212932D01*
X349366Y212797D01*
X349287Y212659D01*
X349211Y212519D01*
X349138Y212378D01*
X349069Y212235D01*
X349004Y212090D01*
X348942Y211943D01*
X348884Y211796D01*
X348829Y211646D01*
X348779Y211496D01*
X358254Y207037D02*
X358358Y207139D01*
X358459Y207244D01*
X358557Y207351D01*
X358653Y207461D01*
X358745Y207573D01*
X358834Y207688D01*
X358921Y207805D01*
X359004Y207924D01*
X359083Y208046D01*
X359160Y208170D01*
X359233Y208295D01*
X359302Y208423D01*
X359369Y208552D01*
X359431Y208684D01*
X359490Y208817D01*
X359546Y208951D01*
X359598Y209087D01*
X359646Y209224D01*
X359690Y209363D01*
X359731Y209502D01*
X359768Y209643D01*
X359801Y209785D01*
X359830Y209927D01*
X359855Y210070D01*
X359877Y210214D01*
X359895Y210358D01*
X359908Y210503D01*
X359918Y210648D01*
X359924Y210794D01*
X359926Y210939D01*
X358254Y207037D02*
X348778Y195889D01*
X359926Y195889D01*
X367317Y200348D02*
X371776Y215955D01*
X367317Y200348D02*
X378465Y200348D01*
X375120Y204807D02*
X375120Y195889D01*
X429339Y207037D02*
X432683Y207037D01*
X432683Y195889D01*
X425995Y195889D01*
X425863Y195891D01*
X425731Y195897D01*
X425599Y195907D01*
X425468Y195920D01*
X425337Y195938D01*
X425206Y195959D01*
X425077Y195985D01*
X424948Y196014D01*
X424820Y196047D01*
X424693Y196083D01*
X424567Y196124D01*
X424442Y196168D01*
X424319Y196216D01*
X424197Y196267D01*
X424077Y196322D01*
X423959Y196381D01*
X423842Y196443D01*
X423727Y196509D01*
X423615Y196577D01*
X423504Y196650D01*
X423395Y196725D01*
X423289Y196804D01*
X423185Y196885D01*
X423084Y196970D01*
X422985Y197058D01*
X422889Y197149D01*
X422796Y197242D01*
X422705Y197338D01*
X422617Y197437D01*
X422532Y197538D01*
X422451Y197642D01*
X422372Y197748D01*
X422297Y197857D01*
X422224Y197968D01*
X422156Y198080D01*
X422090Y198195D01*
X422028Y198312D01*
X421969Y198430D01*
X421914Y198550D01*
X421863Y198672D01*
X421815Y198795D01*
X421771Y198920D01*
X421730Y199046D01*
X421694Y199173D01*
X421661Y199301D01*
X421632Y199430D01*
X421606Y199559D01*
X421585Y199690D01*
X421567Y199821D01*
X421554Y199952D01*
X421544Y200084D01*
X421538Y200216D01*
X421536Y200348D01*
X421536Y211496D01*
X421538Y211628D01*
X421544Y211760D01*
X421554Y211892D01*
X421567Y212023D01*
X421585Y212154D01*
X421606Y212285D01*
X421632Y212414D01*
X421661Y212543D01*
X421694Y212671D01*
X421730Y212798D01*
X421771Y212924D01*
X421815Y213049D01*
X421863Y213172D01*
X421914Y213294D01*
X421969Y213414D01*
X422028Y213532D01*
X422090Y213649D01*
X422156Y213764D01*
X422224Y213876D01*
X422297Y213987D01*
X422372Y214095D01*
X422451Y214202D01*
X422532Y214306D01*
X422617Y214407D01*
X422705Y214506D01*
X422796Y214602D01*
X422889Y214695D01*
X422985Y214786D01*
X423084Y214874D01*
X423185Y214959D01*
X423289Y215040D01*
X423395Y215119D01*
X423504Y215194D01*
X423615Y215267D01*
X423727Y215335D01*
X423842Y215401D01*
X423959Y215463D01*
X424077Y215522D01*
X424197Y215577D01*
X424319Y215628D01*
X424442Y215676D01*
X424567Y215720D01*
X424693Y215761D01*
X424820Y215797D01*
X424948Y215830D01*
X425077Y215859D01*
X425206Y215885D01*
X425337Y215906D01*
X425468Y215924D01*
X425599Y215937D01*
X425731Y215947D01*
X425863Y215953D01*
X425995Y215955D01*
X432683Y215955D01*
X441497Y215955D02*
X441497Y195889D01*
X441497Y215955D02*
X447071Y215955D01*
X447219Y215953D01*
X447368Y215947D01*
X447516Y215937D01*
X447663Y215923D01*
X447811Y215906D01*
X447958Y215884D01*
X448104Y215858D01*
X448249Y215829D01*
X448394Y215796D01*
X448538Y215759D01*
X448680Y215718D01*
X448822Y215673D01*
X448962Y215624D01*
X449101Y215572D01*
X449238Y215516D01*
X449374Y215457D01*
X449509Y215394D01*
X449641Y215327D01*
X449772Y215257D01*
X449901Y215183D01*
X450028Y215106D01*
X450152Y215026D01*
X450275Y214942D01*
X450395Y214855D01*
X450513Y214765D01*
X450629Y214672D01*
X450742Y214576D01*
X450852Y214477D01*
X450960Y214375D01*
X451065Y214270D01*
X451167Y214162D01*
X451266Y214052D01*
X451362Y213939D01*
X451455Y213823D01*
X451545Y213705D01*
X451632Y213585D01*
X451716Y213462D01*
X451796Y213338D01*
X451873Y213211D01*
X451947Y213082D01*
X452017Y212951D01*
X452084Y212819D01*
X452147Y212684D01*
X452206Y212548D01*
X452262Y212411D01*
X452314Y212272D01*
X452363Y212132D01*
X452408Y211990D01*
X452449Y211848D01*
X452486Y211704D01*
X452519Y211559D01*
X452548Y211414D01*
X452574Y211268D01*
X452596Y211121D01*
X452613Y210973D01*
X452627Y210826D01*
X452637Y210678D01*
X452643Y210529D01*
X452645Y210381D01*
X452643Y210233D01*
X452637Y210084D01*
X452627Y209936D01*
X452613Y209789D01*
X452596Y209641D01*
X452574Y209494D01*
X452548Y209348D01*
X452519Y209203D01*
X452486Y209058D01*
X452449Y208914D01*
X452408Y208772D01*
X452363Y208630D01*
X452314Y208490D01*
X452262Y208351D01*
X452206Y208214D01*
X452147Y208078D01*
X452084Y207943D01*
X452017Y207811D01*
X451947Y207680D01*
X451873Y207551D01*
X451796Y207424D01*
X451716Y207300D01*
X451632Y207177D01*
X451545Y207057D01*
X451455Y206939D01*
X451362Y206823D01*
X451266Y206710D01*
X451167Y206600D01*
X451065Y206492D01*
X450960Y206387D01*
X450852Y206285D01*
X450742Y206186D01*
X450629Y206090D01*
X450513Y205997D01*
X450395Y205907D01*
X450275Y205820D01*
X450152Y205736D01*
X450028Y205656D01*
X449901Y205579D01*
X449772Y205505D01*
X449641Y205435D01*
X449509Y205368D01*
X449374Y205305D01*
X449238Y205246D01*
X449101Y205190D01*
X448962Y205138D01*
X448822Y205089D01*
X448680Y205044D01*
X448538Y205003D01*
X448394Y204966D01*
X448249Y204933D01*
X448104Y204904D01*
X447958Y204878D01*
X447811Y204856D01*
X447663Y204839D01*
X447516Y204825D01*
X447368Y204815D01*
X447219Y204809D01*
X447071Y204807D01*
X441497Y204807D01*
X461096Y195889D02*
X461096Y215955D01*
X458867Y195889D02*
X463326Y195889D01*
X463326Y215955D02*
X458867Y215955D01*
X470353Y210381D02*
X470353Y201463D01*
X470353Y210381D02*
X470355Y210529D01*
X470361Y210678D01*
X470371Y210826D01*
X470385Y210973D01*
X470402Y211121D01*
X470424Y211268D01*
X470450Y211414D01*
X470479Y211559D01*
X470512Y211704D01*
X470549Y211848D01*
X470590Y211990D01*
X470635Y212132D01*
X470684Y212272D01*
X470736Y212411D01*
X470792Y212548D01*
X470851Y212684D01*
X470914Y212819D01*
X470981Y212951D01*
X471051Y213082D01*
X471125Y213211D01*
X471202Y213338D01*
X471282Y213462D01*
X471366Y213585D01*
X471453Y213705D01*
X471543Y213823D01*
X471636Y213939D01*
X471732Y214052D01*
X471831Y214162D01*
X471933Y214270D01*
X472038Y214375D01*
X472146Y214477D01*
X472256Y214576D01*
X472369Y214672D01*
X472485Y214765D01*
X472603Y214855D01*
X472723Y214942D01*
X472846Y215026D01*
X472970Y215106D01*
X473097Y215183D01*
X473226Y215257D01*
X473357Y215327D01*
X473489Y215394D01*
X473624Y215457D01*
X473760Y215516D01*
X473897Y215572D01*
X474036Y215624D01*
X474176Y215673D01*
X474318Y215718D01*
X474460Y215759D01*
X474604Y215796D01*
X474749Y215829D01*
X474894Y215858D01*
X475040Y215884D01*
X475187Y215906D01*
X475335Y215923D01*
X475482Y215937D01*
X475630Y215947D01*
X475779Y215953D01*
X475927Y215955D01*
X476075Y215953D01*
X476224Y215947D01*
X476372Y215937D01*
X476519Y215923D01*
X476667Y215906D01*
X476814Y215884D01*
X476960Y215858D01*
X477105Y215829D01*
X477250Y215796D01*
X477394Y215759D01*
X477536Y215718D01*
X477678Y215673D01*
X477818Y215624D01*
X477957Y215572D01*
X478094Y215516D01*
X478230Y215457D01*
X478365Y215394D01*
X478497Y215327D01*
X478628Y215257D01*
X478757Y215183D01*
X478884Y215106D01*
X479008Y215026D01*
X479131Y214942D01*
X479251Y214855D01*
X479369Y214765D01*
X479485Y214672D01*
X479598Y214576D01*
X479708Y214477D01*
X479816Y214375D01*
X479921Y214270D01*
X480023Y214162D01*
X480122Y214052D01*
X480218Y213939D01*
X480311Y213823D01*
X480401Y213705D01*
X480488Y213585D01*
X480572Y213462D01*
X480652Y213338D01*
X480729Y213211D01*
X480803Y213082D01*
X480873Y212951D01*
X480940Y212819D01*
X481003Y212684D01*
X481062Y212548D01*
X481118Y212411D01*
X481170Y212272D01*
X481219Y212132D01*
X481264Y211990D01*
X481305Y211848D01*
X481342Y211704D01*
X481375Y211559D01*
X481404Y211414D01*
X481430Y211268D01*
X481452Y211121D01*
X481469Y210973D01*
X481483Y210826D01*
X481493Y210678D01*
X481499Y210529D01*
X481501Y210381D01*
X481501Y201463D01*
X481499Y201315D01*
X481493Y201166D01*
X481483Y201018D01*
X481469Y200871D01*
X481452Y200723D01*
X481430Y200576D01*
X481404Y200430D01*
X481375Y200285D01*
X481342Y200140D01*
X481305Y199996D01*
X481264Y199854D01*
X481219Y199712D01*
X481170Y199572D01*
X481118Y199433D01*
X481062Y199296D01*
X481003Y199160D01*
X480940Y199025D01*
X480873Y198893D01*
X480803Y198762D01*
X480729Y198633D01*
X480652Y198506D01*
X480572Y198382D01*
X480488Y198259D01*
X480401Y198139D01*
X480311Y198021D01*
X480218Y197905D01*
X480122Y197792D01*
X480023Y197682D01*
X479921Y197574D01*
X479816Y197469D01*
X479708Y197367D01*
X479598Y197268D01*
X479485Y197172D01*
X479369Y197079D01*
X479251Y196989D01*
X479131Y196902D01*
X479008Y196818D01*
X478884Y196738D01*
X478757Y196661D01*
X478628Y196587D01*
X478497Y196517D01*
X478365Y196450D01*
X478230Y196387D01*
X478094Y196328D01*
X477957Y196272D01*
X477818Y196220D01*
X477678Y196171D01*
X477536Y196126D01*
X477394Y196085D01*
X477250Y196048D01*
X477105Y196015D01*
X476960Y195986D01*
X476814Y195960D01*
X476667Y195938D01*
X476519Y195921D01*
X476372Y195907D01*
X476224Y195897D01*
X476075Y195891D01*
X475927Y195889D01*
X475779Y195891D01*
X475630Y195897D01*
X475482Y195907D01*
X475335Y195921D01*
X475187Y195938D01*
X475040Y195960D01*
X474894Y195986D01*
X474749Y196015D01*
X474604Y196048D01*
X474460Y196085D01*
X474318Y196126D01*
X474176Y196171D01*
X474036Y196220D01*
X473897Y196272D01*
X473760Y196328D01*
X473624Y196387D01*
X473489Y196450D01*
X473357Y196517D01*
X473226Y196587D01*
X473097Y196661D01*
X472970Y196738D01*
X472846Y196818D01*
X472723Y196902D01*
X472603Y196989D01*
X472485Y197079D01*
X472369Y197172D01*
X472256Y197268D01*
X472146Y197367D01*
X472038Y197469D01*
X471933Y197574D01*
X471831Y197682D01*
X471732Y197792D01*
X471636Y197905D01*
X471543Y198021D01*
X471453Y198139D01*
X471366Y198259D01*
X471282Y198382D01*
X471202Y198506D01*
X471125Y198633D01*
X471051Y198762D01*
X470981Y198893D01*
X470914Y199025D01*
X470851Y199160D01*
X470792Y199296D01*
X470736Y199433D01*
X470684Y199572D01*
X470635Y199712D01*
X470590Y199854D01*
X470549Y199996D01*
X470512Y200140D01*
X470479Y200285D01*
X470450Y200430D01*
X470424Y200576D01*
X470402Y200723D01*
X470385Y200871D01*
X470371Y201018D01*
X470361Y201166D01*
X470355Y201315D01*
X470353Y201463D01*
X504910Y215956D02*
X505051Y215954D01*
X505191Y215948D01*
X505332Y215938D01*
X505472Y215924D01*
X505611Y215907D01*
X505750Y215885D01*
X505889Y215860D01*
X506026Y215830D01*
X506163Y215797D01*
X506299Y215760D01*
X506434Y215719D01*
X506567Y215674D01*
X506699Y215626D01*
X506830Y215574D01*
X506959Y215518D01*
X507087Y215459D01*
X507213Y215396D01*
X507337Y215330D01*
X507459Y215260D01*
X507579Y215187D01*
X507697Y215110D01*
X507813Y215031D01*
X507927Y214948D01*
X508038Y214861D01*
X508147Y214772D01*
X508253Y214680D01*
X508357Y214585D01*
X508458Y214487D01*
X508556Y214386D01*
X508651Y214282D01*
X508743Y214176D01*
X508832Y214067D01*
X508919Y213956D01*
X509002Y213842D01*
X509081Y213726D01*
X509158Y213608D01*
X509231Y213488D01*
X509301Y213366D01*
X509367Y213242D01*
X509430Y213116D01*
X509489Y212988D01*
X509545Y212859D01*
X509597Y212728D01*
X509645Y212596D01*
X509690Y212463D01*
X509731Y212328D01*
X509768Y212192D01*
X509801Y212055D01*
X509831Y211918D01*
X509856Y211779D01*
X509878Y211640D01*
X509895Y211501D01*
X509909Y211361D01*
X509919Y211220D01*
X509925Y211080D01*
X509927Y210939D01*
X504910Y215955D02*
X504751Y215953D01*
X504592Y215947D01*
X504434Y215937D01*
X504275Y215924D01*
X504117Y215906D01*
X503960Y215885D01*
X503803Y215859D01*
X503647Y215830D01*
X503491Y215797D01*
X503337Y215760D01*
X503183Y215719D01*
X503031Y215675D01*
X502879Y215627D01*
X502729Y215575D01*
X502580Y215519D01*
X502433Y215460D01*
X502287Y215397D01*
X502142Y215330D01*
X502000Y215260D01*
X501859Y215187D01*
X501720Y215110D01*
X501583Y215030D01*
X501448Y214946D01*
X501315Y214859D01*
X501184Y214769D01*
X501055Y214675D01*
X500929Y214579D01*
X500805Y214479D01*
X500684Y214376D01*
X500565Y214270D01*
X500449Y214162D01*
X500336Y214050D01*
X500225Y213936D01*
X500118Y213819D01*
X500013Y213700D01*
X499911Y213578D01*
X499812Y213453D01*
X499717Y213327D01*
X499624Y213197D01*
X499535Y213066D01*
X499449Y212932D01*
X499366Y212797D01*
X499287Y212659D01*
X499211Y212519D01*
X499138Y212378D01*
X499069Y212235D01*
X499004Y212090D01*
X498942Y211943D01*
X498884Y211796D01*
X498829Y211646D01*
X498779Y211496D01*
X508254Y207037D02*
X508358Y207139D01*
X508459Y207244D01*
X508557Y207351D01*
X508653Y207461D01*
X508745Y207573D01*
X508834Y207688D01*
X508921Y207805D01*
X509004Y207924D01*
X509083Y208046D01*
X509160Y208170D01*
X509233Y208295D01*
X509302Y208423D01*
X509369Y208552D01*
X509431Y208684D01*
X509490Y208817D01*
X509546Y208951D01*
X509598Y209087D01*
X509646Y209224D01*
X509690Y209363D01*
X509731Y209502D01*
X509768Y209643D01*
X509801Y209785D01*
X509830Y209927D01*
X509855Y210070D01*
X509877Y210214D01*
X509895Y210358D01*
X509908Y210503D01*
X509918Y210648D01*
X509924Y210794D01*
X509926Y210939D01*
X508254Y207037D02*
X498778Y195889D01*
X509926Y195889D01*
X517317Y195889D02*
X524005Y195889D01*
X524137Y195891D01*
X524269Y195897D01*
X524401Y195907D01*
X524532Y195920D01*
X524663Y195938D01*
X524794Y195959D01*
X524923Y195985D01*
X525052Y196014D01*
X525180Y196047D01*
X525307Y196083D01*
X525433Y196124D01*
X525558Y196168D01*
X525681Y196216D01*
X525803Y196267D01*
X525923Y196322D01*
X526041Y196381D01*
X526158Y196443D01*
X526273Y196509D01*
X526385Y196577D01*
X526496Y196650D01*
X526605Y196725D01*
X526711Y196804D01*
X526815Y196885D01*
X526916Y196970D01*
X527015Y197058D01*
X527111Y197149D01*
X527204Y197242D01*
X527295Y197338D01*
X527383Y197437D01*
X527468Y197538D01*
X527549Y197642D01*
X527628Y197749D01*
X527703Y197857D01*
X527776Y197968D01*
X527844Y198080D01*
X527910Y198195D01*
X527972Y198312D01*
X528031Y198430D01*
X528086Y198550D01*
X528137Y198672D01*
X528185Y198795D01*
X528229Y198920D01*
X528270Y199046D01*
X528306Y199173D01*
X528339Y199301D01*
X528368Y199430D01*
X528394Y199559D01*
X528415Y199690D01*
X528433Y199821D01*
X528446Y199952D01*
X528456Y200084D01*
X528462Y200216D01*
X528464Y200348D01*
X528465Y200348D02*
X528465Y202578D01*
X528464Y202578D02*
X528462Y202710D01*
X528456Y202842D01*
X528446Y202974D01*
X528433Y203105D01*
X528415Y203236D01*
X528394Y203367D01*
X528368Y203496D01*
X528339Y203625D01*
X528306Y203753D01*
X528270Y203880D01*
X528229Y204006D01*
X528185Y204131D01*
X528137Y204254D01*
X528086Y204376D01*
X528031Y204496D01*
X527972Y204614D01*
X527910Y204731D01*
X527844Y204846D01*
X527776Y204958D01*
X527703Y205069D01*
X527628Y205178D01*
X527549Y205284D01*
X527468Y205388D01*
X527383Y205489D01*
X527295Y205588D01*
X527204Y205684D01*
X527111Y205777D01*
X527015Y205868D01*
X526916Y205956D01*
X526815Y206041D01*
X526711Y206122D01*
X526605Y206201D01*
X526496Y206276D01*
X526385Y206349D01*
X526273Y206417D01*
X526158Y206483D01*
X526041Y206545D01*
X525923Y206604D01*
X525803Y206659D01*
X525681Y206710D01*
X525558Y206758D01*
X525433Y206802D01*
X525307Y206843D01*
X525180Y206879D01*
X525052Y206912D01*
X524923Y206941D01*
X524794Y206967D01*
X524663Y206988D01*
X524532Y207006D01*
X524401Y207019D01*
X524269Y207029D01*
X524137Y207035D01*
X524005Y207037D01*
X517317Y207037D01*
X517317Y215955D01*
X528465Y215955D01*
D12*
X107515Y129536D03*
X107515Y140534D03*
D13*
X107515Y155355D03*
D14*
X106670Y129523D03*
X106670Y140547D03*
D15*
X106670Y155774D03*
D16*
X105823Y129523D03*
X105823Y140547D03*
D17*
X105823Y156193D03*
D14*
X104975Y129523D03*
X104975Y140547D03*
D18*
X104975Y157057D03*
D14*
X104130Y129523D03*
X104130Y140547D03*
X104130Y158327D03*
D19*
X103283Y84654D03*
X103283Y96516D03*
D17*
X103283Y110473D03*
D20*
X103283Y121916D03*
D16*
X103283Y129523D03*
D21*
X103283Y133346D03*
D16*
X103283Y140547D03*
D21*
X103283Y144344D03*
D22*
X103283Y152815D03*
D21*
X103283Y158746D03*
D23*
X102435Y85086D03*
D14*
X102435Y96503D03*
D24*
X102435Y110486D03*
D25*
X102435Y121484D03*
D26*
X102435Y132495D03*
D24*
X102435Y143506D03*
D27*
X102435Y152815D03*
D23*
X102435Y158746D03*
X101590Y85086D03*
D14*
X101590Y96503D03*
D28*
X101590Y110054D03*
D24*
X101590Y121484D03*
D29*
X101590Y132914D03*
D30*
X101590Y143925D03*
D15*
X101590Y152396D03*
D31*
X101590Y159165D03*
D21*
X100743Y85086D03*
D16*
X100743Y96503D03*
D17*
X100743Y107095D03*
X100743Y113013D03*
D21*
X100743Y118944D03*
D32*
X100743Y124875D03*
D20*
X100743Y130374D03*
X100743Y135454D03*
D33*
X100743Y141385D03*
D20*
X100743Y147316D03*
D21*
X100743Y151964D03*
D33*
X100743Y159165D03*
D23*
X99895Y85086D03*
D14*
X99895Y96503D03*
D31*
X99895Y105825D03*
D23*
X99895Y113864D03*
D14*
X99895Y118525D03*
D27*
X99895Y124875D03*
X99895Y129955D03*
D14*
X99895Y136305D03*
D23*
X99895Y140966D03*
D27*
X99895Y147735D03*
D23*
X99895Y151964D03*
D18*
X99895Y158733D03*
D23*
X99050Y85086D03*
D14*
X99050Y96503D03*
X99050Y105825D03*
D25*
X99050Y116404D03*
D14*
X99050Y125307D03*
X99050Y129523D03*
D23*
X99050Y136724D03*
D14*
X99050Y140547D03*
X99050Y148167D03*
D23*
X99050Y151964D03*
D34*
X99050Y159165D03*
D21*
X98203Y85086D03*
D16*
X98203Y96503D03*
D35*
X98203Y116404D03*
D16*
X98203Y125307D03*
X98203Y129523D03*
D21*
X98203Y136724D03*
D16*
X98203Y140547D03*
X98203Y148167D03*
D21*
X98203Y151964D03*
D36*
X98203Y159165D03*
D23*
X97355Y85086D03*
D14*
X97355Y96503D03*
X97355Y114283D03*
D23*
X97355Y118106D03*
D14*
X97355Y125307D03*
X97355Y129523D03*
D23*
X97355Y136724D03*
D14*
X97355Y140547D03*
X97355Y148167D03*
D23*
X97355Y151964D03*
X97355Y157044D03*
X97355Y161286D03*
D24*
X96510Y87626D03*
D14*
X96510Y96503D03*
D31*
X96510Y113445D03*
D23*
X96510Y118106D03*
D14*
X96510Y125307D03*
X96510Y129523D03*
D23*
X96510Y136724D03*
D14*
X96510Y140547D03*
X96510Y148167D03*
D23*
X96510Y151964D03*
D14*
X96510Y156625D03*
D23*
X96510Y161286D03*
D37*
X95663Y88045D03*
D16*
X95663Y96503D03*
D38*
X95663Y111756D03*
D21*
X95663Y118106D03*
D16*
X95663Y125307D03*
X95663Y129523D03*
D21*
X95663Y136724D03*
X95663Y140966D03*
D32*
X95663Y147735D03*
D21*
X95663Y151964D03*
X95663Y156206D03*
D16*
X95663Y161705D03*
D39*
X94815Y88477D03*
D14*
X94815Y96503D03*
D25*
X94815Y110486D03*
D23*
X94815Y118106D03*
D14*
X94815Y125307D03*
D27*
X94815Y129955D03*
D23*
X94815Y135886D03*
X94815Y140966D03*
D27*
X94815Y147735D03*
D23*
X94815Y151964D03*
X94815Y156206D03*
X94815Y162124D03*
X93970Y85086D03*
D15*
X93970Y92274D03*
D14*
X93970Y96503D03*
D40*
X93970Y109203D03*
D23*
X93970Y118106D03*
D14*
X93970Y125307D03*
D29*
X93970Y132914D03*
D30*
X93970Y143925D03*
D25*
X93970Y153666D03*
D14*
X93970Y162543D03*
D21*
X93123Y85086D03*
X93123Y92706D03*
D16*
X93123Y96503D03*
D17*
X93123Y107933D03*
D16*
X93123Y118525D03*
X93123Y125307D03*
D41*
X93123Y132495D03*
D42*
X93123Y143506D03*
D35*
X93123Y153666D03*
D32*
X93123Y162975D03*
D23*
X92275Y85086D03*
X92275Y92706D03*
D14*
X92275Y96503D03*
D15*
X92275Y106676D03*
D43*
X92275Y118106D03*
D14*
X92275Y125307D03*
D40*
X92275Y132063D03*
X92275Y143087D03*
D23*
X92275Y151964D03*
D13*
X92275Y155355D03*
X92275Y162975D03*
D23*
X91430Y85086D03*
X91430Y92706D03*
X91430Y106244D03*
D13*
X91430Y114715D03*
D23*
X91430Y151964D03*
D21*
X90583Y85086D03*
X90583Y92706D03*
D16*
X90583Y96503D03*
D21*
X90583Y106244D03*
D16*
X90583Y114283D03*
D21*
X90583Y151964D03*
D39*
X89735Y88477D03*
D14*
X89735Y96503D03*
D39*
X89735Y110473D03*
D23*
X89735Y151964D03*
D39*
X88890Y88477D03*
D14*
X88890Y96503D03*
D29*
X88890Y110054D03*
D23*
X88890Y151964D03*
D42*
X88043Y87626D03*
D44*
X88043Y110067D03*
D21*
X88043Y151964D03*
D45*
X87195Y87194D03*
D15*
X87195Y110054D03*
D14*
X87195Y151545D03*
D46*
X86350Y151545D03*
D14*
X84655Y121903D03*
D29*
X83810Y121916D03*
D47*
X82963Y121903D03*
D48*
X82115Y121916D03*
D49*
X81270Y121903D03*
D44*
X80423Y115985D03*
X80423Y127847D03*
D45*
X79575Y114296D03*
X79575Y129536D03*
D34*
X78730Y113445D03*
D45*
X78730Y130374D03*
D44*
X77883Y111743D03*
X77883Y132063D03*
D24*
X77035Y110486D03*
D30*
X77035Y133765D03*
D29*
X76190Y109216D03*
X76190Y134616D03*
D50*
X75343Y107933D03*
D51*
X75343Y135454D03*
D45*
X74495Y104974D03*
D31*
X74495Y110905D03*
D15*
X74495Y132914D03*
D34*
X74495Y138845D03*
D18*
X73650Y103717D03*
D31*
X73650Y110905D03*
D15*
X73650Y132914D03*
D18*
X73650Y140115D03*
D21*
X72803Y102866D03*
X72803Y110486D03*
D20*
X72803Y132914D03*
D33*
X72803Y141385D03*
D27*
X71955Y102015D03*
D23*
X71955Y110486D03*
X71955Y133346D03*
X71955Y141804D03*
D15*
X71110Y101596D03*
D23*
X71110Y110486D03*
X71110Y133346D03*
D27*
X71110Y142655D03*
D21*
X70263Y101164D03*
X70263Y110486D03*
X70263Y133346D03*
D32*
X70263Y142655D03*
D14*
X69415Y100745D03*
D40*
X69415Y111743D03*
D52*
X69415Y132495D03*
D23*
X69415Y143506D03*
X68570Y100326D03*
D53*
X68570Y111324D03*
D28*
X68570Y132076D03*
D23*
X68570Y143506D03*
D21*
X67723Y100326D03*
D54*
X67723Y111756D03*
X67723Y132076D03*
D16*
X67723Y143925D03*
D14*
X66875Y99907D03*
D55*
X66875Y111324D03*
D56*
X66875Y132495D03*
D14*
X66875Y143925D03*
X66030Y99907D03*
D57*
X66030Y111756D03*
D58*
X66030Y132495D03*
D14*
X66030Y143925D03*
D37*
X65183Y103285D03*
D47*
X65183Y121903D03*
D50*
X65183Y140953D03*
D40*
X64335Y102447D03*
D29*
X64335Y121916D03*
D40*
X64335Y141385D03*
X63490Y101583D03*
X63490Y121903D03*
X63490Y142223D03*
D44*
X62643Y100745D03*
D38*
X62643Y121916D03*
D42*
X62643Y143506D03*
D26*
X61795Y99475D03*
D15*
X61795Y121916D03*
D24*
X61795Y144344D03*
D26*
X60950Y99475D03*
D15*
X60950Y121916D03*
D40*
X60950Y144763D03*
D42*
X60103Y98624D03*
D33*
X60103Y121065D03*
D41*
X60103Y145195D03*
D31*
X59255Y95665D03*
X59255Y100745D03*
X59255Y121065D03*
D15*
X59255Y143074D03*
X59255Y148154D03*
D23*
X58410Y95246D03*
X58410Y100326D03*
D31*
X58410Y121065D03*
D23*
X58410Y143506D03*
X58410Y148586D03*
D32*
X57563Y94395D03*
D21*
X57563Y100326D03*
D33*
X57563Y121065D03*
X57563Y143925D03*
D21*
X57563Y149424D03*
D27*
X56715Y94395D03*
D23*
X56715Y100326D03*
X56715Y120646D03*
D31*
X56715Y143925D03*
D23*
X56715Y149424D03*
D14*
X55870Y93963D03*
D45*
X55870Y101596D03*
D23*
X55870Y120646D03*
D12*
X55870Y139696D03*
D31*
X55870Y143925D03*
D27*
X55870Y150275D03*
D21*
X55023Y93544D03*
D50*
X55023Y103717D03*
D33*
X55023Y121065D03*
D51*
X55023Y140534D03*
D32*
X55023Y150275D03*
D23*
X54175Y93544D03*
D59*
X54175Y103704D03*
D29*
X54175Y121916D03*
D60*
X54175Y140115D03*
D27*
X54175Y150275D03*
D23*
X53330Y93544D03*
D61*
X53330Y103717D03*
D62*
X53330Y121903D03*
D61*
X53330Y140115D03*
D27*
X53330Y150275D03*
D63*
X52483Y102434D03*
D64*
X52483Y121916D03*
D65*
X52483Y141385D03*
D39*
X51635Y96935D03*
D66*
X51635Y121916D03*
D29*
X51635Y147316D03*
D40*
X50790Y95665D03*
D62*
X50790Y114283D03*
D53*
X50790Y129104D03*
D40*
X50790Y148167D03*
D38*
X49943Y94814D03*
D44*
X49943Y113445D03*
X49943Y130387D03*
D36*
X49943Y149005D03*
D18*
X49095Y94395D03*
X49095Y113013D03*
X49095Y130793D03*
X49095Y149437D03*
D15*
X48250Y93976D03*
D18*
X48250Y112175D03*
X48250Y131657D03*
D15*
X48250Y149856D03*
D20*
X47403Y93976D03*
D17*
X47403Y111337D03*
X47403Y132495D03*
X47403Y150275D03*
D31*
X46555Y93125D03*
X46555Y110905D03*
D15*
X46555Y132914D03*
X46555Y150694D03*
D31*
X45710Y93125D03*
X45710Y110905D03*
D18*
X45710Y133333D03*
D15*
X45710Y150694D03*
D21*
X44863Y92706D03*
D20*
X44863Y110054D03*
D33*
X44863Y133765D03*
X44863Y151545D03*
D23*
X44015Y92706D03*
D15*
X44015Y110054D03*
D31*
X44015Y133765D03*
X44015Y151545D03*
D15*
X43170Y92274D03*
D27*
X43170Y109635D03*
D15*
X43170Y134616D03*
D31*
X43170Y151545D03*
D20*
X42323Y92274D03*
X42323Y109216D03*
X42323Y134616D03*
D33*
X42323Y151545D03*
D15*
X41475Y92274D03*
X41475Y109216D03*
X41475Y134616D03*
D31*
X41475Y151545D03*
D23*
X40630Y92706D03*
D15*
X40630Y109216D03*
D14*
X40630Y121903D03*
D15*
X40630Y134616D03*
D31*
X40630Y151545D03*
D21*
X39783Y92706D03*
D20*
X39783Y109216D03*
X39783Y121916D03*
X39783Y134616D03*
D21*
X39783Y151126D03*
D31*
X38935Y93125D03*
D15*
X38935Y109216D03*
X38935Y121916D03*
X38935Y134616D03*
X38935Y150694D03*
D31*
X38090Y93125D03*
D15*
X38090Y109216D03*
X38090Y121916D03*
X38090Y134616D03*
X38090Y150694D03*
D20*
X37243Y93976D03*
D32*
X37243Y109635D03*
D20*
X37243Y121916D03*
X37243Y134616D03*
D17*
X37243Y150275D03*
D18*
X36395Y94395D03*
D15*
X36395Y110054D03*
X36395Y121916D03*
D31*
X36395Y133765D03*
D18*
X36395Y149437D03*
X35550Y95233D03*
D15*
X35550Y110054D03*
X35550Y121916D03*
D31*
X35550Y133765D03*
D34*
X35550Y149005D03*
D36*
X34703Y95665D03*
D33*
X34703Y110905D03*
D20*
X34703Y121916D03*
D17*
X34703Y133333D03*
D38*
X34703Y148154D03*
D52*
X33855Y96935D03*
D18*
X33855Y110473D03*
D15*
X33855Y121916D03*
D18*
X33855Y133333D03*
D25*
X33855Y146884D03*
D24*
X33010Y98624D03*
D26*
X33010Y109635D03*
D15*
X33010Y121916D03*
D29*
X33010Y134616D03*
X33010Y144776D03*
D67*
X32163Y104974D03*
D20*
X32163Y121916D03*
D68*
X32163Y138845D03*
D69*
X31315Y105825D03*
D15*
X31315Y121916D03*
D57*
X31315Y137994D03*
D53*
X30470Y103704D03*
D45*
X30470Y114296D03*
D15*
X30470Y121916D03*
D45*
X30470Y129536D03*
D70*
X30470Y140115D03*
D42*
X29623Y103704D03*
D17*
X29623Y114715D03*
D20*
X29623Y121916D03*
D17*
X29623Y129117D03*
D41*
X29623Y140115D03*
D15*
X28775Y115134D03*
X28775Y121916D03*
D31*
X28775Y128685D03*
D23*
X27930Y115566D03*
D15*
X27930Y121916D03*
D23*
X27930Y128266D03*
D20*
X27083Y121916D03*
D15*
X26235Y121916D03*
X25390Y121916D03*
D20*
X24543Y121916D03*
D15*
X23695Y121916D03*
X22850Y121916D03*
D20*
X22003Y121916D03*
D15*
X21155Y121916D03*
X20310Y121916D03*
D20*
X19463Y121916D03*
D15*
X18615Y121916D03*
D27*
X17770Y122335D03*
D19*
X16923Y121916D03*
D71*
X225800Y99600D02*
X225164Y98365D01*
X224497Y97147D01*
X223801Y95945D01*
X223076Y94760D01*
X222322Y93593D01*
X221540Y92446D01*
X220730Y91317D01*
X219893Y90209D01*
X219029Y89122D01*
X218138Y88056D01*
X217222Y87012D01*
X216280Y85991D01*
X215314Y84993D01*
X214324Y84019D01*
X213310Y83070D01*
X212273Y82145D01*
X211214Y81247D01*
X210133Y80374D01*
X209031Y79529D01*
X207909Y78710D01*
X206767Y77919D01*
X205607Y77156D01*
X204427Y76422D01*
X203231Y75717D01*
X202017Y75041D01*
X200787Y74396D01*
X199542Y73780D01*
X198282Y73195D01*
X197009Y72642D01*
X195722Y72119D01*
X194422Y71628D01*
X193111Y71169D01*
X191790Y70742D01*
X190458Y70348D01*
X189117Y69986D01*
X187767Y69658D01*
X186410Y69362D01*
X185046Y69100D01*
X183676Y68871D01*
X182301Y68675D01*
X180921Y68514D01*
X179538Y68386D01*
X178153Y68292D01*
X176765Y68231D01*
X175376Y68205D01*
X173987Y68213D01*
X172599Y68255D01*
X171212Y68330D01*
X169827Y68440D01*
X168446Y68583D01*
X167068Y68761D01*
X165695Y68971D01*
X164328Y69216D01*
X162967Y69493D01*
X161613Y69804D01*
X160267Y70148D01*
X158931Y70525D01*
X157603Y70934D01*
X156286Y71376D01*
X154981Y71849D01*
X153687Y72355D01*
X152406Y72892D01*
X151138Y73460D01*
X149885Y74059D01*
X148647Y74688D01*
X147425Y75347D01*
X146219Y76037D01*
X145030Y76755D01*
X143859Y77502D01*
X142707Y78278D01*
X141574Y79082D01*
X140461Y79913D01*
X139369Y80771D01*
X138298Y81655D01*
X137249Y82566D01*
X136223Y83502D01*
X135219Y84462D01*
X134240Y85447D01*
X133285Y86456D01*
X132355Y87487D01*
X131450Y88542D01*
X130572Y89617D01*
X129720Y90714D01*
X128895Y91832D01*
X128098Y92969D01*
X127329Y94126D01*
X126588Y95301D01*
X125876Y96493D01*
X125194Y97703D01*
X124541Y98929D01*
X123919Y100171D01*
X123327Y101428D01*
X122766Y102698D01*
X122236Y103982D01*
X121738Y105279D01*
X121271Y106587D01*
X120837Y107907D01*
X120435Y109236D01*
X120066Y110575D01*
X119730Y111923D01*
X119427Y113278D01*
X119157Y114641D01*
X118920Y116009D01*
X118717Y117383D01*
X118548Y118762D01*
X118412Y120144D01*
X118310Y121530D01*
X118242Y122917D01*
X118208Y124306D01*
X118208Y125694D01*
X118242Y127083D01*
X118310Y128470D01*
X118412Y129856D01*
X118548Y131238D01*
X118717Y132617D01*
X118920Y133991D01*
X119157Y135359D01*
X119427Y136722D01*
X119730Y138077D01*
X120066Y139425D01*
X120435Y140764D01*
X120837Y142093D01*
X121271Y143413D01*
X121738Y144721D01*
X122236Y146018D01*
X122766Y147302D01*
X123327Y148572D01*
X123919Y149829D01*
X124541Y151071D01*
X125194Y152297D01*
X125876Y153507D01*
X126588Y154699D01*
X127329Y155874D01*
X128098Y157031D01*
X128895Y158168D01*
X129720Y159286D01*
X130572Y160383D01*
X131450Y161458D01*
X132355Y162513D01*
X133285Y163544D01*
X134240Y164553D01*
X135219Y165538D01*
X136223Y166498D01*
X137249Y167434D01*
X138298Y168345D01*
X139369Y169229D01*
X140461Y170087D01*
X141574Y170918D01*
X142707Y171722D01*
X143859Y172498D01*
X145030Y173245D01*
X146219Y173963D01*
X147425Y174653D01*
X148647Y175312D01*
X149885Y175941D01*
X151138Y176540D01*
X152406Y177108D01*
X153687Y177645D01*
X154981Y178151D01*
X156286Y178624D01*
X157603Y179066D01*
X158931Y179475D01*
X160267Y179852D01*
X161613Y180196D01*
X162967Y180507D01*
X164328Y180784D01*
X165695Y181029D01*
X167068Y181239D01*
X168446Y181417D01*
X169827Y181560D01*
X171212Y181670D01*
X172599Y181745D01*
X173987Y181787D01*
X175376Y181795D01*
X176765Y181769D01*
X178153Y181708D01*
X179538Y181614D01*
X180921Y181486D01*
X182301Y181325D01*
X183676Y181129D01*
X185046Y180900D01*
X186410Y180638D01*
X187767Y180342D01*
X189117Y180014D01*
X190458Y179652D01*
X191790Y179258D01*
X193111Y178831D01*
X194422Y178372D01*
X195722Y177881D01*
X197009Y177358D01*
X198282Y176805D01*
X199542Y176220D01*
X200787Y175604D01*
X202017Y174959D01*
X203231Y174283D01*
X204427Y173578D01*
X205607Y172844D01*
X206767Y172081D01*
X207909Y171290D01*
X209031Y170471D01*
X210133Y169626D01*
X211214Y168753D01*
X212273Y167855D01*
X213310Y166930D01*
X214324Y165981D01*
X215314Y165007D01*
X216280Y164009D01*
X217222Y162988D01*
X218138Y161944D01*
X219029Y160878D01*
X219893Y159791D01*
X220730Y158683D01*
X221540Y157554D01*
X222322Y156407D01*
X223076Y155240D01*
X223801Y154055D01*
X224497Y152853D01*
X225164Y151635D01*
X225800Y150400D01*
D72*
X219450Y125000D02*
X219437Y123926D01*
X219398Y122852D01*
X219333Y121780D01*
X219242Y120710D01*
X219126Y119642D01*
X218984Y118577D01*
X218816Y117517D01*
X218622Y116460D01*
X218403Y115408D01*
X218158Y114362D01*
X217889Y113323D01*
X217594Y112290D01*
X217274Y111264D01*
X216930Y110247D01*
X216561Y109238D01*
X216168Y108238D01*
X215751Y107248D01*
X215311Y106269D01*
X214846Y105300D01*
X214359Y104343D01*
X213848Y103398D01*
X213315Y102466D01*
X212759Y101546D01*
X212181Y100641D01*
X211582Y99750D01*
X210961Y98873D01*
X210319Y98012D01*
X209657Y97166D01*
X208974Y96337D01*
X208271Y95524D01*
X207549Y94729D01*
X206808Y93951D01*
X206049Y93192D01*
X205271Y92451D01*
X204476Y91729D01*
X203663Y91026D01*
X202834Y90343D01*
X201988Y89681D01*
X201127Y89039D01*
X200250Y88418D01*
X199359Y87819D01*
X198454Y87241D01*
X197534Y86685D01*
X196602Y86152D01*
X195657Y85641D01*
X194700Y85154D01*
X193731Y84689D01*
X192752Y84249D01*
X191762Y83832D01*
X190762Y83439D01*
X189753Y83070D01*
X188736Y82726D01*
X187710Y82406D01*
X186677Y82111D01*
X185638Y81842D01*
X184592Y81597D01*
X183540Y81378D01*
X182483Y81184D01*
X181423Y81016D01*
X180358Y80874D01*
X179290Y80758D01*
X178220Y80667D01*
X177148Y80602D01*
X176074Y80563D01*
X175000Y80550D01*
X175000Y86900D02*
X175921Y86911D01*
X176841Y86944D01*
X177760Y87000D01*
X178677Y87078D01*
X179592Y87178D01*
X180505Y87300D01*
X181414Y87444D01*
X182320Y87610D01*
X183221Y87798D01*
X184118Y88007D01*
X185009Y88238D01*
X185895Y88491D01*
X186774Y88765D01*
X187646Y89060D01*
X188510Y89376D01*
X189367Y89713D01*
X190216Y90070D01*
X191055Y90448D01*
X191886Y90846D01*
X192706Y91264D01*
X193516Y91702D01*
X194315Y92159D01*
X195103Y92635D01*
X195879Y93130D01*
X196643Y93644D01*
X197395Y94176D01*
X198133Y94727D01*
X198858Y95294D01*
X199568Y95880D01*
X200265Y96482D01*
X200947Y97101D01*
X201613Y97736D01*
X202264Y98387D01*
X202899Y99053D01*
X203518Y99735D01*
X204120Y100432D01*
X204706Y101142D01*
X205273Y101867D01*
X205824Y102605D01*
X206356Y103357D01*
X206870Y104121D01*
X207365Y104897D01*
X207841Y105685D01*
X208298Y106484D01*
X208736Y107294D01*
X209154Y108114D01*
X209552Y108945D01*
X209930Y109784D01*
X210287Y110633D01*
X210624Y111490D01*
X210940Y112354D01*
X211235Y113226D01*
X211509Y114105D01*
X211762Y114991D01*
X211993Y115882D01*
X212202Y116779D01*
X212390Y117680D01*
X212556Y118586D01*
X212700Y119495D01*
X212822Y120408D01*
X212922Y121323D01*
X213000Y122240D01*
X213056Y123159D01*
X213089Y124079D01*
X213100Y125000D01*
X206750Y125000D02*
X206741Y124233D01*
X206713Y123466D01*
X206667Y122700D01*
X206602Y121936D01*
X206519Y121173D01*
X206417Y120412D01*
X206297Y119655D01*
X206159Y118900D01*
X206002Y118149D01*
X205827Y117402D01*
X205635Y116659D01*
X205424Y115921D01*
X205196Y115189D01*
X204950Y114462D01*
X204687Y113741D01*
X204406Y113027D01*
X204108Y112320D01*
X203793Y111621D01*
X203462Y110929D01*
X203113Y110245D01*
X202748Y109570D01*
X202368Y108904D01*
X201971Y108247D01*
X201558Y107601D01*
X201130Y106964D01*
X200686Y106338D01*
X200228Y105723D01*
X199755Y105119D01*
X199267Y104526D01*
X198765Y103946D01*
X198250Y103378D01*
X197720Y102822D01*
X197178Y102280D01*
X196622Y101750D01*
X196054Y101235D01*
X195474Y100733D01*
X194881Y100245D01*
X194277Y99772D01*
X193662Y99314D01*
X193036Y98870D01*
X192399Y98442D01*
X191753Y98029D01*
X191096Y97632D01*
X190430Y97252D01*
X189755Y96887D01*
X189071Y96538D01*
X188379Y96207D01*
X187680Y95892D01*
X186973Y95594D01*
X186259Y95313D01*
X185538Y95050D01*
X184811Y94804D01*
X184079Y94576D01*
X183341Y94365D01*
X182598Y94173D01*
X181851Y93998D01*
X181100Y93841D01*
X180345Y93703D01*
X179588Y93583D01*
X178827Y93481D01*
X178064Y93398D01*
X177300Y93333D01*
X176534Y93287D01*
X175767Y93259D01*
X175000Y93250D01*
X175000Y99600D02*
X175614Y99607D01*
X176227Y99630D01*
X176840Y99667D01*
X177451Y99719D01*
X178062Y99785D01*
X178670Y99867D01*
X179276Y99963D01*
X179880Y100073D01*
X180481Y100198D01*
X181079Y100338D01*
X181673Y100492D01*
X182263Y100661D01*
X182849Y100843D01*
X183430Y101040D01*
X184007Y101251D01*
X184578Y101475D01*
X185144Y101713D01*
X185704Y101965D01*
X186257Y102231D01*
X186804Y102509D01*
X187344Y102801D01*
X187877Y103106D01*
X188402Y103424D01*
X188920Y103754D01*
X189429Y104096D01*
X189930Y104451D01*
X190422Y104818D01*
X190905Y105196D01*
X191379Y105586D01*
X191843Y105988D01*
X192298Y106400D01*
X192742Y106824D01*
X193176Y107258D01*
X193600Y107702D01*
X194012Y108157D01*
X194414Y108621D01*
X194804Y109095D01*
X195182Y109578D01*
X195549Y110070D01*
X195904Y110571D01*
X196246Y111080D01*
X196576Y111598D01*
X196894Y112123D01*
X197199Y112656D01*
X197491Y113196D01*
X197769Y113743D01*
X198035Y114296D01*
X198287Y114856D01*
X198525Y115422D01*
X198749Y115993D01*
X198960Y116570D01*
X199157Y117151D01*
X199339Y117737D01*
X199508Y118327D01*
X199662Y118921D01*
X199802Y119519D01*
X199927Y120120D01*
X200037Y120724D01*
X200133Y121330D01*
X200215Y121938D01*
X200281Y122549D01*
X200333Y123160D01*
X200370Y123773D01*
X200393Y124386D01*
X200400Y125000D01*
X175000Y169450D02*
X173926Y169437D01*
X172852Y169398D01*
X171780Y169333D01*
X170710Y169242D01*
X169642Y169126D01*
X168577Y168984D01*
X167517Y168816D01*
X166460Y168622D01*
X165408Y168403D01*
X164362Y168158D01*
X163323Y167889D01*
X162290Y167594D01*
X161264Y167274D01*
X160247Y166930D01*
X159238Y166561D01*
X158238Y166168D01*
X157248Y165751D01*
X156269Y165311D01*
X155300Y164846D01*
X154343Y164359D01*
X153398Y163848D01*
X152466Y163315D01*
X151546Y162759D01*
X150641Y162181D01*
X149750Y161582D01*
X148873Y160961D01*
X148012Y160319D01*
X147166Y159657D01*
X146337Y158974D01*
X145524Y158271D01*
X144729Y157549D01*
X143951Y156808D01*
X143192Y156049D01*
X142451Y155271D01*
X141729Y154476D01*
X141026Y153663D01*
X140343Y152834D01*
X139681Y151988D01*
X139039Y151127D01*
X138418Y150250D01*
X137819Y149359D01*
X137241Y148454D01*
X136685Y147534D01*
X136152Y146602D01*
X135641Y145657D01*
X135154Y144700D01*
X134689Y143731D01*
X134249Y142752D01*
X133832Y141762D01*
X133439Y140762D01*
X133070Y139753D01*
X132726Y138736D01*
X132406Y137710D01*
X132111Y136677D01*
X131842Y135638D01*
X131597Y134592D01*
X131378Y133540D01*
X131184Y132483D01*
X131016Y131423D01*
X130874Y130358D01*
X130758Y129290D01*
X130667Y128220D01*
X130602Y127148D01*
X130563Y126074D01*
X130550Y125000D01*
X136900Y125000D02*
X136911Y125921D01*
X136944Y126841D01*
X137000Y127760D01*
X137078Y128677D01*
X137178Y129592D01*
X137300Y130505D01*
X137444Y131414D01*
X137610Y132320D01*
X137798Y133221D01*
X138007Y134118D01*
X138238Y135009D01*
X138491Y135895D01*
X138765Y136774D01*
X139060Y137646D01*
X139376Y138510D01*
X139713Y139367D01*
X140070Y140216D01*
X140448Y141055D01*
X140846Y141886D01*
X141264Y142706D01*
X141702Y143516D01*
X142159Y144315D01*
X142635Y145103D01*
X143130Y145879D01*
X143644Y146643D01*
X144176Y147395D01*
X144727Y148133D01*
X145294Y148858D01*
X145880Y149568D01*
X146482Y150265D01*
X147101Y150947D01*
X147736Y151613D01*
X148387Y152264D01*
X149053Y152899D01*
X149735Y153518D01*
X150432Y154120D01*
X151142Y154706D01*
X151867Y155273D01*
X152605Y155824D01*
X153357Y156356D01*
X154121Y156870D01*
X154897Y157365D01*
X155685Y157841D01*
X156484Y158298D01*
X157294Y158736D01*
X158114Y159154D01*
X158945Y159552D01*
X159784Y159930D01*
X160633Y160287D01*
X161490Y160624D01*
X162354Y160940D01*
X163226Y161235D01*
X164105Y161509D01*
X164991Y161762D01*
X165882Y161993D01*
X166779Y162202D01*
X167680Y162390D01*
X168586Y162556D01*
X169495Y162700D01*
X170408Y162822D01*
X171323Y162922D01*
X172240Y163000D01*
X173159Y163056D01*
X174079Y163089D01*
X175000Y163100D01*
X175000Y156750D02*
X174233Y156741D01*
X173466Y156713D01*
X172700Y156667D01*
X171936Y156602D01*
X171173Y156519D01*
X170412Y156417D01*
X169655Y156297D01*
X168900Y156159D01*
X168149Y156002D01*
X167402Y155827D01*
X166659Y155635D01*
X165921Y155424D01*
X165189Y155196D01*
X164462Y154950D01*
X163741Y154687D01*
X163027Y154406D01*
X162320Y154108D01*
X161621Y153793D01*
X160929Y153462D01*
X160245Y153113D01*
X159570Y152748D01*
X158904Y152368D01*
X158247Y151971D01*
X157601Y151558D01*
X156964Y151130D01*
X156338Y150686D01*
X155723Y150228D01*
X155119Y149755D01*
X154526Y149267D01*
X153946Y148765D01*
X153378Y148250D01*
X152822Y147720D01*
X152280Y147178D01*
X151750Y146622D01*
X151235Y146054D01*
X150733Y145474D01*
X150245Y144881D01*
X149772Y144277D01*
X149314Y143662D01*
X148870Y143036D01*
X148442Y142399D01*
X148029Y141753D01*
X147632Y141096D01*
X147252Y140430D01*
X146887Y139755D01*
X146538Y139071D01*
X146207Y138379D01*
X145892Y137680D01*
X145594Y136973D01*
X145313Y136259D01*
X145050Y135538D01*
X144804Y134811D01*
X144576Y134079D01*
X144365Y133341D01*
X144173Y132598D01*
X143998Y131851D01*
X143841Y131100D01*
X143703Y130345D01*
X143583Y129588D01*
X143481Y128827D01*
X143398Y128064D01*
X143333Y127300D01*
X143287Y126534D01*
X143259Y125767D01*
X143250Y125000D01*
X149600Y125000D02*
X149607Y125614D01*
X149630Y126227D01*
X149667Y126840D01*
X149719Y127451D01*
X149785Y128062D01*
X149867Y128670D01*
X149963Y129276D01*
X150073Y129880D01*
X150198Y130481D01*
X150338Y131079D01*
X150492Y131673D01*
X150661Y132263D01*
X150843Y132849D01*
X151040Y133430D01*
X151251Y134007D01*
X151475Y134578D01*
X151713Y135144D01*
X151965Y135704D01*
X152231Y136257D01*
X152509Y136804D01*
X152801Y137344D01*
X153106Y137877D01*
X153424Y138402D01*
X153754Y138920D01*
X154096Y139429D01*
X154451Y139930D01*
X154818Y140422D01*
X155196Y140905D01*
X155586Y141379D01*
X155988Y141843D01*
X156400Y142298D01*
X156824Y142742D01*
X157258Y143176D01*
X157702Y143600D01*
X158157Y144012D01*
X158621Y144414D01*
X159095Y144804D01*
X159578Y145182D01*
X160070Y145549D01*
X160571Y145904D01*
X161080Y146246D01*
X161598Y146576D01*
X162123Y146894D01*
X162656Y147199D01*
X163196Y147491D01*
X163743Y147769D01*
X164296Y148035D01*
X164856Y148287D01*
X165422Y148525D01*
X165993Y148749D01*
X166570Y148960D01*
X167151Y149157D01*
X167737Y149339D01*
X168327Y149508D01*
X168921Y149662D01*
X169519Y149802D01*
X170120Y149927D01*
X170724Y150037D01*
X171330Y150133D01*
X171938Y150215D01*
X172549Y150281D01*
X173160Y150333D01*
X173773Y150370D01*
X174386Y150393D01*
X175000Y150400D01*
D71*
X225800Y150400D02*
X225800Y99600D01*
D72*
X124200Y125000D02*
X124215Y126247D01*
X124261Y127493D01*
X124338Y128737D01*
X124445Y129979D01*
X124582Y131218D01*
X124750Y132454D01*
X124948Y133685D01*
X125176Y134911D01*
X125434Y136130D01*
X125722Y137343D01*
X126040Y138549D01*
X126387Y139746D01*
X126764Y140935D01*
X127170Y142114D01*
X127604Y143283D01*
X128067Y144440D01*
X128558Y145586D01*
X129077Y146720D01*
X129624Y147840D01*
X130198Y148947D01*
X130800Y150039D01*
X131427Y151116D01*
X132081Y152178D01*
X132761Y153223D01*
X133467Y154251D01*
X134197Y155262D01*
X134952Y156254D01*
X135731Y157227D01*
X136534Y158181D01*
X137360Y159115D01*
X138208Y160029D01*
X139079Y160921D01*
X139971Y161792D01*
X140885Y162640D01*
X141819Y163466D01*
X142773Y164269D01*
X143746Y165048D01*
X144738Y165803D01*
X145749Y166533D01*
X146777Y167239D01*
X147822Y167919D01*
X148884Y168573D01*
X149961Y169200D01*
X151053Y169802D01*
X152160Y170376D01*
X153280Y170923D01*
X154414Y171442D01*
X155560Y171933D01*
X156717Y172396D01*
X157886Y172830D01*
X159065Y173236D01*
X160254Y173613D01*
X161451Y173960D01*
X162657Y174278D01*
X163870Y174566D01*
X165089Y174824D01*
X166315Y175052D01*
X167546Y175250D01*
X168782Y175418D01*
X170021Y175555D01*
X171263Y175662D01*
X172507Y175739D01*
X173753Y175785D01*
X175000Y175800D01*
X176247Y175785D01*
X177493Y175739D01*
X178737Y175662D01*
X179979Y175555D01*
X181218Y175418D01*
X182454Y175250D01*
X183685Y175052D01*
X184911Y174824D01*
X186130Y174566D01*
X187343Y174278D01*
X188549Y173960D01*
X189746Y173613D01*
X190935Y173236D01*
X192114Y172830D01*
X193283Y172396D01*
X194440Y171933D01*
X195586Y171442D01*
X196720Y170923D01*
X197840Y170376D01*
X198947Y169802D01*
X200039Y169200D01*
X201116Y168573D01*
X202178Y167919D01*
X203223Y167239D01*
X204251Y166533D01*
X205262Y165803D01*
X206254Y165048D01*
X207227Y164269D01*
X208181Y163466D01*
X209115Y162640D01*
X210029Y161792D01*
X210921Y160921D01*
X211792Y160029D01*
X212640Y159115D01*
X213466Y158181D01*
X214269Y157227D01*
X215048Y156254D01*
X215803Y155262D01*
X216533Y154251D01*
X217239Y153223D01*
X217919Y152178D01*
X218573Y151116D01*
X219200Y150039D01*
X219802Y148947D01*
X220376Y147840D01*
X220923Y146720D01*
X221442Y145586D01*
X221933Y144440D01*
X222396Y143283D01*
X222830Y142114D01*
X223236Y140935D01*
X223613Y139746D01*
X223960Y138549D01*
X224278Y137343D01*
X224566Y136130D01*
X224824Y134911D01*
X225052Y133685D01*
X225250Y132454D01*
X225418Y131218D01*
X225555Y129979D01*
X225662Y128737D01*
X225739Y127493D01*
X225785Y126247D01*
X225800Y125000D01*
X225785Y123753D01*
X225739Y122507D01*
X225662Y121263D01*
X225555Y120021D01*
X225418Y118782D01*
X225250Y117546D01*
X225052Y116315D01*
X224824Y115089D01*
X224566Y113870D01*
X224278Y112657D01*
X223960Y111451D01*
X223613Y110254D01*
X223236Y109065D01*
X222830Y107886D01*
X222396Y106717D01*
X221933Y105560D01*
X221442Y104414D01*
X220923Y103280D01*
X220376Y102160D01*
X219802Y101053D01*
X219200Y99961D01*
X218573Y98884D01*
X217919Y97822D01*
X217239Y96777D01*
X216533Y95749D01*
X215803Y94738D01*
X215048Y93746D01*
X214269Y92773D01*
X213466Y91819D01*
X212640Y90885D01*
X211792Y89971D01*
X210921Y89079D01*
X210029Y88208D01*
X209115Y87360D01*
X208181Y86534D01*
X207227Y85731D01*
X206254Y84952D01*
X205262Y84197D01*
X204251Y83467D01*
X203223Y82761D01*
X202178Y82081D01*
X201116Y81427D01*
X200039Y80800D01*
X198947Y80198D01*
X197840Y79624D01*
X196720Y79077D01*
X195586Y78558D01*
X194440Y78067D01*
X193283Y77604D01*
X192114Y77170D01*
X190935Y76764D01*
X189746Y76387D01*
X188549Y76040D01*
X187343Y75722D01*
X186130Y75434D01*
X184911Y75176D01*
X183685Y74948D01*
X182454Y74750D01*
X181218Y74582D01*
X179979Y74445D01*
X178737Y74338D01*
X177493Y74261D01*
X176247Y74215D01*
X175000Y74200D01*
X173753Y74215D01*
X172507Y74261D01*
X171263Y74338D01*
X170021Y74445D01*
X168782Y74582D01*
X167546Y74750D01*
X166315Y74948D01*
X165089Y75176D01*
X163870Y75434D01*
X162657Y75722D01*
X161451Y76040D01*
X160254Y76387D01*
X159065Y76764D01*
X157886Y77170D01*
X156717Y77604D01*
X155560Y78067D01*
X154414Y78558D01*
X153280Y79077D01*
X152160Y79624D01*
X151053Y80198D01*
X149961Y80800D01*
X148884Y81427D01*
X147822Y82081D01*
X146777Y82761D01*
X145749Y83467D01*
X144738Y84197D01*
X143746Y84952D01*
X142773Y85731D01*
X141819Y86534D01*
X140885Y87360D01*
X139971Y88208D01*
X139079Y89079D01*
X138208Y89971D01*
X137360Y90885D01*
X136534Y91819D01*
X135731Y92773D01*
X134952Y93746D01*
X134197Y94738D01*
X133467Y95749D01*
X132761Y96777D01*
X132081Y97822D01*
X131427Y98884D01*
X130800Y99961D01*
X130198Y101053D01*
X129624Y102160D01*
X129077Y103280D01*
X128558Y104414D01*
X128067Y105560D01*
X127604Y106717D01*
X127170Y107886D01*
X126764Y109065D01*
X126387Y110254D01*
X126040Y111451D01*
X125722Y112657D01*
X125434Y113870D01*
X125176Y115089D01*
X124948Y116315D01*
X124750Y117546D01*
X124582Y118782D01*
X124445Y120021D01*
X124338Y121263D01*
X124261Y122507D01*
X124215Y123753D01*
X124200Y125000D01*
D73*
X239008Y99101D02*
X250692Y99101D01*
X250692Y104293D01*
X250692Y109007D02*
X250692Y114199D01*
X250692Y109007D02*
X239008Y109007D01*
X239008Y114199D01*
X244201Y112901D02*
X244201Y109007D01*
X239008Y118890D02*
X250692Y118890D01*
X239008Y118890D02*
X239008Y122135D01*
X239010Y122248D01*
X239016Y122361D01*
X239026Y122474D01*
X239040Y122587D01*
X239057Y122699D01*
X239079Y122810D01*
X239104Y122920D01*
X239134Y123030D01*
X239167Y123138D01*
X239204Y123245D01*
X239244Y123351D01*
X239289Y123455D01*
X239337Y123558D01*
X239388Y123659D01*
X239443Y123758D01*
X239501Y123855D01*
X239563Y123950D01*
X239628Y124043D01*
X239696Y124133D01*
X239767Y124221D01*
X239842Y124307D01*
X239919Y124390D01*
X239999Y124470D01*
X240082Y124547D01*
X240168Y124622D01*
X240256Y124693D01*
X240346Y124761D01*
X240439Y124826D01*
X240534Y124888D01*
X240631Y124946D01*
X240730Y125001D01*
X240831Y125052D01*
X240934Y125100D01*
X241038Y125145D01*
X241144Y125185D01*
X241251Y125222D01*
X241359Y125255D01*
X241469Y125285D01*
X241579Y125310D01*
X241690Y125332D01*
X241802Y125349D01*
X241915Y125363D01*
X242028Y125373D01*
X242141Y125379D01*
X242254Y125381D01*
X247446Y125381D01*
X247446Y125382D02*
X247559Y125380D01*
X247672Y125374D01*
X247785Y125364D01*
X247898Y125350D01*
X248010Y125333D01*
X248121Y125311D01*
X248231Y125286D01*
X248341Y125256D01*
X248449Y125223D01*
X248556Y125186D01*
X248662Y125146D01*
X248766Y125101D01*
X248869Y125053D01*
X248970Y125002D01*
X249069Y124947D01*
X249166Y124889D01*
X249261Y124827D01*
X249354Y124762D01*
X249444Y124694D01*
X249532Y124623D01*
X249618Y124548D01*
X249701Y124471D01*
X249781Y124391D01*
X249858Y124308D01*
X249933Y124222D01*
X250004Y124134D01*
X250072Y124044D01*
X250137Y123951D01*
X250199Y123856D01*
X250257Y123759D01*
X250312Y123660D01*
X250363Y123559D01*
X250411Y123456D01*
X250456Y123352D01*
X250496Y123246D01*
X250533Y123139D01*
X250566Y123031D01*
X250596Y122921D01*
X250621Y122811D01*
X250643Y122700D01*
X250660Y122588D01*
X250674Y122475D01*
X250684Y122362D01*
X250690Y122249D01*
X250692Y122136D01*
X250692Y122135D02*
X250692Y118890D01*
X241604Y130701D02*
X239008Y133946D01*
X250692Y133946D01*
X250692Y130701D02*
X250692Y137192D01*
D71*
X375800Y150400D02*
X375164Y151635D01*
X374497Y152853D01*
X373801Y154055D01*
X373076Y155240D01*
X372322Y156407D01*
X371540Y157554D01*
X370730Y158683D01*
X369893Y159791D01*
X369029Y160878D01*
X368138Y161944D01*
X367222Y162988D01*
X366280Y164009D01*
X365314Y165007D01*
X364324Y165981D01*
X363310Y166930D01*
X362273Y167855D01*
X361214Y168753D01*
X360133Y169626D01*
X359031Y170471D01*
X357909Y171290D01*
X356767Y172081D01*
X355607Y172844D01*
X354427Y173578D01*
X353231Y174283D01*
X352017Y174959D01*
X350787Y175604D01*
X349542Y176220D01*
X348282Y176805D01*
X347009Y177358D01*
X345722Y177881D01*
X344422Y178372D01*
X343111Y178831D01*
X341790Y179258D01*
X340458Y179652D01*
X339117Y180014D01*
X337767Y180342D01*
X336410Y180638D01*
X335046Y180900D01*
X333676Y181129D01*
X332301Y181325D01*
X330921Y181486D01*
X329538Y181614D01*
X328153Y181708D01*
X326765Y181769D01*
X325376Y181795D01*
X323987Y181787D01*
X322599Y181745D01*
X321212Y181670D01*
X319827Y181560D01*
X318446Y181417D01*
X317068Y181239D01*
X315695Y181029D01*
X314328Y180784D01*
X312967Y180507D01*
X311613Y180196D01*
X310267Y179852D01*
X308931Y179475D01*
X307603Y179066D01*
X306286Y178624D01*
X304981Y178151D01*
X303687Y177645D01*
X302406Y177108D01*
X301138Y176540D01*
X299885Y175941D01*
X298647Y175312D01*
X297425Y174653D01*
X296219Y173963D01*
X295030Y173245D01*
X293859Y172498D01*
X292707Y171722D01*
X291574Y170918D01*
X290461Y170087D01*
X289369Y169229D01*
X288298Y168345D01*
X287249Y167434D01*
X286223Y166498D01*
X285219Y165538D01*
X284240Y164553D01*
X283285Y163544D01*
X282355Y162513D01*
X281450Y161458D01*
X280572Y160383D01*
X279720Y159286D01*
X278895Y158168D01*
X278098Y157031D01*
X277329Y155874D01*
X276588Y154699D01*
X275876Y153507D01*
X275194Y152297D01*
X274541Y151071D01*
X273919Y149829D01*
X273327Y148572D01*
X272766Y147302D01*
X272236Y146018D01*
X271738Y144721D01*
X271271Y143413D01*
X270837Y142093D01*
X270435Y140764D01*
X270066Y139425D01*
X269730Y138077D01*
X269427Y136722D01*
X269157Y135359D01*
X268920Y133991D01*
X268717Y132617D01*
X268548Y131238D01*
X268412Y129856D01*
X268310Y128470D01*
X268242Y127083D01*
X268208Y125694D01*
X268208Y124306D01*
X268242Y122917D01*
X268310Y121530D01*
X268412Y120144D01*
X268548Y118762D01*
X268717Y117383D01*
X268920Y116009D01*
X269157Y114641D01*
X269427Y113278D01*
X269730Y111923D01*
X270066Y110575D01*
X270435Y109236D01*
X270837Y107907D01*
X271271Y106587D01*
X271738Y105279D01*
X272236Y103982D01*
X272766Y102698D01*
X273327Y101428D01*
X273919Y100171D01*
X274541Y98929D01*
X275194Y97703D01*
X275876Y96493D01*
X276588Y95301D01*
X277329Y94126D01*
X278098Y92969D01*
X278895Y91832D01*
X279720Y90714D01*
X280572Y89617D01*
X281450Y88542D01*
X282355Y87487D01*
X283285Y86456D01*
X284240Y85447D01*
X285219Y84462D01*
X286223Y83502D01*
X287249Y82566D01*
X288298Y81655D01*
X289369Y80771D01*
X290461Y79913D01*
X291574Y79082D01*
X292707Y78278D01*
X293859Y77502D01*
X295030Y76755D01*
X296219Y76037D01*
X297425Y75347D01*
X298647Y74688D01*
X299885Y74059D01*
X301138Y73460D01*
X302406Y72892D01*
X303687Y72355D01*
X304981Y71849D01*
X306286Y71376D01*
X307603Y70934D01*
X308931Y70525D01*
X310267Y70148D01*
X311613Y69804D01*
X312967Y69493D01*
X314328Y69216D01*
X315695Y68971D01*
X317068Y68761D01*
X318446Y68583D01*
X319827Y68440D01*
X321212Y68330D01*
X322599Y68255D01*
X323987Y68213D01*
X325376Y68205D01*
X326765Y68231D01*
X328153Y68292D01*
X329538Y68386D01*
X330921Y68514D01*
X332301Y68675D01*
X333676Y68871D01*
X335046Y69100D01*
X336410Y69362D01*
X337767Y69658D01*
X339117Y69986D01*
X340458Y70348D01*
X341790Y70742D01*
X343111Y71169D01*
X344422Y71628D01*
X345722Y72119D01*
X347009Y72642D01*
X348282Y73195D01*
X349542Y73780D01*
X350787Y74396D01*
X352017Y75041D01*
X353231Y75717D01*
X354427Y76422D01*
X355607Y77156D01*
X356767Y77919D01*
X357909Y78710D01*
X359031Y79529D01*
X360133Y80374D01*
X361214Y81247D01*
X362273Y82145D01*
X363310Y83070D01*
X364324Y84019D01*
X365314Y84993D01*
X366280Y85991D01*
X367222Y87012D01*
X368138Y88056D01*
X369029Y89122D01*
X369893Y90209D01*
X370730Y91317D01*
X371540Y92446D01*
X372322Y93593D01*
X373076Y94760D01*
X373801Y95945D01*
X374497Y97147D01*
X375164Y98365D01*
X375800Y99600D01*
D72*
X369450Y125000D02*
X369437Y123926D01*
X369398Y122852D01*
X369333Y121780D01*
X369242Y120710D01*
X369126Y119642D01*
X368984Y118577D01*
X368816Y117517D01*
X368622Y116460D01*
X368403Y115408D01*
X368158Y114362D01*
X367889Y113323D01*
X367594Y112290D01*
X367274Y111264D01*
X366930Y110247D01*
X366561Y109238D01*
X366168Y108238D01*
X365751Y107248D01*
X365311Y106269D01*
X364846Y105300D01*
X364359Y104343D01*
X363848Y103398D01*
X363315Y102466D01*
X362759Y101546D01*
X362181Y100641D01*
X361582Y99750D01*
X360961Y98873D01*
X360319Y98012D01*
X359657Y97166D01*
X358974Y96337D01*
X358271Y95524D01*
X357549Y94729D01*
X356808Y93951D01*
X356049Y93192D01*
X355271Y92451D01*
X354476Y91729D01*
X353663Y91026D01*
X352834Y90343D01*
X351988Y89681D01*
X351127Y89039D01*
X350250Y88418D01*
X349359Y87819D01*
X348454Y87241D01*
X347534Y86685D01*
X346602Y86152D01*
X345657Y85641D01*
X344700Y85154D01*
X343731Y84689D01*
X342752Y84249D01*
X341762Y83832D01*
X340762Y83439D01*
X339753Y83070D01*
X338736Y82726D01*
X337710Y82406D01*
X336677Y82111D01*
X335638Y81842D01*
X334592Y81597D01*
X333540Y81378D01*
X332483Y81184D01*
X331423Y81016D01*
X330358Y80874D01*
X329290Y80758D01*
X328220Y80667D01*
X327148Y80602D01*
X326074Y80563D01*
X325000Y80550D01*
X325000Y86900D02*
X325921Y86911D01*
X326841Y86944D01*
X327760Y87000D01*
X328677Y87078D01*
X329592Y87178D01*
X330505Y87300D01*
X331414Y87444D01*
X332320Y87610D01*
X333221Y87798D01*
X334118Y88007D01*
X335009Y88238D01*
X335895Y88491D01*
X336774Y88765D01*
X337646Y89060D01*
X338510Y89376D01*
X339367Y89713D01*
X340216Y90070D01*
X341055Y90448D01*
X341886Y90846D01*
X342706Y91264D01*
X343516Y91702D01*
X344315Y92159D01*
X345103Y92635D01*
X345879Y93130D01*
X346643Y93644D01*
X347395Y94176D01*
X348133Y94727D01*
X348858Y95294D01*
X349568Y95880D01*
X350265Y96482D01*
X350947Y97101D01*
X351613Y97736D01*
X352264Y98387D01*
X352899Y99053D01*
X353518Y99735D01*
X354120Y100432D01*
X354706Y101142D01*
X355273Y101867D01*
X355824Y102605D01*
X356356Y103357D01*
X356870Y104121D01*
X357365Y104897D01*
X357841Y105685D01*
X358298Y106484D01*
X358736Y107294D01*
X359154Y108114D01*
X359552Y108945D01*
X359930Y109784D01*
X360287Y110633D01*
X360624Y111490D01*
X360940Y112354D01*
X361235Y113226D01*
X361509Y114105D01*
X361762Y114991D01*
X361993Y115882D01*
X362202Y116779D01*
X362390Y117680D01*
X362556Y118586D01*
X362700Y119495D01*
X362822Y120408D01*
X362922Y121323D01*
X363000Y122240D01*
X363056Y123159D01*
X363089Y124079D01*
X363100Y125000D01*
X356750Y125000D02*
X356741Y124233D01*
X356713Y123466D01*
X356667Y122700D01*
X356602Y121936D01*
X356519Y121173D01*
X356417Y120412D01*
X356297Y119655D01*
X356159Y118900D01*
X356002Y118149D01*
X355827Y117402D01*
X355635Y116659D01*
X355424Y115921D01*
X355196Y115189D01*
X354950Y114462D01*
X354687Y113741D01*
X354406Y113027D01*
X354108Y112320D01*
X353793Y111621D01*
X353462Y110929D01*
X353113Y110245D01*
X352748Y109570D01*
X352368Y108904D01*
X351971Y108247D01*
X351558Y107601D01*
X351130Y106964D01*
X350686Y106338D01*
X350228Y105723D01*
X349755Y105119D01*
X349267Y104526D01*
X348765Y103946D01*
X348250Y103378D01*
X347720Y102822D01*
X347178Y102280D01*
X346622Y101750D01*
X346054Y101235D01*
X345474Y100733D01*
X344881Y100245D01*
X344277Y99772D01*
X343662Y99314D01*
X343036Y98870D01*
X342399Y98442D01*
X341753Y98029D01*
X341096Y97632D01*
X340430Y97252D01*
X339755Y96887D01*
X339071Y96538D01*
X338379Y96207D01*
X337680Y95892D01*
X336973Y95594D01*
X336259Y95313D01*
X335538Y95050D01*
X334811Y94804D01*
X334079Y94576D01*
X333341Y94365D01*
X332598Y94173D01*
X331851Y93998D01*
X331100Y93841D01*
X330345Y93703D01*
X329588Y93583D01*
X328827Y93481D01*
X328064Y93398D01*
X327300Y93333D01*
X326534Y93287D01*
X325767Y93259D01*
X325000Y93250D01*
X325000Y99600D02*
X325614Y99607D01*
X326227Y99630D01*
X326840Y99667D01*
X327451Y99719D01*
X328062Y99785D01*
X328670Y99867D01*
X329276Y99963D01*
X329880Y100073D01*
X330481Y100198D01*
X331079Y100338D01*
X331673Y100492D01*
X332263Y100661D01*
X332849Y100843D01*
X333430Y101040D01*
X334007Y101251D01*
X334578Y101475D01*
X335144Y101713D01*
X335704Y101965D01*
X336257Y102231D01*
X336804Y102509D01*
X337344Y102801D01*
X337877Y103106D01*
X338402Y103424D01*
X338920Y103754D01*
X339429Y104096D01*
X339930Y104451D01*
X340422Y104818D01*
X340905Y105196D01*
X341379Y105586D01*
X341843Y105988D01*
X342298Y106400D01*
X342742Y106824D01*
X343176Y107258D01*
X343600Y107702D01*
X344012Y108157D01*
X344414Y108621D01*
X344804Y109095D01*
X345182Y109578D01*
X345549Y110070D01*
X345904Y110571D01*
X346246Y111080D01*
X346576Y111598D01*
X346894Y112123D01*
X347199Y112656D01*
X347491Y113196D01*
X347769Y113743D01*
X348035Y114296D01*
X348287Y114856D01*
X348525Y115422D01*
X348749Y115993D01*
X348960Y116570D01*
X349157Y117151D01*
X349339Y117737D01*
X349508Y118327D01*
X349662Y118921D01*
X349802Y119519D01*
X349927Y120120D01*
X350037Y120724D01*
X350133Y121330D01*
X350215Y121938D01*
X350281Y122549D01*
X350333Y123160D01*
X350370Y123773D01*
X350393Y124386D01*
X350400Y125000D01*
X325000Y169450D02*
X323926Y169437D01*
X322852Y169398D01*
X321780Y169333D01*
X320710Y169242D01*
X319642Y169126D01*
X318577Y168984D01*
X317517Y168816D01*
X316460Y168622D01*
X315408Y168403D01*
X314362Y168158D01*
X313323Y167889D01*
X312290Y167594D01*
X311264Y167274D01*
X310247Y166930D01*
X309238Y166561D01*
X308238Y166168D01*
X307248Y165751D01*
X306269Y165311D01*
X305300Y164846D01*
X304343Y164359D01*
X303398Y163848D01*
X302466Y163315D01*
X301546Y162759D01*
X300641Y162181D01*
X299750Y161582D01*
X298873Y160961D01*
X298012Y160319D01*
X297166Y159657D01*
X296337Y158974D01*
X295524Y158271D01*
X294729Y157549D01*
X293951Y156808D01*
X293192Y156049D01*
X292451Y155271D01*
X291729Y154476D01*
X291026Y153663D01*
X290343Y152834D01*
X289681Y151988D01*
X289039Y151127D01*
X288418Y150250D01*
X287819Y149359D01*
X287241Y148454D01*
X286685Y147534D01*
X286152Y146602D01*
X285641Y145657D01*
X285154Y144700D01*
X284689Y143731D01*
X284249Y142752D01*
X283832Y141762D01*
X283439Y140762D01*
X283070Y139753D01*
X282726Y138736D01*
X282406Y137710D01*
X282111Y136677D01*
X281842Y135638D01*
X281597Y134592D01*
X281378Y133540D01*
X281184Y132483D01*
X281016Y131423D01*
X280874Y130358D01*
X280758Y129290D01*
X280667Y128220D01*
X280602Y127148D01*
X280563Y126074D01*
X280550Y125000D01*
X286900Y125000D02*
X286911Y125921D01*
X286944Y126841D01*
X287000Y127760D01*
X287078Y128677D01*
X287178Y129592D01*
X287300Y130505D01*
X287444Y131414D01*
X287610Y132320D01*
X287798Y133221D01*
X288007Y134118D01*
X288238Y135009D01*
X288491Y135895D01*
X288765Y136774D01*
X289060Y137646D01*
X289376Y138510D01*
X289713Y139367D01*
X290070Y140216D01*
X290448Y141055D01*
X290846Y141886D01*
X291264Y142706D01*
X291702Y143516D01*
X292159Y144315D01*
X292635Y145103D01*
X293130Y145879D01*
X293644Y146643D01*
X294176Y147395D01*
X294727Y148133D01*
X295294Y148858D01*
X295880Y149568D01*
X296482Y150265D01*
X297101Y150947D01*
X297736Y151613D01*
X298387Y152264D01*
X299053Y152899D01*
X299735Y153518D01*
X300432Y154120D01*
X301142Y154706D01*
X301867Y155273D01*
X302605Y155824D01*
X303357Y156356D01*
X304121Y156870D01*
X304897Y157365D01*
X305685Y157841D01*
X306484Y158298D01*
X307294Y158736D01*
X308114Y159154D01*
X308945Y159552D01*
X309784Y159930D01*
X310633Y160287D01*
X311490Y160624D01*
X312354Y160940D01*
X313226Y161235D01*
X314105Y161509D01*
X314991Y161762D01*
X315882Y161993D01*
X316779Y162202D01*
X317680Y162390D01*
X318586Y162556D01*
X319495Y162700D01*
X320408Y162822D01*
X321323Y162922D01*
X322240Y163000D01*
X323159Y163056D01*
X324079Y163089D01*
X325000Y163100D01*
X325000Y156750D02*
X324233Y156741D01*
X323466Y156713D01*
X322700Y156667D01*
X321936Y156602D01*
X321173Y156519D01*
X320412Y156417D01*
X319655Y156297D01*
X318900Y156159D01*
X318149Y156002D01*
X317402Y155827D01*
X316659Y155635D01*
X315921Y155424D01*
X315189Y155196D01*
X314462Y154950D01*
X313741Y154687D01*
X313027Y154406D01*
X312320Y154108D01*
X311621Y153793D01*
X310929Y153462D01*
X310245Y153113D01*
X309570Y152748D01*
X308904Y152368D01*
X308247Y151971D01*
X307601Y151558D01*
X306964Y151130D01*
X306338Y150686D01*
X305723Y150228D01*
X305119Y149755D01*
X304526Y149267D01*
X303946Y148765D01*
X303378Y148250D01*
X302822Y147720D01*
X302280Y147178D01*
X301750Y146622D01*
X301235Y146054D01*
X300733Y145474D01*
X300245Y144881D01*
X299772Y144277D01*
X299314Y143662D01*
X298870Y143036D01*
X298442Y142399D01*
X298029Y141753D01*
X297632Y141096D01*
X297252Y140430D01*
X296887Y139755D01*
X296538Y139071D01*
X296207Y138379D01*
X295892Y137680D01*
X295594Y136973D01*
X295313Y136259D01*
X295050Y135538D01*
X294804Y134811D01*
X294576Y134079D01*
X294365Y133341D01*
X294173Y132598D01*
X293998Y131851D01*
X293841Y131100D01*
X293703Y130345D01*
X293583Y129588D01*
X293481Y128827D01*
X293398Y128064D01*
X293333Y127300D01*
X293287Y126534D01*
X293259Y125767D01*
X293250Y125000D01*
X299600Y125000D02*
X299607Y125614D01*
X299630Y126227D01*
X299667Y126840D01*
X299719Y127451D01*
X299785Y128062D01*
X299867Y128670D01*
X299963Y129276D01*
X300073Y129880D01*
X300198Y130481D01*
X300338Y131079D01*
X300492Y131673D01*
X300661Y132263D01*
X300843Y132849D01*
X301040Y133430D01*
X301251Y134007D01*
X301475Y134578D01*
X301713Y135144D01*
X301965Y135704D01*
X302231Y136257D01*
X302509Y136804D01*
X302801Y137344D01*
X303106Y137877D01*
X303424Y138402D01*
X303754Y138920D01*
X304096Y139429D01*
X304451Y139930D01*
X304818Y140422D01*
X305196Y140905D01*
X305586Y141379D01*
X305988Y141843D01*
X306400Y142298D01*
X306824Y142742D01*
X307258Y143176D01*
X307702Y143600D01*
X308157Y144012D01*
X308621Y144414D01*
X309095Y144804D01*
X309578Y145182D01*
X310070Y145549D01*
X310571Y145904D01*
X311080Y146246D01*
X311598Y146576D01*
X312123Y146894D01*
X312656Y147199D01*
X313196Y147491D01*
X313743Y147769D01*
X314296Y148035D01*
X314856Y148287D01*
X315422Y148525D01*
X315993Y148749D01*
X316570Y148960D01*
X317151Y149157D01*
X317737Y149339D01*
X318327Y149508D01*
X318921Y149662D01*
X319519Y149802D01*
X320120Y149927D01*
X320724Y150037D01*
X321330Y150133D01*
X321938Y150215D01*
X322549Y150281D01*
X323160Y150333D01*
X323773Y150370D01*
X324386Y150393D01*
X325000Y150400D01*
D71*
X375800Y150400D02*
X375800Y99600D01*
D72*
X274200Y125000D02*
X274215Y126247D01*
X274261Y127493D01*
X274338Y128737D01*
X274445Y129979D01*
X274582Y131218D01*
X274750Y132454D01*
X274948Y133685D01*
X275176Y134911D01*
X275434Y136130D01*
X275722Y137343D01*
X276040Y138549D01*
X276387Y139746D01*
X276764Y140935D01*
X277170Y142114D01*
X277604Y143283D01*
X278067Y144440D01*
X278558Y145586D01*
X279077Y146720D01*
X279624Y147840D01*
X280198Y148947D01*
X280800Y150039D01*
X281427Y151116D01*
X282081Y152178D01*
X282761Y153223D01*
X283467Y154251D01*
X284197Y155262D01*
X284952Y156254D01*
X285731Y157227D01*
X286534Y158181D01*
X287360Y159115D01*
X288208Y160029D01*
X289079Y160921D01*
X289971Y161792D01*
X290885Y162640D01*
X291819Y163466D01*
X292773Y164269D01*
X293746Y165048D01*
X294738Y165803D01*
X295749Y166533D01*
X296777Y167239D01*
X297822Y167919D01*
X298884Y168573D01*
X299961Y169200D01*
X301053Y169802D01*
X302160Y170376D01*
X303280Y170923D01*
X304414Y171442D01*
X305560Y171933D01*
X306717Y172396D01*
X307886Y172830D01*
X309065Y173236D01*
X310254Y173613D01*
X311451Y173960D01*
X312657Y174278D01*
X313870Y174566D01*
X315089Y174824D01*
X316315Y175052D01*
X317546Y175250D01*
X318782Y175418D01*
X320021Y175555D01*
X321263Y175662D01*
X322507Y175739D01*
X323753Y175785D01*
X325000Y175800D01*
X326247Y175785D01*
X327493Y175739D01*
X328737Y175662D01*
X329979Y175555D01*
X331218Y175418D01*
X332454Y175250D01*
X333685Y175052D01*
X334911Y174824D01*
X336130Y174566D01*
X337343Y174278D01*
X338549Y173960D01*
X339746Y173613D01*
X340935Y173236D01*
X342114Y172830D01*
X343283Y172396D01*
X344440Y171933D01*
X345586Y171442D01*
X346720Y170923D01*
X347840Y170376D01*
X348947Y169802D01*
X350039Y169200D01*
X351116Y168573D01*
X352178Y167919D01*
X353223Y167239D01*
X354251Y166533D01*
X355262Y165803D01*
X356254Y165048D01*
X357227Y164269D01*
X358181Y163466D01*
X359115Y162640D01*
X360029Y161792D01*
X360921Y160921D01*
X361792Y160029D01*
X362640Y159115D01*
X363466Y158181D01*
X364269Y157227D01*
X365048Y156254D01*
X365803Y155262D01*
X366533Y154251D01*
X367239Y153223D01*
X367919Y152178D01*
X368573Y151116D01*
X369200Y150039D01*
X369802Y148947D01*
X370376Y147840D01*
X370923Y146720D01*
X371442Y145586D01*
X371933Y144440D01*
X372396Y143283D01*
X372830Y142114D01*
X373236Y140935D01*
X373613Y139746D01*
X373960Y138549D01*
X374278Y137343D01*
X374566Y136130D01*
X374824Y134911D01*
X375052Y133685D01*
X375250Y132454D01*
X375418Y131218D01*
X375555Y129979D01*
X375662Y128737D01*
X375739Y127493D01*
X375785Y126247D01*
X375800Y125000D01*
X375785Y123753D01*
X375739Y122507D01*
X375662Y121263D01*
X375555Y120021D01*
X375418Y118782D01*
X375250Y117546D01*
X375052Y116315D01*
X374824Y115089D01*
X374566Y113870D01*
X374278Y112657D01*
X373960Y111451D01*
X373613Y110254D01*
X373236Y109065D01*
X372830Y107886D01*
X372396Y106717D01*
X371933Y105560D01*
X371442Y104414D01*
X370923Y103280D01*
X370376Y102160D01*
X369802Y101053D01*
X369200Y99961D01*
X368573Y98884D01*
X367919Y97822D01*
X367239Y96777D01*
X366533Y95749D01*
X365803Y94738D01*
X365048Y93746D01*
X364269Y92773D01*
X363466Y91819D01*
X362640Y90885D01*
X361792Y89971D01*
X360921Y89079D01*
X360029Y88208D01*
X359115Y87360D01*
X358181Y86534D01*
X357227Y85731D01*
X356254Y84952D01*
X355262Y84197D01*
X354251Y83467D01*
X353223Y82761D01*
X352178Y82081D01*
X351116Y81427D01*
X350039Y80800D01*
X348947Y80198D01*
X347840Y79624D01*
X346720Y79077D01*
X345586Y78558D01*
X344440Y78067D01*
X343283Y77604D01*
X342114Y77170D01*
X340935Y76764D01*
X339746Y76387D01*
X338549Y76040D01*
X337343Y75722D01*
X336130Y75434D01*
X334911Y75176D01*
X333685Y74948D01*
X332454Y74750D01*
X331218Y74582D01*
X329979Y74445D01*
X328737Y74338D01*
X327493Y74261D01*
X326247Y74215D01*
X325000Y74200D01*
X323753Y74215D01*
X322507Y74261D01*
X321263Y74338D01*
X320021Y74445D01*
X318782Y74582D01*
X317546Y74750D01*
X316315Y74948D01*
X315089Y75176D01*
X313870Y75434D01*
X312657Y75722D01*
X311451Y76040D01*
X310254Y76387D01*
X309065Y76764D01*
X307886Y77170D01*
X306717Y77604D01*
X305560Y78067D01*
X304414Y78558D01*
X303280Y79077D01*
X302160Y79624D01*
X301053Y80198D01*
X299961Y80800D01*
X298884Y81427D01*
X297822Y82081D01*
X296777Y82761D01*
X295749Y83467D01*
X294738Y84197D01*
X293746Y84952D01*
X292773Y85731D01*
X291819Y86534D01*
X290885Y87360D01*
X289971Y88208D01*
X289079Y89079D01*
X288208Y89971D01*
X287360Y90885D01*
X286534Y91819D01*
X285731Y92773D01*
X284952Y93746D01*
X284197Y94738D01*
X283467Y95749D01*
X282761Y96777D01*
X282081Y97822D01*
X281427Y98884D01*
X280800Y99961D01*
X280198Y101053D01*
X279624Y102160D01*
X279077Y103280D01*
X278558Y104414D01*
X278067Y105560D01*
X277604Y106717D01*
X277170Y107886D01*
X276764Y109065D01*
X276387Y110254D01*
X276040Y111451D01*
X275722Y112657D01*
X275434Y113870D01*
X275176Y115089D01*
X274948Y116315D01*
X274750Y117546D01*
X274582Y118782D01*
X274445Y120021D01*
X274338Y121263D01*
X274261Y122507D01*
X274215Y123753D01*
X274200Y125000D01*
D73*
X389008Y99101D02*
X400692Y99101D01*
X400692Y104293D01*
X400692Y109007D02*
X400692Y114199D01*
X400692Y109007D02*
X389008Y109007D01*
X389008Y114199D01*
X394201Y112901D02*
X394201Y109007D01*
X389008Y118890D02*
X400692Y118890D01*
X389008Y118890D02*
X389008Y122135D01*
X389010Y122248D01*
X389016Y122361D01*
X389026Y122474D01*
X389040Y122587D01*
X389057Y122699D01*
X389079Y122810D01*
X389104Y122920D01*
X389134Y123030D01*
X389167Y123138D01*
X389204Y123245D01*
X389244Y123351D01*
X389289Y123455D01*
X389337Y123558D01*
X389388Y123659D01*
X389443Y123758D01*
X389501Y123855D01*
X389563Y123950D01*
X389628Y124043D01*
X389696Y124133D01*
X389767Y124221D01*
X389842Y124307D01*
X389919Y124390D01*
X389999Y124470D01*
X390082Y124547D01*
X390168Y124622D01*
X390256Y124693D01*
X390346Y124761D01*
X390439Y124826D01*
X390534Y124888D01*
X390631Y124946D01*
X390730Y125001D01*
X390831Y125052D01*
X390934Y125100D01*
X391038Y125145D01*
X391144Y125185D01*
X391251Y125222D01*
X391359Y125255D01*
X391469Y125285D01*
X391579Y125310D01*
X391690Y125332D01*
X391802Y125349D01*
X391915Y125363D01*
X392028Y125373D01*
X392141Y125379D01*
X392254Y125381D01*
X397446Y125381D01*
X397446Y125382D02*
X397559Y125380D01*
X397672Y125374D01*
X397785Y125364D01*
X397898Y125350D01*
X398010Y125333D01*
X398121Y125311D01*
X398231Y125286D01*
X398341Y125256D01*
X398449Y125223D01*
X398556Y125186D01*
X398662Y125146D01*
X398766Y125101D01*
X398869Y125053D01*
X398970Y125002D01*
X399069Y124947D01*
X399166Y124889D01*
X399261Y124827D01*
X399354Y124762D01*
X399444Y124694D01*
X399532Y124623D01*
X399618Y124548D01*
X399701Y124471D01*
X399781Y124391D01*
X399858Y124308D01*
X399933Y124222D01*
X400004Y124134D01*
X400072Y124044D01*
X400137Y123951D01*
X400199Y123856D01*
X400257Y123759D01*
X400312Y123660D01*
X400363Y123559D01*
X400411Y123456D01*
X400456Y123352D01*
X400496Y123246D01*
X400533Y123139D01*
X400566Y123031D01*
X400596Y122921D01*
X400621Y122811D01*
X400643Y122700D01*
X400660Y122588D01*
X400674Y122475D01*
X400684Y122362D01*
X400690Y122249D01*
X400692Y122136D01*
X400692Y122135D02*
X400692Y118890D01*
X389008Y134271D02*
X389010Y134378D01*
X389016Y134484D01*
X389026Y134590D01*
X389039Y134696D01*
X389057Y134802D01*
X389078Y134906D01*
X389103Y135010D01*
X389132Y135113D01*
X389164Y135214D01*
X389201Y135314D01*
X389241Y135413D01*
X389284Y135511D01*
X389331Y135607D01*
X389382Y135701D01*
X389436Y135793D01*
X389493Y135883D01*
X389553Y135971D01*
X389617Y136056D01*
X389684Y136139D01*
X389754Y136220D01*
X389826Y136298D01*
X389902Y136374D01*
X389980Y136446D01*
X390061Y136516D01*
X390144Y136583D01*
X390229Y136647D01*
X390317Y136707D01*
X390407Y136764D01*
X390499Y136818D01*
X390593Y136869D01*
X390689Y136916D01*
X390787Y136959D01*
X390886Y136999D01*
X390986Y137036D01*
X391087Y137068D01*
X391190Y137097D01*
X391294Y137122D01*
X391398Y137143D01*
X391504Y137161D01*
X391610Y137174D01*
X391716Y137184D01*
X391822Y137190D01*
X391929Y137192D01*
X389008Y134271D02*
X389010Y134150D01*
X389016Y134029D01*
X389026Y133909D01*
X389039Y133788D01*
X389057Y133669D01*
X389078Y133549D01*
X389103Y133431D01*
X389132Y133314D01*
X389165Y133197D01*
X389201Y133082D01*
X389242Y132968D01*
X389285Y132855D01*
X389333Y132743D01*
X389384Y132634D01*
X389439Y132526D01*
X389497Y132419D01*
X389558Y132315D01*
X389623Y132213D01*
X389691Y132113D01*
X389762Y132015D01*
X389836Y131919D01*
X389913Y131826D01*
X389994Y131736D01*
X390077Y131648D01*
X390163Y131563D01*
X390252Y131480D01*
X390343Y131401D01*
X390437Y131324D01*
X390533Y131251D01*
X390631Y131181D01*
X390732Y131114D01*
X390835Y131050D01*
X390940Y130990D01*
X391047Y130932D01*
X391155Y130879D01*
X391265Y130829D01*
X391377Y130783D01*
X391490Y130740D01*
X391605Y130701D01*
X394201Y136218D02*
X394123Y136297D01*
X394043Y136373D01*
X393960Y136446D01*
X393874Y136516D01*
X393787Y136583D01*
X393696Y136647D01*
X393604Y136707D01*
X393510Y136765D01*
X393413Y136819D01*
X393315Y136869D01*
X393215Y136916D01*
X393114Y136960D01*
X393011Y137000D01*
X392906Y137036D01*
X392801Y137068D01*
X392694Y137097D01*
X392587Y137122D01*
X392478Y137144D01*
X392369Y137161D01*
X392260Y137175D01*
X392150Y137184D01*
X392039Y137190D01*
X391929Y137192D01*
X394201Y136218D02*
X400692Y130701D01*
X400692Y137192D01*
D71*
X525800Y150400D02*
X525164Y151635D01*
X524497Y152853D01*
X523801Y154055D01*
X523076Y155240D01*
X522322Y156407D01*
X521540Y157554D01*
X520730Y158683D01*
X519893Y159791D01*
X519029Y160878D01*
X518138Y161944D01*
X517222Y162988D01*
X516280Y164009D01*
X515314Y165007D01*
X514324Y165981D01*
X513310Y166930D01*
X512273Y167855D01*
X511214Y168753D01*
X510133Y169626D01*
X509031Y170471D01*
X507909Y171290D01*
X506767Y172081D01*
X505607Y172844D01*
X504427Y173578D01*
X503231Y174283D01*
X502017Y174959D01*
X500787Y175604D01*
X499542Y176220D01*
X498282Y176805D01*
X497009Y177358D01*
X495722Y177881D01*
X494422Y178372D01*
X493111Y178831D01*
X491790Y179258D01*
X490458Y179652D01*
X489117Y180014D01*
X487767Y180342D01*
X486410Y180638D01*
X485046Y180900D01*
X483676Y181129D01*
X482301Y181325D01*
X480921Y181486D01*
X479538Y181614D01*
X478153Y181708D01*
X476765Y181769D01*
X475376Y181795D01*
X473987Y181787D01*
X472599Y181745D01*
X471212Y181670D01*
X469827Y181560D01*
X468446Y181417D01*
X467068Y181239D01*
X465695Y181029D01*
X464328Y180784D01*
X462967Y180507D01*
X461613Y180196D01*
X460267Y179852D01*
X458931Y179475D01*
X457603Y179066D01*
X456286Y178624D01*
X454981Y178151D01*
X453687Y177645D01*
X452406Y177108D01*
X451138Y176540D01*
X449885Y175941D01*
X448647Y175312D01*
X447425Y174653D01*
X446219Y173963D01*
X445030Y173245D01*
X443859Y172498D01*
X442707Y171722D01*
X441574Y170918D01*
X440461Y170087D01*
X439369Y169229D01*
X438298Y168345D01*
X437249Y167434D01*
X436223Y166498D01*
X435219Y165538D01*
X434240Y164553D01*
X433285Y163544D01*
X432355Y162513D01*
X431450Y161458D01*
X430572Y160383D01*
X429720Y159286D01*
X428895Y158168D01*
X428098Y157031D01*
X427329Y155874D01*
X426588Y154699D01*
X425876Y153507D01*
X425194Y152297D01*
X424541Y151071D01*
X423919Y149829D01*
X423327Y148572D01*
X422766Y147302D01*
X422236Y146018D01*
X421738Y144721D01*
X421271Y143413D01*
X420837Y142093D01*
X420435Y140764D01*
X420066Y139425D01*
X419730Y138077D01*
X419427Y136722D01*
X419157Y135359D01*
X418920Y133991D01*
X418717Y132617D01*
X418548Y131238D01*
X418412Y129856D01*
X418310Y128470D01*
X418242Y127083D01*
X418208Y125694D01*
X418208Y124306D01*
X418242Y122917D01*
X418310Y121530D01*
X418412Y120144D01*
X418548Y118762D01*
X418717Y117383D01*
X418920Y116009D01*
X419157Y114641D01*
X419427Y113278D01*
X419730Y111923D01*
X420066Y110575D01*
X420435Y109236D01*
X420837Y107907D01*
X421271Y106587D01*
X421738Y105279D01*
X422236Y103982D01*
X422766Y102698D01*
X423327Y101428D01*
X423919Y100171D01*
X424541Y98929D01*
X425194Y97703D01*
X425876Y96493D01*
X426588Y95301D01*
X427329Y94126D01*
X428098Y92969D01*
X428895Y91832D01*
X429720Y90714D01*
X430572Y89617D01*
X431450Y88542D01*
X432355Y87487D01*
X433285Y86456D01*
X434240Y85447D01*
X435219Y84462D01*
X436223Y83502D01*
X437249Y82566D01*
X438298Y81655D01*
X439369Y80771D01*
X440461Y79913D01*
X441574Y79082D01*
X442707Y78278D01*
X443859Y77502D01*
X445030Y76755D01*
X446219Y76037D01*
X447425Y75347D01*
X448647Y74688D01*
X449885Y74059D01*
X451138Y73460D01*
X452406Y72892D01*
X453687Y72355D01*
X454981Y71849D01*
X456286Y71376D01*
X457603Y70934D01*
X458931Y70525D01*
X460267Y70148D01*
X461613Y69804D01*
X462967Y69493D01*
X464328Y69216D01*
X465695Y68971D01*
X467068Y68761D01*
X468446Y68583D01*
X469827Y68440D01*
X471212Y68330D01*
X472599Y68255D01*
X473987Y68213D01*
X475376Y68205D01*
X476765Y68231D01*
X478153Y68292D01*
X479538Y68386D01*
X480921Y68514D01*
X482301Y68675D01*
X483676Y68871D01*
X485046Y69100D01*
X486410Y69362D01*
X487767Y69658D01*
X489117Y69986D01*
X490458Y70348D01*
X491790Y70742D01*
X493111Y71169D01*
X494422Y71628D01*
X495722Y72119D01*
X497009Y72642D01*
X498282Y73195D01*
X499542Y73780D01*
X500787Y74396D01*
X502017Y75041D01*
X503231Y75717D01*
X504427Y76422D01*
X505607Y77156D01*
X506767Y77919D01*
X507909Y78710D01*
X509031Y79529D01*
X510133Y80374D01*
X511214Y81247D01*
X512273Y82145D01*
X513310Y83070D01*
X514324Y84019D01*
X515314Y84993D01*
X516280Y85991D01*
X517222Y87012D01*
X518138Y88056D01*
X519029Y89122D01*
X519893Y90209D01*
X520730Y91317D01*
X521540Y92446D01*
X522322Y93593D01*
X523076Y94760D01*
X523801Y95945D01*
X524497Y97147D01*
X525164Y98365D01*
X525800Y99600D01*
D72*
X519450Y125000D02*
X519437Y123926D01*
X519398Y122852D01*
X519333Y121780D01*
X519242Y120710D01*
X519126Y119642D01*
X518984Y118577D01*
X518816Y117517D01*
X518622Y116460D01*
X518403Y115408D01*
X518158Y114362D01*
X517889Y113323D01*
X517594Y112290D01*
X517274Y111264D01*
X516930Y110247D01*
X516561Y109238D01*
X516168Y108238D01*
X515751Y107248D01*
X515311Y106269D01*
X514846Y105300D01*
X514359Y104343D01*
X513848Y103398D01*
X513315Y102466D01*
X512759Y101546D01*
X512181Y100641D01*
X511582Y99750D01*
X510961Y98873D01*
X510319Y98012D01*
X509657Y97166D01*
X508974Y96337D01*
X508271Y95524D01*
X507549Y94729D01*
X506808Y93951D01*
X506049Y93192D01*
X505271Y92451D01*
X504476Y91729D01*
X503663Y91026D01*
X502834Y90343D01*
X501988Y89681D01*
X501127Y89039D01*
X500250Y88418D01*
X499359Y87819D01*
X498454Y87241D01*
X497534Y86685D01*
X496602Y86152D01*
X495657Y85641D01*
X494700Y85154D01*
X493731Y84689D01*
X492752Y84249D01*
X491762Y83832D01*
X490762Y83439D01*
X489753Y83070D01*
X488736Y82726D01*
X487710Y82406D01*
X486677Y82111D01*
X485638Y81842D01*
X484592Y81597D01*
X483540Y81378D01*
X482483Y81184D01*
X481423Y81016D01*
X480358Y80874D01*
X479290Y80758D01*
X478220Y80667D01*
X477148Y80602D01*
X476074Y80563D01*
X475000Y80550D01*
X475000Y86900D02*
X475921Y86911D01*
X476841Y86944D01*
X477760Y87000D01*
X478677Y87078D01*
X479592Y87178D01*
X480505Y87300D01*
X481414Y87444D01*
X482320Y87610D01*
X483221Y87798D01*
X484118Y88007D01*
X485009Y88238D01*
X485895Y88491D01*
X486774Y88765D01*
X487646Y89060D01*
X488510Y89376D01*
X489367Y89713D01*
X490216Y90070D01*
X491055Y90448D01*
X491886Y90846D01*
X492706Y91264D01*
X493516Y91702D01*
X494315Y92159D01*
X495103Y92635D01*
X495879Y93130D01*
X496643Y93644D01*
X497395Y94176D01*
X498133Y94727D01*
X498858Y95294D01*
X499568Y95880D01*
X500265Y96482D01*
X500947Y97101D01*
X501613Y97736D01*
X502264Y98387D01*
X502899Y99053D01*
X503518Y99735D01*
X504120Y100432D01*
X504706Y101142D01*
X505273Y101867D01*
X505824Y102605D01*
X506356Y103357D01*
X506870Y104121D01*
X507365Y104897D01*
X507841Y105685D01*
X508298Y106484D01*
X508736Y107294D01*
X509154Y108114D01*
X509552Y108945D01*
X509930Y109784D01*
X510287Y110633D01*
X510624Y111490D01*
X510940Y112354D01*
X511235Y113226D01*
X511509Y114105D01*
X511762Y114991D01*
X511993Y115882D01*
X512202Y116779D01*
X512390Y117680D01*
X512556Y118586D01*
X512700Y119495D01*
X512822Y120408D01*
X512922Y121323D01*
X513000Y122240D01*
X513056Y123159D01*
X513089Y124079D01*
X513100Y125000D01*
X506750Y125000D02*
X506741Y124233D01*
X506713Y123466D01*
X506667Y122700D01*
X506602Y121936D01*
X506519Y121173D01*
X506417Y120412D01*
X506297Y119655D01*
X506159Y118900D01*
X506002Y118149D01*
X505827Y117402D01*
X505635Y116659D01*
X505424Y115921D01*
X505196Y115189D01*
X504950Y114462D01*
X504687Y113741D01*
X504406Y113027D01*
X504108Y112320D01*
X503793Y111621D01*
X503462Y110929D01*
X503113Y110245D01*
X502748Y109570D01*
X502368Y108904D01*
X501971Y108247D01*
X501558Y107601D01*
X501130Y106964D01*
X500686Y106338D01*
X500228Y105723D01*
X499755Y105119D01*
X499267Y104526D01*
X498765Y103946D01*
X498250Y103378D01*
X497720Y102822D01*
X497178Y102280D01*
X496622Y101750D01*
X496054Y101235D01*
X495474Y100733D01*
X494881Y100245D01*
X494277Y99772D01*
X493662Y99314D01*
X493036Y98870D01*
X492399Y98442D01*
X491753Y98029D01*
X491096Y97632D01*
X490430Y97252D01*
X489755Y96887D01*
X489071Y96538D01*
X488379Y96207D01*
X487680Y95892D01*
X486973Y95594D01*
X486259Y95313D01*
X485538Y95050D01*
X484811Y94804D01*
X484079Y94576D01*
X483341Y94365D01*
X482598Y94173D01*
X481851Y93998D01*
X481100Y93841D01*
X480345Y93703D01*
X479588Y93583D01*
X478827Y93481D01*
X478064Y93398D01*
X477300Y93333D01*
X476534Y93287D01*
X475767Y93259D01*
X475000Y93250D01*
X475000Y99600D02*
X475614Y99607D01*
X476227Y99630D01*
X476840Y99667D01*
X477451Y99719D01*
X478062Y99785D01*
X478670Y99867D01*
X479276Y99963D01*
X479880Y100073D01*
X480481Y100198D01*
X481079Y100338D01*
X481673Y100492D01*
X482263Y100661D01*
X482849Y100843D01*
X483430Y101040D01*
X484007Y101251D01*
X484578Y101475D01*
X485144Y101713D01*
X485704Y101965D01*
X486257Y102231D01*
X486804Y102509D01*
X487344Y102801D01*
X487877Y103106D01*
X488402Y103424D01*
X488920Y103754D01*
X489429Y104096D01*
X489930Y104451D01*
X490422Y104818D01*
X490905Y105196D01*
X491379Y105586D01*
X491843Y105988D01*
X492298Y106400D01*
X492742Y106824D01*
X493176Y107258D01*
X493600Y107702D01*
X494012Y108157D01*
X494414Y108621D01*
X494804Y109095D01*
X495182Y109578D01*
X495549Y110070D01*
X495904Y110571D01*
X496246Y111080D01*
X496576Y111598D01*
X496894Y112123D01*
X497199Y112656D01*
X497491Y113196D01*
X497769Y113743D01*
X498035Y114296D01*
X498287Y114856D01*
X498525Y115422D01*
X498749Y115993D01*
X498960Y116570D01*
X499157Y117151D01*
X499339Y117737D01*
X499508Y118327D01*
X499662Y118921D01*
X499802Y119519D01*
X499927Y120120D01*
X500037Y120724D01*
X500133Y121330D01*
X500215Y121938D01*
X500281Y122549D01*
X500333Y123160D01*
X500370Y123773D01*
X500393Y124386D01*
X500400Y125000D01*
X475000Y169450D02*
X473926Y169437D01*
X472852Y169398D01*
X471780Y169333D01*
X470710Y169242D01*
X469642Y169126D01*
X468577Y168984D01*
X467517Y168816D01*
X466460Y168622D01*
X465408Y168403D01*
X464362Y168158D01*
X463323Y167889D01*
X462290Y167594D01*
X461264Y167274D01*
X460247Y166930D01*
X459238Y166561D01*
X458238Y166168D01*
X457248Y165751D01*
X456269Y165311D01*
X455300Y164846D01*
X454343Y164359D01*
X453398Y163848D01*
X452466Y163315D01*
X451546Y162759D01*
X450641Y162181D01*
X449750Y161582D01*
X448873Y160961D01*
X448012Y160319D01*
X447166Y159657D01*
X446337Y158974D01*
X445524Y158271D01*
X444729Y157549D01*
X443951Y156808D01*
X443192Y156049D01*
X442451Y155271D01*
X441729Y154476D01*
X441026Y153663D01*
X440343Y152834D01*
X439681Y151988D01*
X439039Y151127D01*
X438418Y150250D01*
X437819Y149359D01*
X437241Y148454D01*
X436685Y147534D01*
X436152Y146602D01*
X435641Y145657D01*
X435154Y144700D01*
X434689Y143731D01*
X434249Y142752D01*
X433832Y141762D01*
X433439Y140762D01*
X433070Y139753D01*
X432726Y138736D01*
X432406Y137710D01*
X432111Y136677D01*
X431842Y135638D01*
X431597Y134592D01*
X431378Y133540D01*
X431184Y132483D01*
X431016Y131423D01*
X430874Y130358D01*
X430758Y129290D01*
X430667Y128220D01*
X430602Y127148D01*
X430563Y126074D01*
X430550Y125000D01*
X436900Y125000D02*
X436911Y125921D01*
X436944Y126841D01*
X437000Y127760D01*
X437078Y128677D01*
X437178Y129592D01*
X437300Y130505D01*
X437444Y131414D01*
X437610Y132320D01*
X437798Y133221D01*
X438007Y134118D01*
X438238Y135009D01*
X438491Y135895D01*
X438765Y136774D01*
X439060Y137646D01*
X439376Y138510D01*
X439713Y139367D01*
X440070Y140216D01*
X440448Y141055D01*
X440846Y141886D01*
X441264Y142706D01*
X441702Y143516D01*
X442159Y144315D01*
X442635Y145103D01*
X443130Y145879D01*
X443644Y146643D01*
X444176Y147395D01*
X444727Y148133D01*
X445294Y148858D01*
X445880Y149568D01*
X446482Y150265D01*
X447101Y150947D01*
X447736Y151613D01*
X448387Y152264D01*
X449053Y152899D01*
X449735Y153518D01*
X450432Y154120D01*
X451142Y154706D01*
X451867Y155273D01*
X452605Y155824D01*
X453357Y156356D01*
X454121Y156870D01*
X454897Y157365D01*
X455685Y157841D01*
X456484Y158298D01*
X457294Y158736D01*
X458114Y159154D01*
X458945Y159552D01*
X459784Y159930D01*
X460633Y160287D01*
X461490Y160624D01*
X462354Y160940D01*
X463226Y161235D01*
X464105Y161509D01*
X464991Y161762D01*
X465882Y161993D01*
X466779Y162202D01*
X467680Y162390D01*
X468586Y162556D01*
X469495Y162700D01*
X470408Y162822D01*
X471323Y162922D01*
X472240Y163000D01*
X473159Y163056D01*
X474079Y163089D01*
X475000Y163100D01*
X475000Y156750D02*
X474233Y156741D01*
X473466Y156713D01*
X472700Y156667D01*
X471936Y156602D01*
X471173Y156519D01*
X470412Y156417D01*
X469655Y156297D01*
X468900Y156159D01*
X468149Y156002D01*
X467402Y155827D01*
X466659Y155635D01*
X465921Y155424D01*
X465189Y155196D01*
X464462Y154950D01*
X463741Y154687D01*
X463027Y154406D01*
X462320Y154108D01*
X461621Y153793D01*
X460929Y153462D01*
X460245Y153113D01*
X459570Y152748D01*
X458904Y152368D01*
X458247Y151971D01*
X457601Y151558D01*
X456964Y151130D01*
X456338Y150686D01*
X455723Y150228D01*
X455119Y149755D01*
X454526Y149267D01*
X453946Y148765D01*
X453378Y148250D01*
X452822Y147720D01*
X452280Y147178D01*
X451750Y146622D01*
X451235Y146054D01*
X450733Y145474D01*
X450245Y144881D01*
X449772Y144277D01*
X449314Y143662D01*
X448870Y143036D01*
X448442Y142399D01*
X448029Y141753D01*
X447632Y141096D01*
X447252Y140430D01*
X446887Y139755D01*
X446538Y139071D01*
X446207Y138379D01*
X445892Y137680D01*
X445594Y136973D01*
X445313Y136259D01*
X445050Y135538D01*
X444804Y134811D01*
X444576Y134079D01*
X444365Y133341D01*
X444173Y132598D01*
X443998Y131851D01*
X443841Y131100D01*
X443703Y130345D01*
X443583Y129588D01*
X443481Y128827D01*
X443398Y128064D01*
X443333Y127300D01*
X443287Y126534D01*
X443259Y125767D01*
X443250Y125000D01*
X449600Y125000D02*
X449607Y125614D01*
X449630Y126227D01*
X449667Y126840D01*
X449719Y127451D01*
X449785Y128062D01*
X449867Y128670D01*
X449963Y129276D01*
X450073Y129880D01*
X450198Y130481D01*
X450338Y131079D01*
X450492Y131673D01*
X450661Y132263D01*
X450843Y132849D01*
X451040Y133430D01*
X451251Y134007D01*
X451475Y134578D01*
X451713Y135144D01*
X451965Y135704D01*
X452231Y136257D01*
X452509Y136804D01*
X452801Y137344D01*
X453106Y137877D01*
X453424Y138402D01*
X453754Y138920D01*
X454096Y139429D01*
X454451Y139930D01*
X454818Y140422D01*
X455196Y140905D01*
X455586Y141379D01*
X455988Y141843D01*
X456400Y142298D01*
X456824Y142742D01*
X457258Y143176D01*
X457702Y143600D01*
X458157Y144012D01*
X458621Y144414D01*
X459095Y144804D01*
X459578Y145182D01*
X460070Y145549D01*
X460571Y145904D01*
X461080Y146246D01*
X461598Y146576D01*
X462123Y146894D01*
X462656Y147199D01*
X463196Y147491D01*
X463743Y147769D01*
X464296Y148035D01*
X464856Y148287D01*
X465422Y148525D01*
X465993Y148749D01*
X466570Y148960D01*
X467151Y149157D01*
X467737Y149339D01*
X468327Y149508D01*
X468921Y149662D01*
X469519Y149802D01*
X470120Y149927D01*
X470724Y150037D01*
X471330Y150133D01*
X471938Y150215D01*
X472549Y150281D01*
X473160Y150333D01*
X473773Y150370D01*
X474386Y150393D01*
X475000Y150400D01*
D71*
X525800Y150400D02*
X525800Y99600D01*
D72*
X424200Y125000D02*
X424215Y126247D01*
X424261Y127493D01*
X424338Y128737D01*
X424445Y129979D01*
X424582Y131218D01*
X424750Y132454D01*
X424948Y133685D01*
X425176Y134911D01*
X425434Y136130D01*
X425722Y137343D01*
X426040Y138549D01*
X426387Y139746D01*
X426764Y140935D01*
X427170Y142114D01*
X427604Y143283D01*
X428067Y144440D01*
X428558Y145586D01*
X429077Y146720D01*
X429624Y147840D01*
X430198Y148947D01*
X430800Y150039D01*
X431427Y151116D01*
X432081Y152178D01*
X432761Y153223D01*
X433467Y154251D01*
X434197Y155262D01*
X434952Y156254D01*
X435731Y157227D01*
X436534Y158181D01*
X437360Y159115D01*
X438208Y160029D01*
X439079Y160921D01*
X439971Y161792D01*
X440885Y162640D01*
X441819Y163466D01*
X442773Y164269D01*
X443746Y165048D01*
X444738Y165803D01*
X445749Y166533D01*
X446777Y167239D01*
X447822Y167919D01*
X448884Y168573D01*
X449961Y169200D01*
X451053Y169802D01*
X452160Y170376D01*
X453280Y170923D01*
X454414Y171442D01*
X455560Y171933D01*
X456717Y172396D01*
X457886Y172830D01*
X459065Y173236D01*
X460254Y173613D01*
X461451Y173960D01*
X462657Y174278D01*
X463870Y174566D01*
X465089Y174824D01*
X466315Y175052D01*
X467546Y175250D01*
X468782Y175418D01*
X470021Y175555D01*
X471263Y175662D01*
X472507Y175739D01*
X473753Y175785D01*
X475000Y175800D01*
X476247Y175785D01*
X477493Y175739D01*
X478737Y175662D01*
X479979Y175555D01*
X481218Y175418D01*
X482454Y175250D01*
X483685Y175052D01*
X484911Y174824D01*
X486130Y174566D01*
X487343Y174278D01*
X488549Y173960D01*
X489746Y173613D01*
X490935Y173236D01*
X492114Y172830D01*
X493283Y172396D01*
X494440Y171933D01*
X495586Y171442D01*
X496720Y170923D01*
X497840Y170376D01*
X498947Y169802D01*
X500039Y169200D01*
X501116Y168573D01*
X502178Y167919D01*
X503223Y167239D01*
X504251Y166533D01*
X505262Y165803D01*
X506254Y165048D01*
X507227Y164269D01*
X508181Y163466D01*
X509115Y162640D01*
X510029Y161792D01*
X510921Y160921D01*
X511792Y160029D01*
X512640Y159115D01*
X513466Y158181D01*
X514269Y157227D01*
X515048Y156254D01*
X515803Y155262D01*
X516533Y154251D01*
X517239Y153223D01*
X517919Y152178D01*
X518573Y151116D01*
X519200Y150039D01*
X519802Y148947D01*
X520376Y147840D01*
X520923Y146720D01*
X521442Y145586D01*
X521933Y144440D01*
X522396Y143283D01*
X522830Y142114D01*
X523236Y140935D01*
X523613Y139746D01*
X523960Y138549D01*
X524278Y137343D01*
X524566Y136130D01*
X524824Y134911D01*
X525052Y133685D01*
X525250Y132454D01*
X525418Y131218D01*
X525555Y129979D01*
X525662Y128737D01*
X525739Y127493D01*
X525785Y126247D01*
X525800Y125000D01*
X525785Y123753D01*
X525739Y122507D01*
X525662Y121263D01*
X525555Y120021D01*
X525418Y118782D01*
X525250Y117546D01*
X525052Y116315D01*
X524824Y115089D01*
X524566Y113870D01*
X524278Y112657D01*
X523960Y111451D01*
X523613Y110254D01*
X523236Y109065D01*
X522830Y107886D01*
X522396Y106717D01*
X521933Y105560D01*
X521442Y104414D01*
X520923Y103280D01*
X520376Y102160D01*
X519802Y101053D01*
X519200Y99961D01*
X518573Y98884D01*
X517919Y97822D01*
X517239Y96777D01*
X516533Y95749D01*
X515803Y94738D01*
X515048Y93746D01*
X514269Y92773D01*
X513466Y91819D01*
X512640Y90885D01*
X511792Y89971D01*
X510921Y89079D01*
X510029Y88208D01*
X509115Y87360D01*
X508181Y86534D01*
X507227Y85731D01*
X506254Y84952D01*
X505262Y84197D01*
X504251Y83467D01*
X503223Y82761D01*
X502178Y82081D01*
X501116Y81427D01*
X500039Y80800D01*
X498947Y80198D01*
X497840Y79624D01*
X496720Y79077D01*
X495586Y78558D01*
X494440Y78067D01*
X493283Y77604D01*
X492114Y77170D01*
X490935Y76764D01*
X489746Y76387D01*
X488549Y76040D01*
X487343Y75722D01*
X486130Y75434D01*
X484911Y75176D01*
X483685Y74948D01*
X482454Y74750D01*
X481218Y74582D01*
X479979Y74445D01*
X478737Y74338D01*
X477493Y74261D01*
X476247Y74215D01*
X475000Y74200D01*
X473753Y74215D01*
X472507Y74261D01*
X471263Y74338D01*
X470021Y74445D01*
X468782Y74582D01*
X467546Y74750D01*
X466315Y74948D01*
X465089Y75176D01*
X463870Y75434D01*
X462657Y75722D01*
X461451Y76040D01*
X460254Y76387D01*
X459065Y76764D01*
X457886Y77170D01*
X456717Y77604D01*
X455560Y78067D01*
X454414Y78558D01*
X453280Y79077D01*
X452160Y79624D01*
X451053Y80198D01*
X449961Y80800D01*
X448884Y81427D01*
X447822Y82081D01*
X446777Y82761D01*
X445749Y83467D01*
X444738Y84197D01*
X443746Y84952D01*
X442773Y85731D01*
X441819Y86534D01*
X440885Y87360D01*
X439971Y88208D01*
X439079Y89079D01*
X438208Y89971D01*
X437360Y90885D01*
X436534Y91819D01*
X435731Y92773D01*
X434952Y93746D01*
X434197Y94738D01*
X433467Y95749D01*
X432761Y96777D01*
X432081Y97822D01*
X431427Y98884D01*
X430800Y99961D01*
X430198Y101053D01*
X429624Y102160D01*
X429077Y103280D01*
X428558Y104414D01*
X428067Y105560D01*
X427604Y106717D01*
X427170Y107886D01*
X426764Y109065D01*
X426387Y110254D01*
X426040Y111451D01*
X425722Y112657D01*
X425434Y113870D01*
X425176Y115089D01*
X424948Y116315D01*
X424750Y117546D01*
X424582Y118782D01*
X424445Y120021D01*
X424338Y121263D01*
X424261Y122507D01*
X424215Y123753D01*
X424200Y125000D01*
D73*
X539008Y99101D02*
X550692Y99101D01*
X550692Y104293D01*
X550692Y109007D02*
X550692Y114199D01*
X550692Y109007D02*
X539008Y109007D01*
X539008Y114199D01*
X544201Y112901D02*
X544201Y109007D01*
X539008Y118890D02*
X550692Y118890D01*
X539008Y118890D02*
X539008Y122135D01*
X539010Y122248D01*
X539016Y122361D01*
X539026Y122474D01*
X539040Y122587D01*
X539057Y122699D01*
X539079Y122810D01*
X539104Y122920D01*
X539134Y123030D01*
X539167Y123138D01*
X539204Y123245D01*
X539244Y123351D01*
X539289Y123455D01*
X539337Y123558D01*
X539388Y123659D01*
X539443Y123758D01*
X539501Y123855D01*
X539563Y123950D01*
X539628Y124043D01*
X539696Y124133D01*
X539767Y124221D01*
X539842Y124307D01*
X539919Y124390D01*
X539999Y124470D01*
X540082Y124547D01*
X540168Y124622D01*
X540256Y124693D01*
X540346Y124761D01*
X540439Y124826D01*
X540534Y124888D01*
X540631Y124946D01*
X540730Y125001D01*
X540831Y125052D01*
X540934Y125100D01*
X541038Y125145D01*
X541144Y125185D01*
X541251Y125222D01*
X541359Y125255D01*
X541469Y125285D01*
X541579Y125310D01*
X541690Y125332D01*
X541802Y125349D01*
X541915Y125363D01*
X542028Y125373D01*
X542141Y125379D01*
X542254Y125381D01*
X547446Y125381D01*
X547446Y125382D02*
X547559Y125380D01*
X547672Y125374D01*
X547785Y125364D01*
X547898Y125350D01*
X548010Y125333D01*
X548121Y125311D01*
X548231Y125286D01*
X548341Y125256D01*
X548449Y125223D01*
X548556Y125186D01*
X548662Y125146D01*
X548766Y125101D01*
X548869Y125053D01*
X548970Y125002D01*
X549069Y124947D01*
X549166Y124889D01*
X549261Y124827D01*
X549354Y124762D01*
X549444Y124694D01*
X549532Y124623D01*
X549618Y124548D01*
X549701Y124471D01*
X549781Y124391D01*
X549858Y124308D01*
X549933Y124222D01*
X550004Y124134D01*
X550072Y124044D01*
X550137Y123951D01*
X550199Y123856D01*
X550257Y123759D01*
X550312Y123660D01*
X550363Y123559D01*
X550411Y123456D01*
X550456Y123352D01*
X550496Y123246D01*
X550533Y123139D01*
X550566Y123031D01*
X550596Y122921D01*
X550621Y122811D01*
X550643Y122700D01*
X550660Y122588D01*
X550674Y122475D01*
X550684Y122362D01*
X550690Y122249D01*
X550692Y122136D01*
X550692Y122135D02*
X550692Y118890D01*
X550692Y130701D02*
X550692Y133946D01*
X550690Y134059D01*
X550684Y134172D01*
X550674Y134285D01*
X550660Y134398D01*
X550643Y134510D01*
X550621Y134621D01*
X550596Y134731D01*
X550566Y134841D01*
X550533Y134949D01*
X550496Y135056D01*
X550456Y135162D01*
X550411Y135266D01*
X550363Y135369D01*
X550312Y135470D01*
X550257Y135569D01*
X550199Y135666D01*
X550137Y135761D01*
X550072Y135854D01*
X550004Y135944D01*
X549933Y136032D01*
X549858Y136118D01*
X549781Y136201D01*
X549701Y136281D01*
X549618Y136358D01*
X549532Y136433D01*
X549444Y136504D01*
X549354Y136572D01*
X549261Y136637D01*
X549166Y136699D01*
X549069Y136757D01*
X548970Y136812D01*
X548869Y136863D01*
X548766Y136911D01*
X548662Y136956D01*
X548556Y136996D01*
X548449Y137033D01*
X548341Y137066D01*
X548231Y137096D01*
X548121Y137121D01*
X548010Y137143D01*
X547898Y137160D01*
X547785Y137174D01*
X547672Y137184D01*
X547559Y137190D01*
X547446Y137192D01*
X547333Y137190D01*
X547220Y137184D01*
X547107Y137174D01*
X546994Y137160D01*
X546882Y137143D01*
X546771Y137121D01*
X546661Y137096D01*
X546551Y137066D01*
X546443Y137033D01*
X546336Y136996D01*
X546230Y136956D01*
X546126Y136911D01*
X546023Y136863D01*
X545922Y136812D01*
X545823Y136757D01*
X545726Y136699D01*
X545631Y136637D01*
X545538Y136572D01*
X545448Y136504D01*
X545360Y136433D01*
X545274Y136358D01*
X545191Y136281D01*
X545111Y136201D01*
X545034Y136118D01*
X544959Y136032D01*
X544888Y135944D01*
X544820Y135854D01*
X544755Y135761D01*
X544693Y135666D01*
X544635Y135569D01*
X544580Y135470D01*
X544529Y135369D01*
X544481Y135266D01*
X544436Y135162D01*
X544396Y135056D01*
X544359Y134949D01*
X544326Y134841D01*
X544296Y134731D01*
X544271Y134621D01*
X544249Y134510D01*
X544232Y134398D01*
X544218Y134285D01*
X544208Y134172D01*
X544202Y134059D01*
X544200Y133946D01*
X539008Y134596D02*
X539008Y130701D01*
X539008Y134596D02*
X539010Y134697D01*
X539016Y134797D01*
X539026Y134897D01*
X539039Y134997D01*
X539057Y135096D01*
X539078Y135195D01*
X539103Y135292D01*
X539132Y135389D01*
X539165Y135484D01*
X539201Y135578D01*
X539241Y135670D01*
X539284Y135761D01*
X539331Y135850D01*
X539381Y135937D01*
X539435Y136023D01*
X539492Y136106D01*
X539552Y136186D01*
X539615Y136265D01*
X539682Y136341D01*
X539751Y136414D01*
X539823Y136484D01*
X539897Y136552D01*
X539974Y136617D01*
X540054Y136678D01*
X540136Y136737D01*
X540220Y136792D01*
X540306Y136844D01*
X540394Y136893D01*
X540484Y136938D01*
X540576Y136980D01*
X540669Y137018D01*
X540764Y137052D01*
X540859Y137083D01*
X540956Y137110D01*
X541054Y137133D01*
X541153Y137153D01*
X541253Y137168D01*
X541353Y137180D01*
X541453Y137188D01*
X541554Y137192D01*
X541654Y137192D01*
X541755Y137188D01*
X541855Y137180D01*
X541955Y137168D01*
X542055Y137153D01*
X542154Y137133D01*
X542252Y137110D01*
X542349Y137083D01*
X542444Y137052D01*
X542539Y137018D01*
X542632Y136980D01*
X542724Y136938D01*
X542814Y136893D01*
X542902Y136844D01*
X542988Y136792D01*
X543072Y136737D01*
X543154Y136678D01*
X543234Y136617D01*
X543311Y136552D01*
X543385Y136484D01*
X543457Y136414D01*
X543526Y136341D01*
X543593Y136265D01*
X543656Y136186D01*
X543716Y136106D01*
X543773Y136023D01*
X543827Y135937D01*
X543877Y135850D01*
X543924Y135761D01*
X543967Y135670D01*
X544007Y135578D01*
X544043Y135484D01*
X544076Y135389D01*
X544105Y135292D01*
X544130Y135195D01*
X544151Y135096D01*
X544169Y134997D01*
X544182Y134897D01*
X544192Y134797D01*
X544198Y134697D01*
X544200Y134596D01*
X544201Y134596D02*
X544201Y131999D01*
D74*
X579141Y64484D02*
X604541Y64484D01*
X604541Y191484D02*
X579141Y191484D01*
X585491Y185134D01*
X598191Y185134D02*
X604541Y191484D01*
X598191Y172434D02*
X604541Y166084D01*
X604541Y64484D01*
X579141Y166084D02*
X585491Y172434D01*
X579141Y166084D02*
X579141Y191484D01*
X579141Y166084D02*
X604541Y166084D01*
X604541Y191484D01*
X579141Y166084D02*
X579141Y64484D01*
D72*
X608986Y135560D02*
X620416Y135560D01*
X608986Y135560D02*
X608986Y138735D01*
X608988Y138846D01*
X608994Y138956D01*
X609003Y139067D01*
X609017Y139177D01*
X609034Y139286D01*
X609055Y139395D01*
X609080Y139503D01*
X609109Y139610D01*
X609141Y139716D01*
X609177Y139821D01*
X609217Y139924D01*
X609260Y140026D01*
X609307Y140127D01*
X609358Y140226D01*
X609411Y140323D01*
X609468Y140417D01*
X609529Y140510D01*
X609592Y140601D01*
X609659Y140690D01*
X609729Y140776D01*
X609802Y140859D01*
X609877Y140941D01*
X609955Y141019D01*
X610037Y141094D01*
X610120Y141167D01*
X610206Y141237D01*
X610295Y141304D01*
X610386Y141367D01*
X610479Y141428D01*
X610574Y141485D01*
X610670Y141538D01*
X610769Y141589D01*
X610870Y141636D01*
X610972Y141679D01*
X611075Y141719D01*
X611180Y141755D01*
X611286Y141787D01*
X611393Y141816D01*
X611501Y141841D01*
X611610Y141862D01*
X611719Y141879D01*
X611829Y141893D01*
X611940Y141902D01*
X612050Y141908D01*
X612161Y141910D01*
X612272Y141908D01*
X612382Y141902D01*
X612493Y141893D01*
X612603Y141879D01*
X612712Y141862D01*
X612821Y141841D01*
X612929Y141816D01*
X613036Y141787D01*
X613142Y141755D01*
X613247Y141719D01*
X613350Y141679D01*
X613452Y141636D01*
X613553Y141589D01*
X613652Y141538D01*
X613749Y141485D01*
X613843Y141428D01*
X613936Y141367D01*
X614027Y141304D01*
X614116Y141237D01*
X614202Y141167D01*
X614285Y141094D01*
X614367Y141019D01*
X614445Y140941D01*
X614520Y140859D01*
X614593Y140776D01*
X614663Y140690D01*
X614730Y140601D01*
X614793Y140510D01*
X614854Y140417D01*
X614911Y140323D01*
X614964Y140226D01*
X615015Y140127D01*
X615062Y140026D01*
X615105Y139924D01*
X615145Y139821D01*
X615181Y139716D01*
X615213Y139610D01*
X615242Y139503D01*
X615267Y139395D01*
X615288Y139286D01*
X615305Y139177D01*
X615319Y139067D01*
X615328Y138956D01*
X615334Y138846D01*
X615336Y138735D01*
X615336Y135560D01*
X615336Y139370D02*
X620416Y141910D01*
X620416Y147288D02*
X608986Y147288D01*
X620416Y153638D01*
X608986Y153638D01*
X608986Y162592D02*
X608988Y162696D01*
X608994Y162801D01*
X609003Y162905D01*
X609016Y163008D01*
X609034Y163111D01*
X609054Y163213D01*
X609079Y163315D01*
X609107Y163415D01*
X609139Y163515D01*
X609175Y163613D01*
X609214Y163710D01*
X609256Y163805D01*
X609302Y163899D01*
X609352Y163991D01*
X609404Y164081D01*
X609460Y164169D01*
X609520Y164255D01*
X609582Y164339D01*
X609647Y164420D01*
X609715Y164499D01*
X609787Y164576D01*
X609860Y164649D01*
X609937Y164721D01*
X610016Y164789D01*
X610097Y164854D01*
X610181Y164916D01*
X610267Y164976D01*
X610355Y165032D01*
X610445Y165084D01*
X610537Y165134D01*
X610631Y165180D01*
X610726Y165222D01*
X610823Y165261D01*
X610921Y165297D01*
X611021Y165329D01*
X611121Y165357D01*
X611223Y165382D01*
X611325Y165402D01*
X611428Y165420D01*
X611531Y165433D01*
X611635Y165442D01*
X611740Y165448D01*
X611844Y165450D01*
X608986Y162592D02*
X608988Y162474D01*
X608994Y162355D01*
X609003Y162237D01*
X609016Y162120D01*
X609034Y162003D01*
X609054Y161886D01*
X609079Y161770D01*
X609107Y161655D01*
X609140Y161542D01*
X609175Y161429D01*
X609215Y161317D01*
X609257Y161207D01*
X609304Y161098D01*
X609354Y160990D01*
X609407Y160885D01*
X609464Y160781D01*
X609524Y160679D01*
X609587Y160579D01*
X609654Y160481D01*
X609723Y160385D01*
X609796Y160292D01*
X609872Y160201D01*
X609950Y160112D01*
X610032Y160026D01*
X610116Y159943D01*
X610202Y159862D01*
X610292Y159785D01*
X610383Y159710D01*
X610477Y159638D01*
X610574Y159569D01*
X610672Y159504D01*
X610773Y159441D01*
X610876Y159382D01*
X610980Y159326D01*
X611086Y159274D01*
X611194Y159225D01*
X611303Y159180D01*
X611414Y159138D01*
X611526Y159100D01*
X614066Y164497D02*
X613991Y164573D01*
X613912Y164648D01*
X613831Y164719D01*
X613747Y164788D01*
X613661Y164853D01*
X613573Y164915D01*
X613483Y164975D01*
X613391Y165031D01*
X613296Y165084D01*
X613200Y165133D01*
X613102Y165179D01*
X613003Y165222D01*
X612902Y165261D01*
X612800Y165296D01*
X612697Y165328D01*
X612593Y165356D01*
X612488Y165381D01*
X612381Y165402D01*
X612275Y165419D01*
X612168Y165432D01*
X612060Y165441D01*
X611952Y165447D01*
X611844Y165449D01*
X614066Y164497D02*
X620416Y159099D01*
X620416Y165449D01*
M02*
