G75*
%MOIN*%
%OFA0B0*%
%FSLAX25Y25*%
%IPPOS*%
%LPD*%
%AMOC8*
5,1,8,0,0,1.08239X$1,22.5*
%
%ADD10C,0.00000*%
%ADD11C,0.07087*%
%ADD12OC8,0.06000*%
%ADD13C,0.05600*%
%ADD14C,0.01600*%
%ADD15OC8,0.03169*%
%ADD16C,0.03200*%
%ADD17C,0.01200*%
%ADD18R,0.03562X0.03562*%
D10*
X0017548Y0028572D02*
X0249831Y0028572D01*
X0250116Y0028575D01*
X0250402Y0028586D01*
X0250687Y0028603D01*
X0250971Y0028627D01*
X0251255Y0028658D01*
X0251538Y0028696D01*
X0251819Y0028741D01*
X0252100Y0028792D01*
X0252380Y0028850D01*
X0252658Y0028915D01*
X0252934Y0028987D01*
X0253208Y0029065D01*
X0253481Y0029150D01*
X0253751Y0029242D01*
X0254019Y0029340D01*
X0254285Y0029444D01*
X0254548Y0029555D01*
X0254808Y0029672D01*
X0255066Y0029795D01*
X0255320Y0029925D01*
X0255571Y0030061D01*
X0255819Y0030202D01*
X0256063Y0030350D01*
X0256304Y0030503D01*
X0256540Y0030663D01*
X0256773Y0030828D01*
X0257002Y0030998D01*
X0257227Y0031174D01*
X0257447Y0031356D01*
X0257663Y0031542D01*
X0257874Y0031734D01*
X0258081Y0031931D01*
X0258283Y0032133D01*
X0258480Y0032340D01*
X0258672Y0032551D01*
X0258858Y0032767D01*
X0259040Y0032987D01*
X0259216Y0033212D01*
X0259386Y0033441D01*
X0259551Y0033674D01*
X0259711Y0033910D01*
X0259864Y0034151D01*
X0260012Y0034395D01*
X0260153Y0034643D01*
X0260289Y0034894D01*
X0260419Y0035148D01*
X0260542Y0035406D01*
X0260659Y0035666D01*
X0260770Y0035929D01*
X0260874Y0036195D01*
X0260972Y0036463D01*
X0261064Y0036733D01*
X0261149Y0037006D01*
X0261227Y0037280D01*
X0261299Y0037556D01*
X0261364Y0037834D01*
X0261422Y0038114D01*
X0261473Y0038395D01*
X0261518Y0038676D01*
X0261556Y0038959D01*
X0261587Y0039243D01*
X0261611Y0039527D01*
X0261628Y0039812D01*
X0261639Y0040098D01*
X0261642Y0040383D01*
X0261643Y0040383D02*
X0261643Y0237233D01*
X0261642Y0237233D02*
X0261662Y0237542D01*
X0261675Y0237852D01*
X0261680Y0238162D01*
X0261677Y0238472D01*
X0261668Y0238782D01*
X0261650Y0239092D01*
X0261625Y0239401D01*
X0261593Y0239709D01*
X0261553Y0240017D01*
X0261506Y0240323D01*
X0261451Y0240629D01*
X0261389Y0240933D01*
X0261320Y0241235D01*
X0261244Y0241535D01*
X0261160Y0241834D01*
X0261069Y0242130D01*
X0260971Y0242425D01*
X0260865Y0242716D01*
X0260753Y0243005D01*
X0260634Y0243292D01*
X0260508Y0243575D01*
X0260375Y0243855D01*
X0260235Y0244132D01*
X0260089Y0244406D01*
X0259936Y0244675D01*
X0259777Y0244942D01*
X0259611Y0245204D01*
X0259439Y0245462D01*
X0259261Y0245716D01*
X0259077Y0245965D01*
X0258887Y0246210D01*
X0258691Y0246450D01*
X0258489Y0246686D01*
X0258281Y0246916D01*
X0258069Y0247142D01*
X0257850Y0247362D01*
X0257627Y0247577D01*
X0257398Y0247786D01*
X0257164Y0247990D01*
X0256926Y0248188D01*
X0256682Y0248380D01*
X0256434Y0248567D01*
X0256182Y0248747D01*
X0255925Y0248921D01*
X0255665Y0249089D01*
X0255400Y0249251D01*
X0255131Y0249406D01*
X0254859Y0249554D01*
X0254584Y0249696D01*
X0254305Y0249832D01*
X0254022Y0249960D01*
X0253737Y0250082D01*
X0253449Y0250197D01*
X0253158Y0250304D01*
X0252865Y0250405D01*
X0252569Y0250498D01*
X0252271Y0250585D01*
X0251971Y0250664D01*
X0251670Y0250736D01*
X0251366Y0250800D01*
X0251062Y0250857D01*
X0250755Y0250907D01*
X0250448Y0250950D01*
X0250140Y0250985D01*
X0249831Y0251012D01*
X0249831Y0251013D02*
X0017548Y0251013D01*
X0017548Y0251012D02*
X0017239Y0250985D01*
X0016931Y0250950D01*
X0016624Y0250907D01*
X0016317Y0250857D01*
X0016013Y0250800D01*
X0015709Y0250736D01*
X0015408Y0250664D01*
X0015108Y0250585D01*
X0014810Y0250498D01*
X0014514Y0250405D01*
X0014221Y0250304D01*
X0013930Y0250197D01*
X0013642Y0250082D01*
X0013357Y0249960D01*
X0013074Y0249832D01*
X0012795Y0249696D01*
X0012520Y0249554D01*
X0012248Y0249406D01*
X0011979Y0249251D01*
X0011714Y0249089D01*
X0011454Y0248921D01*
X0011197Y0248747D01*
X0010945Y0248567D01*
X0010697Y0248380D01*
X0010453Y0248188D01*
X0010215Y0247990D01*
X0009981Y0247786D01*
X0009752Y0247577D01*
X0009529Y0247362D01*
X0009310Y0247142D01*
X0009098Y0246916D01*
X0008890Y0246686D01*
X0008688Y0246450D01*
X0008492Y0246210D01*
X0008302Y0245965D01*
X0008118Y0245716D01*
X0007940Y0245462D01*
X0007768Y0245204D01*
X0007602Y0244942D01*
X0007443Y0244675D01*
X0007290Y0244406D01*
X0007144Y0244132D01*
X0007004Y0243855D01*
X0006871Y0243575D01*
X0006745Y0243292D01*
X0006626Y0243005D01*
X0006514Y0242716D01*
X0006408Y0242425D01*
X0006310Y0242130D01*
X0006219Y0241834D01*
X0006135Y0241535D01*
X0006059Y0241235D01*
X0005990Y0240933D01*
X0005928Y0240629D01*
X0005873Y0240323D01*
X0005826Y0240017D01*
X0005786Y0239709D01*
X0005754Y0239401D01*
X0005729Y0239092D01*
X0005711Y0238782D01*
X0005702Y0238472D01*
X0005699Y0238162D01*
X0005704Y0237852D01*
X0005717Y0237542D01*
X0005737Y0237233D01*
X0005737Y0040383D01*
X0005740Y0040098D01*
X0005751Y0039812D01*
X0005768Y0039527D01*
X0005792Y0039243D01*
X0005823Y0038959D01*
X0005861Y0038676D01*
X0005906Y0038395D01*
X0005957Y0038114D01*
X0006015Y0037834D01*
X0006080Y0037556D01*
X0006152Y0037280D01*
X0006230Y0037006D01*
X0006315Y0036733D01*
X0006407Y0036463D01*
X0006505Y0036195D01*
X0006609Y0035929D01*
X0006720Y0035666D01*
X0006837Y0035406D01*
X0006960Y0035148D01*
X0007090Y0034894D01*
X0007226Y0034643D01*
X0007367Y0034395D01*
X0007515Y0034151D01*
X0007668Y0033910D01*
X0007828Y0033674D01*
X0007993Y0033441D01*
X0008163Y0033212D01*
X0008339Y0032987D01*
X0008521Y0032767D01*
X0008707Y0032551D01*
X0008899Y0032340D01*
X0009096Y0032133D01*
X0009298Y0031931D01*
X0009505Y0031734D01*
X0009716Y0031542D01*
X0009932Y0031356D01*
X0010152Y0031174D01*
X0010377Y0030998D01*
X0010606Y0030828D01*
X0010839Y0030663D01*
X0011075Y0030503D01*
X0011316Y0030350D01*
X0011560Y0030202D01*
X0011808Y0030061D01*
X0012059Y0029925D01*
X0012313Y0029795D01*
X0012571Y0029672D01*
X0012831Y0029555D01*
X0013094Y0029444D01*
X0013360Y0029340D01*
X0013628Y0029242D01*
X0013898Y0029150D01*
X0014171Y0029065D01*
X0014445Y0028987D01*
X0014721Y0028915D01*
X0014999Y0028850D01*
X0015279Y0028792D01*
X0015560Y0028741D01*
X0015841Y0028696D01*
X0016124Y0028658D01*
X0016408Y0028627D01*
X0016692Y0028603D01*
X0016977Y0028586D01*
X0017263Y0028575D01*
X0017548Y0028572D01*
X0014104Y0042351D02*
X0014106Y0042498D01*
X0014112Y0042644D01*
X0014122Y0042790D01*
X0014136Y0042936D01*
X0014154Y0043082D01*
X0014175Y0043227D01*
X0014201Y0043371D01*
X0014231Y0043515D01*
X0014264Y0043657D01*
X0014301Y0043799D01*
X0014342Y0043940D01*
X0014387Y0044079D01*
X0014436Y0044218D01*
X0014488Y0044355D01*
X0014545Y0044490D01*
X0014604Y0044624D01*
X0014668Y0044756D01*
X0014735Y0044886D01*
X0014805Y0045015D01*
X0014879Y0045142D01*
X0014956Y0045266D01*
X0015037Y0045389D01*
X0015121Y0045509D01*
X0015208Y0045627D01*
X0015298Y0045742D01*
X0015391Y0045855D01*
X0015488Y0045966D01*
X0015587Y0046074D01*
X0015689Y0046179D01*
X0015794Y0046281D01*
X0015902Y0046380D01*
X0016013Y0046477D01*
X0016126Y0046570D01*
X0016241Y0046660D01*
X0016359Y0046747D01*
X0016479Y0046831D01*
X0016602Y0046912D01*
X0016726Y0046989D01*
X0016853Y0047063D01*
X0016982Y0047133D01*
X0017112Y0047200D01*
X0017244Y0047264D01*
X0017378Y0047323D01*
X0017513Y0047380D01*
X0017650Y0047432D01*
X0017789Y0047481D01*
X0017928Y0047526D01*
X0018069Y0047567D01*
X0018211Y0047604D01*
X0018353Y0047637D01*
X0018497Y0047667D01*
X0018641Y0047693D01*
X0018786Y0047714D01*
X0018932Y0047732D01*
X0019078Y0047746D01*
X0019224Y0047756D01*
X0019370Y0047762D01*
X0019517Y0047764D01*
X0019664Y0047762D01*
X0019810Y0047756D01*
X0019956Y0047746D01*
X0020102Y0047732D01*
X0020248Y0047714D01*
X0020393Y0047693D01*
X0020537Y0047667D01*
X0020681Y0047637D01*
X0020823Y0047604D01*
X0020965Y0047567D01*
X0021106Y0047526D01*
X0021245Y0047481D01*
X0021384Y0047432D01*
X0021521Y0047380D01*
X0021656Y0047323D01*
X0021790Y0047264D01*
X0021922Y0047200D01*
X0022052Y0047133D01*
X0022181Y0047063D01*
X0022308Y0046989D01*
X0022432Y0046912D01*
X0022555Y0046831D01*
X0022675Y0046747D01*
X0022793Y0046660D01*
X0022908Y0046570D01*
X0023021Y0046477D01*
X0023132Y0046380D01*
X0023240Y0046281D01*
X0023345Y0046179D01*
X0023447Y0046074D01*
X0023546Y0045966D01*
X0023643Y0045855D01*
X0023736Y0045742D01*
X0023826Y0045627D01*
X0023913Y0045509D01*
X0023997Y0045389D01*
X0024078Y0045266D01*
X0024155Y0045142D01*
X0024229Y0045015D01*
X0024299Y0044886D01*
X0024366Y0044756D01*
X0024430Y0044624D01*
X0024489Y0044490D01*
X0024546Y0044355D01*
X0024598Y0044218D01*
X0024647Y0044079D01*
X0024692Y0043940D01*
X0024733Y0043799D01*
X0024770Y0043657D01*
X0024803Y0043515D01*
X0024833Y0043371D01*
X0024859Y0043227D01*
X0024880Y0043082D01*
X0024898Y0042936D01*
X0024912Y0042790D01*
X0024922Y0042644D01*
X0024928Y0042498D01*
X0024930Y0042351D01*
X0024928Y0042204D01*
X0024922Y0042058D01*
X0024912Y0041912D01*
X0024898Y0041766D01*
X0024880Y0041620D01*
X0024859Y0041475D01*
X0024833Y0041331D01*
X0024803Y0041187D01*
X0024770Y0041045D01*
X0024733Y0040903D01*
X0024692Y0040762D01*
X0024647Y0040623D01*
X0024598Y0040484D01*
X0024546Y0040347D01*
X0024489Y0040212D01*
X0024430Y0040078D01*
X0024366Y0039946D01*
X0024299Y0039816D01*
X0024229Y0039687D01*
X0024155Y0039560D01*
X0024078Y0039436D01*
X0023997Y0039313D01*
X0023913Y0039193D01*
X0023826Y0039075D01*
X0023736Y0038960D01*
X0023643Y0038847D01*
X0023546Y0038736D01*
X0023447Y0038628D01*
X0023345Y0038523D01*
X0023240Y0038421D01*
X0023132Y0038322D01*
X0023021Y0038225D01*
X0022908Y0038132D01*
X0022793Y0038042D01*
X0022675Y0037955D01*
X0022555Y0037871D01*
X0022432Y0037790D01*
X0022308Y0037713D01*
X0022181Y0037639D01*
X0022052Y0037569D01*
X0021922Y0037502D01*
X0021790Y0037438D01*
X0021656Y0037379D01*
X0021521Y0037322D01*
X0021384Y0037270D01*
X0021245Y0037221D01*
X0021106Y0037176D01*
X0020965Y0037135D01*
X0020823Y0037098D01*
X0020681Y0037065D01*
X0020537Y0037035D01*
X0020393Y0037009D01*
X0020248Y0036988D01*
X0020102Y0036970D01*
X0019956Y0036956D01*
X0019810Y0036946D01*
X0019664Y0036940D01*
X0019517Y0036938D01*
X0019370Y0036940D01*
X0019224Y0036946D01*
X0019078Y0036956D01*
X0018932Y0036970D01*
X0018786Y0036988D01*
X0018641Y0037009D01*
X0018497Y0037035D01*
X0018353Y0037065D01*
X0018211Y0037098D01*
X0018069Y0037135D01*
X0017928Y0037176D01*
X0017789Y0037221D01*
X0017650Y0037270D01*
X0017513Y0037322D01*
X0017378Y0037379D01*
X0017244Y0037438D01*
X0017112Y0037502D01*
X0016982Y0037569D01*
X0016853Y0037639D01*
X0016726Y0037713D01*
X0016602Y0037790D01*
X0016479Y0037871D01*
X0016359Y0037955D01*
X0016241Y0038042D01*
X0016126Y0038132D01*
X0016013Y0038225D01*
X0015902Y0038322D01*
X0015794Y0038421D01*
X0015689Y0038523D01*
X0015587Y0038628D01*
X0015488Y0038736D01*
X0015391Y0038847D01*
X0015298Y0038960D01*
X0015208Y0039075D01*
X0015121Y0039193D01*
X0015037Y0039313D01*
X0014956Y0039436D01*
X0014879Y0039560D01*
X0014805Y0039687D01*
X0014735Y0039816D01*
X0014668Y0039946D01*
X0014604Y0040078D01*
X0014545Y0040212D01*
X0014488Y0040347D01*
X0014436Y0040484D01*
X0014387Y0040623D01*
X0014342Y0040762D01*
X0014301Y0040903D01*
X0014264Y0041045D01*
X0014231Y0041187D01*
X0014201Y0041331D01*
X0014175Y0041475D01*
X0014154Y0041620D01*
X0014136Y0041766D01*
X0014122Y0041912D01*
X0014112Y0042058D01*
X0014106Y0042204D01*
X0014104Y0042351D01*
X0014104Y0235265D02*
X0014106Y0235412D01*
X0014112Y0235558D01*
X0014122Y0235704D01*
X0014136Y0235850D01*
X0014154Y0235996D01*
X0014175Y0236141D01*
X0014201Y0236285D01*
X0014231Y0236429D01*
X0014264Y0236571D01*
X0014301Y0236713D01*
X0014342Y0236854D01*
X0014387Y0236993D01*
X0014436Y0237132D01*
X0014488Y0237269D01*
X0014545Y0237404D01*
X0014604Y0237538D01*
X0014668Y0237670D01*
X0014735Y0237800D01*
X0014805Y0237929D01*
X0014879Y0238056D01*
X0014956Y0238180D01*
X0015037Y0238303D01*
X0015121Y0238423D01*
X0015208Y0238541D01*
X0015298Y0238656D01*
X0015391Y0238769D01*
X0015488Y0238880D01*
X0015587Y0238988D01*
X0015689Y0239093D01*
X0015794Y0239195D01*
X0015902Y0239294D01*
X0016013Y0239391D01*
X0016126Y0239484D01*
X0016241Y0239574D01*
X0016359Y0239661D01*
X0016479Y0239745D01*
X0016602Y0239826D01*
X0016726Y0239903D01*
X0016853Y0239977D01*
X0016982Y0240047D01*
X0017112Y0240114D01*
X0017244Y0240178D01*
X0017378Y0240237D01*
X0017513Y0240294D01*
X0017650Y0240346D01*
X0017789Y0240395D01*
X0017928Y0240440D01*
X0018069Y0240481D01*
X0018211Y0240518D01*
X0018353Y0240551D01*
X0018497Y0240581D01*
X0018641Y0240607D01*
X0018786Y0240628D01*
X0018932Y0240646D01*
X0019078Y0240660D01*
X0019224Y0240670D01*
X0019370Y0240676D01*
X0019517Y0240678D01*
X0019664Y0240676D01*
X0019810Y0240670D01*
X0019956Y0240660D01*
X0020102Y0240646D01*
X0020248Y0240628D01*
X0020393Y0240607D01*
X0020537Y0240581D01*
X0020681Y0240551D01*
X0020823Y0240518D01*
X0020965Y0240481D01*
X0021106Y0240440D01*
X0021245Y0240395D01*
X0021384Y0240346D01*
X0021521Y0240294D01*
X0021656Y0240237D01*
X0021790Y0240178D01*
X0021922Y0240114D01*
X0022052Y0240047D01*
X0022181Y0239977D01*
X0022308Y0239903D01*
X0022432Y0239826D01*
X0022555Y0239745D01*
X0022675Y0239661D01*
X0022793Y0239574D01*
X0022908Y0239484D01*
X0023021Y0239391D01*
X0023132Y0239294D01*
X0023240Y0239195D01*
X0023345Y0239093D01*
X0023447Y0238988D01*
X0023546Y0238880D01*
X0023643Y0238769D01*
X0023736Y0238656D01*
X0023826Y0238541D01*
X0023913Y0238423D01*
X0023997Y0238303D01*
X0024078Y0238180D01*
X0024155Y0238056D01*
X0024229Y0237929D01*
X0024299Y0237800D01*
X0024366Y0237670D01*
X0024430Y0237538D01*
X0024489Y0237404D01*
X0024546Y0237269D01*
X0024598Y0237132D01*
X0024647Y0236993D01*
X0024692Y0236854D01*
X0024733Y0236713D01*
X0024770Y0236571D01*
X0024803Y0236429D01*
X0024833Y0236285D01*
X0024859Y0236141D01*
X0024880Y0235996D01*
X0024898Y0235850D01*
X0024912Y0235704D01*
X0024922Y0235558D01*
X0024928Y0235412D01*
X0024930Y0235265D01*
X0024928Y0235118D01*
X0024922Y0234972D01*
X0024912Y0234826D01*
X0024898Y0234680D01*
X0024880Y0234534D01*
X0024859Y0234389D01*
X0024833Y0234245D01*
X0024803Y0234101D01*
X0024770Y0233959D01*
X0024733Y0233817D01*
X0024692Y0233676D01*
X0024647Y0233537D01*
X0024598Y0233398D01*
X0024546Y0233261D01*
X0024489Y0233126D01*
X0024430Y0232992D01*
X0024366Y0232860D01*
X0024299Y0232730D01*
X0024229Y0232601D01*
X0024155Y0232474D01*
X0024078Y0232350D01*
X0023997Y0232227D01*
X0023913Y0232107D01*
X0023826Y0231989D01*
X0023736Y0231874D01*
X0023643Y0231761D01*
X0023546Y0231650D01*
X0023447Y0231542D01*
X0023345Y0231437D01*
X0023240Y0231335D01*
X0023132Y0231236D01*
X0023021Y0231139D01*
X0022908Y0231046D01*
X0022793Y0230956D01*
X0022675Y0230869D01*
X0022555Y0230785D01*
X0022432Y0230704D01*
X0022308Y0230627D01*
X0022181Y0230553D01*
X0022052Y0230483D01*
X0021922Y0230416D01*
X0021790Y0230352D01*
X0021656Y0230293D01*
X0021521Y0230236D01*
X0021384Y0230184D01*
X0021245Y0230135D01*
X0021106Y0230090D01*
X0020965Y0230049D01*
X0020823Y0230012D01*
X0020681Y0229979D01*
X0020537Y0229949D01*
X0020393Y0229923D01*
X0020248Y0229902D01*
X0020102Y0229884D01*
X0019956Y0229870D01*
X0019810Y0229860D01*
X0019664Y0229854D01*
X0019517Y0229852D01*
X0019370Y0229854D01*
X0019224Y0229860D01*
X0019078Y0229870D01*
X0018932Y0229884D01*
X0018786Y0229902D01*
X0018641Y0229923D01*
X0018497Y0229949D01*
X0018353Y0229979D01*
X0018211Y0230012D01*
X0018069Y0230049D01*
X0017928Y0230090D01*
X0017789Y0230135D01*
X0017650Y0230184D01*
X0017513Y0230236D01*
X0017378Y0230293D01*
X0017244Y0230352D01*
X0017112Y0230416D01*
X0016982Y0230483D01*
X0016853Y0230553D01*
X0016726Y0230627D01*
X0016602Y0230704D01*
X0016479Y0230785D01*
X0016359Y0230869D01*
X0016241Y0230956D01*
X0016126Y0231046D01*
X0016013Y0231139D01*
X0015902Y0231236D01*
X0015794Y0231335D01*
X0015689Y0231437D01*
X0015587Y0231542D01*
X0015488Y0231650D01*
X0015391Y0231761D01*
X0015298Y0231874D01*
X0015208Y0231989D01*
X0015121Y0232107D01*
X0015037Y0232227D01*
X0014956Y0232350D01*
X0014879Y0232474D01*
X0014805Y0232601D01*
X0014735Y0232730D01*
X0014668Y0232860D01*
X0014604Y0232992D01*
X0014545Y0233126D01*
X0014488Y0233261D01*
X0014436Y0233398D01*
X0014387Y0233537D01*
X0014342Y0233676D01*
X0014301Y0233817D01*
X0014264Y0233959D01*
X0014231Y0234101D01*
X0014201Y0234245D01*
X0014175Y0234389D01*
X0014154Y0234534D01*
X0014136Y0234680D01*
X0014122Y0234826D01*
X0014112Y0234972D01*
X0014106Y0235118D01*
X0014104Y0235265D01*
X0242351Y0235265D02*
X0242353Y0235413D01*
X0242359Y0235561D01*
X0242369Y0235709D01*
X0242383Y0235856D01*
X0242401Y0236003D01*
X0242422Y0236149D01*
X0242448Y0236295D01*
X0242478Y0236440D01*
X0242511Y0236584D01*
X0242549Y0236727D01*
X0242590Y0236869D01*
X0242635Y0237010D01*
X0242683Y0237150D01*
X0242736Y0237289D01*
X0242792Y0237426D01*
X0242852Y0237561D01*
X0242915Y0237695D01*
X0242982Y0237827D01*
X0243053Y0237957D01*
X0243127Y0238085D01*
X0243204Y0238211D01*
X0243285Y0238335D01*
X0243369Y0238457D01*
X0243456Y0238576D01*
X0243547Y0238693D01*
X0243641Y0238808D01*
X0243737Y0238920D01*
X0243837Y0239030D01*
X0243939Y0239136D01*
X0244045Y0239240D01*
X0244153Y0239341D01*
X0244264Y0239439D01*
X0244377Y0239535D01*
X0244493Y0239627D01*
X0244611Y0239716D01*
X0244732Y0239801D01*
X0244855Y0239884D01*
X0244980Y0239963D01*
X0245107Y0240039D01*
X0245236Y0240111D01*
X0245367Y0240180D01*
X0245500Y0240245D01*
X0245635Y0240306D01*
X0245771Y0240364D01*
X0245908Y0240419D01*
X0246047Y0240469D01*
X0246188Y0240516D01*
X0246329Y0240559D01*
X0246472Y0240599D01*
X0246616Y0240634D01*
X0246760Y0240666D01*
X0246906Y0240693D01*
X0247052Y0240717D01*
X0247199Y0240737D01*
X0247346Y0240753D01*
X0247493Y0240765D01*
X0247641Y0240773D01*
X0247789Y0240777D01*
X0247937Y0240777D01*
X0248085Y0240773D01*
X0248233Y0240765D01*
X0248380Y0240753D01*
X0248527Y0240737D01*
X0248674Y0240717D01*
X0248820Y0240693D01*
X0248966Y0240666D01*
X0249110Y0240634D01*
X0249254Y0240599D01*
X0249397Y0240559D01*
X0249538Y0240516D01*
X0249679Y0240469D01*
X0249818Y0240419D01*
X0249955Y0240364D01*
X0250091Y0240306D01*
X0250226Y0240245D01*
X0250359Y0240180D01*
X0250490Y0240111D01*
X0250619Y0240039D01*
X0250746Y0239963D01*
X0250871Y0239884D01*
X0250994Y0239801D01*
X0251115Y0239716D01*
X0251233Y0239627D01*
X0251349Y0239535D01*
X0251462Y0239439D01*
X0251573Y0239341D01*
X0251681Y0239240D01*
X0251787Y0239136D01*
X0251889Y0239030D01*
X0251989Y0238920D01*
X0252085Y0238808D01*
X0252179Y0238693D01*
X0252270Y0238576D01*
X0252357Y0238457D01*
X0252441Y0238335D01*
X0252522Y0238211D01*
X0252599Y0238085D01*
X0252673Y0237957D01*
X0252744Y0237827D01*
X0252811Y0237695D01*
X0252874Y0237561D01*
X0252934Y0237426D01*
X0252990Y0237289D01*
X0253043Y0237150D01*
X0253091Y0237010D01*
X0253136Y0236869D01*
X0253177Y0236727D01*
X0253215Y0236584D01*
X0253248Y0236440D01*
X0253278Y0236295D01*
X0253304Y0236149D01*
X0253325Y0236003D01*
X0253343Y0235856D01*
X0253357Y0235709D01*
X0253367Y0235561D01*
X0253373Y0235413D01*
X0253375Y0235265D01*
X0253373Y0235117D01*
X0253367Y0234969D01*
X0253357Y0234821D01*
X0253343Y0234674D01*
X0253325Y0234527D01*
X0253304Y0234381D01*
X0253278Y0234235D01*
X0253248Y0234090D01*
X0253215Y0233946D01*
X0253177Y0233803D01*
X0253136Y0233661D01*
X0253091Y0233520D01*
X0253043Y0233380D01*
X0252990Y0233241D01*
X0252934Y0233104D01*
X0252874Y0232969D01*
X0252811Y0232835D01*
X0252744Y0232703D01*
X0252673Y0232573D01*
X0252599Y0232445D01*
X0252522Y0232319D01*
X0252441Y0232195D01*
X0252357Y0232073D01*
X0252270Y0231954D01*
X0252179Y0231837D01*
X0252085Y0231722D01*
X0251989Y0231610D01*
X0251889Y0231500D01*
X0251787Y0231394D01*
X0251681Y0231290D01*
X0251573Y0231189D01*
X0251462Y0231091D01*
X0251349Y0230995D01*
X0251233Y0230903D01*
X0251115Y0230814D01*
X0250994Y0230729D01*
X0250871Y0230646D01*
X0250746Y0230567D01*
X0250619Y0230491D01*
X0250490Y0230419D01*
X0250359Y0230350D01*
X0250226Y0230285D01*
X0250091Y0230224D01*
X0249955Y0230166D01*
X0249818Y0230111D01*
X0249679Y0230061D01*
X0249538Y0230014D01*
X0249397Y0229971D01*
X0249254Y0229931D01*
X0249110Y0229896D01*
X0248966Y0229864D01*
X0248820Y0229837D01*
X0248674Y0229813D01*
X0248527Y0229793D01*
X0248380Y0229777D01*
X0248233Y0229765D01*
X0248085Y0229757D01*
X0247937Y0229753D01*
X0247789Y0229753D01*
X0247641Y0229757D01*
X0247493Y0229765D01*
X0247346Y0229777D01*
X0247199Y0229793D01*
X0247052Y0229813D01*
X0246906Y0229837D01*
X0246760Y0229864D01*
X0246616Y0229896D01*
X0246472Y0229931D01*
X0246329Y0229971D01*
X0246188Y0230014D01*
X0246047Y0230061D01*
X0245908Y0230111D01*
X0245771Y0230166D01*
X0245635Y0230224D01*
X0245500Y0230285D01*
X0245367Y0230350D01*
X0245236Y0230419D01*
X0245107Y0230491D01*
X0244980Y0230567D01*
X0244855Y0230646D01*
X0244732Y0230729D01*
X0244611Y0230814D01*
X0244493Y0230903D01*
X0244377Y0230995D01*
X0244264Y0231091D01*
X0244153Y0231189D01*
X0244045Y0231290D01*
X0243939Y0231394D01*
X0243837Y0231500D01*
X0243737Y0231610D01*
X0243641Y0231722D01*
X0243547Y0231837D01*
X0243456Y0231954D01*
X0243369Y0232073D01*
X0243285Y0232195D01*
X0243204Y0232319D01*
X0243127Y0232445D01*
X0243053Y0232573D01*
X0242982Y0232703D01*
X0242915Y0232835D01*
X0242852Y0232969D01*
X0242792Y0233104D01*
X0242736Y0233241D01*
X0242683Y0233380D01*
X0242635Y0233520D01*
X0242590Y0233661D01*
X0242549Y0233803D01*
X0242511Y0233946D01*
X0242478Y0234090D01*
X0242448Y0234235D01*
X0242422Y0234381D01*
X0242401Y0234527D01*
X0242383Y0234674D01*
X0242369Y0234821D01*
X0242359Y0234969D01*
X0242353Y0235117D01*
X0242351Y0235265D01*
X0242351Y0042351D02*
X0242353Y0042499D01*
X0242359Y0042647D01*
X0242369Y0042795D01*
X0242383Y0042942D01*
X0242401Y0043089D01*
X0242422Y0043235D01*
X0242448Y0043381D01*
X0242478Y0043526D01*
X0242511Y0043670D01*
X0242549Y0043813D01*
X0242590Y0043955D01*
X0242635Y0044096D01*
X0242683Y0044236D01*
X0242736Y0044375D01*
X0242792Y0044512D01*
X0242852Y0044647D01*
X0242915Y0044781D01*
X0242982Y0044913D01*
X0243053Y0045043D01*
X0243127Y0045171D01*
X0243204Y0045297D01*
X0243285Y0045421D01*
X0243369Y0045543D01*
X0243456Y0045662D01*
X0243547Y0045779D01*
X0243641Y0045894D01*
X0243737Y0046006D01*
X0243837Y0046116D01*
X0243939Y0046222D01*
X0244045Y0046326D01*
X0244153Y0046427D01*
X0244264Y0046525D01*
X0244377Y0046621D01*
X0244493Y0046713D01*
X0244611Y0046802D01*
X0244732Y0046887D01*
X0244855Y0046970D01*
X0244980Y0047049D01*
X0245107Y0047125D01*
X0245236Y0047197D01*
X0245367Y0047266D01*
X0245500Y0047331D01*
X0245635Y0047392D01*
X0245771Y0047450D01*
X0245908Y0047505D01*
X0246047Y0047555D01*
X0246188Y0047602D01*
X0246329Y0047645D01*
X0246472Y0047685D01*
X0246616Y0047720D01*
X0246760Y0047752D01*
X0246906Y0047779D01*
X0247052Y0047803D01*
X0247199Y0047823D01*
X0247346Y0047839D01*
X0247493Y0047851D01*
X0247641Y0047859D01*
X0247789Y0047863D01*
X0247937Y0047863D01*
X0248085Y0047859D01*
X0248233Y0047851D01*
X0248380Y0047839D01*
X0248527Y0047823D01*
X0248674Y0047803D01*
X0248820Y0047779D01*
X0248966Y0047752D01*
X0249110Y0047720D01*
X0249254Y0047685D01*
X0249397Y0047645D01*
X0249538Y0047602D01*
X0249679Y0047555D01*
X0249818Y0047505D01*
X0249955Y0047450D01*
X0250091Y0047392D01*
X0250226Y0047331D01*
X0250359Y0047266D01*
X0250490Y0047197D01*
X0250619Y0047125D01*
X0250746Y0047049D01*
X0250871Y0046970D01*
X0250994Y0046887D01*
X0251115Y0046802D01*
X0251233Y0046713D01*
X0251349Y0046621D01*
X0251462Y0046525D01*
X0251573Y0046427D01*
X0251681Y0046326D01*
X0251787Y0046222D01*
X0251889Y0046116D01*
X0251989Y0046006D01*
X0252085Y0045894D01*
X0252179Y0045779D01*
X0252270Y0045662D01*
X0252357Y0045543D01*
X0252441Y0045421D01*
X0252522Y0045297D01*
X0252599Y0045171D01*
X0252673Y0045043D01*
X0252744Y0044913D01*
X0252811Y0044781D01*
X0252874Y0044647D01*
X0252934Y0044512D01*
X0252990Y0044375D01*
X0253043Y0044236D01*
X0253091Y0044096D01*
X0253136Y0043955D01*
X0253177Y0043813D01*
X0253215Y0043670D01*
X0253248Y0043526D01*
X0253278Y0043381D01*
X0253304Y0043235D01*
X0253325Y0043089D01*
X0253343Y0042942D01*
X0253357Y0042795D01*
X0253367Y0042647D01*
X0253373Y0042499D01*
X0253375Y0042351D01*
X0253373Y0042203D01*
X0253367Y0042055D01*
X0253357Y0041907D01*
X0253343Y0041760D01*
X0253325Y0041613D01*
X0253304Y0041467D01*
X0253278Y0041321D01*
X0253248Y0041176D01*
X0253215Y0041032D01*
X0253177Y0040889D01*
X0253136Y0040747D01*
X0253091Y0040606D01*
X0253043Y0040466D01*
X0252990Y0040327D01*
X0252934Y0040190D01*
X0252874Y0040055D01*
X0252811Y0039921D01*
X0252744Y0039789D01*
X0252673Y0039659D01*
X0252599Y0039531D01*
X0252522Y0039405D01*
X0252441Y0039281D01*
X0252357Y0039159D01*
X0252270Y0039040D01*
X0252179Y0038923D01*
X0252085Y0038808D01*
X0251989Y0038696D01*
X0251889Y0038586D01*
X0251787Y0038480D01*
X0251681Y0038376D01*
X0251573Y0038275D01*
X0251462Y0038177D01*
X0251349Y0038081D01*
X0251233Y0037989D01*
X0251115Y0037900D01*
X0250994Y0037815D01*
X0250871Y0037732D01*
X0250746Y0037653D01*
X0250619Y0037577D01*
X0250490Y0037505D01*
X0250359Y0037436D01*
X0250226Y0037371D01*
X0250091Y0037310D01*
X0249955Y0037252D01*
X0249818Y0037197D01*
X0249679Y0037147D01*
X0249538Y0037100D01*
X0249397Y0037057D01*
X0249254Y0037017D01*
X0249110Y0036982D01*
X0248966Y0036950D01*
X0248820Y0036923D01*
X0248674Y0036899D01*
X0248527Y0036879D01*
X0248380Y0036863D01*
X0248233Y0036851D01*
X0248085Y0036843D01*
X0247937Y0036839D01*
X0247789Y0036839D01*
X0247641Y0036843D01*
X0247493Y0036851D01*
X0247346Y0036863D01*
X0247199Y0036879D01*
X0247052Y0036899D01*
X0246906Y0036923D01*
X0246760Y0036950D01*
X0246616Y0036982D01*
X0246472Y0037017D01*
X0246329Y0037057D01*
X0246188Y0037100D01*
X0246047Y0037147D01*
X0245908Y0037197D01*
X0245771Y0037252D01*
X0245635Y0037310D01*
X0245500Y0037371D01*
X0245367Y0037436D01*
X0245236Y0037505D01*
X0245107Y0037577D01*
X0244980Y0037653D01*
X0244855Y0037732D01*
X0244732Y0037815D01*
X0244611Y0037900D01*
X0244493Y0037989D01*
X0244377Y0038081D01*
X0244264Y0038177D01*
X0244153Y0038275D01*
X0244045Y0038376D01*
X0243939Y0038480D01*
X0243837Y0038586D01*
X0243737Y0038696D01*
X0243641Y0038808D01*
X0243547Y0038923D01*
X0243456Y0039040D01*
X0243369Y0039159D01*
X0243285Y0039281D01*
X0243204Y0039405D01*
X0243127Y0039531D01*
X0243053Y0039659D01*
X0242982Y0039789D01*
X0242915Y0039921D01*
X0242852Y0040055D01*
X0242792Y0040190D01*
X0242736Y0040327D01*
X0242683Y0040466D01*
X0242635Y0040606D01*
X0242590Y0040747D01*
X0242549Y0040889D01*
X0242511Y0041032D01*
X0242478Y0041176D01*
X0242448Y0041321D01*
X0242422Y0041467D01*
X0242401Y0041613D01*
X0242383Y0041760D01*
X0242369Y0041907D01*
X0242359Y0042055D01*
X0242353Y0042203D01*
X0242351Y0042351D01*
D11*
X0066323Y0034509D03*
X0038823Y0034309D03*
D12*
X0038690Y0230265D03*
X0038690Y0240265D03*
X0048690Y0240265D03*
X0058690Y0240265D03*
X0068690Y0240265D03*
X0078690Y0240265D03*
X0088690Y0240265D03*
X0098690Y0240265D03*
X0108690Y0240265D03*
X0118690Y0240265D03*
X0128690Y0240265D03*
X0138690Y0240265D03*
X0148690Y0240265D03*
X0158690Y0240265D03*
X0168690Y0240265D03*
X0178690Y0240265D03*
X0188690Y0240265D03*
X0198690Y0240265D03*
X0208690Y0240265D03*
X0218690Y0240265D03*
X0228690Y0240265D03*
X0228690Y0230265D03*
X0218690Y0230265D03*
X0208690Y0230265D03*
X0198690Y0230265D03*
X0188690Y0230265D03*
X0178690Y0230265D03*
X0168690Y0230265D03*
X0158690Y0230265D03*
X0148690Y0230265D03*
X0138690Y0230265D03*
X0128690Y0230265D03*
X0118690Y0230265D03*
X0108690Y0230265D03*
X0098690Y0230265D03*
X0088690Y0230265D03*
X0078690Y0230265D03*
X0068690Y0230265D03*
X0058690Y0230265D03*
X0048690Y0230265D03*
D13*
X0027828Y0171131D02*
X0022228Y0171131D01*
X0022228Y0161131D02*
X0027828Y0161131D01*
X0027828Y0151131D02*
X0022228Y0151131D01*
X0022228Y0141131D02*
X0027828Y0141131D01*
X0234433Y0141131D02*
X0240033Y0141131D01*
X0240033Y0151131D02*
X0234433Y0151131D01*
X0234433Y0161131D02*
X0240033Y0161131D01*
X0240033Y0171131D02*
X0234433Y0171131D01*
X0243488Y0100265D02*
X0249088Y0100265D01*
X0249088Y0090265D02*
X0243488Y0090265D01*
X0243488Y0080265D02*
X0249088Y0080265D01*
X0249088Y0070265D02*
X0243488Y0070265D01*
D14*
X0246249Y0070304D02*
X0223060Y0070304D01*
X0219123Y0074241D01*
X0119517Y0074241D01*
X0117942Y0075816D01*
X0071879Y0075816D01*
X0073880Y0077916D02*
X0049534Y0102262D01*
X0048746Y0103050D01*
X0052194Y0103050D01*
X0063483Y0091761D01*
X0063483Y0090369D01*
X0065172Y0088680D01*
X0067562Y0088680D01*
X0068546Y0089664D01*
X0130806Y0089664D01*
X0130806Y0089582D01*
X0132495Y0087892D01*
X0134884Y0087892D01*
X0136574Y0089582D01*
X0136574Y0091971D01*
X0134884Y0093661D01*
X0132495Y0093661D01*
X0132298Y0093464D01*
X0068546Y0093464D01*
X0067562Y0094448D01*
X0066170Y0094448D01*
X0053768Y0106850D01*
X0040776Y0106850D01*
X0039527Y0108099D01*
X0039527Y0109674D01*
X0038414Y0110787D01*
X0026603Y0122598D01*
X0015185Y0122598D01*
X0013149Y0124634D01*
X0013149Y0210316D01*
X0013480Y0209985D01*
X0014710Y0208755D01*
X0014782Y0208755D01*
X0015566Y0207971D01*
X0017955Y0207971D01*
X0019645Y0209660D01*
X0019645Y0212050D01*
X0017955Y0213739D01*
X0015665Y0213739D01*
X0014077Y0215327D01*
X0017941Y0219191D01*
X0028571Y0219191D01*
X0029684Y0220304D01*
X0030540Y0221160D01*
X0034870Y0221160D01*
X0035983Y0222273D01*
X0039675Y0225965D01*
X0040471Y0225965D01*
X0041632Y0227126D01*
X0041632Y0115580D01*
X0041829Y0115383D01*
X0041829Y0113991D01*
X0043519Y0112302D01*
X0045908Y0112302D01*
X0046105Y0112498D01*
X0046288Y0112498D01*
X0047401Y0113611D01*
X0047401Y0113794D01*
X0047598Y0113991D01*
X0047598Y0116381D01*
X0045908Y0118070D01*
X0045432Y0118070D01*
X0045432Y0227441D01*
X0046790Y0226083D01*
X0046790Y0176846D01*
X0046590Y0176646D01*
X0046590Y0174907D01*
X0046790Y0174707D01*
X0046790Y0165541D01*
X0048916Y0163415D01*
X0048916Y0162023D01*
X0050605Y0160333D01*
X0052995Y0160333D01*
X0054684Y0162023D01*
X0054684Y0164412D01*
X0052995Y0166102D01*
X0051603Y0166102D01*
X0050590Y0167115D01*
X0050590Y0171189D01*
X0055018Y0166761D01*
X0056131Y0165648D01*
X0121805Y0165648D01*
X0120569Y0164412D01*
X0120569Y0162023D01*
X0122259Y0160333D01*
X0124648Y0160333D01*
X0125632Y0161317D01*
X0174378Y0161317D01*
X0169911Y0156850D01*
X0118940Y0156850D01*
X0117955Y0157834D01*
X0115566Y0157834D01*
X0113876Y0156144D01*
X0113876Y0153755D01*
X0115566Y0152065D01*
X0117955Y0152065D01*
X0118940Y0153050D01*
X0171485Y0153050D01*
X0178440Y0160005D01*
X0178598Y0151968D01*
X0177656Y0151026D01*
X0177656Y0148637D01*
X0179345Y0146947D01*
X0181735Y0146947D01*
X0182183Y0147396D01*
X0182183Y0147075D01*
X0181328Y0146220D01*
X0129753Y0146220D01*
X0127785Y0144251D01*
X0127207Y0144251D01*
X0126223Y0145235D01*
X0123834Y0145235D01*
X0122144Y0143546D01*
X0122144Y0141156D01*
X0123774Y0139527D01*
X0108886Y0139527D01*
X0107311Y0141102D01*
X0105160Y0141102D01*
X0104176Y0142086D01*
X0101786Y0142086D01*
X0100097Y0140396D01*
X0100097Y0138007D01*
X0100960Y0137144D01*
X0099661Y0137151D01*
X0098664Y0138149D01*
X0096275Y0138149D01*
X0094585Y0136459D01*
X0094585Y0134070D01*
X0094640Y0134015D01*
X0094251Y0134015D01*
X0094251Y0139467D01*
X0095908Y0139467D01*
X0097598Y0141156D01*
X0097598Y0143546D01*
X0095908Y0145235D01*
X0093519Y0145235D01*
X0091829Y0143546D01*
X0091829Y0142421D01*
X0091663Y0142283D01*
X0091564Y0142283D01*
X0091069Y0141787D01*
X0090530Y0141338D01*
X0090521Y0141240D01*
X0090451Y0141170D01*
X0090451Y0140469D01*
X0090388Y0139771D01*
X0090451Y0139695D01*
X0090451Y0133478D01*
X0090334Y0133301D01*
X0090451Y0132714D01*
X0090451Y0132115D01*
X0090601Y0131966D01*
X0090642Y0131758D01*
X0091141Y0131426D01*
X0091308Y0131259D01*
X0075239Y0131259D01*
X0074255Y0132243D01*
X0071865Y0132243D01*
X0070176Y0130554D01*
X0070176Y0128306D01*
X0069503Y0128306D01*
X0067813Y0126617D01*
X0067813Y0124227D01*
X0069503Y0122538D01*
X0071892Y0122538D01*
X0072877Y0123522D01*
X0113991Y0123522D01*
X0114975Y0122538D01*
X0117365Y0122538D01*
X0119054Y0124227D01*
X0119054Y0126617D01*
X0118212Y0127459D01*
X0144457Y0127459D01*
X0143601Y0126603D01*
X0143533Y0126535D01*
X0143139Y0126535D01*
X0142026Y0125422D01*
X0133296Y0116692D01*
X0132183Y0115579D01*
X0132183Y0112036D01*
X0127785Y0107637D01*
X0127784Y0107637D01*
X0125550Y0109870D01*
X0125550Y0111262D01*
X0123861Y0112952D01*
X0121471Y0112952D01*
X0119782Y0111262D01*
X0119782Y0110196D01*
X0118532Y0110196D01*
X0116367Y0112361D01*
X0064792Y0112361D01*
X0058818Y0118335D01*
X0058818Y0130147D01*
X0064004Y0135333D01*
X0081117Y0135333D01*
X0082101Y0134349D01*
X0084491Y0134349D01*
X0086180Y0136038D01*
X0086180Y0138428D01*
X0084491Y0140117D01*
X0082101Y0140117D01*
X0081117Y0139133D01*
X0062430Y0139133D01*
X0056131Y0132834D01*
X0055018Y0131721D01*
X0055018Y0116761D01*
X0062105Y0109674D01*
X0063218Y0108561D01*
X0114793Y0108561D01*
X0115845Y0107509D01*
X0115845Y0106117D01*
X0117534Y0104428D01*
X0119924Y0104428D01*
X0121613Y0106117D01*
X0121613Y0107183D01*
X0122863Y0107183D01*
X0126210Y0103837D01*
X0129359Y0103837D01*
X0130472Y0104950D01*
X0135983Y0110462D01*
X0135983Y0114005D01*
X0144713Y0122735D01*
X0145107Y0122735D01*
X0145372Y0123000D01*
X0145372Y0121078D01*
X0146357Y0120094D01*
X0146357Y0106524D01*
X0144714Y0104881D01*
X0138021Y0104881D01*
X0135856Y0102716D01*
X0134464Y0102716D01*
X0132774Y0101026D01*
X0132774Y0098637D01*
X0132829Y0098582D01*
X0130540Y0098582D01*
X0126209Y0102913D01*
X0104555Y0102913D01*
X0100618Y0106850D01*
X0063611Y0106850D01*
X0060067Y0110393D01*
X0056524Y0110393D01*
X0051731Y0115185D01*
X0051731Y0149045D01*
X0060067Y0157380D01*
X0102771Y0157380D01*
X0103755Y0156396D01*
X0106144Y0156396D01*
X0107834Y0158086D01*
X0107834Y0160475D01*
X0106144Y0162165D01*
X0103755Y0162165D01*
X0102771Y0161180D01*
X0058493Y0161180D01*
X0057380Y0160067D01*
X0049045Y0151731D01*
X0049044Y0151731D01*
X0047931Y0150618D01*
X0047931Y0113611D01*
X0053837Y0107706D01*
X0054950Y0106593D01*
X0058493Y0106593D01*
X0060924Y0104163D01*
X0062037Y0103050D01*
X0099044Y0103050D01*
X0101869Y0100226D01*
X0102981Y0099113D01*
X0124635Y0099113D01*
X0127853Y0095895D01*
X0128966Y0094782D01*
X0186766Y0094782D01*
X0185530Y0093546D01*
X0185530Y0091156D01*
X0186514Y0090172D01*
X0186514Y0089090D01*
X0186314Y0088890D01*
X0186314Y0088607D01*
X0183690Y0085983D01*
X0156341Y0085983D01*
X0155357Y0086968D01*
X0152968Y0086968D01*
X0151278Y0085278D01*
X0151278Y0082889D01*
X0152968Y0081199D01*
X0155357Y0081199D01*
X0156341Y0082183D01*
X0185264Y0082183D01*
X0186377Y0083296D01*
X0189001Y0085920D01*
X0216678Y0085920D01*
X0219040Y0083558D01*
X0240984Y0083558D01*
X0240012Y0082587D01*
X0239388Y0081080D01*
X0239388Y0079449D01*
X0240012Y0077942D01*
X0241166Y0076789D01*
X0242673Y0076165D01*
X0249904Y0076165D01*
X0251411Y0076789D01*
X0252564Y0077942D01*
X0253188Y0079449D01*
X0253188Y0081080D01*
X0252564Y0082587D01*
X0251411Y0083740D01*
X0249904Y0084365D01*
X0243358Y0084365D01*
X0243782Y0084788D01*
X0245158Y0086165D01*
X0249904Y0086165D01*
X0251411Y0086789D01*
X0252564Y0087942D01*
X0253188Y0089449D01*
X0253188Y0091080D01*
X0252564Y0092587D01*
X0251411Y0093740D01*
X0249904Y0094365D01*
X0242673Y0094365D01*
X0241166Y0093740D01*
X0240012Y0092587D01*
X0239388Y0091080D01*
X0239388Y0089449D01*
X0240012Y0087942D01*
X0240196Y0087758D01*
X0220780Y0087758D01*
X0219648Y0088890D01*
X0218418Y0090120D01*
X0190314Y0090120D01*
X0190314Y0090172D01*
X0191298Y0091156D01*
X0191298Y0093546D01*
X0189829Y0095016D01*
X0199634Y0104821D01*
X0201026Y0104821D01*
X0202716Y0106511D01*
X0202716Y0108900D01*
X0201026Y0110590D01*
X0198637Y0110590D01*
X0196947Y0108900D01*
X0196947Y0107508D01*
X0188021Y0098582D01*
X0138488Y0098582D01*
X0138543Y0098637D01*
X0138543Y0100029D01*
X0139595Y0101081D01*
X0146288Y0101081D01*
X0147401Y0102194D01*
X0150157Y0104950D01*
X0150157Y0120094D01*
X0151141Y0121078D01*
X0151141Y0123467D01*
X0150692Y0123916D01*
X0151013Y0123916D01*
X0153443Y0121485D01*
X0154556Y0120372D01*
X0225422Y0120372D01*
X0226996Y0121947D01*
X0228109Y0123060D01*
X0228109Y0216760D01*
X0222991Y0221878D01*
X0222991Y0228650D01*
X0222990Y0228652D01*
X0222990Y0232046D01*
X0220471Y0234565D01*
X0216909Y0234565D01*
X0214390Y0232046D01*
X0214390Y0228483D01*
X0216909Y0225965D01*
X0219191Y0225965D01*
X0219191Y0220304D01*
X0220304Y0219191D01*
X0224309Y0215186D01*
X0224309Y0124634D01*
X0223848Y0124172D01*
X0205206Y0124172D01*
X0206721Y0125687D01*
X0208113Y0125687D01*
X0209802Y0127377D01*
X0209802Y0129766D01*
X0208113Y0131456D01*
X0205723Y0131456D01*
X0204034Y0129766D01*
X0204034Y0128374D01*
X0202981Y0127322D01*
X0181144Y0127322D01*
X0180160Y0128306D01*
X0177771Y0128306D01*
X0176081Y0126617D01*
X0176081Y0124227D01*
X0176136Y0124172D01*
X0156130Y0124172D01*
X0152844Y0127459D01*
X0174483Y0127459D01*
X0174689Y0127331D01*
X0175245Y0127459D01*
X0175815Y0127459D01*
X0175987Y0127630D01*
X0176222Y0127685D01*
X0176525Y0128169D01*
X0176928Y0128572D01*
X0176928Y0128814D01*
X0179403Y0132774D01*
X0180160Y0132774D01*
X0181850Y0134464D01*
X0181850Y0136853D01*
X0181007Y0137695D01*
X0182509Y0137695D01*
X0182971Y0137233D01*
X0182971Y0135869D01*
X0181987Y0134884D01*
X0181987Y0132495D01*
X0183676Y0130806D01*
X0186066Y0130806D01*
X0187755Y0132495D01*
X0187755Y0134884D01*
X0186771Y0135869D01*
X0186771Y0138807D01*
X0185915Y0139664D01*
X0212430Y0139664D01*
X0220894Y0148128D01*
X0222286Y0148128D01*
X0223976Y0149818D01*
X0223976Y0152207D01*
X0222286Y0153897D01*
X0219897Y0153897D01*
X0218207Y0152207D01*
X0218207Y0150815D01*
X0210856Y0143464D01*
X0183946Y0143464D01*
X0184015Y0143533D01*
X0185983Y0145501D01*
X0185983Y0148577D01*
X0187613Y0146947D01*
X0190003Y0146947D01*
X0190987Y0147931D01*
X0200618Y0147931D01*
X0220894Y0168207D01*
X0222286Y0168207D01*
X0223976Y0169897D01*
X0223976Y0172286D01*
X0222286Y0173976D01*
X0219897Y0173976D01*
X0218207Y0172286D01*
X0218207Y0170894D01*
X0199044Y0151731D01*
X0190987Y0151731D01*
X0190697Y0152021D01*
X0190334Y0225965D01*
X0190471Y0225965D01*
X0192990Y0228483D01*
X0192990Y0232046D01*
X0190471Y0234565D01*
X0186909Y0234565D01*
X0185983Y0233639D01*
X0185983Y0234213D01*
X0186998Y0235501D01*
X0187410Y0235965D01*
X0190471Y0235965D01*
X0192990Y0238483D01*
X0192990Y0242046D01*
X0190471Y0244565D01*
X0186909Y0244565D01*
X0184390Y0242046D01*
X0184390Y0238483D01*
X0184457Y0238417D01*
X0184082Y0237941D01*
X0183597Y0237395D01*
X0183601Y0237330D01*
X0182660Y0236135D01*
X0182183Y0235658D01*
X0182183Y0235529D01*
X0182104Y0235428D01*
X0182183Y0234758D01*
X0182183Y0232852D01*
X0180471Y0234565D01*
X0176909Y0234565D01*
X0174390Y0232046D01*
X0174390Y0228483D01*
X0176909Y0225965D01*
X0177144Y0225965D01*
X0178173Y0173601D01*
X0177798Y0173976D01*
X0175747Y0173976D01*
X0175747Y0184660D01*
X0176731Y0185645D01*
X0176731Y0188034D01*
X0175042Y0189724D01*
X0172653Y0189724D01*
X0170963Y0188034D01*
X0170963Y0185645D01*
X0171947Y0184660D01*
X0171947Y0165117D01*
X0132582Y0165117D01*
X0133818Y0166353D01*
X0133818Y0168743D01*
X0133566Y0168994D01*
X0133703Y0168994D01*
X0135393Y0170684D01*
X0135393Y0173073D01*
X0133703Y0174763D01*
X0131314Y0174763D01*
X0130330Y0173779D01*
X0121952Y0173779D01*
X0122007Y0173834D01*
X0122007Y0175939D01*
X0122259Y0175687D01*
X0124648Y0175687D01*
X0126338Y0177377D01*
X0126338Y0179766D01*
X0124648Y0181456D01*
X0122259Y0181456D01*
X0121023Y0180220D01*
X0121023Y0204693D01*
X0121092Y0204624D01*
X0122273Y0203443D01*
X0123060Y0203443D01*
X0138483Y0188021D01*
X0138483Y0177207D01*
X0137498Y0176223D01*
X0137498Y0173834D01*
X0139188Y0172144D01*
X0141577Y0172144D01*
X0143267Y0173834D01*
X0143267Y0176223D01*
X0142283Y0177207D01*
X0142283Y0180073D01*
X0142338Y0180018D01*
X0144727Y0180018D01*
X0146417Y0181708D01*
X0146417Y0184097D01*
X0145499Y0185014D01*
X0145514Y0185503D01*
X0147062Y0183955D01*
X0149451Y0183955D01*
X0151141Y0185645D01*
X0151141Y0188034D01*
X0150157Y0189018D01*
X0150157Y0199832D01*
X0150550Y0200226D01*
X0150550Y0201800D01*
X0149437Y0202913D01*
X0148256Y0202913D01*
X0145432Y0205737D01*
X0145432Y0219911D01*
X0145826Y0220304D01*
X0145826Y0227047D01*
X0146909Y0225965D01*
X0150471Y0225965D01*
X0151475Y0226969D01*
X0151475Y0173270D01*
X0150491Y0172286D01*
X0150491Y0169897D01*
X0152180Y0168207D01*
X0154569Y0168207D01*
X0156259Y0169897D01*
X0156259Y0172286D01*
X0155275Y0173270D01*
X0155275Y0226891D01*
X0156702Y0225465D01*
X0158490Y0225465D01*
X0158490Y0230064D01*
X0158890Y0230064D01*
X0158890Y0225465D01*
X0160678Y0225465D01*
X0163490Y0228276D01*
X0163490Y0230065D01*
X0158890Y0230065D01*
X0158890Y0230465D01*
X0158490Y0230465D01*
X0158490Y0235065D01*
X0156702Y0235065D01*
X0155275Y0233638D01*
X0155275Y0236052D01*
X0156048Y0236825D01*
X0156909Y0235965D01*
X0160471Y0235965D01*
X0162990Y0238483D01*
X0162990Y0242046D01*
X0160471Y0244565D01*
X0156909Y0244565D01*
X0154390Y0242046D01*
X0154390Y0240541D01*
X0152990Y0239141D01*
X0152990Y0242046D01*
X0150471Y0244565D01*
X0146909Y0244565D01*
X0144390Y0242046D01*
X0144390Y0241171D01*
X0143139Y0239920D01*
X0142990Y0239771D01*
X0142990Y0242046D01*
X0140471Y0244565D01*
X0136909Y0244565D01*
X0134390Y0242046D01*
X0134390Y0241407D01*
X0133490Y0240507D01*
X0133490Y0242253D01*
X0130678Y0245065D01*
X0128890Y0245065D01*
X0128890Y0240465D01*
X0128490Y0240465D01*
X0128490Y0245065D01*
X0126702Y0245065D01*
X0123890Y0242253D01*
X0123890Y0240465D01*
X0128490Y0240465D01*
X0128490Y0240065D01*
X0123890Y0240065D01*
X0123890Y0239878D01*
X0123847Y0239920D01*
X0122990Y0239920D01*
X0122990Y0242046D01*
X0120471Y0244565D01*
X0116909Y0244565D01*
X0114390Y0242046D01*
X0114390Y0238483D01*
X0116909Y0235965D01*
X0120471Y0235965D01*
X0120627Y0236120D01*
X0121947Y0236120D01*
X0121947Y0233088D01*
X0120471Y0234565D01*
X0116909Y0234565D01*
X0114390Y0232046D01*
X0114390Y0228483D01*
X0116909Y0225965D01*
X0117223Y0225965D01*
X0117223Y0205417D01*
X0116774Y0205865D01*
X0114385Y0205865D01*
X0112695Y0204176D01*
X0112695Y0201786D01*
X0114073Y0200408D01*
X0114073Y0179359D01*
X0112824Y0178109D01*
X0106524Y0178109D01*
X0101406Y0183228D01*
X0093926Y0183228D01*
X0090451Y0179752D01*
X0090451Y0177995D01*
X0089467Y0177010D01*
X0089467Y0174621D01*
X0090309Y0173779D01*
X0064398Y0173779D01*
X0057637Y0180540D01*
X0057637Y0208813D01*
X0059267Y0207183D01*
X0061656Y0207183D01*
X0062640Y0208168D01*
X0101590Y0208168D01*
X0102180Y0207577D01*
X0104569Y0207577D01*
X0106259Y0209267D01*
X0106259Y0211656D01*
X0104569Y0213346D01*
X0102180Y0213346D01*
X0100802Y0211968D01*
X0062640Y0211968D01*
X0061656Y0212952D01*
X0059267Y0212952D01*
X0057637Y0211322D01*
X0057637Y0215974D01*
X0059674Y0218010D01*
X0060787Y0219123D01*
X0060787Y0226280D01*
X0062990Y0228483D01*
X0062990Y0232046D01*
X0062065Y0232971D01*
X0065315Y0232971D01*
X0064390Y0232046D01*
X0064390Y0228483D01*
X0066909Y0225965D01*
X0070471Y0225965D01*
X0072990Y0228483D01*
X0072990Y0232046D01*
X0072065Y0232971D01*
X0074608Y0232971D01*
X0073890Y0232253D01*
X0073890Y0230465D01*
X0078490Y0230465D01*
X0078490Y0230065D01*
X0073890Y0230065D01*
X0073890Y0228276D01*
X0076702Y0225465D01*
X0078490Y0225465D01*
X0078490Y0230064D01*
X0078890Y0230064D01*
X0078890Y0225465D01*
X0080678Y0225465D01*
X0083490Y0228276D01*
X0083490Y0230065D01*
X0078890Y0230065D01*
X0078890Y0230465D01*
X0083490Y0230465D01*
X0083490Y0232253D01*
X0082772Y0232971D01*
X0085315Y0232971D01*
X0084390Y0232046D01*
X0084390Y0228483D01*
X0086909Y0225965D01*
X0090471Y0225965D01*
X0092990Y0228483D01*
X0092990Y0232046D01*
X0092065Y0232971D01*
X0095315Y0232971D01*
X0094390Y0232046D01*
X0094390Y0228483D01*
X0096909Y0225965D01*
X0100471Y0225965D01*
X0102990Y0228483D01*
X0102990Y0232046D01*
X0102065Y0232971D01*
X0105315Y0232971D01*
X0104390Y0232046D01*
X0104390Y0228483D01*
X0106790Y0226083D01*
X0106790Y0181314D01*
X0108479Y0179624D01*
X0110869Y0179624D01*
X0112558Y0181314D01*
X0112558Y0183703D01*
X0110869Y0185393D01*
X0110590Y0185393D01*
X0110590Y0226083D01*
X0112990Y0228483D01*
X0112990Y0232046D01*
X0110471Y0234565D01*
X0107330Y0234565D01*
X0108730Y0235965D01*
X0110471Y0235965D01*
X0112990Y0238483D01*
X0112990Y0242046D01*
X0110471Y0244565D01*
X0106909Y0244565D01*
X0104390Y0242046D01*
X0104390Y0238483D01*
X0105132Y0237741D01*
X0104163Y0236771D01*
X0101984Y0236771D01*
X0103490Y0238276D01*
X0103490Y0240065D01*
X0098890Y0240065D01*
X0098890Y0240465D01*
X0098490Y0240465D01*
X0098490Y0245065D01*
X0096702Y0245065D01*
X0093890Y0242253D01*
X0093890Y0240465D01*
X0098490Y0240465D01*
X0098490Y0240065D01*
X0093890Y0240065D01*
X0093890Y0238276D01*
X0095395Y0236771D01*
X0091277Y0236771D01*
X0092990Y0238483D01*
X0092990Y0242046D01*
X0090471Y0244565D01*
X0086909Y0244565D01*
X0084390Y0242046D01*
X0084390Y0238483D01*
X0086102Y0236771D01*
X0081277Y0236771D01*
X0082990Y0238483D01*
X0082990Y0242046D01*
X0080471Y0244565D01*
X0076909Y0244565D01*
X0074390Y0242046D01*
X0074390Y0238483D01*
X0076102Y0236771D01*
X0071277Y0236771D01*
X0072990Y0238483D01*
X0072990Y0242046D01*
X0070471Y0244565D01*
X0066909Y0244565D01*
X0064390Y0242046D01*
X0064390Y0238483D01*
X0066102Y0236771D01*
X0061984Y0236771D01*
X0063490Y0238276D01*
X0063490Y0240065D01*
X0058890Y0240065D01*
X0058890Y0240465D01*
X0058490Y0240465D01*
X0058490Y0245065D01*
X0056702Y0245065D01*
X0053890Y0242253D01*
X0053890Y0240465D01*
X0058490Y0240465D01*
X0058490Y0240065D01*
X0053890Y0240065D01*
X0053890Y0238276D01*
X0055395Y0236771D01*
X0051277Y0236771D01*
X0052990Y0238483D01*
X0052990Y0242046D01*
X0050471Y0244565D01*
X0046909Y0244565D01*
X0044390Y0242046D01*
X0044390Y0238483D01*
X0046102Y0236771D01*
X0044320Y0236771D01*
X0041632Y0234083D01*
X0041632Y0233403D01*
X0040471Y0234565D01*
X0036909Y0234565D01*
X0034390Y0232046D01*
X0034390Y0228483D01*
X0035605Y0227268D01*
X0033296Y0224960D01*
X0028966Y0224960D01*
X0026997Y0222991D01*
X0023304Y0222991D01*
X0024740Y0223355D01*
X0028324Y0225697D01*
X0030954Y0229075D01*
X0032344Y0233124D01*
X0032344Y0237405D01*
X0030954Y0241454D01*
X0028324Y0244832D01*
X0024740Y0247174D01*
X0020590Y0248225D01*
X0016324Y0247871D01*
X0012404Y0246152D01*
X0009254Y0243252D01*
X0007866Y0240687D01*
X0008045Y0241645D01*
X0009290Y0244243D01*
X0011164Y0246430D01*
X0013541Y0248057D01*
X0016257Y0249013D01*
X0017649Y0249213D01*
X0249730Y0249213D01*
X0251122Y0249013D01*
X0253839Y0248057D01*
X0256215Y0246430D01*
X0258090Y0244243D01*
X0259334Y0241645D01*
X0259454Y0241007D01*
X0259300Y0241454D01*
X0256671Y0244832D01*
X0253087Y0247174D01*
X0248937Y0248225D01*
X0244671Y0247871D01*
X0240750Y0246152D01*
X0237600Y0243252D01*
X0235563Y0239487D01*
X0235019Y0236228D01*
X0234083Y0237165D01*
X0232877Y0238371D01*
X0232990Y0238483D01*
X0232990Y0242046D01*
X0230471Y0244565D01*
X0226909Y0244565D01*
X0224390Y0242046D01*
X0224390Y0238483D01*
X0226909Y0235965D01*
X0229909Y0235965D01*
X0231396Y0234478D01*
X0231396Y0234346D01*
X0230678Y0235065D01*
X0228890Y0235065D01*
X0228890Y0230465D01*
X0228490Y0230465D01*
X0228490Y0235065D01*
X0226702Y0235065D01*
X0223890Y0232253D01*
X0223890Y0230465D01*
X0228490Y0230465D01*
X0228490Y0230065D01*
X0223890Y0230065D01*
X0223890Y0228276D01*
X0226702Y0225465D01*
X0228490Y0225465D01*
X0228490Y0230064D01*
X0228890Y0230064D01*
X0228890Y0225465D01*
X0230678Y0225465D01*
X0231790Y0226576D01*
X0231790Y0224241D01*
X0233365Y0222667D01*
X0233365Y0188021D01*
X0243601Y0177785D01*
X0243601Y0173231D01*
X0243509Y0173453D01*
X0242356Y0174607D01*
X0240849Y0175231D01*
X0233618Y0175231D01*
X0232111Y0174607D01*
X0230957Y0173453D01*
X0230333Y0171946D01*
X0230333Y0170315D01*
X0230957Y0168808D01*
X0232111Y0167655D01*
X0233618Y0167031D01*
X0240849Y0167031D01*
X0242356Y0167655D01*
X0243509Y0168808D01*
X0243601Y0169030D01*
X0243601Y0163231D01*
X0243509Y0163453D01*
X0242356Y0164607D01*
X0240849Y0165231D01*
X0233618Y0165231D01*
X0232111Y0164607D01*
X0230957Y0163453D01*
X0230333Y0161946D01*
X0230333Y0160315D01*
X0230957Y0158808D01*
X0232111Y0157655D01*
X0233618Y0157031D01*
X0240849Y0157031D01*
X0242356Y0157655D01*
X0243509Y0158808D01*
X0243601Y0159030D01*
X0243601Y0153231D01*
X0243509Y0153453D01*
X0242356Y0154607D01*
X0240849Y0155231D01*
X0233618Y0155231D01*
X0232111Y0154607D01*
X0230957Y0153453D01*
X0230333Y0151946D01*
X0230333Y0150315D01*
X0230957Y0148808D01*
X0232111Y0147655D01*
X0233618Y0147031D01*
X0240849Y0147031D01*
X0242356Y0147655D01*
X0243509Y0148808D01*
X0243601Y0149030D01*
X0243601Y0144046D01*
X0243542Y0144127D01*
X0243030Y0144639D01*
X0242444Y0145065D01*
X0241799Y0145394D01*
X0241110Y0145617D01*
X0240395Y0145731D01*
X0237333Y0145731D01*
X0237333Y0141231D01*
X0237133Y0141231D01*
X0237133Y0145731D01*
X0234071Y0145731D01*
X0233356Y0145617D01*
X0232667Y0145394D01*
X0232022Y0145065D01*
X0231436Y0144639D01*
X0230924Y0144127D01*
X0230499Y0143542D01*
X0230170Y0142896D01*
X0229946Y0142208D01*
X0229833Y0141493D01*
X0229833Y0141231D01*
X0237133Y0141231D01*
X0237133Y0141031D01*
X0229833Y0141031D01*
X0229833Y0140769D01*
X0229946Y0140054D01*
X0230170Y0139365D01*
X0230499Y0138720D01*
X0230924Y0138134D01*
X0231436Y0137622D01*
X0232022Y0137196D01*
X0232667Y0136868D01*
X0233356Y0136644D01*
X0234071Y0136531D01*
X0237133Y0136531D01*
X0237133Y0141031D01*
X0237333Y0141031D01*
X0237333Y0136531D01*
X0240395Y0136531D01*
X0241110Y0136644D01*
X0241799Y0136868D01*
X0242444Y0137196D01*
X0243030Y0137622D01*
X0243542Y0138134D01*
X0243601Y0138215D01*
X0243601Y0116367D01*
X0243139Y0115905D01*
X0158703Y0115905D01*
X0157719Y0116889D01*
X0155330Y0116889D01*
X0153640Y0115199D01*
X0153640Y0112810D01*
X0155330Y0111120D01*
X0157719Y0111120D01*
X0158703Y0112105D01*
X0244713Y0112105D01*
X0245826Y0113218D01*
X0247401Y0114793D01*
X0247401Y0179359D01*
X0246288Y0180472D01*
X0237165Y0189595D01*
X0237165Y0224241D01*
X0236052Y0225354D01*
X0235590Y0225815D01*
X0235590Y0230992D01*
X0237600Y0227277D01*
X0240750Y0224377D01*
X0244671Y0222658D01*
X0248937Y0222304D01*
X0253087Y0223355D01*
X0256671Y0225697D01*
X0259300Y0229075D01*
X0259843Y0230654D01*
X0259843Y0046961D01*
X0259300Y0048541D01*
X0256671Y0051919D01*
X0253087Y0054261D01*
X0248937Y0055311D01*
X0244671Y0054958D01*
X0240750Y0053238D01*
X0237600Y0050339D01*
X0235563Y0046574D01*
X0234858Y0042351D01*
X0235563Y0038129D01*
X0237600Y0034364D01*
X0240750Y0031464D01*
X0243241Y0030372D01*
X0069719Y0030372D01*
X0069804Y0030433D01*
X0070398Y0031028D01*
X0070893Y0031708D01*
X0071275Y0032458D01*
X0071535Y0033257D01*
X0071666Y0034088D01*
X0071666Y0034128D01*
X0066704Y0034128D01*
X0066704Y0034890D01*
X0065942Y0034890D01*
X0065942Y0039852D01*
X0065902Y0039852D01*
X0065072Y0039720D01*
X0064272Y0039460D01*
X0063522Y0039079D01*
X0062842Y0038584D01*
X0062247Y0037990D01*
X0061753Y0037309D01*
X0061371Y0036560D01*
X0061111Y0035760D01*
X0060980Y0034929D01*
X0060980Y0034890D01*
X0065942Y0034890D01*
X0065942Y0034128D01*
X0060980Y0034128D01*
X0060980Y0034088D01*
X0061111Y0033257D01*
X0061371Y0032458D01*
X0061753Y0031708D01*
X0062247Y0031028D01*
X0062842Y0030433D01*
X0062926Y0030372D01*
X0042442Y0030372D01*
X0042898Y0030828D01*
X0043393Y0031508D01*
X0043775Y0032258D01*
X0044035Y0033057D01*
X0044166Y0033888D01*
X0044166Y0033928D01*
X0039204Y0033928D01*
X0039204Y0034690D01*
X0038442Y0034690D01*
X0038442Y0039652D01*
X0038402Y0039652D01*
X0037572Y0039520D01*
X0036772Y0039260D01*
X0036022Y0038879D01*
X0035342Y0038384D01*
X0034747Y0037790D01*
X0034253Y0037109D01*
X0033871Y0036360D01*
X0033611Y0035560D01*
X0033480Y0034729D01*
X0033480Y0034690D01*
X0038442Y0034690D01*
X0038442Y0033928D01*
X0033480Y0033928D01*
X0033480Y0033888D01*
X0033611Y0033057D01*
X0033871Y0032258D01*
X0034253Y0031508D01*
X0034747Y0030828D01*
X0035203Y0030372D01*
X0025236Y0030372D01*
X0028324Y0032390D01*
X0030954Y0035768D01*
X0032344Y0039817D01*
X0032344Y0044098D01*
X0030954Y0048147D01*
X0028324Y0051525D01*
X0024740Y0053867D01*
X0020590Y0054918D01*
X0016324Y0054564D01*
X0012404Y0052845D01*
X0009254Y0049945D01*
X0007537Y0046772D01*
X0007537Y0230450D01*
X0009254Y0227277D01*
X0012404Y0224377D01*
X0016122Y0222746D01*
X0010662Y0217286D01*
X0010379Y0217286D01*
X0009149Y0216056D01*
X0009149Y0214316D01*
X0009349Y0214116D01*
X0009349Y0123060D01*
X0012498Y0119911D01*
X0013611Y0118798D01*
X0025029Y0118798D01*
X0035727Y0108100D01*
X0035727Y0106525D01*
X0038089Y0104163D01*
X0038748Y0103503D01*
X0038401Y0103503D01*
X0037991Y0103093D01*
X0037953Y0103077D01*
X0037137Y0102262D01*
X0037121Y0102224D01*
X0036711Y0101814D01*
X0036711Y0101234D01*
X0036695Y0101196D01*
X0036695Y0100042D01*
X0036711Y0100004D01*
X0036711Y0099424D01*
X0037121Y0099014D01*
X0037137Y0098976D01*
X0037953Y0098160D01*
X0037991Y0098145D01*
X0038401Y0097735D01*
X0038980Y0097735D01*
X0039018Y0097719D01*
X0045874Y0097719D01*
X0070236Y0073357D01*
X0086378Y0057216D01*
X0086416Y0057200D01*
X0086826Y0056790D01*
X0087406Y0056790D01*
X0087444Y0056774D01*
X0088597Y0056774D01*
X0088635Y0056790D01*
X0089215Y0056790D01*
X0089625Y0057200D01*
X0089663Y0057216D01*
X0090479Y0058031D01*
X0090495Y0058069D01*
X0090905Y0058479D01*
X0090905Y0059059D01*
X0090920Y0059097D01*
X0090920Y0060251D01*
X0090905Y0060289D01*
X0090905Y0060869D01*
X0090495Y0061279D01*
X0090479Y0061317D01*
X0078080Y0073716D01*
X0117072Y0073716D01*
X0118647Y0072141D01*
X0218253Y0072141D01*
X0222190Y0068204D01*
X0239904Y0068204D01*
X0240012Y0067942D01*
X0241166Y0066789D01*
X0242673Y0066165D01*
X0249904Y0066165D01*
X0251411Y0066789D01*
X0252564Y0067942D01*
X0253188Y0069449D01*
X0253188Y0071080D01*
X0252564Y0072587D01*
X0251411Y0073740D01*
X0249904Y0074365D01*
X0242673Y0074365D01*
X0241166Y0073740D01*
X0240012Y0072587D01*
X0239937Y0072404D01*
X0223930Y0072404D01*
X0221223Y0075111D01*
X0219993Y0076341D01*
X0120386Y0076341D01*
X0120042Y0076686D01*
X0118812Y0077916D01*
X0073880Y0077916D01*
X0073670Y0078126D02*
X0239936Y0078126D01*
X0239388Y0079724D02*
X0072072Y0079724D01*
X0070473Y0081323D02*
X0152844Y0081323D01*
X0151278Y0082921D02*
X0068875Y0082921D01*
X0067276Y0084520D02*
X0151278Y0084520D01*
X0152118Y0086118D02*
X0065678Y0086118D01*
X0064079Y0087717D02*
X0185423Y0087717D01*
X0186514Y0089315D02*
X0136307Y0089315D01*
X0136574Y0090914D02*
X0185773Y0090914D01*
X0185530Y0092512D02*
X0136033Y0092512D01*
X0131072Y0089315D02*
X0068197Y0089315D01*
X0064537Y0089315D02*
X0062481Y0089315D01*
X0063483Y0090914D02*
X0060882Y0090914D01*
X0059284Y0092512D02*
X0062732Y0092512D01*
X0061133Y0094111D02*
X0057685Y0094111D01*
X0056087Y0095709D02*
X0059535Y0095709D01*
X0057936Y0097308D02*
X0054488Y0097308D01*
X0052890Y0098906D02*
X0056338Y0098906D01*
X0054739Y0100505D02*
X0051291Y0100505D01*
X0049693Y0102103D02*
X0053141Y0102103D01*
X0056916Y0103702D02*
X0061385Y0103702D01*
X0059786Y0105300D02*
X0055317Y0105300D01*
X0054644Y0106899D02*
X0040727Y0106899D01*
X0039527Y0108497D02*
X0053046Y0108497D01*
X0051447Y0110096D02*
X0039105Y0110096D01*
X0037506Y0111694D02*
X0049849Y0111694D01*
X0048250Y0113293D02*
X0047082Y0113293D01*
X0047598Y0114891D02*
X0047931Y0114891D01*
X0047931Y0116490D02*
X0047488Y0116490D01*
X0047931Y0118088D02*
X0045432Y0118088D01*
X0045432Y0119687D02*
X0047931Y0119687D01*
X0047931Y0121285D02*
X0045432Y0121285D01*
X0045432Y0122884D02*
X0047931Y0122884D01*
X0047931Y0124482D02*
X0045432Y0124482D01*
X0045432Y0126081D02*
X0047931Y0126081D01*
X0047931Y0127679D02*
X0045432Y0127679D01*
X0045432Y0129278D02*
X0047931Y0129278D01*
X0047931Y0130876D02*
X0045432Y0130876D01*
X0045432Y0132475D02*
X0047931Y0132475D01*
X0047931Y0134073D02*
X0045432Y0134073D01*
X0045432Y0135672D02*
X0047931Y0135672D01*
X0047931Y0137270D02*
X0045432Y0137270D01*
X0045432Y0138869D02*
X0047931Y0138869D01*
X0047931Y0140467D02*
X0045432Y0140467D01*
X0045432Y0142066D02*
X0047931Y0142066D01*
X0047931Y0143664D02*
X0045432Y0143664D01*
X0045432Y0145263D02*
X0047931Y0145263D01*
X0047931Y0146861D02*
X0045432Y0146861D01*
X0045432Y0148460D02*
X0047931Y0148460D01*
X0047931Y0150059D02*
X0045432Y0150059D01*
X0045432Y0151657D02*
X0048970Y0151657D01*
X0050569Y0153256D02*
X0045432Y0153256D01*
X0045432Y0154854D02*
X0052167Y0154854D01*
X0053766Y0156453D02*
X0045432Y0156453D01*
X0045432Y0158051D02*
X0055364Y0158051D01*
X0056963Y0159650D02*
X0045432Y0159650D01*
X0045432Y0161248D02*
X0049690Y0161248D01*
X0048916Y0162847D02*
X0045432Y0162847D01*
X0045432Y0164445D02*
X0047885Y0164445D01*
X0046790Y0166044D02*
X0045432Y0166044D01*
X0045432Y0167642D02*
X0046790Y0167642D01*
X0046790Y0169241D02*
X0045432Y0169241D01*
X0045432Y0170839D02*
X0046790Y0170839D01*
X0046790Y0172438D02*
X0045432Y0172438D01*
X0045432Y0174036D02*
X0046790Y0174036D01*
X0046590Y0175635D02*
X0045432Y0175635D01*
X0045432Y0177233D02*
X0046790Y0177233D01*
X0046790Y0178832D02*
X0045432Y0178832D01*
X0045432Y0180430D02*
X0046790Y0180430D01*
X0046790Y0182029D02*
X0045432Y0182029D01*
X0045432Y0183627D02*
X0046790Y0183627D01*
X0046790Y0185226D02*
X0045432Y0185226D01*
X0045432Y0186824D02*
X0046790Y0186824D01*
X0046790Y0188423D02*
X0045432Y0188423D01*
X0045432Y0190021D02*
X0046790Y0190021D01*
X0046790Y0191620D02*
X0045432Y0191620D01*
X0045432Y0193218D02*
X0046790Y0193218D01*
X0046790Y0194817D02*
X0045432Y0194817D01*
X0045432Y0196415D02*
X0046790Y0196415D01*
X0046790Y0198014D02*
X0045432Y0198014D01*
X0045432Y0199612D02*
X0046790Y0199612D01*
X0046790Y0201211D02*
X0045432Y0201211D01*
X0045432Y0202809D02*
X0046790Y0202809D01*
X0046790Y0204408D02*
X0045432Y0204408D01*
X0045432Y0206006D02*
X0046790Y0206006D01*
X0046790Y0207605D02*
X0045432Y0207605D01*
X0045432Y0209203D02*
X0046790Y0209203D01*
X0046790Y0210802D02*
X0045432Y0210802D01*
X0045432Y0212400D02*
X0046790Y0212400D01*
X0046790Y0213999D02*
X0045432Y0213999D01*
X0045432Y0215597D02*
X0046790Y0215597D01*
X0046790Y0217196D02*
X0045432Y0217196D01*
X0045432Y0218795D02*
X0046790Y0218795D01*
X0046790Y0220393D02*
X0045432Y0220393D01*
X0045432Y0221992D02*
X0046790Y0221992D01*
X0046790Y0223590D02*
X0045432Y0223590D01*
X0045432Y0225189D02*
X0046790Y0225189D01*
X0046086Y0226787D02*
X0045432Y0226787D01*
X0041632Y0226787D02*
X0041293Y0226787D01*
X0041632Y0225189D02*
X0038899Y0225189D01*
X0037301Y0223590D02*
X0041632Y0223590D01*
X0041632Y0221992D02*
X0035702Y0221992D01*
X0033525Y0225189D02*
X0027547Y0225189D01*
X0027596Y0223590D02*
X0025100Y0223590D01*
X0029773Y0220393D02*
X0041632Y0220393D01*
X0041632Y0218795D02*
X0017544Y0218795D01*
X0015946Y0217196D02*
X0041632Y0217196D01*
X0041632Y0215597D02*
X0014347Y0215597D01*
X0015406Y0213999D02*
X0041632Y0213999D01*
X0041632Y0212400D02*
X0019294Y0212400D01*
X0019645Y0210802D02*
X0041632Y0210802D01*
X0041632Y0209203D02*
X0019188Y0209203D01*
X0016761Y0210855D02*
X0015580Y0210855D01*
X0011249Y0215186D01*
X0009149Y0215597D02*
X0007537Y0215597D01*
X0007537Y0213999D02*
X0009349Y0213999D01*
X0009349Y0212400D02*
X0007537Y0212400D01*
X0007537Y0210802D02*
X0009349Y0210802D01*
X0009349Y0209203D02*
X0007537Y0209203D01*
X0007537Y0207605D02*
X0009349Y0207605D01*
X0009349Y0206006D02*
X0007537Y0206006D01*
X0007537Y0204408D02*
X0009349Y0204408D01*
X0009349Y0202809D02*
X0007537Y0202809D01*
X0007537Y0201211D02*
X0009349Y0201211D01*
X0009349Y0199612D02*
X0007537Y0199612D01*
X0007537Y0198014D02*
X0009349Y0198014D01*
X0009349Y0196415D02*
X0007537Y0196415D01*
X0007537Y0194817D02*
X0009349Y0194817D01*
X0009349Y0193218D02*
X0007537Y0193218D01*
X0007537Y0191620D02*
X0009349Y0191620D01*
X0009349Y0190021D02*
X0007537Y0190021D01*
X0007537Y0188423D02*
X0009349Y0188423D01*
X0009349Y0186824D02*
X0007537Y0186824D01*
X0007537Y0185226D02*
X0009349Y0185226D01*
X0009349Y0183627D02*
X0007537Y0183627D01*
X0007537Y0182029D02*
X0009349Y0182029D01*
X0009349Y0180430D02*
X0007537Y0180430D01*
X0007537Y0178832D02*
X0009349Y0178832D01*
X0009349Y0177233D02*
X0007537Y0177233D01*
X0007537Y0175635D02*
X0009349Y0175635D01*
X0009349Y0174036D02*
X0007537Y0174036D01*
X0007537Y0172438D02*
X0009349Y0172438D01*
X0009349Y0170839D02*
X0007537Y0170839D01*
X0007537Y0169241D02*
X0009349Y0169241D01*
X0009349Y0167642D02*
X0007537Y0167642D01*
X0007537Y0166044D02*
X0009349Y0166044D01*
X0009349Y0164445D02*
X0007537Y0164445D01*
X0007537Y0162847D02*
X0009349Y0162847D01*
X0009349Y0161248D02*
X0007537Y0161248D01*
X0007537Y0159650D02*
X0009349Y0159650D01*
X0009349Y0158051D02*
X0007537Y0158051D01*
X0007537Y0156453D02*
X0009349Y0156453D01*
X0009349Y0154854D02*
X0007537Y0154854D01*
X0007537Y0153256D02*
X0009349Y0153256D01*
X0009349Y0151657D02*
X0007537Y0151657D01*
X0007537Y0150059D02*
X0009349Y0150059D01*
X0009349Y0148460D02*
X0007537Y0148460D01*
X0007537Y0146861D02*
X0009349Y0146861D01*
X0009349Y0145263D02*
X0007537Y0145263D01*
X0007537Y0143664D02*
X0009349Y0143664D01*
X0009349Y0142066D02*
X0007537Y0142066D01*
X0007537Y0140467D02*
X0009349Y0140467D01*
X0009349Y0138869D02*
X0007537Y0138869D01*
X0007537Y0137270D02*
X0009349Y0137270D01*
X0009349Y0135672D02*
X0007537Y0135672D01*
X0007537Y0134073D02*
X0009349Y0134073D01*
X0009349Y0132475D02*
X0007537Y0132475D01*
X0007537Y0130876D02*
X0009349Y0130876D01*
X0009349Y0129278D02*
X0007537Y0129278D01*
X0007537Y0127679D02*
X0009349Y0127679D01*
X0009349Y0126081D02*
X0007537Y0126081D01*
X0007537Y0124482D02*
X0009349Y0124482D01*
X0009525Y0122884D02*
X0007537Y0122884D01*
X0007537Y0121285D02*
X0011124Y0121285D01*
X0012722Y0119687D02*
X0007537Y0119687D01*
X0007537Y0118088D02*
X0025738Y0118088D01*
X0027337Y0116490D02*
X0007537Y0116490D01*
X0007537Y0114891D02*
X0028935Y0114891D01*
X0030534Y0113293D02*
X0007537Y0113293D01*
X0007537Y0111694D02*
X0032132Y0111694D01*
X0033731Y0110096D02*
X0007537Y0110096D01*
X0007537Y0108497D02*
X0035329Y0108497D01*
X0035727Y0106899D02*
X0007537Y0106899D01*
X0007537Y0105300D02*
X0036951Y0105300D01*
X0038550Y0103702D02*
X0007537Y0103702D01*
X0007537Y0102103D02*
X0037001Y0102103D01*
X0036695Y0100505D02*
X0007537Y0100505D01*
X0007537Y0098906D02*
X0037207Y0098906D01*
X0046286Y0097308D02*
X0007537Y0097308D01*
X0007537Y0095709D02*
X0047884Y0095709D01*
X0049483Y0094111D02*
X0007537Y0094111D01*
X0007537Y0092512D02*
X0051081Y0092512D01*
X0052680Y0090914D02*
X0007537Y0090914D01*
X0007537Y0089315D02*
X0054278Y0089315D01*
X0055877Y0087717D02*
X0007537Y0087717D01*
X0007537Y0086118D02*
X0057475Y0086118D01*
X0059074Y0084520D02*
X0007537Y0084520D01*
X0007537Y0082921D02*
X0060672Y0082921D01*
X0062271Y0081323D02*
X0007537Y0081323D01*
X0007537Y0079724D02*
X0063869Y0079724D01*
X0065468Y0078126D02*
X0007537Y0078126D01*
X0007537Y0076527D02*
X0067066Y0076527D01*
X0068665Y0074928D02*
X0007537Y0074928D01*
X0007537Y0073330D02*
X0070263Y0073330D01*
X0071862Y0071731D02*
X0007537Y0071731D01*
X0007537Y0070133D02*
X0073460Y0070133D01*
X0075059Y0068534D02*
X0007537Y0068534D01*
X0007537Y0066936D02*
X0076657Y0066936D01*
X0078256Y0065337D02*
X0007537Y0065337D01*
X0007537Y0063739D02*
X0079854Y0063739D01*
X0081453Y0062140D02*
X0007537Y0062140D01*
X0007537Y0060542D02*
X0083051Y0060542D01*
X0084650Y0058943D02*
X0007537Y0058943D01*
X0007537Y0057345D02*
X0048542Y0057345D01*
X0048637Y0057440D02*
X0046947Y0055751D01*
X0046947Y0053361D01*
X0048637Y0051672D01*
X0051026Y0051672D01*
X0051810Y0052456D01*
X0056593Y0052456D01*
X0056593Y0048299D01*
X0057354Y0047538D01*
X0061994Y0047538D01*
X0062755Y0048299D01*
X0062755Y0048519D01*
X0099821Y0048519D01*
X0100212Y0048128D01*
X0102601Y0048128D01*
X0104291Y0049818D01*
X0104291Y0052207D01*
X0104042Y0052456D01*
X0156859Y0052456D01*
X0157668Y0052410D01*
X0157719Y0052456D01*
X0157788Y0052456D01*
X0158361Y0053029D01*
X0167864Y0061514D01*
X0169136Y0061514D01*
X0170826Y0063204D01*
X0170826Y0065593D01*
X0169136Y0067283D01*
X0166747Y0067283D01*
X0165057Y0065593D01*
X0165057Y0064638D01*
X0156117Y0056656D01*
X0051810Y0056656D01*
X0051026Y0057440D01*
X0048637Y0057440D01*
X0046947Y0055746D02*
X0007537Y0055746D01*
X0007537Y0054148D02*
X0015375Y0054148D01*
X0012083Y0052549D02*
X0007537Y0052549D01*
X0007537Y0050951D02*
X0010346Y0050951D01*
X0008933Y0049352D02*
X0007537Y0049352D01*
X0007537Y0047754D02*
X0008068Y0047754D01*
X0023631Y0054148D02*
X0046947Y0054148D01*
X0047759Y0052549D02*
X0026757Y0052549D01*
X0028772Y0050951D02*
X0056593Y0050951D01*
X0056593Y0049352D02*
X0030016Y0049352D01*
X0031089Y0047754D02*
X0057138Y0047754D01*
X0059674Y0050619D02*
X0101013Y0050619D01*
X0101406Y0051013D01*
X0104291Y0050951D02*
X0238265Y0050951D01*
X0237067Y0049352D02*
X0103825Y0049352D01*
X0090905Y0058943D02*
X0158679Y0058943D01*
X0156889Y0057345D02*
X0089793Y0057345D01*
X0086248Y0057345D02*
X0051121Y0057345D01*
X0049831Y0054556D02*
X0156918Y0054556D01*
X0167942Y0064398D01*
X0169763Y0062140D02*
X0259843Y0062140D01*
X0259843Y0060542D02*
X0166775Y0060542D01*
X0164985Y0058943D02*
X0259843Y0058943D01*
X0259843Y0057345D02*
X0163195Y0057345D01*
X0161404Y0055746D02*
X0259843Y0055746D01*
X0259843Y0054148D02*
X0253259Y0054148D01*
X0255706Y0052549D02*
X0259843Y0052549D01*
X0259843Y0050951D02*
X0257424Y0050951D01*
X0258669Y0049352D02*
X0259843Y0049352D01*
X0259843Y0047754D02*
X0259570Y0047754D01*
X0259843Y0063739D02*
X0170826Y0063739D01*
X0170826Y0065337D02*
X0259843Y0065337D01*
X0259843Y0066936D02*
X0251558Y0066936D01*
X0252809Y0068534D02*
X0259843Y0068534D01*
X0259843Y0070133D02*
X0253188Y0070133D01*
X0252918Y0071731D02*
X0259843Y0071731D01*
X0259843Y0073330D02*
X0251821Y0073330D01*
X0250779Y0076527D02*
X0259843Y0076527D01*
X0259843Y0078126D02*
X0252640Y0078126D01*
X0253188Y0079724D02*
X0259843Y0079724D01*
X0259843Y0081323D02*
X0253088Y0081323D01*
X0252230Y0082921D02*
X0259843Y0082921D01*
X0259843Y0084520D02*
X0243513Y0084520D01*
X0241682Y0085658D02*
X0219910Y0085658D01*
X0217548Y0088020D01*
X0188414Y0088020D01*
X0187600Y0084520D02*
X0218079Y0084520D01*
X0219223Y0089315D02*
X0239444Y0089315D01*
X0239388Y0090914D02*
X0191056Y0090914D01*
X0191298Y0092512D02*
X0239981Y0092512D01*
X0242060Y0094111D02*
X0190734Y0094111D01*
X0190522Y0095709D02*
X0242845Y0095709D01*
X0243126Y0095665D02*
X0246188Y0095665D01*
X0246188Y0100164D01*
X0246388Y0100164D01*
X0246388Y0095665D01*
X0249450Y0095665D01*
X0250165Y0095778D01*
X0250854Y0096002D01*
X0251499Y0096330D01*
X0252085Y0096756D01*
X0252597Y0097268D01*
X0253022Y0097854D01*
X0253351Y0098499D01*
X0253575Y0099187D01*
X0253688Y0099903D01*
X0253688Y0100165D01*
X0246388Y0100165D01*
X0246388Y0100365D01*
X0246188Y0100365D01*
X0246188Y0104865D01*
X0243126Y0104865D01*
X0242411Y0104751D01*
X0241722Y0104528D01*
X0241077Y0104199D01*
X0240491Y0103773D01*
X0239980Y0103261D01*
X0239554Y0102675D01*
X0239225Y0102030D01*
X0239001Y0101342D01*
X0238888Y0100627D01*
X0238888Y0100365D01*
X0246188Y0100365D01*
X0246188Y0100165D01*
X0238888Y0100165D01*
X0238888Y0099903D01*
X0239001Y0099187D01*
X0239225Y0098499D01*
X0239554Y0097854D01*
X0239980Y0097268D01*
X0240491Y0096756D01*
X0241077Y0096330D01*
X0241722Y0096002D01*
X0242411Y0095778D01*
X0243126Y0095665D01*
X0246188Y0095709D02*
X0246388Y0095709D01*
X0246388Y0097308D02*
X0246188Y0097308D01*
X0246188Y0098906D02*
X0246388Y0098906D01*
X0246388Y0100365D02*
X0253688Y0100365D01*
X0253688Y0100627D01*
X0253575Y0101342D01*
X0253351Y0102030D01*
X0253022Y0102675D01*
X0252597Y0103261D01*
X0252085Y0103773D01*
X0251499Y0104199D01*
X0250854Y0104528D01*
X0250165Y0104751D01*
X0249450Y0104865D01*
X0246388Y0104865D01*
X0246388Y0100365D01*
X0246388Y0100505D02*
X0246188Y0100505D01*
X0246188Y0102103D02*
X0246388Y0102103D01*
X0246388Y0103702D02*
X0246188Y0103702D01*
X0240420Y0103702D02*
X0198515Y0103702D01*
X0196916Y0102103D02*
X0239262Y0102103D01*
X0238888Y0100505D02*
X0195318Y0100505D01*
X0193719Y0098906D02*
X0239093Y0098906D01*
X0239951Y0097308D02*
X0192121Y0097308D01*
X0188345Y0098906D02*
X0138543Y0098906D01*
X0139018Y0100505D02*
X0189944Y0100505D01*
X0191542Y0102103D02*
X0147310Y0102103D01*
X0148908Y0103702D02*
X0193141Y0103702D01*
X0194739Y0105300D02*
X0150157Y0105300D01*
X0150157Y0106899D02*
X0196338Y0106899D01*
X0196947Y0108497D02*
X0150157Y0108497D01*
X0150157Y0110096D02*
X0198143Y0110096D01*
X0201520Y0110096D02*
X0259843Y0110096D01*
X0259843Y0111694D02*
X0158293Y0111694D01*
X0154756Y0111694D02*
X0150157Y0111694D01*
X0150157Y0113293D02*
X0153640Y0113293D01*
X0153640Y0114891D02*
X0150157Y0114891D01*
X0150157Y0116490D02*
X0154931Y0116490D01*
X0150157Y0118088D02*
X0243601Y0118088D01*
X0243601Y0116490D02*
X0158118Y0116490D01*
X0153643Y0121285D02*
X0151141Y0121285D01*
X0151141Y0122884D02*
X0152045Y0122884D01*
X0150157Y0119687D02*
X0243601Y0119687D01*
X0243601Y0121285D02*
X0226335Y0121285D01*
X0227933Y0122884D02*
X0243601Y0122884D01*
X0243601Y0124482D02*
X0228109Y0124482D01*
X0228109Y0126081D02*
X0243601Y0126081D01*
X0243601Y0127679D02*
X0228109Y0127679D01*
X0228109Y0129278D02*
X0243601Y0129278D01*
X0243601Y0130876D02*
X0228109Y0130876D01*
X0228109Y0132475D02*
X0243601Y0132475D01*
X0243601Y0134073D02*
X0228109Y0134073D01*
X0228109Y0135672D02*
X0243601Y0135672D01*
X0243601Y0137270D02*
X0242546Y0137270D01*
X0247401Y0137270D02*
X0259843Y0137270D01*
X0259843Y0135672D02*
X0247401Y0135672D01*
X0247401Y0134073D02*
X0259843Y0134073D01*
X0259843Y0132475D02*
X0247401Y0132475D01*
X0247401Y0130876D02*
X0259843Y0130876D01*
X0259843Y0129278D02*
X0247401Y0129278D01*
X0247401Y0127679D02*
X0259843Y0127679D01*
X0259843Y0126081D02*
X0247401Y0126081D01*
X0247401Y0124482D02*
X0259843Y0124482D01*
X0259843Y0122884D02*
X0247401Y0122884D01*
X0247401Y0121285D02*
X0259843Y0121285D01*
X0259843Y0119687D02*
X0247401Y0119687D01*
X0247401Y0118088D02*
X0259843Y0118088D01*
X0259843Y0116490D02*
X0247401Y0116490D01*
X0247401Y0114891D02*
X0259843Y0114891D01*
X0259843Y0113293D02*
X0245901Y0113293D01*
X0252156Y0103702D02*
X0259843Y0103702D01*
X0259843Y0105300D02*
X0201505Y0105300D01*
X0202716Y0106899D02*
X0259843Y0106899D01*
X0259843Y0108497D02*
X0202716Y0108497D01*
X0205516Y0124482D02*
X0224158Y0124482D01*
X0224309Y0126081D02*
X0208506Y0126081D01*
X0209802Y0127679D02*
X0224309Y0127679D01*
X0224309Y0129278D02*
X0209802Y0129278D01*
X0208692Y0130876D02*
X0224309Y0130876D01*
X0224309Y0132475D02*
X0187735Y0132475D01*
X0187755Y0134073D02*
X0224309Y0134073D01*
X0224309Y0135672D02*
X0186968Y0135672D01*
X0186771Y0137270D02*
X0224309Y0137270D01*
X0224309Y0138869D02*
X0186709Y0138869D01*
X0182934Y0137270D02*
X0181432Y0137270D01*
X0181850Y0135672D02*
X0182774Y0135672D01*
X0181987Y0134073D02*
X0181459Y0134073D01*
X0182007Y0132475D02*
X0179216Y0132475D01*
X0178217Y0130876D02*
X0183605Y0130876D01*
X0186136Y0130876D02*
X0205144Y0130876D01*
X0204034Y0129278D02*
X0177218Y0129278D01*
X0177144Y0127679D02*
X0176199Y0127679D01*
X0176081Y0126081D02*
X0154222Y0126081D01*
X0155820Y0124482D02*
X0176081Y0124482D01*
X0180787Y0127679D02*
X0203339Y0127679D01*
X0213233Y0140467D02*
X0224309Y0140467D01*
X0224309Y0142066D02*
X0214832Y0142066D01*
X0216430Y0143664D02*
X0224309Y0143664D01*
X0224309Y0145263D02*
X0218029Y0145263D01*
X0219627Y0146861D02*
X0224309Y0146861D01*
X0224309Y0148460D02*
X0222618Y0148460D01*
X0223976Y0150059D02*
X0224309Y0150059D01*
X0224309Y0151657D02*
X0223976Y0151657D01*
X0224309Y0153256D02*
X0222927Y0153256D01*
X0224309Y0154854D02*
X0207541Y0154854D01*
X0205943Y0153256D02*
X0219255Y0153256D01*
X0218207Y0151657D02*
X0204344Y0151657D01*
X0202746Y0150059D02*
X0217450Y0150059D01*
X0215852Y0148460D02*
X0201147Y0148460D01*
X0200569Y0153256D02*
X0190691Y0153256D01*
X0190683Y0154854D02*
X0202167Y0154854D01*
X0203766Y0156453D02*
X0190675Y0156453D01*
X0190668Y0158051D02*
X0196588Y0158051D01*
X0195766Y0158873D02*
X0195766Y0161262D01*
X0196750Y0162247D01*
X0196750Y0226123D01*
X0194390Y0228483D01*
X0194390Y0232046D01*
X0196909Y0234565D01*
X0200471Y0234565D01*
X0202990Y0232046D01*
X0202990Y0228483D01*
X0200550Y0226044D01*
X0200550Y0162247D01*
X0201535Y0161262D01*
X0201535Y0158873D01*
X0199845Y0157183D01*
X0197456Y0157183D01*
X0195766Y0158873D01*
X0195766Y0159650D02*
X0190660Y0159650D01*
X0190652Y0161248D02*
X0195766Y0161248D01*
X0196750Y0162847D02*
X0190644Y0162847D01*
X0190636Y0164445D02*
X0196750Y0164445D01*
X0196750Y0166044D02*
X0190628Y0166044D01*
X0190620Y0167642D02*
X0196750Y0167642D01*
X0196750Y0169241D02*
X0190613Y0169241D01*
X0190605Y0170839D02*
X0196750Y0170839D01*
X0196750Y0172438D02*
X0190597Y0172438D01*
X0190589Y0174036D02*
X0196750Y0174036D01*
X0196750Y0175635D02*
X0190581Y0175635D01*
X0190573Y0177233D02*
X0196750Y0177233D01*
X0196750Y0178832D02*
X0190565Y0178832D01*
X0190558Y0180430D02*
X0196750Y0180430D01*
X0196750Y0182029D02*
X0190550Y0182029D01*
X0190542Y0183627D02*
X0196750Y0183627D01*
X0196750Y0185226D02*
X0190534Y0185226D01*
X0190526Y0186824D02*
X0196750Y0186824D01*
X0196750Y0188423D02*
X0190518Y0188423D01*
X0190510Y0190021D02*
X0196750Y0190021D01*
X0196750Y0191620D02*
X0190503Y0191620D01*
X0190495Y0193218D02*
X0196750Y0193218D01*
X0196750Y0194817D02*
X0190487Y0194817D01*
X0190479Y0196415D02*
X0196750Y0196415D01*
X0196750Y0198014D02*
X0190471Y0198014D01*
X0190463Y0199612D02*
X0196750Y0199612D01*
X0196750Y0201211D02*
X0190456Y0201211D01*
X0190448Y0202809D02*
X0196750Y0202809D01*
X0196750Y0204408D02*
X0190440Y0204408D01*
X0190432Y0206006D02*
X0196750Y0206006D01*
X0196750Y0207605D02*
X0190424Y0207605D01*
X0190416Y0209203D02*
X0196750Y0209203D01*
X0196750Y0210802D02*
X0190408Y0210802D01*
X0190401Y0212400D02*
X0196750Y0212400D01*
X0196750Y0213999D02*
X0190393Y0213999D01*
X0190385Y0215597D02*
X0196750Y0215597D01*
X0196750Y0217196D02*
X0190377Y0217196D01*
X0190369Y0218795D02*
X0196750Y0218795D01*
X0196750Y0220393D02*
X0190361Y0220393D01*
X0190353Y0221992D02*
X0196750Y0221992D01*
X0196750Y0223590D02*
X0190346Y0223590D01*
X0190338Y0225189D02*
X0196750Y0225189D01*
X0196086Y0226787D02*
X0191293Y0226787D01*
X0192892Y0228386D02*
X0194488Y0228386D01*
X0194390Y0229984D02*
X0192990Y0229984D01*
X0192990Y0231583D02*
X0194390Y0231583D01*
X0195525Y0233181D02*
X0191854Y0233181D01*
X0190884Y0236378D02*
X0195788Y0236378D01*
X0196702Y0235465D02*
X0193890Y0238276D01*
X0193890Y0240065D01*
X0198490Y0240065D01*
X0198490Y0240465D01*
X0198490Y0245065D01*
X0196702Y0245065D01*
X0193890Y0242253D01*
X0193890Y0240465D01*
X0198490Y0240465D01*
X0198890Y0240465D01*
X0198890Y0245065D01*
X0200678Y0245065D01*
X0203490Y0242253D01*
X0203490Y0240465D01*
X0198890Y0240465D01*
X0198890Y0240065D01*
X0203490Y0240065D01*
X0203490Y0238276D01*
X0200678Y0235465D01*
X0198890Y0235465D01*
X0198890Y0240064D01*
X0198490Y0240064D01*
X0198490Y0235465D01*
X0196702Y0235465D01*
X0198490Y0236378D02*
X0198890Y0236378D01*
X0198890Y0237977D02*
X0198490Y0237977D01*
X0198490Y0239575D02*
X0198890Y0239575D01*
X0198890Y0241174D02*
X0198490Y0241174D01*
X0198490Y0242772D02*
X0198890Y0242772D01*
X0198890Y0244371D02*
X0198490Y0244371D01*
X0196008Y0244371D02*
X0190665Y0244371D01*
X0192263Y0242772D02*
X0194409Y0242772D01*
X0193890Y0241174D02*
X0192990Y0241174D01*
X0192990Y0239575D02*
X0193890Y0239575D01*
X0194189Y0237977D02*
X0192483Y0237977D01*
X0186430Y0234780D02*
X0226417Y0234780D01*
X0226495Y0236378D02*
X0220884Y0236378D01*
X0220471Y0235965D02*
X0222990Y0238483D01*
X0222990Y0242046D01*
X0220471Y0244565D01*
X0216909Y0244565D01*
X0214390Y0242046D01*
X0214390Y0238483D01*
X0216909Y0235965D01*
X0220471Y0235965D01*
X0222483Y0237977D02*
X0224897Y0237977D01*
X0224390Y0239575D02*
X0222990Y0239575D01*
X0222990Y0241174D02*
X0224390Y0241174D01*
X0225116Y0242772D02*
X0222263Y0242772D01*
X0220665Y0244371D02*
X0226715Y0244371D01*
X0230665Y0244371D02*
X0238815Y0244371D01*
X0237341Y0242772D02*
X0232263Y0242772D01*
X0232990Y0241174D02*
X0236476Y0241174D01*
X0235610Y0239575D02*
X0232990Y0239575D01*
X0233271Y0237977D02*
X0235311Y0237977D01*
X0235044Y0236378D02*
X0234869Y0236378D01*
X0231094Y0234780D02*
X0230963Y0234780D01*
X0228890Y0234780D02*
X0228490Y0234780D01*
X0228490Y0233181D02*
X0228890Y0233181D01*
X0228890Y0231583D02*
X0228490Y0231583D01*
X0228490Y0229984D02*
X0228890Y0229984D01*
X0228890Y0228386D02*
X0228490Y0228386D01*
X0228490Y0226787D02*
X0228890Y0226787D01*
X0231790Y0225189D02*
X0222991Y0225189D01*
X0222991Y0226787D02*
X0225379Y0226787D01*
X0223890Y0228386D02*
X0222991Y0228386D01*
X0222990Y0229984D02*
X0223890Y0229984D01*
X0223890Y0231583D02*
X0222990Y0231583D01*
X0221854Y0233181D02*
X0224818Y0233181D01*
X0216495Y0236378D02*
X0210884Y0236378D01*
X0210471Y0235965D02*
X0212990Y0238483D01*
X0212990Y0242046D01*
X0210471Y0244565D01*
X0206909Y0244565D01*
X0204390Y0242046D01*
X0204390Y0238483D01*
X0206909Y0235965D01*
X0210471Y0235965D01*
X0210471Y0234565D02*
X0206909Y0234565D01*
X0204390Y0232046D01*
X0204390Y0228483D01*
X0206909Y0225965D01*
X0207774Y0225965D01*
X0207774Y0169727D01*
X0206790Y0168743D01*
X0206790Y0166353D01*
X0208479Y0164664D01*
X0210869Y0164664D01*
X0212558Y0166353D01*
X0212558Y0168743D01*
X0211574Y0169727D01*
X0211574Y0227068D01*
X0212990Y0228483D01*
X0212990Y0232046D01*
X0210471Y0234565D01*
X0211854Y0233181D02*
X0215525Y0233181D01*
X0214390Y0231583D02*
X0212990Y0231583D01*
X0212990Y0229984D02*
X0214390Y0229984D01*
X0214488Y0228386D02*
X0212892Y0228386D01*
X0211574Y0226787D02*
X0216086Y0226787D01*
X0219191Y0225189D02*
X0211574Y0225189D01*
X0211574Y0223590D02*
X0219191Y0223590D01*
X0219191Y0221992D02*
X0211574Y0221992D01*
X0211574Y0220393D02*
X0219191Y0220393D01*
X0220701Y0218795D02*
X0211574Y0218795D01*
X0211574Y0217196D02*
X0222300Y0217196D01*
X0223898Y0215597D02*
X0211574Y0215597D01*
X0211574Y0213999D02*
X0224309Y0213999D01*
X0224309Y0212400D02*
X0211574Y0212400D01*
X0211574Y0210802D02*
X0224309Y0210802D01*
X0224309Y0209203D02*
X0211574Y0209203D01*
X0211574Y0207605D02*
X0224309Y0207605D01*
X0224309Y0206006D02*
X0211574Y0206006D01*
X0211574Y0204408D02*
X0224309Y0204408D01*
X0224309Y0202809D02*
X0211574Y0202809D01*
X0211574Y0201211D02*
X0224309Y0201211D01*
X0224309Y0199612D02*
X0211574Y0199612D01*
X0211574Y0198014D02*
X0224309Y0198014D01*
X0224309Y0196415D02*
X0211574Y0196415D01*
X0211574Y0194817D02*
X0224309Y0194817D01*
X0224309Y0193218D02*
X0211574Y0193218D01*
X0211574Y0191620D02*
X0224309Y0191620D01*
X0224309Y0190021D02*
X0211574Y0190021D01*
X0211574Y0188423D02*
X0224309Y0188423D01*
X0224309Y0186824D02*
X0211574Y0186824D01*
X0211574Y0185226D02*
X0224309Y0185226D01*
X0224309Y0183627D02*
X0211574Y0183627D01*
X0211574Y0182029D02*
X0224309Y0182029D01*
X0224309Y0180430D02*
X0211574Y0180430D01*
X0211574Y0178832D02*
X0224309Y0178832D01*
X0224309Y0177233D02*
X0211574Y0177233D01*
X0211574Y0175635D02*
X0224309Y0175635D01*
X0224309Y0174036D02*
X0211574Y0174036D01*
X0211574Y0172438D02*
X0218359Y0172438D01*
X0218152Y0170839D02*
X0211574Y0170839D01*
X0212060Y0169241D02*
X0216554Y0169241D01*
X0214955Y0167642D02*
X0212558Y0167642D01*
X0212249Y0166044D02*
X0213357Y0166044D01*
X0211758Y0164445D02*
X0200550Y0164445D01*
X0200550Y0162847D02*
X0210160Y0162847D01*
X0208561Y0161248D02*
X0201535Y0161248D01*
X0201535Y0159650D02*
X0206963Y0159650D01*
X0205364Y0158051D02*
X0200713Y0158051D01*
X0200550Y0166044D02*
X0207099Y0166044D01*
X0206790Y0167642D02*
X0200550Y0167642D01*
X0200550Y0169241D02*
X0207288Y0169241D01*
X0207774Y0170839D02*
X0200550Y0170839D01*
X0200550Y0172438D02*
X0207774Y0172438D01*
X0207774Y0174036D02*
X0200550Y0174036D01*
X0200550Y0175635D02*
X0207774Y0175635D01*
X0207774Y0177233D02*
X0200550Y0177233D01*
X0200550Y0178832D02*
X0207774Y0178832D01*
X0207774Y0180430D02*
X0200550Y0180430D01*
X0200550Y0182029D02*
X0207774Y0182029D01*
X0207774Y0183627D02*
X0200550Y0183627D01*
X0200550Y0185226D02*
X0207774Y0185226D01*
X0207774Y0186824D02*
X0200550Y0186824D01*
X0200550Y0188423D02*
X0207774Y0188423D01*
X0207774Y0190021D02*
X0200550Y0190021D01*
X0200550Y0191620D02*
X0207774Y0191620D01*
X0207774Y0193218D02*
X0200550Y0193218D01*
X0200550Y0194817D02*
X0207774Y0194817D01*
X0207774Y0196415D02*
X0200550Y0196415D01*
X0200550Y0198014D02*
X0207774Y0198014D01*
X0207774Y0199612D02*
X0200550Y0199612D01*
X0200550Y0201211D02*
X0207774Y0201211D01*
X0207774Y0202809D02*
X0200550Y0202809D01*
X0200550Y0204408D02*
X0207774Y0204408D01*
X0207774Y0206006D02*
X0200550Y0206006D01*
X0200550Y0207605D02*
X0207774Y0207605D01*
X0207774Y0209203D02*
X0200550Y0209203D01*
X0200550Y0210802D02*
X0207774Y0210802D01*
X0207774Y0212400D02*
X0200550Y0212400D01*
X0200550Y0213999D02*
X0207774Y0213999D01*
X0207774Y0215597D02*
X0200550Y0215597D01*
X0200550Y0217196D02*
X0207774Y0217196D01*
X0207774Y0218795D02*
X0200550Y0218795D01*
X0200550Y0220393D02*
X0207774Y0220393D01*
X0207774Y0221992D02*
X0200550Y0221992D01*
X0200550Y0223590D02*
X0207774Y0223590D01*
X0207774Y0225189D02*
X0200550Y0225189D01*
X0201293Y0226787D02*
X0206086Y0226787D01*
X0204488Y0228386D02*
X0202892Y0228386D01*
X0202990Y0229984D02*
X0204390Y0229984D01*
X0204390Y0231583D02*
X0202990Y0231583D01*
X0201854Y0233181D02*
X0205525Y0233181D01*
X0206495Y0236378D02*
X0201592Y0236378D01*
X0203190Y0237977D02*
X0204897Y0237977D01*
X0204390Y0239575D02*
X0203490Y0239575D01*
X0203490Y0241174D02*
X0204390Y0241174D01*
X0205116Y0242772D02*
X0202970Y0242772D01*
X0201372Y0244371D02*
X0206715Y0244371D01*
X0210665Y0244371D02*
X0216715Y0244371D01*
X0215116Y0242772D02*
X0212263Y0242772D01*
X0212990Y0241174D02*
X0214390Y0241174D01*
X0214390Y0239575D02*
X0212990Y0239575D01*
X0212483Y0237977D02*
X0214897Y0237977D01*
X0222991Y0223590D02*
X0232441Y0223590D01*
X0233365Y0221992D02*
X0222991Y0221992D01*
X0224477Y0220393D02*
X0233365Y0220393D01*
X0233365Y0218795D02*
X0226075Y0218795D01*
X0227674Y0217196D02*
X0233365Y0217196D01*
X0233365Y0215597D02*
X0228109Y0215597D01*
X0228109Y0213999D02*
X0233365Y0213999D01*
X0233365Y0212400D02*
X0228109Y0212400D01*
X0228109Y0210802D02*
X0233365Y0210802D01*
X0233365Y0209203D02*
X0228109Y0209203D01*
X0228109Y0207605D02*
X0233365Y0207605D01*
X0233365Y0206006D02*
X0228109Y0206006D01*
X0228109Y0204408D02*
X0233365Y0204408D01*
X0233365Y0202809D02*
X0228109Y0202809D01*
X0228109Y0201211D02*
X0233365Y0201211D01*
X0233365Y0199612D02*
X0228109Y0199612D01*
X0228109Y0198014D02*
X0233365Y0198014D01*
X0233365Y0196415D02*
X0228109Y0196415D01*
X0228109Y0194817D02*
X0233365Y0194817D01*
X0233365Y0193218D02*
X0228109Y0193218D01*
X0228109Y0191620D02*
X0233365Y0191620D01*
X0233365Y0190021D02*
X0228109Y0190021D01*
X0228109Y0188423D02*
X0233365Y0188423D01*
X0234561Y0186824D02*
X0228109Y0186824D01*
X0228109Y0185226D02*
X0236160Y0185226D01*
X0237758Y0183627D02*
X0228109Y0183627D01*
X0228109Y0182029D02*
X0239357Y0182029D01*
X0240955Y0180430D02*
X0228109Y0180430D01*
X0228109Y0178832D02*
X0242554Y0178832D01*
X0243601Y0177233D02*
X0228109Y0177233D01*
X0228109Y0175635D02*
X0243601Y0175635D01*
X0243601Y0174036D02*
X0242926Y0174036D01*
X0247401Y0174036D02*
X0259843Y0174036D01*
X0259843Y0172438D02*
X0247401Y0172438D01*
X0247401Y0170839D02*
X0259843Y0170839D01*
X0259843Y0169241D02*
X0247401Y0169241D01*
X0247401Y0167642D02*
X0259843Y0167642D01*
X0259843Y0166044D02*
X0247401Y0166044D01*
X0247401Y0164445D02*
X0259843Y0164445D01*
X0259843Y0162847D02*
X0247401Y0162847D01*
X0247401Y0161248D02*
X0259843Y0161248D01*
X0259843Y0159650D02*
X0247401Y0159650D01*
X0247401Y0158051D02*
X0259843Y0158051D01*
X0259843Y0156453D02*
X0247401Y0156453D01*
X0247401Y0154854D02*
X0259843Y0154854D01*
X0259843Y0153256D02*
X0247401Y0153256D01*
X0247401Y0151657D02*
X0259843Y0151657D01*
X0259843Y0150059D02*
X0247401Y0150059D01*
X0247401Y0148460D02*
X0259843Y0148460D01*
X0259843Y0146861D02*
X0247401Y0146861D01*
X0247401Y0145263D02*
X0259843Y0145263D01*
X0259843Y0143664D02*
X0247401Y0143664D01*
X0247401Y0142066D02*
X0259843Y0142066D01*
X0259843Y0140467D02*
X0247401Y0140467D01*
X0247401Y0138869D02*
X0259843Y0138869D01*
X0243601Y0145263D02*
X0242055Y0145263D01*
X0243601Y0146861D02*
X0228109Y0146861D01*
X0228109Y0145263D02*
X0232411Y0145263D01*
X0230588Y0143664D02*
X0228109Y0143664D01*
X0228109Y0142066D02*
X0229924Y0142066D01*
X0229881Y0140467D02*
X0228109Y0140467D01*
X0228109Y0138869D02*
X0230423Y0138869D01*
X0231920Y0137270D02*
X0228109Y0137270D01*
X0237133Y0137270D02*
X0237333Y0137270D01*
X0237333Y0138869D02*
X0237133Y0138869D01*
X0237133Y0140467D02*
X0237333Y0140467D01*
X0237333Y0142066D02*
X0237133Y0142066D01*
X0237133Y0143664D02*
X0237333Y0143664D01*
X0237333Y0145263D02*
X0237133Y0145263D01*
X0231305Y0148460D02*
X0228109Y0148460D01*
X0228109Y0150059D02*
X0230439Y0150059D01*
X0230333Y0151657D02*
X0228109Y0151657D01*
X0228109Y0153256D02*
X0230875Y0153256D01*
X0232708Y0154854D02*
X0228109Y0154854D01*
X0228109Y0156453D02*
X0243601Y0156453D01*
X0243601Y0158051D02*
X0242752Y0158051D01*
X0243601Y0154854D02*
X0241758Y0154854D01*
X0243591Y0153256D02*
X0243601Y0153256D01*
X0243601Y0148460D02*
X0243161Y0148460D01*
X0231714Y0158051D02*
X0228109Y0158051D01*
X0228109Y0159650D02*
X0230609Y0159650D01*
X0230333Y0161248D02*
X0228109Y0161248D01*
X0228109Y0162847D02*
X0230706Y0162847D01*
X0231949Y0164445D02*
X0228109Y0164445D01*
X0228109Y0166044D02*
X0243601Y0166044D01*
X0243601Y0167642D02*
X0242325Y0167642D01*
X0242517Y0164445D02*
X0243601Y0164445D01*
X0247401Y0175635D02*
X0259843Y0175635D01*
X0259843Y0177233D02*
X0247401Y0177233D01*
X0247401Y0178832D02*
X0259843Y0178832D01*
X0259843Y0180430D02*
X0246329Y0180430D01*
X0244731Y0182029D02*
X0259843Y0182029D01*
X0259843Y0183627D02*
X0243132Y0183627D01*
X0241534Y0185226D02*
X0259843Y0185226D01*
X0259843Y0186824D02*
X0239935Y0186824D01*
X0238337Y0188423D02*
X0259843Y0188423D01*
X0259843Y0190021D02*
X0237165Y0190021D01*
X0237165Y0191620D02*
X0259843Y0191620D01*
X0259843Y0193218D02*
X0237165Y0193218D01*
X0237165Y0194817D02*
X0259843Y0194817D01*
X0259843Y0196415D02*
X0237165Y0196415D01*
X0237165Y0198014D02*
X0259843Y0198014D01*
X0259843Y0199612D02*
X0237165Y0199612D01*
X0237165Y0201211D02*
X0259843Y0201211D01*
X0259843Y0202809D02*
X0237165Y0202809D01*
X0237165Y0204408D02*
X0259843Y0204408D01*
X0259843Y0206006D02*
X0237165Y0206006D01*
X0237165Y0207605D02*
X0259843Y0207605D01*
X0259843Y0209203D02*
X0237165Y0209203D01*
X0237165Y0210802D02*
X0259843Y0210802D01*
X0259843Y0212400D02*
X0237165Y0212400D01*
X0237165Y0213999D02*
X0259843Y0213999D01*
X0259843Y0215597D02*
X0237165Y0215597D01*
X0237165Y0217196D02*
X0259843Y0217196D01*
X0259843Y0218795D02*
X0237165Y0218795D01*
X0237165Y0220393D02*
X0259843Y0220393D01*
X0259843Y0221992D02*
X0237165Y0221992D01*
X0237165Y0223590D02*
X0242545Y0223590D01*
X0239869Y0225189D02*
X0236217Y0225189D01*
X0235590Y0226787D02*
X0238133Y0226787D01*
X0237000Y0228386D02*
X0235590Y0228386D01*
X0235590Y0229984D02*
X0236135Y0229984D01*
X0240552Y0245969D02*
X0026584Y0245969D01*
X0028684Y0244371D02*
X0036715Y0244371D01*
X0036909Y0244565D02*
X0034390Y0242046D01*
X0034390Y0238483D01*
X0036909Y0235965D01*
X0040471Y0235965D01*
X0042990Y0238483D01*
X0042990Y0242046D01*
X0040471Y0244565D01*
X0036909Y0244565D01*
X0035116Y0242772D02*
X0029928Y0242772D01*
X0031050Y0241174D02*
X0034390Y0241174D01*
X0034390Y0239575D02*
X0031599Y0239575D01*
X0032148Y0237977D02*
X0034897Y0237977D01*
X0036495Y0236378D02*
X0032344Y0236378D01*
X0032344Y0234780D02*
X0042329Y0234780D01*
X0040884Y0236378D02*
X0043927Y0236378D01*
X0044897Y0237977D02*
X0042483Y0237977D01*
X0042990Y0239575D02*
X0044390Y0239575D01*
X0044390Y0241174D02*
X0042990Y0241174D01*
X0042263Y0242772D02*
X0045116Y0242772D01*
X0046715Y0244371D02*
X0040665Y0244371D01*
X0050665Y0244371D02*
X0056008Y0244371D01*
X0054409Y0242772D02*
X0052263Y0242772D01*
X0052990Y0241174D02*
X0053890Y0241174D01*
X0053890Y0239575D02*
X0052990Y0239575D01*
X0052483Y0237977D02*
X0054189Y0237977D01*
X0058890Y0240465D02*
X0058890Y0245065D01*
X0060678Y0245065D01*
X0063490Y0242253D01*
X0063490Y0240465D01*
X0058890Y0240465D01*
X0058890Y0241174D02*
X0058490Y0241174D01*
X0058490Y0242772D02*
X0058890Y0242772D01*
X0058890Y0244371D02*
X0058490Y0244371D01*
X0061372Y0244371D02*
X0066715Y0244371D01*
X0065116Y0242772D02*
X0062970Y0242772D01*
X0063490Y0241174D02*
X0064390Y0241174D01*
X0064390Y0239575D02*
X0063490Y0239575D01*
X0063190Y0237977D02*
X0064897Y0237977D01*
X0064390Y0231583D02*
X0062990Y0231583D01*
X0062990Y0229984D02*
X0064390Y0229984D01*
X0064488Y0228386D02*
X0062892Y0228386D01*
X0061293Y0226787D02*
X0066086Y0226787D01*
X0071293Y0226787D02*
X0075379Y0226787D01*
X0073890Y0228386D02*
X0072892Y0228386D01*
X0072990Y0229984D02*
X0073890Y0229984D01*
X0073890Y0231583D02*
X0072990Y0231583D01*
X0078490Y0229984D02*
X0078890Y0229984D01*
X0078890Y0228386D02*
X0078490Y0228386D01*
X0078490Y0226787D02*
X0078890Y0226787D01*
X0079373Y0224763D02*
X0076983Y0224763D01*
X0075294Y0223073D01*
X0075294Y0220684D01*
X0076983Y0218994D01*
X0079373Y0218994D01*
X0080357Y0219979D01*
X0101590Y0219979D01*
X0102574Y0218994D01*
X0104963Y0218994D01*
X0106653Y0220684D01*
X0106653Y0223073D01*
X0104963Y0224763D01*
X0102574Y0224763D01*
X0101590Y0223779D01*
X0080357Y0223779D01*
X0079373Y0224763D01*
X0082000Y0226787D02*
X0086086Y0226787D01*
X0084488Y0228386D02*
X0083490Y0228386D01*
X0083490Y0229984D02*
X0084390Y0229984D01*
X0084390Y0231583D02*
X0083490Y0231583D01*
X0082483Y0237977D02*
X0084897Y0237977D01*
X0084390Y0239575D02*
X0082990Y0239575D01*
X0082990Y0241174D02*
X0084390Y0241174D01*
X0085116Y0242772D02*
X0082263Y0242772D01*
X0080665Y0244371D02*
X0086715Y0244371D01*
X0090665Y0244371D02*
X0096008Y0244371D01*
X0094409Y0242772D02*
X0092263Y0242772D01*
X0092990Y0241174D02*
X0093890Y0241174D01*
X0093890Y0239575D02*
X0092990Y0239575D01*
X0092483Y0237977D02*
X0094189Y0237977D01*
X0098890Y0240465D02*
X0098890Y0245065D01*
X0100678Y0245065D01*
X0103490Y0242253D01*
X0103490Y0240465D01*
X0098890Y0240465D01*
X0098890Y0241174D02*
X0098490Y0241174D01*
X0098490Y0242772D02*
X0098890Y0242772D01*
X0098890Y0244371D02*
X0098490Y0244371D01*
X0101372Y0244371D02*
X0106715Y0244371D01*
X0105116Y0242772D02*
X0102970Y0242772D01*
X0103490Y0241174D02*
X0104390Y0241174D01*
X0104390Y0239575D02*
X0103490Y0239575D01*
X0103190Y0237977D02*
X0104897Y0237977D01*
X0107545Y0234780D02*
X0121947Y0234780D01*
X0121947Y0233181D02*
X0121854Y0233181D01*
X0125747Y0233403D02*
X0125747Y0236419D01*
X0126702Y0235465D01*
X0128490Y0235465D01*
X0128490Y0240064D01*
X0128890Y0240064D01*
X0128890Y0235465D01*
X0130678Y0235465D01*
X0131790Y0236576D01*
X0131790Y0233246D01*
X0130471Y0234565D01*
X0126909Y0234565D01*
X0125747Y0233403D01*
X0125747Y0234780D02*
X0131790Y0234780D01*
X0131790Y0236378D02*
X0131592Y0236378D01*
X0128890Y0236378D02*
X0128490Y0236378D01*
X0128490Y0237977D02*
X0128890Y0237977D01*
X0128890Y0239575D02*
X0128490Y0239575D01*
X0128490Y0241174D02*
X0128890Y0241174D01*
X0128890Y0242772D02*
X0128490Y0242772D01*
X0128490Y0244371D02*
X0128890Y0244371D01*
X0131372Y0244371D02*
X0136715Y0244371D01*
X0135116Y0242772D02*
X0132970Y0242772D01*
X0133490Y0241174D02*
X0134156Y0241174D01*
X0140665Y0244371D02*
X0146715Y0244371D01*
X0145116Y0242772D02*
X0142263Y0242772D01*
X0142990Y0241174D02*
X0144390Y0241174D01*
X0150665Y0244371D02*
X0156715Y0244371D01*
X0155116Y0242772D02*
X0152263Y0242772D01*
X0152990Y0241174D02*
X0154390Y0241174D01*
X0153424Y0239575D02*
X0152990Y0239575D01*
X0155601Y0236378D02*
X0156495Y0236378D01*
X0156417Y0234780D02*
X0155275Y0234780D01*
X0158490Y0234780D02*
X0158890Y0234780D01*
X0158890Y0235065D02*
X0158890Y0230465D01*
X0163490Y0230465D01*
X0163490Y0232253D01*
X0160678Y0235065D01*
X0158890Y0235065D01*
X0158890Y0233181D02*
X0158490Y0233181D01*
X0158490Y0231583D02*
X0158890Y0231583D01*
X0158890Y0229984D02*
X0158490Y0229984D01*
X0158490Y0228386D02*
X0158890Y0228386D01*
X0158890Y0226787D02*
X0158490Y0226787D01*
X0155379Y0226787D02*
X0155275Y0226787D01*
X0155275Y0225189D02*
X0177159Y0225189D01*
X0177191Y0223590D02*
X0155275Y0223590D01*
X0155275Y0221992D02*
X0177222Y0221992D01*
X0177254Y0220393D02*
X0155275Y0220393D01*
X0155275Y0218795D02*
X0177285Y0218795D01*
X0177316Y0217196D02*
X0155275Y0217196D01*
X0155275Y0215597D02*
X0177348Y0215597D01*
X0177379Y0213999D02*
X0155275Y0213999D01*
X0155275Y0212400D02*
X0177411Y0212400D01*
X0177442Y0210802D02*
X0155275Y0210802D01*
X0155275Y0209203D02*
X0177473Y0209203D01*
X0177505Y0207605D02*
X0155275Y0207605D01*
X0155275Y0206006D02*
X0177536Y0206006D01*
X0177568Y0204408D02*
X0155275Y0204408D01*
X0155275Y0202809D02*
X0177599Y0202809D01*
X0177630Y0201211D02*
X0155275Y0201211D01*
X0155275Y0199612D02*
X0177662Y0199612D01*
X0177693Y0198014D02*
X0155275Y0198014D01*
X0155275Y0196415D02*
X0177725Y0196415D01*
X0177756Y0194817D02*
X0155275Y0194817D01*
X0155275Y0193218D02*
X0177787Y0193218D01*
X0177819Y0191620D02*
X0155275Y0191620D01*
X0155275Y0190021D02*
X0177850Y0190021D01*
X0177882Y0188423D02*
X0176343Y0188423D01*
X0176731Y0186824D02*
X0177913Y0186824D01*
X0177944Y0185226D02*
X0176313Y0185226D01*
X0175747Y0183627D02*
X0177976Y0183627D01*
X0178007Y0182029D02*
X0175747Y0182029D01*
X0175747Y0180430D02*
X0178039Y0180430D01*
X0178070Y0178832D02*
X0175747Y0178832D01*
X0175747Y0177233D02*
X0178101Y0177233D01*
X0178133Y0175635D02*
X0175747Y0175635D01*
X0175747Y0174036D02*
X0178164Y0174036D01*
X0171947Y0174036D02*
X0155275Y0174036D01*
X0155275Y0175635D02*
X0171947Y0175635D01*
X0171947Y0177233D02*
X0155275Y0177233D01*
X0155275Y0178832D02*
X0171947Y0178832D01*
X0171947Y0180430D02*
X0155275Y0180430D01*
X0155275Y0182029D02*
X0171947Y0182029D01*
X0171947Y0183627D02*
X0155275Y0183627D01*
X0155275Y0185226D02*
X0171382Y0185226D01*
X0170963Y0186824D02*
X0155275Y0186824D01*
X0155275Y0188423D02*
X0171352Y0188423D01*
X0171947Y0172438D02*
X0156107Y0172438D01*
X0156259Y0170839D02*
X0171947Y0170839D01*
X0171947Y0169241D02*
X0155603Y0169241D01*
X0151147Y0169241D02*
X0133950Y0169241D01*
X0133818Y0167642D02*
X0171947Y0167642D01*
X0171947Y0166044D02*
X0133508Y0166044D01*
X0135393Y0170839D02*
X0150491Y0170839D01*
X0150642Y0172438D02*
X0141871Y0172438D01*
X0143267Y0174036D02*
X0151475Y0174036D01*
X0151475Y0175635D02*
X0143267Y0175635D01*
X0142283Y0177233D02*
X0151475Y0177233D01*
X0151475Y0178832D02*
X0142283Y0178832D01*
X0145139Y0180430D02*
X0151475Y0180430D01*
X0151475Y0182029D02*
X0146417Y0182029D01*
X0146417Y0183627D02*
X0151475Y0183627D01*
X0151475Y0185226D02*
X0150722Y0185226D01*
X0151141Y0186824D02*
X0151475Y0186824D01*
X0151475Y0188423D02*
X0150752Y0188423D01*
X0150157Y0190021D02*
X0151475Y0190021D01*
X0151475Y0191620D02*
X0150157Y0191620D01*
X0150157Y0193218D02*
X0151475Y0193218D01*
X0151475Y0194817D02*
X0150157Y0194817D01*
X0150157Y0196415D02*
X0151475Y0196415D01*
X0151475Y0198014D02*
X0150157Y0198014D01*
X0150157Y0199612D02*
X0151475Y0199612D01*
X0151475Y0201211D02*
X0150550Y0201211D01*
X0151475Y0202809D02*
X0149541Y0202809D01*
X0151475Y0204408D02*
X0146761Y0204408D01*
X0145432Y0206006D02*
X0151475Y0206006D01*
X0151475Y0207605D02*
X0145432Y0207605D01*
X0145432Y0209203D02*
X0151475Y0209203D01*
X0151475Y0210802D02*
X0145432Y0210802D01*
X0145432Y0212400D02*
X0151475Y0212400D01*
X0151475Y0213999D02*
X0145432Y0213999D01*
X0145432Y0215597D02*
X0151475Y0215597D01*
X0151475Y0217196D02*
X0145432Y0217196D01*
X0145432Y0218795D02*
X0151475Y0218795D01*
X0151475Y0220393D02*
X0145826Y0220393D01*
X0145826Y0221992D02*
X0151475Y0221992D01*
X0151475Y0223590D02*
X0145826Y0223590D01*
X0145826Y0225189D02*
X0151475Y0225189D01*
X0151475Y0226787D02*
X0151293Y0226787D01*
X0146086Y0226787D02*
X0145826Y0226787D01*
X0162000Y0226787D02*
X0166086Y0226787D01*
X0166909Y0225965D02*
X0164390Y0228483D01*
X0164390Y0232046D01*
X0166909Y0234565D01*
X0170471Y0234565D01*
X0172990Y0232046D01*
X0172990Y0228483D01*
X0170471Y0225965D01*
X0166909Y0225965D01*
X0164488Y0228386D02*
X0163490Y0228386D01*
X0163490Y0229984D02*
X0164390Y0229984D01*
X0164390Y0231583D02*
X0163490Y0231583D01*
X0162561Y0233181D02*
X0165525Y0233181D01*
X0166909Y0235965D02*
X0170471Y0235965D01*
X0172990Y0238483D01*
X0172990Y0242046D01*
X0170471Y0244565D01*
X0166909Y0244565D01*
X0164390Y0242046D01*
X0164390Y0238483D01*
X0166909Y0235965D01*
X0166495Y0236378D02*
X0160884Y0236378D01*
X0160963Y0234780D02*
X0182181Y0234780D01*
X0182183Y0233181D02*
X0181854Y0233181D01*
X0180678Y0235465D02*
X0178890Y0235465D01*
X0178890Y0240064D01*
X0178490Y0240064D01*
X0178490Y0235465D01*
X0176702Y0235465D01*
X0173890Y0238276D01*
X0173890Y0240065D01*
X0178490Y0240065D01*
X0178490Y0240465D01*
X0178490Y0245065D01*
X0176702Y0245065D01*
X0173890Y0242253D01*
X0173890Y0240465D01*
X0178490Y0240465D01*
X0178890Y0240465D01*
X0178890Y0245065D01*
X0180678Y0245065D01*
X0183490Y0242253D01*
X0183490Y0240465D01*
X0178890Y0240465D01*
X0178890Y0240065D01*
X0183490Y0240065D01*
X0183490Y0238276D01*
X0180678Y0235465D01*
X0181592Y0236378D02*
X0182852Y0236378D01*
X0183190Y0237977D02*
X0184110Y0237977D01*
X0184390Y0239575D02*
X0183490Y0239575D01*
X0183490Y0241174D02*
X0184390Y0241174D01*
X0185116Y0242772D02*
X0182970Y0242772D01*
X0181372Y0244371D02*
X0186715Y0244371D01*
X0178890Y0244371D02*
X0178490Y0244371D01*
X0178490Y0242772D02*
X0178890Y0242772D01*
X0178890Y0241174D02*
X0178490Y0241174D01*
X0178490Y0239575D02*
X0178890Y0239575D01*
X0178890Y0237977D02*
X0178490Y0237977D01*
X0178490Y0236378D02*
X0178890Y0236378D01*
X0175788Y0236378D02*
X0170884Y0236378D01*
X0172483Y0237977D02*
X0174189Y0237977D01*
X0173890Y0239575D02*
X0172990Y0239575D01*
X0172990Y0241174D02*
X0173890Y0241174D01*
X0174409Y0242772D02*
X0172263Y0242772D01*
X0170665Y0244371D02*
X0176008Y0244371D01*
X0166715Y0244371D02*
X0160665Y0244371D01*
X0162263Y0242772D02*
X0165116Y0242772D01*
X0164390Y0241174D02*
X0162990Y0241174D01*
X0162990Y0239575D02*
X0164390Y0239575D01*
X0164897Y0237977D02*
X0162483Y0237977D01*
X0171854Y0233181D02*
X0175525Y0233181D01*
X0174390Y0231583D02*
X0172990Y0231583D01*
X0172990Y0229984D02*
X0174390Y0229984D01*
X0174488Y0228386D02*
X0172892Y0228386D01*
X0171293Y0226787D02*
X0176086Y0226787D01*
X0136482Y0190021D02*
X0121023Y0190021D01*
X0121023Y0188423D02*
X0138081Y0188423D01*
X0138483Y0186824D02*
X0121023Y0186824D01*
X0121023Y0185226D02*
X0138483Y0185226D01*
X0138483Y0183627D02*
X0121023Y0183627D01*
X0121023Y0182029D02*
X0138483Y0182029D01*
X0138483Y0180430D02*
X0125674Y0180430D01*
X0126338Y0178832D02*
X0138483Y0178832D01*
X0138483Y0177233D02*
X0126194Y0177233D01*
X0122007Y0175635D02*
X0137498Y0175635D01*
X0137498Y0174036D02*
X0134430Y0174036D01*
X0135393Y0172438D02*
X0138894Y0172438D01*
X0130587Y0174036D02*
X0122007Y0174036D01*
X0121233Y0180430D02*
X0121023Y0180430D01*
X0114073Y0180430D02*
X0111675Y0180430D01*
X0112558Y0182029D02*
X0114073Y0182029D01*
X0114073Y0183627D02*
X0112558Y0183627D01*
X0114073Y0185226D02*
X0111036Y0185226D01*
X0110590Y0186824D02*
X0114073Y0186824D01*
X0114073Y0188423D02*
X0110590Y0188423D01*
X0110590Y0190021D02*
X0114073Y0190021D01*
X0114073Y0191620D02*
X0110590Y0191620D01*
X0110590Y0193218D02*
X0114073Y0193218D01*
X0114073Y0194817D02*
X0110590Y0194817D01*
X0110590Y0196415D02*
X0114073Y0196415D01*
X0114073Y0198014D02*
X0110590Y0198014D01*
X0110590Y0199612D02*
X0114073Y0199612D01*
X0113271Y0201211D02*
X0110590Y0201211D01*
X0110590Y0202809D02*
X0112695Y0202809D01*
X0112927Y0204408D02*
X0110590Y0204408D01*
X0110590Y0206006D02*
X0117223Y0206006D01*
X0117223Y0207605D02*
X0110590Y0207605D01*
X0110590Y0209203D02*
X0117223Y0209203D01*
X0117223Y0210802D02*
X0110590Y0210802D01*
X0110590Y0212400D02*
X0117223Y0212400D01*
X0117223Y0213999D02*
X0110590Y0213999D01*
X0110590Y0215597D02*
X0117223Y0215597D01*
X0117223Y0217196D02*
X0110590Y0217196D01*
X0110590Y0218795D02*
X0117223Y0218795D01*
X0117223Y0220393D02*
X0110590Y0220393D01*
X0110590Y0221992D02*
X0117223Y0221992D01*
X0117223Y0223590D02*
X0110590Y0223590D01*
X0110590Y0225189D02*
X0117223Y0225189D01*
X0116086Y0226787D02*
X0111293Y0226787D01*
X0112892Y0228386D02*
X0114488Y0228386D01*
X0114390Y0229984D02*
X0112990Y0229984D01*
X0112990Y0231583D02*
X0114390Y0231583D01*
X0115525Y0233181D02*
X0111854Y0233181D01*
X0110884Y0236378D02*
X0116495Y0236378D01*
X0114897Y0237977D02*
X0112483Y0237977D01*
X0112990Y0239575D02*
X0114390Y0239575D01*
X0114390Y0241174D02*
X0112990Y0241174D01*
X0112263Y0242772D02*
X0115116Y0242772D01*
X0116715Y0244371D02*
X0110665Y0244371D01*
X0120665Y0244371D02*
X0126008Y0244371D01*
X0124409Y0242772D02*
X0122263Y0242772D01*
X0122990Y0241174D02*
X0123890Y0241174D01*
X0125747Y0236378D02*
X0125788Y0236378D01*
X0106086Y0226787D02*
X0101293Y0226787D01*
X0102892Y0228386D02*
X0104488Y0228386D01*
X0104390Y0229984D02*
X0102990Y0229984D01*
X0102990Y0231583D02*
X0104390Y0231583D01*
X0106790Y0225189D02*
X0060787Y0225189D01*
X0060787Y0223590D02*
X0075810Y0223590D01*
X0075294Y0221992D02*
X0060787Y0221992D01*
X0060787Y0220393D02*
X0075585Y0220393D01*
X0062208Y0212400D02*
X0101235Y0212400D01*
X0105515Y0212400D02*
X0106790Y0212400D01*
X0106790Y0210802D02*
X0106259Y0210802D01*
X0106196Y0209203D02*
X0106790Y0209203D01*
X0106790Y0207605D02*
X0104597Y0207605D01*
X0102152Y0207605D02*
X0062078Y0207605D01*
X0058845Y0207605D02*
X0057637Y0207605D01*
X0057637Y0206006D02*
X0106790Y0206006D01*
X0106790Y0204408D02*
X0057637Y0204408D01*
X0057637Y0202809D02*
X0106790Y0202809D01*
X0106790Y0201211D02*
X0057637Y0201211D01*
X0057637Y0199612D02*
X0106790Y0199612D01*
X0106790Y0198014D02*
X0057637Y0198014D01*
X0057637Y0196415D02*
X0106790Y0196415D01*
X0106790Y0194817D02*
X0057637Y0194817D01*
X0057637Y0193218D02*
X0106790Y0193218D01*
X0106790Y0191620D02*
X0057637Y0191620D01*
X0057637Y0190021D02*
X0106790Y0190021D01*
X0106790Y0188423D02*
X0057637Y0188423D01*
X0057637Y0186824D02*
X0106790Y0186824D01*
X0106790Y0185226D02*
X0057637Y0185226D01*
X0057637Y0183627D02*
X0106790Y0183627D01*
X0106790Y0182029D02*
X0102605Y0182029D01*
X0104203Y0180430D02*
X0107673Y0180430D01*
X0105802Y0178832D02*
X0113546Y0178832D01*
X0121023Y0191620D02*
X0134884Y0191620D01*
X0133285Y0193218D02*
X0121023Y0193218D01*
X0121023Y0194817D02*
X0131687Y0194817D01*
X0130088Y0196415D02*
X0121023Y0196415D01*
X0121023Y0198014D02*
X0128490Y0198014D01*
X0126891Y0199612D02*
X0121023Y0199612D01*
X0121023Y0201211D02*
X0125293Y0201211D01*
X0123694Y0202809D02*
X0121023Y0202809D01*
X0121023Y0204408D02*
X0121308Y0204408D01*
X0106790Y0213999D02*
X0057637Y0213999D01*
X0057637Y0215597D02*
X0106790Y0215597D01*
X0106790Y0217196D02*
X0058859Y0217196D01*
X0060458Y0218795D02*
X0106790Y0218795D01*
X0106790Y0220393D02*
X0106362Y0220393D01*
X0106653Y0221992D02*
X0106790Y0221992D01*
X0106790Y0223590D02*
X0106136Y0223590D01*
X0096086Y0226787D02*
X0091293Y0226787D01*
X0092892Y0228386D02*
X0094488Y0228386D01*
X0094390Y0229984D02*
X0092990Y0229984D01*
X0092990Y0231583D02*
X0094390Y0231583D01*
X0074897Y0237977D02*
X0072483Y0237977D01*
X0072990Y0239575D02*
X0074390Y0239575D01*
X0074390Y0241174D02*
X0072990Y0241174D01*
X0072263Y0242772D02*
X0075116Y0242772D01*
X0076715Y0244371D02*
X0070665Y0244371D01*
X0058715Y0212400D02*
X0057637Y0212400D01*
X0041632Y0207605D02*
X0013149Y0207605D01*
X0013149Y0209203D02*
X0014261Y0209203D01*
X0013149Y0206006D02*
X0041632Y0206006D01*
X0041632Y0204408D02*
X0013149Y0204408D01*
X0013149Y0202809D02*
X0041632Y0202809D01*
X0041632Y0201211D02*
X0013149Y0201211D01*
X0013149Y0199612D02*
X0041632Y0199612D01*
X0041632Y0198014D02*
X0013149Y0198014D01*
X0013149Y0196415D02*
X0041632Y0196415D01*
X0041632Y0194817D02*
X0013149Y0194817D01*
X0013149Y0193218D02*
X0041632Y0193218D01*
X0041632Y0191620D02*
X0013149Y0191620D01*
X0013149Y0190021D02*
X0041632Y0190021D01*
X0041632Y0188423D02*
X0013149Y0188423D01*
X0013149Y0186824D02*
X0041632Y0186824D01*
X0041632Y0185226D02*
X0013149Y0185226D01*
X0013149Y0183627D02*
X0041632Y0183627D01*
X0041632Y0182029D02*
X0013149Y0182029D01*
X0013149Y0180430D02*
X0041632Y0180430D01*
X0041632Y0178832D02*
X0013149Y0178832D01*
X0013149Y0177233D02*
X0041632Y0177233D01*
X0041632Y0175635D02*
X0028797Y0175635D01*
X0028906Y0175617D02*
X0028190Y0175731D01*
X0025128Y0175731D01*
X0025128Y0171231D01*
X0024928Y0171231D01*
X0024928Y0175731D01*
X0021866Y0175731D01*
X0021151Y0175617D01*
X0020463Y0175394D01*
X0019817Y0175065D01*
X0019232Y0174639D01*
X0018720Y0174127D01*
X0018294Y0173542D01*
X0017965Y0172896D01*
X0017742Y0172208D01*
X0017628Y0171493D01*
X0017628Y0171231D01*
X0024928Y0171231D01*
X0024928Y0171031D01*
X0017628Y0171031D01*
X0017628Y0170769D01*
X0017742Y0170054D01*
X0017965Y0169365D01*
X0018294Y0168720D01*
X0018720Y0168134D01*
X0019232Y0167622D01*
X0019817Y0167196D01*
X0020463Y0166868D01*
X0021151Y0166644D01*
X0021866Y0166531D01*
X0024928Y0166531D01*
X0024928Y0171031D01*
X0025128Y0171031D01*
X0025128Y0166531D01*
X0028190Y0166531D01*
X0028906Y0166644D01*
X0029594Y0166868D01*
X0030239Y0167196D01*
X0030825Y0167622D01*
X0031337Y0168134D01*
X0031763Y0168720D01*
X0032091Y0169365D01*
X0032315Y0170054D01*
X0032428Y0170769D01*
X0032428Y0171031D01*
X0025128Y0171031D01*
X0025128Y0171231D01*
X0032428Y0171231D01*
X0032428Y0171493D01*
X0032315Y0172208D01*
X0032091Y0172896D01*
X0031763Y0173542D01*
X0031337Y0174127D01*
X0030825Y0174639D01*
X0030239Y0175065D01*
X0029594Y0175394D01*
X0028906Y0175617D01*
X0031403Y0174036D02*
X0041632Y0174036D01*
X0041632Y0172438D02*
X0032240Y0172438D01*
X0032428Y0170839D02*
X0041632Y0170839D01*
X0041632Y0169241D02*
X0032028Y0169241D01*
X0030845Y0167642D02*
X0041632Y0167642D01*
X0041632Y0166044D02*
X0013149Y0166044D01*
X0013149Y0167642D02*
X0019212Y0167642D01*
X0018029Y0169241D02*
X0013149Y0169241D01*
X0013149Y0170839D02*
X0017628Y0170839D01*
X0017816Y0172438D02*
X0013149Y0172438D01*
X0013149Y0174036D02*
X0018653Y0174036D01*
X0021260Y0175635D02*
X0013149Y0175635D01*
X0013149Y0164445D02*
X0019744Y0164445D01*
X0019906Y0164607D02*
X0018753Y0163453D01*
X0018128Y0161946D01*
X0018128Y0160315D01*
X0018753Y0158808D01*
X0019906Y0157655D01*
X0021413Y0157031D01*
X0028644Y0157031D01*
X0030151Y0157655D01*
X0031304Y0158808D01*
X0031928Y0160315D01*
X0031928Y0161946D01*
X0031304Y0163453D01*
X0030151Y0164607D01*
X0028644Y0165231D01*
X0021413Y0165231D01*
X0019906Y0164607D01*
X0018501Y0162847D02*
X0013149Y0162847D01*
X0013149Y0161248D02*
X0018128Y0161248D01*
X0018404Y0159650D02*
X0013149Y0159650D01*
X0013149Y0158051D02*
X0019510Y0158051D01*
X0021413Y0155231D02*
X0019906Y0154607D01*
X0018753Y0153453D01*
X0018128Y0151946D01*
X0018128Y0150315D01*
X0018753Y0148808D01*
X0019906Y0147655D01*
X0021413Y0147031D01*
X0028644Y0147031D01*
X0030151Y0147655D01*
X0031304Y0148808D01*
X0031928Y0150315D01*
X0031928Y0151946D01*
X0031304Y0153453D01*
X0030151Y0154607D01*
X0028644Y0155231D01*
X0021413Y0155231D01*
X0020503Y0154854D02*
X0013149Y0154854D01*
X0013149Y0153256D02*
X0018671Y0153256D01*
X0018128Y0151657D02*
X0013149Y0151657D01*
X0013149Y0150059D02*
X0018235Y0150059D01*
X0019101Y0148460D02*
X0013149Y0148460D01*
X0013149Y0146861D02*
X0041632Y0146861D01*
X0041632Y0145263D02*
X0013149Y0145263D01*
X0013149Y0143664D02*
X0018964Y0143664D01*
X0018753Y0143453D02*
X0018128Y0141946D01*
X0018128Y0140315D01*
X0018753Y0138808D01*
X0019906Y0137655D01*
X0021413Y0137031D01*
X0028644Y0137031D01*
X0030151Y0137655D01*
X0031304Y0138808D01*
X0031928Y0140315D01*
X0031928Y0141946D01*
X0031304Y0143453D01*
X0030151Y0144607D01*
X0028644Y0145231D01*
X0021413Y0145231D01*
X0019906Y0144607D01*
X0018753Y0143453D01*
X0018178Y0142066D02*
X0013149Y0142066D01*
X0013149Y0140467D02*
X0018128Y0140467D01*
X0018727Y0138869D02*
X0013149Y0138869D01*
X0013149Y0137270D02*
X0020834Y0137270D01*
X0013149Y0135672D02*
X0041632Y0135672D01*
X0041632Y0137270D02*
X0029223Y0137270D01*
X0031329Y0138869D02*
X0041632Y0138869D01*
X0041632Y0140467D02*
X0031928Y0140467D01*
X0031879Y0142066D02*
X0041632Y0142066D01*
X0041632Y0143664D02*
X0031093Y0143664D01*
X0030956Y0148460D02*
X0041632Y0148460D01*
X0041632Y0150059D02*
X0031822Y0150059D01*
X0031928Y0151657D02*
X0041632Y0151657D01*
X0041632Y0153256D02*
X0031386Y0153256D01*
X0029553Y0154854D02*
X0041632Y0154854D01*
X0041632Y0156453D02*
X0013149Y0156453D01*
X0024928Y0167642D02*
X0025128Y0167642D01*
X0025128Y0169241D02*
X0024928Y0169241D01*
X0024928Y0170839D02*
X0025128Y0170839D01*
X0025128Y0172438D02*
X0024928Y0172438D01*
X0024928Y0174036D02*
X0025128Y0174036D01*
X0025128Y0175635D02*
X0024928Y0175635D01*
X0030312Y0164445D02*
X0041632Y0164445D01*
X0041632Y0162847D02*
X0031555Y0162847D01*
X0031928Y0161248D02*
X0041632Y0161248D01*
X0041632Y0159650D02*
X0031653Y0159650D01*
X0030547Y0158051D02*
X0041632Y0158051D01*
X0050590Y0167642D02*
X0054137Y0167642D01*
X0053053Y0166044D02*
X0055736Y0166044D01*
X0054651Y0164445D02*
X0120602Y0164445D01*
X0120569Y0162847D02*
X0054684Y0162847D01*
X0053910Y0161248D02*
X0102838Y0161248D01*
X0107061Y0161248D02*
X0121344Y0161248D01*
X0125563Y0161248D02*
X0174309Y0161248D01*
X0172711Y0159650D02*
X0107834Y0159650D01*
X0107799Y0158051D02*
X0171112Y0158051D01*
X0173289Y0154854D02*
X0178541Y0154854D01*
X0178573Y0153256D02*
X0171691Y0153256D01*
X0174888Y0156453D02*
X0178510Y0156453D01*
X0178478Y0158051D02*
X0176486Y0158051D01*
X0178085Y0159650D02*
X0178447Y0159650D01*
X0178287Y0151657D02*
X0106809Y0151657D01*
X0106144Y0152322D02*
X0103755Y0152322D01*
X0102771Y0151338D01*
X0059097Y0151338D01*
X0058113Y0152322D01*
X0055723Y0152322D01*
X0054034Y0150632D01*
X0054034Y0148243D01*
X0055723Y0146554D01*
X0058113Y0146554D01*
X0059097Y0147538D01*
X0102771Y0147538D01*
X0103755Y0146554D01*
X0106144Y0146554D01*
X0107834Y0148243D01*
X0107834Y0150632D01*
X0106144Y0152322D01*
X0107834Y0150059D02*
X0177656Y0150059D01*
X0177833Y0148460D02*
X0107834Y0148460D01*
X0106452Y0146861D02*
X0181970Y0146861D01*
X0184147Y0143664D02*
X0211056Y0143664D01*
X0212655Y0145263D02*
X0185745Y0145263D01*
X0185983Y0146861D02*
X0214253Y0146861D01*
X0209140Y0156453D02*
X0224309Y0156453D01*
X0224309Y0158051D02*
X0210738Y0158051D01*
X0212337Y0159650D02*
X0224309Y0159650D01*
X0224309Y0161248D02*
X0213935Y0161248D01*
X0215534Y0162847D02*
X0224309Y0162847D01*
X0224309Y0164445D02*
X0217132Y0164445D01*
X0218731Y0166044D02*
X0224309Y0166044D01*
X0224309Y0167642D02*
X0220329Y0167642D01*
X0223320Y0169241D02*
X0224309Y0169241D01*
X0224309Y0170839D02*
X0223976Y0170839D01*
X0223824Y0172438D02*
X0224309Y0172438D01*
X0228109Y0172438D02*
X0230537Y0172438D01*
X0230333Y0170839D02*
X0228109Y0170839D01*
X0228109Y0169241D02*
X0230778Y0169241D01*
X0232141Y0167642D02*
X0228109Y0167642D01*
X0228109Y0174036D02*
X0231540Y0174036D01*
X0186100Y0148460D02*
X0185983Y0148460D01*
X0145372Y0122884D02*
X0145256Y0122884D01*
X0145372Y0121285D02*
X0143264Y0121285D01*
X0141665Y0119687D02*
X0146357Y0119687D01*
X0146357Y0118088D02*
X0140067Y0118088D01*
X0138468Y0116490D02*
X0146357Y0116490D01*
X0146357Y0114891D02*
X0136870Y0114891D01*
X0135983Y0113293D02*
X0146357Y0113293D01*
X0146357Y0111694D02*
X0135983Y0111694D01*
X0135617Y0110096D02*
X0146357Y0110096D01*
X0146357Y0108497D02*
X0134019Y0108497D01*
X0132420Y0106899D02*
X0146357Y0106899D01*
X0145133Y0105300D02*
X0130822Y0105300D01*
X0128645Y0108497D02*
X0126924Y0108497D01*
X0125550Y0110096D02*
X0130243Y0110096D01*
X0131842Y0111694D02*
X0125119Y0111694D01*
X0120214Y0111694D02*
X0117034Y0111694D01*
X0114857Y0108497D02*
X0061963Y0108497D01*
X0061683Y0110096D02*
X0060364Y0110096D01*
X0060085Y0111694D02*
X0055223Y0111694D01*
X0053624Y0113293D02*
X0058486Y0113293D01*
X0056888Y0114891D02*
X0052026Y0114891D01*
X0051731Y0116490D02*
X0055289Y0116490D01*
X0055018Y0118088D02*
X0051731Y0118088D01*
X0051731Y0119687D02*
X0055018Y0119687D01*
X0055018Y0121285D02*
X0051731Y0121285D01*
X0051731Y0122884D02*
X0055018Y0122884D01*
X0055018Y0124482D02*
X0051731Y0124482D01*
X0051731Y0126081D02*
X0055018Y0126081D01*
X0055018Y0127679D02*
X0051731Y0127679D01*
X0051731Y0129278D02*
X0055018Y0129278D01*
X0055018Y0130876D02*
X0051731Y0130876D01*
X0051731Y0132475D02*
X0055772Y0132475D01*
X0057371Y0134073D02*
X0051731Y0134073D01*
X0051731Y0135672D02*
X0058969Y0135672D01*
X0060568Y0137270D02*
X0051731Y0137270D01*
X0051731Y0138869D02*
X0062166Y0138869D01*
X0062745Y0134073D02*
X0090451Y0134073D01*
X0090451Y0132475D02*
X0061146Y0132475D01*
X0059548Y0130876D02*
X0070498Y0130876D01*
X0070176Y0129278D02*
X0058818Y0129278D01*
X0058818Y0127679D02*
X0068876Y0127679D01*
X0067813Y0126081D02*
X0058818Y0126081D01*
X0058818Y0124482D02*
X0067813Y0124482D01*
X0069157Y0122884D02*
X0058818Y0122884D01*
X0058818Y0121285D02*
X0137890Y0121285D01*
X0139488Y0122884D02*
X0117711Y0122884D01*
X0119054Y0124482D02*
X0141087Y0124482D01*
X0142685Y0126081D02*
X0119054Y0126081D01*
X0114629Y0122884D02*
X0072238Y0122884D01*
X0063860Y0113293D02*
X0132183Y0113293D01*
X0132183Y0114891D02*
X0062262Y0114891D01*
X0060663Y0116490D02*
X0133094Y0116490D01*
X0133296Y0116692D02*
X0133296Y0116692D01*
X0134693Y0118088D02*
X0059065Y0118088D01*
X0058818Y0119687D02*
X0136291Y0119687D01*
X0123148Y0106899D02*
X0121613Y0106899D01*
X0120796Y0105300D02*
X0124747Y0105300D01*
X0127018Y0102103D02*
X0133851Y0102103D01*
X0132774Y0100505D02*
X0128617Y0100505D01*
X0130215Y0098906D02*
X0132774Y0098906D01*
X0128039Y0095709D02*
X0064909Y0095709D01*
X0063310Y0097308D02*
X0126440Y0097308D01*
X0124841Y0098906D02*
X0061712Y0098906D01*
X0060113Y0100505D02*
X0101589Y0100505D01*
X0099991Y0102103D02*
X0058515Y0102103D01*
X0063562Y0106899D02*
X0115845Y0106899D01*
X0116662Y0105300D02*
X0102168Y0105300D01*
X0103766Y0103702D02*
X0136841Y0103702D01*
X0156207Y0086118D02*
X0183825Y0086118D01*
X0186002Y0082921D02*
X0240346Y0082921D01*
X0239489Y0081323D02*
X0155480Y0081323D01*
X0166400Y0066936D02*
X0084860Y0066936D01*
X0086458Y0065337D02*
X0165057Y0065337D01*
X0164050Y0063739D02*
X0088057Y0063739D01*
X0089655Y0062140D02*
X0162260Y0062140D01*
X0160469Y0060542D02*
X0090905Y0060542D01*
X0083261Y0068534D02*
X0221859Y0068534D01*
X0220261Y0070133D02*
X0081663Y0070133D01*
X0080064Y0071731D02*
X0218662Y0071731D01*
X0221405Y0074928D02*
X0259843Y0074928D01*
X0259843Y0086118D02*
X0245112Y0086118D01*
X0241682Y0085658D02*
X0246288Y0090265D01*
X0250517Y0094111D02*
X0259843Y0094111D01*
X0259843Y0095709D02*
X0249732Y0095709D01*
X0252626Y0097308D02*
X0259843Y0097308D01*
X0259843Y0098906D02*
X0253484Y0098906D01*
X0253688Y0100505D02*
X0259843Y0100505D01*
X0259843Y0102103D02*
X0253314Y0102103D01*
X0252595Y0092512D02*
X0259843Y0092512D01*
X0259843Y0090914D02*
X0253188Y0090914D01*
X0253133Y0089315D02*
X0259843Y0089315D01*
X0259843Y0087717D02*
X0252338Y0087717D01*
X0241798Y0076527D02*
X0120200Y0076527D01*
X0117458Y0073330D02*
X0078466Y0073330D01*
X0067899Y0094111D02*
X0186095Y0094111D01*
X0169483Y0066936D02*
X0241019Y0066936D01*
X0246249Y0070304D02*
X0246288Y0070265D01*
X0240755Y0073330D02*
X0223004Y0073330D01*
X0242824Y0054148D02*
X0159614Y0054148D01*
X0157881Y0052549D02*
X0240002Y0052549D01*
X0236201Y0047754D02*
X0062210Y0047754D01*
X0065329Y0039761D02*
X0032325Y0039761D01*
X0032344Y0041360D02*
X0235024Y0041360D01*
X0234960Y0042958D02*
X0032344Y0042958D01*
X0032186Y0044557D02*
X0235226Y0044557D01*
X0235493Y0046155D02*
X0031638Y0046155D01*
X0031776Y0038163D02*
X0035120Y0038163D01*
X0033975Y0036564D02*
X0031227Y0036564D01*
X0030329Y0034966D02*
X0033517Y0034966D01*
X0033562Y0033367D02*
X0029085Y0033367D01*
X0027374Y0031769D02*
X0034120Y0031769D01*
X0038442Y0034966D02*
X0039204Y0034966D01*
X0039204Y0034690D02*
X0039204Y0039652D01*
X0039243Y0039652D01*
X0040074Y0039520D01*
X0040874Y0039260D01*
X0041623Y0038879D01*
X0042304Y0038384D01*
X0042898Y0037790D01*
X0043393Y0037109D01*
X0043775Y0036360D01*
X0044035Y0035560D01*
X0044166Y0034729D01*
X0044166Y0034690D01*
X0039204Y0034690D01*
X0039204Y0036564D02*
X0038442Y0036564D01*
X0038442Y0038163D02*
X0039204Y0038163D01*
X0042525Y0038163D02*
X0062420Y0038163D01*
X0061373Y0036564D02*
X0043670Y0036564D01*
X0044129Y0034966D02*
X0060985Y0034966D01*
X0061094Y0033367D02*
X0044084Y0033367D01*
X0043526Y0031769D02*
X0061722Y0031769D01*
X0065942Y0034966D02*
X0066704Y0034966D01*
X0066704Y0034890D02*
X0066704Y0039852D01*
X0066743Y0039852D01*
X0067574Y0039720D01*
X0068374Y0039460D01*
X0069123Y0039079D01*
X0069804Y0038584D01*
X0070398Y0037990D01*
X0070893Y0037309D01*
X0071275Y0036560D01*
X0071535Y0035760D01*
X0071666Y0034929D01*
X0071666Y0034890D01*
X0066704Y0034890D01*
X0066704Y0036564D02*
X0065942Y0036564D01*
X0065942Y0038163D02*
X0066704Y0038163D01*
X0066704Y0039761D02*
X0065942Y0039761D01*
X0067316Y0039761D02*
X0235290Y0039761D01*
X0235557Y0038163D02*
X0070225Y0038163D01*
X0071272Y0036564D02*
X0236409Y0036564D01*
X0237275Y0034966D02*
X0071660Y0034966D01*
X0071552Y0033367D02*
X0238683Y0033367D01*
X0240419Y0031769D02*
X0070924Y0031769D01*
X0042528Y0113293D02*
X0035908Y0113293D01*
X0034309Y0114891D02*
X0041829Y0114891D01*
X0041632Y0116490D02*
X0032711Y0116490D01*
X0031112Y0118088D02*
X0041632Y0118088D01*
X0041632Y0119687D02*
X0029514Y0119687D01*
X0027915Y0121285D02*
X0041632Y0121285D01*
X0041632Y0122884D02*
X0014899Y0122884D01*
X0013301Y0124482D02*
X0041632Y0124482D01*
X0041632Y0126081D02*
X0013149Y0126081D01*
X0013149Y0127679D02*
X0041632Y0127679D01*
X0041632Y0129278D02*
X0013149Y0129278D01*
X0013149Y0130876D02*
X0041632Y0130876D01*
X0041632Y0132475D02*
X0013149Y0132475D01*
X0013149Y0134073D02*
X0041632Y0134073D01*
X0051731Y0140467D02*
X0090451Y0140467D01*
X0090451Y0138869D02*
X0085739Y0138869D01*
X0086180Y0137270D02*
X0090451Y0137270D01*
X0090451Y0135672D02*
X0085814Y0135672D01*
X0091347Y0142066D02*
X0051731Y0142066D01*
X0051731Y0143664D02*
X0091948Y0143664D01*
X0094251Y0138869D02*
X0100097Y0138869D01*
X0100168Y0140467D02*
X0096909Y0140467D01*
X0097598Y0142066D02*
X0101767Y0142066D01*
X0104196Y0142066D02*
X0122144Y0142066D01*
X0122263Y0143664D02*
X0097479Y0143664D01*
X0099542Y0137270D02*
X0100833Y0137270D01*
X0095396Y0137270D02*
X0094251Y0137270D01*
X0094251Y0135672D02*
X0094585Y0135672D01*
X0094585Y0134073D02*
X0094251Y0134073D01*
X0107946Y0140467D02*
X0122833Y0140467D01*
X0128796Y0145263D02*
X0051731Y0145263D01*
X0051731Y0146861D02*
X0055415Y0146861D01*
X0054034Y0148460D02*
X0051731Y0148460D01*
X0052745Y0150059D02*
X0054034Y0150059D01*
X0054344Y0151657D02*
X0055058Y0151657D01*
X0055943Y0153256D02*
X0114376Y0153256D01*
X0113876Y0154854D02*
X0057541Y0154854D01*
X0059140Y0156453D02*
X0103698Y0156453D01*
X0106201Y0156453D02*
X0114185Y0156453D01*
X0103090Y0151657D02*
X0058778Y0151657D01*
X0058421Y0146861D02*
X0103447Y0146861D01*
X0090052Y0174036D02*
X0064141Y0174036D01*
X0062542Y0175635D02*
X0089467Y0175635D01*
X0089690Y0177233D02*
X0060944Y0177233D01*
X0059345Y0178832D02*
X0090451Y0178832D01*
X0091129Y0180430D02*
X0057747Y0180430D01*
X0057637Y0182029D02*
X0092728Y0182029D01*
X0057380Y0160067D02*
X0057380Y0160067D01*
X0052538Y0169241D02*
X0050590Y0169241D01*
X0050590Y0170839D02*
X0050940Y0170839D01*
X0048690Y0175776D02*
X0049044Y0176131D01*
X0049044Y0180540D01*
X0010289Y0217196D02*
X0007537Y0217196D01*
X0007537Y0218795D02*
X0012170Y0218795D01*
X0013769Y0220393D02*
X0007537Y0220393D01*
X0007537Y0221992D02*
X0015368Y0221992D01*
X0014199Y0223590D02*
X0007537Y0223590D01*
X0007537Y0225189D02*
X0011523Y0225189D01*
X0009786Y0226787D02*
X0007537Y0226787D01*
X0007537Y0228386D02*
X0008654Y0228386D01*
X0007789Y0229984D02*
X0007537Y0229984D01*
X0007957Y0241174D02*
X0008129Y0241174D01*
X0008585Y0242772D02*
X0008994Y0242772D01*
X0009399Y0244371D02*
X0010469Y0244371D01*
X0010770Y0245969D02*
X0012205Y0245969D01*
X0012827Y0247568D02*
X0015632Y0247568D01*
X0017325Y0249166D02*
X0250054Y0249166D01*
X0251532Y0247568D02*
X0254553Y0247568D01*
X0254931Y0245969D02*
X0256610Y0245969D01*
X0257030Y0244371D02*
X0257980Y0244371D01*
X0258274Y0242772D02*
X0258794Y0242772D01*
X0259397Y0241174D02*
X0259423Y0241174D01*
X0259612Y0229984D02*
X0259843Y0229984D01*
X0259843Y0228386D02*
X0258764Y0228386D01*
X0259843Y0226787D02*
X0257520Y0226787D01*
X0255893Y0225189D02*
X0259843Y0225189D01*
X0259843Y0223590D02*
X0253446Y0223590D01*
X0243978Y0247568D02*
X0023186Y0247568D01*
X0032344Y0233181D02*
X0035525Y0233181D01*
X0034390Y0231583D02*
X0031815Y0231583D01*
X0031266Y0229984D02*
X0034390Y0229984D01*
X0034488Y0228386D02*
X0030417Y0228386D01*
X0029173Y0226787D02*
X0035124Y0226787D01*
X0145506Y0185226D02*
X0145791Y0185226D01*
D15*
X0148257Y0186839D03*
X0143532Y0182902D03*
X0140383Y0175028D03*
X0132509Y0171879D03*
X0130934Y0167548D03*
X0123454Y0163217D03*
X0116761Y0154950D03*
X0125028Y0142351D03*
X0132509Y0149831D03*
X0133690Y0141564D03*
X0129359Y0132115D03*
X0116170Y0125422D03*
X0102981Y0139202D03*
X0097469Y0135265D03*
X0094713Y0142351D03*
X0104950Y0149438D03*
X0101800Y0154162D03*
X0104950Y0159280D03*
X0092351Y0175816D03*
X0109674Y0182509D03*
X0119123Y0175028D03*
X0123454Y0178572D03*
X0115580Y0202981D03*
X0125816Y0208493D03*
X0133690Y0205737D03*
X0133690Y0220698D03*
X0103769Y0221879D03*
X0103375Y0210461D03*
X0078178Y0221879D03*
X0060461Y0210068D03*
X0055737Y0176997D03*
X0051800Y0163217D03*
X0056918Y0149438D03*
X0073060Y0129359D03*
X0070698Y0125422D03*
X0083296Y0137233D03*
X0118729Y0107312D03*
X0122666Y0110068D03*
X0135658Y0099831D03*
X0133690Y0090776D03*
X0154162Y0084083D03*
X0167942Y0064398D03*
X0188414Y0092351D03*
X0199831Y0107706D03*
X0206918Y0128572D03*
X0184871Y0133690D03*
X0178965Y0135658D03*
X0171879Y0133690D03*
X0178965Y0125422D03*
X0156524Y0114005D03*
X0148257Y0122272D03*
X0180540Y0149831D03*
X0188808Y0149831D03*
X0198650Y0160068D03*
X0209674Y0167548D03*
X0221091Y0171091D03*
X0221091Y0151013D03*
X0176603Y0171091D03*
X0173847Y0186839D03*
X0153375Y0171091D03*
X0066367Y0091564D03*
X0039595Y0100619D03*
X0044713Y0115186D03*
X0088020Y0059674D03*
X0101406Y0051013D03*
X0049831Y0054556D03*
X0016761Y0210855D03*
D16*
X0039595Y0100619D02*
X0047076Y0100619D01*
X0071879Y0075816D01*
X0088020Y0059674D01*
D17*
X0066367Y0091564D02*
X0052981Y0104950D01*
X0039989Y0104950D01*
X0037627Y0107312D01*
X0037627Y0108887D01*
X0025816Y0120698D01*
X0014398Y0120698D01*
X0011249Y0123847D01*
X0011249Y0215186D01*
X0017154Y0221091D01*
X0027784Y0221091D01*
X0029753Y0223060D01*
X0034083Y0223060D01*
X0038690Y0227666D01*
X0038690Y0230265D01*
X0043532Y0233296D02*
X0043532Y0116367D01*
X0044713Y0115186D01*
X0044910Y0114989D01*
X0045501Y0114398D01*
X0049831Y0114398D02*
X0055737Y0108493D01*
X0059280Y0108493D01*
X0062824Y0104950D01*
X0099831Y0104950D01*
X0103769Y0101013D01*
X0125422Y0101013D01*
X0129753Y0096682D01*
X0188808Y0096682D01*
X0199831Y0107706D01*
X0188414Y0092351D02*
X0188414Y0088020D01*
X0184477Y0084083D01*
X0154162Y0084083D01*
X0135658Y0099831D02*
X0138808Y0102981D01*
X0145501Y0102981D01*
X0148257Y0105737D01*
X0148257Y0122272D01*
X0145501Y0125816D02*
X0151800Y0125816D01*
X0155343Y0122272D01*
X0224635Y0122272D01*
X0226209Y0123847D01*
X0226209Y0215973D01*
X0221091Y0221091D01*
X0221091Y0227863D01*
X0218690Y0230265D01*
X0209674Y0228257D02*
X0208690Y0230265D01*
X0209674Y0228257D02*
X0209674Y0167548D01*
X0221091Y0171091D02*
X0199831Y0149831D01*
X0188808Y0149831D01*
X0188414Y0229989D01*
X0188690Y0230265D01*
X0184083Y0234871D02*
X0184083Y0146288D01*
X0182115Y0144320D01*
X0130540Y0144320D01*
X0128572Y0142351D01*
X0125028Y0142351D01*
X0133690Y0141564D02*
X0211643Y0141564D01*
X0221091Y0151013D01*
X0198650Y0160068D02*
X0198650Y0230225D01*
X0198690Y0230265D01*
X0188690Y0240265D02*
X0185540Y0236721D01*
X0184083Y0234871D01*
X0178965Y0229989D02*
X0178690Y0230265D01*
X0178965Y0229989D02*
X0180540Y0149831D01*
X0183296Y0139595D02*
X0175028Y0139595D01*
X0173060Y0137627D01*
X0108099Y0137627D01*
X0106524Y0139202D01*
X0102981Y0139202D01*
X0097469Y0135265D02*
X0162824Y0134871D01*
X0164005Y0133690D01*
X0171879Y0133690D01*
X0175028Y0129359D02*
X0178965Y0135658D01*
X0183296Y0139595D02*
X0184871Y0138020D01*
X0184871Y0133690D01*
X0178965Y0125422D02*
X0203769Y0125422D01*
X0206918Y0128572D01*
X0175028Y0129359D02*
X0073060Y0129359D01*
X0070698Y0125422D02*
X0116170Y0125422D01*
X0129359Y0132115D02*
X0093532Y0132115D01*
X0092351Y0132902D01*
X0092351Y0140383D01*
X0094713Y0142351D01*
X0104950Y0149438D02*
X0056918Y0149438D01*
X0049831Y0149831D02*
X0049831Y0114398D01*
X0056918Y0117548D02*
X0064005Y0110461D01*
X0115580Y0110461D01*
X0118729Y0107312D01*
X0122666Y0110068D02*
X0126997Y0105737D01*
X0128572Y0105737D01*
X0134083Y0111249D01*
X0134083Y0114792D01*
X0143926Y0124635D01*
X0144320Y0124635D01*
X0145501Y0125816D01*
X0156524Y0114005D02*
X0243926Y0114005D01*
X0245501Y0115580D01*
X0245501Y0178572D01*
X0235265Y0188808D01*
X0235265Y0223454D01*
X0233690Y0225028D01*
X0233690Y0233296D01*
X0233296Y0233690D01*
X0233296Y0235265D01*
X0228690Y0239871D01*
X0228690Y0240265D01*
X0173847Y0186839D02*
X0173847Y0163217D01*
X0123454Y0163217D01*
X0130934Y0167548D02*
X0056918Y0167548D01*
X0048690Y0175776D01*
X0048690Y0166328D01*
X0051800Y0163217D01*
X0059280Y0159280D02*
X0049831Y0149831D01*
X0059280Y0159280D02*
X0104950Y0159280D01*
X0116761Y0154950D02*
X0170698Y0154950D01*
X0177784Y0162036D01*
X0177784Y0169910D01*
X0176603Y0171091D01*
X0153375Y0171091D02*
X0153375Y0171879D01*
X0153375Y0236839D01*
X0156800Y0240265D01*
X0158690Y0240265D01*
X0148690Y0240265D02*
X0146170Y0240265D01*
X0143926Y0238020D01*
X0143926Y0221879D01*
X0143532Y0221485D01*
X0143532Y0204950D01*
X0147469Y0201013D01*
X0148650Y0201013D01*
X0148257Y0200619D01*
X0148257Y0186839D01*
X0143532Y0182902D02*
X0143926Y0195501D01*
X0133690Y0205737D01*
X0137233Y0208493D02*
X0139202Y0210461D01*
X0139202Y0229753D01*
X0138690Y0230265D01*
X0133690Y0238020D02*
X0133690Y0220698D01*
X0143926Y0221091D02*
X0143926Y0221879D01*
X0137233Y0208493D02*
X0125816Y0208493D01*
X0123847Y0205343D02*
X0123060Y0205343D01*
X0121879Y0206524D01*
X0121879Y0214792D01*
X0123454Y0216367D01*
X0123454Y0227391D01*
X0123847Y0227784D01*
X0123847Y0237233D01*
X0123060Y0238020D01*
X0120934Y0238020D01*
X0118690Y0240265D01*
X0108690Y0240265D02*
X0108690Y0238611D01*
X0104950Y0234871D01*
X0045107Y0234871D01*
X0043532Y0233296D01*
X0048690Y0230265D02*
X0048690Y0175776D01*
X0055737Y0176997D02*
X0055737Y0179753D01*
X0055737Y0216761D01*
X0058887Y0219910D01*
X0058887Y0230068D01*
X0058690Y0230265D01*
X0078178Y0221879D02*
X0103769Y0221879D01*
X0108690Y0230265D02*
X0108690Y0183493D01*
X0109674Y0182509D01*
X0115973Y0178572D02*
X0115973Y0202587D01*
X0115580Y0202981D01*
X0123847Y0205343D02*
X0140383Y0188808D01*
X0140383Y0175028D01*
X0132509Y0171879D02*
X0063611Y0171879D01*
X0055737Y0179753D01*
X0060461Y0210068D02*
X0102981Y0210068D01*
X0103375Y0210461D01*
X0119123Y0229831D02*
X0118690Y0230265D01*
X0119123Y0229831D02*
X0119123Y0175028D01*
X0115973Y0178572D02*
X0113611Y0176209D01*
X0105737Y0176209D01*
X0100619Y0181328D01*
X0094713Y0181328D01*
X0092351Y0178965D01*
X0092351Y0175816D01*
X0083296Y0137233D02*
X0063217Y0137233D01*
X0056918Y0130934D01*
X0056918Y0117548D01*
X0066367Y0091564D02*
X0132902Y0091564D01*
X0133690Y0090776D01*
X0133690Y0238020D02*
X0135934Y0240265D01*
X0138690Y0240265D01*
D18*
X0059674Y0050619D03*
M02*
