G75*
%MOIN*%
%OFA0B0*%
%FSLAX25Y25*%
%IPPOS*%
%LPD*%
%AMOC8*
5,1,8,0,0,1.08239X$1,22.5*
%
%ADD10C,0.00000*%
%ADD11C,0.00700*%
%ADD12R,0.22441X0.03937*%
%ADD13C,0.00570*%
D10*
X0017548Y0028572D02*
X0249831Y0028572D01*
X0250116Y0028575D01*
X0250402Y0028586D01*
X0250687Y0028603D01*
X0250971Y0028627D01*
X0251255Y0028658D01*
X0251538Y0028696D01*
X0251819Y0028741D01*
X0252100Y0028792D01*
X0252380Y0028850D01*
X0252658Y0028915D01*
X0252934Y0028987D01*
X0253208Y0029065D01*
X0253481Y0029150D01*
X0253751Y0029242D01*
X0254019Y0029340D01*
X0254285Y0029444D01*
X0254548Y0029555D01*
X0254808Y0029672D01*
X0255066Y0029795D01*
X0255320Y0029925D01*
X0255571Y0030061D01*
X0255819Y0030202D01*
X0256063Y0030350D01*
X0256304Y0030503D01*
X0256540Y0030663D01*
X0256773Y0030828D01*
X0257002Y0030998D01*
X0257227Y0031174D01*
X0257447Y0031356D01*
X0257663Y0031542D01*
X0257874Y0031734D01*
X0258081Y0031931D01*
X0258283Y0032133D01*
X0258480Y0032340D01*
X0258672Y0032551D01*
X0258858Y0032767D01*
X0259040Y0032987D01*
X0259216Y0033212D01*
X0259386Y0033441D01*
X0259551Y0033674D01*
X0259711Y0033910D01*
X0259864Y0034151D01*
X0260012Y0034395D01*
X0260153Y0034643D01*
X0260289Y0034894D01*
X0260419Y0035148D01*
X0260542Y0035406D01*
X0260659Y0035666D01*
X0260770Y0035929D01*
X0260874Y0036195D01*
X0260972Y0036463D01*
X0261064Y0036733D01*
X0261149Y0037006D01*
X0261227Y0037280D01*
X0261299Y0037556D01*
X0261364Y0037834D01*
X0261422Y0038114D01*
X0261473Y0038395D01*
X0261518Y0038676D01*
X0261556Y0038959D01*
X0261587Y0039243D01*
X0261611Y0039527D01*
X0261628Y0039812D01*
X0261639Y0040098D01*
X0261642Y0040383D01*
X0261643Y0040383D02*
X0261643Y0237233D01*
X0261642Y0237233D02*
X0261662Y0237542D01*
X0261675Y0237852D01*
X0261680Y0238162D01*
X0261677Y0238472D01*
X0261668Y0238782D01*
X0261650Y0239092D01*
X0261625Y0239401D01*
X0261593Y0239709D01*
X0261553Y0240017D01*
X0261506Y0240323D01*
X0261451Y0240629D01*
X0261389Y0240933D01*
X0261320Y0241235D01*
X0261244Y0241535D01*
X0261160Y0241834D01*
X0261069Y0242130D01*
X0260971Y0242425D01*
X0260865Y0242716D01*
X0260753Y0243005D01*
X0260634Y0243292D01*
X0260508Y0243575D01*
X0260375Y0243855D01*
X0260235Y0244132D01*
X0260089Y0244406D01*
X0259936Y0244675D01*
X0259777Y0244942D01*
X0259611Y0245204D01*
X0259439Y0245462D01*
X0259261Y0245716D01*
X0259077Y0245965D01*
X0258887Y0246210D01*
X0258691Y0246450D01*
X0258489Y0246686D01*
X0258281Y0246916D01*
X0258069Y0247142D01*
X0257850Y0247362D01*
X0257627Y0247577D01*
X0257398Y0247786D01*
X0257164Y0247990D01*
X0256926Y0248188D01*
X0256682Y0248380D01*
X0256434Y0248567D01*
X0256182Y0248747D01*
X0255925Y0248921D01*
X0255665Y0249089D01*
X0255400Y0249251D01*
X0255131Y0249406D01*
X0254859Y0249554D01*
X0254584Y0249696D01*
X0254305Y0249832D01*
X0254022Y0249960D01*
X0253737Y0250082D01*
X0253449Y0250197D01*
X0253158Y0250304D01*
X0252865Y0250405D01*
X0252569Y0250498D01*
X0252271Y0250585D01*
X0251971Y0250664D01*
X0251670Y0250736D01*
X0251366Y0250800D01*
X0251062Y0250857D01*
X0250755Y0250907D01*
X0250448Y0250950D01*
X0250140Y0250985D01*
X0249831Y0251012D01*
X0249831Y0251013D02*
X0017548Y0251013D01*
X0017548Y0251012D02*
X0017239Y0250985D01*
X0016931Y0250950D01*
X0016624Y0250907D01*
X0016317Y0250857D01*
X0016013Y0250800D01*
X0015709Y0250736D01*
X0015408Y0250664D01*
X0015108Y0250585D01*
X0014810Y0250498D01*
X0014514Y0250405D01*
X0014221Y0250304D01*
X0013930Y0250197D01*
X0013642Y0250082D01*
X0013357Y0249960D01*
X0013074Y0249832D01*
X0012795Y0249696D01*
X0012520Y0249554D01*
X0012248Y0249406D01*
X0011979Y0249251D01*
X0011714Y0249089D01*
X0011454Y0248921D01*
X0011197Y0248747D01*
X0010945Y0248567D01*
X0010697Y0248380D01*
X0010453Y0248188D01*
X0010215Y0247990D01*
X0009981Y0247786D01*
X0009752Y0247577D01*
X0009529Y0247362D01*
X0009310Y0247142D01*
X0009098Y0246916D01*
X0008890Y0246686D01*
X0008688Y0246450D01*
X0008492Y0246210D01*
X0008302Y0245965D01*
X0008118Y0245716D01*
X0007940Y0245462D01*
X0007768Y0245204D01*
X0007602Y0244942D01*
X0007443Y0244675D01*
X0007290Y0244406D01*
X0007144Y0244132D01*
X0007004Y0243855D01*
X0006871Y0243575D01*
X0006745Y0243292D01*
X0006626Y0243005D01*
X0006514Y0242716D01*
X0006408Y0242425D01*
X0006310Y0242130D01*
X0006219Y0241834D01*
X0006135Y0241535D01*
X0006059Y0241235D01*
X0005990Y0240933D01*
X0005928Y0240629D01*
X0005873Y0240323D01*
X0005826Y0240017D01*
X0005786Y0239709D01*
X0005754Y0239401D01*
X0005729Y0239092D01*
X0005711Y0238782D01*
X0005702Y0238472D01*
X0005699Y0238162D01*
X0005704Y0237852D01*
X0005717Y0237542D01*
X0005737Y0237233D01*
X0005737Y0040383D01*
X0005740Y0040098D01*
X0005751Y0039812D01*
X0005768Y0039527D01*
X0005792Y0039243D01*
X0005823Y0038959D01*
X0005861Y0038676D01*
X0005906Y0038395D01*
X0005957Y0038114D01*
X0006015Y0037834D01*
X0006080Y0037556D01*
X0006152Y0037280D01*
X0006230Y0037006D01*
X0006315Y0036733D01*
X0006407Y0036463D01*
X0006505Y0036195D01*
X0006609Y0035929D01*
X0006720Y0035666D01*
X0006837Y0035406D01*
X0006960Y0035148D01*
X0007090Y0034894D01*
X0007226Y0034643D01*
X0007367Y0034395D01*
X0007515Y0034151D01*
X0007668Y0033910D01*
X0007828Y0033674D01*
X0007993Y0033441D01*
X0008163Y0033212D01*
X0008339Y0032987D01*
X0008521Y0032767D01*
X0008707Y0032551D01*
X0008899Y0032340D01*
X0009096Y0032133D01*
X0009298Y0031931D01*
X0009505Y0031734D01*
X0009716Y0031542D01*
X0009932Y0031356D01*
X0010152Y0031174D01*
X0010377Y0030998D01*
X0010606Y0030828D01*
X0010839Y0030663D01*
X0011075Y0030503D01*
X0011316Y0030350D01*
X0011560Y0030202D01*
X0011808Y0030061D01*
X0012059Y0029925D01*
X0012313Y0029795D01*
X0012571Y0029672D01*
X0012831Y0029555D01*
X0013094Y0029444D01*
X0013360Y0029340D01*
X0013628Y0029242D01*
X0013898Y0029150D01*
X0014171Y0029065D01*
X0014445Y0028987D01*
X0014721Y0028915D01*
X0014999Y0028850D01*
X0015279Y0028792D01*
X0015560Y0028741D01*
X0015841Y0028696D01*
X0016124Y0028658D01*
X0016408Y0028627D01*
X0016692Y0028603D01*
X0016977Y0028586D01*
X0017263Y0028575D01*
X0017548Y0028572D01*
X0014104Y0042351D02*
X0014106Y0042498D01*
X0014112Y0042644D01*
X0014122Y0042790D01*
X0014136Y0042936D01*
X0014154Y0043082D01*
X0014175Y0043227D01*
X0014201Y0043371D01*
X0014231Y0043515D01*
X0014264Y0043657D01*
X0014301Y0043799D01*
X0014342Y0043940D01*
X0014387Y0044079D01*
X0014436Y0044218D01*
X0014488Y0044355D01*
X0014545Y0044490D01*
X0014604Y0044624D01*
X0014668Y0044756D01*
X0014735Y0044886D01*
X0014805Y0045015D01*
X0014879Y0045142D01*
X0014956Y0045266D01*
X0015037Y0045389D01*
X0015121Y0045509D01*
X0015208Y0045627D01*
X0015298Y0045742D01*
X0015391Y0045855D01*
X0015488Y0045966D01*
X0015587Y0046074D01*
X0015689Y0046179D01*
X0015794Y0046281D01*
X0015902Y0046380D01*
X0016013Y0046477D01*
X0016126Y0046570D01*
X0016241Y0046660D01*
X0016359Y0046747D01*
X0016479Y0046831D01*
X0016602Y0046912D01*
X0016726Y0046989D01*
X0016853Y0047063D01*
X0016982Y0047133D01*
X0017112Y0047200D01*
X0017244Y0047264D01*
X0017378Y0047323D01*
X0017513Y0047380D01*
X0017650Y0047432D01*
X0017789Y0047481D01*
X0017928Y0047526D01*
X0018069Y0047567D01*
X0018211Y0047604D01*
X0018353Y0047637D01*
X0018497Y0047667D01*
X0018641Y0047693D01*
X0018786Y0047714D01*
X0018932Y0047732D01*
X0019078Y0047746D01*
X0019224Y0047756D01*
X0019370Y0047762D01*
X0019517Y0047764D01*
X0019664Y0047762D01*
X0019810Y0047756D01*
X0019956Y0047746D01*
X0020102Y0047732D01*
X0020248Y0047714D01*
X0020393Y0047693D01*
X0020537Y0047667D01*
X0020681Y0047637D01*
X0020823Y0047604D01*
X0020965Y0047567D01*
X0021106Y0047526D01*
X0021245Y0047481D01*
X0021384Y0047432D01*
X0021521Y0047380D01*
X0021656Y0047323D01*
X0021790Y0047264D01*
X0021922Y0047200D01*
X0022052Y0047133D01*
X0022181Y0047063D01*
X0022308Y0046989D01*
X0022432Y0046912D01*
X0022555Y0046831D01*
X0022675Y0046747D01*
X0022793Y0046660D01*
X0022908Y0046570D01*
X0023021Y0046477D01*
X0023132Y0046380D01*
X0023240Y0046281D01*
X0023345Y0046179D01*
X0023447Y0046074D01*
X0023546Y0045966D01*
X0023643Y0045855D01*
X0023736Y0045742D01*
X0023826Y0045627D01*
X0023913Y0045509D01*
X0023997Y0045389D01*
X0024078Y0045266D01*
X0024155Y0045142D01*
X0024229Y0045015D01*
X0024299Y0044886D01*
X0024366Y0044756D01*
X0024430Y0044624D01*
X0024489Y0044490D01*
X0024546Y0044355D01*
X0024598Y0044218D01*
X0024647Y0044079D01*
X0024692Y0043940D01*
X0024733Y0043799D01*
X0024770Y0043657D01*
X0024803Y0043515D01*
X0024833Y0043371D01*
X0024859Y0043227D01*
X0024880Y0043082D01*
X0024898Y0042936D01*
X0024912Y0042790D01*
X0024922Y0042644D01*
X0024928Y0042498D01*
X0024930Y0042351D01*
X0024928Y0042204D01*
X0024922Y0042058D01*
X0024912Y0041912D01*
X0024898Y0041766D01*
X0024880Y0041620D01*
X0024859Y0041475D01*
X0024833Y0041331D01*
X0024803Y0041187D01*
X0024770Y0041045D01*
X0024733Y0040903D01*
X0024692Y0040762D01*
X0024647Y0040623D01*
X0024598Y0040484D01*
X0024546Y0040347D01*
X0024489Y0040212D01*
X0024430Y0040078D01*
X0024366Y0039946D01*
X0024299Y0039816D01*
X0024229Y0039687D01*
X0024155Y0039560D01*
X0024078Y0039436D01*
X0023997Y0039313D01*
X0023913Y0039193D01*
X0023826Y0039075D01*
X0023736Y0038960D01*
X0023643Y0038847D01*
X0023546Y0038736D01*
X0023447Y0038628D01*
X0023345Y0038523D01*
X0023240Y0038421D01*
X0023132Y0038322D01*
X0023021Y0038225D01*
X0022908Y0038132D01*
X0022793Y0038042D01*
X0022675Y0037955D01*
X0022555Y0037871D01*
X0022432Y0037790D01*
X0022308Y0037713D01*
X0022181Y0037639D01*
X0022052Y0037569D01*
X0021922Y0037502D01*
X0021790Y0037438D01*
X0021656Y0037379D01*
X0021521Y0037322D01*
X0021384Y0037270D01*
X0021245Y0037221D01*
X0021106Y0037176D01*
X0020965Y0037135D01*
X0020823Y0037098D01*
X0020681Y0037065D01*
X0020537Y0037035D01*
X0020393Y0037009D01*
X0020248Y0036988D01*
X0020102Y0036970D01*
X0019956Y0036956D01*
X0019810Y0036946D01*
X0019664Y0036940D01*
X0019517Y0036938D01*
X0019370Y0036940D01*
X0019224Y0036946D01*
X0019078Y0036956D01*
X0018932Y0036970D01*
X0018786Y0036988D01*
X0018641Y0037009D01*
X0018497Y0037035D01*
X0018353Y0037065D01*
X0018211Y0037098D01*
X0018069Y0037135D01*
X0017928Y0037176D01*
X0017789Y0037221D01*
X0017650Y0037270D01*
X0017513Y0037322D01*
X0017378Y0037379D01*
X0017244Y0037438D01*
X0017112Y0037502D01*
X0016982Y0037569D01*
X0016853Y0037639D01*
X0016726Y0037713D01*
X0016602Y0037790D01*
X0016479Y0037871D01*
X0016359Y0037955D01*
X0016241Y0038042D01*
X0016126Y0038132D01*
X0016013Y0038225D01*
X0015902Y0038322D01*
X0015794Y0038421D01*
X0015689Y0038523D01*
X0015587Y0038628D01*
X0015488Y0038736D01*
X0015391Y0038847D01*
X0015298Y0038960D01*
X0015208Y0039075D01*
X0015121Y0039193D01*
X0015037Y0039313D01*
X0014956Y0039436D01*
X0014879Y0039560D01*
X0014805Y0039687D01*
X0014735Y0039816D01*
X0014668Y0039946D01*
X0014604Y0040078D01*
X0014545Y0040212D01*
X0014488Y0040347D01*
X0014436Y0040484D01*
X0014387Y0040623D01*
X0014342Y0040762D01*
X0014301Y0040903D01*
X0014264Y0041045D01*
X0014231Y0041187D01*
X0014201Y0041331D01*
X0014175Y0041475D01*
X0014154Y0041620D01*
X0014136Y0041766D01*
X0014122Y0041912D01*
X0014112Y0042058D01*
X0014106Y0042204D01*
X0014104Y0042351D01*
X0014104Y0235265D02*
X0014106Y0235412D01*
X0014112Y0235558D01*
X0014122Y0235704D01*
X0014136Y0235850D01*
X0014154Y0235996D01*
X0014175Y0236141D01*
X0014201Y0236285D01*
X0014231Y0236429D01*
X0014264Y0236571D01*
X0014301Y0236713D01*
X0014342Y0236854D01*
X0014387Y0236993D01*
X0014436Y0237132D01*
X0014488Y0237269D01*
X0014545Y0237404D01*
X0014604Y0237538D01*
X0014668Y0237670D01*
X0014735Y0237800D01*
X0014805Y0237929D01*
X0014879Y0238056D01*
X0014956Y0238180D01*
X0015037Y0238303D01*
X0015121Y0238423D01*
X0015208Y0238541D01*
X0015298Y0238656D01*
X0015391Y0238769D01*
X0015488Y0238880D01*
X0015587Y0238988D01*
X0015689Y0239093D01*
X0015794Y0239195D01*
X0015902Y0239294D01*
X0016013Y0239391D01*
X0016126Y0239484D01*
X0016241Y0239574D01*
X0016359Y0239661D01*
X0016479Y0239745D01*
X0016602Y0239826D01*
X0016726Y0239903D01*
X0016853Y0239977D01*
X0016982Y0240047D01*
X0017112Y0240114D01*
X0017244Y0240178D01*
X0017378Y0240237D01*
X0017513Y0240294D01*
X0017650Y0240346D01*
X0017789Y0240395D01*
X0017928Y0240440D01*
X0018069Y0240481D01*
X0018211Y0240518D01*
X0018353Y0240551D01*
X0018497Y0240581D01*
X0018641Y0240607D01*
X0018786Y0240628D01*
X0018932Y0240646D01*
X0019078Y0240660D01*
X0019224Y0240670D01*
X0019370Y0240676D01*
X0019517Y0240678D01*
X0019664Y0240676D01*
X0019810Y0240670D01*
X0019956Y0240660D01*
X0020102Y0240646D01*
X0020248Y0240628D01*
X0020393Y0240607D01*
X0020537Y0240581D01*
X0020681Y0240551D01*
X0020823Y0240518D01*
X0020965Y0240481D01*
X0021106Y0240440D01*
X0021245Y0240395D01*
X0021384Y0240346D01*
X0021521Y0240294D01*
X0021656Y0240237D01*
X0021790Y0240178D01*
X0021922Y0240114D01*
X0022052Y0240047D01*
X0022181Y0239977D01*
X0022308Y0239903D01*
X0022432Y0239826D01*
X0022555Y0239745D01*
X0022675Y0239661D01*
X0022793Y0239574D01*
X0022908Y0239484D01*
X0023021Y0239391D01*
X0023132Y0239294D01*
X0023240Y0239195D01*
X0023345Y0239093D01*
X0023447Y0238988D01*
X0023546Y0238880D01*
X0023643Y0238769D01*
X0023736Y0238656D01*
X0023826Y0238541D01*
X0023913Y0238423D01*
X0023997Y0238303D01*
X0024078Y0238180D01*
X0024155Y0238056D01*
X0024229Y0237929D01*
X0024299Y0237800D01*
X0024366Y0237670D01*
X0024430Y0237538D01*
X0024489Y0237404D01*
X0024546Y0237269D01*
X0024598Y0237132D01*
X0024647Y0236993D01*
X0024692Y0236854D01*
X0024733Y0236713D01*
X0024770Y0236571D01*
X0024803Y0236429D01*
X0024833Y0236285D01*
X0024859Y0236141D01*
X0024880Y0235996D01*
X0024898Y0235850D01*
X0024912Y0235704D01*
X0024922Y0235558D01*
X0024928Y0235412D01*
X0024930Y0235265D01*
X0024928Y0235118D01*
X0024922Y0234972D01*
X0024912Y0234826D01*
X0024898Y0234680D01*
X0024880Y0234534D01*
X0024859Y0234389D01*
X0024833Y0234245D01*
X0024803Y0234101D01*
X0024770Y0233959D01*
X0024733Y0233817D01*
X0024692Y0233676D01*
X0024647Y0233537D01*
X0024598Y0233398D01*
X0024546Y0233261D01*
X0024489Y0233126D01*
X0024430Y0232992D01*
X0024366Y0232860D01*
X0024299Y0232730D01*
X0024229Y0232601D01*
X0024155Y0232474D01*
X0024078Y0232350D01*
X0023997Y0232227D01*
X0023913Y0232107D01*
X0023826Y0231989D01*
X0023736Y0231874D01*
X0023643Y0231761D01*
X0023546Y0231650D01*
X0023447Y0231542D01*
X0023345Y0231437D01*
X0023240Y0231335D01*
X0023132Y0231236D01*
X0023021Y0231139D01*
X0022908Y0231046D01*
X0022793Y0230956D01*
X0022675Y0230869D01*
X0022555Y0230785D01*
X0022432Y0230704D01*
X0022308Y0230627D01*
X0022181Y0230553D01*
X0022052Y0230483D01*
X0021922Y0230416D01*
X0021790Y0230352D01*
X0021656Y0230293D01*
X0021521Y0230236D01*
X0021384Y0230184D01*
X0021245Y0230135D01*
X0021106Y0230090D01*
X0020965Y0230049D01*
X0020823Y0230012D01*
X0020681Y0229979D01*
X0020537Y0229949D01*
X0020393Y0229923D01*
X0020248Y0229902D01*
X0020102Y0229884D01*
X0019956Y0229870D01*
X0019810Y0229860D01*
X0019664Y0229854D01*
X0019517Y0229852D01*
X0019370Y0229854D01*
X0019224Y0229860D01*
X0019078Y0229870D01*
X0018932Y0229884D01*
X0018786Y0229902D01*
X0018641Y0229923D01*
X0018497Y0229949D01*
X0018353Y0229979D01*
X0018211Y0230012D01*
X0018069Y0230049D01*
X0017928Y0230090D01*
X0017789Y0230135D01*
X0017650Y0230184D01*
X0017513Y0230236D01*
X0017378Y0230293D01*
X0017244Y0230352D01*
X0017112Y0230416D01*
X0016982Y0230483D01*
X0016853Y0230553D01*
X0016726Y0230627D01*
X0016602Y0230704D01*
X0016479Y0230785D01*
X0016359Y0230869D01*
X0016241Y0230956D01*
X0016126Y0231046D01*
X0016013Y0231139D01*
X0015902Y0231236D01*
X0015794Y0231335D01*
X0015689Y0231437D01*
X0015587Y0231542D01*
X0015488Y0231650D01*
X0015391Y0231761D01*
X0015298Y0231874D01*
X0015208Y0231989D01*
X0015121Y0232107D01*
X0015037Y0232227D01*
X0014956Y0232350D01*
X0014879Y0232474D01*
X0014805Y0232601D01*
X0014735Y0232730D01*
X0014668Y0232860D01*
X0014604Y0232992D01*
X0014545Y0233126D01*
X0014488Y0233261D01*
X0014436Y0233398D01*
X0014387Y0233537D01*
X0014342Y0233676D01*
X0014301Y0233817D01*
X0014264Y0233959D01*
X0014231Y0234101D01*
X0014201Y0234245D01*
X0014175Y0234389D01*
X0014154Y0234534D01*
X0014136Y0234680D01*
X0014122Y0234826D01*
X0014112Y0234972D01*
X0014106Y0235118D01*
X0014104Y0235265D01*
X0242351Y0235265D02*
X0242353Y0235413D01*
X0242359Y0235561D01*
X0242369Y0235709D01*
X0242383Y0235856D01*
X0242401Y0236003D01*
X0242422Y0236149D01*
X0242448Y0236295D01*
X0242478Y0236440D01*
X0242511Y0236584D01*
X0242549Y0236727D01*
X0242590Y0236869D01*
X0242635Y0237010D01*
X0242683Y0237150D01*
X0242736Y0237289D01*
X0242792Y0237426D01*
X0242852Y0237561D01*
X0242915Y0237695D01*
X0242982Y0237827D01*
X0243053Y0237957D01*
X0243127Y0238085D01*
X0243204Y0238211D01*
X0243285Y0238335D01*
X0243369Y0238457D01*
X0243456Y0238576D01*
X0243547Y0238693D01*
X0243641Y0238808D01*
X0243737Y0238920D01*
X0243837Y0239030D01*
X0243939Y0239136D01*
X0244045Y0239240D01*
X0244153Y0239341D01*
X0244264Y0239439D01*
X0244377Y0239535D01*
X0244493Y0239627D01*
X0244611Y0239716D01*
X0244732Y0239801D01*
X0244855Y0239884D01*
X0244980Y0239963D01*
X0245107Y0240039D01*
X0245236Y0240111D01*
X0245367Y0240180D01*
X0245500Y0240245D01*
X0245635Y0240306D01*
X0245771Y0240364D01*
X0245908Y0240419D01*
X0246047Y0240469D01*
X0246188Y0240516D01*
X0246329Y0240559D01*
X0246472Y0240599D01*
X0246616Y0240634D01*
X0246760Y0240666D01*
X0246906Y0240693D01*
X0247052Y0240717D01*
X0247199Y0240737D01*
X0247346Y0240753D01*
X0247493Y0240765D01*
X0247641Y0240773D01*
X0247789Y0240777D01*
X0247937Y0240777D01*
X0248085Y0240773D01*
X0248233Y0240765D01*
X0248380Y0240753D01*
X0248527Y0240737D01*
X0248674Y0240717D01*
X0248820Y0240693D01*
X0248966Y0240666D01*
X0249110Y0240634D01*
X0249254Y0240599D01*
X0249397Y0240559D01*
X0249538Y0240516D01*
X0249679Y0240469D01*
X0249818Y0240419D01*
X0249955Y0240364D01*
X0250091Y0240306D01*
X0250226Y0240245D01*
X0250359Y0240180D01*
X0250490Y0240111D01*
X0250619Y0240039D01*
X0250746Y0239963D01*
X0250871Y0239884D01*
X0250994Y0239801D01*
X0251115Y0239716D01*
X0251233Y0239627D01*
X0251349Y0239535D01*
X0251462Y0239439D01*
X0251573Y0239341D01*
X0251681Y0239240D01*
X0251787Y0239136D01*
X0251889Y0239030D01*
X0251989Y0238920D01*
X0252085Y0238808D01*
X0252179Y0238693D01*
X0252270Y0238576D01*
X0252357Y0238457D01*
X0252441Y0238335D01*
X0252522Y0238211D01*
X0252599Y0238085D01*
X0252673Y0237957D01*
X0252744Y0237827D01*
X0252811Y0237695D01*
X0252874Y0237561D01*
X0252934Y0237426D01*
X0252990Y0237289D01*
X0253043Y0237150D01*
X0253091Y0237010D01*
X0253136Y0236869D01*
X0253177Y0236727D01*
X0253215Y0236584D01*
X0253248Y0236440D01*
X0253278Y0236295D01*
X0253304Y0236149D01*
X0253325Y0236003D01*
X0253343Y0235856D01*
X0253357Y0235709D01*
X0253367Y0235561D01*
X0253373Y0235413D01*
X0253375Y0235265D01*
X0253373Y0235117D01*
X0253367Y0234969D01*
X0253357Y0234821D01*
X0253343Y0234674D01*
X0253325Y0234527D01*
X0253304Y0234381D01*
X0253278Y0234235D01*
X0253248Y0234090D01*
X0253215Y0233946D01*
X0253177Y0233803D01*
X0253136Y0233661D01*
X0253091Y0233520D01*
X0253043Y0233380D01*
X0252990Y0233241D01*
X0252934Y0233104D01*
X0252874Y0232969D01*
X0252811Y0232835D01*
X0252744Y0232703D01*
X0252673Y0232573D01*
X0252599Y0232445D01*
X0252522Y0232319D01*
X0252441Y0232195D01*
X0252357Y0232073D01*
X0252270Y0231954D01*
X0252179Y0231837D01*
X0252085Y0231722D01*
X0251989Y0231610D01*
X0251889Y0231500D01*
X0251787Y0231394D01*
X0251681Y0231290D01*
X0251573Y0231189D01*
X0251462Y0231091D01*
X0251349Y0230995D01*
X0251233Y0230903D01*
X0251115Y0230814D01*
X0250994Y0230729D01*
X0250871Y0230646D01*
X0250746Y0230567D01*
X0250619Y0230491D01*
X0250490Y0230419D01*
X0250359Y0230350D01*
X0250226Y0230285D01*
X0250091Y0230224D01*
X0249955Y0230166D01*
X0249818Y0230111D01*
X0249679Y0230061D01*
X0249538Y0230014D01*
X0249397Y0229971D01*
X0249254Y0229931D01*
X0249110Y0229896D01*
X0248966Y0229864D01*
X0248820Y0229837D01*
X0248674Y0229813D01*
X0248527Y0229793D01*
X0248380Y0229777D01*
X0248233Y0229765D01*
X0248085Y0229757D01*
X0247937Y0229753D01*
X0247789Y0229753D01*
X0247641Y0229757D01*
X0247493Y0229765D01*
X0247346Y0229777D01*
X0247199Y0229793D01*
X0247052Y0229813D01*
X0246906Y0229837D01*
X0246760Y0229864D01*
X0246616Y0229896D01*
X0246472Y0229931D01*
X0246329Y0229971D01*
X0246188Y0230014D01*
X0246047Y0230061D01*
X0245908Y0230111D01*
X0245771Y0230166D01*
X0245635Y0230224D01*
X0245500Y0230285D01*
X0245367Y0230350D01*
X0245236Y0230419D01*
X0245107Y0230491D01*
X0244980Y0230567D01*
X0244855Y0230646D01*
X0244732Y0230729D01*
X0244611Y0230814D01*
X0244493Y0230903D01*
X0244377Y0230995D01*
X0244264Y0231091D01*
X0244153Y0231189D01*
X0244045Y0231290D01*
X0243939Y0231394D01*
X0243837Y0231500D01*
X0243737Y0231610D01*
X0243641Y0231722D01*
X0243547Y0231837D01*
X0243456Y0231954D01*
X0243369Y0232073D01*
X0243285Y0232195D01*
X0243204Y0232319D01*
X0243127Y0232445D01*
X0243053Y0232573D01*
X0242982Y0232703D01*
X0242915Y0232835D01*
X0242852Y0232969D01*
X0242792Y0233104D01*
X0242736Y0233241D01*
X0242683Y0233380D01*
X0242635Y0233520D01*
X0242590Y0233661D01*
X0242549Y0233803D01*
X0242511Y0233946D01*
X0242478Y0234090D01*
X0242448Y0234235D01*
X0242422Y0234381D01*
X0242401Y0234527D01*
X0242383Y0234674D01*
X0242369Y0234821D01*
X0242359Y0234969D01*
X0242353Y0235117D01*
X0242351Y0235265D01*
X0242351Y0042351D02*
X0242353Y0042499D01*
X0242359Y0042647D01*
X0242369Y0042795D01*
X0242383Y0042942D01*
X0242401Y0043089D01*
X0242422Y0043235D01*
X0242448Y0043381D01*
X0242478Y0043526D01*
X0242511Y0043670D01*
X0242549Y0043813D01*
X0242590Y0043955D01*
X0242635Y0044096D01*
X0242683Y0044236D01*
X0242736Y0044375D01*
X0242792Y0044512D01*
X0242852Y0044647D01*
X0242915Y0044781D01*
X0242982Y0044913D01*
X0243053Y0045043D01*
X0243127Y0045171D01*
X0243204Y0045297D01*
X0243285Y0045421D01*
X0243369Y0045543D01*
X0243456Y0045662D01*
X0243547Y0045779D01*
X0243641Y0045894D01*
X0243737Y0046006D01*
X0243837Y0046116D01*
X0243939Y0046222D01*
X0244045Y0046326D01*
X0244153Y0046427D01*
X0244264Y0046525D01*
X0244377Y0046621D01*
X0244493Y0046713D01*
X0244611Y0046802D01*
X0244732Y0046887D01*
X0244855Y0046970D01*
X0244980Y0047049D01*
X0245107Y0047125D01*
X0245236Y0047197D01*
X0245367Y0047266D01*
X0245500Y0047331D01*
X0245635Y0047392D01*
X0245771Y0047450D01*
X0245908Y0047505D01*
X0246047Y0047555D01*
X0246188Y0047602D01*
X0246329Y0047645D01*
X0246472Y0047685D01*
X0246616Y0047720D01*
X0246760Y0047752D01*
X0246906Y0047779D01*
X0247052Y0047803D01*
X0247199Y0047823D01*
X0247346Y0047839D01*
X0247493Y0047851D01*
X0247641Y0047859D01*
X0247789Y0047863D01*
X0247937Y0047863D01*
X0248085Y0047859D01*
X0248233Y0047851D01*
X0248380Y0047839D01*
X0248527Y0047823D01*
X0248674Y0047803D01*
X0248820Y0047779D01*
X0248966Y0047752D01*
X0249110Y0047720D01*
X0249254Y0047685D01*
X0249397Y0047645D01*
X0249538Y0047602D01*
X0249679Y0047555D01*
X0249818Y0047505D01*
X0249955Y0047450D01*
X0250091Y0047392D01*
X0250226Y0047331D01*
X0250359Y0047266D01*
X0250490Y0047197D01*
X0250619Y0047125D01*
X0250746Y0047049D01*
X0250871Y0046970D01*
X0250994Y0046887D01*
X0251115Y0046802D01*
X0251233Y0046713D01*
X0251349Y0046621D01*
X0251462Y0046525D01*
X0251573Y0046427D01*
X0251681Y0046326D01*
X0251787Y0046222D01*
X0251889Y0046116D01*
X0251989Y0046006D01*
X0252085Y0045894D01*
X0252179Y0045779D01*
X0252270Y0045662D01*
X0252357Y0045543D01*
X0252441Y0045421D01*
X0252522Y0045297D01*
X0252599Y0045171D01*
X0252673Y0045043D01*
X0252744Y0044913D01*
X0252811Y0044781D01*
X0252874Y0044647D01*
X0252934Y0044512D01*
X0252990Y0044375D01*
X0253043Y0044236D01*
X0253091Y0044096D01*
X0253136Y0043955D01*
X0253177Y0043813D01*
X0253215Y0043670D01*
X0253248Y0043526D01*
X0253278Y0043381D01*
X0253304Y0043235D01*
X0253325Y0043089D01*
X0253343Y0042942D01*
X0253357Y0042795D01*
X0253367Y0042647D01*
X0253373Y0042499D01*
X0253375Y0042351D01*
X0253373Y0042203D01*
X0253367Y0042055D01*
X0253357Y0041907D01*
X0253343Y0041760D01*
X0253325Y0041613D01*
X0253304Y0041467D01*
X0253278Y0041321D01*
X0253248Y0041176D01*
X0253215Y0041032D01*
X0253177Y0040889D01*
X0253136Y0040747D01*
X0253091Y0040606D01*
X0253043Y0040466D01*
X0252990Y0040327D01*
X0252934Y0040190D01*
X0252874Y0040055D01*
X0252811Y0039921D01*
X0252744Y0039789D01*
X0252673Y0039659D01*
X0252599Y0039531D01*
X0252522Y0039405D01*
X0252441Y0039281D01*
X0252357Y0039159D01*
X0252270Y0039040D01*
X0252179Y0038923D01*
X0252085Y0038808D01*
X0251989Y0038696D01*
X0251889Y0038586D01*
X0251787Y0038480D01*
X0251681Y0038376D01*
X0251573Y0038275D01*
X0251462Y0038177D01*
X0251349Y0038081D01*
X0251233Y0037989D01*
X0251115Y0037900D01*
X0250994Y0037815D01*
X0250871Y0037732D01*
X0250746Y0037653D01*
X0250619Y0037577D01*
X0250490Y0037505D01*
X0250359Y0037436D01*
X0250226Y0037371D01*
X0250091Y0037310D01*
X0249955Y0037252D01*
X0249818Y0037197D01*
X0249679Y0037147D01*
X0249538Y0037100D01*
X0249397Y0037057D01*
X0249254Y0037017D01*
X0249110Y0036982D01*
X0248966Y0036950D01*
X0248820Y0036923D01*
X0248674Y0036899D01*
X0248527Y0036879D01*
X0248380Y0036863D01*
X0248233Y0036851D01*
X0248085Y0036843D01*
X0247937Y0036839D01*
X0247789Y0036839D01*
X0247641Y0036843D01*
X0247493Y0036851D01*
X0247346Y0036863D01*
X0247199Y0036879D01*
X0247052Y0036899D01*
X0246906Y0036923D01*
X0246760Y0036950D01*
X0246616Y0036982D01*
X0246472Y0037017D01*
X0246329Y0037057D01*
X0246188Y0037100D01*
X0246047Y0037147D01*
X0245908Y0037197D01*
X0245771Y0037252D01*
X0245635Y0037310D01*
X0245500Y0037371D01*
X0245367Y0037436D01*
X0245236Y0037505D01*
X0245107Y0037577D01*
X0244980Y0037653D01*
X0244855Y0037732D01*
X0244732Y0037815D01*
X0244611Y0037900D01*
X0244493Y0037989D01*
X0244377Y0038081D01*
X0244264Y0038177D01*
X0244153Y0038275D01*
X0244045Y0038376D01*
X0243939Y0038480D01*
X0243837Y0038586D01*
X0243737Y0038696D01*
X0243641Y0038808D01*
X0243547Y0038923D01*
X0243456Y0039040D01*
X0243369Y0039159D01*
X0243285Y0039281D01*
X0243204Y0039405D01*
X0243127Y0039531D01*
X0243053Y0039659D01*
X0242982Y0039789D01*
X0242915Y0039921D01*
X0242852Y0040055D01*
X0242792Y0040190D01*
X0242736Y0040327D01*
X0242683Y0040466D01*
X0242635Y0040606D01*
X0242590Y0040747D01*
X0242549Y0040889D01*
X0242511Y0041032D01*
X0242478Y0041176D01*
X0242448Y0041321D01*
X0242422Y0041467D01*
X0242401Y0041613D01*
X0242383Y0041760D01*
X0242369Y0041907D01*
X0242359Y0042055D01*
X0242353Y0042203D01*
X0242351Y0042351D01*
D11*
X0199871Y0043196D02*
X0198237Y0041561D01*
X0196602Y0043196D01*
X0196602Y0046465D01*
X0194715Y0045648D02*
X0194715Y0042378D01*
X0191445Y0045648D01*
X0191445Y0042378D01*
X0192263Y0041561D01*
X0193898Y0041561D01*
X0194715Y0042378D01*
X0194715Y0045648D02*
X0193898Y0046465D01*
X0192263Y0046465D01*
X0191445Y0045648D01*
X0189559Y0042378D02*
X0188741Y0042378D01*
X0188741Y0041561D01*
X0189559Y0041561D01*
X0189559Y0042378D01*
X0186980Y0042378D02*
X0186980Y0041561D01*
X0186980Y0042378D02*
X0183711Y0045648D01*
X0183711Y0046465D01*
X0186980Y0046465D01*
X0181007Y0042378D02*
X0181007Y0041561D01*
X0180189Y0041561D01*
X0180189Y0042378D01*
X0181007Y0042378D01*
X0180189Y0041561D02*
X0181824Y0039926D01*
X0173230Y0043196D02*
X0173230Y0044830D01*
X0171595Y0046465D01*
X0169792Y0045648D02*
X0169792Y0042378D01*
X0168975Y0041561D01*
X0167340Y0041561D01*
X0166523Y0042378D01*
X0164636Y0041561D02*
X0163001Y0043196D01*
X0163001Y0044830D01*
X0164636Y0046465D01*
X0166523Y0045648D02*
X0167340Y0046465D01*
X0168975Y0046465D01*
X0169792Y0045648D01*
X0173230Y0043196D02*
X0171595Y0041561D01*
X0162487Y0038065D02*
X0162487Y0033161D01*
X0162487Y0034796D02*
X0160035Y0034796D01*
X0159218Y0035613D01*
X0159218Y0037248D01*
X0160035Y0038065D01*
X0162487Y0038065D01*
X0160853Y0034796D02*
X0159218Y0033161D01*
X0155696Y0033161D02*
X0155696Y0038065D01*
X0154062Y0038065D02*
X0157331Y0038065D01*
X0156042Y0041561D02*
X0156042Y0046465D01*
X0153590Y0046465D01*
X0152773Y0045648D01*
X0152773Y0044013D01*
X0153590Y0043196D01*
X0156042Y0043196D01*
X0154407Y0043196D02*
X0152773Y0041561D01*
X0150886Y0042378D02*
X0150068Y0041561D01*
X0147616Y0041561D01*
X0147616Y0040744D02*
X0148433Y0039926D01*
X0149251Y0039926D01*
X0147616Y0040744D02*
X0147616Y0044830D01*
X0144912Y0044830D02*
X0143277Y0044830D01*
X0142460Y0044013D01*
X0142460Y0041561D01*
X0144912Y0041561D01*
X0145729Y0042378D01*
X0144912Y0043196D01*
X0142460Y0043196D01*
X0140573Y0041561D02*
X0140573Y0044830D01*
X0138121Y0044830D01*
X0137303Y0044013D01*
X0137303Y0041561D01*
X0134599Y0042378D02*
X0133782Y0041561D01*
X0134599Y0042378D02*
X0134599Y0045648D01*
X0135416Y0044830D02*
X0133782Y0044830D01*
X0131979Y0044013D02*
X0131161Y0044830D01*
X0129527Y0044830D01*
X0128709Y0044013D01*
X0128709Y0043196D01*
X0131979Y0043196D01*
X0131979Y0044013D02*
X0131979Y0042378D01*
X0131161Y0041561D01*
X0129527Y0041561D01*
X0126822Y0042378D02*
X0126005Y0041561D01*
X0123553Y0041561D01*
X0121666Y0041561D02*
X0121666Y0046465D01*
X0123553Y0044830D02*
X0126005Y0044830D01*
X0126822Y0044013D01*
X0126822Y0042378D01*
X0129097Y0038065D02*
X0128280Y0037248D01*
X0131549Y0033978D01*
X0130732Y0033161D01*
X0129097Y0033161D01*
X0128280Y0033978D01*
X0128280Y0037248D01*
X0129097Y0038065D02*
X0130732Y0038065D01*
X0131549Y0037248D01*
X0131549Y0033978D01*
X0133436Y0033978D02*
X0134253Y0033161D01*
X0135888Y0033161D01*
X0136705Y0033978D01*
X0133436Y0037248D01*
X0133436Y0033978D01*
X0136705Y0033978D02*
X0136705Y0037248D01*
X0135888Y0038065D01*
X0134253Y0038065D01*
X0133436Y0037248D01*
X0138592Y0037248D02*
X0138592Y0033978D01*
X0139410Y0033161D01*
X0141044Y0033161D01*
X0141862Y0033978D01*
X0138592Y0037248D01*
X0139410Y0038065D01*
X0141044Y0038065D01*
X0141862Y0037248D01*
X0141862Y0033978D01*
X0143749Y0035613D02*
X0147018Y0035613D01*
X0148905Y0033161D02*
X0151357Y0035613D01*
X0152175Y0034796D02*
X0148905Y0038065D01*
X0152175Y0038065D02*
X0152175Y0033161D01*
X0150886Y0042378D02*
X0150886Y0044830D01*
X0150498Y0049961D02*
X0148046Y0049961D01*
X0148046Y0054865D01*
X0148046Y0053230D02*
X0150498Y0053230D01*
X0151315Y0052413D01*
X0151315Y0050778D01*
X0150498Y0049961D01*
X0153202Y0049961D02*
X0153202Y0052413D01*
X0154020Y0053230D01*
X0155654Y0053230D01*
X0155654Y0051596D02*
X0153202Y0051596D01*
X0153202Y0049961D02*
X0155654Y0049961D01*
X0156472Y0050778D01*
X0155654Y0051596D01*
X0158359Y0049961D02*
X0158359Y0054865D01*
X0159993Y0053230D01*
X0161628Y0054865D01*
X0161628Y0049961D01*
X0157415Y0056726D02*
X0156598Y0056726D01*
X0155780Y0057544D01*
X0155780Y0061630D01*
X0158232Y0061630D01*
X0159050Y0060813D01*
X0159050Y0059178D01*
X0158232Y0058361D01*
X0155780Y0058361D01*
X0153893Y0058361D02*
X0153893Y0061630D01*
X0151441Y0061630D01*
X0150624Y0060813D01*
X0150624Y0058361D01*
X0148737Y0059178D02*
X0148737Y0060813D01*
X0147920Y0061630D01*
X0146285Y0061630D01*
X0145468Y0060813D01*
X0145468Y0059996D01*
X0148737Y0059996D01*
X0148737Y0059178D02*
X0147920Y0058361D01*
X0146285Y0058361D01*
X0143581Y0059178D02*
X0143581Y0060813D01*
X0142763Y0061630D01*
X0140311Y0061630D01*
X0140311Y0063265D02*
X0140311Y0058361D01*
X0142763Y0058361D01*
X0143581Y0059178D01*
X0143707Y0053230D02*
X0142889Y0052413D01*
X0142889Y0051596D01*
X0146159Y0051596D01*
X0146159Y0052413D02*
X0145341Y0053230D01*
X0143707Y0053230D01*
X0146159Y0052413D02*
X0146159Y0050778D01*
X0145341Y0049961D01*
X0143707Y0049961D01*
X0135846Y0049961D02*
X0134211Y0049961D01*
X0135029Y0049961D02*
X0135029Y0053230D01*
X0135846Y0053230D01*
X0135029Y0054865D02*
X0135029Y0055683D01*
X0133268Y0058361D02*
X0131633Y0058361D01*
X0132450Y0058361D02*
X0132450Y0061630D01*
X0133268Y0061630D01*
X0132450Y0063265D02*
X0132450Y0064083D01*
X0129830Y0061630D02*
X0127378Y0061630D01*
X0126561Y0060813D01*
X0126561Y0058361D01*
X0129830Y0058361D02*
X0129830Y0061630D01*
X0129956Y0053230D02*
X0129139Y0052413D01*
X0129139Y0049961D01*
X0132408Y0049961D02*
X0132408Y0053230D01*
X0129956Y0053230D01*
X0122096Y0051596D02*
X0119644Y0051596D01*
X0118826Y0052413D01*
X0118826Y0054048D01*
X0119644Y0054865D01*
X0122096Y0054865D01*
X0122096Y0049961D01*
X0119214Y0044830D02*
X0121666Y0043196D01*
X0119214Y0041561D01*
X0118784Y0038065D02*
X0117967Y0037248D01*
X0121236Y0033978D01*
X0120419Y0033161D01*
X0118784Y0033161D01*
X0117967Y0033978D01*
X0117967Y0037248D01*
X0118784Y0038065D02*
X0120419Y0038065D01*
X0121236Y0037248D01*
X0121236Y0033978D01*
X0123123Y0035613D02*
X0126393Y0035613D01*
X0116080Y0033978D02*
X0112810Y0037248D01*
X0112810Y0033978D01*
X0113628Y0033161D01*
X0115262Y0033161D01*
X0116080Y0033978D01*
X0116080Y0037248D01*
X0115262Y0038065D01*
X0113628Y0038065D01*
X0112810Y0037248D01*
X0110923Y0037248D02*
X0110923Y0033978D01*
X0110106Y0033161D01*
X0108471Y0033161D01*
X0107654Y0033978D01*
X0107654Y0037248D02*
X0108471Y0038065D01*
X0110106Y0038065D01*
X0110923Y0037248D01*
X0112213Y0041561D02*
X0108943Y0041561D01*
X0112213Y0041561D02*
X0112213Y0046465D01*
X0110965Y0049961D02*
X0109331Y0049961D01*
X0108513Y0050778D01*
X0110965Y0049961D02*
X0111783Y0050778D01*
X0111783Y0054048D01*
X0110965Y0054865D01*
X0109331Y0054865D01*
X0108513Y0054048D01*
X0108471Y0058361D02*
X0110106Y0058361D01*
X0110923Y0059178D01*
X0110923Y0060813D01*
X0110106Y0061630D01*
X0108471Y0061630D01*
X0107654Y0060813D01*
X0107654Y0059996D01*
X0110923Y0059996D01*
X0112810Y0060813D02*
X0112810Y0058361D01*
X0112810Y0060813D02*
X0113628Y0061630D01*
X0115262Y0061630D01*
X0116080Y0060813D01*
X0117883Y0061630D02*
X0119517Y0061630D01*
X0118700Y0062448D02*
X0118700Y0059178D01*
X0117883Y0058361D01*
X0116080Y0058361D02*
X0116080Y0063265D01*
X0116939Y0054865D02*
X0114487Y0054865D01*
X0113670Y0054048D01*
X0113670Y0052413D01*
X0114487Y0051596D01*
X0116939Y0051596D01*
X0115305Y0051596D02*
X0113670Y0049961D01*
X0116939Y0049961D02*
X0116939Y0054865D01*
X0107056Y0046465D02*
X0103787Y0046465D01*
X0105421Y0046465D02*
X0105421Y0041561D01*
X0101900Y0041561D02*
X0101900Y0046465D01*
X0099448Y0046465D01*
X0098630Y0045648D01*
X0098630Y0042378D01*
X0099448Y0041561D01*
X0101900Y0041561D01*
X0096743Y0041561D02*
X0095926Y0041561D01*
X0095926Y0042378D01*
X0096743Y0042378D01*
X0096743Y0041561D01*
X0089009Y0041561D02*
X0085739Y0044830D01*
X0085739Y0045648D01*
X0086557Y0046465D01*
X0088191Y0046465D01*
X0089009Y0045648D01*
X0089009Y0041561D02*
X0085739Y0041561D01*
X0083852Y0042378D02*
X0080583Y0045648D01*
X0080583Y0042378D01*
X0081400Y0041561D01*
X0083035Y0041561D01*
X0083852Y0042378D01*
X0083852Y0045648D01*
X0083035Y0046465D01*
X0081400Y0046465D01*
X0080583Y0045648D01*
X0078696Y0044830D02*
X0077061Y0046465D01*
X0077061Y0041561D01*
X0075427Y0041561D02*
X0078696Y0041561D01*
X0073540Y0042378D02*
X0072722Y0041561D01*
X0071088Y0041561D01*
X0070270Y0042378D01*
X0070270Y0043196D01*
X0071088Y0044013D01*
X0073540Y0044013D01*
X0073540Y0042378D01*
X0073540Y0044013D02*
X0071905Y0045648D01*
X0070270Y0046465D01*
X0092185Y0058361D02*
X0094637Y0060813D01*
X0095454Y0059996D02*
X0092185Y0063265D01*
X0095454Y0063265D02*
X0095454Y0058361D01*
X0097341Y0059178D02*
X0097341Y0063265D01*
X0100611Y0063265D02*
X0100611Y0059178D01*
X0099793Y0058361D01*
X0098159Y0058361D01*
X0097341Y0059178D01*
X0160853Y0058361D02*
X0162487Y0058361D01*
X0161670Y0058361D02*
X0161670Y0061630D01*
X0162487Y0061630D01*
X0161670Y0063265D02*
X0161670Y0064083D01*
X0164374Y0061630D02*
X0166826Y0061630D01*
X0167644Y0060813D01*
X0166826Y0059996D01*
X0165192Y0059996D01*
X0164374Y0059178D01*
X0165192Y0058361D01*
X0167644Y0058361D01*
X0169531Y0059996D02*
X0169531Y0060813D01*
X0170348Y0061630D01*
X0171983Y0061630D01*
X0172800Y0060813D01*
X0172800Y0059178D01*
X0171983Y0058361D01*
X0170348Y0058361D01*
X0169531Y0059996D02*
X0172800Y0059996D01*
X0174687Y0059178D02*
X0174687Y0062448D01*
X0175505Y0063265D01*
X0177957Y0063265D01*
X0177957Y0058361D01*
X0175505Y0058361D01*
X0174687Y0059178D01*
X0199871Y0046465D02*
X0199871Y0043196D01*
D12*
X0208296Y0067154D03*
D13*
X0210382Y0098450D02*
X0211096Y0098441D01*
X0211810Y0098416D01*
X0212523Y0098373D01*
X0213235Y0098313D01*
X0213945Y0098236D01*
X0214088Y0098379D02*
X0214092Y0098404D01*
X0214100Y0098428D01*
X0214111Y0098450D01*
X0214125Y0098471D01*
X0214141Y0098490D01*
X0214161Y0098506D01*
X0214182Y0098519D01*
X0214205Y0098529D01*
X0214229Y0098536D01*
X0214253Y0098540D01*
X0214279Y0098540D01*
X0214303Y0098536D01*
X0214327Y0098529D01*
X0214350Y0098519D01*
X0214371Y0098506D01*
X0214391Y0098490D01*
X0214407Y0098471D01*
X0214421Y0098450D01*
X0214432Y0098428D01*
X0214440Y0098404D01*
X0214444Y0098379D01*
X0214444Y0097951D02*
X0214373Y0097239D01*
X0215655Y0097808D02*
X0215697Y0097786D01*
X0215738Y0097762D01*
X0215777Y0097734D01*
X0215814Y0097703D01*
X0215848Y0097670D01*
X0215880Y0097634D01*
X0215909Y0097596D01*
X0215935Y0097556D01*
X0215958Y0097514D01*
X0215977Y0097471D01*
X0215994Y0097426D01*
X0216007Y0097380D01*
X0216016Y0097333D01*
X0216022Y0097286D01*
X0216025Y0097238D01*
X0216024Y0097190D01*
X0216019Y0097143D01*
X0216011Y0097096D01*
X0215940Y0097096D02*
X0201192Y0097096D01*
X0200978Y0097097D02*
X0200969Y0097132D01*
X0200963Y0097169D01*
X0200961Y0097206D01*
X0200962Y0097243D01*
X0200967Y0097279D01*
X0200975Y0097315D01*
X0200987Y0097350D01*
X0201002Y0097384D01*
X0201020Y0097416D01*
X0201041Y0097447D01*
X0201065Y0097475D01*
X0201092Y0097501D01*
X0201121Y0097524D01*
X0199910Y0096882D02*
X0199912Y0096935D01*
X0199918Y0096988D01*
X0199928Y0097040D01*
X0199942Y0097092D01*
X0199959Y0097142D01*
X0199981Y0097191D01*
X0200005Y0097238D01*
X0200034Y0097283D01*
X0200065Y0097326D01*
X0200100Y0097366D01*
X0200138Y0097404D01*
X0200178Y0097439D01*
X0200221Y0097470D01*
X0200266Y0097499D01*
X0200313Y0097523D01*
X0200362Y0097545D01*
X0200412Y0097562D01*
X0200464Y0097576D01*
X0200516Y0097586D01*
X0200569Y0097592D01*
X0200622Y0097594D01*
X0200675Y0097592D01*
X0200728Y0097586D01*
X0200780Y0097576D01*
X0200832Y0097562D01*
X0200882Y0097545D01*
X0200931Y0097523D01*
X0200978Y0097499D01*
X0201023Y0097470D01*
X0201066Y0097439D01*
X0201106Y0097404D01*
X0201144Y0097366D01*
X0201179Y0097326D01*
X0201210Y0097283D01*
X0201239Y0097238D01*
X0201263Y0097191D01*
X0201285Y0097142D01*
X0201302Y0097092D01*
X0201316Y0097040D01*
X0201326Y0096988D01*
X0201332Y0096935D01*
X0201334Y0096882D01*
X0201332Y0096829D01*
X0201326Y0096776D01*
X0201316Y0096724D01*
X0201302Y0096672D01*
X0201285Y0096622D01*
X0201263Y0096573D01*
X0201239Y0096526D01*
X0201210Y0096481D01*
X0201179Y0096438D01*
X0201144Y0096398D01*
X0201106Y0096360D01*
X0201066Y0096325D01*
X0201023Y0096294D01*
X0200978Y0096265D01*
X0200931Y0096241D01*
X0200882Y0096219D01*
X0200832Y0096202D01*
X0200780Y0096188D01*
X0200728Y0096178D01*
X0200675Y0096172D01*
X0200622Y0096170D01*
X0200569Y0096172D01*
X0200516Y0096178D01*
X0200464Y0096188D01*
X0200412Y0096202D01*
X0200362Y0096219D01*
X0200313Y0096241D01*
X0200266Y0096265D01*
X0200221Y0096294D01*
X0200178Y0096325D01*
X0200138Y0096360D01*
X0200100Y0096398D01*
X0200065Y0096438D01*
X0200034Y0096481D01*
X0200005Y0096526D01*
X0199981Y0096573D01*
X0199959Y0096622D01*
X0199942Y0096672D01*
X0199928Y0096724D01*
X0199918Y0096776D01*
X0199912Y0096829D01*
X0199910Y0096882D01*
X0199838Y0096882D02*
X0199838Y0096811D01*
X0199838Y0096882D02*
X0216795Y0096882D01*
X0216867Y0096882D01*
X0216938Y0096882D01*
X0216867Y0096882D02*
X0216795Y0096882D01*
X0216938Y0096882D02*
X0216965Y0096880D01*
X0216993Y0096875D01*
X0217019Y0096866D01*
X0217044Y0096854D01*
X0217067Y0096838D01*
X0217088Y0096820D01*
X0217107Y0096799D01*
X0217122Y0096776D01*
X0217135Y0096751D01*
X0217144Y0096724D01*
X0217149Y0096697D01*
X0217151Y0096669D01*
X0217152Y0096669D02*
X0217152Y0096526D01*
X0217152Y0096313D01*
X0217150Y0096291D01*
X0217145Y0096269D01*
X0217136Y0096248D01*
X0217125Y0096229D01*
X0217110Y0096212D01*
X0217093Y0096197D01*
X0217074Y0096186D01*
X0217053Y0096177D01*
X0217031Y0096172D01*
X0217009Y0096170D01*
X0215869Y0096170D01*
X0209742Y0096170D01*
X0203899Y0096170D01*
X0200479Y0096170D01*
X0200907Y0096099D02*
X0202902Y0076434D01*
X0202831Y0074796D02*
X0202833Y0074859D01*
X0202839Y0074921D01*
X0202849Y0074983D01*
X0202862Y0075044D01*
X0202880Y0075104D01*
X0202901Y0075163D01*
X0202926Y0075221D01*
X0202954Y0075276D01*
X0202986Y0075330D01*
X0203021Y0075382D01*
X0203060Y0075432D01*
X0203101Y0075478D01*
X0203146Y0075523D01*
X0203192Y0075564D01*
X0203242Y0075603D01*
X0203294Y0075638D01*
X0203348Y0075670D01*
X0203403Y0075698D01*
X0203461Y0075723D01*
X0203520Y0075744D01*
X0203580Y0075762D01*
X0203641Y0075775D01*
X0203703Y0075785D01*
X0203765Y0075791D01*
X0203828Y0075793D01*
X0203891Y0075791D01*
X0203953Y0075785D01*
X0204015Y0075775D01*
X0204076Y0075762D01*
X0204136Y0075744D01*
X0204195Y0075723D01*
X0204253Y0075698D01*
X0204308Y0075670D01*
X0204362Y0075638D01*
X0204414Y0075603D01*
X0204464Y0075564D01*
X0204510Y0075523D01*
X0204555Y0075478D01*
X0204596Y0075432D01*
X0204635Y0075382D01*
X0204670Y0075330D01*
X0204702Y0075276D01*
X0204730Y0075221D01*
X0204755Y0075163D01*
X0204776Y0075104D01*
X0204794Y0075044D01*
X0204807Y0074983D01*
X0204817Y0074921D01*
X0204823Y0074859D01*
X0204825Y0074796D01*
X0204823Y0074733D01*
X0204817Y0074671D01*
X0204807Y0074609D01*
X0204794Y0074548D01*
X0204776Y0074488D01*
X0204755Y0074429D01*
X0204730Y0074371D01*
X0204702Y0074316D01*
X0204670Y0074262D01*
X0204635Y0074210D01*
X0204596Y0074160D01*
X0204555Y0074114D01*
X0204510Y0074069D01*
X0204464Y0074028D01*
X0204414Y0073989D01*
X0204362Y0073954D01*
X0204308Y0073922D01*
X0204253Y0073894D01*
X0204195Y0073869D01*
X0204136Y0073848D01*
X0204076Y0073830D01*
X0204015Y0073817D01*
X0203953Y0073807D01*
X0203891Y0073801D01*
X0203828Y0073799D01*
X0203765Y0073801D01*
X0203703Y0073807D01*
X0203641Y0073817D01*
X0203580Y0073830D01*
X0203520Y0073848D01*
X0203461Y0073869D01*
X0203403Y0073894D01*
X0203348Y0073922D01*
X0203294Y0073954D01*
X0203242Y0073989D01*
X0203192Y0074028D01*
X0203146Y0074069D01*
X0203101Y0074114D01*
X0203060Y0074160D01*
X0203021Y0074210D01*
X0202986Y0074262D01*
X0202954Y0074316D01*
X0202926Y0074371D01*
X0202901Y0074429D01*
X0202880Y0074488D01*
X0202862Y0074548D01*
X0202849Y0074609D01*
X0202839Y0074671D01*
X0202833Y0074733D01*
X0202831Y0074796D01*
X0201976Y0074796D02*
X0201978Y0074882D01*
X0201984Y0074967D01*
X0201994Y0075052D01*
X0202008Y0075136D01*
X0202025Y0075220D01*
X0202047Y0075303D01*
X0202072Y0075385D01*
X0202101Y0075465D01*
X0202134Y0075544D01*
X0202170Y0075622D01*
X0202210Y0075697D01*
X0202253Y0075771D01*
X0202300Y0075843D01*
X0202350Y0075912D01*
X0202403Y0075979D01*
X0202459Y0076044D01*
X0202518Y0076106D01*
X0202580Y0076165D01*
X0202645Y0076221D01*
X0202712Y0076274D01*
X0202781Y0076324D01*
X0202853Y0076371D01*
X0202927Y0076414D01*
X0203002Y0076454D01*
X0203080Y0076490D01*
X0203159Y0076523D01*
X0203239Y0076552D01*
X0203321Y0076577D01*
X0203404Y0076599D01*
X0203488Y0076616D01*
X0203572Y0076630D01*
X0203657Y0076640D01*
X0203742Y0076646D01*
X0203828Y0076648D01*
X0203914Y0076646D01*
X0203999Y0076640D01*
X0204084Y0076630D01*
X0204168Y0076616D01*
X0204252Y0076599D01*
X0204335Y0076577D01*
X0204417Y0076552D01*
X0204497Y0076523D01*
X0204576Y0076490D01*
X0204654Y0076454D01*
X0204729Y0076414D01*
X0204803Y0076371D01*
X0204875Y0076324D01*
X0204944Y0076274D01*
X0205011Y0076221D01*
X0205076Y0076165D01*
X0205138Y0076106D01*
X0205197Y0076044D01*
X0205253Y0075979D01*
X0205306Y0075912D01*
X0205356Y0075843D01*
X0205403Y0075771D01*
X0205446Y0075697D01*
X0205486Y0075622D01*
X0205522Y0075544D01*
X0205555Y0075465D01*
X0205584Y0075385D01*
X0205609Y0075303D01*
X0205631Y0075220D01*
X0205648Y0075136D01*
X0205662Y0075052D01*
X0205672Y0074967D01*
X0205678Y0074882D01*
X0205680Y0074796D01*
X0205678Y0074710D01*
X0205672Y0074625D01*
X0205662Y0074540D01*
X0205648Y0074456D01*
X0205631Y0074372D01*
X0205609Y0074289D01*
X0205584Y0074207D01*
X0205555Y0074127D01*
X0205522Y0074048D01*
X0205486Y0073970D01*
X0205446Y0073895D01*
X0205403Y0073821D01*
X0205356Y0073749D01*
X0205306Y0073680D01*
X0205253Y0073613D01*
X0205197Y0073548D01*
X0205138Y0073486D01*
X0205076Y0073427D01*
X0205011Y0073371D01*
X0204944Y0073318D01*
X0204875Y0073268D01*
X0204803Y0073221D01*
X0204729Y0073178D01*
X0204654Y0073138D01*
X0204576Y0073102D01*
X0204497Y0073069D01*
X0204417Y0073040D01*
X0204335Y0073015D01*
X0204252Y0072993D01*
X0204168Y0072976D01*
X0204084Y0072962D01*
X0203999Y0072952D01*
X0203914Y0072946D01*
X0203828Y0072944D01*
X0203742Y0072946D01*
X0203657Y0072952D01*
X0203572Y0072962D01*
X0203488Y0072976D01*
X0203404Y0072993D01*
X0203321Y0073015D01*
X0203239Y0073040D01*
X0203159Y0073069D01*
X0203080Y0073102D01*
X0203002Y0073138D01*
X0202927Y0073178D01*
X0202853Y0073221D01*
X0202781Y0073268D01*
X0202712Y0073318D01*
X0202645Y0073371D01*
X0202580Y0073427D01*
X0202518Y0073486D01*
X0202459Y0073548D01*
X0202403Y0073613D01*
X0202350Y0073680D01*
X0202300Y0073749D01*
X0202253Y0073821D01*
X0202210Y0073895D01*
X0202170Y0073970D01*
X0202134Y0074048D01*
X0202101Y0074127D01*
X0202072Y0074207D01*
X0202047Y0074289D01*
X0202025Y0074372D01*
X0202008Y0074456D01*
X0201994Y0074540D01*
X0201984Y0074625D01*
X0201978Y0074710D01*
X0201976Y0074796D01*
X0205752Y0074582D02*
X0212948Y0074511D01*
X0213161Y0074368D02*
X0213161Y0073442D01*
X0213162Y0073442D02*
X0213160Y0073403D01*
X0213155Y0073363D01*
X0213146Y0073325D01*
X0213133Y0073287D01*
X0213117Y0073251D01*
X0213098Y0073217D01*
X0213076Y0073184D01*
X0213050Y0073154D01*
X0213022Y0073126D01*
X0212992Y0073100D01*
X0212959Y0073078D01*
X0212925Y0073059D01*
X0212889Y0073043D01*
X0212851Y0073030D01*
X0212813Y0073021D01*
X0212773Y0073016D01*
X0212734Y0073014D01*
X0212591Y0073014D01*
X0212592Y0073014D02*
X0212554Y0073016D01*
X0212518Y0073022D01*
X0212482Y0073032D01*
X0212447Y0073045D01*
X0212414Y0073062D01*
X0212383Y0073082D01*
X0212354Y0073106D01*
X0212327Y0073132D01*
X0212304Y0073161D01*
X0212284Y0073192D01*
X0212267Y0073225D01*
X0212253Y0073260D01*
X0212244Y0073296D01*
X0212238Y0073333D01*
X0212236Y0073370D01*
X0212235Y0073370D02*
X0212235Y0074368D01*
X0213375Y0074582D02*
X0213423Y0074589D01*
X0213471Y0074599D01*
X0213517Y0074613D01*
X0213562Y0074630D01*
X0213606Y0074651D01*
X0213648Y0074675D01*
X0213688Y0074702D01*
X0213726Y0074732D01*
X0213762Y0074765D01*
X0213795Y0074800D01*
X0213825Y0074838D01*
X0213852Y0074878D01*
X0213876Y0074921D01*
X0213897Y0074964D01*
X0213914Y0075010D01*
X0213928Y0075056D01*
X0213938Y0075103D01*
X0213945Y0075151D01*
X0213945Y0075152D02*
X0216011Y0096099D01*
X0215655Y0097808D02*
X0215552Y0097854D01*
X0215448Y0097897D01*
X0215342Y0097938D01*
X0215236Y0097975D01*
X0215128Y0098009D01*
X0215020Y0098040D01*
X0214911Y0098068D01*
X0214801Y0098093D01*
X0214443Y0097951D02*
X0214450Y0098037D01*
X0214454Y0098122D01*
X0214454Y0098208D01*
X0214450Y0098293D01*
X0214443Y0098379D01*
X0210383Y0098450D02*
X0210027Y0098450D01*
X0210027Y0098664D02*
X0210027Y0098094D01*
X0206749Y0098094D01*
X0206749Y0098664D01*
X0210027Y0098664D01*
X0206678Y0098450D02*
X0205324Y0098379D01*
X0201549Y0097737D02*
X0201483Y0097716D01*
X0201420Y0097691D01*
X0201357Y0097663D01*
X0201296Y0097632D01*
X0201236Y0097599D01*
X0201177Y0097563D01*
X0201121Y0097524D01*
X0199838Y0096811D02*
X0199840Y0096763D01*
X0199845Y0096715D01*
X0199854Y0096668D01*
X0199866Y0096622D01*
X0199882Y0096577D01*
X0199901Y0096533D01*
X0199924Y0096491D01*
X0199949Y0096450D01*
X0199978Y0096411D01*
X0200009Y0096375D01*
X0200043Y0096341D01*
X0200079Y0096310D01*
X0200118Y0096281D01*
X0200159Y0096256D01*
X0200201Y0096233D01*
X0200245Y0096214D01*
X0200290Y0096198D01*
X0200336Y0096186D01*
X0200383Y0096177D01*
X0200431Y0096172D01*
X0200479Y0096170D01*
X0200621Y0094887D02*
X0200669Y0094879D01*
X0200716Y0094875D01*
X0200764Y0094873D01*
X0200812Y0094875D01*
X0200859Y0094879D01*
X0200907Y0094887D01*
X0200622Y0094887D02*
X0200572Y0094895D01*
X0200522Y0094899D01*
X0200471Y0094900D01*
X0200421Y0094896D01*
X0200371Y0094889D01*
X0200322Y0094878D01*
X0200274Y0094863D01*
X0200228Y0094844D01*
X0200182Y0094822D01*
X0200139Y0094797D01*
X0200098Y0094768D01*
X0200059Y0094736D01*
X0200022Y0094701D01*
X0199989Y0094664D01*
X0199958Y0094624D01*
X0199931Y0094582D01*
X0199907Y0094537D01*
X0199886Y0094492D01*
X0199869Y0094444D01*
X0199855Y0094396D01*
X0199846Y0094346D01*
X0199840Y0094296D01*
X0199838Y0094246D01*
X0199838Y0093819D01*
X0199839Y0093819D02*
X0199841Y0093768D01*
X0199846Y0093718D01*
X0199855Y0093668D01*
X0199868Y0093619D01*
X0199884Y0093570D01*
X0199903Y0093523D01*
X0199926Y0093478D01*
X0199952Y0093434D01*
X0199981Y0093392D01*
X0200013Y0093353D01*
X0200047Y0093316D01*
X0200085Y0093281D01*
X0200124Y0093249D01*
X0200166Y0093220D01*
X0200210Y0093194D01*
X0200255Y0093171D01*
X0200302Y0093152D01*
X0200350Y0093136D01*
X0200399Y0093123D01*
X0200449Y0093114D01*
X0200500Y0093109D01*
X0200551Y0093107D01*
X0200550Y0093106D02*
X0201049Y0093106D01*
X0205609Y0090684D02*
X0205609Y0090185D01*
X0205611Y0090153D01*
X0205616Y0090122D01*
X0205625Y0090091D01*
X0205637Y0090061D01*
X0205653Y0090033D01*
X0205671Y0090007D01*
X0205692Y0089983D01*
X0205716Y0089962D01*
X0205742Y0089944D01*
X0205770Y0089928D01*
X0205800Y0089916D01*
X0205831Y0089907D01*
X0205862Y0089902D01*
X0205894Y0089900D01*
X0209243Y0089900D01*
X0209282Y0089902D01*
X0209322Y0089907D01*
X0209360Y0089916D01*
X0209398Y0089929D01*
X0209434Y0089945D01*
X0209468Y0089964D01*
X0209501Y0089986D01*
X0209531Y0090012D01*
X0209559Y0090040D01*
X0209585Y0090070D01*
X0209607Y0090103D01*
X0209626Y0090137D01*
X0209642Y0090173D01*
X0209655Y0090211D01*
X0209664Y0090249D01*
X0209669Y0090289D01*
X0209671Y0090328D01*
X0209670Y0090328D02*
X0209670Y0090541D01*
X0209670Y0090755D01*
X0213946Y0098236D02*
X0214161Y0098208D01*
X0214375Y0098175D01*
X0214588Y0098137D01*
X0214801Y0098094D01*
X0214088Y0098378D02*
X0214076Y0098245D01*
X0214068Y0098112D01*
X0214063Y0097978D01*
X0214061Y0097844D01*
X0214063Y0097710D01*
X0214068Y0097576D01*
X0214076Y0097443D01*
X0214088Y0097310D01*
X0202973Y0098093D02*
X0202685Y0098035D01*
X0202398Y0097970D01*
X0202113Y0097899D01*
X0201830Y0097821D01*
X0201548Y0097737D01*
X0189080Y0105789D02*
X0227839Y0067030D01*
X0213375Y0074582D02*
X0213267Y0074570D01*
X0213160Y0074554D01*
X0213053Y0074534D01*
X0212947Y0074511D01*
X0205324Y0098379D02*
X0204930Y0098354D01*
X0204537Y0098319D01*
X0204144Y0098276D01*
X0203752Y0098224D01*
X0203362Y0098164D01*
X0202973Y0098094D01*
X0227696Y0105646D02*
X0189222Y0067172D01*
M02*
