%
M48
M72
T01C0.0197
T02C0.0236
T03C0.0360
T04C0.0400
T05C0.0472
T06C0.1083
T07C0.1102
%
T01
X4983Y5456
X8802Y5967
X10141Y5101
X13369Y9078
X13566Y9983
X12267Y11007
X11873Y10731
X11617Y12542
X12936Y13211
X13369Y14156
X13251Y14983
X12503Y14235
X11676Y15495
X12345Y16322
X13093Y16755
X13251Y17188
X14038Y17503
X14353Y18290
X14826Y18684
X15337Y17109
X17385Y18684
X17660Y17109
X19865Y16007
X20967Y16755
X22109Y17109
X22109Y15101
X20692Y12857
X19983Y10771
X18841Y9235
X16794Y6440
X15416Y8408
X15652Y11400
X14826Y12227
X17188Y13369
X17897Y13566
X18487Y13369
X17897Y12542
X18054Y14983
X18881Y14983
X13369Y20574
X12582Y20849
X11558Y20298
X10337Y21046
X10377Y22188
X7818Y22188
X6046Y21007
X5574Y17700
X5180Y16322
X5692Y14944
X7306Y12936
X7070Y12542
X8330Y13723
X9471Y14235
X9747Y13526
X10298Y13920
X10495Y14944
X10180Y15416
X10495Y15928
X9235Y17582
X10967Y18251
X11912Y17503
X12345Y17857
X13369Y22070
X4471Y11519
X3960Y10062
X6637Y9156
X1676Y21086
T02
X5967Y5062
T03
X24629Y7026
X24629Y8026
X24629Y9026
X24629Y10026
X23723Y14113
X23723Y15113
X23723Y16113
X23723Y17113
X2503Y17113
X2503Y16113
X2503Y15113
X2503Y14113
T04
X3869Y23026
X4869Y23026
X5869Y23026
X6869Y23026
X7869Y23026
X8869Y23026
X9869Y23026
X10869Y23026
X11869Y23026
X12869Y23026
X13869Y23026
X14869Y23026
X15869Y23026
X16869Y23026
X17869Y23026
X18869Y23026
X19869Y23026
X20869Y23026
X21869Y23026
X22869Y23026
X22869Y24026
X21869Y24026
X20869Y24026
X19869Y24026
X18869Y24026
X17869Y24026
X16869Y24026
X15869Y24026
X14869Y24026
X13869Y24026
X12869Y24026
X11869Y24026
X10869Y24026
X9869Y24026
X8869Y24026
X7869Y24026
X6869Y24026
X5869Y24026
X4869Y24026
X3869Y24026
T05
X6632Y3451
X3882Y3431
T06
X1952Y23526
X1952Y4235
T07
X24786Y23526
X24786Y4235
M30
