G75*
%MOIN*%
%OFA0B0*%
%FSLAX25Y25*%
%IPPOS*%
%LPD*%
%AMOC8*
5,1,8,0,0,1.08239X$1,22.5*
%
%ADD10C,0.00000*%
%ADD11C,0.11424*%
%ADD12C,0.11227*%
%ADD13C,0.07487*%
%ADD14OC8,0.06400*%
%ADD15C,0.06000*%
D10*
X0017548Y0028572D02*
X0249831Y0028572D01*
X0250116Y0028575D01*
X0250402Y0028586D01*
X0250687Y0028603D01*
X0250971Y0028627D01*
X0251255Y0028658D01*
X0251538Y0028696D01*
X0251819Y0028741D01*
X0252100Y0028792D01*
X0252380Y0028850D01*
X0252658Y0028915D01*
X0252934Y0028987D01*
X0253208Y0029065D01*
X0253481Y0029150D01*
X0253751Y0029242D01*
X0254019Y0029340D01*
X0254285Y0029444D01*
X0254548Y0029555D01*
X0254808Y0029672D01*
X0255066Y0029795D01*
X0255320Y0029925D01*
X0255571Y0030061D01*
X0255819Y0030202D01*
X0256063Y0030350D01*
X0256304Y0030503D01*
X0256540Y0030663D01*
X0256773Y0030828D01*
X0257002Y0030998D01*
X0257227Y0031174D01*
X0257447Y0031356D01*
X0257663Y0031542D01*
X0257874Y0031734D01*
X0258081Y0031931D01*
X0258283Y0032133D01*
X0258480Y0032340D01*
X0258672Y0032551D01*
X0258858Y0032767D01*
X0259040Y0032987D01*
X0259216Y0033212D01*
X0259386Y0033441D01*
X0259551Y0033674D01*
X0259711Y0033910D01*
X0259864Y0034151D01*
X0260012Y0034395D01*
X0260153Y0034643D01*
X0260289Y0034894D01*
X0260419Y0035148D01*
X0260542Y0035406D01*
X0260659Y0035666D01*
X0260770Y0035929D01*
X0260874Y0036195D01*
X0260972Y0036463D01*
X0261064Y0036733D01*
X0261149Y0037006D01*
X0261227Y0037280D01*
X0261299Y0037556D01*
X0261364Y0037834D01*
X0261422Y0038114D01*
X0261473Y0038395D01*
X0261518Y0038676D01*
X0261556Y0038959D01*
X0261587Y0039243D01*
X0261611Y0039527D01*
X0261628Y0039812D01*
X0261639Y0040098D01*
X0261642Y0040383D01*
X0261643Y0040383D02*
X0261643Y0237233D01*
X0261642Y0237233D02*
X0261662Y0237542D01*
X0261675Y0237852D01*
X0261680Y0238162D01*
X0261677Y0238472D01*
X0261668Y0238782D01*
X0261650Y0239092D01*
X0261625Y0239401D01*
X0261593Y0239709D01*
X0261553Y0240017D01*
X0261506Y0240323D01*
X0261451Y0240629D01*
X0261389Y0240933D01*
X0261320Y0241235D01*
X0261244Y0241535D01*
X0261160Y0241834D01*
X0261069Y0242130D01*
X0260971Y0242425D01*
X0260865Y0242716D01*
X0260753Y0243005D01*
X0260634Y0243292D01*
X0260508Y0243575D01*
X0260375Y0243855D01*
X0260235Y0244132D01*
X0260089Y0244406D01*
X0259936Y0244675D01*
X0259777Y0244942D01*
X0259611Y0245204D01*
X0259439Y0245462D01*
X0259261Y0245716D01*
X0259077Y0245965D01*
X0258887Y0246210D01*
X0258691Y0246450D01*
X0258489Y0246686D01*
X0258281Y0246916D01*
X0258069Y0247142D01*
X0257850Y0247362D01*
X0257627Y0247577D01*
X0257398Y0247786D01*
X0257164Y0247990D01*
X0256926Y0248188D01*
X0256682Y0248380D01*
X0256434Y0248567D01*
X0256182Y0248747D01*
X0255925Y0248921D01*
X0255665Y0249089D01*
X0255400Y0249251D01*
X0255131Y0249406D01*
X0254859Y0249554D01*
X0254584Y0249696D01*
X0254305Y0249832D01*
X0254022Y0249960D01*
X0253737Y0250082D01*
X0253449Y0250197D01*
X0253158Y0250304D01*
X0252865Y0250405D01*
X0252569Y0250498D01*
X0252271Y0250585D01*
X0251971Y0250664D01*
X0251670Y0250736D01*
X0251366Y0250800D01*
X0251062Y0250857D01*
X0250755Y0250907D01*
X0250448Y0250950D01*
X0250140Y0250985D01*
X0249831Y0251012D01*
X0249831Y0251013D02*
X0017548Y0251013D01*
X0017548Y0251012D02*
X0017239Y0250985D01*
X0016931Y0250950D01*
X0016624Y0250907D01*
X0016317Y0250857D01*
X0016013Y0250800D01*
X0015709Y0250736D01*
X0015408Y0250664D01*
X0015108Y0250585D01*
X0014810Y0250498D01*
X0014514Y0250405D01*
X0014221Y0250304D01*
X0013930Y0250197D01*
X0013642Y0250082D01*
X0013357Y0249960D01*
X0013074Y0249832D01*
X0012795Y0249696D01*
X0012520Y0249554D01*
X0012248Y0249406D01*
X0011979Y0249251D01*
X0011714Y0249089D01*
X0011454Y0248921D01*
X0011197Y0248747D01*
X0010945Y0248567D01*
X0010697Y0248380D01*
X0010453Y0248188D01*
X0010215Y0247990D01*
X0009981Y0247786D01*
X0009752Y0247577D01*
X0009529Y0247362D01*
X0009310Y0247142D01*
X0009098Y0246916D01*
X0008890Y0246686D01*
X0008688Y0246450D01*
X0008492Y0246210D01*
X0008302Y0245965D01*
X0008118Y0245716D01*
X0007940Y0245462D01*
X0007768Y0245204D01*
X0007602Y0244942D01*
X0007443Y0244675D01*
X0007290Y0244406D01*
X0007144Y0244132D01*
X0007004Y0243855D01*
X0006871Y0243575D01*
X0006745Y0243292D01*
X0006626Y0243005D01*
X0006514Y0242716D01*
X0006408Y0242425D01*
X0006310Y0242130D01*
X0006219Y0241834D01*
X0006135Y0241535D01*
X0006059Y0241235D01*
X0005990Y0240933D01*
X0005928Y0240629D01*
X0005873Y0240323D01*
X0005826Y0240017D01*
X0005786Y0239709D01*
X0005754Y0239401D01*
X0005729Y0239092D01*
X0005711Y0238782D01*
X0005702Y0238472D01*
X0005699Y0238162D01*
X0005704Y0237852D01*
X0005717Y0237542D01*
X0005737Y0237233D01*
X0005737Y0040383D01*
X0005740Y0040098D01*
X0005751Y0039812D01*
X0005768Y0039527D01*
X0005792Y0039243D01*
X0005823Y0038959D01*
X0005861Y0038676D01*
X0005906Y0038395D01*
X0005957Y0038114D01*
X0006015Y0037834D01*
X0006080Y0037556D01*
X0006152Y0037280D01*
X0006230Y0037006D01*
X0006315Y0036733D01*
X0006407Y0036463D01*
X0006505Y0036195D01*
X0006609Y0035929D01*
X0006720Y0035666D01*
X0006837Y0035406D01*
X0006960Y0035148D01*
X0007090Y0034894D01*
X0007226Y0034643D01*
X0007367Y0034395D01*
X0007515Y0034151D01*
X0007668Y0033910D01*
X0007828Y0033674D01*
X0007993Y0033441D01*
X0008163Y0033212D01*
X0008339Y0032987D01*
X0008521Y0032767D01*
X0008707Y0032551D01*
X0008899Y0032340D01*
X0009096Y0032133D01*
X0009298Y0031931D01*
X0009505Y0031734D01*
X0009716Y0031542D01*
X0009932Y0031356D01*
X0010152Y0031174D01*
X0010377Y0030998D01*
X0010606Y0030828D01*
X0010839Y0030663D01*
X0011075Y0030503D01*
X0011316Y0030350D01*
X0011560Y0030202D01*
X0011808Y0030061D01*
X0012059Y0029925D01*
X0012313Y0029795D01*
X0012571Y0029672D01*
X0012831Y0029555D01*
X0013094Y0029444D01*
X0013360Y0029340D01*
X0013628Y0029242D01*
X0013898Y0029150D01*
X0014171Y0029065D01*
X0014445Y0028987D01*
X0014721Y0028915D01*
X0014999Y0028850D01*
X0015279Y0028792D01*
X0015560Y0028741D01*
X0015841Y0028696D01*
X0016124Y0028658D01*
X0016408Y0028627D01*
X0016692Y0028603D01*
X0016977Y0028586D01*
X0017263Y0028575D01*
X0017548Y0028572D01*
X0014104Y0042351D02*
X0014106Y0042498D01*
X0014112Y0042644D01*
X0014122Y0042790D01*
X0014136Y0042936D01*
X0014154Y0043082D01*
X0014175Y0043227D01*
X0014201Y0043371D01*
X0014231Y0043515D01*
X0014264Y0043657D01*
X0014301Y0043799D01*
X0014342Y0043940D01*
X0014387Y0044079D01*
X0014436Y0044218D01*
X0014488Y0044355D01*
X0014545Y0044490D01*
X0014604Y0044624D01*
X0014668Y0044756D01*
X0014735Y0044886D01*
X0014805Y0045015D01*
X0014879Y0045142D01*
X0014956Y0045266D01*
X0015037Y0045389D01*
X0015121Y0045509D01*
X0015208Y0045627D01*
X0015298Y0045742D01*
X0015391Y0045855D01*
X0015488Y0045966D01*
X0015587Y0046074D01*
X0015689Y0046179D01*
X0015794Y0046281D01*
X0015902Y0046380D01*
X0016013Y0046477D01*
X0016126Y0046570D01*
X0016241Y0046660D01*
X0016359Y0046747D01*
X0016479Y0046831D01*
X0016602Y0046912D01*
X0016726Y0046989D01*
X0016853Y0047063D01*
X0016982Y0047133D01*
X0017112Y0047200D01*
X0017244Y0047264D01*
X0017378Y0047323D01*
X0017513Y0047380D01*
X0017650Y0047432D01*
X0017789Y0047481D01*
X0017928Y0047526D01*
X0018069Y0047567D01*
X0018211Y0047604D01*
X0018353Y0047637D01*
X0018497Y0047667D01*
X0018641Y0047693D01*
X0018786Y0047714D01*
X0018932Y0047732D01*
X0019078Y0047746D01*
X0019224Y0047756D01*
X0019370Y0047762D01*
X0019517Y0047764D01*
X0019664Y0047762D01*
X0019810Y0047756D01*
X0019956Y0047746D01*
X0020102Y0047732D01*
X0020248Y0047714D01*
X0020393Y0047693D01*
X0020537Y0047667D01*
X0020681Y0047637D01*
X0020823Y0047604D01*
X0020965Y0047567D01*
X0021106Y0047526D01*
X0021245Y0047481D01*
X0021384Y0047432D01*
X0021521Y0047380D01*
X0021656Y0047323D01*
X0021790Y0047264D01*
X0021922Y0047200D01*
X0022052Y0047133D01*
X0022181Y0047063D01*
X0022308Y0046989D01*
X0022432Y0046912D01*
X0022555Y0046831D01*
X0022675Y0046747D01*
X0022793Y0046660D01*
X0022908Y0046570D01*
X0023021Y0046477D01*
X0023132Y0046380D01*
X0023240Y0046281D01*
X0023345Y0046179D01*
X0023447Y0046074D01*
X0023546Y0045966D01*
X0023643Y0045855D01*
X0023736Y0045742D01*
X0023826Y0045627D01*
X0023913Y0045509D01*
X0023997Y0045389D01*
X0024078Y0045266D01*
X0024155Y0045142D01*
X0024229Y0045015D01*
X0024299Y0044886D01*
X0024366Y0044756D01*
X0024430Y0044624D01*
X0024489Y0044490D01*
X0024546Y0044355D01*
X0024598Y0044218D01*
X0024647Y0044079D01*
X0024692Y0043940D01*
X0024733Y0043799D01*
X0024770Y0043657D01*
X0024803Y0043515D01*
X0024833Y0043371D01*
X0024859Y0043227D01*
X0024880Y0043082D01*
X0024898Y0042936D01*
X0024912Y0042790D01*
X0024922Y0042644D01*
X0024928Y0042498D01*
X0024930Y0042351D01*
X0024928Y0042204D01*
X0024922Y0042058D01*
X0024912Y0041912D01*
X0024898Y0041766D01*
X0024880Y0041620D01*
X0024859Y0041475D01*
X0024833Y0041331D01*
X0024803Y0041187D01*
X0024770Y0041045D01*
X0024733Y0040903D01*
X0024692Y0040762D01*
X0024647Y0040623D01*
X0024598Y0040484D01*
X0024546Y0040347D01*
X0024489Y0040212D01*
X0024430Y0040078D01*
X0024366Y0039946D01*
X0024299Y0039816D01*
X0024229Y0039687D01*
X0024155Y0039560D01*
X0024078Y0039436D01*
X0023997Y0039313D01*
X0023913Y0039193D01*
X0023826Y0039075D01*
X0023736Y0038960D01*
X0023643Y0038847D01*
X0023546Y0038736D01*
X0023447Y0038628D01*
X0023345Y0038523D01*
X0023240Y0038421D01*
X0023132Y0038322D01*
X0023021Y0038225D01*
X0022908Y0038132D01*
X0022793Y0038042D01*
X0022675Y0037955D01*
X0022555Y0037871D01*
X0022432Y0037790D01*
X0022308Y0037713D01*
X0022181Y0037639D01*
X0022052Y0037569D01*
X0021922Y0037502D01*
X0021790Y0037438D01*
X0021656Y0037379D01*
X0021521Y0037322D01*
X0021384Y0037270D01*
X0021245Y0037221D01*
X0021106Y0037176D01*
X0020965Y0037135D01*
X0020823Y0037098D01*
X0020681Y0037065D01*
X0020537Y0037035D01*
X0020393Y0037009D01*
X0020248Y0036988D01*
X0020102Y0036970D01*
X0019956Y0036956D01*
X0019810Y0036946D01*
X0019664Y0036940D01*
X0019517Y0036938D01*
X0019370Y0036940D01*
X0019224Y0036946D01*
X0019078Y0036956D01*
X0018932Y0036970D01*
X0018786Y0036988D01*
X0018641Y0037009D01*
X0018497Y0037035D01*
X0018353Y0037065D01*
X0018211Y0037098D01*
X0018069Y0037135D01*
X0017928Y0037176D01*
X0017789Y0037221D01*
X0017650Y0037270D01*
X0017513Y0037322D01*
X0017378Y0037379D01*
X0017244Y0037438D01*
X0017112Y0037502D01*
X0016982Y0037569D01*
X0016853Y0037639D01*
X0016726Y0037713D01*
X0016602Y0037790D01*
X0016479Y0037871D01*
X0016359Y0037955D01*
X0016241Y0038042D01*
X0016126Y0038132D01*
X0016013Y0038225D01*
X0015902Y0038322D01*
X0015794Y0038421D01*
X0015689Y0038523D01*
X0015587Y0038628D01*
X0015488Y0038736D01*
X0015391Y0038847D01*
X0015298Y0038960D01*
X0015208Y0039075D01*
X0015121Y0039193D01*
X0015037Y0039313D01*
X0014956Y0039436D01*
X0014879Y0039560D01*
X0014805Y0039687D01*
X0014735Y0039816D01*
X0014668Y0039946D01*
X0014604Y0040078D01*
X0014545Y0040212D01*
X0014488Y0040347D01*
X0014436Y0040484D01*
X0014387Y0040623D01*
X0014342Y0040762D01*
X0014301Y0040903D01*
X0014264Y0041045D01*
X0014231Y0041187D01*
X0014201Y0041331D01*
X0014175Y0041475D01*
X0014154Y0041620D01*
X0014136Y0041766D01*
X0014122Y0041912D01*
X0014112Y0042058D01*
X0014106Y0042204D01*
X0014104Y0042351D01*
X0014104Y0235265D02*
X0014106Y0235412D01*
X0014112Y0235558D01*
X0014122Y0235704D01*
X0014136Y0235850D01*
X0014154Y0235996D01*
X0014175Y0236141D01*
X0014201Y0236285D01*
X0014231Y0236429D01*
X0014264Y0236571D01*
X0014301Y0236713D01*
X0014342Y0236854D01*
X0014387Y0236993D01*
X0014436Y0237132D01*
X0014488Y0237269D01*
X0014545Y0237404D01*
X0014604Y0237538D01*
X0014668Y0237670D01*
X0014735Y0237800D01*
X0014805Y0237929D01*
X0014879Y0238056D01*
X0014956Y0238180D01*
X0015037Y0238303D01*
X0015121Y0238423D01*
X0015208Y0238541D01*
X0015298Y0238656D01*
X0015391Y0238769D01*
X0015488Y0238880D01*
X0015587Y0238988D01*
X0015689Y0239093D01*
X0015794Y0239195D01*
X0015902Y0239294D01*
X0016013Y0239391D01*
X0016126Y0239484D01*
X0016241Y0239574D01*
X0016359Y0239661D01*
X0016479Y0239745D01*
X0016602Y0239826D01*
X0016726Y0239903D01*
X0016853Y0239977D01*
X0016982Y0240047D01*
X0017112Y0240114D01*
X0017244Y0240178D01*
X0017378Y0240237D01*
X0017513Y0240294D01*
X0017650Y0240346D01*
X0017789Y0240395D01*
X0017928Y0240440D01*
X0018069Y0240481D01*
X0018211Y0240518D01*
X0018353Y0240551D01*
X0018497Y0240581D01*
X0018641Y0240607D01*
X0018786Y0240628D01*
X0018932Y0240646D01*
X0019078Y0240660D01*
X0019224Y0240670D01*
X0019370Y0240676D01*
X0019517Y0240678D01*
X0019664Y0240676D01*
X0019810Y0240670D01*
X0019956Y0240660D01*
X0020102Y0240646D01*
X0020248Y0240628D01*
X0020393Y0240607D01*
X0020537Y0240581D01*
X0020681Y0240551D01*
X0020823Y0240518D01*
X0020965Y0240481D01*
X0021106Y0240440D01*
X0021245Y0240395D01*
X0021384Y0240346D01*
X0021521Y0240294D01*
X0021656Y0240237D01*
X0021790Y0240178D01*
X0021922Y0240114D01*
X0022052Y0240047D01*
X0022181Y0239977D01*
X0022308Y0239903D01*
X0022432Y0239826D01*
X0022555Y0239745D01*
X0022675Y0239661D01*
X0022793Y0239574D01*
X0022908Y0239484D01*
X0023021Y0239391D01*
X0023132Y0239294D01*
X0023240Y0239195D01*
X0023345Y0239093D01*
X0023447Y0238988D01*
X0023546Y0238880D01*
X0023643Y0238769D01*
X0023736Y0238656D01*
X0023826Y0238541D01*
X0023913Y0238423D01*
X0023997Y0238303D01*
X0024078Y0238180D01*
X0024155Y0238056D01*
X0024229Y0237929D01*
X0024299Y0237800D01*
X0024366Y0237670D01*
X0024430Y0237538D01*
X0024489Y0237404D01*
X0024546Y0237269D01*
X0024598Y0237132D01*
X0024647Y0236993D01*
X0024692Y0236854D01*
X0024733Y0236713D01*
X0024770Y0236571D01*
X0024803Y0236429D01*
X0024833Y0236285D01*
X0024859Y0236141D01*
X0024880Y0235996D01*
X0024898Y0235850D01*
X0024912Y0235704D01*
X0024922Y0235558D01*
X0024928Y0235412D01*
X0024930Y0235265D01*
X0024928Y0235118D01*
X0024922Y0234972D01*
X0024912Y0234826D01*
X0024898Y0234680D01*
X0024880Y0234534D01*
X0024859Y0234389D01*
X0024833Y0234245D01*
X0024803Y0234101D01*
X0024770Y0233959D01*
X0024733Y0233817D01*
X0024692Y0233676D01*
X0024647Y0233537D01*
X0024598Y0233398D01*
X0024546Y0233261D01*
X0024489Y0233126D01*
X0024430Y0232992D01*
X0024366Y0232860D01*
X0024299Y0232730D01*
X0024229Y0232601D01*
X0024155Y0232474D01*
X0024078Y0232350D01*
X0023997Y0232227D01*
X0023913Y0232107D01*
X0023826Y0231989D01*
X0023736Y0231874D01*
X0023643Y0231761D01*
X0023546Y0231650D01*
X0023447Y0231542D01*
X0023345Y0231437D01*
X0023240Y0231335D01*
X0023132Y0231236D01*
X0023021Y0231139D01*
X0022908Y0231046D01*
X0022793Y0230956D01*
X0022675Y0230869D01*
X0022555Y0230785D01*
X0022432Y0230704D01*
X0022308Y0230627D01*
X0022181Y0230553D01*
X0022052Y0230483D01*
X0021922Y0230416D01*
X0021790Y0230352D01*
X0021656Y0230293D01*
X0021521Y0230236D01*
X0021384Y0230184D01*
X0021245Y0230135D01*
X0021106Y0230090D01*
X0020965Y0230049D01*
X0020823Y0230012D01*
X0020681Y0229979D01*
X0020537Y0229949D01*
X0020393Y0229923D01*
X0020248Y0229902D01*
X0020102Y0229884D01*
X0019956Y0229870D01*
X0019810Y0229860D01*
X0019664Y0229854D01*
X0019517Y0229852D01*
X0019370Y0229854D01*
X0019224Y0229860D01*
X0019078Y0229870D01*
X0018932Y0229884D01*
X0018786Y0229902D01*
X0018641Y0229923D01*
X0018497Y0229949D01*
X0018353Y0229979D01*
X0018211Y0230012D01*
X0018069Y0230049D01*
X0017928Y0230090D01*
X0017789Y0230135D01*
X0017650Y0230184D01*
X0017513Y0230236D01*
X0017378Y0230293D01*
X0017244Y0230352D01*
X0017112Y0230416D01*
X0016982Y0230483D01*
X0016853Y0230553D01*
X0016726Y0230627D01*
X0016602Y0230704D01*
X0016479Y0230785D01*
X0016359Y0230869D01*
X0016241Y0230956D01*
X0016126Y0231046D01*
X0016013Y0231139D01*
X0015902Y0231236D01*
X0015794Y0231335D01*
X0015689Y0231437D01*
X0015587Y0231542D01*
X0015488Y0231650D01*
X0015391Y0231761D01*
X0015298Y0231874D01*
X0015208Y0231989D01*
X0015121Y0232107D01*
X0015037Y0232227D01*
X0014956Y0232350D01*
X0014879Y0232474D01*
X0014805Y0232601D01*
X0014735Y0232730D01*
X0014668Y0232860D01*
X0014604Y0232992D01*
X0014545Y0233126D01*
X0014488Y0233261D01*
X0014436Y0233398D01*
X0014387Y0233537D01*
X0014342Y0233676D01*
X0014301Y0233817D01*
X0014264Y0233959D01*
X0014231Y0234101D01*
X0014201Y0234245D01*
X0014175Y0234389D01*
X0014154Y0234534D01*
X0014136Y0234680D01*
X0014122Y0234826D01*
X0014112Y0234972D01*
X0014106Y0235118D01*
X0014104Y0235265D01*
X0242351Y0235265D02*
X0242353Y0235413D01*
X0242359Y0235561D01*
X0242369Y0235709D01*
X0242383Y0235856D01*
X0242401Y0236003D01*
X0242422Y0236149D01*
X0242448Y0236295D01*
X0242478Y0236440D01*
X0242511Y0236584D01*
X0242549Y0236727D01*
X0242590Y0236869D01*
X0242635Y0237010D01*
X0242683Y0237150D01*
X0242736Y0237289D01*
X0242792Y0237426D01*
X0242852Y0237561D01*
X0242915Y0237695D01*
X0242982Y0237827D01*
X0243053Y0237957D01*
X0243127Y0238085D01*
X0243204Y0238211D01*
X0243285Y0238335D01*
X0243369Y0238457D01*
X0243456Y0238576D01*
X0243547Y0238693D01*
X0243641Y0238808D01*
X0243737Y0238920D01*
X0243837Y0239030D01*
X0243939Y0239136D01*
X0244045Y0239240D01*
X0244153Y0239341D01*
X0244264Y0239439D01*
X0244377Y0239535D01*
X0244493Y0239627D01*
X0244611Y0239716D01*
X0244732Y0239801D01*
X0244855Y0239884D01*
X0244980Y0239963D01*
X0245107Y0240039D01*
X0245236Y0240111D01*
X0245367Y0240180D01*
X0245500Y0240245D01*
X0245635Y0240306D01*
X0245771Y0240364D01*
X0245908Y0240419D01*
X0246047Y0240469D01*
X0246188Y0240516D01*
X0246329Y0240559D01*
X0246472Y0240599D01*
X0246616Y0240634D01*
X0246760Y0240666D01*
X0246906Y0240693D01*
X0247052Y0240717D01*
X0247199Y0240737D01*
X0247346Y0240753D01*
X0247493Y0240765D01*
X0247641Y0240773D01*
X0247789Y0240777D01*
X0247937Y0240777D01*
X0248085Y0240773D01*
X0248233Y0240765D01*
X0248380Y0240753D01*
X0248527Y0240737D01*
X0248674Y0240717D01*
X0248820Y0240693D01*
X0248966Y0240666D01*
X0249110Y0240634D01*
X0249254Y0240599D01*
X0249397Y0240559D01*
X0249538Y0240516D01*
X0249679Y0240469D01*
X0249818Y0240419D01*
X0249955Y0240364D01*
X0250091Y0240306D01*
X0250226Y0240245D01*
X0250359Y0240180D01*
X0250490Y0240111D01*
X0250619Y0240039D01*
X0250746Y0239963D01*
X0250871Y0239884D01*
X0250994Y0239801D01*
X0251115Y0239716D01*
X0251233Y0239627D01*
X0251349Y0239535D01*
X0251462Y0239439D01*
X0251573Y0239341D01*
X0251681Y0239240D01*
X0251787Y0239136D01*
X0251889Y0239030D01*
X0251989Y0238920D01*
X0252085Y0238808D01*
X0252179Y0238693D01*
X0252270Y0238576D01*
X0252357Y0238457D01*
X0252441Y0238335D01*
X0252522Y0238211D01*
X0252599Y0238085D01*
X0252673Y0237957D01*
X0252744Y0237827D01*
X0252811Y0237695D01*
X0252874Y0237561D01*
X0252934Y0237426D01*
X0252990Y0237289D01*
X0253043Y0237150D01*
X0253091Y0237010D01*
X0253136Y0236869D01*
X0253177Y0236727D01*
X0253215Y0236584D01*
X0253248Y0236440D01*
X0253278Y0236295D01*
X0253304Y0236149D01*
X0253325Y0236003D01*
X0253343Y0235856D01*
X0253357Y0235709D01*
X0253367Y0235561D01*
X0253373Y0235413D01*
X0253375Y0235265D01*
X0253373Y0235117D01*
X0253367Y0234969D01*
X0253357Y0234821D01*
X0253343Y0234674D01*
X0253325Y0234527D01*
X0253304Y0234381D01*
X0253278Y0234235D01*
X0253248Y0234090D01*
X0253215Y0233946D01*
X0253177Y0233803D01*
X0253136Y0233661D01*
X0253091Y0233520D01*
X0253043Y0233380D01*
X0252990Y0233241D01*
X0252934Y0233104D01*
X0252874Y0232969D01*
X0252811Y0232835D01*
X0252744Y0232703D01*
X0252673Y0232573D01*
X0252599Y0232445D01*
X0252522Y0232319D01*
X0252441Y0232195D01*
X0252357Y0232073D01*
X0252270Y0231954D01*
X0252179Y0231837D01*
X0252085Y0231722D01*
X0251989Y0231610D01*
X0251889Y0231500D01*
X0251787Y0231394D01*
X0251681Y0231290D01*
X0251573Y0231189D01*
X0251462Y0231091D01*
X0251349Y0230995D01*
X0251233Y0230903D01*
X0251115Y0230814D01*
X0250994Y0230729D01*
X0250871Y0230646D01*
X0250746Y0230567D01*
X0250619Y0230491D01*
X0250490Y0230419D01*
X0250359Y0230350D01*
X0250226Y0230285D01*
X0250091Y0230224D01*
X0249955Y0230166D01*
X0249818Y0230111D01*
X0249679Y0230061D01*
X0249538Y0230014D01*
X0249397Y0229971D01*
X0249254Y0229931D01*
X0249110Y0229896D01*
X0248966Y0229864D01*
X0248820Y0229837D01*
X0248674Y0229813D01*
X0248527Y0229793D01*
X0248380Y0229777D01*
X0248233Y0229765D01*
X0248085Y0229757D01*
X0247937Y0229753D01*
X0247789Y0229753D01*
X0247641Y0229757D01*
X0247493Y0229765D01*
X0247346Y0229777D01*
X0247199Y0229793D01*
X0247052Y0229813D01*
X0246906Y0229837D01*
X0246760Y0229864D01*
X0246616Y0229896D01*
X0246472Y0229931D01*
X0246329Y0229971D01*
X0246188Y0230014D01*
X0246047Y0230061D01*
X0245908Y0230111D01*
X0245771Y0230166D01*
X0245635Y0230224D01*
X0245500Y0230285D01*
X0245367Y0230350D01*
X0245236Y0230419D01*
X0245107Y0230491D01*
X0244980Y0230567D01*
X0244855Y0230646D01*
X0244732Y0230729D01*
X0244611Y0230814D01*
X0244493Y0230903D01*
X0244377Y0230995D01*
X0244264Y0231091D01*
X0244153Y0231189D01*
X0244045Y0231290D01*
X0243939Y0231394D01*
X0243837Y0231500D01*
X0243737Y0231610D01*
X0243641Y0231722D01*
X0243547Y0231837D01*
X0243456Y0231954D01*
X0243369Y0232073D01*
X0243285Y0232195D01*
X0243204Y0232319D01*
X0243127Y0232445D01*
X0243053Y0232573D01*
X0242982Y0232703D01*
X0242915Y0232835D01*
X0242852Y0232969D01*
X0242792Y0233104D01*
X0242736Y0233241D01*
X0242683Y0233380D01*
X0242635Y0233520D01*
X0242590Y0233661D01*
X0242549Y0233803D01*
X0242511Y0233946D01*
X0242478Y0234090D01*
X0242448Y0234235D01*
X0242422Y0234381D01*
X0242401Y0234527D01*
X0242383Y0234674D01*
X0242369Y0234821D01*
X0242359Y0234969D01*
X0242353Y0235117D01*
X0242351Y0235265D01*
X0242351Y0042351D02*
X0242353Y0042499D01*
X0242359Y0042647D01*
X0242369Y0042795D01*
X0242383Y0042942D01*
X0242401Y0043089D01*
X0242422Y0043235D01*
X0242448Y0043381D01*
X0242478Y0043526D01*
X0242511Y0043670D01*
X0242549Y0043813D01*
X0242590Y0043955D01*
X0242635Y0044096D01*
X0242683Y0044236D01*
X0242736Y0044375D01*
X0242792Y0044512D01*
X0242852Y0044647D01*
X0242915Y0044781D01*
X0242982Y0044913D01*
X0243053Y0045043D01*
X0243127Y0045171D01*
X0243204Y0045297D01*
X0243285Y0045421D01*
X0243369Y0045543D01*
X0243456Y0045662D01*
X0243547Y0045779D01*
X0243641Y0045894D01*
X0243737Y0046006D01*
X0243837Y0046116D01*
X0243939Y0046222D01*
X0244045Y0046326D01*
X0244153Y0046427D01*
X0244264Y0046525D01*
X0244377Y0046621D01*
X0244493Y0046713D01*
X0244611Y0046802D01*
X0244732Y0046887D01*
X0244855Y0046970D01*
X0244980Y0047049D01*
X0245107Y0047125D01*
X0245236Y0047197D01*
X0245367Y0047266D01*
X0245500Y0047331D01*
X0245635Y0047392D01*
X0245771Y0047450D01*
X0245908Y0047505D01*
X0246047Y0047555D01*
X0246188Y0047602D01*
X0246329Y0047645D01*
X0246472Y0047685D01*
X0246616Y0047720D01*
X0246760Y0047752D01*
X0246906Y0047779D01*
X0247052Y0047803D01*
X0247199Y0047823D01*
X0247346Y0047839D01*
X0247493Y0047851D01*
X0247641Y0047859D01*
X0247789Y0047863D01*
X0247937Y0047863D01*
X0248085Y0047859D01*
X0248233Y0047851D01*
X0248380Y0047839D01*
X0248527Y0047823D01*
X0248674Y0047803D01*
X0248820Y0047779D01*
X0248966Y0047752D01*
X0249110Y0047720D01*
X0249254Y0047685D01*
X0249397Y0047645D01*
X0249538Y0047602D01*
X0249679Y0047555D01*
X0249818Y0047505D01*
X0249955Y0047450D01*
X0250091Y0047392D01*
X0250226Y0047331D01*
X0250359Y0047266D01*
X0250490Y0047197D01*
X0250619Y0047125D01*
X0250746Y0047049D01*
X0250871Y0046970D01*
X0250994Y0046887D01*
X0251115Y0046802D01*
X0251233Y0046713D01*
X0251349Y0046621D01*
X0251462Y0046525D01*
X0251573Y0046427D01*
X0251681Y0046326D01*
X0251787Y0046222D01*
X0251889Y0046116D01*
X0251989Y0046006D01*
X0252085Y0045894D01*
X0252179Y0045779D01*
X0252270Y0045662D01*
X0252357Y0045543D01*
X0252441Y0045421D01*
X0252522Y0045297D01*
X0252599Y0045171D01*
X0252673Y0045043D01*
X0252744Y0044913D01*
X0252811Y0044781D01*
X0252874Y0044647D01*
X0252934Y0044512D01*
X0252990Y0044375D01*
X0253043Y0044236D01*
X0253091Y0044096D01*
X0253136Y0043955D01*
X0253177Y0043813D01*
X0253215Y0043670D01*
X0253248Y0043526D01*
X0253278Y0043381D01*
X0253304Y0043235D01*
X0253325Y0043089D01*
X0253343Y0042942D01*
X0253357Y0042795D01*
X0253367Y0042647D01*
X0253373Y0042499D01*
X0253375Y0042351D01*
X0253373Y0042203D01*
X0253367Y0042055D01*
X0253357Y0041907D01*
X0253343Y0041760D01*
X0253325Y0041613D01*
X0253304Y0041467D01*
X0253278Y0041321D01*
X0253248Y0041176D01*
X0253215Y0041032D01*
X0253177Y0040889D01*
X0253136Y0040747D01*
X0253091Y0040606D01*
X0253043Y0040466D01*
X0252990Y0040327D01*
X0252934Y0040190D01*
X0252874Y0040055D01*
X0252811Y0039921D01*
X0252744Y0039789D01*
X0252673Y0039659D01*
X0252599Y0039531D01*
X0252522Y0039405D01*
X0252441Y0039281D01*
X0252357Y0039159D01*
X0252270Y0039040D01*
X0252179Y0038923D01*
X0252085Y0038808D01*
X0251989Y0038696D01*
X0251889Y0038586D01*
X0251787Y0038480D01*
X0251681Y0038376D01*
X0251573Y0038275D01*
X0251462Y0038177D01*
X0251349Y0038081D01*
X0251233Y0037989D01*
X0251115Y0037900D01*
X0250994Y0037815D01*
X0250871Y0037732D01*
X0250746Y0037653D01*
X0250619Y0037577D01*
X0250490Y0037505D01*
X0250359Y0037436D01*
X0250226Y0037371D01*
X0250091Y0037310D01*
X0249955Y0037252D01*
X0249818Y0037197D01*
X0249679Y0037147D01*
X0249538Y0037100D01*
X0249397Y0037057D01*
X0249254Y0037017D01*
X0249110Y0036982D01*
X0248966Y0036950D01*
X0248820Y0036923D01*
X0248674Y0036899D01*
X0248527Y0036879D01*
X0248380Y0036863D01*
X0248233Y0036851D01*
X0248085Y0036843D01*
X0247937Y0036839D01*
X0247789Y0036839D01*
X0247641Y0036843D01*
X0247493Y0036851D01*
X0247346Y0036863D01*
X0247199Y0036879D01*
X0247052Y0036899D01*
X0246906Y0036923D01*
X0246760Y0036950D01*
X0246616Y0036982D01*
X0246472Y0037017D01*
X0246329Y0037057D01*
X0246188Y0037100D01*
X0246047Y0037147D01*
X0245908Y0037197D01*
X0245771Y0037252D01*
X0245635Y0037310D01*
X0245500Y0037371D01*
X0245367Y0037436D01*
X0245236Y0037505D01*
X0245107Y0037577D01*
X0244980Y0037653D01*
X0244855Y0037732D01*
X0244732Y0037815D01*
X0244611Y0037900D01*
X0244493Y0037989D01*
X0244377Y0038081D01*
X0244264Y0038177D01*
X0244153Y0038275D01*
X0244045Y0038376D01*
X0243939Y0038480D01*
X0243837Y0038586D01*
X0243737Y0038696D01*
X0243641Y0038808D01*
X0243547Y0038923D01*
X0243456Y0039040D01*
X0243369Y0039159D01*
X0243285Y0039281D01*
X0243204Y0039405D01*
X0243127Y0039531D01*
X0243053Y0039659D01*
X0242982Y0039789D01*
X0242915Y0039921D01*
X0242852Y0040055D01*
X0242792Y0040190D01*
X0242736Y0040327D01*
X0242683Y0040466D01*
X0242635Y0040606D01*
X0242590Y0040747D01*
X0242549Y0040889D01*
X0242511Y0041032D01*
X0242478Y0041176D01*
X0242448Y0041321D01*
X0242422Y0041467D01*
X0242401Y0041613D01*
X0242383Y0041760D01*
X0242369Y0041907D01*
X0242359Y0042055D01*
X0242353Y0042203D01*
X0242351Y0042351D01*
D11*
X0247863Y0042351D03*
X0247863Y0235265D03*
D12*
X0019517Y0235265D03*
X0019517Y0042351D03*
D13*
X0038823Y0034309D03*
X0066323Y0034509D03*
D14*
X0068690Y0230265D03*
X0058690Y0230265D03*
X0058690Y0240265D03*
X0068690Y0240265D03*
X0078690Y0240265D03*
X0088690Y0240265D03*
X0098690Y0240265D03*
X0108690Y0240265D03*
X0118690Y0240265D03*
X0128690Y0240265D03*
X0138690Y0240265D03*
X0148690Y0240265D03*
X0158690Y0240265D03*
X0168690Y0240265D03*
X0178690Y0240265D03*
X0188690Y0240265D03*
X0198690Y0240265D03*
X0208690Y0240265D03*
X0218690Y0240265D03*
X0228690Y0240265D03*
X0228690Y0230265D03*
X0218690Y0230265D03*
X0208690Y0230265D03*
X0198690Y0230265D03*
X0188690Y0230265D03*
X0178690Y0230265D03*
X0168690Y0230265D03*
X0158690Y0230265D03*
X0148690Y0230265D03*
X0138690Y0230265D03*
X0128690Y0230265D03*
X0118690Y0230265D03*
X0108690Y0230265D03*
X0098690Y0230265D03*
X0088690Y0230265D03*
X0078690Y0230265D03*
X0048690Y0230265D03*
X0048690Y0240265D03*
X0038690Y0240265D03*
X0038690Y0230265D03*
D15*
X0027828Y0171131D02*
X0022228Y0171131D01*
X0022228Y0161131D02*
X0027828Y0161131D01*
X0027828Y0151131D02*
X0022228Y0151131D01*
X0022228Y0141131D02*
X0027828Y0141131D01*
X0234433Y0141131D02*
X0240033Y0141131D01*
X0240033Y0151131D02*
X0234433Y0151131D01*
X0234433Y0161131D02*
X0240033Y0161131D01*
X0240033Y0171131D02*
X0234433Y0171131D01*
X0243488Y0100265D02*
X0249088Y0100265D01*
X0249088Y0090265D02*
X0243488Y0090265D01*
X0243488Y0080265D02*
X0249088Y0080265D01*
X0249088Y0070265D02*
X0243488Y0070265D01*
M02*
