G75*
%MOIN*%
%OFA0B0*%
%FSLAX25Y25*%
%IPPOS*%
%LPD*%
%AMOC8*
5,1,8,0,0,1.08239X$1,22.5*
%
%ADD10C,0.00000*%
%ADD11R,0.04500X0.01000*%
%ADD12R,0.01000X0.04500*%
%ADD13R,0.06400X0.03500*%
%ADD14R,0.06400X0.12500*%
%ADD15R,0.02756X0.03543*%
%ADD16R,0.01378X0.05512*%
%ADD17R,0.06087X0.07480*%
%ADD18R,0.07480X0.07480*%
%ADD19C,0.07087*%
%ADD20C,0.07480*%
%ADD21R,0.03543X0.02756*%
%ADD22R,0.07098X0.06299*%
%ADD23R,0.03740X0.03543*%
%ADD24R,0.02500X0.06000*%
%ADD25R,0.20000X0.07000*%
%ADD26OC8,0.06000*%
%ADD27R,0.05906X0.05906*%
%ADD28C,0.05600*%
%ADD29C,0.03937*%
%ADD30R,0.05000X0.02500*%
%ADD31C,0.01600*%
%ADD32OC8,0.03169*%
%ADD33C,0.03200*%
%ADD34C,0.01200*%
%ADD35R,0.03562X0.03562*%
%ADD36C,0.02400*%
D10*
X0017548Y0028572D02*
X0249831Y0028572D01*
X0250116Y0028575D01*
X0250402Y0028586D01*
X0250687Y0028603D01*
X0250971Y0028627D01*
X0251255Y0028658D01*
X0251538Y0028696D01*
X0251819Y0028741D01*
X0252100Y0028792D01*
X0252380Y0028850D01*
X0252658Y0028915D01*
X0252934Y0028987D01*
X0253208Y0029065D01*
X0253481Y0029150D01*
X0253751Y0029242D01*
X0254019Y0029340D01*
X0254285Y0029444D01*
X0254548Y0029555D01*
X0254808Y0029672D01*
X0255066Y0029795D01*
X0255320Y0029925D01*
X0255571Y0030061D01*
X0255819Y0030202D01*
X0256063Y0030350D01*
X0256304Y0030503D01*
X0256540Y0030663D01*
X0256773Y0030828D01*
X0257002Y0030998D01*
X0257227Y0031174D01*
X0257447Y0031356D01*
X0257663Y0031542D01*
X0257874Y0031734D01*
X0258081Y0031931D01*
X0258283Y0032133D01*
X0258480Y0032340D01*
X0258672Y0032551D01*
X0258858Y0032767D01*
X0259040Y0032987D01*
X0259216Y0033212D01*
X0259386Y0033441D01*
X0259551Y0033674D01*
X0259711Y0033910D01*
X0259864Y0034151D01*
X0260012Y0034395D01*
X0260153Y0034643D01*
X0260289Y0034894D01*
X0260419Y0035148D01*
X0260542Y0035406D01*
X0260659Y0035666D01*
X0260770Y0035929D01*
X0260874Y0036195D01*
X0260972Y0036463D01*
X0261064Y0036733D01*
X0261149Y0037006D01*
X0261227Y0037280D01*
X0261299Y0037556D01*
X0261364Y0037834D01*
X0261422Y0038114D01*
X0261473Y0038395D01*
X0261518Y0038676D01*
X0261556Y0038959D01*
X0261587Y0039243D01*
X0261611Y0039527D01*
X0261628Y0039812D01*
X0261639Y0040098D01*
X0261642Y0040383D01*
X0261643Y0040383D02*
X0261643Y0237233D01*
X0261642Y0237233D02*
X0261662Y0237542D01*
X0261675Y0237852D01*
X0261680Y0238162D01*
X0261677Y0238472D01*
X0261668Y0238782D01*
X0261650Y0239092D01*
X0261625Y0239401D01*
X0261593Y0239709D01*
X0261553Y0240017D01*
X0261506Y0240323D01*
X0261451Y0240629D01*
X0261389Y0240933D01*
X0261320Y0241235D01*
X0261244Y0241535D01*
X0261160Y0241834D01*
X0261069Y0242130D01*
X0260971Y0242425D01*
X0260865Y0242716D01*
X0260753Y0243005D01*
X0260634Y0243292D01*
X0260508Y0243575D01*
X0260375Y0243855D01*
X0260235Y0244132D01*
X0260089Y0244406D01*
X0259936Y0244675D01*
X0259777Y0244942D01*
X0259611Y0245204D01*
X0259439Y0245462D01*
X0259261Y0245716D01*
X0259077Y0245965D01*
X0258887Y0246210D01*
X0258691Y0246450D01*
X0258489Y0246686D01*
X0258281Y0246916D01*
X0258069Y0247142D01*
X0257850Y0247362D01*
X0257627Y0247577D01*
X0257398Y0247786D01*
X0257164Y0247990D01*
X0256926Y0248188D01*
X0256682Y0248380D01*
X0256434Y0248567D01*
X0256182Y0248747D01*
X0255925Y0248921D01*
X0255665Y0249089D01*
X0255400Y0249251D01*
X0255131Y0249406D01*
X0254859Y0249554D01*
X0254584Y0249696D01*
X0254305Y0249832D01*
X0254022Y0249960D01*
X0253737Y0250082D01*
X0253449Y0250197D01*
X0253158Y0250304D01*
X0252865Y0250405D01*
X0252569Y0250498D01*
X0252271Y0250585D01*
X0251971Y0250664D01*
X0251670Y0250736D01*
X0251366Y0250800D01*
X0251062Y0250857D01*
X0250755Y0250907D01*
X0250448Y0250950D01*
X0250140Y0250985D01*
X0249831Y0251012D01*
X0249831Y0251013D02*
X0017548Y0251013D01*
X0017548Y0251012D02*
X0017239Y0250985D01*
X0016931Y0250950D01*
X0016624Y0250907D01*
X0016317Y0250857D01*
X0016013Y0250800D01*
X0015709Y0250736D01*
X0015408Y0250664D01*
X0015108Y0250585D01*
X0014810Y0250498D01*
X0014514Y0250405D01*
X0014221Y0250304D01*
X0013930Y0250197D01*
X0013642Y0250082D01*
X0013357Y0249960D01*
X0013074Y0249832D01*
X0012795Y0249696D01*
X0012520Y0249554D01*
X0012248Y0249406D01*
X0011979Y0249251D01*
X0011714Y0249089D01*
X0011454Y0248921D01*
X0011197Y0248747D01*
X0010945Y0248567D01*
X0010697Y0248380D01*
X0010453Y0248188D01*
X0010215Y0247990D01*
X0009981Y0247786D01*
X0009752Y0247577D01*
X0009529Y0247362D01*
X0009310Y0247142D01*
X0009098Y0246916D01*
X0008890Y0246686D01*
X0008688Y0246450D01*
X0008492Y0246210D01*
X0008302Y0245965D01*
X0008118Y0245716D01*
X0007940Y0245462D01*
X0007768Y0245204D01*
X0007602Y0244942D01*
X0007443Y0244675D01*
X0007290Y0244406D01*
X0007144Y0244132D01*
X0007004Y0243855D01*
X0006871Y0243575D01*
X0006745Y0243292D01*
X0006626Y0243005D01*
X0006514Y0242716D01*
X0006408Y0242425D01*
X0006310Y0242130D01*
X0006219Y0241834D01*
X0006135Y0241535D01*
X0006059Y0241235D01*
X0005990Y0240933D01*
X0005928Y0240629D01*
X0005873Y0240323D01*
X0005826Y0240017D01*
X0005786Y0239709D01*
X0005754Y0239401D01*
X0005729Y0239092D01*
X0005711Y0238782D01*
X0005702Y0238472D01*
X0005699Y0238162D01*
X0005704Y0237852D01*
X0005717Y0237542D01*
X0005737Y0237233D01*
X0005737Y0040383D01*
X0005740Y0040098D01*
X0005751Y0039812D01*
X0005768Y0039527D01*
X0005792Y0039243D01*
X0005823Y0038959D01*
X0005861Y0038676D01*
X0005906Y0038395D01*
X0005957Y0038114D01*
X0006015Y0037834D01*
X0006080Y0037556D01*
X0006152Y0037280D01*
X0006230Y0037006D01*
X0006315Y0036733D01*
X0006407Y0036463D01*
X0006505Y0036195D01*
X0006609Y0035929D01*
X0006720Y0035666D01*
X0006837Y0035406D01*
X0006960Y0035148D01*
X0007090Y0034894D01*
X0007226Y0034643D01*
X0007367Y0034395D01*
X0007515Y0034151D01*
X0007668Y0033910D01*
X0007828Y0033674D01*
X0007993Y0033441D01*
X0008163Y0033212D01*
X0008339Y0032987D01*
X0008521Y0032767D01*
X0008707Y0032551D01*
X0008899Y0032340D01*
X0009096Y0032133D01*
X0009298Y0031931D01*
X0009505Y0031734D01*
X0009716Y0031542D01*
X0009932Y0031356D01*
X0010152Y0031174D01*
X0010377Y0030998D01*
X0010606Y0030828D01*
X0010839Y0030663D01*
X0011075Y0030503D01*
X0011316Y0030350D01*
X0011560Y0030202D01*
X0011808Y0030061D01*
X0012059Y0029925D01*
X0012313Y0029795D01*
X0012571Y0029672D01*
X0012831Y0029555D01*
X0013094Y0029444D01*
X0013360Y0029340D01*
X0013628Y0029242D01*
X0013898Y0029150D01*
X0014171Y0029065D01*
X0014445Y0028987D01*
X0014721Y0028915D01*
X0014999Y0028850D01*
X0015279Y0028792D01*
X0015560Y0028741D01*
X0015841Y0028696D01*
X0016124Y0028658D01*
X0016408Y0028627D01*
X0016692Y0028603D01*
X0016977Y0028586D01*
X0017263Y0028575D01*
X0017548Y0028572D01*
X0014104Y0042351D02*
X0014106Y0042498D01*
X0014112Y0042644D01*
X0014122Y0042790D01*
X0014136Y0042936D01*
X0014154Y0043082D01*
X0014175Y0043227D01*
X0014201Y0043371D01*
X0014231Y0043515D01*
X0014264Y0043657D01*
X0014301Y0043799D01*
X0014342Y0043940D01*
X0014387Y0044079D01*
X0014436Y0044218D01*
X0014488Y0044355D01*
X0014545Y0044490D01*
X0014604Y0044624D01*
X0014668Y0044756D01*
X0014735Y0044886D01*
X0014805Y0045015D01*
X0014879Y0045142D01*
X0014956Y0045266D01*
X0015037Y0045389D01*
X0015121Y0045509D01*
X0015208Y0045627D01*
X0015298Y0045742D01*
X0015391Y0045855D01*
X0015488Y0045966D01*
X0015587Y0046074D01*
X0015689Y0046179D01*
X0015794Y0046281D01*
X0015902Y0046380D01*
X0016013Y0046477D01*
X0016126Y0046570D01*
X0016241Y0046660D01*
X0016359Y0046747D01*
X0016479Y0046831D01*
X0016602Y0046912D01*
X0016726Y0046989D01*
X0016853Y0047063D01*
X0016982Y0047133D01*
X0017112Y0047200D01*
X0017244Y0047264D01*
X0017378Y0047323D01*
X0017513Y0047380D01*
X0017650Y0047432D01*
X0017789Y0047481D01*
X0017928Y0047526D01*
X0018069Y0047567D01*
X0018211Y0047604D01*
X0018353Y0047637D01*
X0018497Y0047667D01*
X0018641Y0047693D01*
X0018786Y0047714D01*
X0018932Y0047732D01*
X0019078Y0047746D01*
X0019224Y0047756D01*
X0019370Y0047762D01*
X0019517Y0047764D01*
X0019664Y0047762D01*
X0019810Y0047756D01*
X0019956Y0047746D01*
X0020102Y0047732D01*
X0020248Y0047714D01*
X0020393Y0047693D01*
X0020537Y0047667D01*
X0020681Y0047637D01*
X0020823Y0047604D01*
X0020965Y0047567D01*
X0021106Y0047526D01*
X0021245Y0047481D01*
X0021384Y0047432D01*
X0021521Y0047380D01*
X0021656Y0047323D01*
X0021790Y0047264D01*
X0021922Y0047200D01*
X0022052Y0047133D01*
X0022181Y0047063D01*
X0022308Y0046989D01*
X0022432Y0046912D01*
X0022555Y0046831D01*
X0022675Y0046747D01*
X0022793Y0046660D01*
X0022908Y0046570D01*
X0023021Y0046477D01*
X0023132Y0046380D01*
X0023240Y0046281D01*
X0023345Y0046179D01*
X0023447Y0046074D01*
X0023546Y0045966D01*
X0023643Y0045855D01*
X0023736Y0045742D01*
X0023826Y0045627D01*
X0023913Y0045509D01*
X0023997Y0045389D01*
X0024078Y0045266D01*
X0024155Y0045142D01*
X0024229Y0045015D01*
X0024299Y0044886D01*
X0024366Y0044756D01*
X0024430Y0044624D01*
X0024489Y0044490D01*
X0024546Y0044355D01*
X0024598Y0044218D01*
X0024647Y0044079D01*
X0024692Y0043940D01*
X0024733Y0043799D01*
X0024770Y0043657D01*
X0024803Y0043515D01*
X0024833Y0043371D01*
X0024859Y0043227D01*
X0024880Y0043082D01*
X0024898Y0042936D01*
X0024912Y0042790D01*
X0024922Y0042644D01*
X0024928Y0042498D01*
X0024930Y0042351D01*
X0024928Y0042204D01*
X0024922Y0042058D01*
X0024912Y0041912D01*
X0024898Y0041766D01*
X0024880Y0041620D01*
X0024859Y0041475D01*
X0024833Y0041331D01*
X0024803Y0041187D01*
X0024770Y0041045D01*
X0024733Y0040903D01*
X0024692Y0040762D01*
X0024647Y0040623D01*
X0024598Y0040484D01*
X0024546Y0040347D01*
X0024489Y0040212D01*
X0024430Y0040078D01*
X0024366Y0039946D01*
X0024299Y0039816D01*
X0024229Y0039687D01*
X0024155Y0039560D01*
X0024078Y0039436D01*
X0023997Y0039313D01*
X0023913Y0039193D01*
X0023826Y0039075D01*
X0023736Y0038960D01*
X0023643Y0038847D01*
X0023546Y0038736D01*
X0023447Y0038628D01*
X0023345Y0038523D01*
X0023240Y0038421D01*
X0023132Y0038322D01*
X0023021Y0038225D01*
X0022908Y0038132D01*
X0022793Y0038042D01*
X0022675Y0037955D01*
X0022555Y0037871D01*
X0022432Y0037790D01*
X0022308Y0037713D01*
X0022181Y0037639D01*
X0022052Y0037569D01*
X0021922Y0037502D01*
X0021790Y0037438D01*
X0021656Y0037379D01*
X0021521Y0037322D01*
X0021384Y0037270D01*
X0021245Y0037221D01*
X0021106Y0037176D01*
X0020965Y0037135D01*
X0020823Y0037098D01*
X0020681Y0037065D01*
X0020537Y0037035D01*
X0020393Y0037009D01*
X0020248Y0036988D01*
X0020102Y0036970D01*
X0019956Y0036956D01*
X0019810Y0036946D01*
X0019664Y0036940D01*
X0019517Y0036938D01*
X0019370Y0036940D01*
X0019224Y0036946D01*
X0019078Y0036956D01*
X0018932Y0036970D01*
X0018786Y0036988D01*
X0018641Y0037009D01*
X0018497Y0037035D01*
X0018353Y0037065D01*
X0018211Y0037098D01*
X0018069Y0037135D01*
X0017928Y0037176D01*
X0017789Y0037221D01*
X0017650Y0037270D01*
X0017513Y0037322D01*
X0017378Y0037379D01*
X0017244Y0037438D01*
X0017112Y0037502D01*
X0016982Y0037569D01*
X0016853Y0037639D01*
X0016726Y0037713D01*
X0016602Y0037790D01*
X0016479Y0037871D01*
X0016359Y0037955D01*
X0016241Y0038042D01*
X0016126Y0038132D01*
X0016013Y0038225D01*
X0015902Y0038322D01*
X0015794Y0038421D01*
X0015689Y0038523D01*
X0015587Y0038628D01*
X0015488Y0038736D01*
X0015391Y0038847D01*
X0015298Y0038960D01*
X0015208Y0039075D01*
X0015121Y0039193D01*
X0015037Y0039313D01*
X0014956Y0039436D01*
X0014879Y0039560D01*
X0014805Y0039687D01*
X0014735Y0039816D01*
X0014668Y0039946D01*
X0014604Y0040078D01*
X0014545Y0040212D01*
X0014488Y0040347D01*
X0014436Y0040484D01*
X0014387Y0040623D01*
X0014342Y0040762D01*
X0014301Y0040903D01*
X0014264Y0041045D01*
X0014231Y0041187D01*
X0014201Y0041331D01*
X0014175Y0041475D01*
X0014154Y0041620D01*
X0014136Y0041766D01*
X0014122Y0041912D01*
X0014112Y0042058D01*
X0014106Y0042204D01*
X0014104Y0042351D01*
X0014104Y0235265D02*
X0014106Y0235412D01*
X0014112Y0235558D01*
X0014122Y0235704D01*
X0014136Y0235850D01*
X0014154Y0235996D01*
X0014175Y0236141D01*
X0014201Y0236285D01*
X0014231Y0236429D01*
X0014264Y0236571D01*
X0014301Y0236713D01*
X0014342Y0236854D01*
X0014387Y0236993D01*
X0014436Y0237132D01*
X0014488Y0237269D01*
X0014545Y0237404D01*
X0014604Y0237538D01*
X0014668Y0237670D01*
X0014735Y0237800D01*
X0014805Y0237929D01*
X0014879Y0238056D01*
X0014956Y0238180D01*
X0015037Y0238303D01*
X0015121Y0238423D01*
X0015208Y0238541D01*
X0015298Y0238656D01*
X0015391Y0238769D01*
X0015488Y0238880D01*
X0015587Y0238988D01*
X0015689Y0239093D01*
X0015794Y0239195D01*
X0015902Y0239294D01*
X0016013Y0239391D01*
X0016126Y0239484D01*
X0016241Y0239574D01*
X0016359Y0239661D01*
X0016479Y0239745D01*
X0016602Y0239826D01*
X0016726Y0239903D01*
X0016853Y0239977D01*
X0016982Y0240047D01*
X0017112Y0240114D01*
X0017244Y0240178D01*
X0017378Y0240237D01*
X0017513Y0240294D01*
X0017650Y0240346D01*
X0017789Y0240395D01*
X0017928Y0240440D01*
X0018069Y0240481D01*
X0018211Y0240518D01*
X0018353Y0240551D01*
X0018497Y0240581D01*
X0018641Y0240607D01*
X0018786Y0240628D01*
X0018932Y0240646D01*
X0019078Y0240660D01*
X0019224Y0240670D01*
X0019370Y0240676D01*
X0019517Y0240678D01*
X0019664Y0240676D01*
X0019810Y0240670D01*
X0019956Y0240660D01*
X0020102Y0240646D01*
X0020248Y0240628D01*
X0020393Y0240607D01*
X0020537Y0240581D01*
X0020681Y0240551D01*
X0020823Y0240518D01*
X0020965Y0240481D01*
X0021106Y0240440D01*
X0021245Y0240395D01*
X0021384Y0240346D01*
X0021521Y0240294D01*
X0021656Y0240237D01*
X0021790Y0240178D01*
X0021922Y0240114D01*
X0022052Y0240047D01*
X0022181Y0239977D01*
X0022308Y0239903D01*
X0022432Y0239826D01*
X0022555Y0239745D01*
X0022675Y0239661D01*
X0022793Y0239574D01*
X0022908Y0239484D01*
X0023021Y0239391D01*
X0023132Y0239294D01*
X0023240Y0239195D01*
X0023345Y0239093D01*
X0023447Y0238988D01*
X0023546Y0238880D01*
X0023643Y0238769D01*
X0023736Y0238656D01*
X0023826Y0238541D01*
X0023913Y0238423D01*
X0023997Y0238303D01*
X0024078Y0238180D01*
X0024155Y0238056D01*
X0024229Y0237929D01*
X0024299Y0237800D01*
X0024366Y0237670D01*
X0024430Y0237538D01*
X0024489Y0237404D01*
X0024546Y0237269D01*
X0024598Y0237132D01*
X0024647Y0236993D01*
X0024692Y0236854D01*
X0024733Y0236713D01*
X0024770Y0236571D01*
X0024803Y0236429D01*
X0024833Y0236285D01*
X0024859Y0236141D01*
X0024880Y0235996D01*
X0024898Y0235850D01*
X0024912Y0235704D01*
X0024922Y0235558D01*
X0024928Y0235412D01*
X0024930Y0235265D01*
X0024928Y0235118D01*
X0024922Y0234972D01*
X0024912Y0234826D01*
X0024898Y0234680D01*
X0024880Y0234534D01*
X0024859Y0234389D01*
X0024833Y0234245D01*
X0024803Y0234101D01*
X0024770Y0233959D01*
X0024733Y0233817D01*
X0024692Y0233676D01*
X0024647Y0233537D01*
X0024598Y0233398D01*
X0024546Y0233261D01*
X0024489Y0233126D01*
X0024430Y0232992D01*
X0024366Y0232860D01*
X0024299Y0232730D01*
X0024229Y0232601D01*
X0024155Y0232474D01*
X0024078Y0232350D01*
X0023997Y0232227D01*
X0023913Y0232107D01*
X0023826Y0231989D01*
X0023736Y0231874D01*
X0023643Y0231761D01*
X0023546Y0231650D01*
X0023447Y0231542D01*
X0023345Y0231437D01*
X0023240Y0231335D01*
X0023132Y0231236D01*
X0023021Y0231139D01*
X0022908Y0231046D01*
X0022793Y0230956D01*
X0022675Y0230869D01*
X0022555Y0230785D01*
X0022432Y0230704D01*
X0022308Y0230627D01*
X0022181Y0230553D01*
X0022052Y0230483D01*
X0021922Y0230416D01*
X0021790Y0230352D01*
X0021656Y0230293D01*
X0021521Y0230236D01*
X0021384Y0230184D01*
X0021245Y0230135D01*
X0021106Y0230090D01*
X0020965Y0230049D01*
X0020823Y0230012D01*
X0020681Y0229979D01*
X0020537Y0229949D01*
X0020393Y0229923D01*
X0020248Y0229902D01*
X0020102Y0229884D01*
X0019956Y0229870D01*
X0019810Y0229860D01*
X0019664Y0229854D01*
X0019517Y0229852D01*
X0019370Y0229854D01*
X0019224Y0229860D01*
X0019078Y0229870D01*
X0018932Y0229884D01*
X0018786Y0229902D01*
X0018641Y0229923D01*
X0018497Y0229949D01*
X0018353Y0229979D01*
X0018211Y0230012D01*
X0018069Y0230049D01*
X0017928Y0230090D01*
X0017789Y0230135D01*
X0017650Y0230184D01*
X0017513Y0230236D01*
X0017378Y0230293D01*
X0017244Y0230352D01*
X0017112Y0230416D01*
X0016982Y0230483D01*
X0016853Y0230553D01*
X0016726Y0230627D01*
X0016602Y0230704D01*
X0016479Y0230785D01*
X0016359Y0230869D01*
X0016241Y0230956D01*
X0016126Y0231046D01*
X0016013Y0231139D01*
X0015902Y0231236D01*
X0015794Y0231335D01*
X0015689Y0231437D01*
X0015587Y0231542D01*
X0015488Y0231650D01*
X0015391Y0231761D01*
X0015298Y0231874D01*
X0015208Y0231989D01*
X0015121Y0232107D01*
X0015037Y0232227D01*
X0014956Y0232350D01*
X0014879Y0232474D01*
X0014805Y0232601D01*
X0014735Y0232730D01*
X0014668Y0232860D01*
X0014604Y0232992D01*
X0014545Y0233126D01*
X0014488Y0233261D01*
X0014436Y0233398D01*
X0014387Y0233537D01*
X0014342Y0233676D01*
X0014301Y0233817D01*
X0014264Y0233959D01*
X0014231Y0234101D01*
X0014201Y0234245D01*
X0014175Y0234389D01*
X0014154Y0234534D01*
X0014136Y0234680D01*
X0014122Y0234826D01*
X0014112Y0234972D01*
X0014106Y0235118D01*
X0014104Y0235265D01*
X0242351Y0235265D02*
X0242353Y0235413D01*
X0242359Y0235561D01*
X0242369Y0235709D01*
X0242383Y0235856D01*
X0242401Y0236003D01*
X0242422Y0236149D01*
X0242448Y0236295D01*
X0242478Y0236440D01*
X0242511Y0236584D01*
X0242549Y0236727D01*
X0242590Y0236869D01*
X0242635Y0237010D01*
X0242683Y0237150D01*
X0242736Y0237289D01*
X0242792Y0237426D01*
X0242852Y0237561D01*
X0242915Y0237695D01*
X0242982Y0237827D01*
X0243053Y0237957D01*
X0243127Y0238085D01*
X0243204Y0238211D01*
X0243285Y0238335D01*
X0243369Y0238457D01*
X0243456Y0238576D01*
X0243547Y0238693D01*
X0243641Y0238808D01*
X0243737Y0238920D01*
X0243837Y0239030D01*
X0243939Y0239136D01*
X0244045Y0239240D01*
X0244153Y0239341D01*
X0244264Y0239439D01*
X0244377Y0239535D01*
X0244493Y0239627D01*
X0244611Y0239716D01*
X0244732Y0239801D01*
X0244855Y0239884D01*
X0244980Y0239963D01*
X0245107Y0240039D01*
X0245236Y0240111D01*
X0245367Y0240180D01*
X0245500Y0240245D01*
X0245635Y0240306D01*
X0245771Y0240364D01*
X0245908Y0240419D01*
X0246047Y0240469D01*
X0246188Y0240516D01*
X0246329Y0240559D01*
X0246472Y0240599D01*
X0246616Y0240634D01*
X0246760Y0240666D01*
X0246906Y0240693D01*
X0247052Y0240717D01*
X0247199Y0240737D01*
X0247346Y0240753D01*
X0247493Y0240765D01*
X0247641Y0240773D01*
X0247789Y0240777D01*
X0247937Y0240777D01*
X0248085Y0240773D01*
X0248233Y0240765D01*
X0248380Y0240753D01*
X0248527Y0240737D01*
X0248674Y0240717D01*
X0248820Y0240693D01*
X0248966Y0240666D01*
X0249110Y0240634D01*
X0249254Y0240599D01*
X0249397Y0240559D01*
X0249538Y0240516D01*
X0249679Y0240469D01*
X0249818Y0240419D01*
X0249955Y0240364D01*
X0250091Y0240306D01*
X0250226Y0240245D01*
X0250359Y0240180D01*
X0250490Y0240111D01*
X0250619Y0240039D01*
X0250746Y0239963D01*
X0250871Y0239884D01*
X0250994Y0239801D01*
X0251115Y0239716D01*
X0251233Y0239627D01*
X0251349Y0239535D01*
X0251462Y0239439D01*
X0251573Y0239341D01*
X0251681Y0239240D01*
X0251787Y0239136D01*
X0251889Y0239030D01*
X0251989Y0238920D01*
X0252085Y0238808D01*
X0252179Y0238693D01*
X0252270Y0238576D01*
X0252357Y0238457D01*
X0252441Y0238335D01*
X0252522Y0238211D01*
X0252599Y0238085D01*
X0252673Y0237957D01*
X0252744Y0237827D01*
X0252811Y0237695D01*
X0252874Y0237561D01*
X0252934Y0237426D01*
X0252990Y0237289D01*
X0253043Y0237150D01*
X0253091Y0237010D01*
X0253136Y0236869D01*
X0253177Y0236727D01*
X0253215Y0236584D01*
X0253248Y0236440D01*
X0253278Y0236295D01*
X0253304Y0236149D01*
X0253325Y0236003D01*
X0253343Y0235856D01*
X0253357Y0235709D01*
X0253367Y0235561D01*
X0253373Y0235413D01*
X0253375Y0235265D01*
X0253373Y0235117D01*
X0253367Y0234969D01*
X0253357Y0234821D01*
X0253343Y0234674D01*
X0253325Y0234527D01*
X0253304Y0234381D01*
X0253278Y0234235D01*
X0253248Y0234090D01*
X0253215Y0233946D01*
X0253177Y0233803D01*
X0253136Y0233661D01*
X0253091Y0233520D01*
X0253043Y0233380D01*
X0252990Y0233241D01*
X0252934Y0233104D01*
X0252874Y0232969D01*
X0252811Y0232835D01*
X0252744Y0232703D01*
X0252673Y0232573D01*
X0252599Y0232445D01*
X0252522Y0232319D01*
X0252441Y0232195D01*
X0252357Y0232073D01*
X0252270Y0231954D01*
X0252179Y0231837D01*
X0252085Y0231722D01*
X0251989Y0231610D01*
X0251889Y0231500D01*
X0251787Y0231394D01*
X0251681Y0231290D01*
X0251573Y0231189D01*
X0251462Y0231091D01*
X0251349Y0230995D01*
X0251233Y0230903D01*
X0251115Y0230814D01*
X0250994Y0230729D01*
X0250871Y0230646D01*
X0250746Y0230567D01*
X0250619Y0230491D01*
X0250490Y0230419D01*
X0250359Y0230350D01*
X0250226Y0230285D01*
X0250091Y0230224D01*
X0249955Y0230166D01*
X0249818Y0230111D01*
X0249679Y0230061D01*
X0249538Y0230014D01*
X0249397Y0229971D01*
X0249254Y0229931D01*
X0249110Y0229896D01*
X0248966Y0229864D01*
X0248820Y0229837D01*
X0248674Y0229813D01*
X0248527Y0229793D01*
X0248380Y0229777D01*
X0248233Y0229765D01*
X0248085Y0229757D01*
X0247937Y0229753D01*
X0247789Y0229753D01*
X0247641Y0229757D01*
X0247493Y0229765D01*
X0247346Y0229777D01*
X0247199Y0229793D01*
X0247052Y0229813D01*
X0246906Y0229837D01*
X0246760Y0229864D01*
X0246616Y0229896D01*
X0246472Y0229931D01*
X0246329Y0229971D01*
X0246188Y0230014D01*
X0246047Y0230061D01*
X0245908Y0230111D01*
X0245771Y0230166D01*
X0245635Y0230224D01*
X0245500Y0230285D01*
X0245367Y0230350D01*
X0245236Y0230419D01*
X0245107Y0230491D01*
X0244980Y0230567D01*
X0244855Y0230646D01*
X0244732Y0230729D01*
X0244611Y0230814D01*
X0244493Y0230903D01*
X0244377Y0230995D01*
X0244264Y0231091D01*
X0244153Y0231189D01*
X0244045Y0231290D01*
X0243939Y0231394D01*
X0243837Y0231500D01*
X0243737Y0231610D01*
X0243641Y0231722D01*
X0243547Y0231837D01*
X0243456Y0231954D01*
X0243369Y0232073D01*
X0243285Y0232195D01*
X0243204Y0232319D01*
X0243127Y0232445D01*
X0243053Y0232573D01*
X0242982Y0232703D01*
X0242915Y0232835D01*
X0242852Y0232969D01*
X0242792Y0233104D01*
X0242736Y0233241D01*
X0242683Y0233380D01*
X0242635Y0233520D01*
X0242590Y0233661D01*
X0242549Y0233803D01*
X0242511Y0233946D01*
X0242478Y0234090D01*
X0242448Y0234235D01*
X0242422Y0234381D01*
X0242401Y0234527D01*
X0242383Y0234674D01*
X0242369Y0234821D01*
X0242359Y0234969D01*
X0242353Y0235117D01*
X0242351Y0235265D01*
X0242351Y0042351D02*
X0242353Y0042499D01*
X0242359Y0042647D01*
X0242369Y0042795D01*
X0242383Y0042942D01*
X0242401Y0043089D01*
X0242422Y0043235D01*
X0242448Y0043381D01*
X0242478Y0043526D01*
X0242511Y0043670D01*
X0242549Y0043813D01*
X0242590Y0043955D01*
X0242635Y0044096D01*
X0242683Y0044236D01*
X0242736Y0044375D01*
X0242792Y0044512D01*
X0242852Y0044647D01*
X0242915Y0044781D01*
X0242982Y0044913D01*
X0243053Y0045043D01*
X0243127Y0045171D01*
X0243204Y0045297D01*
X0243285Y0045421D01*
X0243369Y0045543D01*
X0243456Y0045662D01*
X0243547Y0045779D01*
X0243641Y0045894D01*
X0243737Y0046006D01*
X0243837Y0046116D01*
X0243939Y0046222D01*
X0244045Y0046326D01*
X0244153Y0046427D01*
X0244264Y0046525D01*
X0244377Y0046621D01*
X0244493Y0046713D01*
X0244611Y0046802D01*
X0244732Y0046887D01*
X0244855Y0046970D01*
X0244980Y0047049D01*
X0245107Y0047125D01*
X0245236Y0047197D01*
X0245367Y0047266D01*
X0245500Y0047331D01*
X0245635Y0047392D01*
X0245771Y0047450D01*
X0245908Y0047505D01*
X0246047Y0047555D01*
X0246188Y0047602D01*
X0246329Y0047645D01*
X0246472Y0047685D01*
X0246616Y0047720D01*
X0246760Y0047752D01*
X0246906Y0047779D01*
X0247052Y0047803D01*
X0247199Y0047823D01*
X0247346Y0047839D01*
X0247493Y0047851D01*
X0247641Y0047859D01*
X0247789Y0047863D01*
X0247937Y0047863D01*
X0248085Y0047859D01*
X0248233Y0047851D01*
X0248380Y0047839D01*
X0248527Y0047823D01*
X0248674Y0047803D01*
X0248820Y0047779D01*
X0248966Y0047752D01*
X0249110Y0047720D01*
X0249254Y0047685D01*
X0249397Y0047645D01*
X0249538Y0047602D01*
X0249679Y0047555D01*
X0249818Y0047505D01*
X0249955Y0047450D01*
X0250091Y0047392D01*
X0250226Y0047331D01*
X0250359Y0047266D01*
X0250490Y0047197D01*
X0250619Y0047125D01*
X0250746Y0047049D01*
X0250871Y0046970D01*
X0250994Y0046887D01*
X0251115Y0046802D01*
X0251233Y0046713D01*
X0251349Y0046621D01*
X0251462Y0046525D01*
X0251573Y0046427D01*
X0251681Y0046326D01*
X0251787Y0046222D01*
X0251889Y0046116D01*
X0251989Y0046006D01*
X0252085Y0045894D01*
X0252179Y0045779D01*
X0252270Y0045662D01*
X0252357Y0045543D01*
X0252441Y0045421D01*
X0252522Y0045297D01*
X0252599Y0045171D01*
X0252673Y0045043D01*
X0252744Y0044913D01*
X0252811Y0044781D01*
X0252874Y0044647D01*
X0252934Y0044512D01*
X0252990Y0044375D01*
X0253043Y0044236D01*
X0253091Y0044096D01*
X0253136Y0043955D01*
X0253177Y0043813D01*
X0253215Y0043670D01*
X0253248Y0043526D01*
X0253278Y0043381D01*
X0253304Y0043235D01*
X0253325Y0043089D01*
X0253343Y0042942D01*
X0253357Y0042795D01*
X0253367Y0042647D01*
X0253373Y0042499D01*
X0253375Y0042351D01*
X0253373Y0042203D01*
X0253367Y0042055D01*
X0253357Y0041907D01*
X0253343Y0041760D01*
X0253325Y0041613D01*
X0253304Y0041467D01*
X0253278Y0041321D01*
X0253248Y0041176D01*
X0253215Y0041032D01*
X0253177Y0040889D01*
X0253136Y0040747D01*
X0253091Y0040606D01*
X0253043Y0040466D01*
X0252990Y0040327D01*
X0252934Y0040190D01*
X0252874Y0040055D01*
X0252811Y0039921D01*
X0252744Y0039789D01*
X0252673Y0039659D01*
X0252599Y0039531D01*
X0252522Y0039405D01*
X0252441Y0039281D01*
X0252357Y0039159D01*
X0252270Y0039040D01*
X0252179Y0038923D01*
X0252085Y0038808D01*
X0251989Y0038696D01*
X0251889Y0038586D01*
X0251787Y0038480D01*
X0251681Y0038376D01*
X0251573Y0038275D01*
X0251462Y0038177D01*
X0251349Y0038081D01*
X0251233Y0037989D01*
X0251115Y0037900D01*
X0250994Y0037815D01*
X0250871Y0037732D01*
X0250746Y0037653D01*
X0250619Y0037577D01*
X0250490Y0037505D01*
X0250359Y0037436D01*
X0250226Y0037371D01*
X0250091Y0037310D01*
X0249955Y0037252D01*
X0249818Y0037197D01*
X0249679Y0037147D01*
X0249538Y0037100D01*
X0249397Y0037057D01*
X0249254Y0037017D01*
X0249110Y0036982D01*
X0248966Y0036950D01*
X0248820Y0036923D01*
X0248674Y0036899D01*
X0248527Y0036879D01*
X0248380Y0036863D01*
X0248233Y0036851D01*
X0248085Y0036843D01*
X0247937Y0036839D01*
X0247789Y0036839D01*
X0247641Y0036843D01*
X0247493Y0036851D01*
X0247346Y0036863D01*
X0247199Y0036879D01*
X0247052Y0036899D01*
X0246906Y0036923D01*
X0246760Y0036950D01*
X0246616Y0036982D01*
X0246472Y0037017D01*
X0246329Y0037057D01*
X0246188Y0037100D01*
X0246047Y0037147D01*
X0245908Y0037197D01*
X0245771Y0037252D01*
X0245635Y0037310D01*
X0245500Y0037371D01*
X0245367Y0037436D01*
X0245236Y0037505D01*
X0245107Y0037577D01*
X0244980Y0037653D01*
X0244855Y0037732D01*
X0244732Y0037815D01*
X0244611Y0037900D01*
X0244493Y0037989D01*
X0244377Y0038081D01*
X0244264Y0038177D01*
X0244153Y0038275D01*
X0244045Y0038376D01*
X0243939Y0038480D01*
X0243837Y0038586D01*
X0243737Y0038696D01*
X0243641Y0038808D01*
X0243547Y0038923D01*
X0243456Y0039040D01*
X0243369Y0039159D01*
X0243285Y0039281D01*
X0243204Y0039405D01*
X0243127Y0039531D01*
X0243053Y0039659D01*
X0242982Y0039789D01*
X0242915Y0039921D01*
X0242852Y0040055D01*
X0242792Y0040190D01*
X0242736Y0040327D01*
X0242683Y0040466D01*
X0242635Y0040606D01*
X0242590Y0040747D01*
X0242549Y0040889D01*
X0242511Y0041032D01*
X0242478Y0041176D01*
X0242448Y0041321D01*
X0242422Y0041467D01*
X0242401Y0041613D01*
X0242383Y0041760D01*
X0242369Y0041907D01*
X0242359Y0042055D01*
X0242353Y0042203D01*
X0242351Y0042351D01*
D11*
X0150422Y0128965D03*
X0150422Y0130934D03*
X0150422Y0132902D03*
X0150422Y0134871D03*
X0150422Y0136839D03*
X0150422Y0138808D03*
X0150422Y0140776D03*
X0150422Y0142745D03*
X0150422Y0144713D03*
X0150422Y0146682D03*
X0150422Y0148650D03*
X0150422Y0150619D03*
X0116957Y0150619D03*
X0116957Y0148650D03*
X0116957Y0146682D03*
X0116957Y0144713D03*
X0116957Y0142745D03*
X0116957Y0140776D03*
X0116957Y0138808D03*
X0116957Y0136839D03*
X0116957Y0134871D03*
X0116957Y0132902D03*
X0116957Y0130934D03*
X0116957Y0128965D03*
D12*
X0122863Y0123060D03*
X0124831Y0123060D03*
X0126800Y0123060D03*
X0128769Y0123060D03*
X0130737Y0123060D03*
X0132706Y0123060D03*
X0134674Y0123060D03*
X0136643Y0123060D03*
X0138611Y0123060D03*
X0140580Y0123060D03*
X0142548Y0123060D03*
X0144517Y0123060D03*
X0144517Y0156524D03*
X0142548Y0156524D03*
X0140580Y0156524D03*
X0138611Y0156524D03*
X0136643Y0156524D03*
X0134674Y0156524D03*
X0132706Y0156524D03*
X0130737Y0156524D03*
X0128769Y0156524D03*
X0126800Y0156524D03*
X0124831Y0156524D03*
X0122863Y0156524D03*
D13*
X0040187Y0092372D03*
X0040187Y0083272D03*
X0040187Y0074172D03*
D14*
X0014987Y0083272D03*
D15*
X0035855Y0064005D03*
X0040973Y0064005D03*
X0058709Y0083202D03*
X0063828Y0083202D03*
X0029450Y0104083D03*
X0024331Y0104083D03*
X0113414Y0049217D03*
X0118532Y0049217D03*
X0200028Y0049001D03*
X0205146Y0049001D03*
X0026013Y0191957D03*
X0020894Y0191957D03*
X0020894Y0203769D03*
X0026013Y0203769D03*
D16*
X0047505Y0044942D03*
X0050064Y0044942D03*
X0052623Y0044942D03*
X0055182Y0044942D03*
X0057741Y0044942D03*
D17*
X0065323Y0043509D03*
X0039823Y0043309D03*
D18*
X0047923Y0034509D03*
X0057223Y0034509D03*
D19*
X0066323Y0034509D03*
X0038823Y0034309D03*
D20*
X0038823Y0034309D03*
X0066323Y0034609D03*
D21*
X0251036Y0143808D03*
X0251036Y0148926D03*
D22*
X0092910Y0051406D03*
X0092910Y0040209D03*
D23*
X0077209Y0040292D03*
X0077209Y0052694D03*
D24*
X0142328Y0075769D03*
X0147328Y0075769D03*
X0152328Y0075769D03*
X0157328Y0075769D03*
X0162328Y0075769D03*
X0167328Y0075769D03*
X0172328Y0075769D03*
X0177328Y0075769D03*
X0177328Y0096989D03*
X0172328Y0096989D03*
X0167328Y0096989D03*
X0162328Y0096989D03*
X0157328Y0096989D03*
X0152328Y0096989D03*
X0147328Y0096989D03*
X0142328Y0096989D03*
D25*
X0141788Y0049123D03*
X0179788Y0049123D03*
D26*
X0178690Y0230265D03*
X0178690Y0240265D03*
X0188690Y0240265D03*
X0198690Y0240265D03*
X0208690Y0240265D03*
X0218690Y0240265D03*
X0228690Y0240265D03*
X0228690Y0230265D03*
X0218690Y0230265D03*
X0208690Y0230265D03*
X0198690Y0230265D03*
X0188690Y0230265D03*
X0168690Y0230265D03*
X0158690Y0230265D03*
X0158690Y0240265D03*
X0168690Y0240265D03*
X0148690Y0240265D03*
X0138690Y0240265D03*
X0128690Y0240265D03*
X0118690Y0240265D03*
X0108690Y0240265D03*
X0098690Y0240265D03*
X0088690Y0240265D03*
X0078690Y0240265D03*
X0068690Y0240265D03*
X0058690Y0240265D03*
X0048690Y0240265D03*
X0038690Y0240265D03*
X0038690Y0230265D03*
X0048690Y0230265D03*
X0058690Y0230265D03*
X0068690Y0230265D03*
X0078690Y0230265D03*
X0088690Y0230265D03*
X0098690Y0230265D03*
X0108690Y0230265D03*
X0118690Y0230265D03*
X0128690Y0230265D03*
X0138690Y0230265D03*
X0148690Y0230265D03*
D27*
X0024831Y0063217D03*
X0011052Y0063217D03*
D28*
X0022228Y0141131D02*
X0027828Y0141131D01*
X0027828Y0151131D02*
X0022228Y0151131D01*
X0022228Y0161131D02*
X0027828Y0161131D01*
X0027828Y0171131D02*
X0022228Y0171131D01*
X0234433Y0171131D02*
X0240033Y0171131D01*
X0240033Y0161131D02*
X0234433Y0161131D01*
X0234433Y0151131D02*
X0240033Y0151131D01*
X0240033Y0141131D02*
X0234433Y0141131D01*
X0243488Y0100265D02*
X0249088Y0100265D01*
X0249088Y0090265D02*
X0243488Y0090265D01*
X0243488Y0080265D02*
X0249088Y0080265D01*
X0249088Y0070265D02*
X0243488Y0070265D01*
D29*
X0252587Y0130934D03*
X0252587Y0215580D03*
X0023454Y0215580D03*
X0023454Y0114792D03*
D30*
X0083296Y0069320D03*
X0083296Y0065776D03*
D31*
X0083296Y0040292D01*
X0077209Y0040292D01*
X0074039Y0039761D02*
X0070166Y0039761D01*
X0070166Y0039532D02*
X0070166Y0042787D01*
X0066045Y0042787D01*
X0066045Y0044230D01*
X0070166Y0044230D01*
X0070166Y0047486D01*
X0070043Y0047944D01*
X0069806Y0048354D01*
X0069471Y0048689D01*
X0069061Y0048926D01*
X0068603Y0049049D01*
X0066044Y0049049D01*
X0066044Y0044230D01*
X0064601Y0044230D01*
X0064601Y0042787D01*
X0060480Y0042787D01*
X0060480Y0040049D01*
X0058023Y0040049D01*
X0058023Y0035309D01*
X0056423Y0035309D01*
X0056423Y0040049D01*
X0053246Y0040049D01*
X0052788Y0039926D01*
X0052573Y0039802D01*
X0052358Y0039926D01*
X0051900Y0040049D01*
X0048723Y0040049D01*
X0048723Y0035309D01*
X0047123Y0035309D01*
X0047123Y0040049D01*
X0044666Y0040049D01*
X0044666Y0042587D01*
X0040545Y0042587D01*
X0040545Y0044030D01*
X0043836Y0044030D01*
X0045025Y0042842D01*
X0045516Y0042842D01*
X0045516Y0041647D01*
X0046277Y0040886D01*
X0048732Y0040886D01*
X0048784Y0040938D01*
X0048836Y0040886D01*
X0051291Y0040886D01*
X0051343Y0040938D01*
X0051395Y0040886D01*
X0053850Y0040886D01*
X0053902Y0040938D01*
X0053954Y0040886D01*
X0055806Y0040886D01*
X0055947Y0040745D01*
X0056357Y0040508D01*
X0056815Y0040386D01*
X0057741Y0040386D01*
X0058667Y0040386D01*
X0059125Y0040508D01*
X0059535Y0040745D01*
X0059870Y0041081D01*
X0060107Y0041491D01*
X0060230Y0041949D01*
X0060230Y0044942D01*
X0060230Y0047538D01*
X0060493Y0047538D01*
X0060480Y0047486D01*
X0060480Y0044230D01*
X0064601Y0044230D01*
X0064601Y0049049D01*
X0062755Y0049049D01*
X0062755Y0052938D01*
X0061994Y0053700D01*
X0057354Y0053700D01*
X0056593Y0052938D01*
X0056593Y0052719D01*
X0052111Y0052719D01*
X0051931Y0052539D01*
X0051931Y0052577D01*
X0052716Y0053361D01*
X0052716Y0055751D01*
X0051026Y0057440D01*
X0048637Y0057440D01*
X0047994Y0056798D01*
X0047994Y0057229D01*
X0048339Y0057574D01*
X0073977Y0057574D01*
X0075109Y0056442D01*
X0075109Y0055765D01*
X0074801Y0055765D01*
X0074039Y0055004D01*
X0074039Y0050384D01*
X0074801Y0049622D01*
X0079618Y0049622D01*
X0080380Y0050384D01*
X0080380Y0055004D01*
X0079618Y0055765D01*
X0079309Y0055765D01*
X0079309Y0058182D01*
X0075717Y0061774D01*
X0059399Y0061774D01*
X0059516Y0061891D01*
X0059881Y0062214D01*
X0059922Y0062297D01*
X0059987Y0062362D01*
X0060173Y0062813D01*
X0060387Y0063251D01*
X0060393Y0063343D01*
X0060428Y0063428D01*
X0060428Y0063916D01*
X0061415Y0079949D01*
X0061755Y0079753D01*
X0062213Y0079630D01*
X0063827Y0079630D01*
X0063827Y0083201D01*
X0063828Y0083201D01*
X0063828Y0083202D02*
X0063828Y0083202D01*
X0063827Y0083202D01*
X0063827Y0086773D01*
X0062213Y0086773D01*
X0061755Y0086651D01*
X0061344Y0086414D01*
X0061009Y0086078D01*
X0060940Y0085959D01*
X0060626Y0086273D01*
X0059428Y0086273D01*
X0059428Y0087695D01*
X0065185Y0087695D01*
X0066170Y0088680D01*
X0067562Y0088680D01*
X0069251Y0090369D01*
X0069251Y0092758D01*
X0067562Y0094448D01*
X0065172Y0094448D01*
X0063483Y0092758D01*
X0063483Y0091495D01*
X0056919Y0091495D01*
X0055806Y0090382D01*
X0055628Y0090205D01*
X0055628Y0086172D01*
X0044076Y0086172D01*
X0043926Y0086322D01*
X0036449Y0086322D01*
X0036299Y0086172D01*
X0019487Y0086172D01*
X0019487Y0090061D01*
X0018726Y0090822D01*
X0011249Y0090822D01*
X0010487Y0090061D01*
X0010487Y0076484D01*
X0011249Y0075722D01*
X0018726Y0075722D01*
X0019487Y0076484D01*
X0019487Y0080372D01*
X0036299Y0080372D01*
X0036449Y0080222D01*
X0043926Y0080222D01*
X0044076Y0080372D01*
X0055630Y0080372D01*
X0054801Y0066905D01*
X0043061Y0066905D01*
X0042890Y0067076D01*
X0039057Y0067076D01*
X0038414Y0066434D01*
X0037772Y0067076D01*
X0033939Y0067076D01*
X0033177Y0066315D01*
X0033177Y0066117D01*
X0029084Y0066117D01*
X0029084Y0066709D01*
X0028323Y0067470D01*
X0021340Y0067470D01*
X0020579Y0066709D01*
X0020579Y0059726D01*
X0021340Y0058965D01*
X0028323Y0058965D01*
X0029084Y0059726D01*
X0029084Y0060317D01*
X0034387Y0060317D01*
X0034671Y0060261D01*
X0034958Y0060317D01*
X0035251Y0060317D01*
X0035518Y0060428D01*
X0035803Y0060484D01*
X0036046Y0060647D01*
X0036317Y0060759D01*
X0036491Y0060933D01*
X0037772Y0060933D01*
X0038414Y0061576D01*
X0039057Y0060933D01*
X0042890Y0060933D01*
X0043061Y0061105D01*
X0045930Y0061105D01*
X0045369Y0060544D01*
X0043794Y0058969D01*
X0043794Y0048591D01*
X0043561Y0048726D01*
X0043103Y0048849D01*
X0040544Y0048849D01*
X0040544Y0044030D01*
X0039101Y0044030D01*
X0039101Y0042587D01*
X0034980Y0042587D01*
X0034980Y0039332D01*
X0035102Y0038874D01*
X0035339Y0038463D01*
X0035386Y0038416D01*
X0035342Y0038384D01*
X0034747Y0037790D01*
X0034253Y0037109D01*
X0033871Y0036360D01*
X0033611Y0035560D01*
X0033480Y0034729D01*
X0033480Y0034690D01*
X0033783Y0034690D01*
X0033783Y0033928D01*
X0033480Y0033928D01*
X0033480Y0033888D01*
X0033611Y0033057D01*
X0033871Y0032258D01*
X0034253Y0031508D01*
X0034747Y0030828D01*
X0035203Y0030372D01*
X0024463Y0030372D01*
X0024740Y0030442D01*
X0028324Y0032783D01*
X0030954Y0036162D01*
X0032344Y0040211D01*
X0032344Y0044492D01*
X0030954Y0048541D01*
X0028324Y0051919D01*
X0024740Y0054261D01*
X0020590Y0055311D01*
X0016324Y0054958D01*
X0012404Y0053238D01*
X0009254Y0050339D01*
X0007537Y0047166D01*
X0007537Y0058552D01*
X0007862Y0058465D01*
X0010376Y0058465D01*
X0010376Y0062541D01*
X0011728Y0062541D01*
X0011728Y0058465D01*
X0014242Y0058465D01*
X0014699Y0058587D01*
X0015110Y0058824D01*
X0015445Y0059159D01*
X0015682Y0059570D01*
X0015805Y0060028D01*
X0015805Y0062541D01*
X0011728Y0062541D01*
X0011728Y0063894D01*
X0010376Y0063894D01*
X0010376Y0067970D01*
X0007862Y0067970D01*
X0007537Y0067883D01*
X0007537Y0230450D01*
X0009254Y0227277D01*
X0012404Y0224377D01*
X0015849Y0222866D01*
X0010068Y0217086D01*
X0008955Y0215973D01*
X0008955Y0142533D01*
X0008841Y0141938D01*
X0008955Y0141769D01*
X0008955Y0120698D01*
X0010068Y0119585D01*
X0021967Y0119585D01*
X0021747Y0119482D01*
X0021415Y0119393D01*
X0021363Y0119303D01*
X0021341Y0119293D01*
X0021239Y0119311D01*
X0020958Y0119114D01*
X0020647Y0118969D01*
X0020612Y0118872D01*
X0020592Y0118858D01*
X0020488Y0118858D01*
X0020245Y0118615D01*
X0019964Y0118419D01*
X0019946Y0118316D01*
X0019929Y0118299D01*
X0019827Y0118281D01*
X0019630Y0118000D01*
X0019388Y0117758D01*
X0019388Y0117654D01*
X0019374Y0117634D01*
X0019276Y0117599D01*
X0019131Y0117288D01*
X0018934Y0117007D01*
X0018952Y0116904D01*
X0018942Y0116882D01*
X0018852Y0116830D01*
X0018764Y0116499D01*
X0018619Y0116188D01*
X0018654Y0116091D01*
X0018648Y0116067D01*
X0018568Y0116001D01*
X0018538Y0115659D01*
X0018450Y0115327D01*
X0018502Y0115237D01*
X0018499Y0115213D01*
X0018433Y0115134D01*
X0018463Y0114792D01*
X0018433Y0114450D01*
X0018499Y0114371D01*
X0018502Y0114347D01*
X0018450Y0114257D01*
X0018538Y0113925D01*
X0018568Y0113584D01*
X0018648Y0113517D01*
X0018654Y0113494D01*
X0018619Y0113396D01*
X0018764Y0113085D01*
X0018852Y0112754D01*
X0018942Y0112702D01*
X0018952Y0112680D01*
X0018934Y0112578D01*
X0019131Y0112297D01*
X0019276Y0111986D01*
X0019374Y0111950D01*
X0019388Y0111930D01*
X0019388Y0111827D01*
X0019630Y0111584D01*
X0019827Y0111303D01*
X0019929Y0111285D01*
X0019946Y0111268D01*
X0019964Y0111166D01*
X0020245Y0110969D01*
X0020488Y0110726D01*
X0020592Y0110726D01*
X0020612Y0110712D01*
X0020647Y0110615D01*
X0020958Y0110470D01*
X0021239Y0110273D01*
X0021341Y0110291D01*
X0021363Y0110281D01*
X0021415Y0110191D01*
X0021747Y0110102D01*
X0022057Y0109957D01*
X0022155Y0109993D01*
X0022178Y0109986D01*
X0022245Y0109907D01*
X0022587Y0109877D01*
X0022918Y0109788D01*
X0023008Y0109840D01*
X0023032Y0109838D01*
X0023112Y0109771D01*
X0023454Y0109801D01*
X0023795Y0109771D01*
X0023875Y0109838D01*
X0023899Y0109840D01*
X0023989Y0109788D01*
X0024320Y0109877D01*
X0024662Y0109907D01*
X0024729Y0109986D01*
X0024752Y0109993D01*
X0024850Y0109957D01*
X0025161Y0110102D01*
X0025492Y0110191D01*
X0025544Y0110281D01*
X0025566Y0110291D01*
X0025668Y0110273D01*
X0025949Y0110470D01*
X0026260Y0110615D01*
X0026295Y0110712D01*
X0026315Y0110726D01*
X0026419Y0110726D01*
X0026662Y0110969D01*
X0026943Y0111166D01*
X0026961Y0111268D01*
X0026978Y0111285D01*
X0027080Y0111303D01*
X0027277Y0111584D01*
X0027519Y0111827D01*
X0027519Y0111930D01*
X0027533Y0111950D01*
X0027631Y0111986D01*
X0027776Y0112297D01*
X0027973Y0112578D01*
X0027955Y0112680D01*
X0027965Y0112702D01*
X0028055Y0112754D01*
X0028144Y0113085D01*
X0028289Y0113396D01*
X0028253Y0113494D01*
X0028259Y0113517D01*
X0028339Y0113584D01*
X0028369Y0113925D01*
X0028458Y0114257D01*
X0028406Y0114347D01*
X0028408Y0114371D01*
X0028474Y0114450D01*
X0028445Y0114792D01*
X0028474Y0115134D01*
X0028408Y0115213D01*
X0028406Y0115237D01*
X0028458Y0115327D01*
X0028442Y0115384D01*
X0028640Y0115186D01*
X0028640Y0107155D01*
X0027533Y0107155D01*
X0027219Y0106841D01*
X0027150Y0106960D01*
X0026815Y0107295D01*
X0026404Y0107532D01*
X0025946Y0107655D01*
X0024332Y0107655D01*
X0024332Y0104084D01*
X0024331Y0104084D01*
X0024331Y0107655D01*
X0022717Y0107655D01*
X0022259Y0107532D01*
X0021848Y0107295D01*
X0021513Y0106960D01*
X0021276Y0106550D01*
X0021154Y0106092D01*
X0021154Y0104084D01*
X0024331Y0104084D01*
X0024331Y0104083D01*
X0024332Y0104083D01*
X0024332Y0100512D01*
X0025946Y0100512D01*
X0026404Y0100634D01*
X0026815Y0100871D01*
X0027150Y0101207D01*
X0027219Y0101326D01*
X0027533Y0101012D01*
X0028717Y0101012D01*
X0032193Y0098420D01*
X0032453Y0098160D01*
X0032651Y0098078D01*
X0032824Y0097949D01*
X0033180Y0097859D01*
X0033518Y0097719D01*
X0033734Y0097719D01*
X0033942Y0097666D01*
X0034305Y0097719D01*
X0037287Y0097719D01*
X0037287Y0095422D01*
X0036449Y0095422D01*
X0035687Y0094661D01*
X0035687Y0090084D01*
X0036449Y0089322D01*
X0043926Y0089322D01*
X0044687Y0090084D01*
X0044687Y0094661D01*
X0043926Y0095422D01*
X0043087Y0095422D01*
X0043087Y0100604D01*
X0042646Y0101669D01*
X0042054Y0102262D01*
X0041238Y0103077D01*
X0041200Y0103093D01*
X0040790Y0103503D01*
X0040210Y0103503D01*
X0040172Y0103519D01*
X0035058Y0103519D01*
X0032440Y0105471D01*
X0032440Y0116760D01*
X0031327Y0117873D01*
X0025815Y0123385D01*
X0012755Y0123385D01*
X0012755Y0140050D01*
X0014174Y0139777D01*
X0014284Y0139657D01*
X0014928Y0139632D01*
X0015560Y0139510D01*
X0015695Y0139601D01*
X0018470Y0139490D01*
X0018753Y0138808D01*
X0019906Y0137655D01*
X0021413Y0137031D01*
X0028644Y0137031D01*
X0030151Y0137655D01*
X0031304Y0138808D01*
X0031928Y0140315D01*
X0031928Y0141946D01*
X0031304Y0143453D01*
X0030151Y0144607D01*
X0028644Y0145231D01*
X0021413Y0145231D01*
X0019906Y0144607D01*
X0018753Y0143453D01*
X0018683Y0143285D01*
X0015365Y0143417D01*
X0012755Y0143920D01*
X0012755Y0214399D01*
X0017941Y0219585D01*
X0020428Y0219585D01*
X0020245Y0219403D01*
X0019964Y0219206D01*
X0019946Y0219104D01*
X0019929Y0219087D01*
X0019827Y0219069D01*
X0019630Y0218788D01*
X0019388Y0218545D01*
X0019388Y0218441D01*
X0019374Y0218421D01*
X0019276Y0218386D01*
X0019131Y0218075D01*
X0018934Y0217794D01*
X0018952Y0217692D01*
X0018942Y0217670D01*
X0018852Y0217618D01*
X0018764Y0217287D01*
X0018619Y0216976D01*
X0018654Y0216878D01*
X0018648Y0216855D01*
X0018568Y0216788D01*
X0018538Y0216446D01*
X0018450Y0216115D01*
X0018502Y0216025D01*
X0018499Y0216001D01*
X0018433Y0215921D01*
X0018463Y0215580D01*
X0018433Y0215238D01*
X0018499Y0215158D01*
X0018502Y0215134D01*
X0018450Y0215044D01*
X0018538Y0214713D01*
X0018568Y0214371D01*
X0018648Y0214304D01*
X0018654Y0214281D01*
X0018619Y0214183D01*
X0018764Y0213873D01*
X0018852Y0213541D01*
X0018942Y0213489D01*
X0018952Y0213467D01*
X0018934Y0213365D01*
X0019131Y0213084D01*
X0019276Y0212773D01*
X0019374Y0212738D01*
X0019388Y0212718D01*
X0019388Y0212614D01*
X0019630Y0212371D01*
X0019827Y0212090D01*
X0019929Y0212072D01*
X0019946Y0212055D01*
X0019964Y0211953D01*
X0020245Y0211756D01*
X0020488Y0211514D01*
X0020592Y0211514D01*
X0020612Y0211500D01*
X0020647Y0211402D01*
X0020958Y0211257D01*
X0021239Y0211060D01*
X0021341Y0211078D01*
X0021363Y0211068D01*
X0021415Y0210978D01*
X0021747Y0210889D01*
X0022057Y0210745D01*
X0022155Y0210780D01*
X0022178Y0210774D01*
X0022245Y0210694D01*
X0022587Y0210664D01*
X0022918Y0210576D01*
X0023008Y0210627D01*
X0023032Y0210625D01*
X0023112Y0210559D01*
X0023454Y0210589D01*
X0023795Y0210559D01*
X0023875Y0210625D01*
X0023899Y0210627D01*
X0023989Y0210576D01*
X0024320Y0210664D01*
X0024662Y0210694D01*
X0024729Y0210774D01*
X0024752Y0210780D01*
X0024850Y0210745D01*
X0025161Y0210889D01*
X0025492Y0210978D01*
X0025544Y0211068D01*
X0025566Y0211078D01*
X0025668Y0211060D01*
X0025949Y0211257D01*
X0026260Y0211402D01*
X0026295Y0211500D01*
X0026315Y0211514D01*
X0026419Y0211514D01*
X0026662Y0211756D01*
X0026943Y0211953D01*
X0026961Y0212055D01*
X0026978Y0212072D01*
X0027080Y0212090D01*
X0027277Y0212371D01*
X0027519Y0212614D01*
X0027519Y0212718D01*
X0027533Y0212738D01*
X0027631Y0212773D01*
X0027776Y0213084D01*
X0027973Y0213365D01*
X0027955Y0213467D01*
X0027965Y0213489D01*
X0028055Y0213541D01*
X0028144Y0213873D01*
X0028289Y0214183D01*
X0028253Y0214281D01*
X0028259Y0214304D01*
X0028339Y0214371D01*
X0028369Y0214713D01*
X0028458Y0215044D01*
X0028406Y0215134D01*
X0028408Y0215158D01*
X0028474Y0215238D01*
X0028445Y0215580D01*
X0028474Y0215921D01*
X0028408Y0216001D01*
X0028406Y0216025D01*
X0028458Y0216115D01*
X0028369Y0216446D01*
X0028339Y0216788D01*
X0028259Y0216855D01*
X0028253Y0216878D01*
X0028289Y0216976D01*
X0028144Y0217287D01*
X0028055Y0217618D01*
X0027965Y0217670D01*
X0027955Y0217692D01*
X0027973Y0217794D01*
X0027776Y0218075D01*
X0027631Y0218386D01*
X0027533Y0218421D01*
X0027519Y0218441D01*
X0027519Y0218545D01*
X0027277Y0218788D01*
X0027080Y0219069D01*
X0026978Y0219087D01*
X0026961Y0219104D01*
X0026943Y0219206D01*
X0026662Y0219403D01*
X0026480Y0219585D01*
X0028965Y0219585D01*
X0030078Y0220698D01*
X0034015Y0224635D01*
X0034015Y0227785D01*
X0034552Y0228321D01*
X0036909Y0225965D01*
X0040471Y0225965D01*
X0042990Y0228483D01*
X0042990Y0232046D01*
X0040471Y0234565D01*
X0036909Y0234565D01*
X0035590Y0233246D01*
X0035590Y0233690D01*
X0035983Y0234084D01*
X0035983Y0234871D01*
X0037077Y0235965D01*
X0040471Y0235965D01*
X0042871Y0238365D01*
X0044509Y0238365D01*
X0046909Y0235965D01*
X0050471Y0235965D01*
X0052990Y0238483D01*
X0052990Y0242046D01*
X0050471Y0244565D01*
X0046909Y0244565D01*
X0044509Y0242165D01*
X0042871Y0242165D01*
X0040471Y0244565D01*
X0036909Y0244565D01*
X0034390Y0242046D01*
X0034390Y0238652D01*
X0033296Y0237558D01*
X0032344Y0236606D01*
X0032344Y0237405D01*
X0030954Y0241454D01*
X0028324Y0244832D01*
X0024740Y0247174D01*
X0020590Y0248225D01*
X0016324Y0247871D01*
X0012404Y0246152D01*
X0009254Y0243252D01*
X0007866Y0240687D01*
X0008045Y0241645D01*
X0009290Y0244243D01*
X0011164Y0246430D01*
X0013541Y0248057D01*
X0016257Y0249013D01*
X0017649Y0249213D01*
X0249730Y0249213D01*
X0251122Y0249013D01*
X0253839Y0248057D01*
X0256215Y0246430D01*
X0258090Y0244243D01*
X0259334Y0241645D01*
X0259454Y0241007D01*
X0259300Y0241454D01*
X0256671Y0244832D01*
X0253087Y0247174D01*
X0248937Y0248225D01*
X0244671Y0247871D01*
X0240750Y0246152D01*
X0237600Y0243252D01*
X0235590Y0239537D01*
X0235590Y0243926D01*
X0231653Y0247863D01*
X0230540Y0248976D01*
X0174714Y0248976D01*
X0170303Y0244565D01*
X0166909Y0244565D01*
X0165511Y0243167D01*
X0165511Y0243926D01*
X0164398Y0245039D01*
X0160855Y0248582D01*
X0106525Y0248582D01*
X0102981Y0245039D01*
X0101869Y0243926D01*
X0101869Y0243874D01*
X0100678Y0245065D01*
X0098890Y0245065D01*
X0098890Y0240465D01*
X0098490Y0240465D01*
X0098490Y0245065D01*
X0096702Y0245065D01*
X0093890Y0242253D01*
X0093890Y0240465D01*
X0098490Y0240465D01*
X0098490Y0240065D01*
X0093890Y0240065D01*
X0093890Y0238276D01*
X0096702Y0235465D01*
X0098490Y0235465D01*
X0098490Y0240064D01*
X0098890Y0240064D01*
X0098890Y0235465D01*
X0100678Y0235465D01*
X0101869Y0236655D01*
X0101869Y0233167D01*
X0100471Y0234565D01*
X0096909Y0234565D01*
X0094390Y0232046D01*
X0094390Y0228483D01*
X0096790Y0226083D01*
X0096790Y0144354D01*
X0095908Y0145235D01*
X0094516Y0145235D01*
X0094251Y0145500D01*
X0094251Y0173637D01*
X0095235Y0174621D01*
X0095235Y0177010D01*
X0093546Y0178700D01*
X0091156Y0178700D01*
X0090590Y0178133D01*
X0090590Y0226083D01*
X0092990Y0228483D01*
X0092990Y0232046D01*
X0090471Y0234565D01*
X0086909Y0234565D01*
X0085590Y0233246D01*
X0085590Y0237233D01*
X0085615Y0237258D01*
X0086909Y0235965D01*
X0090471Y0235965D01*
X0092990Y0238483D01*
X0092990Y0242046D01*
X0090471Y0244565D01*
X0086909Y0244565D01*
X0084390Y0242046D01*
X0084390Y0241407D01*
X0082990Y0240007D01*
X0082990Y0242046D01*
X0080471Y0244565D01*
X0076909Y0244565D01*
X0074390Y0242046D01*
X0074390Y0239675D01*
X0073060Y0238346D01*
X0071947Y0237233D01*
X0071947Y0233088D01*
X0070471Y0234565D01*
X0066909Y0234565D01*
X0065117Y0232773D01*
X0065117Y0234871D01*
X0066560Y0236314D01*
X0066909Y0235965D01*
X0070471Y0235965D01*
X0072990Y0238483D01*
X0072990Y0242046D01*
X0070471Y0244565D01*
X0066909Y0244565D01*
X0064390Y0242046D01*
X0064390Y0239518D01*
X0063490Y0238618D01*
X0063490Y0240065D01*
X0058890Y0240065D01*
X0058890Y0240465D01*
X0058490Y0240465D01*
X0058490Y0245065D01*
X0056702Y0245065D01*
X0053890Y0242253D01*
X0053890Y0240465D01*
X0058490Y0240465D01*
X0058490Y0240065D01*
X0053890Y0240065D01*
X0053890Y0238276D01*
X0056702Y0235465D01*
X0058490Y0235465D01*
X0058490Y0240064D01*
X0058890Y0240064D01*
X0058890Y0235465D01*
X0060678Y0235465D01*
X0061317Y0236104D01*
X0061317Y0233718D01*
X0060471Y0234565D01*
X0056909Y0234565D01*
X0054390Y0232046D01*
X0054390Y0228483D01*
X0056909Y0225965D01*
X0060471Y0225965D01*
X0061317Y0226811D01*
X0061317Y0212952D01*
X0059267Y0212952D01*
X0057577Y0211262D01*
X0057577Y0209870D01*
X0056987Y0209280D01*
X0056987Y0183296D01*
X0058100Y0182183D01*
X0058168Y0182115D01*
X0058168Y0178645D01*
X0056932Y0179881D01*
X0054542Y0179881D01*
X0053558Y0178897D01*
X0048400Y0178897D01*
X0047763Y0178993D01*
X0047632Y0178897D01*
X0047470Y0178897D01*
X0047014Y0178442D01*
X0044458Y0176558D01*
X0044448Y0176843D01*
X0044448Y0177673D01*
X0044415Y0177706D01*
X0044414Y0177751D01*
X0043805Y0178316D01*
X0043217Y0178904D01*
X0043172Y0178904D01*
X0028691Y0192338D01*
X0028691Y0194268D01*
X0027929Y0195029D01*
X0024096Y0195029D01*
X0023454Y0194386D01*
X0022994Y0194846D01*
X0022994Y0200880D01*
X0023454Y0201339D01*
X0024096Y0200697D01*
X0026739Y0200697D01*
X0028595Y0199398D01*
X0029080Y0198913D01*
X0029288Y0198913D01*
X0029458Y0198793D01*
X0030133Y0198913D01*
X0034788Y0198913D01*
X0035576Y0198125D01*
X0049560Y0198125D01*
X0050790Y0199355D01*
X0050790Y0226283D01*
X0052990Y0228483D01*
X0052990Y0232046D01*
X0050471Y0234565D01*
X0046909Y0234565D01*
X0044390Y0232046D01*
X0044390Y0228483D01*
X0046590Y0226283D01*
X0046590Y0202325D01*
X0037316Y0202325D01*
X0036528Y0203113D01*
X0030612Y0203113D01*
X0028691Y0204457D01*
X0028691Y0206079D01*
X0027929Y0206840D01*
X0024096Y0206840D01*
X0023454Y0206198D01*
X0022811Y0206840D01*
X0022201Y0206840D01*
X0021813Y0208196D01*
X0021813Y0208772D01*
X0021583Y0209002D01*
X0021494Y0209316D01*
X0020990Y0209595D01*
X0019645Y0210941D01*
X0019645Y0212050D01*
X0017955Y0213739D01*
X0015566Y0213739D01*
X0013876Y0212050D01*
X0013876Y0209660D01*
X0015566Y0207971D01*
X0016675Y0207971D01*
X0017844Y0206802D01*
X0018217Y0205497D01*
X0018217Y0201458D01*
X0018794Y0200880D01*
X0018794Y0194846D01*
X0018217Y0194268D01*
X0018217Y0189647D01*
X0018978Y0188886D01*
X0022811Y0188886D01*
X0023454Y0189528D01*
X0024096Y0188886D01*
X0026236Y0188886D01*
X0040248Y0175887D01*
X0040248Y0173456D01*
X0040142Y0173378D01*
X0039967Y0173376D01*
X0039525Y0172923D01*
X0039016Y0172548D01*
X0038990Y0172375D01*
X0038867Y0172250D01*
X0038875Y0171617D01*
X0038780Y0170992D01*
X0038884Y0170851D01*
X0038973Y0163135D01*
X0031459Y0163079D01*
X0031304Y0163453D01*
X0030151Y0164607D01*
X0028644Y0165231D01*
X0021413Y0165231D01*
X0019906Y0164607D01*
X0018753Y0163453D01*
X0018128Y0161946D01*
X0018128Y0160315D01*
X0018753Y0158808D01*
X0019906Y0157655D01*
X0021413Y0157031D01*
X0028644Y0157031D01*
X0030151Y0157655D01*
X0031304Y0158808D01*
X0031499Y0159279D01*
X0040126Y0159343D01*
X0040129Y0159340D01*
X0040912Y0159349D01*
X0041696Y0159355D01*
X0041699Y0159358D01*
X0041703Y0159358D01*
X0042251Y0159918D01*
X0042800Y0160476D01*
X0042800Y0160481D01*
X0042803Y0160484D01*
X0042794Y0161267D01*
X0042789Y0162050D01*
X0042785Y0162053D01*
X0042687Y0170533D01*
X0042701Y0170543D01*
X0043217Y0170543D01*
X0044448Y0171773D01*
X0044448Y0171830D01*
X0048881Y0175097D01*
X0053558Y0175097D01*
X0054542Y0174113D01*
X0056932Y0174113D01*
X0058168Y0175349D01*
X0058168Y0152267D01*
X0058113Y0152322D01*
X0055723Y0152322D01*
X0054034Y0150632D01*
X0054034Y0148243D01*
X0054624Y0147653D01*
X0054624Y0116761D01*
X0055737Y0115648D01*
X0061249Y0110136D01*
X0117475Y0110136D01*
X0115845Y0108506D01*
X0115845Y0106117D01*
X0117534Y0104428D01*
X0119924Y0104428D01*
X0120908Y0105412D01*
X0125559Y0105412D01*
X0120698Y0100550D01*
X0069122Y0100550D01*
X0063543Y0106130D01*
X0062430Y0107243D01*
X0055343Y0107243D01*
X0047598Y0114989D01*
X0047598Y0116381D01*
X0045908Y0118070D01*
X0043519Y0118070D01*
X0041829Y0116381D01*
X0041829Y0113991D01*
X0043519Y0112302D01*
X0044911Y0112302D01*
X0053769Y0103443D01*
X0060856Y0103443D01*
X0067548Y0096750D01*
X0122272Y0096750D01*
X0123385Y0097863D01*
X0132115Y0106593D01*
X0136445Y0106593D01*
X0137558Y0107706D01*
X0138543Y0108690D01*
X0138543Y0113158D01*
X0139596Y0112105D01*
X0154345Y0112105D01*
X0155330Y0111120D01*
X0157719Y0111120D01*
X0159409Y0112810D01*
X0159409Y0115199D01*
X0157719Y0116889D01*
X0155330Y0116889D01*
X0154345Y0115905D01*
X0141170Y0115905D01*
X0140511Y0116563D01*
X0140511Y0119510D01*
X0140802Y0119510D01*
X0140943Y0119369D01*
X0141353Y0119133D01*
X0141811Y0119010D01*
X0142548Y0119010D01*
X0142548Y0123060D01*
X0142548Y0127110D01*
X0141811Y0127110D01*
X0141353Y0126987D01*
X0140943Y0126750D01*
X0140802Y0126610D01*
X0130668Y0126610D01*
X0130668Y0129345D01*
X0132243Y0130920D01*
X0132243Y0133310D01*
X0131795Y0133758D01*
X0132115Y0133758D01*
X0133689Y0133758D01*
X0134477Y0134546D01*
X0142548Y0134546D01*
X0142617Y0134478D01*
X0142617Y0127110D01*
X0142548Y0127110D01*
X0142548Y0123060D01*
X0142548Y0123060D01*
X0142548Y0123060D01*
X0142548Y0119010D01*
X0143285Y0119010D01*
X0143743Y0119133D01*
X0144153Y0119369D01*
X0144294Y0119510D01*
X0145555Y0119510D01*
X0146221Y0120176D01*
X0146275Y0120176D01*
X0147062Y0119388D01*
X0149451Y0119388D01*
X0151141Y0121078D01*
X0151141Y0123467D01*
X0149451Y0125157D01*
X0147062Y0125157D01*
X0146417Y0124511D01*
X0146417Y0147747D01*
X0146495Y0147456D01*
X0146732Y0147045D01*
X0146872Y0146905D01*
X0146872Y0127927D01*
X0147634Y0127165D01*
X0149535Y0127165D01*
X0149635Y0127065D01*
X0151013Y0127065D01*
X0152262Y0125816D01*
X0153375Y0124703D01*
X0176081Y0124703D01*
X0176081Y0124227D01*
X0177771Y0122538D01*
X0180160Y0122538D01*
X0181850Y0124227D01*
X0181850Y0126617D01*
X0180160Y0128306D01*
X0178768Y0128306D01*
X0178571Y0128503D01*
X0154949Y0128503D01*
X0153972Y0129480D01*
X0153972Y0129618D01*
X0153990Y0129601D01*
X0154528Y0129046D01*
X0154545Y0129046D01*
X0154556Y0129034D01*
X0155329Y0129034D01*
X0181453Y0128644D01*
X0181981Y0128500D01*
X0182213Y0128633D01*
X0182480Y0128629D01*
X0182872Y0129010D01*
X0184757Y0130087D01*
X0184780Y0130081D01*
X0185437Y0130475D01*
X0186015Y0130806D01*
X0186066Y0130806D01*
X0187302Y0132042D01*
X0187302Y0095235D01*
X0187219Y0095235D01*
X0185530Y0093546D01*
X0185530Y0091156D01*
X0185585Y0091102D01*
X0148257Y0091102D01*
X0146289Y0089133D01*
X0145176Y0088020D01*
X0145176Y0079705D01*
X0145137Y0079667D01*
X0145018Y0079874D01*
X0144683Y0080209D01*
X0144272Y0080446D01*
X0143815Y0080568D01*
X0142328Y0080568D01*
X0142328Y0075769D01*
X0142327Y0075769D01*
X0142327Y0075768D01*
X0139278Y0075768D01*
X0139278Y0072532D01*
X0139400Y0072074D01*
X0139637Y0071663D01*
X0139884Y0071417D01*
X0138020Y0071417D01*
X0137952Y0071485D01*
X0137952Y0084871D01*
X0139989Y0086908D01*
X0141281Y0086908D01*
X0141481Y0086708D01*
X0143221Y0086708D01*
X0144451Y0087938D01*
X0144451Y0093024D01*
X0144828Y0093401D01*
X0145539Y0092689D01*
X0149116Y0092689D01*
X0149828Y0093401D01*
X0150539Y0092689D01*
X0154116Y0092689D01*
X0154828Y0093401D01*
X0155539Y0092689D01*
X0159116Y0092689D01*
X0159828Y0093401D01*
X0160539Y0092689D01*
X0164116Y0092689D01*
X0164828Y0093401D01*
X0165539Y0092689D01*
X0169116Y0092689D01*
X0169828Y0093401D01*
X0170539Y0092689D01*
X0174116Y0092689D01*
X0174828Y0093401D01*
X0175539Y0092689D01*
X0179116Y0092689D01*
X0179878Y0093450D01*
X0179878Y0100527D01*
X0179116Y0101289D01*
X0175539Y0101289D01*
X0174828Y0100577D01*
X0174116Y0101289D01*
X0170539Y0101289D01*
X0169828Y0100577D01*
X0169116Y0101289D01*
X0165539Y0101289D01*
X0164828Y0100577D01*
X0164116Y0101289D01*
X0160539Y0101289D01*
X0159828Y0100577D01*
X0159116Y0101289D01*
X0155539Y0101289D01*
X0154828Y0100577D01*
X0154116Y0101289D01*
X0150539Y0101289D01*
X0149828Y0100577D01*
X0149116Y0101289D01*
X0145539Y0101289D01*
X0144828Y0100577D01*
X0144116Y0101289D01*
X0140539Y0101289D01*
X0139778Y0100527D01*
X0139778Y0098582D01*
X0138488Y0098582D01*
X0138543Y0098637D01*
X0138543Y0101026D01*
X0136853Y0102716D01*
X0134464Y0102716D01*
X0132774Y0101026D01*
X0132774Y0098637D01*
X0134464Y0096947D01*
X0134674Y0096947D01*
X0135727Y0095895D01*
X0136840Y0094782D01*
X0139778Y0094782D01*
X0139778Y0093450D01*
X0140251Y0092977D01*
X0140251Y0092676D01*
X0135869Y0092676D01*
X0134884Y0093661D01*
X0132495Y0093661D01*
X0130806Y0091971D01*
X0130806Y0089582D01*
X0132495Y0087892D01*
X0134884Y0087892D01*
X0135869Y0088876D01*
X0136583Y0088876D01*
X0135265Y0087558D01*
X0134152Y0086445D01*
X0134152Y0069911D01*
X0135333Y0068730D01*
X0136446Y0067617D01*
X0155343Y0067617D01*
X0156456Y0068730D01*
X0157311Y0069585D01*
X0157311Y0069585D01*
X0158424Y0070698D01*
X0158424Y0071469D01*
X0159116Y0071469D01*
X0159828Y0072180D01*
X0160330Y0071678D01*
X0160330Y0069599D01*
X0159149Y0068418D01*
X0159149Y0068024D01*
X0154080Y0062955D01*
X0106048Y0062955D01*
X0104818Y0061725D01*
X0099306Y0056213D01*
X0099306Y0052992D01*
X0098522Y0052207D01*
X0098522Y0049818D01*
X0100212Y0048128D01*
X0102601Y0048128D01*
X0104291Y0049818D01*
X0104291Y0052207D01*
X0103506Y0052992D01*
X0103506Y0054473D01*
X0107788Y0058755D01*
X0144762Y0058755D01*
X0140918Y0054912D01*
X0139929Y0053923D01*
X0131250Y0053923D01*
X0130488Y0053161D01*
X0130488Y0051317D01*
X0121210Y0051317D01*
X0121210Y0051527D01*
X0120449Y0052289D01*
X0116616Y0052289D01*
X0116302Y0051975D01*
X0116232Y0052094D01*
X0115897Y0052429D01*
X0115487Y0052666D01*
X0115029Y0052789D01*
X0113414Y0052789D01*
X0111799Y0052789D01*
X0111341Y0052666D01*
X0110931Y0052429D01*
X0110596Y0052094D01*
X0110359Y0051684D01*
X0110236Y0051226D01*
X0110236Y0049217D01*
X0110236Y0047209D01*
X0110359Y0046751D01*
X0110596Y0046340D01*
X0110931Y0046005D01*
X0111341Y0045768D01*
X0111799Y0045646D01*
X0113414Y0045646D01*
X0113414Y0049217D01*
X0113414Y0049217D01*
X0110236Y0049217D01*
X0113414Y0049217D01*
X0113414Y0049217D01*
X0113414Y0045646D01*
X0115029Y0045646D01*
X0115487Y0045768D01*
X0115897Y0046005D01*
X0116232Y0046340D01*
X0116302Y0046460D01*
X0116616Y0046146D01*
X0120449Y0046146D01*
X0121210Y0046907D01*
X0121210Y0047117D01*
X0130488Y0047117D01*
X0130488Y0045084D01*
X0131250Y0044323D01*
X0152327Y0044323D01*
X0153088Y0045084D01*
X0153088Y0053161D01*
X0152327Y0053923D01*
X0145869Y0053923D01*
X0147552Y0055606D01*
X0168812Y0055606D01*
X0170042Y0056836D01*
X0174372Y0061166D01*
X0174372Y0071725D01*
X0174828Y0072180D01*
X0175539Y0071469D01*
X0177688Y0071469D01*
X0177688Y0053923D01*
X0169250Y0053923D01*
X0168488Y0053161D01*
X0168488Y0045084D01*
X0169250Y0044323D01*
X0190327Y0044323D01*
X0191088Y0045084D01*
X0191088Y0047023D01*
X0197350Y0047023D01*
X0197350Y0046691D01*
X0198112Y0045929D01*
X0201945Y0045929D01*
X0202259Y0046243D01*
X0202328Y0046124D01*
X0202663Y0045789D01*
X0203074Y0045552D01*
X0203532Y0045429D01*
X0205146Y0045429D01*
X0205146Y0049001D01*
X0205146Y0052572D01*
X0203532Y0052572D01*
X0203074Y0052450D01*
X0202663Y0052213D01*
X0202328Y0051878D01*
X0202259Y0051758D01*
X0201945Y0052072D01*
X0198112Y0052072D01*
X0197350Y0051311D01*
X0197350Y0051223D01*
X0191088Y0051223D01*
X0191088Y0053161D01*
X0190327Y0053923D01*
X0181888Y0053923D01*
X0181888Y0074178D01*
X0180658Y0075408D01*
X0179878Y0076188D01*
X0179878Y0079307D01*
X0179116Y0080068D01*
X0175539Y0080068D01*
X0174828Y0079357D01*
X0174116Y0080068D01*
X0170539Y0080068D01*
X0169828Y0079357D01*
X0169116Y0080068D01*
X0165539Y0080068D01*
X0164828Y0079357D01*
X0164116Y0080068D01*
X0160539Y0080068D01*
X0159828Y0079357D01*
X0159116Y0080068D01*
X0156062Y0080068D01*
X0156062Y0081905D01*
X0157046Y0082889D01*
X0157046Y0085278D01*
X0155357Y0086968D01*
X0152968Y0086968D01*
X0151278Y0085278D01*
X0151278Y0082889D01*
X0152262Y0081905D01*
X0152262Y0080068D01*
X0150539Y0080068D01*
X0149828Y0079357D01*
X0149116Y0080068D01*
X0148976Y0080068D01*
X0148976Y0086446D01*
X0149831Y0087302D01*
X0193532Y0087302D01*
X0194645Y0088415D01*
X0195694Y0089464D01*
X0195763Y0089464D01*
X0195763Y0078883D01*
X0196993Y0077653D01*
X0240302Y0077653D01*
X0241166Y0076789D01*
X0242673Y0076165D01*
X0249904Y0076165D01*
X0251411Y0076789D01*
X0252564Y0077942D01*
X0253188Y0079449D01*
X0253188Y0081080D01*
X0252564Y0082587D01*
X0251411Y0083740D01*
X0249904Y0084365D01*
X0242673Y0084365D01*
X0241166Y0083740D01*
X0240012Y0082587D01*
X0239708Y0081853D01*
X0199963Y0081853D01*
X0199963Y0092434D01*
X0198733Y0093664D01*
X0197007Y0093664D01*
X0197007Y0106451D01*
X0198637Y0104821D01*
X0201026Y0104821D01*
X0202716Y0106511D01*
X0202716Y0108900D01*
X0201731Y0109884D01*
X0201731Y0137885D01*
X0201824Y0138531D01*
X0201731Y0138654D01*
X0201731Y0138807D01*
X0201270Y0139268D01*
X0198188Y0143378D01*
X0198188Y0143532D01*
X0197727Y0143993D01*
X0197336Y0144514D01*
X0197184Y0144536D01*
X0197075Y0144645D01*
X0196423Y0144645D01*
X0195778Y0144737D01*
X0195655Y0144645D01*
X0161111Y0144645D01*
X0162361Y0145895D01*
X0162361Y0149900D01*
X0177656Y0149900D01*
X0177656Y0148637D01*
X0179345Y0146947D01*
X0181735Y0146947D01*
X0183424Y0148637D01*
X0183424Y0151026D01*
X0181795Y0152656D01*
X0186887Y0152656D01*
X0186887Y0151989D01*
X0185924Y0151026D01*
X0185924Y0148637D01*
X0187613Y0146947D01*
X0190003Y0146947D01*
X0191692Y0148637D01*
X0191692Y0151026D01*
X0190687Y0152032D01*
X0190687Y0154959D01*
X0189574Y0156072D01*
X0189189Y0156456D01*
X0158493Y0156456D01*
X0157380Y0155343D01*
X0155018Y0152981D01*
X0155018Y0148582D01*
X0154472Y0148582D01*
X0154472Y0148650D01*
X0150422Y0148650D01*
X0150422Y0148650D01*
X0154472Y0148650D01*
X0154472Y0149387D01*
X0154349Y0149845D01*
X0154112Y0150256D01*
X0153972Y0150396D01*
X0153972Y0151657D01*
X0155018Y0151657D01*
X0153972Y0151657D02*
X0153211Y0152419D01*
X0151309Y0152419D01*
X0151209Y0152519D01*
X0145107Y0152519D01*
X0143994Y0151406D01*
X0142617Y0150028D01*
X0142617Y0148582D01*
X0128571Y0148582D01*
X0124960Y0152193D01*
X0124679Y0152474D01*
X0124831Y0152474D01*
X0124831Y0156524D01*
X0124832Y0156524D01*
X0124832Y0152474D01*
X0125568Y0152474D01*
X0126026Y0152597D01*
X0126437Y0152834D01*
X0126577Y0152974D01*
X0145555Y0152974D01*
X0146317Y0153736D01*
X0146317Y0154624D01*
X0149437Y0154624D01*
X0151800Y0156987D01*
X0198256Y0156987D01*
X0198453Y0157183D01*
X0199845Y0157183D01*
X0201535Y0158873D01*
X0201535Y0158955D01*
X0224241Y0158955D01*
X0224516Y0159231D01*
X0230782Y0159231D01*
X0230957Y0158808D01*
X0231341Y0158424D01*
X0216761Y0158424D01*
X0215648Y0157311D01*
X0214005Y0155668D01*
X0211249Y0155668D01*
X0210136Y0154555D01*
X0205018Y0149437D01*
X0205018Y0130751D01*
X0204034Y0129766D01*
X0204034Y0127377D01*
X0205723Y0125687D01*
X0208113Y0125687D01*
X0209802Y0127377D01*
X0209802Y0129766D01*
X0208818Y0130751D01*
X0208818Y0147863D01*
X0212823Y0151869D01*
X0215579Y0151869D01*
X0218335Y0154624D01*
X0232154Y0154624D01*
X0232111Y0154607D01*
X0230957Y0153453D01*
X0230733Y0152913D01*
X0223270Y0152913D01*
X0222286Y0153897D01*
X0219897Y0153897D01*
X0218207Y0152207D01*
X0218207Y0149818D01*
X0219897Y0148128D01*
X0222286Y0148128D01*
X0223270Y0149113D01*
X0230831Y0149113D01*
X0230957Y0148808D01*
X0232111Y0147655D01*
X0233618Y0147031D01*
X0240849Y0147031D01*
X0242356Y0147655D01*
X0242507Y0147806D01*
X0247965Y0147302D01*
X0247965Y0147010D01*
X0248279Y0146695D01*
X0248159Y0146626D01*
X0247824Y0146291D01*
X0247587Y0145881D01*
X0247465Y0145423D01*
X0247465Y0143808D01*
X0251036Y0143808D01*
X0251036Y0143808D01*
X0247465Y0143808D01*
X0247465Y0142193D01*
X0247587Y0141735D01*
X0247824Y0141325D01*
X0248159Y0140990D01*
X0248570Y0140753D01*
X0249028Y0140630D01*
X0251036Y0140630D01*
X0251036Y0143808D01*
X0251036Y0143808D01*
X0254608Y0143808D01*
X0254608Y0145423D01*
X0254485Y0145881D01*
X0254248Y0146291D01*
X0253913Y0146626D01*
X0253794Y0146695D01*
X0254108Y0147010D01*
X0254108Y0150842D01*
X0253346Y0151604D01*
X0248726Y0151604D01*
X0248217Y0151095D01*
X0244133Y0151472D01*
X0244133Y0151946D01*
X0243509Y0153453D01*
X0242356Y0154607D01*
X0242312Y0154624D01*
X0251012Y0154624D01*
X0253374Y0156987D01*
X0254487Y0158100D01*
X0254487Y0206918D01*
X0250279Y0211126D01*
X0250373Y0211060D01*
X0250475Y0211078D01*
X0250497Y0211068D01*
X0250549Y0210978D01*
X0250880Y0210889D01*
X0251191Y0210745D01*
X0251289Y0210780D01*
X0251312Y0210774D01*
X0251379Y0210694D01*
X0251721Y0210664D01*
X0252052Y0210576D01*
X0252142Y0210627D01*
X0252166Y0210625D01*
X0252246Y0210559D01*
X0252587Y0210589D01*
X0252929Y0210559D01*
X0253009Y0210625D01*
X0253033Y0210627D01*
X0253123Y0210576D01*
X0253454Y0210664D01*
X0253796Y0210694D01*
X0253863Y0210774D01*
X0253886Y0210780D01*
X0253984Y0210745D01*
X0254294Y0210889D01*
X0254626Y0210978D01*
X0254678Y0211068D01*
X0254700Y0211078D01*
X0254802Y0211060D01*
X0255083Y0211257D01*
X0255394Y0211402D01*
X0255429Y0211500D01*
X0255449Y0211514D01*
X0255553Y0211514D01*
X0255796Y0211756D01*
X0256077Y0211953D01*
X0256095Y0212055D01*
X0256112Y0212072D01*
X0256214Y0212090D01*
X0256411Y0212371D01*
X0256653Y0212614D01*
X0256653Y0212718D01*
X0256667Y0212738D01*
X0256765Y0212773D01*
X0256910Y0213084D01*
X0257107Y0213365D01*
X0257088Y0213467D01*
X0257099Y0213489D01*
X0257189Y0213541D01*
X0257277Y0213873D01*
X0257422Y0214183D01*
X0257387Y0214281D01*
X0257393Y0214304D01*
X0257473Y0214371D01*
X0257503Y0214713D01*
X0257591Y0215044D01*
X0257539Y0215134D01*
X0257542Y0215158D01*
X0257608Y0215238D01*
X0257578Y0215580D01*
X0257608Y0215921D01*
X0257542Y0216001D01*
X0257539Y0216025D01*
X0257591Y0216115D01*
X0257503Y0216446D01*
X0257473Y0216788D01*
X0257393Y0216855D01*
X0257387Y0216878D01*
X0257422Y0216976D01*
X0257277Y0217287D01*
X0257189Y0217618D01*
X0257099Y0217670D01*
X0257088Y0217692D01*
X0257107Y0217794D01*
X0256910Y0218075D01*
X0256765Y0218386D01*
X0256667Y0218421D01*
X0256653Y0218441D01*
X0256653Y0218545D01*
X0256411Y0218788D01*
X0256214Y0219069D01*
X0256112Y0219087D01*
X0256095Y0219104D01*
X0256077Y0219206D01*
X0255796Y0219403D01*
X0255553Y0219645D01*
X0255449Y0219645D01*
X0255429Y0219659D01*
X0255394Y0219757D01*
X0255083Y0219902D01*
X0254802Y0220099D01*
X0254700Y0220081D01*
X0254678Y0220091D01*
X0254626Y0220181D01*
X0254294Y0220270D01*
X0253984Y0220415D01*
X0253886Y0220379D01*
X0253863Y0220385D01*
X0253796Y0220465D01*
X0253454Y0220495D01*
X0253123Y0220583D01*
X0253033Y0220532D01*
X0253009Y0220534D01*
X0252929Y0220600D01*
X0252587Y0220571D01*
X0252246Y0220600D01*
X0252166Y0220534D01*
X0252142Y0220532D01*
X0252052Y0220583D01*
X0251721Y0220495D01*
X0251379Y0220465D01*
X0251312Y0220385D01*
X0251289Y0220379D01*
X0251191Y0220415D01*
X0250880Y0220270D01*
X0250549Y0220181D01*
X0250497Y0220091D01*
X0250475Y0220081D01*
X0250373Y0220099D01*
X0250092Y0219902D01*
X0249781Y0219757D01*
X0249745Y0219659D01*
X0249726Y0219645D01*
X0249622Y0219645D01*
X0249379Y0219403D01*
X0249098Y0219206D01*
X0249080Y0219104D01*
X0249063Y0219087D01*
X0248961Y0219069D01*
X0248764Y0218788D01*
X0248521Y0218545D01*
X0248521Y0218441D01*
X0248508Y0218421D01*
X0248410Y0218386D01*
X0248265Y0218075D01*
X0248068Y0217794D01*
X0248086Y0217692D01*
X0248076Y0217670D01*
X0247986Y0217618D01*
X0247897Y0217287D01*
X0247752Y0216976D01*
X0247788Y0216878D01*
X0247782Y0216855D01*
X0247702Y0216788D01*
X0247672Y0216446D01*
X0247583Y0216115D01*
X0247635Y0216025D01*
X0247633Y0216001D01*
X0247566Y0215921D01*
X0247596Y0215580D01*
X0247566Y0215238D01*
X0247633Y0215158D01*
X0247635Y0215134D01*
X0247583Y0215044D01*
X0247672Y0214713D01*
X0247702Y0214371D01*
X0247782Y0214304D01*
X0247788Y0214281D01*
X0247752Y0214183D01*
X0247897Y0213873D01*
X0247986Y0213541D01*
X0248076Y0213489D01*
X0248086Y0213467D01*
X0248068Y0213365D01*
X0248134Y0213271D01*
X0239133Y0222272D01*
X0239133Y0223847D01*
X0236771Y0226209D01*
X0236771Y0228178D01*
X0235590Y0229359D01*
X0235590Y0230992D01*
X0237600Y0227277D01*
X0240750Y0224377D01*
X0244671Y0222658D01*
X0248937Y0222304D01*
X0253087Y0223355D01*
X0256671Y0225697D01*
X0259300Y0229075D01*
X0259843Y0230654D01*
X0259843Y0046961D01*
X0259300Y0048541D01*
X0256671Y0051919D01*
X0253087Y0054261D01*
X0248937Y0055311D01*
X0244671Y0054958D01*
X0240750Y0053238D01*
X0237600Y0050339D01*
X0235563Y0046574D01*
X0234858Y0042351D01*
X0235563Y0038129D01*
X0237600Y0034364D01*
X0240750Y0031464D01*
X0243241Y0030372D01*
X0069719Y0030372D01*
X0069804Y0030433D01*
X0070398Y0031028D01*
X0070893Y0031708D01*
X0071275Y0032458D01*
X0071535Y0033257D01*
X0071666Y0034088D01*
X0071666Y0034128D01*
X0071363Y0034128D01*
X0071363Y0034890D01*
X0071666Y0034890D01*
X0071666Y0034929D01*
X0071535Y0035760D01*
X0071275Y0036560D01*
X0070893Y0037309D01*
X0070398Y0037990D01*
X0069804Y0038584D01*
X0069760Y0038616D01*
X0069806Y0038663D01*
X0070043Y0039074D01*
X0070166Y0039532D01*
X0070225Y0038163D02*
X0074039Y0038163D01*
X0074039Y0037982D02*
X0074801Y0037220D01*
X0079618Y0037220D01*
X0080380Y0037982D01*
X0080380Y0038029D01*
X0088061Y0037833D01*
X0088061Y0036521D01*
X0088823Y0035760D01*
X0096998Y0035760D01*
X0097759Y0036521D01*
X0097759Y0043898D01*
X0096998Y0044659D01*
X0088823Y0044659D01*
X0088061Y0043898D01*
X0088061Y0042834D01*
X0085396Y0042902D01*
X0085396Y0058220D01*
X0085691Y0057924D01*
X0085848Y0057668D01*
X0086212Y0057403D01*
X0086826Y0056790D01*
X0087056Y0056790D01*
X0088619Y0055653D01*
X0088061Y0055094D01*
X0088061Y0047718D01*
X0088823Y0046957D01*
X0096998Y0046957D01*
X0097759Y0047718D01*
X0097759Y0055094D01*
X0096998Y0055856D01*
X0095341Y0055856D01*
X0095289Y0056337D01*
X0095306Y0056407D01*
X0095226Y0056908D01*
X0095171Y0057413D01*
X0095137Y0057476D01*
X0095126Y0057546D01*
X0094861Y0057979D01*
X0094617Y0058424D01*
X0094561Y0058469D01*
X0094523Y0058530D01*
X0094113Y0058829D01*
X0093717Y0059147D01*
X0093648Y0059167D01*
X0093585Y0059213D01*
X0093585Y0070190D01*
X0092355Y0071420D01*
X0086785Y0071420D01*
X0086335Y0071870D01*
X0080258Y0071870D01*
X0079496Y0071108D01*
X0079496Y0063988D01*
X0080258Y0063226D01*
X0081196Y0063226D01*
X0081196Y0043010D01*
X0079940Y0043042D01*
X0079618Y0043364D01*
X0074801Y0043364D01*
X0074039Y0042602D01*
X0074039Y0037982D01*
X0071272Y0036564D02*
X0088061Y0036564D01*
X0088061Y0042958D02*
X0085396Y0042958D01*
X0085396Y0044557D02*
X0088720Y0044557D01*
X0088061Y0047754D02*
X0085396Y0047754D01*
X0085396Y0049352D02*
X0088061Y0049352D01*
X0088061Y0050951D02*
X0085396Y0050951D01*
X0085396Y0052549D02*
X0088061Y0052549D01*
X0088061Y0054148D02*
X0085396Y0054148D01*
X0085396Y0055746D02*
X0088490Y0055746D01*
X0086271Y0057345D02*
X0085396Y0057345D01*
X0081196Y0057345D02*
X0079309Y0057345D01*
X0079637Y0055746D02*
X0081196Y0055746D01*
X0081196Y0054148D02*
X0080380Y0054148D01*
X0080380Y0052549D02*
X0081196Y0052549D01*
X0081196Y0050951D02*
X0080380Y0050951D01*
X0081196Y0049352D02*
X0062755Y0049352D01*
X0062755Y0050951D02*
X0074039Y0050951D01*
X0074039Y0052549D02*
X0062755Y0052549D01*
X0059674Y0050619D02*
X0052981Y0050619D01*
X0052623Y0050261D01*
X0052623Y0044942D01*
X0050064Y0044942D02*
X0049831Y0044942D01*
X0049831Y0054556D01*
X0051931Y0052549D02*
X0051942Y0052549D01*
X0052716Y0054148D02*
X0074039Y0054148D01*
X0074782Y0055746D02*
X0052716Y0055746D01*
X0051121Y0057345D02*
X0074207Y0057345D01*
X0074847Y0059674D02*
X0077209Y0057312D01*
X0077209Y0052694D01*
X0081196Y0047754D02*
X0070094Y0047754D01*
X0070166Y0046155D02*
X0081196Y0046155D01*
X0081196Y0044557D02*
X0070166Y0044557D01*
X0070166Y0041360D02*
X0074039Y0041360D01*
X0074395Y0042958D02*
X0066045Y0042958D01*
X0064601Y0042958D02*
X0060230Y0042958D01*
X0060230Y0044557D02*
X0060480Y0044557D01*
X0060230Y0044942D02*
X0057741Y0044942D01*
X0060230Y0044942D01*
X0060230Y0046155D02*
X0060480Y0046155D01*
X0057741Y0044942D02*
X0057741Y0044942D01*
X0057741Y0040386D01*
X0057741Y0044942D01*
X0057741Y0044942D01*
X0057741Y0044557D02*
X0057741Y0044557D01*
X0057741Y0042958D02*
X0057741Y0042958D01*
X0057741Y0041360D02*
X0057741Y0041360D01*
X0058023Y0039761D02*
X0056423Y0039761D01*
X0056423Y0038163D02*
X0058023Y0038163D01*
X0058023Y0036564D02*
X0056423Y0036564D01*
X0056423Y0035309D02*
X0056423Y0033709D01*
X0051683Y0033709D01*
X0048723Y0033709D01*
X0048723Y0035309D01*
X0056423Y0035309D01*
X0056423Y0034966D02*
X0048723Y0034966D01*
X0048723Y0036564D02*
X0047123Y0036564D01*
X0047123Y0038163D02*
X0048723Y0038163D01*
X0048723Y0039761D02*
X0047123Y0039761D01*
X0045803Y0041360D02*
X0044666Y0041360D01*
X0044908Y0042958D02*
X0040545Y0042958D01*
X0039101Y0042958D02*
X0032344Y0042958D01*
X0032344Y0041360D02*
X0034980Y0041360D01*
X0034980Y0039761D02*
X0032190Y0039761D01*
X0031641Y0038163D02*
X0035120Y0038163D01*
X0033975Y0036564D02*
X0031092Y0036564D01*
X0030023Y0034966D02*
X0033517Y0034966D01*
X0033562Y0033367D02*
X0028779Y0033367D01*
X0026771Y0031769D02*
X0034120Y0031769D01*
X0034980Y0044030D02*
X0039101Y0044030D01*
X0039101Y0048849D01*
X0036543Y0048849D01*
X0036085Y0048726D01*
X0035674Y0048489D01*
X0035339Y0048154D01*
X0035102Y0047744D01*
X0034980Y0047286D01*
X0034980Y0044030D01*
X0034980Y0044557D02*
X0032322Y0044557D01*
X0031773Y0046155D02*
X0034980Y0046155D01*
X0035108Y0047754D02*
X0031224Y0047754D01*
X0030322Y0049352D02*
X0043794Y0049352D01*
X0043794Y0050951D02*
X0029078Y0050951D01*
X0027360Y0052549D02*
X0043794Y0052549D01*
X0043794Y0054148D02*
X0024913Y0054148D01*
X0020579Y0060542D02*
X0015805Y0060542D01*
X0015805Y0062140D02*
X0020579Y0062140D01*
X0020579Y0063739D02*
X0011728Y0063739D01*
X0011728Y0063894D02*
X0015805Y0063894D01*
X0015805Y0066407D01*
X0015682Y0066865D01*
X0015445Y0067275D01*
X0015110Y0067610D01*
X0014699Y0067847D01*
X0014242Y0067970D01*
X0011728Y0067970D01*
X0011728Y0063894D01*
X0011728Y0065337D02*
X0010376Y0065337D01*
X0010376Y0066936D02*
X0011728Y0066936D01*
X0015641Y0066936D02*
X0020806Y0066936D01*
X0020579Y0065337D02*
X0015805Y0065337D01*
X0011728Y0062140D02*
X0010376Y0062140D01*
X0010376Y0060542D02*
X0011728Y0060542D01*
X0011728Y0058943D02*
X0010376Y0058943D01*
X0007537Y0057345D02*
X0043794Y0057345D01*
X0043794Y0058943D02*
X0015229Y0058943D01*
X0014477Y0054148D02*
X0007537Y0054148D01*
X0007537Y0055746D02*
X0043794Y0055746D01*
X0045894Y0058099D02*
X0047469Y0059674D01*
X0074847Y0059674D01*
X0076949Y0060542D02*
X0081196Y0060542D01*
X0081196Y0062140D02*
X0059798Y0062140D01*
X0060428Y0063739D02*
X0079745Y0063739D01*
X0079496Y0065337D02*
X0060516Y0065337D01*
X0060614Y0066936D02*
X0079496Y0066936D01*
X0079496Y0068534D02*
X0060712Y0068534D01*
X0060811Y0070133D02*
X0079496Y0070133D01*
X0080119Y0071731D02*
X0060909Y0071731D01*
X0061008Y0073330D02*
X0134152Y0073330D01*
X0134152Y0074928D02*
X0061106Y0074928D01*
X0061204Y0076527D02*
X0134152Y0076527D01*
X0134152Y0078126D02*
X0061303Y0078126D01*
X0061401Y0079724D02*
X0061861Y0079724D01*
X0063827Y0079724D02*
X0063828Y0079724D01*
X0063828Y0079630D02*
X0065442Y0079630D01*
X0065900Y0079753D01*
X0066311Y0079990D01*
X0066646Y0080325D01*
X0066883Y0080735D01*
X0067005Y0081193D01*
X0067005Y0083202D01*
X0067005Y0085210D01*
X0066883Y0085668D01*
X0066646Y0086078D01*
X0066311Y0086414D01*
X0065900Y0086651D01*
X0065442Y0086773D01*
X0063828Y0086773D01*
X0063828Y0083202D01*
X0067005Y0083202D01*
X0063828Y0083202D01*
X0063828Y0083201D02*
X0063828Y0079630D01*
X0063827Y0081323D02*
X0063828Y0081323D01*
X0063827Y0082921D02*
X0063828Y0082921D01*
X0063827Y0084520D02*
X0063828Y0084520D01*
X0063827Y0086118D02*
X0063828Y0086118D01*
X0065207Y0087717D02*
X0135423Y0087717D01*
X0134152Y0086118D02*
X0066606Y0086118D01*
X0067005Y0084520D02*
X0134152Y0084520D01*
X0134152Y0082921D02*
X0067005Y0082921D01*
X0067005Y0081323D02*
X0134152Y0081323D01*
X0134152Y0079724D02*
X0065794Y0079724D01*
X0061049Y0086118D02*
X0060781Y0086118D01*
X0055628Y0087717D02*
X0019487Y0087717D01*
X0019487Y0089315D02*
X0055628Y0089315D01*
X0056337Y0090914D02*
X0044687Y0090914D01*
X0044687Y0092512D02*
X0063483Y0092512D01*
X0064835Y0094111D02*
X0044687Y0094111D01*
X0043087Y0095709D02*
X0135913Y0095709D01*
X0134103Y0097308D02*
X0122829Y0097308D01*
X0124428Y0098906D02*
X0132774Y0098906D01*
X0132774Y0100505D02*
X0126026Y0100505D01*
X0127625Y0102103D02*
X0133851Y0102103D01*
X0137466Y0102103D02*
X0187302Y0102103D01*
X0187302Y0100505D02*
X0179878Y0100505D01*
X0179878Y0098906D02*
X0187302Y0098906D01*
X0187302Y0097308D02*
X0179878Y0097308D01*
X0179878Y0095709D02*
X0187302Y0095709D01*
X0186095Y0094111D02*
X0179878Y0094111D01*
X0185530Y0092512D02*
X0144451Y0092512D01*
X0144451Y0090914D02*
X0148069Y0090914D01*
X0146471Y0089315D02*
X0144451Y0089315D01*
X0144230Y0087717D02*
X0145176Y0087717D01*
X0145176Y0086118D02*
X0139199Y0086118D01*
X0137952Y0084520D02*
X0145176Y0084520D01*
X0145176Y0082921D02*
X0137952Y0082921D01*
X0137952Y0081323D02*
X0145176Y0081323D01*
X0145176Y0079724D02*
X0145104Y0079724D01*
X0142328Y0079724D02*
X0142327Y0079724D01*
X0142327Y0080568D02*
X0140841Y0080568D01*
X0140383Y0080446D01*
X0139972Y0080209D01*
X0139637Y0079874D01*
X0139400Y0079463D01*
X0139278Y0079005D01*
X0139278Y0075769D01*
X0142327Y0075769D01*
X0142327Y0080568D01*
X0142327Y0078126D02*
X0142328Y0078126D01*
X0142327Y0076527D02*
X0142328Y0076527D01*
X0139278Y0076527D02*
X0137952Y0076527D01*
X0137952Y0078126D02*
X0139278Y0078126D01*
X0139551Y0079724D02*
X0137952Y0079724D01*
X0137952Y0074928D02*
X0139278Y0074928D01*
X0139278Y0073330D02*
X0137952Y0073330D01*
X0137952Y0071731D02*
X0139598Y0071731D01*
X0135528Y0068534D02*
X0093585Y0068534D01*
X0093585Y0066936D02*
X0158061Y0066936D01*
X0159265Y0068534D02*
X0156261Y0068534D01*
X0156456Y0068730D02*
X0156456Y0068730D01*
X0157859Y0070133D02*
X0160330Y0070133D01*
X0160276Y0071731D02*
X0159379Y0071731D01*
X0162430Y0068729D02*
X0162430Y0075666D01*
X0162328Y0075769D01*
X0164461Y0079724D02*
X0165195Y0079724D01*
X0169461Y0079724D02*
X0170195Y0079724D01*
X0174461Y0079724D02*
X0175195Y0079724D01*
X0179461Y0079724D02*
X0195763Y0079724D01*
X0195763Y0081323D02*
X0156062Y0081323D01*
X0157046Y0082921D02*
X0195763Y0082921D01*
X0195763Y0084520D02*
X0157046Y0084520D01*
X0156207Y0086118D02*
X0195763Y0086118D01*
X0195763Y0087717D02*
X0193947Y0087717D01*
X0195545Y0089315D02*
X0195763Y0089315D01*
X0195107Y0091564D02*
X0197863Y0091564D01*
X0197863Y0079753D01*
X0246288Y0079753D01*
X0246288Y0080265D01*
X0241798Y0076527D02*
X0179878Y0076527D01*
X0179878Y0078126D02*
X0196520Y0078126D01*
X0199963Y0082921D02*
X0240346Y0082921D01*
X0241166Y0086789D02*
X0242673Y0086165D01*
X0249904Y0086165D01*
X0251411Y0086789D01*
X0252564Y0087942D01*
X0253188Y0089449D01*
X0253188Y0091080D01*
X0252564Y0092587D01*
X0251411Y0093740D01*
X0249904Y0094365D01*
X0242673Y0094365D01*
X0241166Y0093740D01*
X0240012Y0092587D01*
X0239388Y0091080D01*
X0239388Y0089449D01*
X0240012Y0087942D01*
X0241166Y0086789D01*
X0240238Y0087717D02*
X0199963Y0087717D01*
X0199963Y0089315D02*
X0239444Y0089315D01*
X0239388Y0090914D02*
X0199963Y0090914D01*
X0199884Y0092512D02*
X0239981Y0092512D01*
X0242060Y0094111D02*
X0197007Y0094111D01*
X0197007Y0095709D02*
X0242845Y0095709D01*
X0243126Y0095665D02*
X0246188Y0095665D01*
X0246188Y0100164D01*
X0246388Y0100164D01*
X0246388Y0095665D01*
X0249450Y0095665D01*
X0250165Y0095778D01*
X0250854Y0096002D01*
X0251499Y0096330D01*
X0252085Y0096756D01*
X0252597Y0097268D01*
X0253022Y0097854D01*
X0253351Y0098499D01*
X0253575Y0099187D01*
X0253688Y0099903D01*
X0253688Y0100165D01*
X0246388Y0100165D01*
X0246388Y0100365D01*
X0246188Y0100365D01*
X0246188Y0104865D01*
X0243126Y0104865D01*
X0242411Y0104751D01*
X0241722Y0104528D01*
X0241077Y0104199D01*
X0240491Y0103773D01*
X0239980Y0103261D01*
X0239554Y0102675D01*
X0239225Y0102030D01*
X0239001Y0101342D01*
X0238888Y0100627D01*
X0238888Y0100365D01*
X0246188Y0100365D01*
X0246188Y0100165D01*
X0238888Y0100165D01*
X0238888Y0099903D01*
X0239001Y0099187D01*
X0239225Y0098499D01*
X0239554Y0097854D01*
X0239980Y0097268D01*
X0240491Y0096756D01*
X0241077Y0096330D01*
X0241722Y0096002D01*
X0242411Y0095778D01*
X0243126Y0095665D01*
X0246188Y0095709D02*
X0246388Y0095709D01*
X0246388Y0097308D02*
X0246188Y0097308D01*
X0246188Y0098906D02*
X0246388Y0098906D01*
X0246388Y0100365D02*
X0253688Y0100365D01*
X0253688Y0100627D01*
X0253575Y0101342D01*
X0253351Y0102030D01*
X0253022Y0102675D01*
X0252597Y0103261D01*
X0252085Y0103773D01*
X0251499Y0104199D01*
X0250854Y0104528D01*
X0250165Y0104751D01*
X0249450Y0104865D01*
X0246388Y0104865D01*
X0246388Y0100365D01*
X0246388Y0100505D02*
X0246188Y0100505D01*
X0246188Y0102103D02*
X0246388Y0102103D01*
X0246388Y0103702D02*
X0246188Y0103702D01*
X0240420Y0103702D02*
X0197007Y0103702D01*
X0197007Y0105300D02*
X0198158Y0105300D01*
X0201505Y0105300D02*
X0259843Y0105300D01*
X0259843Y0103702D02*
X0252156Y0103702D01*
X0253314Y0102103D02*
X0259843Y0102103D01*
X0259843Y0100505D02*
X0253688Y0100505D01*
X0253484Y0098906D02*
X0259843Y0098906D01*
X0259843Y0097308D02*
X0252626Y0097308D01*
X0249732Y0095709D02*
X0259843Y0095709D01*
X0259843Y0094111D02*
X0250517Y0094111D01*
X0252595Y0092512D02*
X0259843Y0092512D01*
X0259843Y0090914D02*
X0253188Y0090914D01*
X0253133Y0089315D02*
X0259843Y0089315D01*
X0259843Y0087717D02*
X0252338Y0087717D01*
X0252230Y0082921D02*
X0259843Y0082921D01*
X0259843Y0081323D02*
X0253088Y0081323D01*
X0253188Y0079724D02*
X0259843Y0079724D01*
X0259843Y0078126D02*
X0252640Y0078126D01*
X0250779Y0076527D02*
X0259843Y0076527D01*
X0259843Y0074928D02*
X0181137Y0074928D01*
X0181888Y0073330D02*
X0240755Y0073330D01*
X0241166Y0073740D02*
X0240012Y0072587D01*
X0239388Y0071080D01*
X0239388Y0069449D01*
X0240012Y0067942D01*
X0241166Y0066789D01*
X0242673Y0066165D01*
X0249904Y0066165D01*
X0251411Y0066789D01*
X0252564Y0067942D01*
X0253188Y0069449D01*
X0253188Y0071080D01*
X0252564Y0072587D01*
X0251411Y0073740D01*
X0249904Y0074365D01*
X0242673Y0074365D01*
X0241166Y0073740D01*
X0239658Y0071731D02*
X0181888Y0071731D01*
X0181888Y0070133D02*
X0239388Y0070133D01*
X0239767Y0068534D02*
X0181888Y0068534D01*
X0181888Y0066936D02*
X0241019Y0066936D01*
X0251558Y0066936D02*
X0259843Y0066936D01*
X0259843Y0068534D02*
X0252809Y0068534D01*
X0253188Y0070133D02*
X0259843Y0070133D01*
X0259843Y0071731D02*
X0252918Y0071731D01*
X0251821Y0073330D02*
X0259843Y0073330D01*
X0259843Y0065337D02*
X0181888Y0065337D01*
X0181888Y0063739D02*
X0259843Y0063739D01*
X0259843Y0062140D02*
X0181888Y0062140D01*
X0181888Y0060542D02*
X0259843Y0060542D01*
X0259843Y0058943D02*
X0181888Y0058943D01*
X0181888Y0057345D02*
X0259843Y0057345D01*
X0259843Y0055746D02*
X0181888Y0055746D01*
X0181888Y0054148D02*
X0242824Y0054148D01*
X0240002Y0052549D02*
X0206848Y0052549D01*
X0206761Y0052572D02*
X0205147Y0052572D01*
X0205147Y0049001D01*
X0208324Y0049001D01*
X0208324Y0051009D01*
X0208202Y0051467D01*
X0207965Y0051878D01*
X0207630Y0052213D01*
X0207219Y0052450D01*
X0206761Y0052572D01*
X0205147Y0052549D02*
X0205146Y0052549D01*
X0205146Y0050951D02*
X0205147Y0050951D01*
X0205146Y0049352D02*
X0205147Y0049352D01*
X0205147Y0049001D02*
X0205146Y0049001D01*
X0205147Y0049001D01*
X0205147Y0049001D01*
X0208324Y0049001D01*
X0208324Y0046992D01*
X0208202Y0046534D01*
X0207965Y0046124D01*
X0207630Y0045789D01*
X0207219Y0045552D01*
X0206761Y0045429D01*
X0205147Y0045429D01*
X0205147Y0049001D01*
X0205146Y0047754D02*
X0205147Y0047754D01*
X0205146Y0046155D02*
X0205147Y0046155D01*
X0207983Y0046155D02*
X0235493Y0046155D01*
X0235226Y0044557D02*
X0190561Y0044557D01*
X0191088Y0046155D02*
X0197886Y0046155D01*
X0198725Y0049123D02*
X0179788Y0049123D01*
X0179788Y0073308D01*
X0177328Y0075769D01*
X0175276Y0071731D02*
X0174379Y0071731D01*
X0174372Y0070133D02*
X0177688Y0070133D01*
X0177688Y0068534D02*
X0174372Y0068534D01*
X0174372Y0066936D02*
X0177688Y0066936D01*
X0177688Y0065337D02*
X0174372Y0065337D01*
X0174372Y0063739D02*
X0177688Y0063739D01*
X0177688Y0062140D02*
X0174372Y0062140D01*
X0173748Y0060542D02*
X0177688Y0060542D01*
X0177688Y0058943D02*
X0172149Y0058943D01*
X0170551Y0057345D02*
X0177688Y0057345D01*
X0177688Y0055746D02*
X0168952Y0055746D01*
X0167942Y0057706D02*
X0146682Y0057706D01*
X0141788Y0052812D01*
X0141788Y0049123D01*
X0141694Y0049217D01*
X0118532Y0049217D01*
X0116606Y0046155D02*
X0116047Y0046155D01*
X0113414Y0046155D02*
X0113414Y0046155D01*
X0113414Y0047754D02*
X0113414Y0047754D01*
X0113414Y0049217D02*
X0113414Y0052789D01*
X0113414Y0049217D01*
X0113414Y0049217D01*
X0113414Y0049352D02*
X0113414Y0049352D01*
X0113414Y0050951D02*
X0113414Y0050951D01*
X0113414Y0052549D02*
X0113414Y0052549D01*
X0111139Y0052549D02*
X0103948Y0052549D01*
X0104291Y0050951D02*
X0110236Y0050951D01*
X0110236Y0049352D02*
X0103825Y0049352D01*
X0101406Y0051013D02*
X0101406Y0055343D01*
X0106918Y0060855D01*
X0154950Y0060855D01*
X0161249Y0067154D01*
X0161249Y0067548D01*
X0162430Y0068729D01*
X0156462Y0065337D02*
X0093585Y0065337D01*
X0093585Y0063739D02*
X0154864Y0063739D01*
X0146094Y0054148D02*
X0177688Y0054148D01*
X0172272Y0062036D02*
X0167942Y0057706D01*
X0168488Y0052549D02*
X0153088Y0052549D01*
X0153088Y0050951D02*
X0168488Y0050951D01*
X0168488Y0049352D02*
X0153088Y0049352D01*
X0153088Y0047754D02*
X0168488Y0047754D01*
X0168488Y0046155D02*
X0153088Y0046155D01*
X0152561Y0044557D02*
X0169016Y0044557D01*
X0172272Y0062036D02*
X0172272Y0075713D01*
X0172328Y0075769D01*
X0167548Y0075548D02*
X0167328Y0075769D01*
X0167548Y0075548D02*
X0167942Y0064398D01*
X0160195Y0079724D02*
X0159461Y0079724D01*
X0152262Y0081323D02*
X0148976Y0081323D01*
X0148976Y0082921D02*
X0151278Y0082921D01*
X0151278Y0084520D02*
X0148976Y0084520D01*
X0148976Y0086118D02*
X0152118Y0086118D01*
X0150195Y0079724D02*
X0149461Y0079724D01*
X0142351Y0088808D02*
X0142351Y0089202D01*
X0142351Y0096965D01*
X0142328Y0096989D01*
X0139778Y0098906D02*
X0138543Y0098906D01*
X0138543Y0100505D02*
X0139778Y0100505D01*
X0136751Y0106899D02*
X0187302Y0106899D01*
X0187302Y0108497D02*
X0138350Y0108497D01*
X0137558Y0107706D02*
X0137558Y0107706D01*
X0138543Y0110096D02*
X0187302Y0110096D01*
X0187302Y0111694D02*
X0158293Y0111694D01*
X0159409Y0113293D02*
X0187302Y0113293D01*
X0187302Y0114891D02*
X0159409Y0114891D01*
X0158118Y0116490D02*
X0187302Y0116490D01*
X0187302Y0118088D02*
X0140511Y0118088D01*
X0140585Y0116490D02*
X0154931Y0116490D01*
X0149750Y0119687D02*
X0187302Y0119687D01*
X0187302Y0121285D02*
X0151141Y0121285D01*
X0151141Y0122884D02*
X0177425Y0122884D01*
X0176081Y0124482D02*
X0150126Y0124482D01*
X0151998Y0126081D02*
X0146417Y0126081D01*
X0146417Y0127679D02*
X0147120Y0127679D01*
X0146872Y0129278D02*
X0146417Y0129278D01*
X0146417Y0130876D02*
X0146872Y0130876D01*
X0146872Y0132475D02*
X0146417Y0132475D01*
X0146417Y0134073D02*
X0146872Y0134073D01*
X0146872Y0135672D02*
X0146417Y0135672D01*
X0146417Y0137270D02*
X0146872Y0137270D01*
X0146872Y0138869D02*
X0146417Y0138869D01*
X0146417Y0140467D02*
X0146872Y0140467D01*
X0146872Y0142066D02*
X0146417Y0142066D01*
X0146417Y0143664D02*
X0146872Y0143664D01*
X0146872Y0145263D02*
X0146417Y0145263D01*
X0146417Y0146861D02*
X0146872Y0146861D01*
X0142647Y0150059D02*
X0127095Y0150059D01*
X0125496Y0151657D02*
X0144246Y0151657D01*
X0145836Y0153256D02*
X0155293Y0153256D01*
X0156891Y0154854D02*
X0149667Y0154854D01*
X0151266Y0156453D02*
X0158490Y0156453D01*
X0155018Y0150059D02*
X0154226Y0150059D01*
X0162361Y0148460D02*
X0177833Y0148460D01*
X0183248Y0148460D02*
X0186100Y0148460D01*
X0185924Y0150059D02*
X0183424Y0150059D01*
X0182794Y0151657D02*
X0186554Y0151657D01*
X0190687Y0153256D02*
X0208836Y0153256D01*
X0210435Y0154854D02*
X0190687Y0154854D01*
X0189193Y0156453D02*
X0214789Y0156453D01*
X0216388Y0158051D02*
X0200713Y0158051D01*
X0200042Y0162755D02*
X0199845Y0162952D01*
X0197456Y0162952D01*
X0195766Y0161262D01*
X0195766Y0160787D01*
X0150226Y0160787D01*
X0149113Y0159674D01*
X0147863Y0158424D01*
X0146317Y0158424D01*
X0146317Y0159313D01*
X0145555Y0160074D01*
X0144448Y0160074D01*
X0144448Y0163415D01*
X0144713Y0163680D01*
X0208493Y0163680D01*
X0209477Y0164664D01*
X0210869Y0164664D01*
X0212558Y0166353D01*
X0212558Y0168743D01*
X0210869Y0170432D01*
X0208479Y0170432D01*
X0206790Y0168743D01*
X0206790Y0167480D01*
X0157962Y0167480D01*
X0158031Y0167548D01*
X0159674Y0169191D01*
X0174424Y0169191D01*
X0175408Y0168207D01*
X0177798Y0168207D01*
X0179487Y0169897D01*
X0179487Y0172286D01*
X0177798Y0173976D01*
X0175408Y0173976D01*
X0174424Y0172991D01*
X0158100Y0172991D01*
X0156259Y0171151D01*
X0156259Y0172286D01*
X0154569Y0173976D01*
X0152180Y0173976D01*
X0150491Y0172286D01*
X0150491Y0169897D01*
X0152180Y0168207D01*
X0153572Y0168207D01*
X0154300Y0167480D01*
X0145757Y0167480D01*
X0149044Y0170766D01*
X0150157Y0171879D01*
X0150157Y0174634D01*
X0149369Y0175422D01*
X0148256Y0176535D01*
X0142955Y0176535D01*
X0141577Y0177913D01*
X0139655Y0177913D01*
X0139920Y0178178D01*
X0139920Y0179894D01*
X0141897Y0180459D01*
X0142338Y0180018D01*
X0144727Y0180018D01*
X0146417Y0181708D01*
X0146417Y0184097D01*
X0145968Y0184546D01*
X0146471Y0184546D01*
X0147062Y0183955D01*
X0149451Y0183955D01*
X0151141Y0185645D01*
X0151141Y0188034D01*
X0149905Y0189270D01*
X0172199Y0189270D01*
X0170963Y0188034D01*
X0170963Y0185645D01*
X0172653Y0183955D01*
X0175042Y0183955D01*
X0176026Y0184939D01*
X0213611Y0184939D01*
X0216692Y0188021D01*
X0216692Y0189595D01*
X0216298Y0189989D01*
X0216298Y0226575D01*
X0216909Y0225965D01*
X0220471Y0225965D01*
X0222990Y0228483D01*
X0222990Y0232046D01*
X0220471Y0234565D01*
X0216909Y0234565D01*
X0216298Y0233954D01*
X0216298Y0234871D01*
X0217392Y0235965D01*
X0220471Y0235965D01*
X0222990Y0238483D01*
X0222990Y0242046D01*
X0220471Y0244565D01*
X0216909Y0244565D01*
X0214390Y0242046D01*
X0214390Y0238483D01*
X0214463Y0238410D01*
X0213611Y0237558D01*
X0212498Y0236445D01*
X0212498Y0232537D01*
X0210471Y0234565D01*
X0206909Y0234565D01*
X0205275Y0232931D01*
X0205275Y0235265D01*
X0206442Y0236432D01*
X0206909Y0235965D01*
X0210471Y0235965D01*
X0212990Y0238483D01*
X0212990Y0242046D01*
X0210471Y0244565D01*
X0206909Y0244565D01*
X0204390Y0242046D01*
X0204390Y0239754D01*
X0203490Y0238854D01*
X0203490Y0240065D01*
X0198890Y0240065D01*
X0198890Y0240465D01*
X0198490Y0240465D01*
X0198490Y0245065D01*
X0196702Y0245065D01*
X0193890Y0242253D01*
X0193890Y0240465D01*
X0198490Y0240465D01*
X0198490Y0240065D01*
X0193890Y0240065D01*
X0193890Y0238276D01*
X0196702Y0235465D01*
X0198490Y0235465D01*
X0198490Y0240064D01*
X0198890Y0240064D01*
X0198890Y0235465D01*
X0200678Y0235465D01*
X0201475Y0236261D01*
X0201475Y0233561D01*
X0200471Y0234565D01*
X0196909Y0234565D01*
X0194390Y0232046D01*
X0194390Y0228483D01*
X0196909Y0225965D01*
X0200471Y0225965D01*
X0201475Y0226969D01*
X0201475Y0193070D01*
X0135659Y0193070D01*
X0130934Y0188346D01*
X0130590Y0188001D01*
X0130590Y0226083D01*
X0132990Y0228483D01*
X0132990Y0232046D01*
X0132065Y0232971D01*
X0135315Y0232971D01*
X0134390Y0232046D01*
X0134390Y0228483D01*
X0136909Y0225965D01*
X0140471Y0225965D01*
X0142990Y0228483D01*
X0142990Y0232046D01*
X0142065Y0232971D01*
X0143296Y0232971D01*
X0144390Y0231878D01*
X0144390Y0228483D01*
X0146909Y0225965D01*
X0150471Y0225965D01*
X0152990Y0228483D01*
X0152990Y0232046D01*
X0150471Y0234565D01*
X0147077Y0234565D01*
X0145590Y0236052D01*
X0144477Y0237165D01*
X0142903Y0237165D01*
X0142509Y0236771D01*
X0141277Y0236771D01*
X0142990Y0238483D01*
X0142990Y0242046D01*
X0140471Y0244565D01*
X0136909Y0244565D01*
X0134390Y0242046D01*
X0134390Y0238483D01*
X0136102Y0236771D01*
X0131984Y0236771D01*
X0133490Y0238276D01*
X0133490Y0240065D01*
X0128890Y0240065D01*
X0128890Y0240465D01*
X0133490Y0240465D01*
X0133490Y0242253D01*
X0130961Y0244782D01*
X0159281Y0244782D01*
X0159498Y0244565D01*
X0156909Y0244565D01*
X0154390Y0242046D01*
X0154390Y0238483D01*
X0156909Y0235965D01*
X0160471Y0235965D01*
X0161711Y0237205D01*
X0161711Y0234556D01*
X0164390Y0231878D01*
X0164390Y0228483D01*
X0166909Y0225965D01*
X0170471Y0225965D01*
X0172990Y0228483D01*
X0172990Y0232046D01*
X0170471Y0234565D01*
X0167077Y0234565D01*
X0165511Y0236130D01*
X0165511Y0237362D01*
X0166909Y0235965D01*
X0170471Y0235965D01*
X0172990Y0238483D01*
X0172990Y0241878D01*
X0176288Y0245176D01*
X0228966Y0245176D01*
X0229577Y0244565D01*
X0226909Y0244565D01*
X0224390Y0242046D01*
X0224390Y0238483D01*
X0226909Y0235965D01*
X0230471Y0235965D01*
X0231790Y0237283D01*
X0231790Y0233953D01*
X0230678Y0235065D01*
X0228890Y0235065D01*
X0228890Y0230465D01*
X0228490Y0230465D01*
X0228490Y0235065D01*
X0226702Y0235065D01*
X0223890Y0232253D01*
X0223890Y0230465D01*
X0228490Y0230465D01*
X0228490Y0230065D01*
X0223890Y0230065D01*
X0223890Y0228276D01*
X0226702Y0225465D01*
X0228490Y0225465D01*
X0228490Y0230064D01*
X0228890Y0230064D01*
X0228890Y0225465D01*
X0230678Y0225465D01*
X0232394Y0227181D01*
X0232903Y0226672D01*
X0232971Y0226604D01*
X0232971Y0224635D01*
X0235333Y0222273D01*
X0235333Y0220698D01*
X0236446Y0219585D01*
X0250687Y0205344D01*
X0250687Y0159674D01*
X0249438Y0158424D01*
X0243125Y0158424D01*
X0243509Y0158808D01*
X0244133Y0160315D01*
X0244133Y0161946D01*
X0243509Y0163453D01*
X0242356Y0164607D01*
X0240849Y0165231D01*
X0233618Y0165231D01*
X0232111Y0164607D01*
X0230957Y0163453D01*
X0230782Y0163031D01*
X0222942Y0163031D01*
X0222667Y0162755D01*
X0200042Y0162755D01*
X0199950Y0162847D02*
X0222758Y0162847D01*
X0222286Y0168207D02*
X0219897Y0168207D01*
X0218207Y0169897D01*
X0218207Y0172286D01*
X0219897Y0173976D01*
X0222286Y0173976D01*
X0223270Y0172991D01*
X0230766Y0172991D01*
X0230957Y0173453D01*
X0232111Y0174607D01*
X0233618Y0175231D01*
X0240849Y0175231D01*
X0242356Y0174607D01*
X0243509Y0173453D01*
X0244133Y0171946D01*
X0244133Y0170315D01*
X0243509Y0168808D01*
X0242356Y0167655D01*
X0240849Y0167031D01*
X0233618Y0167031D01*
X0232111Y0167655D01*
X0230957Y0168808D01*
X0230799Y0169191D01*
X0223270Y0169191D01*
X0222286Y0168207D01*
X0218863Y0169241D02*
X0212060Y0169241D01*
X0212558Y0167642D02*
X0232141Y0167642D01*
X0231949Y0164445D02*
X0209258Y0164445D01*
X0212249Y0166044D02*
X0250687Y0166044D01*
X0250687Y0167642D02*
X0242325Y0167642D01*
X0243688Y0169241D02*
X0250687Y0169241D01*
X0250687Y0170839D02*
X0244133Y0170839D01*
X0243930Y0172438D02*
X0250687Y0172438D01*
X0250687Y0174036D02*
X0242926Y0174036D01*
X0250687Y0175635D02*
X0149156Y0175635D01*
X0150157Y0174036D02*
X0231540Y0174036D01*
X0242517Y0164445D02*
X0250687Y0164445D01*
X0250687Y0162847D02*
X0243760Y0162847D01*
X0244133Y0161248D02*
X0250687Y0161248D01*
X0250663Y0159650D02*
X0243857Y0159650D01*
X0243591Y0153256D02*
X0259843Y0153256D01*
X0259843Y0154854D02*
X0251242Y0154854D01*
X0252840Y0156453D02*
X0259843Y0156453D01*
X0259843Y0158051D02*
X0254439Y0158051D01*
X0254487Y0159650D02*
X0259843Y0159650D01*
X0259843Y0161248D02*
X0254487Y0161248D01*
X0254487Y0162847D02*
X0259843Y0162847D01*
X0259843Y0164445D02*
X0254487Y0164445D01*
X0254487Y0166044D02*
X0259843Y0166044D01*
X0259843Y0167642D02*
X0254487Y0167642D01*
X0254487Y0169241D02*
X0259843Y0169241D01*
X0259843Y0170839D02*
X0254487Y0170839D01*
X0254487Y0172438D02*
X0259843Y0172438D01*
X0259843Y0174036D02*
X0254487Y0174036D01*
X0254487Y0175635D02*
X0259843Y0175635D01*
X0259843Y0177233D02*
X0254487Y0177233D01*
X0254487Y0178832D02*
X0259843Y0178832D01*
X0259843Y0180430D02*
X0254487Y0180430D01*
X0254487Y0182029D02*
X0259843Y0182029D01*
X0259843Y0183627D02*
X0254487Y0183627D01*
X0254487Y0185226D02*
X0259843Y0185226D01*
X0259843Y0186824D02*
X0254487Y0186824D01*
X0254487Y0188423D02*
X0259843Y0188423D01*
X0259843Y0190021D02*
X0254487Y0190021D01*
X0254487Y0191620D02*
X0259843Y0191620D01*
X0259843Y0193218D02*
X0254487Y0193218D01*
X0254487Y0194817D02*
X0259843Y0194817D01*
X0259843Y0196415D02*
X0254487Y0196415D01*
X0254487Y0198014D02*
X0259843Y0198014D01*
X0259843Y0199612D02*
X0254487Y0199612D01*
X0254487Y0201211D02*
X0259843Y0201211D01*
X0259843Y0202809D02*
X0254487Y0202809D01*
X0254487Y0204408D02*
X0259843Y0204408D01*
X0259843Y0206006D02*
X0254487Y0206006D01*
X0253800Y0207605D02*
X0259843Y0207605D01*
X0259843Y0209203D02*
X0252202Y0209203D01*
X0251068Y0210802D02*
X0250603Y0210802D01*
X0254107Y0210802D02*
X0259843Y0210802D01*
X0259843Y0212400D02*
X0256440Y0212400D01*
X0257336Y0213999D02*
X0259843Y0213999D01*
X0259843Y0215597D02*
X0257580Y0215597D01*
X0257320Y0217196D02*
X0259843Y0217196D01*
X0259843Y0218795D02*
X0256406Y0218795D01*
X0254030Y0220393D02*
X0259843Y0220393D01*
X0259843Y0221992D02*
X0239414Y0221992D01*
X0239133Y0223590D02*
X0242545Y0223590D01*
X0239869Y0225189D02*
X0237791Y0225189D01*
X0238133Y0226787D02*
X0236771Y0226787D01*
X0236563Y0228386D02*
X0237000Y0228386D01*
X0236135Y0229984D02*
X0235590Y0229984D01*
X0232787Y0226787D02*
X0232000Y0226787D01*
X0232903Y0226672D02*
X0232903Y0226672D01*
X0232971Y0225189D02*
X0216298Y0225189D01*
X0216298Y0223590D02*
X0234016Y0223590D01*
X0235333Y0221992D02*
X0216298Y0221992D01*
X0216298Y0220393D02*
X0235638Y0220393D01*
X0237237Y0218795D02*
X0216298Y0218795D01*
X0216298Y0217196D02*
X0238835Y0217196D01*
X0240434Y0215597D02*
X0216298Y0215597D01*
X0216298Y0213999D02*
X0242032Y0213999D01*
X0243631Y0212400D02*
X0216298Y0212400D01*
X0216298Y0210802D02*
X0245229Y0210802D01*
X0246828Y0209203D02*
X0216298Y0209203D01*
X0216298Y0207605D02*
X0248426Y0207605D01*
X0250025Y0206006D02*
X0216298Y0206006D01*
X0216298Y0204408D02*
X0250687Y0204408D01*
X0250687Y0202809D02*
X0216298Y0202809D01*
X0216298Y0201211D02*
X0250687Y0201211D01*
X0250687Y0199612D02*
X0216298Y0199612D01*
X0216298Y0198014D02*
X0250687Y0198014D01*
X0250687Y0196415D02*
X0216298Y0196415D01*
X0216298Y0194817D02*
X0250687Y0194817D01*
X0250687Y0193218D02*
X0216298Y0193218D01*
X0216298Y0191620D02*
X0250687Y0191620D01*
X0250687Y0190021D02*
X0216298Y0190021D01*
X0216692Y0188423D02*
X0250687Y0188423D01*
X0250687Y0186824D02*
X0215496Y0186824D01*
X0213897Y0185226D02*
X0250687Y0185226D01*
X0250687Y0183627D02*
X0146417Y0183627D01*
X0146417Y0182029D02*
X0250687Y0182029D01*
X0250687Y0180430D02*
X0145139Y0180430D01*
X0141925Y0180430D02*
X0141796Y0180430D01*
X0139920Y0178832D02*
X0250687Y0178832D01*
X0250687Y0177233D02*
X0142257Y0177233D01*
X0150157Y0172438D02*
X0150642Y0172438D01*
X0150491Y0170839D02*
X0149117Y0170839D01*
X0149044Y0170766D02*
X0149044Y0170766D01*
X0147518Y0169241D02*
X0151147Y0169241D01*
X0154137Y0167642D02*
X0145920Y0167642D01*
X0144448Y0162847D02*
X0197350Y0162847D01*
X0195766Y0161248D02*
X0144448Y0161248D01*
X0145980Y0159650D02*
X0149089Y0159650D01*
X0158124Y0167642D02*
X0206790Y0167642D01*
X0207288Y0169241D02*
X0178831Y0169241D01*
X0179487Y0170839D02*
X0218207Y0170839D01*
X0218359Y0172438D02*
X0179336Y0172438D01*
X0171382Y0185226D02*
X0150722Y0185226D01*
X0151141Y0186824D02*
X0170963Y0186824D01*
X0171352Y0188423D02*
X0150752Y0188423D01*
X0134208Y0191620D02*
X0130590Y0191620D01*
X0130590Y0193218D02*
X0201475Y0193218D01*
X0201475Y0194817D02*
X0130590Y0194817D01*
X0130590Y0196415D02*
X0201475Y0196415D01*
X0201475Y0198014D02*
X0130590Y0198014D01*
X0130590Y0199612D02*
X0201475Y0199612D01*
X0201475Y0201211D02*
X0130590Y0201211D01*
X0130590Y0202809D02*
X0201475Y0202809D01*
X0201475Y0204408D02*
X0136440Y0204408D01*
X0136574Y0204542D02*
X0134884Y0202853D01*
X0132495Y0202853D01*
X0130806Y0204542D01*
X0130806Y0206932D01*
X0131790Y0207916D01*
X0131790Y0218519D01*
X0130806Y0219503D01*
X0130806Y0221892D01*
X0132495Y0223582D01*
X0134884Y0223582D01*
X0136574Y0221892D01*
X0136574Y0219503D01*
X0135590Y0218519D01*
X0135590Y0207916D01*
X0136574Y0206932D01*
X0136574Y0204542D01*
X0136574Y0206006D02*
X0201475Y0206006D01*
X0201475Y0207605D02*
X0135901Y0207605D01*
X0135590Y0209203D02*
X0201475Y0209203D01*
X0201475Y0210802D02*
X0135590Y0210802D01*
X0135590Y0212400D02*
X0201475Y0212400D01*
X0201475Y0213999D02*
X0135590Y0213999D01*
X0135590Y0215597D02*
X0201475Y0215597D01*
X0201475Y0217196D02*
X0135590Y0217196D01*
X0135866Y0218795D02*
X0201475Y0218795D01*
X0201475Y0220393D02*
X0136574Y0220393D01*
X0136475Y0221992D02*
X0201475Y0221992D01*
X0201475Y0223590D02*
X0130590Y0223590D01*
X0130590Y0221992D02*
X0130905Y0221992D01*
X0130806Y0220393D02*
X0130590Y0220393D01*
X0130590Y0218795D02*
X0131514Y0218795D01*
X0131790Y0217196D02*
X0130590Y0217196D01*
X0130590Y0215597D02*
X0131790Y0215597D01*
X0131790Y0213999D02*
X0130590Y0213999D01*
X0130590Y0212400D02*
X0131790Y0212400D01*
X0131790Y0210802D02*
X0130590Y0210802D01*
X0130590Y0209203D02*
X0131790Y0209203D01*
X0131479Y0207605D02*
X0130590Y0207605D01*
X0130590Y0206006D02*
X0130806Y0206006D01*
X0130940Y0204408D02*
X0130590Y0204408D01*
X0126790Y0204408D02*
X0124418Y0204408D01*
X0125618Y0205609D02*
X0121091Y0201081D01*
X0117758Y0201081D01*
X0116774Y0200097D01*
X0114385Y0200097D01*
X0112695Y0201786D01*
X0112695Y0204176D01*
X0114385Y0205865D01*
X0116774Y0205865D01*
X0117758Y0204881D01*
X0119517Y0204881D01*
X0122931Y0208296D01*
X0122931Y0209221D01*
X0122272Y0208561D01*
X0105554Y0208561D01*
X0104569Y0207577D01*
X0102180Y0207577D01*
X0100590Y0209168D01*
X0100590Y0144280D01*
X0102784Y0142086D01*
X0104176Y0142086D01*
X0105865Y0140396D01*
X0105865Y0138007D01*
X0104176Y0136317D01*
X0101786Y0136317D01*
X0100097Y0138007D01*
X0100097Y0139399D01*
X0097598Y0141898D01*
X0097598Y0141156D01*
X0095908Y0139467D01*
X0095820Y0139467D01*
X0097200Y0138149D01*
X0098664Y0138149D01*
X0100354Y0136459D01*
X0100354Y0134070D01*
X0098664Y0132380D01*
X0096275Y0132380D01*
X0094585Y0134070D01*
X0094585Y0135392D01*
X0087928Y0141750D01*
X0087903Y0141750D01*
X0087362Y0142291D01*
X0086808Y0142820D01*
X0086808Y0142845D01*
X0086790Y0142863D01*
X0086790Y0143629D01*
X0086772Y0144394D01*
X0086790Y0144412D01*
X0086790Y0226083D01*
X0085590Y0227283D01*
X0085590Y0139018D01*
X0086180Y0138428D01*
X0086180Y0136038D01*
X0084491Y0134349D01*
X0082962Y0134349D01*
X0090382Y0126928D01*
X0099438Y0126928D01*
X0105344Y0132834D01*
X0113407Y0132834D01*
X0113407Y0135094D01*
X0113267Y0135234D01*
X0113030Y0135645D01*
X0112907Y0136102D01*
X0112907Y0136839D01*
X0116957Y0136839D01*
X0116957Y0136839D01*
X0112907Y0136839D01*
X0112907Y0137576D01*
X0113030Y0138034D01*
X0113267Y0138445D01*
X0113407Y0138585D01*
X0113407Y0138876D01*
X0112430Y0138876D01*
X0110462Y0140845D01*
X0109349Y0141958D01*
X0109349Y0150225D01*
X0113876Y0154752D01*
X0113876Y0155284D01*
X0107834Y0149241D01*
X0107834Y0148243D01*
X0106144Y0146554D01*
X0103755Y0146554D01*
X0102065Y0148243D01*
X0102065Y0150632D01*
X0103755Y0152322D01*
X0105541Y0152322D01*
X0111317Y0158099D01*
X0111317Y0158099D01*
X0112105Y0158886D01*
X0112105Y0177390D01*
X0113218Y0178503D01*
X0115186Y0180472D01*
X0121275Y0180472D01*
X0122259Y0181456D01*
X0122735Y0181456D01*
X0122735Y0184870D01*
X0123848Y0185983D01*
X0126790Y0188926D01*
X0126790Y0205609D01*
X0125618Y0205609D01*
X0126790Y0202809D02*
X0122819Y0202809D01*
X0121221Y0201211D02*
X0126790Y0201211D01*
X0126790Y0199612D02*
X0100590Y0199612D01*
X0100590Y0198014D02*
X0126790Y0198014D01*
X0126790Y0196415D02*
X0100590Y0196415D01*
X0100590Y0194817D02*
X0126790Y0194817D01*
X0126790Y0193218D02*
X0100590Y0193218D01*
X0100590Y0191620D02*
X0126790Y0191620D01*
X0126790Y0190021D02*
X0100590Y0190021D01*
X0100590Y0188423D02*
X0126287Y0188423D01*
X0124688Y0186824D02*
X0100590Y0186824D01*
X0100590Y0185226D02*
X0108312Y0185226D01*
X0108479Y0185393D02*
X0106790Y0183703D01*
X0106790Y0181314D01*
X0107774Y0180330D01*
X0107774Y0164792D01*
X0105147Y0162165D01*
X0103755Y0162165D01*
X0102065Y0160475D01*
X0102065Y0158086D01*
X0103755Y0156396D01*
X0106144Y0156396D01*
X0107834Y0158086D01*
X0107834Y0159478D01*
X0111574Y0163218D01*
X0111574Y0180330D01*
X0112558Y0181314D01*
X0112558Y0183703D01*
X0110869Y0185393D01*
X0108479Y0185393D01*
X0106790Y0183627D02*
X0100590Y0183627D01*
X0100590Y0182029D02*
X0106790Y0182029D01*
X0107673Y0180430D02*
X0100590Y0180430D01*
X0100590Y0178832D02*
X0107774Y0178832D01*
X0107774Y0177233D02*
X0100590Y0177233D01*
X0100590Y0175635D02*
X0107774Y0175635D01*
X0107774Y0174036D02*
X0100590Y0174036D01*
X0100590Y0172438D02*
X0107774Y0172438D01*
X0107774Y0170839D02*
X0100590Y0170839D01*
X0100590Y0169241D02*
X0107774Y0169241D01*
X0107774Y0167642D02*
X0100590Y0167642D01*
X0100590Y0166044D02*
X0107774Y0166044D01*
X0107427Y0164445D02*
X0100590Y0164445D01*
X0100590Y0162847D02*
X0105829Y0162847D01*
X0102838Y0161248D02*
X0100590Y0161248D01*
X0100590Y0159650D02*
X0102065Y0159650D01*
X0102100Y0158051D02*
X0100590Y0158051D01*
X0100590Y0156453D02*
X0103698Y0156453D01*
X0106201Y0156453D02*
X0109671Y0156453D01*
X0111270Y0158051D02*
X0107799Y0158051D01*
X0108006Y0159650D02*
X0112105Y0159650D01*
X0112105Y0161248D02*
X0109604Y0161248D01*
X0111203Y0162847D02*
X0112105Y0162847D01*
X0112105Y0164445D02*
X0111574Y0164445D01*
X0111574Y0166044D02*
X0112105Y0166044D01*
X0112105Y0167642D02*
X0111574Y0167642D01*
X0111574Y0169241D02*
X0112105Y0169241D01*
X0112105Y0170839D02*
X0111574Y0170839D01*
X0111574Y0172438D02*
X0112105Y0172438D01*
X0112105Y0174036D02*
X0111574Y0174036D01*
X0111574Y0175635D02*
X0112105Y0175635D01*
X0112105Y0177233D02*
X0111574Y0177233D01*
X0111574Y0178832D02*
X0113546Y0178832D01*
X0115145Y0180430D02*
X0111675Y0180430D01*
X0112558Y0182029D02*
X0122735Y0182029D01*
X0122735Y0183627D02*
X0112558Y0183627D01*
X0111036Y0185226D02*
X0123090Y0185226D01*
X0130590Y0188423D02*
X0131011Y0188423D01*
X0130590Y0190021D02*
X0132610Y0190021D01*
X0120642Y0206006D02*
X0100590Y0206006D01*
X0100590Y0204408D02*
X0112927Y0204408D01*
X0112695Y0202809D02*
X0100590Y0202809D01*
X0100590Y0201211D02*
X0113271Y0201211D01*
X0104597Y0207605D02*
X0122241Y0207605D01*
X0122914Y0209203D02*
X0122931Y0209203D01*
X0120698Y0212361D02*
X0105554Y0212361D01*
X0104569Y0213346D01*
X0102180Y0213346D01*
X0100590Y0211755D01*
X0100590Y0226083D01*
X0101869Y0227362D01*
X0101869Y0224058D01*
X0100884Y0223073D01*
X0100884Y0220684D01*
X0102574Y0218994D01*
X0104963Y0218994D01*
X0106653Y0220684D01*
X0106653Y0223073D01*
X0105668Y0224058D01*
X0105668Y0227205D01*
X0106909Y0225965D01*
X0110471Y0225965D01*
X0112990Y0228483D01*
X0112990Y0232046D01*
X0110471Y0234565D01*
X0106909Y0234565D01*
X0105668Y0233324D01*
X0105668Y0237205D01*
X0106909Y0235965D01*
X0110471Y0235965D01*
X0112990Y0238483D01*
X0112990Y0242046D01*
X0110471Y0244565D01*
X0107881Y0244565D01*
X0108099Y0244782D01*
X0126419Y0244782D01*
X0123890Y0242253D01*
X0123890Y0240465D01*
X0128490Y0240465D01*
X0128490Y0240065D01*
X0123890Y0240065D01*
X0123890Y0238276D01*
X0125395Y0236771D01*
X0123454Y0236771D01*
X0122341Y0235658D01*
X0121947Y0235264D01*
X0121947Y0233088D01*
X0120471Y0234565D01*
X0116909Y0234565D01*
X0114390Y0232046D01*
X0114390Y0228483D01*
X0116909Y0225965D01*
X0120471Y0225965D01*
X0121947Y0227441D01*
X0121947Y0213611D01*
X0120698Y0212361D01*
X0120737Y0212400D02*
X0105515Y0212400D01*
X0101235Y0212400D02*
X0100590Y0212400D01*
X0100590Y0213999D02*
X0121947Y0213999D01*
X0121947Y0215597D02*
X0100590Y0215597D01*
X0100590Y0217196D02*
X0121947Y0217196D01*
X0121947Y0218795D02*
X0100590Y0218795D01*
X0100590Y0220393D02*
X0101175Y0220393D01*
X0100884Y0221992D02*
X0100590Y0221992D01*
X0100590Y0223590D02*
X0101401Y0223590D01*
X0101869Y0225189D02*
X0100590Y0225189D01*
X0101293Y0226787D02*
X0101869Y0226787D01*
X0105668Y0226787D02*
X0106086Y0226787D01*
X0105668Y0225189D02*
X0121947Y0225189D01*
X0121947Y0226787D02*
X0121293Y0226787D01*
X0121947Y0223590D02*
X0106136Y0223590D01*
X0106653Y0221992D02*
X0121947Y0221992D01*
X0121947Y0220393D02*
X0106362Y0220393D01*
X0111293Y0226787D02*
X0116086Y0226787D01*
X0114488Y0228386D02*
X0112892Y0228386D01*
X0112990Y0229984D02*
X0114390Y0229984D01*
X0114390Y0231583D02*
X0112990Y0231583D01*
X0111854Y0233181D02*
X0115525Y0233181D01*
X0116909Y0235965D02*
X0120471Y0235965D01*
X0122990Y0238483D01*
X0122990Y0242046D01*
X0120471Y0244565D01*
X0116909Y0244565D01*
X0114390Y0242046D01*
X0114390Y0238483D01*
X0116909Y0235965D01*
X0116495Y0236378D02*
X0110884Y0236378D01*
X0112483Y0237977D02*
X0114897Y0237977D01*
X0114390Y0239575D02*
X0112990Y0239575D01*
X0112990Y0241174D02*
X0114390Y0241174D01*
X0115116Y0242772D02*
X0112263Y0242772D01*
X0110665Y0244371D02*
X0116715Y0244371D01*
X0120665Y0244371D02*
X0126008Y0244371D01*
X0124409Y0242772D02*
X0122263Y0242772D01*
X0122990Y0241174D02*
X0123890Y0241174D01*
X0123890Y0239575D02*
X0122990Y0239575D01*
X0122483Y0237977D02*
X0124189Y0237977D01*
X0123061Y0236378D02*
X0120884Y0236378D01*
X0121947Y0234780D02*
X0105668Y0234780D01*
X0105668Y0236378D02*
X0106495Y0236378D01*
X0101869Y0236378D02*
X0101592Y0236378D01*
X0101869Y0234780D02*
X0085590Y0234780D01*
X0085590Y0236378D02*
X0086495Y0236378D01*
X0090884Y0236378D02*
X0095788Y0236378D01*
X0094189Y0237977D02*
X0092483Y0237977D01*
X0092990Y0239575D02*
X0093890Y0239575D01*
X0093890Y0241174D02*
X0092990Y0241174D01*
X0092263Y0242772D02*
X0094409Y0242772D01*
X0096008Y0244371D02*
X0090665Y0244371D01*
X0086715Y0244371D02*
X0080665Y0244371D01*
X0082263Y0242772D02*
X0085116Y0242772D01*
X0084156Y0241174D02*
X0082990Y0241174D01*
X0081790Y0237283D02*
X0081790Y0233953D01*
X0080678Y0235065D01*
X0078890Y0235065D01*
X0078890Y0230465D01*
X0078490Y0230465D01*
X0078490Y0235065D01*
X0076702Y0235065D01*
X0075747Y0234110D01*
X0075747Y0235659D01*
X0076481Y0236392D01*
X0076909Y0235965D01*
X0080471Y0235965D01*
X0081790Y0237283D01*
X0081790Y0236378D02*
X0080884Y0236378D01*
X0080963Y0234780D02*
X0081790Y0234780D01*
X0078890Y0234780D02*
X0078490Y0234780D01*
X0078490Y0233181D02*
X0078890Y0233181D01*
X0078890Y0231583D02*
X0078490Y0231583D01*
X0078490Y0230064D02*
X0078890Y0230064D01*
X0078890Y0225465D01*
X0080678Y0225465D01*
X0081790Y0226576D01*
X0081790Y0139806D01*
X0080412Y0138428D01*
X0080412Y0136899D01*
X0078897Y0138414D01*
X0078897Y0218994D01*
X0079373Y0218994D01*
X0081062Y0220684D01*
X0081062Y0223073D01*
X0079373Y0224763D01*
X0076983Y0224763D01*
X0075747Y0223527D01*
X0075747Y0226419D01*
X0076702Y0225465D01*
X0078490Y0225465D01*
X0078490Y0230064D01*
X0078490Y0229984D02*
X0078890Y0229984D01*
X0078890Y0228386D02*
X0078490Y0228386D01*
X0078490Y0226787D02*
X0078890Y0226787D01*
X0081790Y0225189D02*
X0075747Y0225189D01*
X0075747Y0223590D02*
X0075810Y0223590D01*
X0078897Y0218795D02*
X0081790Y0218795D01*
X0081790Y0220393D02*
X0080771Y0220393D01*
X0081062Y0221992D02*
X0081790Y0221992D01*
X0081790Y0223590D02*
X0080546Y0223590D01*
X0085590Y0223590D02*
X0086790Y0223590D01*
X0086790Y0221992D02*
X0085590Y0221992D01*
X0085590Y0220393D02*
X0086790Y0220393D01*
X0086790Y0218795D02*
X0085590Y0218795D01*
X0085590Y0217196D02*
X0086790Y0217196D01*
X0086790Y0215597D02*
X0085590Y0215597D01*
X0085590Y0213999D02*
X0086790Y0213999D01*
X0086790Y0212400D02*
X0085590Y0212400D01*
X0085590Y0210802D02*
X0086790Y0210802D01*
X0086790Y0209203D02*
X0085590Y0209203D01*
X0085590Y0207605D02*
X0086790Y0207605D01*
X0086790Y0206006D02*
X0085590Y0206006D01*
X0085590Y0204408D02*
X0086790Y0204408D01*
X0086790Y0202809D02*
X0085590Y0202809D01*
X0085590Y0201211D02*
X0086790Y0201211D01*
X0086790Y0199612D02*
X0085590Y0199612D01*
X0085590Y0198014D02*
X0086790Y0198014D01*
X0086790Y0196415D02*
X0085590Y0196415D01*
X0085590Y0194817D02*
X0086790Y0194817D01*
X0086790Y0193218D02*
X0085590Y0193218D01*
X0085590Y0191620D02*
X0086790Y0191620D01*
X0086790Y0190021D02*
X0085590Y0190021D01*
X0085590Y0188423D02*
X0086790Y0188423D01*
X0086790Y0186824D02*
X0085590Y0186824D01*
X0085590Y0185226D02*
X0086790Y0185226D01*
X0086790Y0183627D02*
X0085590Y0183627D01*
X0085590Y0182029D02*
X0086790Y0182029D01*
X0086790Y0180430D02*
X0085590Y0180430D01*
X0085590Y0178832D02*
X0086790Y0178832D01*
X0086790Y0177233D02*
X0085590Y0177233D01*
X0085590Y0175635D02*
X0086790Y0175635D01*
X0086790Y0174036D02*
X0085590Y0174036D01*
X0085590Y0172438D02*
X0086790Y0172438D01*
X0086790Y0170839D02*
X0085590Y0170839D01*
X0085590Y0169241D02*
X0086790Y0169241D01*
X0086790Y0167642D02*
X0085590Y0167642D01*
X0085590Y0166044D02*
X0086790Y0166044D01*
X0086790Y0164445D02*
X0085590Y0164445D01*
X0085590Y0162847D02*
X0086790Y0162847D01*
X0086790Y0161248D02*
X0085590Y0161248D01*
X0085590Y0159650D02*
X0086790Y0159650D01*
X0086790Y0158051D02*
X0085590Y0158051D01*
X0085590Y0156453D02*
X0086790Y0156453D01*
X0086790Y0154854D02*
X0085590Y0154854D01*
X0085590Y0153256D02*
X0086790Y0153256D01*
X0086790Y0151657D02*
X0085590Y0151657D01*
X0085590Y0150059D02*
X0086790Y0150059D01*
X0086790Y0148460D02*
X0085590Y0148460D01*
X0085590Y0146861D02*
X0086790Y0146861D01*
X0086790Y0145263D02*
X0085590Y0145263D01*
X0085590Y0143664D02*
X0086789Y0143664D01*
X0087587Y0142066D02*
X0085590Y0142066D01*
X0085590Y0140467D02*
X0089271Y0140467D01*
X0090945Y0138869D02*
X0085739Y0138869D01*
X0086180Y0137270D02*
X0092618Y0137270D01*
X0094292Y0135672D02*
X0085814Y0135672D01*
X0083237Y0134073D02*
X0094585Y0134073D01*
X0096180Y0132475D02*
X0084836Y0132475D01*
X0086434Y0130876D02*
X0103386Y0130876D01*
X0101788Y0129278D02*
X0088033Y0129278D01*
X0089631Y0127679D02*
X0100189Y0127679D01*
X0098759Y0132475D02*
X0104985Y0132475D01*
X0100354Y0134073D02*
X0113407Y0134073D01*
X0113023Y0135672D02*
X0100354Y0135672D01*
X0100833Y0137270D02*
X0099542Y0137270D01*
X0100097Y0138869D02*
X0096446Y0138869D01*
X0096909Y0140467D02*
X0099028Y0140467D01*
X0101205Y0143664D02*
X0109349Y0143664D01*
X0109349Y0142066D02*
X0104196Y0142066D01*
X0105794Y0140467D02*
X0110839Y0140467D01*
X0113407Y0138869D02*
X0105865Y0138869D01*
X0105129Y0137270D02*
X0112907Y0137270D01*
X0116958Y0136839D02*
X0121007Y0136839D01*
X0116958Y0136839D01*
X0116958Y0136839D01*
X0121007Y0136771D02*
X0121007Y0136839D01*
X0121007Y0136908D01*
X0122410Y0136908D01*
X0122273Y0136771D01*
X0121007Y0136771D01*
X0132243Y0132475D02*
X0142617Y0132475D01*
X0142617Y0134073D02*
X0134004Y0134073D01*
X0132199Y0130876D02*
X0142617Y0130876D01*
X0142617Y0129278D02*
X0130668Y0129278D01*
X0130668Y0127679D02*
X0142617Y0127679D01*
X0142548Y0126081D02*
X0142548Y0126081D01*
X0142548Y0124482D02*
X0142548Y0124482D01*
X0142548Y0122884D02*
X0142548Y0122884D01*
X0142548Y0121285D02*
X0142548Y0121285D01*
X0142548Y0119687D02*
X0142548Y0119687D01*
X0145732Y0119687D02*
X0146763Y0119687D01*
X0154756Y0111694D02*
X0138543Y0111694D01*
X0130822Y0105300D02*
X0187302Y0105300D01*
X0187302Y0103702D02*
X0129223Y0103702D01*
X0125448Y0105300D02*
X0120796Y0105300D01*
X0123849Y0103702D02*
X0065971Y0103702D01*
X0064373Y0105300D02*
X0116662Y0105300D01*
X0115845Y0106899D02*
X0062774Y0106899D01*
X0062196Y0102103D02*
X0042212Y0102103D01*
X0043087Y0100505D02*
X0063794Y0100505D01*
X0065393Y0098906D02*
X0043087Y0098906D01*
X0043087Y0097308D02*
X0066991Y0097308D01*
X0067899Y0094111D02*
X0139778Y0094111D01*
X0131347Y0092512D02*
X0069251Y0092512D01*
X0069251Y0090914D02*
X0130806Y0090914D01*
X0131072Y0089315D02*
X0068197Y0089315D01*
X0055590Y0079724D02*
X0019487Y0079724D01*
X0019487Y0078126D02*
X0055492Y0078126D01*
X0055393Y0076527D02*
X0045089Y0076527D01*
X0045065Y0076617D02*
X0044828Y0077028D01*
X0044493Y0077363D01*
X0044082Y0077600D01*
X0043624Y0077722D01*
X0040262Y0077722D01*
X0040262Y0074248D01*
X0040112Y0074248D01*
X0040112Y0077722D01*
X0036750Y0077722D01*
X0036293Y0077600D01*
X0035882Y0077363D01*
X0035547Y0077028D01*
X0035310Y0076617D01*
X0035187Y0076159D01*
X0035187Y0074247D01*
X0040112Y0074247D01*
X0040112Y0074097D01*
X0035187Y0074097D01*
X0035187Y0072185D01*
X0035310Y0071728D01*
X0035547Y0071317D01*
X0035882Y0070982D01*
X0036293Y0070745D01*
X0036750Y0070622D01*
X0040112Y0070622D01*
X0040112Y0074097D01*
X0040262Y0074097D01*
X0040262Y0070622D01*
X0043624Y0070622D01*
X0044082Y0070745D01*
X0044493Y0070982D01*
X0044828Y0071317D01*
X0045065Y0071728D01*
X0045187Y0072185D01*
X0045187Y0074097D01*
X0040262Y0074097D01*
X0040262Y0074247D01*
X0045187Y0074247D01*
X0045187Y0076159D01*
X0045065Y0076617D01*
X0045187Y0074928D02*
X0055295Y0074928D01*
X0055197Y0073330D02*
X0045187Y0073330D01*
X0045066Y0071731D02*
X0055098Y0071731D01*
X0055000Y0070133D02*
X0007537Y0070133D01*
X0007537Y0071731D02*
X0035309Y0071731D01*
X0035187Y0073330D02*
X0007537Y0073330D01*
X0007537Y0074928D02*
X0035187Y0074928D01*
X0035286Y0076527D02*
X0019487Y0076527D01*
X0010487Y0076527D02*
X0007537Y0076527D01*
X0007537Y0078126D02*
X0010487Y0078126D01*
X0010487Y0079724D02*
X0007537Y0079724D01*
X0007537Y0081323D02*
X0010487Y0081323D01*
X0010487Y0082921D02*
X0007537Y0082921D01*
X0007537Y0084520D02*
X0010487Y0084520D01*
X0010487Y0086118D02*
X0007537Y0086118D01*
X0007537Y0087717D02*
X0010487Y0087717D01*
X0010487Y0089315D02*
X0007537Y0089315D01*
X0007537Y0090914D02*
X0035687Y0090914D01*
X0035687Y0092512D02*
X0007537Y0092512D01*
X0007537Y0094111D02*
X0035687Y0094111D01*
X0037287Y0095709D02*
X0007537Y0095709D01*
X0007537Y0097308D02*
X0037287Y0097308D01*
X0031541Y0098906D02*
X0007537Y0098906D01*
X0007537Y0100505D02*
X0029398Y0100505D01*
X0024331Y0100512D02*
X0024331Y0104083D01*
X0021154Y0104083D01*
X0021154Y0102075D01*
X0021276Y0101617D01*
X0021513Y0101207D01*
X0021848Y0100871D01*
X0022259Y0100634D01*
X0022717Y0100512D01*
X0024331Y0100512D01*
X0024331Y0102103D02*
X0024332Y0102103D01*
X0024331Y0103702D02*
X0024332Y0103702D01*
X0024331Y0105300D02*
X0024332Y0105300D01*
X0024331Y0106899D02*
X0024332Y0106899D01*
X0027185Y0106899D02*
X0027277Y0106899D01*
X0028640Y0108497D02*
X0007537Y0108497D01*
X0007537Y0106899D02*
X0021478Y0106899D01*
X0021154Y0105300D02*
X0007537Y0105300D01*
X0007537Y0103702D02*
X0021154Y0103702D01*
X0021154Y0102103D02*
X0007537Y0102103D01*
X0007537Y0110096D02*
X0021760Y0110096D01*
X0019520Y0111694D02*
X0007537Y0111694D01*
X0007537Y0113293D02*
X0018667Y0113293D01*
X0018454Y0114891D02*
X0007537Y0114891D01*
X0007537Y0116490D02*
X0018759Y0116490D01*
X0019692Y0118088D02*
X0007537Y0118088D01*
X0007537Y0119687D02*
X0009966Y0119687D01*
X0008955Y0121285D02*
X0007537Y0121285D01*
X0007537Y0122884D02*
X0008955Y0122884D01*
X0008955Y0124482D02*
X0007537Y0124482D01*
X0007537Y0126081D02*
X0008955Y0126081D01*
X0008955Y0127679D02*
X0007537Y0127679D01*
X0007537Y0129278D02*
X0008955Y0129278D01*
X0008955Y0130876D02*
X0007537Y0130876D01*
X0007537Y0132475D02*
X0008955Y0132475D01*
X0008955Y0134073D02*
X0007537Y0134073D01*
X0007537Y0135672D02*
X0008955Y0135672D01*
X0008955Y0137270D02*
X0007537Y0137270D01*
X0007537Y0138869D02*
X0008955Y0138869D01*
X0008955Y0140467D02*
X0007537Y0140467D01*
X0007537Y0142066D02*
X0008865Y0142066D01*
X0008955Y0143664D02*
X0007537Y0143664D01*
X0007537Y0145263D02*
X0008955Y0145263D01*
X0008955Y0146861D02*
X0007537Y0146861D01*
X0007537Y0148460D02*
X0008955Y0148460D01*
X0008955Y0150059D02*
X0007537Y0150059D01*
X0007537Y0151657D02*
X0008955Y0151657D01*
X0008955Y0153256D02*
X0007537Y0153256D01*
X0007537Y0154854D02*
X0008955Y0154854D01*
X0008955Y0156453D02*
X0007537Y0156453D01*
X0007537Y0158051D02*
X0008955Y0158051D01*
X0008955Y0159650D02*
X0007537Y0159650D01*
X0007537Y0161248D02*
X0008955Y0161248D01*
X0008955Y0162847D02*
X0007537Y0162847D01*
X0007537Y0164445D02*
X0008955Y0164445D01*
X0008955Y0166044D02*
X0007537Y0166044D01*
X0007537Y0167642D02*
X0008955Y0167642D01*
X0008955Y0169241D02*
X0007537Y0169241D01*
X0007537Y0170839D02*
X0008955Y0170839D01*
X0008955Y0172438D02*
X0007537Y0172438D01*
X0007537Y0174036D02*
X0008955Y0174036D01*
X0008955Y0175635D02*
X0007537Y0175635D01*
X0007537Y0177233D02*
X0008955Y0177233D01*
X0008955Y0178832D02*
X0007537Y0178832D01*
X0007537Y0180430D02*
X0008955Y0180430D01*
X0008955Y0182029D02*
X0007537Y0182029D01*
X0007537Y0183627D02*
X0008955Y0183627D01*
X0008955Y0185226D02*
X0007537Y0185226D01*
X0007537Y0186824D02*
X0008955Y0186824D01*
X0008955Y0188423D02*
X0007537Y0188423D01*
X0007537Y0190021D02*
X0008955Y0190021D01*
X0008955Y0191620D02*
X0007537Y0191620D01*
X0007537Y0193218D02*
X0008955Y0193218D01*
X0008955Y0194817D02*
X0007537Y0194817D01*
X0007537Y0196415D02*
X0008955Y0196415D01*
X0008955Y0198014D02*
X0007537Y0198014D01*
X0007537Y0199612D02*
X0008955Y0199612D01*
X0008955Y0201211D02*
X0007537Y0201211D01*
X0007537Y0202809D02*
X0008955Y0202809D01*
X0008955Y0204408D02*
X0007537Y0204408D01*
X0007537Y0206006D02*
X0008955Y0206006D01*
X0008955Y0207605D02*
X0007537Y0207605D01*
X0007537Y0209203D02*
X0008955Y0209203D01*
X0008955Y0210802D02*
X0007537Y0210802D01*
X0007537Y0212400D02*
X0008955Y0212400D01*
X0008955Y0213999D02*
X0007537Y0213999D01*
X0007537Y0215597D02*
X0008955Y0215597D01*
X0010178Y0217196D02*
X0007537Y0217196D01*
X0007537Y0218795D02*
X0011777Y0218795D01*
X0013375Y0220393D02*
X0007537Y0220393D01*
X0007537Y0221992D02*
X0014974Y0221992D01*
X0014199Y0223590D02*
X0007537Y0223590D01*
X0007537Y0225189D02*
X0011523Y0225189D01*
X0009786Y0226787D02*
X0007537Y0226787D01*
X0007537Y0228386D02*
X0008654Y0228386D01*
X0007789Y0229984D02*
X0007537Y0229984D01*
X0007957Y0241174D02*
X0008129Y0241174D01*
X0008585Y0242772D02*
X0008994Y0242772D01*
X0009399Y0244371D02*
X0010469Y0244371D01*
X0010770Y0245969D02*
X0012205Y0245969D01*
X0012827Y0247568D02*
X0015632Y0247568D01*
X0017325Y0249166D02*
X0250054Y0249166D01*
X0251532Y0247568D02*
X0254553Y0247568D01*
X0254931Y0245969D02*
X0256610Y0245969D01*
X0257030Y0244371D02*
X0257980Y0244371D01*
X0258274Y0242772D02*
X0258794Y0242772D01*
X0259397Y0241174D02*
X0259423Y0241174D01*
X0259612Y0229984D02*
X0259843Y0229984D01*
X0259843Y0228386D02*
X0258764Y0228386D01*
X0259843Y0226787D02*
X0257520Y0226787D01*
X0255893Y0225189D02*
X0259843Y0225189D01*
X0259843Y0223590D02*
X0253446Y0223590D01*
X0253856Y0220393D02*
X0253924Y0220393D01*
X0251319Y0220393D02*
X0251250Y0220393D01*
X0251145Y0220393D02*
X0241012Y0220393D01*
X0242611Y0218795D02*
X0248769Y0218795D01*
X0247855Y0217196D02*
X0244209Y0217196D01*
X0245808Y0215597D02*
X0247595Y0215597D01*
X0247406Y0213999D02*
X0247838Y0213999D01*
X0228890Y0226787D02*
X0228490Y0226787D01*
X0228490Y0228386D02*
X0228890Y0228386D01*
X0228890Y0229984D02*
X0228490Y0229984D01*
X0228490Y0231583D02*
X0228890Y0231583D01*
X0228890Y0233181D02*
X0228490Y0233181D01*
X0228490Y0234780D02*
X0228890Y0234780D01*
X0230963Y0234780D02*
X0231790Y0234780D01*
X0231790Y0236378D02*
X0230884Y0236378D01*
X0226495Y0236378D02*
X0220884Y0236378D01*
X0222483Y0237977D02*
X0224897Y0237977D01*
X0224390Y0239575D02*
X0222990Y0239575D01*
X0222990Y0241174D02*
X0224390Y0241174D01*
X0225116Y0242772D02*
X0222263Y0242772D01*
X0220665Y0244371D02*
X0226715Y0244371D01*
X0231948Y0247568D02*
X0243978Y0247568D01*
X0240552Y0245969D02*
X0233546Y0245969D01*
X0235145Y0244371D02*
X0238815Y0244371D01*
X0237341Y0242772D02*
X0235590Y0242772D01*
X0235590Y0241174D02*
X0236476Y0241174D01*
X0235611Y0239575D02*
X0235590Y0239575D01*
X0226417Y0234780D02*
X0216298Y0234780D01*
X0214030Y0237977D02*
X0212483Y0237977D01*
X0212498Y0236378D02*
X0210884Y0236378D01*
X0212498Y0234780D02*
X0205275Y0234780D01*
X0205275Y0233181D02*
X0205525Y0233181D01*
X0206388Y0236378D02*
X0206495Y0236378D01*
X0204211Y0239575D02*
X0203490Y0239575D01*
X0203490Y0240465D02*
X0203490Y0242253D01*
X0200678Y0245065D01*
X0198890Y0245065D01*
X0198890Y0240465D01*
X0203490Y0240465D01*
X0203490Y0241174D02*
X0204390Y0241174D01*
X0205116Y0242772D02*
X0202970Y0242772D01*
X0201372Y0244371D02*
X0206715Y0244371D01*
X0210665Y0244371D02*
X0216715Y0244371D01*
X0215116Y0242772D02*
X0212263Y0242772D01*
X0212990Y0241174D02*
X0214390Y0241174D01*
X0214390Y0239575D02*
X0212990Y0239575D01*
X0212498Y0233181D02*
X0211854Y0233181D01*
X0221293Y0226787D02*
X0225379Y0226787D01*
X0223890Y0228386D02*
X0222892Y0228386D01*
X0222990Y0229984D02*
X0223890Y0229984D01*
X0223890Y0231583D02*
X0222990Y0231583D01*
X0221854Y0233181D02*
X0224818Y0233181D01*
X0201475Y0234780D02*
X0166862Y0234780D01*
X0166495Y0236378D02*
X0165511Y0236378D01*
X0161711Y0236378D02*
X0160884Y0236378D01*
X0160678Y0235065D02*
X0158890Y0235065D01*
X0158890Y0230465D01*
X0158490Y0230465D01*
X0158490Y0235065D01*
X0156702Y0235065D01*
X0153890Y0232253D01*
X0153890Y0230465D01*
X0158490Y0230465D01*
X0158490Y0230065D01*
X0153890Y0230065D01*
X0153890Y0228276D01*
X0156702Y0225465D01*
X0158490Y0225465D01*
X0158490Y0230064D01*
X0158890Y0230064D01*
X0158890Y0225465D01*
X0160678Y0225465D01*
X0163490Y0228276D01*
X0163490Y0230065D01*
X0158890Y0230065D01*
X0158890Y0230465D01*
X0163490Y0230465D01*
X0163490Y0232253D01*
X0160678Y0235065D01*
X0160963Y0234780D02*
X0161711Y0234780D01*
X0162561Y0233181D02*
X0163086Y0233181D01*
X0163490Y0231583D02*
X0164390Y0231583D01*
X0164390Y0229984D02*
X0163490Y0229984D01*
X0163490Y0228386D02*
X0164488Y0228386D01*
X0166086Y0226787D02*
X0162000Y0226787D01*
X0158890Y0226787D02*
X0158490Y0226787D01*
X0158490Y0228386D02*
X0158890Y0228386D01*
X0158890Y0229984D02*
X0158490Y0229984D01*
X0158490Y0231583D02*
X0158890Y0231583D01*
X0158890Y0233181D02*
X0158490Y0233181D01*
X0158490Y0234780D02*
X0158890Y0234780D01*
X0156417Y0234780D02*
X0146862Y0234780D01*
X0146909Y0235965D02*
X0150471Y0235965D01*
X0152990Y0238483D01*
X0152990Y0242046D01*
X0150471Y0244565D01*
X0146909Y0244565D01*
X0144390Y0242046D01*
X0144390Y0238483D01*
X0146909Y0235965D01*
X0146495Y0236378D02*
X0145263Y0236378D01*
X0145590Y0236052D02*
X0145590Y0236052D01*
X0144897Y0237977D02*
X0142483Y0237977D01*
X0142990Y0239575D02*
X0144390Y0239575D01*
X0144390Y0241174D02*
X0142990Y0241174D01*
X0142263Y0242772D02*
X0145116Y0242772D01*
X0146715Y0244371D02*
X0140665Y0244371D01*
X0136715Y0244371D02*
X0131372Y0244371D01*
X0132970Y0242772D02*
X0135116Y0242772D01*
X0134390Y0241174D02*
X0133490Y0241174D01*
X0133490Y0239575D02*
X0134390Y0239575D01*
X0134897Y0237977D02*
X0133190Y0237977D01*
X0132990Y0231583D02*
X0134390Y0231583D01*
X0134390Y0229984D02*
X0132990Y0229984D01*
X0132892Y0228386D02*
X0134488Y0228386D01*
X0136086Y0226787D02*
X0131293Y0226787D01*
X0130590Y0225189D02*
X0201475Y0225189D01*
X0201475Y0226787D02*
X0201293Y0226787D01*
X0196086Y0226787D02*
X0191293Y0226787D01*
X0190471Y0225965D02*
X0192990Y0228483D01*
X0192990Y0232046D01*
X0190471Y0234565D01*
X0186909Y0234565D01*
X0184390Y0232046D01*
X0184390Y0228483D01*
X0186909Y0225965D01*
X0190471Y0225965D01*
X0192892Y0228386D02*
X0194488Y0228386D01*
X0194390Y0229984D02*
X0192990Y0229984D01*
X0192990Y0231583D02*
X0194390Y0231583D01*
X0195525Y0233181D02*
X0191854Y0233181D01*
X0190471Y0235965D02*
X0192990Y0238483D01*
X0192990Y0242046D01*
X0190471Y0244565D01*
X0186909Y0244565D01*
X0184390Y0242046D01*
X0184390Y0238483D01*
X0186909Y0235965D01*
X0190471Y0235965D01*
X0190884Y0236378D02*
X0195788Y0236378D01*
X0194189Y0237977D02*
X0192483Y0237977D01*
X0192990Y0239575D02*
X0193890Y0239575D01*
X0193890Y0241174D02*
X0192990Y0241174D01*
X0192263Y0242772D02*
X0194409Y0242772D01*
X0196008Y0244371D02*
X0190665Y0244371D01*
X0186715Y0244371D02*
X0181372Y0244371D01*
X0180678Y0245065D02*
X0178890Y0245065D01*
X0178890Y0240465D01*
X0178490Y0240465D01*
X0178490Y0245065D01*
X0176702Y0245065D01*
X0173890Y0242253D01*
X0173890Y0240465D01*
X0178490Y0240465D01*
X0178490Y0240065D01*
X0173890Y0240065D01*
X0173890Y0238276D01*
X0176702Y0235465D01*
X0178490Y0235465D01*
X0178490Y0240064D01*
X0178890Y0240064D01*
X0178890Y0235465D01*
X0180678Y0235465D01*
X0183490Y0238276D01*
X0183490Y0240065D01*
X0178890Y0240065D01*
X0178890Y0240465D01*
X0183490Y0240465D01*
X0183490Y0242253D01*
X0180678Y0245065D01*
X0178890Y0244371D02*
X0178490Y0244371D01*
X0178490Y0242772D02*
X0178890Y0242772D01*
X0178890Y0241174D02*
X0178490Y0241174D01*
X0178490Y0239575D02*
X0178890Y0239575D01*
X0178890Y0237977D02*
X0178490Y0237977D01*
X0178490Y0236378D02*
X0178890Y0236378D01*
X0180471Y0234565D02*
X0176909Y0234565D01*
X0174390Y0232046D01*
X0174390Y0228483D01*
X0176909Y0225965D01*
X0180471Y0225965D01*
X0182990Y0228483D01*
X0182990Y0232046D01*
X0180471Y0234565D01*
X0181854Y0233181D02*
X0185525Y0233181D01*
X0184390Y0231583D02*
X0182990Y0231583D01*
X0182990Y0229984D02*
X0184390Y0229984D01*
X0184488Y0228386D02*
X0182892Y0228386D01*
X0181293Y0226787D02*
X0186086Y0226787D01*
X0186495Y0236378D02*
X0181592Y0236378D01*
X0183190Y0237977D02*
X0184897Y0237977D01*
X0184390Y0239575D02*
X0183490Y0239575D01*
X0183490Y0241174D02*
X0184390Y0241174D01*
X0185116Y0242772D02*
X0182970Y0242772D01*
X0176008Y0244371D02*
X0175483Y0244371D01*
X0174409Y0242772D02*
X0173884Y0242772D01*
X0173890Y0241174D02*
X0172990Y0241174D01*
X0172990Y0239575D02*
X0173890Y0239575D01*
X0174189Y0237977D02*
X0172483Y0237977D01*
X0170884Y0236378D02*
X0175788Y0236378D01*
X0175525Y0233181D02*
X0171854Y0233181D01*
X0172990Y0231583D02*
X0174390Y0231583D01*
X0174390Y0229984D02*
X0172990Y0229984D01*
X0172892Y0228386D02*
X0174488Y0228386D01*
X0176086Y0226787D02*
X0171293Y0226787D01*
X0155379Y0226787D02*
X0151293Y0226787D01*
X0152892Y0228386D02*
X0153890Y0228386D01*
X0153890Y0229984D02*
X0152990Y0229984D01*
X0152990Y0231583D02*
X0153890Y0231583D01*
X0154818Y0233181D02*
X0151854Y0233181D01*
X0150884Y0236378D02*
X0156495Y0236378D01*
X0154897Y0237977D02*
X0152483Y0237977D01*
X0152990Y0239575D02*
X0154390Y0239575D01*
X0154390Y0241174D02*
X0152990Y0241174D01*
X0152263Y0242772D02*
X0155116Y0242772D01*
X0156715Y0244371D02*
X0150665Y0244371D01*
X0161869Y0247568D02*
X0173306Y0247568D01*
X0171707Y0245969D02*
X0163467Y0245969D01*
X0165066Y0244371D02*
X0166715Y0244371D01*
X0144390Y0231583D02*
X0142990Y0231583D01*
X0142990Y0229984D02*
X0144390Y0229984D01*
X0144488Y0228386D02*
X0142892Y0228386D01*
X0141293Y0226787D02*
X0146086Y0226787D01*
X0121947Y0233181D02*
X0121854Y0233181D01*
X0105511Y0247568D02*
X0023186Y0247568D01*
X0026584Y0245969D02*
X0103912Y0245969D01*
X0102314Y0244371D02*
X0101372Y0244371D01*
X0098890Y0244371D02*
X0098490Y0244371D01*
X0098490Y0242772D02*
X0098890Y0242772D01*
X0098890Y0241174D02*
X0098490Y0241174D01*
X0098490Y0239575D02*
X0098890Y0239575D01*
X0098890Y0237977D02*
X0098490Y0237977D01*
X0098490Y0236378D02*
X0098890Y0236378D01*
X0101854Y0233181D02*
X0101869Y0233181D01*
X0095525Y0233181D02*
X0091854Y0233181D01*
X0092990Y0231583D02*
X0094390Y0231583D01*
X0094390Y0229984D02*
X0092990Y0229984D01*
X0092892Y0228386D02*
X0094488Y0228386D01*
X0096086Y0226787D02*
X0091293Y0226787D01*
X0090590Y0225189D02*
X0096790Y0225189D01*
X0096790Y0223590D02*
X0090590Y0223590D01*
X0090590Y0221992D02*
X0096790Y0221992D01*
X0096790Y0220393D02*
X0090590Y0220393D01*
X0090590Y0218795D02*
X0096790Y0218795D01*
X0096790Y0217196D02*
X0090590Y0217196D01*
X0090590Y0215597D02*
X0096790Y0215597D01*
X0096790Y0213999D02*
X0090590Y0213999D01*
X0090590Y0212400D02*
X0096790Y0212400D01*
X0096790Y0210802D02*
X0090590Y0210802D01*
X0090590Y0209203D02*
X0096790Y0209203D01*
X0096790Y0207605D02*
X0090590Y0207605D01*
X0090590Y0206006D02*
X0096790Y0206006D01*
X0096790Y0204408D02*
X0090590Y0204408D01*
X0090590Y0202809D02*
X0096790Y0202809D01*
X0096790Y0201211D02*
X0090590Y0201211D01*
X0090590Y0199612D02*
X0096790Y0199612D01*
X0096790Y0198014D02*
X0090590Y0198014D01*
X0090590Y0196415D02*
X0096790Y0196415D01*
X0096790Y0194817D02*
X0090590Y0194817D01*
X0090590Y0193218D02*
X0096790Y0193218D01*
X0096790Y0191620D02*
X0090590Y0191620D01*
X0090590Y0190021D02*
X0096790Y0190021D01*
X0096790Y0188423D02*
X0090590Y0188423D01*
X0090590Y0186824D02*
X0096790Y0186824D01*
X0096790Y0185226D02*
X0090590Y0185226D01*
X0090590Y0183627D02*
X0096790Y0183627D01*
X0096790Y0182029D02*
X0090590Y0182029D01*
X0090590Y0180430D02*
X0096790Y0180430D01*
X0096790Y0178832D02*
X0090590Y0178832D01*
X0095013Y0177233D02*
X0096790Y0177233D01*
X0096790Y0175635D02*
X0095235Y0175635D01*
X0094651Y0174036D02*
X0096790Y0174036D01*
X0096790Y0172438D02*
X0094251Y0172438D01*
X0094251Y0170839D02*
X0096790Y0170839D01*
X0096790Y0169241D02*
X0094251Y0169241D01*
X0094251Y0167642D02*
X0096790Y0167642D01*
X0096790Y0166044D02*
X0094251Y0166044D01*
X0094251Y0164445D02*
X0096790Y0164445D01*
X0096790Y0162847D02*
X0094251Y0162847D01*
X0094251Y0161248D02*
X0096790Y0161248D01*
X0096790Y0159650D02*
X0094251Y0159650D01*
X0094251Y0158051D02*
X0096790Y0158051D01*
X0096790Y0156453D02*
X0094251Y0156453D01*
X0094251Y0154854D02*
X0096790Y0154854D01*
X0096790Y0153256D02*
X0094251Y0153256D01*
X0094251Y0151657D02*
X0096790Y0151657D01*
X0096790Y0150059D02*
X0094251Y0150059D01*
X0094251Y0148460D02*
X0096790Y0148460D01*
X0096790Y0146861D02*
X0094251Y0146861D01*
X0094489Y0145263D02*
X0096790Y0145263D01*
X0100590Y0145263D02*
X0109349Y0145263D01*
X0109349Y0146861D02*
X0106452Y0146861D01*
X0107834Y0148460D02*
X0109349Y0148460D01*
X0109349Y0150059D02*
X0108651Y0150059D01*
X0110250Y0151657D02*
X0110781Y0151657D01*
X0111848Y0153256D02*
X0112380Y0153256D01*
X0113447Y0154854D02*
X0113876Y0154854D01*
X0108073Y0154854D02*
X0100590Y0154854D01*
X0100590Y0153256D02*
X0106474Y0153256D01*
X0103090Y0151657D02*
X0100590Y0151657D01*
X0100590Y0150059D02*
X0102065Y0150059D01*
X0102065Y0148460D02*
X0100590Y0148460D01*
X0100590Y0146861D02*
X0103447Y0146861D01*
X0081790Y0146861D02*
X0078897Y0146861D01*
X0078897Y0145263D02*
X0081790Y0145263D01*
X0081790Y0143664D02*
X0078897Y0143664D01*
X0078897Y0142066D02*
X0081790Y0142066D01*
X0081790Y0140467D02*
X0078897Y0140467D01*
X0078897Y0138869D02*
X0080853Y0138869D01*
X0080412Y0137270D02*
X0080040Y0137270D01*
X0078897Y0148460D02*
X0081790Y0148460D01*
X0081790Y0150059D02*
X0078897Y0150059D01*
X0078897Y0151657D02*
X0081790Y0151657D01*
X0081790Y0153256D02*
X0078897Y0153256D01*
X0078897Y0154854D02*
X0081790Y0154854D01*
X0081790Y0156453D02*
X0078897Y0156453D01*
X0078897Y0158051D02*
X0081790Y0158051D01*
X0081790Y0159650D02*
X0078897Y0159650D01*
X0078897Y0161248D02*
X0081790Y0161248D01*
X0081790Y0162847D02*
X0078897Y0162847D01*
X0078897Y0164445D02*
X0081790Y0164445D01*
X0081790Y0166044D02*
X0078897Y0166044D01*
X0078897Y0167642D02*
X0081790Y0167642D01*
X0081790Y0169241D02*
X0078897Y0169241D01*
X0078897Y0170839D02*
X0081790Y0170839D01*
X0081790Y0172438D02*
X0078897Y0172438D01*
X0078897Y0174036D02*
X0081790Y0174036D01*
X0081790Y0175635D02*
X0078897Y0175635D01*
X0078897Y0177233D02*
X0081790Y0177233D01*
X0081790Y0178832D02*
X0078897Y0178832D01*
X0078897Y0180430D02*
X0081790Y0180430D01*
X0081790Y0182029D02*
X0078897Y0182029D01*
X0078897Y0183627D02*
X0081790Y0183627D01*
X0081790Y0185226D02*
X0078897Y0185226D01*
X0078897Y0186824D02*
X0081790Y0186824D01*
X0081790Y0188423D02*
X0078897Y0188423D01*
X0078897Y0190021D02*
X0081790Y0190021D01*
X0081790Y0191620D02*
X0078897Y0191620D01*
X0078897Y0193218D02*
X0081790Y0193218D01*
X0081790Y0194817D02*
X0078897Y0194817D01*
X0078897Y0196415D02*
X0081790Y0196415D01*
X0081790Y0198014D02*
X0078897Y0198014D01*
X0078897Y0199612D02*
X0081790Y0199612D01*
X0081790Y0201211D02*
X0078897Y0201211D01*
X0078897Y0202809D02*
X0081790Y0202809D01*
X0081790Y0204408D02*
X0078897Y0204408D01*
X0078897Y0206006D02*
X0081790Y0206006D01*
X0081790Y0207605D02*
X0078897Y0207605D01*
X0078897Y0209203D02*
X0081790Y0209203D01*
X0081790Y0210802D02*
X0078897Y0210802D01*
X0078897Y0212400D02*
X0081790Y0212400D01*
X0081790Y0213999D02*
X0078897Y0213999D01*
X0078897Y0215597D02*
X0081790Y0215597D01*
X0081790Y0217196D02*
X0078897Y0217196D01*
X0085590Y0225189D02*
X0086790Y0225189D01*
X0086086Y0226787D02*
X0085590Y0226787D01*
X0076417Y0234780D02*
X0075747Y0234780D01*
X0076467Y0236378D02*
X0076495Y0236378D01*
X0072691Y0237977D02*
X0072483Y0237977D01*
X0072990Y0239575D02*
X0074290Y0239575D01*
X0074390Y0241174D02*
X0072990Y0241174D01*
X0072263Y0242772D02*
X0075116Y0242772D01*
X0076715Y0244371D02*
X0070665Y0244371D01*
X0066715Y0244371D02*
X0061372Y0244371D01*
X0060678Y0245065D02*
X0063490Y0242253D01*
X0063490Y0240465D01*
X0058890Y0240465D01*
X0058890Y0245065D01*
X0060678Y0245065D01*
X0058890Y0244371D02*
X0058490Y0244371D01*
X0058490Y0242772D02*
X0058890Y0242772D01*
X0058890Y0241174D02*
X0058490Y0241174D01*
X0058490Y0239575D02*
X0058890Y0239575D01*
X0058890Y0237977D02*
X0058490Y0237977D01*
X0058490Y0236378D02*
X0058890Y0236378D01*
X0061317Y0234780D02*
X0035983Y0234780D01*
X0033715Y0237977D02*
X0032148Y0237977D01*
X0031599Y0239575D02*
X0034390Y0239575D01*
X0034390Y0241174D02*
X0031050Y0241174D01*
X0029928Y0242772D02*
X0035116Y0242772D01*
X0036715Y0244371D02*
X0028684Y0244371D01*
X0040665Y0244371D02*
X0046715Y0244371D01*
X0045116Y0242772D02*
X0042263Y0242772D01*
X0042483Y0237977D02*
X0044897Y0237977D01*
X0046495Y0236378D02*
X0040884Y0236378D01*
X0041854Y0233181D02*
X0045525Y0233181D01*
X0044390Y0231583D02*
X0042990Y0231583D01*
X0042990Y0229984D02*
X0044390Y0229984D01*
X0044488Y0228386D02*
X0042892Y0228386D01*
X0041293Y0226787D02*
X0046086Y0226787D01*
X0046590Y0225189D02*
X0034015Y0225189D01*
X0034015Y0226787D02*
X0036086Y0226787D01*
X0032970Y0223590D02*
X0046590Y0223590D01*
X0046590Y0221992D02*
X0031371Y0221992D01*
X0029773Y0220393D02*
X0046590Y0220393D01*
X0046590Y0218795D02*
X0027272Y0218795D01*
X0028186Y0217196D02*
X0046590Y0217196D01*
X0046590Y0215597D02*
X0028446Y0215597D01*
X0028203Y0213999D02*
X0046590Y0213999D01*
X0046590Y0212400D02*
X0027306Y0212400D01*
X0024973Y0210802D02*
X0046590Y0210802D01*
X0046590Y0209203D02*
X0021526Y0209203D01*
X0021934Y0210802D02*
X0019784Y0210802D01*
X0019601Y0212400D02*
X0019294Y0212400D01*
X0018705Y0213999D02*
X0012755Y0213999D01*
X0012755Y0212400D02*
X0014227Y0212400D01*
X0013876Y0210802D02*
X0012755Y0210802D01*
X0012755Y0209203D02*
X0014333Y0209203D01*
X0012755Y0207605D02*
X0017041Y0207605D01*
X0018071Y0206006D02*
X0012755Y0206006D01*
X0012755Y0204408D02*
X0018217Y0204408D01*
X0018217Y0202809D02*
X0012755Y0202809D01*
X0012755Y0201211D02*
X0018464Y0201211D01*
X0018794Y0199612D02*
X0012755Y0199612D01*
X0012755Y0198014D02*
X0018794Y0198014D01*
X0018794Y0196415D02*
X0012755Y0196415D01*
X0012755Y0194817D02*
X0018766Y0194817D01*
X0018217Y0193218D02*
X0012755Y0193218D01*
X0012755Y0191620D02*
X0018217Y0191620D01*
X0018217Y0190021D02*
X0012755Y0190021D01*
X0012755Y0188423D02*
X0026735Y0188423D01*
X0028458Y0186824D02*
X0012755Y0186824D01*
X0012755Y0185226D02*
X0030181Y0185226D01*
X0031904Y0183627D02*
X0012755Y0183627D01*
X0012755Y0182029D02*
X0033627Y0182029D01*
X0035351Y0180430D02*
X0012755Y0180430D01*
X0012755Y0178832D02*
X0037074Y0178832D01*
X0038797Y0177233D02*
X0012755Y0177233D01*
X0012755Y0175635D02*
X0021260Y0175635D01*
X0021151Y0175617D02*
X0020463Y0175394D01*
X0019817Y0175065D01*
X0019232Y0174639D01*
X0018720Y0174127D01*
X0018294Y0173542D01*
X0017965Y0172896D01*
X0017742Y0172208D01*
X0017628Y0171493D01*
X0017628Y0171231D01*
X0024928Y0171231D01*
X0024928Y0175731D01*
X0021866Y0175731D01*
X0021151Y0175617D01*
X0018653Y0174036D02*
X0012755Y0174036D01*
X0012755Y0172438D02*
X0017816Y0172438D01*
X0017628Y0171031D02*
X0017628Y0170769D01*
X0017742Y0170054D01*
X0017965Y0169365D01*
X0018294Y0168720D01*
X0018720Y0168134D01*
X0019232Y0167622D01*
X0019817Y0167196D01*
X0020463Y0166868D01*
X0021151Y0166644D01*
X0021866Y0166531D01*
X0024928Y0166531D01*
X0024928Y0171031D01*
X0017628Y0171031D01*
X0017628Y0170839D02*
X0012755Y0170839D01*
X0012755Y0169241D02*
X0018029Y0169241D01*
X0019212Y0167642D02*
X0012755Y0167642D01*
X0012755Y0166044D02*
X0038939Y0166044D01*
X0038921Y0167642D02*
X0030845Y0167642D01*
X0030825Y0167622D02*
X0031337Y0168134D01*
X0031763Y0168720D01*
X0032091Y0169365D01*
X0032315Y0170054D01*
X0032428Y0170769D01*
X0032428Y0171031D01*
X0025128Y0171031D01*
X0025128Y0166531D01*
X0028190Y0166531D01*
X0028906Y0166644D01*
X0029594Y0166868D01*
X0030239Y0167196D01*
X0030825Y0167622D01*
X0032028Y0169241D02*
X0038902Y0169241D01*
X0038884Y0170839D02*
X0032428Y0170839D01*
X0032428Y0171231D02*
X0032428Y0171493D01*
X0032315Y0172208D01*
X0032091Y0172896D01*
X0031763Y0173542D01*
X0031337Y0174127D01*
X0030825Y0174639D01*
X0030239Y0175065D01*
X0029594Y0175394D01*
X0028906Y0175617D01*
X0028190Y0175731D01*
X0025128Y0175731D01*
X0025128Y0171231D01*
X0024928Y0171231D01*
X0024928Y0171031D01*
X0025128Y0171031D01*
X0025128Y0171231D01*
X0032428Y0171231D01*
X0032240Y0172438D02*
X0038999Y0172438D01*
X0040248Y0174036D02*
X0031403Y0174036D01*
X0028797Y0175635D02*
X0040248Y0175635D01*
X0042348Y0176804D02*
X0042348Y0172643D01*
X0043514Y0170839D02*
X0058168Y0170839D01*
X0058168Y0169241D02*
X0042702Y0169241D01*
X0042721Y0167642D02*
X0058168Y0167642D01*
X0058168Y0166044D02*
X0053053Y0166044D01*
X0052995Y0166102D02*
X0050605Y0166102D01*
X0048916Y0164412D01*
X0048916Y0163213D01*
X0037194Y0152919D01*
X0031504Y0152971D01*
X0031304Y0153453D01*
X0030151Y0154607D01*
X0028644Y0155231D01*
X0021413Y0155231D01*
X0019906Y0154607D01*
X0018753Y0153453D01*
X0018128Y0151946D01*
X0018128Y0150315D01*
X0018753Y0148808D01*
X0019906Y0147655D01*
X0021413Y0147031D01*
X0028644Y0147031D01*
X0030151Y0147655D01*
X0031304Y0148808D01*
X0031455Y0149172D01*
X0037832Y0149113D01*
X0038565Y0149066D01*
X0038611Y0149106D01*
X0038672Y0149105D01*
X0039196Y0149620D01*
X0051395Y0160333D01*
X0052995Y0160333D01*
X0054684Y0162023D01*
X0054684Y0164412D01*
X0052995Y0166102D01*
X0054651Y0164445D02*
X0058168Y0164445D01*
X0058168Y0162847D02*
X0054684Y0162847D01*
X0053910Y0161248D02*
X0058168Y0161248D01*
X0058168Y0159650D02*
X0050617Y0159650D01*
X0048797Y0158051D02*
X0058168Y0158051D01*
X0058168Y0156453D02*
X0046976Y0156453D01*
X0045156Y0154854D02*
X0058168Y0154854D01*
X0058168Y0153256D02*
X0043336Y0153256D01*
X0041516Y0151657D02*
X0055058Y0151657D01*
X0054034Y0150059D02*
X0039695Y0150059D01*
X0037577Y0153256D02*
X0031386Y0153256D01*
X0029553Y0154854D02*
X0039397Y0154854D01*
X0041218Y0156453D02*
X0012755Y0156453D01*
X0012755Y0158051D02*
X0019510Y0158051D01*
X0018404Y0159650D02*
X0012755Y0159650D01*
X0012755Y0161248D02*
X0018128Y0161248D01*
X0018501Y0162847D02*
X0012755Y0162847D01*
X0012755Y0164445D02*
X0019744Y0164445D01*
X0024928Y0167642D02*
X0025128Y0167642D01*
X0025128Y0169241D02*
X0024928Y0169241D01*
X0024928Y0170839D02*
X0025128Y0170839D01*
X0025128Y0172438D02*
X0024928Y0172438D01*
X0024928Y0174036D02*
X0025128Y0174036D01*
X0025128Y0175635D02*
X0024928Y0175635D01*
X0030312Y0164445D02*
X0038957Y0164445D01*
X0042758Y0164445D02*
X0048949Y0164445D01*
X0048498Y0162847D02*
X0042776Y0162847D01*
X0042795Y0161248D02*
X0046678Y0161248D01*
X0044858Y0159650D02*
X0041988Y0159650D01*
X0043038Y0158051D02*
X0030547Y0158051D01*
X0030956Y0148460D02*
X0054034Y0148460D01*
X0054624Y0146861D02*
X0012755Y0146861D01*
X0012755Y0145263D02*
X0054624Y0145263D01*
X0054624Y0143664D02*
X0031093Y0143664D01*
X0031879Y0142066D02*
X0054624Y0142066D01*
X0054624Y0140467D02*
X0031928Y0140467D01*
X0031329Y0138869D02*
X0054624Y0138869D01*
X0054624Y0137270D02*
X0029223Y0137270D01*
X0020834Y0137270D02*
X0012755Y0137270D01*
X0012755Y0135672D02*
X0054624Y0135672D01*
X0054624Y0134073D02*
X0012755Y0134073D01*
X0012755Y0132475D02*
X0054624Y0132475D01*
X0054624Y0130876D02*
X0012755Y0130876D01*
X0012755Y0129278D02*
X0054624Y0129278D01*
X0054624Y0127679D02*
X0012755Y0127679D01*
X0012755Y0126081D02*
X0054624Y0126081D01*
X0054624Y0124482D02*
X0012755Y0124482D01*
X0026317Y0122884D02*
X0054624Y0122884D01*
X0054624Y0121285D02*
X0027915Y0121285D01*
X0029514Y0119687D02*
X0054624Y0119687D01*
X0054624Y0118088D02*
X0031112Y0118088D01*
X0032440Y0116490D02*
X0041938Y0116490D01*
X0041829Y0114891D02*
X0032440Y0114891D01*
X0032440Y0113293D02*
X0042528Y0113293D01*
X0045518Y0111694D02*
X0032440Y0111694D01*
X0032440Y0110096D02*
X0047116Y0110096D01*
X0048715Y0108497D02*
X0032440Y0108497D01*
X0032440Y0106899D02*
X0050313Y0106899D01*
X0051912Y0105300D02*
X0032669Y0105300D01*
X0034812Y0103702D02*
X0053511Y0103702D01*
X0054089Y0108497D02*
X0115845Y0108497D01*
X0117434Y0110096D02*
X0052490Y0110096D01*
X0050892Y0111694D02*
X0059691Y0111694D01*
X0058093Y0113293D02*
X0049293Y0113293D01*
X0047695Y0114891D02*
X0056494Y0114891D01*
X0054896Y0116490D02*
X0047488Y0116490D01*
X0028640Y0114891D02*
X0028453Y0114891D01*
X0028640Y0113293D02*
X0028240Y0113293D01*
X0028640Y0111694D02*
X0027387Y0111694D01*
X0028640Y0110096D02*
X0025147Y0110096D01*
X0018727Y0138869D02*
X0012755Y0138869D01*
X0014082Y0143664D02*
X0018964Y0143664D01*
X0019101Y0148460D02*
X0012755Y0148460D01*
X0012755Y0150059D02*
X0018235Y0150059D01*
X0018128Y0151657D02*
X0012755Y0151657D01*
X0012755Y0153256D02*
X0018671Y0153256D01*
X0020503Y0154854D02*
X0012755Y0154854D01*
X0042739Y0166044D02*
X0050547Y0166044D01*
X0045272Y0172438D02*
X0058168Y0172438D01*
X0058168Y0174036D02*
X0047442Y0174036D01*
X0045375Y0177233D02*
X0044448Y0177233D01*
X0043289Y0178832D02*
X0047405Y0178832D01*
X0042348Y0176804D02*
X0026013Y0191957D01*
X0028691Y0193218D02*
X0056987Y0193218D01*
X0056987Y0191620D02*
X0029464Y0191620D01*
X0031187Y0190021D02*
X0056987Y0190021D01*
X0056987Y0188423D02*
X0032911Y0188423D01*
X0034634Y0186824D02*
X0056987Y0186824D01*
X0056987Y0185226D02*
X0036357Y0185226D01*
X0038080Y0183627D02*
X0056987Y0183627D01*
X0058168Y0182029D02*
X0039803Y0182029D01*
X0041526Y0180430D02*
X0058168Y0180430D01*
X0058168Y0178832D02*
X0057981Y0178832D01*
X0056987Y0194817D02*
X0028141Y0194817D01*
X0028288Y0199612D02*
X0022994Y0199612D01*
X0022994Y0198014D02*
X0056987Y0198014D01*
X0056987Y0199612D02*
X0050790Y0199612D01*
X0050790Y0201211D02*
X0056987Y0201211D01*
X0056987Y0202809D02*
X0050790Y0202809D01*
X0050790Y0204408D02*
X0056987Y0204408D01*
X0056987Y0206006D02*
X0050790Y0206006D01*
X0050790Y0207605D02*
X0056987Y0207605D01*
X0056987Y0209203D02*
X0050790Y0209203D01*
X0050790Y0210802D02*
X0057577Y0210802D01*
X0058715Y0212400D02*
X0050790Y0212400D01*
X0050790Y0213999D02*
X0061317Y0213999D01*
X0061317Y0215597D02*
X0050790Y0215597D01*
X0050790Y0217196D02*
X0061317Y0217196D01*
X0061317Y0218795D02*
X0050790Y0218795D01*
X0050790Y0220393D02*
X0061317Y0220393D01*
X0061317Y0221992D02*
X0050790Y0221992D01*
X0050790Y0223590D02*
X0061317Y0223590D01*
X0061317Y0225189D02*
X0050790Y0225189D01*
X0051293Y0226787D02*
X0056086Y0226787D01*
X0054488Y0228386D02*
X0052892Y0228386D01*
X0052990Y0229984D02*
X0054390Y0229984D01*
X0054390Y0231583D02*
X0052990Y0231583D01*
X0051854Y0233181D02*
X0055525Y0233181D01*
X0055788Y0236378D02*
X0050884Y0236378D01*
X0052483Y0237977D02*
X0054189Y0237977D01*
X0053890Y0239575D02*
X0052990Y0239575D01*
X0052990Y0241174D02*
X0053890Y0241174D01*
X0054409Y0242772D02*
X0052263Y0242772D01*
X0050665Y0244371D02*
X0056008Y0244371D01*
X0062970Y0242772D02*
X0065116Y0242772D01*
X0064390Y0241174D02*
X0063490Y0241174D01*
X0063490Y0239575D02*
X0064390Y0239575D01*
X0065117Y0234780D02*
X0071947Y0234780D01*
X0071947Y0236378D02*
X0070884Y0236378D01*
X0071854Y0233181D02*
X0071947Y0233181D01*
X0065525Y0233181D02*
X0065117Y0233181D01*
X0061317Y0226787D02*
X0061293Y0226787D01*
X0048690Y0230265D02*
X0048690Y0200225D01*
X0036446Y0200225D01*
X0035658Y0201013D01*
X0029950Y0201013D01*
X0026013Y0203769D01*
X0028761Y0204408D02*
X0046590Y0204408D01*
X0046590Y0206006D02*
X0028691Y0206006D01*
X0023582Y0201211D02*
X0023325Y0201211D01*
X0020894Y0203769D02*
X0020894Y0191957D01*
X0023023Y0194817D02*
X0023884Y0194817D01*
X0022994Y0196415D02*
X0056987Y0196415D01*
X0046590Y0202809D02*
X0036831Y0202809D01*
X0046590Y0207605D02*
X0021982Y0207605D01*
X0019713Y0207902D02*
X0020894Y0203769D01*
X0019713Y0207902D02*
X0016761Y0210855D01*
X0018461Y0215597D02*
X0013954Y0215597D01*
X0015552Y0217196D02*
X0018721Y0217196D01*
X0019635Y0218795D02*
X0017151Y0218795D01*
X0100590Y0207605D02*
X0102152Y0207605D01*
X0124831Y0156453D02*
X0124832Y0156453D01*
X0124831Y0154854D02*
X0124832Y0154854D01*
X0124831Y0153256D02*
X0124832Y0153256D01*
X0154174Y0129278D02*
X0154303Y0129278D01*
X0161729Y0145263D02*
X0205018Y0145263D01*
X0205018Y0146861D02*
X0162361Y0146861D01*
X0180787Y0127679D02*
X0187302Y0127679D01*
X0187302Y0126081D02*
X0181850Y0126081D01*
X0181850Y0124482D02*
X0187302Y0124482D01*
X0187302Y0122884D02*
X0180506Y0122884D01*
X0183342Y0129278D02*
X0187302Y0129278D01*
X0187302Y0130876D02*
X0186136Y0130876D01*
X0201731Y0130876D02*
X0205018Y0130876D01*
X0205018Y0132475D02*
X0201731Y0132475D01*
X0201731Y0134073D02*
X0205018Y0134073D01*
X0205018Y0135672D02*
X0201731Y0135672D01*
X0201731Y0137270D02*
X0205018Y0137270D01*
X0205018Y0138869D02*
X0201670Y0138869D01*
X0200371Y0140467D02*
X0205018Y0140467D01*
X0205018Y0142066D02*
X0199172Y0142066D01*
X0198056Y0143664D02*
X0205018Y0143664D01*
X0208818Y0143664D02*
X0230588Y0143664D01*
X0230499Y0143542D02*
X0230170Y0142896D01*
X0229946Y0142208D01*
X0229833Y0141493D01*
X0229833Y0141231D01*
X0237133Y0141231D01*
X0237133Y0145731D01*
X0234071Y0145731D01*
X0233356Y0145617D01*
X0232667Y0145394D01*
X0232022Y0145065D01*
X0231436Y0144639D01*
X0230924Y0144127D01*
X0230499Y0143542D01*
X0229924Y0142066D02*
X0208818Y0142066D01*
X0208818Y0140467D02*
X0229881Y0140467D01*
X0229833Y0140769D02*
X0229946Y0140054D01*
X0230170Y0139365D01*
X0230499Y0138720D01*
X0230924Y0138134D01*
X0231436Y0137622D01*
X0232022Y0137196D01*
X0232667Y0136868D01*
X0233356Y0136644D01*
X0234071Y0136531D01*
X0237133Y0136531D01*
X0237133Y0141031D01*
X0229833Y0141031D01*
X0229833Y0140769D01*
X0230423Y0138869D02*
X0208818Y0138869D01*
X0208818Y0137270D02*
X0231920Y0137270D01*
X0237133Y0137270D02*
X0237333Y0137270D01*
X0237333Y0136531D02*
X0240395Y0136531D01*
X0241110Y0136644D01*
X0241799Y0136868D01*
X0242444Y0137196D01*
X0243030Y0137622D01*
X0243542Y0138134D01*
X0243967Y0138720D01*
X0244296Y0139365D01*
X0244520Y0140054D01*
X0244633Y0140769D01*
X0244633Y0141031D01*
X0237333Y0141031D01*
X0237333Y0141231D01*
X0237133Y0141231D01*
X0237133Y0141031D01*
X0237333Y0141031D01*
X0237333Y0136531D01*
X0237333Y0138869D02*
X0237133Y0138869D01*
X0237133Y0140467D02*
X0237333Y0140467D01*
X0237333Y0141231D02*
X0244633Y0141231D01*
X0244633Y0141493D01*
X0244520Y0142208D01*
X0244296Y0142896D01*
X0243967Y0143542D01*
X0243542Y0144127D01*
X0243030Y0144639D01*
X0242444Y0145065D01*
X0241799Y0145394D01*
X0241110Y0145617D01*
X0240395Y0145731D01*
X0237333Y0145731D01*
X0237333Y0141231D01*
X0237333Y0142066D02*
X0237133Y0142066D01*
X0237133Y0143664D02*
X0237333Y0143664D01*
X0237333Y0145263D02*
X0237133Y0145263D01*
X0232411Y0145263D02*
X0208818Y0145263D01*
X0208818Y0146861D02*
X0248113Y0146861D01*
X0247465Y0145263D02*
X0242055Y0145263D01*
X0243878Y0143664D02*
X0247465Y0143664D01*
X0247499Y0142066D02*
X0244542Y0142066D01*
X0244585Y0140467D02*
X0259843Y0140467D01*
X0259843Y0138869D02*
X0244043Y0138869D01*
X0242546Y0137270D02*
X0259843Y0137270D01*
X0259843Y0135672D02*
X0254191Y0135672D01*
X0254294Y0135624D02*
X0253984Y0135769D01*
X0253886Y0135733D01*
X0253863Y0135740D01*
X0253796Y0135819D01*
X0253454Y0135849D01*
X0253123Y0135938D01*
X0253033Y0135886D01*
X0253009Y0135888D01*
X0252929Y0135955D01*
X0252587Y0135925D01*
X0252246Y0135955D01*
X0252166Y0135888D01*
X0252142Y0135886D01*
X0252052Y0135938D01*
X0251721Y0135849D01*
X0251379Y0135819D01*
X0251312Y0135740D01*
X0251289Y0135733D01*
X0251191Y0135769D01*
X0250880Y0135624D01*
X0250549Y0135535D01*
X0250497Y0135445D01*
X0250475Y0135435D01*
X0250373Y0135453D01*
X0250092Y0135256D01*
X0249781Y0135111D01*
X0249745Y0135014D01*
X0249726Y0135000D01*
X0249622Y0135000D01*
X0249379Y0134757D01*
X0249098Y0134560D01*
X0249080Y0134458D01*
X0249063Y0134441D01*
X0248961Y0134423D01*
X0248764Y0134142D01*
X0248521Y0133899D01*
X0248521Y0133796D01*
X0248508Y0133776D01*
X0248410Y0133740D01*
X0248265Y0133429D01*
X0248068Y0133148D01*
X0248086Y0133046D01*
X0248076Y0133024D01*
X0247986Y0132972D01*
X0247897Y0132641D01*
X0247752Y0132330D01*
X0247788Y0132232D01*
X0247782Y0132209D01*
X0247702Y0132142D01*
X0247672Y0131801D01*
X0247583Y0131469D01*
X0247635Y0131379D01*
X0247633Y0131355D01*
X0247566Y0131276D01*
X0247596Y0130934D01*
X0247566Y0130592D01*
X0247633Y0130513D01*
X0247635Y0130488D01*
X0247583Y0130399D01*
X0247672Y0130067D01*
X0247702Y0129725D01*
X0247782Y0129659D01*
X0247788Y0129635D01*
X0247752Y0129538D01*
X0247897Y0129227D01*
X0247986Y0128895D01*
X0248076Y0128844D01*
X0248086Y0128822D01*
X0248068Y0128719D01*
X0248265Y0128438D01*
X0248410Y0128127D01*
X0248508Y0128092D01*
X0248521Y0128072D01*
X0248521Y0127968D01*
X0248764Y0127726D01*
X0248961Y0127445D01*
X0249063Y0127427D01*
X0249080Y0127410D01*
X0249098Y0127307D01*
X0249379Y0127111D01*
X0249622Y0126868D01*
X0249726Y0126868D01*
X0249745Y0126854D01*
X0249781Y0126756D01*
X0250092Y0126612D01*
X0250373Y0126415D01*
X0250475Y0126433D01*
X0250497Y0126423D01*
X0250549Y0126333D01*
X0250880Y0126244D01*
X0251191Y0126099D01*
X0251289Y0126134D01*
X0251312Y0126128D01*
X0251379Y0126049D01*
X0251721Y0126019D01*
X0252052Y0125930D01*
X0252142Y0125982D01*
X0252166Y0125980D01*
X0252246Y0125913D01*
X0252587Y0125943D01*
X0252929Y0125913D01*
X0253009Y0125980D01*
X0253033Y0125982D01*
X0253123Y0125930D01*
X0253454Y0126019D01*
X0253796Y0126049D01*
X0253863Y0126128D01*
X0253886Y0126134D01*
X0253984Y0126099D01*
X0254294Y0126244D01*
X0254626Y0126333D01*
X0254678Y0126423D01*
X0254700Y0126433D01*
X0254802Y0126415D01*
X0255083Y0126612D01*
X0255394Y0126756D01*
X0255429Y0126854D01*
X0255449Y0126868D01*
X0255553Y0126868D01*
X0255796Y0127111D01*
X0256077Y0127307D01*
X0256095Y0127410D01*
X0256112Y0127427D01*
X0256214Y0127445D01*
X0256411Y0127726D01*
X0256653Y0127968D01*
X0256653Y0128072D01*
X0256667Y0128092D01*
X0256765Y0128127D01*
X0256910Y0128438D01*
X0257107Y0128719D01*
X0257088Y0128822D01*
X0257099Y0128844D01*
X0257189Y0128895D01*
X0257277Y0129227D01*
X0257422Y0129538D01*
X0257387Y0129635D01*
X0257393Y0129659D01*
X0257473Y0129725D01*
X0257503Y0130067D01*
X0257591Y0130399D01*
X0257539Y0130488D01*
X0257542Y0130513D01*
X0257608Y0130592D01*
X0257578Y0130934D01*
X0257608Y0131276D01*
X0257542Y0131355D01*
X0257539Y0131379D01*
X0257591Y0131469D01*
X0257503Y0131801D01*
X0257473Y0132142D01*
X0257393Y0132209D01*
X0257387Y0132232D01*
X0257422Y0132330D01*
X0257277Y0132641D01*
X0257189Y0132972D01*
X0257099Y0133024D01*
X0257088Y0133046D01*
X0257107Y0133148D01*
X0256910Y0133429D01*
X0256765Y0133740D01*
X0256667Y0133776D01*
X0256653Y0133796D01*
X0256653Y0133899D01*
X0256411Y0134142D01*
X0256214Y0134423D01*
X0256112Y0134441D01*
X0256095Y0134458D01*
X0256077Y0134560D01*
X0255796Y0134757D01*
X0255553Y0135000D01*
X0255449Y0135000D01*
X0255429Y0135014D01*
X0255394Y0135111D01*
X0255083Y0135256D01*
X0254802Y0135453D01*
X0254700Y0135435D01*
X0254678Y0135445D01*
X0254626Y0135535D01*
X0254294Y0135624D01*
X0256479Y0134073D02*
X0259843Y0134073D01*
X0259843Y0132475D02*
X0257355Y0132475D01*
X0257583Y0130876D02*
X0259843Y0130876D01*
X0259843Y0129278D02*
X0257301Y0129278D01*
X0256378Y0127679D02*
X0259843Y0127679D01*
X0259843Y0126081D02*
X0253823Y0126081D01*
X0251352Y0126081D02*
X0208506Y0126081D01*
X0209802Y0127679D02*
X0248797Y0127679D01*
X0247874Y0129278D02*
X0209802Y0129278D01*
X0208818Y0130876D02*
X0247591Y0130876D01*
X0247820Y0132475D02*
X0208818Y0132475D01*
X0208818Y0134073D02*
X0248695Y0134073D01*
X0250983Y0135672D02*
X0208818Y0135672D01*
X0204034Y0129278D02*
X0201731Y0129278D01*
X0201731Y0127679D02*
X0204034Y0127679D01*
X0205330Y0126081D02*
X0201731Y0126081D01*
X0201731Y0124482D02*
X0259843Y0124482D01*
X0259843Y0122884D02*
X0201731Y0122884D01*
X0201731Y0121285D02*
X0259843Y0121285D01*
X0259843Y0119687D02*
X0201731Y0119687D01*
X0201731Y0118088D02*
X0259843Y0118088D01*
X0259843Y0116490D02*
X0201731Y0116490D01*
X0201731Y0114891D02*
X0259843Y0114891D01*
X0259843Y0113293D02*
X0201731Y0113293D01*
X0201731Y0111694D02*
X0259843Y0111694D01*
X0259843Y0110096D02*
X0201731Y0110096D01*
X0202716Y0108497D02*
X0259843Y0108497D01*
X0259843Y0106899D02*
X0202716Y0106899D01*
X0197007Y0102103D02*
X0239262Y0102103D01*
X0238888Y0100505D02*
X0197007Y0100505D01*
X0197007Y0098906D02*
X0239093Y0098906D01*
X0239951Y0097308D02*
X0197007Y0097308D01*
X0199963Y0086118D02*
X0259843Y0086118D01*
X0259843Y0084520D02*
X0199963Y0084520D01*
X0203445Y0052549D02*
X0191088Y0052549D01*
X0198725Y0049123D02*
X0200028Y0049001D01*
X0202171Y0046155D02*
X0202310Y0046155D01*
X0208324Y0047754D02*
X0236201Y0047754D01*
X0237067Y0049352D02*
X0208324Y0049352D01*
X0208324Y0050951D02*
X0238265Y0050951D01*
X0234960Y0042958D02*
X0097759Y0042958D01*
X0097759Y0041360D02*
X0235024Y0041360D01*
X0235290Y0039761D02*
X0097759Y0039761D01*
X0097759Y0038163D02*
X0235557Y0038163D01*
X0236409Y0036564D02*
X0097759Y0036564D01*
X0097100Y0044557D02*
X0131016Y0044557D01*
X0130488Y0046155D02*
X0120458Y0046155D01*
X0115690Y0052549D02*
X0130488Y0052549D01*
X0140154Y0054148D02*
X0103506Y0054148D01*
X0104779Y0055746D02*
X0141753Y0055746D01*
X0143351Y0057345D02*
X0106378Y0057345D01*
X0103635Y0060542D02*
X0093585Y0060542D01*
X0093585Y0062140D02*
X0105234Y0062140D01*
X0102037Y0058943D02*
X0093970Y0058943D01*
X0095179Y0057345D02*
X0100438Y0057345D01*
X0099306Y0055746D02*
X0097107Y0055746D01*
X0097759Y0054148D02*
X0099306Y0054148D01*
X0098864Y0052549D02*
X0097759Y0052549D01*
X0097759Y0050951D02*
X0098522Y0050951D01*
X0098988Y0049352D02*
X0097759Y0049352D01*
X0097759Y0047754D02*
X0110236Y0047754D01*
X0110781Y0046155D02*
X0085396Y0046155D01*
X0091485Y0057154D02*
X0091485Y0069320D01*
X0083296Y0069320D01*
X0086473Y0071731D02*
X0134152Y0071731D01*
X0134152Y0070133D02*
X0093585Y0070133D01*
X0081196Y0058943D02*
X0078548Y0058943D01*
X0066044Y0047754D02*
X0064601Y0047754D01*
X0064601Y0046155D02*
X0066044Y0046155D01*
X0066044Y0044557D02*
X0064601Y0044557D01*
X0060480Y0041360D02*
X0060031Y0041360D01*
X0047505Y0044942D02*
X0045894Y0044942D01*
X0045894Y0058099D01*
X0048110Y0057345D02*
X0048542Y0057345D01*
X0045367Y0060542D02*
X0035889Y0060542D01*
X0037912Y0066936D02*
X0038916Y0066936D01*
X0043030Y0066936D02*
X0054803Y0066936D01*
X0054902Y0068534D02*
X0007537Y0068534D01*
X0007537Y0052549D02*
X0011655Y0052549D01*
X0009919Y0050951D02*
X0007537Y0050951D01*
X0007537Y0049352D02*
X0008720Y0049352D01*
X0007855Y0047754D02*
X0007537Y0047754D01*
X0028857Y0066936D02*
X0033798Y0066936D01*
X0040112Y0071731D02*
X0040262Y0071731D01*
X0040262Y0073330D02*
X0040112Y0073330D01*
X0040112Y0074928D02*
X0040262Y0074928D01*
X0040262Y0076527D02*
X0040112Y0076527D01*
X0067570Y0102103D02*
X0122251Y0102103D01*
X0191515Y0148460D02*
X0205018Y0148460D01*
X0205639Y0150059D02*
X0191692Y0150059D01*
X0191061Y0151657D02*
X0207238Y0151657D01*
X0209415Y0148460D02*
X0219565Y0148460D01*
X0218207Y0150059D02*
X0211013Y0150059D01*
X0212612Y0151657D02*
X0218207Y0151657D01*
X0219255Y0153256D02*
X0216966Y0153256D01*
X0222927Y0153256D02*
X0230875Y0153256D01*
X0231305Y0148460D02*
X0222618Y0148460D01*
X0244133Y0151657D02*
X0259843Y0151657D01*
X0259843Y0150059D02*
X0254108Y0150059D01*
X0254108Y0148460D02*
X0259843Y0148460D01*
X0259843Y0146861D02*
X0253960Y0146861D01*
X0254608Y0145263D02*
X0259843Y0145263D01*
X0259843Y0143664D02*
X0254608Y0143664D01*
X0254608Y0143808D02*
X0251036Y0143808D01*
X0251036Y0143808D01*
X0251036Y0140630D01*
X0253045Y0140630D01*
X0253503Y0140753D01*
X0253913Y0140990D01*
X0254248Y0141325D01*
X0254485Y0141735D01*
X0254608Y0142193D01*
X0254608Y0143808D01*
X0254574Y0142066D02*
X0259843Y0142066D01*
X0251036Y0142066D02*
X0251036Y0142066D01*
X0251036Y0143664D02*
X0251036Y0143664D01*
X0253259Y0054148D02*
X0259843Y0054148D01*
X0259843Y0052549D02*
X0255706Y0052549D01*
X0257424Y0050951D02*
X0259843Y0050951D01*
X0259843Y0049352D02*
X0258669Y0049352D01*
X0259570Y0047754D02*
X0259843Y0047754D01*
X0240419Y0031769D02*
X0070924Y0031769D01*
X0071552Y0033367D02*
X0238683Y0033367D01*
X0237275Y0034966D02*
X0071660Y0034966D01*
X0040544Y0044557D02*
X0039101Y0044557D01*
X0039101Y0046155D02*
X0040544Y0046155D01*
X0040544Y0047754D02*
X0039101Y0047754D01*
X0156107Y0172438D02*
X0157546Y0172438D01*
X0198490Y0236378D02*
X0198890Y0236378D01*
X0198890Y0237977D02*
X0198490Y0237977D01*
X0198490Y0239575D02*
X0198890Y0239575D01*
X0198890Y0241174D02*
X0198490Y0241174D01*
X0198490Y0242772D02*
X0198890Y0242772D01*
X0198890Y0244371D02*
X0198490Y0244371D01*
D32*
X0173847Y0186839D03*
X0176603Y0171091D03*
X0153375Y0171091D03*
X0143532Y0182902D03*
X0148257Y0186839D03*
X0140383Y0175028D03*
X0132509Y0171879D03*
X0130934Y0167548D03*
X0123454Y0163217D03*
X0116761Y0154950D03*
X0125028Y0142351D03*
X0132509Y0149831D03*
X0133690Y0141564D03*
X0129359Y0132115D03*
X0116170Y0125422D03*
X0102981Y0139202D03*
X0097469Y0135265D03*
X0094713Y0142351D03*
X0104950Y0149438D03*
X0101800Y0154162D03*
X0104950Y0159280D03*
X0092351Y0175816D03*
X0109674Y0182509D03*
X0119123Y0175028D03*
X0123454Y0178572D03*
X0115580Y0202981D03*
X0125816Y0208493D03*
X0133690Y0205737D03*
X0133690Y0220698D03*
X0103769Y0221879D03*
X0103375Y0210461D03*
X0078178Y0221879D03*
X0060461Y0210068D03*
X0055737Y0176997D03*
X0051800Y0163217D03*
X0056918Y0149438D03*
X0073060Y0129359D03*
X0070698Y0125422D03*
X0083296Y0137233D03*
X0118729Y0107312D03*
X0122666Y0110068D03*
X0135658Y0099831D03*
X0133690Y0090776D03*
X0154162Y0084083D03*
X0167942Y0064398D03*
X0188414Y0092351D03*
X0199831Y0107706D03*
X0206918Y0128572D03*
X0184871Y0133690D03*
X0178965Y0135658D03*
X0171879Y0133690D03*
X0178965Y0125422D03*
X0156524Y0114005D03*
X0148257Y0122272D03*
X0180540Y0149831D03*
X0188808Y0149831D03*
X0198650Y0160068D03*
X0209674Y0167548D03*
X0221091Y0171091D03*
X0221091Y0151013D03*
X0101406Y0051013D03*
X0088020Y0059674D03*
X0066367Y0091564D03*
X0039595Y0100619D03*
X0044713Y0115186D03*
X0049831Y0054556D03*
X0016761Y0210855D03*
D33*
X0029450Y0104083D02*
X0034095Y0100619D01*
X0039595Y0100619D01*
X0040187Y0100027D01*
X0040187Y0092372D01*
X0040187Y0083272D02*
X0057528Y0083272D01*
X0058709Y0083202D01*
X0057528Y0064005D01*
X0040973Y0064005D01*
X0035855Y0064005D02*
X0034674Y0063217D01*
X0024831Y0063217D01*
X0014987Y0083272D02*
X0040187Y0083272D01*
X0088020Y0059674D02*
X0091485Y0057154D01*
X0092351Y0056524D01*
X0092910Y0051406D01*
D34*
X0057528Y0083272D02*
X0057528Y0089418D01*
X0057706Y0089595D01*
X0064398Y0089595D01*
X0066367Y0091564D01*
X0068335Y0098650D02*
X0061643Y0105343D01*
X0054556Y0105343D01*
X0044713Y0115186D01*
X0056524Y0117548D02*
X0056524Y0149044D01*
X0056918Y0149438D01*
X0063217Y0136052D02*
X0070698Y0125422D01*
X0073060Y0129359D02*
X0068690Y0136485D01*
X0068690Y0230265D01*
X0063217Y0235658D02*
X0063217Y0136052D01*
X0060068Y0132509D02*
X0060068Y0182902D01*
X0058887Y0184083D01*
X0058887Y0208493D01*
X0060461Y0210068D01*
X0076997Y0220698D02*
X0078178Y0221879D01*
X0076997Y0220698D02*
X0076997Y0137627D01*
X0089595Y0125028D01*
X0100225Y0125028D01*
X0106131Y0130934D01*
X0116957Y0130934D01*
X0116957Y0128965D02*
X0116170Y0125422D01*
X0118926Y0119123D02*
X0122863Y0123060D01*
X0126800Y0123060D02*
X0126800Y0120107D01*
X0124635Y0117942D01*
X0123454Y0117942D01*
X0123060Y0117548D01*
X0121879Y0117548D01*
X0120698Y0116367D01*
X0064398Y0116367D01*
X0061643Y0119123D01*
X0061643Y0130934D01*
X0060068Y0132509D01*
X0073847Y0137627D02*
X0092351Y0119123D01*
X0118926Y0119123D01*
X0122272Y0113611D02*
X0120698Y0112036D01*
X0062036Y0112036D01*
X0056524Y0117548D01*
X0068335Y0098650D02*
X0121485Y0098650D01*
X0131328Y0108493D01*
X0135658Y0108493D01*
X0136643Y0109477D01*
X0136643Y0123060D01*
X0138611Y0123060D02*
X0138611Y0115776D01*
X0140383Y0114005D01*
X0156524Y0114005D01*
X0148257Y0122272D02*
X0148060Y0122076D01*
X0145501Y0122076D01*
X0144517Y0123060D01*
X0144517Y0135265D01*
X0143335Y0136446D01*
X0133690Y0136446D01*
X0132902Y0135658D01*
X0123847Y0135658D01*
X0123060Y0134871D01*
X0116957Y0134871D01*
X0116957Y0138808D02*
X0130934Y0138808D01*
X0133690Y0141564D01*
X0127784Y0146682D02*
X0142942Y0146682D01*
X0144517Y0145107D01*
X0144517Y0149241D01*
X0145894Y0150619D01*
X0150422Y0150619D01*
X0150422Y0146682D02*
X0156918Y0146682D01*
X0156918Y0152194D01*
X0159280Y0154556D01*
X0188402Y0154556D01*
X0188787Y0154172D01*
X0188787Y0149853D01*
X0188808Y0149831D01*
X0196288Y0142745D02*
X0150422Y0142745D01*
X0150422Y0144713D02*
X0158493Y0144713D01*
X0160461Y0146682D01*
X0160461Y0151406D01*
X0160855Y0151800D01*
X0178572Y0151800D01*
X0180540Y0149831D01*
X0186839Y0138808D02*
X0187627Y0138020D01*
X0187627Y0136446D01*
X0189202Y0134871D01*
X0189202Y0093139D01*
X0188414Y0092351D01*
X0192745Y0089202D02*
X0149044Y0089202D01*
X0147076Y0087233D01*
X0147076Y0076020D01*
X0147328Y0075769D01*
X0152328Y0075769D02*
X0154162Y0077603D01*
X0154162Y0084083D01*
X0157328Y0075769D02*
X0156524Y0074965D01*
X0156524Y0071485D01*
X0154556Y0069517D01*
X0137233Y0069517D01*
X0136052Y0070698D01*
X0136052Y0085658D01*
X0139202Y0088808D01*
X0142351Y0088808D01*
X0142351Y0089202D02*
X0140776Y0090776D01*
X0133690Y0090776D01*
X0137627Y0096682D02*
X0142020Y0096682D01*
X0142328Y0096989D01*
X0137627Y0096682D02*
X0135658Y0098650D01*
X0135658Y0099831D01*
X0125028Y0107312D02*
X0128572Y0110855D01*
X0129359Y0111643D01*
X0134674Y0116957D01*
X0134674Y0123060D01*
X0132706Y0123060D02*
X0132509Y0122863D01*
X0132509Y0117942D01*
X0125816Y0111249D01*
X0125816Y0110855D01*
X0125028Y0110068D01*
X0122666Y0110068D01*
X0125028Y0107312D02*
X0118729Y0107312D01*
X0122272Y0113611D02*
X0125422Y0113611D01*
X0130737Y0118926D01*
X0130737Y0123060D01*
X0128769Y0123060D02*
X0128769Y0131131D01*
X0129359Y0132115D01*
X0125028Y0142351D02*
X0122666Y0142351D01*
X0122272Y0142745D01*
X0116957Y0142745D01*
X0116957Y0140776D02*
X0113217Y0140776D01*
X0111249Y0142745D01*
X0111249Y0149438D01*
X0116761Y0154950D01*
X0114005Y0157312D02*
X0113217Y0157312D01*
X0105343Y0149438D01*
X0104950Y0149438D01*
X0098690Y0143493D02*
X0102981Y0139202D01*
X0098690Y0143493D02*
X0098690Y0230265D01*
X0103769Y0221879D02*
X0103769Y0243139D01*
X0107312Y0246682D01*
X0160068Y0246682D01*
X0163611Y0243139D01*
X0163611Y0235343D01*
X0168690Y0230265D01*
X0168690Y0240265D02*
X0175501Y0247076D01*
X0229753Y0247076D01*
X0233690Y0243139D01*
X0233690Y0228572D01*
X0234871Y0227391D01*
X0234871Y0225422D01*
X0237233Y0223060D01*
X0237233Y0221485D01*
X0252587Y0206131D01*
X0252587Y0158887D01*
X0250225Y0156524D01*
X0217548Y0156524D01*
X0214792Y0153769D01*
X0212036Y0153769D01*
X0206918Y0148650D01*
X0206918Y0128572D01*
X0199831Y0138020D02*
X0196288Y0142745D01*
X0193532Y0140776D02*
X0197076Y0137233D01*
X0197076Y0109674D01*
X0195107Y0107706D01*
X0195107Y0091564D01*
X0192745Y0089202D01*
X0199831Y0107706D02*
X0199831Y0138020D01*
X0193532Y0140776D02*
X0150422Y0140776D01*
X0150422Y0138808D02*
X0186839Y0138808D01*
X0184871Y0133690D02*
X0184477Y0132115D01*
X0181721Y0130540D01*
X0155343Y0130934D01*
X0153375Y0132902D01*
X0150422Y0132902D01*
X0150422Y0134871D02*
X0156524Y0134871D01*
X0156524Y0134083D01*
X0157706Y0132902D01*
X0171485Y0132902D01*
X0171879Y0133690D01*
X0177784Y0136839D02*
X0178965Y0135658D01*
X0177784Y0136839D02*
X0150422Y0136839D01*
X0144517Y0135265D02*
X0144517Y0145107D01*
X0144517Y0156524D02*
X0148650Y0156524D01*
X0151013Y0158887D01*
X0197469Y0158887D01*
X0198650Y0160068D01*
X0199438Y0160855D01*
X0223454Y0160855D01*
X0223729Y0161131D01*
X0237233Y0161131D01*
X0237194Y0171091D02*
X0237233Y0171131D01*
X0237194Y0171091D02*
X0221091Y0171091D01*
X0209674Y0167548D02*
X0207706Y0165580D01*
X0143926Y0165580D01*
X0142548Y0164202D01*
X0142548Y0156524D01*
X0140580Y0156524D02*
X0140580Y0166957D01*
X0142548Y0166957D01*
X0148257Y0172666D01*
X0148257Y0173847D01*
X0147469Y0174635D01*
X0140776Y0174635D01*
X0140383Y0175028D01*
X0137627Y0172272D02*
X0137627Y0178572D01*
X0138020Y0178965D01*
X0138020Y0181328D01*
X0143532Y0182902D01*
X0147863Y0186446D02*
X0148257Y0186839D01*
X0147863Y0186446D02*
X0137233Y0186446D01*
X0134477Y0183690D01*
X0134477Y0176603D01*
X0135658Y0175422D01*
X0135658Y0168729D01*
X0136643Y0167745D01*
X0136643Y0156524D01*
X0138611Y0156524D02*
X0138611Y0171288D01*
X0137627Y0172272D01*
X0132509Y0171879D02*
X0134083Y0167942D01*
X0134674Y0166564D01*
X0134674Y0156524D01*
X0132706Y0156524D02*
X0132706Y0165776D01*
X0130934Y0167548D01*
X0127784Y0163611D02*
X0128572Y0162824D01*
X0128572Y0156721D01*
X0128769Y0156524D01*
X0126800Y0156524D02*
X0126800Y0159871D01*
X0123454Y0163217D01*
X0122863Y0159083D02*
X0119123Y0162824D01*
X0119123Y0175028D01*
X0115973Y0178572D02*
X0123454Y0178572D01*
X0124635Y0179753D01*
X0124635Y0184083D01*
X0128690Y0188139D01*
X0128690Y0230265D01*
X0124241Y0234871D02*
X0143296Y0234871D01*
X0143690Y0235265D01*
X0148690Y0230265D01*
X0133690Y0220698D02*
X0133690Y0205737D01*
X0125816Y0208493D02*
X0120304Y0202981D01*
X0115580Y0202981D01*
X0121485Y0210461D02*
X0123847Y0212824D01*
X0123847Y0234477D01*
X0124241Y0234871D01*
X0121485Y0210461D02*
X0103375Y0210461D01*
X0088690Y0230265D02*
X0088690Y0143650D01*
X0097469Y0135265D01*
X0094713Y0142351D02*
X0092351Y0144713D01*
X0092351Y0175816D01*
X0109674Y0182509D02*
X0109674Y0164005D01*
X0104950Y0159280D01*
X0114005Y0157312D02*
X0114005Y0176603D01*
X0115973Y0178572D01*
X0127784Y0178572D02*
X0127784Y0163611D01*
X0122863Y0159083D02*
X0122863Y0156524D01*
X0121879Y0155540D01*
X0121879Y0152194D01*
X0122666Y0151406D01*
X0123060Y0151406D01*
X0127784Y0146682D01*
X0122666Y0151406D02*
X0117745Y0151406D01*
X0116957Y0150619D01*
X0127784Y0178572D02*
X0131721Y0182509D01*
X0131721Y0186446D01*
X0136446Y0191170D01*
X0202587Y0191170D01*
X0203375Y0191957D01*
X0203375Y0236052D01*
X0207587Y0240265D01*
X0208690Y0240265D01*
X0214398Y0235658D02*
X0214398Y0189202D01*
X0214792Y0188808D01*
X0212824Y0186839D01*
X0173847Y0186839D01*
X0176603Y0171091D02*
X0158887Y0171091D01*
X0156131Y0168335D01*
X0153375Y0171091D01*
X0151800Y0128965D02*
X0154162Y0126603D01*
X0177784Y0126603D01*
X0178965Y0125422D01*
X0151800Y0128965D02*
X0150422Y0128965D01*
X0083690Y0137627D02*
X0083296Y0137233D01*
X0083690Y0137627D02*
X0083690Y0238020D01*
X0085934Y0240265D01*
X0088690Y0240265D01*
X0078690Y0240265D02*
X0077666Y0240265D01*
X0073847Y0236446D01*
X0073847Y0137627D01*
X0051800Y0163217D02*
X0037902Y0151013D01*
X0025028Y0151131D01*
X0025028Y0161131D02*
X0040894Y0161249D01*
X0040776Y0171485D01*
X0042348Y0172643D01*
X0048257Y0176997D01*
X0055737Y0176997D01*
X0025028Y0141131D02*
X0015146Y0141524D01*
X0010855Y0142351D01*
X0010855Y0121485D01*
X0025028Y0121485D01*
X0030540Y0115973D01*
X0030540Y0104174D01*
X0029450Y0104083D01*
X0010855Y0142351D02*
X0010855Y0215186D01*
X0017154Y0221485D01*
X0028178Y0221485D01*
X0032115Y0225422D01*
X0032115Y0228572D01*
X0033690Y0230146D01*
X0033690Y0234477D01*
X0034083Y0234871D01*
X0034083Y0235658D01*
X0038690Y0240265D01*
X0048690Y0240265D01*
X0063217Y0235658D02*
X0067824Y0240265D01*
X0068690Y0240265D01*
X0214398Y0235658D02*
X0218690Y0239950D01*
X0218690Y0240265D01*
X0221091Y0151013D02*
X0237115Y0151013D01*
X0237233Y0151131D01*
X0238257Y0150107D01*
X0251036Y0148926D01*
D35*
X0059674Y0050619D03*
D36*
X0077209Y0040292D02*
X0077520Y0040603D01*
X0092910Y0040209D01*
M02*
