G75*
%MOIN*%
%OFA0B0*%
%FSLAX25Y25*%
%IPPOS*%
%LPD*%
%AMOC8*
5,1,8,0,0,1.08239X$1,22.5*
%
%ADD10C,0.00000*%
%ADD11C,0.02600*%
%ADD12C,0.00800*%
%ADD13C,0.01000*%
%ADD14C,0.00400*%
%ADD15C,0.00100*%
%ADD16C,0.00600*%
%ADD17C,0.00300*%
%ADD18C,0.00200*%
%ADD19C,0.00984*%
%ADD20R,0.00787X0.00787*%
%ADD21C,0.00500*%
D10*
X0017548Y0028572D02*
X0249831Y0028572D01*
X0250116Y0028575D01*
X0250402Y0028586D01*
X0250687Y0028603D01*
X0250971Y0028627D01*
X0251255Y0028658D01*
X0251538Y0028696D01*
X0251819Y0028741D01*
X0252100Y0028792D01*
X0252380Y0028850D01*
X0252658Y0028915D01*
X0252934Y0028987D01*
X0253208Y0029065D01*
X0253481Y0029150D01*
X0253751Y0029242D01*
X0254019Y0029340D01*
X0254285Y0029444D01*
X0254548Y0029555D01*
X0254808Y0029672D01*
X0255066Y0029795D01*
X0255320Y0029925D01*
X0255571Y0030061D01*
X0255819Y0030202D01*
X0256063Y0030350D01*
X0256304Y0030503D01*
X0256540Y0030663D01*
X0256773Y0030828D01*
X0257002Y0030998D01*
X0257227Y0031174D01*
X0257447Y0031356D01*
X0257663Y0031542D01*
X0257874Y0031734D01*
X0258081Y0031931D01*
X0258283Y0032133D01*
X0258480Y0032340D01*
X0258672Y0032551D01*
X0258858Y0032767D01*
X0259040Y0032987D01*
X0259216Y0033212D01*
X0259386Y0033441D01*
X0259551Y0033674D01*
X0259711Y0033910D01*
X0259864Y0034151D01*
X0260012Y0034395D01*
X0260153Y0034643D01*
X0260289Y0034894D01*
X0260419Y0035148D01*
X0260542Y0035406D01*
X0260659Y0035666D01*
X0260770Y0035929D01*
X0260874Y0036195D01*
X0260972Y0036463D01*
X0261064Y0036733D01*
X0261149Y0037006D01*
X0261227Y0037280D01*
X0261299Y0037556D01*
X0261364Y0037834D01*
X0261422Y0038114D01*
X0261473Y0038395D01*
X0261518Y0038676D01*
X0261556Y0038959D01*
X0261587Y0039243D01*
X0261611Y0039527D01*
X0261628Y0039812D01*
X0261639Y0040098D01*
X0261642Y0040383D01*
X0261643Y0040383D02*
X0261643Y0237233D01*
X0261642Y0237233D02*
X0261662Y0237542D01*
X0261675Y0237852D01*
X0261680Y0238162D01*
X0261677Y0238472D01*
X0261668Y0238782D01*
X0261650Y0239092D01*
X0261625Y0239401D01*
X0261593Y0239709D01*
X0261553Y0240017D01*
X0261506Y0240323D01*
X0261451Y0240629D01*
X0261389Y0240933D01*
X0261320Y0241235D01*
X0261244Y0241535D01*
X0261160Y0241834D01*
X0261069Y0242130D01*
X0260971Y0242425D01*
X0260865Y0242716D01*
X0260753Y0243005D01*
X0260634Y0243292D01*
X0260508Y0243575D01*
X0260375Y0243855D01*
X0260235Y0244132D01*
X0260089Y0244406D01*
X0259936Y0244675D01*
X0259777Y0244942D01*
X0259611Y0245204D01*
X0259439Y0245462D01*
X0259261Y0245716D01*
X0259077Y0245965D01*
X0258887Y0246210D01*
X0258691Y0246450D01*
X0258489Y0246686D01*
X0258281Y0246916D01*
X0258069Y0247142D01*
X0257850Y0247362D01*
X0257627Y0247577D01*
X0257398Y0247786D01*
X0257164Y0247990D01*
X0256926Y0248188D01*
X0256682Y0248380D01*
X0256434Y0248567D01*
X0256182Y0248747D01*
X0255925Y0248921D01*
X0255665Y0249089D01*
X0255400Y0249251D01*
X0255131Y0249406D01*
X0254859Y0249554D01*
X0254584Y0249696D01*
X0254305Y0249832D01*
X0254022Y0249960D01*
X0253737Y0250082D01*
X0253449Y0250197D01*
X0253158Y0250304D01*
X0252865Y0250405D01*
X0252569Y0250498D01*
X0252271Y0250585D01*
X0251971Y0250664D01*
X0251670Y0250736D01*
X0251366Y0250800D01*
X0251062Y0250857D01*
X0250755Y0250907D01*
X0250448Y0250950D01*
X0250140Y0250985D01*
X0249831Y0251012D01*
X0249831Y0251013D02*
X0017548Y0251013D01*
X0017548Y0251012D02*
X0017239Y0250985D01*
X0016931Y0250950D01*
X0016624Y0250907D01*
X0016317Y0250857D01*
X0016013Y0250800D01*
X0015709Y0250736D01*
X0015408Y0250664D01*
X0015108Y0250585D01*
X0014810Y0250498D01*
X0014514Y0250405D01*
X0014221Y0250304D01*
X0013930Y0250197D01*
X0013642Y0250082D01*
X0013357Y0249960D01*
X0013074Y0249832D01*
X0012795Y0249696D01*
X0012520Y0249554D01*
X0012248Y0249406D01*
X0011979Y0249251D01*
X0011714Y0249089D01*
X0011454Y0248921D01*
X0011197Y0248747D01*
X0010945Y0248567D01*
X0010697Y0248380D01*
X0010453Y0248188D01*
X0010215Y0247990D01*
X0009981Y0247786D01*
X0009752Y0247577D01*
X0009529Y0247362D01*
X0009310Y0247142D01*
X0009098Y0246916D01*
X0008890Y0246686D01*
X0008688Y0246450D01*
X0008492Y0246210D01*
X0008302Y0245965D01*
X0008118Y0245716D01*
X0007940Y0245462D01*
X0007768Y0245204D01*
X0007602Y0244942D01*
X0007443Y0244675D01*
X0007290Y0244406D01*
X0007144Y0244132D01*
X0007004Y0243855D01*
X0006871Y0243575D01*
X0006745Y0243292D01*
X0006626Y0243005D01*
X0006514Y0242716D01*
X0006408Y0242425D01*
X0006310Y0242130D01*
X0006219Y0241834D01*
X0006135Y0241535D01*
X0006059Y0241235D01*
X0005990Y0240933D01*
X0005928Y0240629D01*
X0005873Y0240323D01*
X0005826Y0240017D01*
X0005786Y0239709D01*
X0005754Y0239401D01*
X0005729Y0239092D01*
X0005711Y0238782D01*
X0005702Y0238472D01*
X0005699Y0238162D01*
X0005704Y0237852D01*
X0005717Y0237542D01*
X0005737Y0237233D01*
X0005737Y0040383D01*
X0005740Y0040098D01*
X0005751Y0039812D01*
X0005768Y0039527D01*
X0005792Y0039243D01*
X0005823Y0038959D01*
X0005861Y0038676D01*
X0005906Y0038395D01*
X0005957Y0038114D01*
X0006015Y0037834D01*
X0006080Y0037556D01*
X0006152Y0037280D01*
X0006230Y0037006D01*
X0006315Y0036733D01*
X0006407Y0036463D01*
X0006505Y0036195D01*
X0006609Y0035929D01*
X0006720Y0035666D01*
X0006837Y0035406D01*
X0006960Y0035148D01*
X0007090Y0034894D01*
X0007226Y0034643D01*
X0007367Y0034395D01*
X0007515Y0034151D01*
X0007668Y0033910D01*
X0007828Y0033674D01*
X0007993Y0033441D01*
X0008163Y0033212D01*
X0008339Y0032987D01*
X0008521Y0032767D01*
X0008707Y0032551D01*
X0008899Y0032340D01*
X0009096Y0032133D01*
X0009298Y0031931D01*
X0009505Y0031734D01*
X0009716Y0031542D01*
X0009932Y0031356D01*
X0010152Y0031174D01*
X0010377Y0030998D01*
X0010606Y0030828D01*
X0010839Y0030663D01*
X0011075Y0030503D01*
X0011316Y0030350D01*
X0011560Y0030202D01*
X0011808Y0030061D01*
X0012059Y0029925D01*
X0012313Y0029795D01*
X0012571Y0029672D01*
X0012831Y0029555D01*
X0013094Y0029444D01*
X0013360Y0029340D01*
X0013628Y0029242D01*
X0013898Y0029150D01*
X0014171Y0029065D01*
X0014445Y0028987D01*
X0014721Y0028915D01*
X0014999Y0028850D01*
X0015279Y0028792D01*
X0015560Y0028741D01*
X0015841Y0028696D01*
X0016124Y0028658D01*
X0016408Y0028627D01*
X0016692Y0028603D01*
X0016977Y0028586D01*
X0017263Y0028575D01*
X0017548Y0028572D01*
X0014104Y0042351D02*
X0014106Y0042498D01*
X0014112Y0042644D01*
X0014122Y0042790D01*
X0014136Y0042936D01*
X0014154Y0043082D01*
X0014175Y0043227D01*
X0014201Y0043371D01*
X0014231Y0043515D01*
X0014264Y0043657D01*
X0014301Y0043799D01*
X0014342Y0043940D01*
X0014387Y0044079D01*
X0014436Y0044218D01*
X0014488Y0044355D01*
X0014545Y0044490D01*
X0014604Y0044624D01*
X0014668Y0044756D01*
X0014735Y0044886D01*
X0014805Y0045015D01*
X0014879Y0045142D01*
X0014956Y0045266D01*
X0015037Y0045389D01*
X0015121Y0045509D01*
X0015208Y0045627D01*
X0015298Y0045742D01*
X0015391Y0045855D01*
X0015488Y0045966D01*
X0015587Y0046074D01*
X0015689Y0046179D01*
X0015794Y0046281D01*
X0015902Y0046380D01*
X0016013Y0046477D01*
X0016126Y0046570D01*
X0016241Y0046660D01*
X0016359Y0046747D01*
X0016479Y0046831D01*
X0016602Y0046912D01*
X0016726Y0046989D01*
X0016853Y0047063D01*
X0016982Y0047133D01*
X0017112Y0047200D01*
X0017244Y0047264D01*
X0017378Y0047323D01*
X0017513Y0047380D01*
X0017650Y0047432D01*
X0017789Y0047481D01*
X0017928Y0047526D01*
X0018069Y0047567D01*
X0018211Y0047604D01*
X0018353Y0047637D01*
X0018497Y0047667D01*
X0018641Y0047693D01*
X0018786Y0047714D01*
X0018932Y0047732D01*
X0019078Y0047746D01*
X0019224Y0047756D01*
X0019370Y0047762D01*
X0019517Y0047764D01*
X0019664Y0047762D01*
X0019810Y0047756D01*
X0019956Y0047746D01*
X0020102Y0047732D01*
X0020248Y0047714D01*
X0020393Y0047693D01*
X0020537Y0047667D01*
X0020681Y0047637D01*
X0020823Y0047604D01*
X0020965Y0047567D01*
X0021106Y0047526D01*
X0021245Y0047481D01*
X0021384Y0047432D01*
X0021521Y0047380D01*
X0021656Y0047323D01*
X0021790Y0047264D01*
X0021922Y0047200D01*
X0022052Y0047133D01*
X0022181Y0047063D01*
X0022308Y0046989D01*
X0022432Y0046912D01*
X0022555Y0046831D01*
X0022675Y0046747D01*
X0022793Y0046660D01*
X0022908Y0046570D01*
X0023021Y0046477D01*
X0023132Y0046380D01*
X0023240Y0046281D01*
X0023345Y0046179D01*
X0023447Y0046074D01*
X0023546Y0045966D01*
X0023643Y0045855D01*
X0023736Y0045742D01*
X0023826Y0045627D01*
X0023913Y0045509D01*
X0023997Y0045389D01*
X0024078Y0045266D01*
X0024155Y0045142D01*
X0024229Y0045015D01*
X0024299Y0044886D01*
X0024366Y0044756D01*
X0024430Y0044624D01*
X0024489Y0044490D01*
X0024546Y0044355D01*
X0024598Y0044218D01*
X0024647Y0044079D01*
X0024692Y0043940D01*
X0024733Y0043799D01*
X0024770Y0043657D01*
X0024803Y0043515D01*
X0024833Y0043371D01*
X0024859Y0043227D01*
X0024880Y0043082D01*
X0024898Y0042936D01*
X0024912Y0042790D01*
X0024922Y0042644D01*
X0024928Y0042498D01*
X0024930Y0042351D01*
X0024928Y0042204D01*
X0024922Y0042058D01*
X0024912Y0041912D01*
X0024898Y0041766D01*
X0024880Y0041620D01*
X0024859Y0041475D01*
X0024833Y0041331D01*
X0024803Y0041187D01*
X0024770Y0041045D01*
X0024733Y0040903D01*
X0024692Y0040762D01*
X0024647Y0040623D01*
X0024598Y0040484D01*
X0024546Y0040347D01*
X0024489Y0040212D01*
X0024430Y0040078D01*
X0024366Y0039946D01*
X0024299Y0039816D01*
X0024229Y0039687D01*
X0024155Y0039560D01*
X0024078Y0039436D01*
X0023997Y0039313D01*
X0023913Y0039193D01*
X0023826Y0039075D01*
X0023736Y0038960D01*
X0023643Y0038847D01*
X0023546Y0038736D01*
X0023447Y0038628D01*
X0023345Y0038523D01*
X0023240Y0038421D01*
X0023132Y0038322D01*
X0023021Y0038225D01*
X0022908Y0038132D01*
X0022793Y0038042D01*
X0022675Y0037955D01*
X0022555Y0037871D01*
X0022432Y0037790D01*
X0022308Y0037713D01*
X0022181Y0037639D01*
X0022052Y0037569D01*
X0021922Y0037502D01*
X0021790Y0037438D01*
X0021656Y0037379D01*
X0021521Y0037322D01*
X0021384Y0037270D01*
X0021245Y0037221D01*
X0021106Y0037176D01*
X0020965Y0037135D01*
X0020823Y0037098D01*
X0020681Y0037065D01*
X0020537Y0037035D01*
X0020393Y0037009D01*
X0020248Y0036988D01*
X0020102Y0036970D01*
X0019956Y0036956D01*
X0019810Y0036946D01*
X0019664Y0036940D01*
X0019517Y0036938D01*
X0019370Y0036940D01*
X0019224Y0036946D01*
X0019078Y0036956D01*
X0018932Y0036970D01*
X0018786Y0036988D01*
X0018641Y0037009D01*
X0018497Y0037035D01*
X0018353Y0037065D01*
X0018211Y0037098D01*
X0018069Y0037135D01*
X0017928Y0037176D01*
X0017789Y0037221D01*
X0017650Y0037270D01*
X0017513Y0037322D01*
X0017378Y0037379D01*
X0017244Y0037438D01*
X0017112Y0037502D01*
X0016982Y0037569D01*
X0016853Y0037639D01*
X0016726Y0037713D01*
X0016602Y0037790D01*
X0016479Y0037871D01*
X0016359Y0037955D01*
X0016241Y0038042D01*
X0016126Y0038132D01*
X0016013Y0038225D01*
X0015902Y0038322D01*
X0015794Y0038421D01*
X0015689Y0038523D01*
X0015587Y0038628D01*
X0015488Y0038736D01*
X0015391Y0038847D01*
X0015298Y0038960D01*
X0015208Y0039075D01*
X0015121Y0039193D01*
X0015037Y0039313D01*
X0014956Y0039436D01*
X0014879Y0039560D01*
X0014805Y0039687D01*
X0014735Y0039816D01*
X0014668Y0039946D01*
X0014604Y0040078D01*
X0014545Y0040212D01*
X0014488Y0040347D01*
X0014436Y0040484D01*
X0014387Y0040623D01*
X0014342Y0040762D01*
X0014301Y0040903D01*
X0014264Y0041045D01*
X0014231Y0041187D01*
X0014201Y0041331D01*
X0014175Y0041475D01*
X0014154Y0041620D01*
X0014136Y0041766D01*
X0014122Y0041912D01*
X0014112Y0042058D01*
X0014106Y0042204D01*
X0014104Y0042351D01*
X0014104Y0235265D02*
X0014106Y0235412D01*
X0014112Y0235558D01*
X0014122Y0235704D01*
X0014136Y0235850D01*
X0014154Y0235996D01*
X0014175Y0236141D01*
X0014201Y0236285D01*
X0014231Y0236429D01*
X0014264Y0236571D01*
X0014301Y0236713D01*
X0014342Y0236854D01*
X0014387Y0236993D01*
X0014436Y0237132D01*
X0014488Y0237269D01*
X0014545Y0237404D01*
X0014604Y0237538D01*
X0014668Y0237670D01*
X0014735Y0237800D01*
X0014805Y0237929D01*
X0014879Y0238056D01*
X0014956Y0238180D01*
X0015037Y0238303D01*
X0015121Y0238423D01*
X0015208Y0238541D01*
X0015298Y0238656D01*
X0015391Y0238769D01*
X0015488Y0238880D01*
X0015587Y0238988D01*
X0015689Y0239093D01*
X0015794Y0239195D01*
X0015902Y0239294D01*
X0016013Y0239391D01*
X0016126Y0239484D01*
X0016241Y0239574D01*
X0016359Y0239661D01*
X0016479Y0239745D01*
X0016602Y0239826D01*
X0016726Y0239903D01*
X0016853Y0239977D01*
X0016982Y0240047D01*
X0017112Y0240114D01*
X0017244Y0240178D01*
X0017378Y0240237D01*
X0017513Y0240294D01*
X0017650Y0240346D01*
X0017789Y0240395D01*
X0017928Y0240440D01*
X0018069Y0240481D01*
X0018211Y0240518D01*
X0018353Y0240551D01*
X0018497Y0240581D01*
X0018641Y0240607D01*
X0018786Y0240628D01*
X0018932Y0240646D01*
X0019078Y0240660D01*
X0019224Y0240670D01*
X0019370Y0240676D01*
X0019517Y0240678D01*
X0019664Y0240676D01*
X0019810Y0240670D01*
X0019956Y0240660D01*
X0020102Y0240646D01*
X0020248Y0240628D01*
X0020393Y0240607D01*
X0020537Y0240581D01*
X0020681Y0240551D01*
X0020823Y0240518D01*
X0020965Y0240481D01*
X0021106Y0240440D01*
X0021245Y0240395D01*
X0021384Y0240346D01*
X0021521Y0240294D01*
X0021656Y0240237D01*
X0021790Y0240178D01*
X0021922Y0240114D01*
X0022052Y0240047D01*
X0022181Y0239977D01*
X0022308Y0239903D01*
X0022432Y0239826D01*
X0022555Y0239745D01*
X0022675Y0239661D01*
X0022793Y0239574D01*
X0022908Y0239484D01*
X0023021Y0239391D01*
X0023132Y0239294D01*
X0023240Y0239195D01*
X0023345Y0239093D01*
X0023447Y0238988D01*
X0023546Y0238880D01*
X0023643Y0238769D01*
X0023736Y0238656D01*
X0023826Y0238541D01*
X0023913Y0238423D01*
X0023997Y0238303D01*
X0024078Y0238180D01*
X0024155Y0238056D01*
X0024229Y0237929D01*
X0024299Y0237800D01*
X0024366Y0237670D01*
X0024430Y0237538D01*
X0024489Y0237404D01*
X0024546Y0237269D01*
X0024598Y0237132D01*
X0024647Y0236993D01*
X0024692Y0236854D01*
X0024733Y0236713D01*
X0024770Y0236571D01*
X0024803Y0236429D01*
X0024833Y0236285D01*
X0024859Y0236141D01*
X0024880Y0235996D01*
X0024898Y0235850D01*
X0024912Y0235704D01*
X0024922Y0235558D01*
X0024928Y0235412D01*
X0024930Y0235265D01*
X0024928Y0235118D01*
X0024922Y0234972D01*
X0024912Y0234826D01*
X0024898Y0234680D01*
X0024880Y0234534D01*
X0024859Y0234389D01*
X0024833Y0234245D01*
X0024803Y0234101D01*
X0024770Y0233959D01*
X0024733Y0233817D01*
X0024692Y0233676D01*
X0024647Y0233537D01*
X0024598Y0233398D01*
X0024546Y0233261D01*
X0024489Y0233126D01*
X0024430Y0232992D01*
X0024366Y0232860D01*
X0024299Y0232730D01*
X0024229Y0232601D01*
X0024155Y0232474D01*
X0024078Y0232350D01*
X0023997Y0232227D01*
X0023913Y0232107D01*
X0023826Y0231989D01*
X0023736Y0231874D01*
X0023643Y0231761D01*
X0023546Y0231650D01*
X0023447Y0231542D01*
X0023345Y0231437D01*
X0023240Y0231335D01*
X0023132Y0231236D01*
X0023021Y0231139D01*
X0022908Y0231046D01*
X0022793Y0230956D01*
X0022675Y0230869D01*
X0022555Y0230785D01*
X0022432Y0230704D01*
X0022308Y0230627D01*
X0022181Y0230553D01*
X0022052Y0230483D01*
X0021922Y0230416D01*
X0021790Y0230352D01*
X0021656Y0230293D01*
X0021521Y0230236D01*
X0021384Y0230184D01*
X0021245Y0230135D01*
X0021106Y0230090D01*
X0020965Y0230049D01*
X0020823Y0230012D01*
X0020681Y0229979D01*
X0020537Y0229949D01*
X0020393Y0229923D01*
X0020248Y0229902D01*
X0020102Y0229884D01*
X0019956Y0229870D01*
X0019810Y0229860D01*
X0019664Y0229854D01*
X0019517Y0229852D01*
X0019370Y0229854D01*
X0019224Y0229860D01*
X0019078Y0229870D01*
X0018932Y0229884D01*
X0018786Y0229902D01*
X0018641Y0229923D01*
X0018497Y0229949D01*
X0018353Y0229979D01*
X0018211Y0230012D01*
X0018069Y0230049D01*
X0017928Y0230090D01*
X0017789Y0230135D01*
X0017650Y0230184D01*
X0017513Y0230236D01*
X0017378Y0230293D01*
X0017244Y0230352D01*
X0017112Y0230416D01*
X0016982Y0230483D01*
X0016853Y0230553D01*
X0016726Y0230627D01*
X0016602Y0230704D01*
X0016479Y0230785D01*
X0016359Y0230869D01*
X0016241Y0230956D01*
X0016126Y0231046D01*
X0016013Y0231139D01*
X0015902Y0231236D01*
X0015794Y0231335D01*
X0015689Y0231437D01*
X0015587Y0231542D01*
X0015488Y0231650D01*
X0015391Y0231761D01*
X0015298Y0231874D01*
X0015208Y0231989D01*
X0015121Y0232107D01*
X0015037Y0232227D01*
X0014956Y0232350D01*
X0014879Y0232474D01*
X0014805Y0232601D01*
X0014735Y0232730D01*
X0014668Y0232860D01*
X0014604Y0232992D01*
X0014545Y0233126D01*
X0014488Y0233261D01*
X0014436Y0233398D01*
X0014387Y0233537D01*
X0014342Y0233676D01*
X0014301Y0233817D01*
X0014264Y0233959D01*
X0014231Y0234101D01*
X0014201Y0234245D01*
X0014175Y0234389D01*
X0014154Y0234534D01*
X0014136Y0234680D01*
X0014122Y0234826D01*
X0014112Y0234972D01*
X0014106Y0235118D01*
X0014104Y0235265D01*
X0242351Y0235265D02*
X0242353Y0235413D01*
X0242359Y0235561D01*
X0242369Y0235709D01*
X0242383Y0235856D01*
X0242401Y0236003D01*
X0242422Y0236149D01*
X0242448Y0236295D01*
X0242478Y0236440D01*
X0242511Y0236584D01*
X0242549Y0236727D01*
X0242590Y0236869D01*
X0242635Y0237010D01*
X0242683Y0237150D01*
X0242736Y0237289D01*
X0242792Y0237426D01*
X0242852Y0237561D01*
X0242915Y0237695D01*
X0242982Y0237827D01*
X0243053Y0237957D01*
X0243127Y0238085D01*
X0243204Y0238211D01*
X0243285Y0238335D01*
X0243369Y0238457D01*
X0243456Y0238576D01*
X0243547Y0238693D01*
X0243641Y0238808D01*
X0243737Y0238920D01*
X0243837Y0239030D01*
X0243939Y0239136D01*
X0244045Y0239240D01*
X0244153Y0239341D01*
X0244264Y0239439D01*
X0244377Y0239535D01*
X0244493Y0239627D01*
X0244611Y0239716D01*
X0244732Y0239801D01*
X0244855Y0239884D01*
X0244980Y0239963D01*
X0245107Y0240039D01*
X0245236Y0240111D01*
X0245367Y0240180D01*
X0245500Y0240245D01*
X0245635Y0240306D01*
X0245771Y0240364D01*
X0245908Y0240419D01*
X0246047Y0240469D01*
X0246188Y0240516D01*
X0246329Y0240559D01*
X0246472Y0240599D01*
X0246616Y0240634D01*
X0246760Y0240666D01*
X0246906Y0240693D01*
X0247052Y0240717D01*
X0247199Y0240737D01*
X0247346Y0240753D01*
X0247493Y0240765D01*
X0247641Y0240773D01*
X0247789Y0240777D01*
X0247937Y0240777D01*
X0248085Y0240773D01*
X0248233Y0240765D01*
X0248380Y0240753D01*
X0248527Y0240737D01*
X0248674Y0240717D01*
X0248820Y0240693D01*
X0248966Y0240666D01*
X0249110Y0240634D01*
X0249254Y0240599D01*
X0249397Y0240559D01*
X0249538Y0240516D01*
X0249679Y0240469D01*
X0249818Y0240419D01*
X0249955Y0240364D01*
X0250091Y0240306D01*
X0250226Y0240245D01*
X0250359Y0240180D01*
X0250490Y0240111D01*
X0250619Y0240039D01*
X0250746Y0239963D01*
X0250871Y0239884D01*
X0250994Y0239801D01*
X0251115Y0239716D01*
X0251233Y0239627D01*
X0251349Y0239535D01*
X0251462Y0239439D01*
X0251573Y0239341D01*
X0251681Y0239240D01*
X0251787Y0239136D01*
X0251889Y0239030D01*
X0251989Y0238920D01*
X0252085Y0238808D01*
X0252179Y0238693D01*
X0252270Y0238576D01*
X0252357Y0238457D01*
X0252441Y0238335D01*
X0252522Y0238211D01*
X0252599Y0238085D01*
X0252673Y0237957D01*
X0252744Y0237827D01*
X0252811Y0237695D01*
X0252874Y0237561D01*
X0252934Y0237426D01*
X0252990Y0237289D01*
X0253043Y0237150D01*
X0253091Y0237010D01*
X0253136Y0236869D01*
X0253177Y0236727D01*
X0253215Y0236584D01*
X0253248Y0236440D01*
X0253278Y0236295D01*
X0253304Y0236149D01*
X0253325Y0236003D01*
X0253343Y0235856D01*
X0253357Y0235709D01*
X0253367Y0235561D01*
X0253373Y0235413D01*
X0253375Y0235265D01*
X0253373Y0235117D01*
X0253367Y0234969D01*
X0253357Y0234821D01*
X0253343Y0234674D01*
X0253325Y0234527D01*
X0253304Y0234381D01*
X0253278Y0234235D01*
X0253248Y0234090D01*
X0253215Y0233946D01*
X0253177Y0233803D01*
X0253136Y0233661D01*
X0253091Y0233520D01*
X0253043Y0233380D01*
X0252990Y0233241D01*
X0252934Y0233104D01*
X0252874Y0232969D01*
X0252811Y0232835D01*
X0252744Y0232703D01*
X0252673Y0232573D01*
X0252599Y0232445D01*
X0252522Y0232319D01*
X0252441Y0232195D01*
X0252357Y0232073D01*
X0252270Y0231954D01*
X0252179Y0231837D01*
X0252085Y0231722D01*
X0251989Y0231610D01*
X0251889Y0231500D01*
X0251787Y0231394D01*
X0251681Y0231290D01*
X0251573Y0231189D01*
X0251462Y0231091D01*
X0251349Y0230995D01*
X0251233Y0230903D01*
X0251115Y0230814D01*
X0250994Y0230729D01*
X0250871Y0230646D01*
X0250746Y0230567D01*
X0250619Y0230491D01*
X0250490Y0230419D01*
X0250359Y0230350D01*
X0250226Y0230285D01*
X0250091Y0230224D01*
X0249955Y0230166D01*
X0249818Y0230111D01*
X0249679Y0230061D01*
X0249538Y0230014D01*
X0249397Y0229971D01*
X0249254Y0229931D01*
X0249110Y0229896D01*
X0248966Y0229864D01*
X0248820Y0229837D01*
X0248674Y0229813D01*
X0248527Y0229793D01*
X0248380Y0229777D01*
X0248233Y0229765D01*
X0248085Y0229757D01*
X0247937Y0229753D01*
X0247789Y0229753D01*
X0247641Y0229757D01*
X0247493Y0229765D01*
X0247346Y0229777D01*
X0247199Y0229793D01*
X0247052Y0229813D01*
X0246906Y0229837D01*
X0246760Y0229864D01*
X0246616Y0229896D01*
X0246472Y0229931D01*
X0246329Y0229971D01*
X0246188Y0230014D01*
X0246047Y0230061D01*
X0245908Y0230111D01*
X0245771Y0230166D01*
X0245635Y0230224D01*
X0245500Y0230285D01*
X0245367Y0230350D01*
X0245236Y0230419D01*
X0245107Y0230491D01*
X0244980Y0230567D01*
X0244855Y0230646D01*
X0244732Y0230729D01*
X0244611Y0230814D01*
X0244493Y0230903D01*
X0244377Y0230995D01*
X0244264Y0231091D01*
X0244153Y0231189D01*
X0244045Y0231290D01*
X0243939Y0231394D01*
X0243837Y0231500D01*
X0243737Y0231610D01*
X0243641Y0231722D01*
X0243547Y0231837D01*
X0243456Y0231954D01*
X0243369Y0232073D01*
X0243285Y0232195D01*
X0243204Y0232319D01*
X0243127Y0232445D01*
X0243053Y0232573D01*
X0242982Y0232703D01*
X0242915Y0232835D01*
X0242852Y0232969D01*
X0242792Y0233104D01*
X0242736Y0233241D01*
X0242683Y0233380D01*
X0242635Y0233520D01*
X0242590Y0233661D01*
X0242549Y0233803D01*
X0242511Y0233946D01*
X0242478Y0234090D01*
X0242448Y0234235D01*
X0242422Y0234381D01*
X0242401Y0234527D01*
X0242383Y0234674D01*
X0242369Y0234821D01*
X0242359Y0234969D01*
X0242353Y0235117D01*
X0242351Y0235265D01*
X0242351Y0042351D02*
X0242353Y0042499D01*
X0242359Y0042647D01*
X0242369Y0042795D01*
X0242383Y0042942D01*
X0242401Y0043089D01*
X0242422Y0043235D01*
X0242448Y0043381D01*
X0242478Y0043526D01*
X0242511Y0043670D01*
X0242549Y0043813D01*
X0242590Y0043955D01*
X0242635Y0044096D01*
X0242683Y0044236D01*
X0242736Y0044375D01*
X0242792Y0044512D01*
X0242852Y0044647D01*
X0242915Y0044781D01*
X0242982Y0044913D01*
X0243053Y0045043D01*
X0243127Y0045171D01*
X0243204Y0045297D01*
X0243285Y0045421D01*
X0243369Y0045543D01*
X0243456Y0045662D01*
X0243547Y0045779D01*
X0243641Y0045894D01*
X0243737Y0046006D01*
X0243837Y0046116D01*
X0243939Y0046222D01*
X0244045Y0046326D01*
X0244153Y0046427D01*
X0244264Y0046525D01*
X0244377Y0046621D01*
X0244493Y0046713D01*
X0244611Y0046802D01*
X0244732Y0046887D01*
X0244855Y0046970D01*
X0244980Y0047049D01*
X0245107Y0047125D01*
X0245236Y0047197D01*
X0245367Y0047266D01*
X0245500Y0047331D01*
X0245635Y0047392D01*
X0245771Y0047450D01*
X0245908Y0047505D01*
X0246047Y0047555D01*
X0246188Y0047602D01*
X0246329Y0047645D01*
X0246472Y0047685D01*
X0246616Y0047720D01*
X0246760Y0047752D01*
X0246906Y0047779D01*
X0247052Y0047803D01*
X0247199Y0047823D01*
X0247346Y0047839D01*
X0247493Y0047851D01*
X0247641Y0047859D01*
X0247789Y0047863D01*
X0247937Y0047863D01*
X0248085Y0047859D01*
X0248233Y0047851D01*
X0248380Y0047839D01*
X0248527Y0047823D01*
X0248674Y0047803D01*
X0248820Y0047779D01*
X0248966Y0047752D01*
X0249110Y0047720D01*
X0249254Y0047685D01*
X0249397Y0047645D01*
X0249538Y0047602D01*
X0249679Y0047555D01*
X0249818Y0047505D01*
X0249955Y0047450D01*
X0250091Y0047392D01*
X0250226Y0047331D01*
X0250359Y0047266D01*
X0250490Y0047197D01*
X0250619Y0047125D01*
X0250746Y0047049D01*
X0250871Y0046970D01*
X0250994Y0046887D01*
X0251115Y0046802D01*
X0251233Y0046713D01*
X0251349Y0046621D01*
X0251462Y0046525D01*
X0251573Y0046427D01*
X0251681Y0046326D01*
X0251787Y0046222D01*
X0251889Y0046116D01*
X0251989Y0046006D01*
X0252085Y0045894D01*
X0252179Y0045779D01*
X0252270Y0045662D01*
X0252357Y0045543D01*
X0252441Y0045421D01*
X0252522Y0045297D01*
X0252599Y0045171D01*
X0252673Y0045043D01*
X0252744Y0044913D01*
X0252811Y0044781D01*
X0252874Y0044647D01*
X0252934Y0044512D01*
X0252990Y0044375D01*
X0253043Y0044236D01*
X0253091Y0044096D01*
X0253136Y0043955D01*
X0253177Y0043813D01*
X0253215Y0043670D01*
X0253248Y0043526D01*
X0253278Y0043381D01*
X0253304Y0043235D01*
X0253325Y0043089D01*
X0253343Y0042942D01*
X0253357Y0042795D01*
X0253367Y0042647D01*
X0253373Y0042499D01*
X0253375Y0042351D01*
X0253373Y0042203D01*
X0253367Y0042055D01*
X0253357Y0041907D01*
X0253343Y0041760D01*
X0253325Y0041613D01*
X0253304Y0041467D01*
X0253278Y0041321D01*
X0253248Y0041176D01*
X0253215Y0041032D01*
X0253177Y0040889D01*
X0253136Y0040747D01*
X0253091Y0040606D01*
X0253043Y0040466D01*
X0252990Y0040327D01*
X0252934Y0040190D01*
X0252874Y0040055D01*
X0252811Y0039921D01*
X0252744Y0039789D01*
X0252673Y0039659D01*
X0252599Y0039531D01*
X0252522Y0039405D01*
X0252441Y0039281D01*
X0252357Y0039159D01*
X0252270Y0039040D01*
X0252179Y0038923D01*
X0252085Y0038808D01*
X0251989Y0038696D01*
X0251889Y0038586D01*
X0251787Y0038480D01*
X0251681Y0038376D01*
X0251573Y0038275D01*
X0251462Y0038177D01*
X0251349Y0038081D01*
X0251233Y0037989D01*
X0251115Y0037900D01*
X0250994Y0037815D01*
X0250871Y0037732D01*
X0250746Y0037653D01*
X0250619Y0037577D01*
X0250490Y0037505D01*
X0250359Y0037436D01*
X0250226Y0037371D01*
X0250091Y0037310D01*
X0249955Y0037252D01*
X0249818Y0037197D01*
X0249679Y0037147D01*
X0249538Y0037100D01*
X0249397Y0037057D01*
X0249254Y0037017D01*
X0249110Y0036982D01*
X0248966Y0036950D01*
X0248820Y0036923D01*
X0248674Y0036899D01*
X0248527Y0036879D01*
X0248380Y0036863D01*
X0248233Y0036851D01*
X0248085Y0036843D01*
X0247937Y0036839D01*
X0247789Y0036839D01*
X0247641Y0036843D01*
X0247493Y0036851D01*
X0247346Y0036863D01*
X0247199Y0036879D01*
X0247052Y0036899D01*
X0246906Y0036923D01*
X0246760Y0036950D01*
X0246616Y0036982D01*
X0246472Y0037017D01*
X0246329Y0037057D01*
X0246188Y0037100D01*
X0246047Y0037147D01*
X0245908Y0037197D01*
X0245771Y0037252D01*
X0245635Y0037310D01*
X0245500Y0037371D01*
X0245367Y0037436D01*
X0245236Y0037505D01*
X0245107Y0037577D01*
X0244980Y0037653D01*
X0244855Y0037732D01*
X0244732Y0037815D01*
X0244611Y0037900D01*
X0244493Y0037989D01*
X0244377Y0038081D01*
X0244264Y0038177D01*
X0244153Y0038275D01*
X0244045Y0038376D01*
X0243939Y0038480D01*
X0243837Y0038586D01*
X0243737Y0038696D01*
X0243641Y0038808D01*
X0243547Y0038923D01*
X0243456Y0039040D01*
X0243369Y0039159D01*
X0243285Y0039281D01*
X0243204Y0039405D01*
X0243127Y0039531D01*
X0243053Y0039659D01*
X0242982Y0039789D01*
X0242915Y0039921D01*
X0242852Y0040055D01*
X0242792Y0040190D01*
X0242736Y0040327D01*
X0242683Y0040466D01*
X0242635Y0040606D01*
X0242590Y0040747D01*
X0242549Y0040889D01*
X0242511Y0041032D01*
X0242478Y0041176D01*
X0242448Y0041321D01*
X0242422Y0041467D01*
X0242401Y0041613D01*
X0242383Y0041760D01*
X0242369Y0041907D01*
X0242359Y0042055D01*
X0242353Y0042203D01*
X0242351Y0042351D01*
D11*
X0175725Y0165305D02*
X0171588Y0165305D01*
X0169519Y0167373D01*
X0169519Y0175647D01*
X0171588Y0177715D01*
X0175725Y0177715D01*
X0177793Y0175647D01*
X0177793Y0167373D01*
X0175725Y0165305D01*
X0164448Y0165305D02*
X0160311Y0165305D01*
X0162380Y0165305D02*
X0162380Y0177715D01*
X0164448Y0177715D02*
X0160311Y0177715D01*
X0154773Y0175647D02*
X0154773Y0171510D01*
X0152705Y0169442D01*
X0146500Y0169442D01*
X0146500Y0165305D02*
X0146500Y0177715D01*
X0152705Y0177715D01*
X0154773Y0175647D01*
X0140962Y0175647D02*
X0138893Y0177715D01*
X0134756Y0177715D01*
X0132688Y0175647D01*
X0132688Y0167373D01*
X0134756Y0165305D01*
X0138893Y0165305D01*
X0140962Y0167373D01*
X0140962Y0171510D01*
X0136825Y0171510D01*
X0127850Y0167373D02*
X0127850Y0165305D01*
X0125782Y0165305D01*
X0125782Y0167373D01*
X0127850Y0167373D01*
X0120477Y0165305D02*
X0114272Y0169442D01*
X0120477Y0173578D01*
X0114272Y0177715D02*
X0114272Y0165305D01*
X0104597Y0165305D02*
X0104597Y0177715D01*
X0100460Y0177715D02*
X0108734Y0177715D01*
X0094922Y0175647D02*
X0094922Y0171510D01*
X0092854Y0169442D01*
X0086648Y0169442D01*
X0090785Y0169442D02*
X0094922Y0165305D01*
X0086648Y0165305D02*
X0086648Y0177715D01*
X0092854Y0177715D01*
X0094922Y0175647D01*
D12*
X0115787Y0123877D02*
X0115787Y0122842D01*
X0115787Y0120774D02*
X0115787Y0116637D01*
X0114753Y0116637D02*
X0116822Y0116637D01*
X0119050Y0116637D02*
X0122153Y0116637D01*
X0123187Y0117671D01*
X0122153Y0118705D01*
X0120084Y0118705D01*
X0119050Y0119740D01*
X0120084Y0120774D01*
X0123187Y0120774D01*
X0125496Y0120774D02*
X0125496Y0117671D01*
X0126530Y0116637D01*
X0129633Y0116637D01*
X0129633Y0120774D01*
X0131941Y0120774D02*
X0135044Y0120774D01*
X0136078Y0119740D01*
X0136078Y0117671D01*
X0135044Y0116637D01*
X0131941Y0116637D01*
X0131941Y0114569D02*
X0131941Y0120774D01*
X0138387Y0120774D02*
X0138387Y0114569D01*
X0138387Y0116637D02*
X0141489Y0116637D01*
X0142523Y0117671D01*
X0142523Y0119740D01*
X0141489Y0120774D01*
X0138387Y0120774D01*
X0144832Y0117671D02*
X0145866Y0117671D01*
X0145866Y0116637D01*
X0144832Y0116637D01*
X0144832Y0117671D01*
X0148055Y0116637D02*
X0150123Y0116637D01*
X0149089Y0116637D02*
X0149089Y0122842D01*
X0148055Y0122842D01*
X0152352Y0120774D02*
X0152352Y0117671D01*
X0153386Y0116637D01*
X0156489Y0116637D01*
X0156489Y0115603D02*
X0155455Y0114569D01*
X0154420Y0114569D01*
X0156489Y0115603D02*
X0156489Y0120774D01*
X0158797Y0116637D02*
X0162934Y0122842D01*
X0165243Y0120774D02*
X0165243Y0116637D01*
X0165243Y0118705D02*
X0167311Y0120774D01*
X0168346Y0120774D01*
X0170614Y0120774D02*
X0172683Y0120774D01*
X0171648Y0121808D02*
X0171648Y0117671D01*
X0172683Y0116637D01*
X0174911Y0116637D02*
X0174911Y0122842D01*
X0178014Y0120774D02*
X0174911Y0118705D01*
X0178014Y0116637D01*
X0180282Y0117671D02*
X0180282Y0119740D01*
X0181317Y0120774D01*
X0184419Y0120774D01*
X0184419Y0115603D01*
X0183385Y0114569D01*
X0182351Y0114569D01*
X0181317Y0116637D02*
X0184419Y0116637D01*
X0186728Y0116637D02*
X0189831Y0116637D01*
X0190865Y0117671D01*
X0190865Y0119740D01*
X0189831Y0120774D01*
X0186728Y0120774D01*
X0186728Y0114569D01*
X0187802Y0110274D02*
X0188836Y0110274D01*
X0189871Y0109240D01*
X0190905Y0110274D01*
X0191939Y0109240D01*
X0191939Y0106137D01*
X0189871Y0106137D02*
X0189871Y0109240D01*
X0187802Y0110274D02*
X0187802Y0106137D01*
X0185493Y0107171D02*
X0185493Y0109240D01*
X0184459Y0110274D01*
X0182391Y0110274D01*
X0181357Y0109240D01*
X0181357Y0107171D01*
X0182391Y0106137D01*
X0184459Y0106137D01*
X0185493Y0107171D01*
X0179048Y0106137D02*
X0175945Y0106137D01*
X0174911Y0107171D01*
X0174911Y0109240D01*
X0175945Y0110274D01*
X0179048Y0110274D01*
X0172723Y0107171D02*
X0172723Y0106137D01*
X0171688Y0106137D01*
X0171688Y0107171D01*
X0172723Y0107171D01*
X0169380Y0106137D02*
X0166277Y0106137D01*
X0165243Y0107171D01*
X0165243Y0110274D01*
X0161980Y0112342D02*
X0161980Y0106137D01*
X0160946Y0106137D02*
X0163014Y0106137D01*
X0158637Y0107171D02*
X0158637Y0109240D01*
X0157603Y0110274D01*
X0154500Y0110274D01*
X0154500Y0104069D01*
X0154500Y0106137D02*
X0157603Y0106137D01*
X0158637Y0107171D01*
X0160946Y0112342D02*
X0161980Y0112342D01*
X0169380Y0110274D02*
X0169380Y0105103D01*
X0168346Y0104069D01*
X0167311Y0104069D01*
X0180282Y0117671D02*
X0181317Y0116637D01*
X0193173Y0116637D02*
X0195242Y0116637D01*
X0194208Y0116637D02*
X0194208Y0120774D01*
X0193173Y0120774D01*
X0194208Y0122842D02*
X0194208Y0123877D01*
X0197470Y0119740D02*
X0197470Y0117671D01*
X0198505Y0116637D01*
X0200573Y0116637D01*
X0201607Y0117671D01*
X0201607Y0119740D01*
X0200573Y0120774D01*
X0198505Y0120774D01*
X0197470Y0119740D01*
X0152192Y0109240D02*
X0152192Y0107171D01*
X0151158Y0106137D01*
X0148055Y0106137D01*
X0148055Y0104069D02*
X0148055Y0110274D01*
X0151158Y0110274D01*
X0152192Y0109240D01*
X0145746Y0110274D02*
X0145746Y0106137D01*
X0142644Y0106137D01*
X0141609Y0107171D01*
X0141609Y0110274D01*
X0139301Y0110274D02*
X0136198Y0110274D01*
X0135164Y0109240D01*
X0136198Y0108205D01*
X0138267Y0108205D01*
X0139301Y0107171D01*
X0138267Y0106137D01*
X0135164Y0106137D01*
X0132855Y0109240D02*
X0128718Y0109240D01*
X0125456Y0110274D02*
X0125456Y0106137D01*
X0126490Y0106137D02*
X0124421Y0106137D01*
X0122113Y0107171D02*
X0121079Y0106137D01*
X0117976Y0106137D01*
X0117976Y0104069D02*
X0117976Y0110274D01*
X0121079Y0110274D01*
X0122113Y0109240D01*
X0122113Y0107171D01*
X0124421Y0110274D02*
X0125456Y0110274D01*
X0125456Y0112342D02*
X0125456Y0113377D01*
X0115667Y0112342D02*
X0111530Y0106137D01*
X0105085Y0106137D02*
X0109222Y0112342D01*
X0108308Y0114569D02*
X0108308Y0120774D01*
X0111410Y0120774D01*
X0112445Y0119740D01*
X0112445Y0117671D01*
X0111410Y0116637D01*
X0108308Y0116637D01*
X0101862Y0116637D02*
X0105999Y0122842D01*
X0099554Y0122842D02*
X0095417Y0116637D01*
X0093228Y0116637D02*
X0092194Y0116637D01*
X0092194Y0117671D01*
X0093228Y0117671D01*
X0093228Y0116637D01*
X0093228Y0119740D02*
X0092194Y0119740D01*
X0092194Y0120774D01*
X0093228Y0120774D01*
X0093228Y0119740D01*
X0089885Y0120774D02*
X0086783Y0120774D01*
X0085748Y0119740D01*
X0086783Y0118705D01*
X0088851Y0118705D01*
X0089885Y0117671D01*
X0088851Y0116637D01*
X0085748Y0116637D01*
X0083440Y0117671D02*
X0082406Y0116637D01*
X0079303Y0116637D01*
X0079303Y0114569D02*
X0079303Y0120774D01*
X0082406Y0120774D01*
X0083440Y0119740D01*
X0083440Y0117671D01*
X0081411Y0111308D02*
X0081411Y0107171D01*
X0082446Y0106137D01*
X0085708Y0107171D02*
X0086743Y0106137D01*
X0085708Y0107171D02*
X0085708Y0111308D01*
X0084674Y0110274D02*
X0086743Y0110274D01*
X0088971Y0110274D02*
X0092074Y0110274D01*
X0093108Y0109240D01*
X0093108Y0107171D01*
X0092074Y0106137D01*
X0088971Y0106137D01*
X0088971Y0104069D02*
X0088971Y0110274D01*
X0095417Y0109240D02*
X0096451Y0110274D01*
X0099554Y0110274D01*
X0101862Y0110274D02*
X0101862Y0109240D01*
X0102896Y0109240D01*
X0102896Y0110274D01*
X0101862Y0110274D01*
X0101862Y0107171D02*
X0101862Y0106137D01*
X0102896Y0106137D01*
X0102896Y0107171D01*
X0101862Y0107171D01*
X0099554Y0107171D02*
X0098519Y0108205D01*
X0096451Y0108205D01*
X0095417Y0109240D01*
X0095417Y0106137D02*
X0098519Y0106137D01*
X0099554Y0107171D01*
X0082446Y0110274D02*
X0080377Y0110274D01*
X0078069Y0109240D02*
X0078069Y0106137D01*
X0078069Y0109240D02*
X0077034Y0110274D01*
X0074966Y0110274D01*
X0073932Y0109240D01*
X0073932Y0112342D02*
X0073932Y0106137D01*
X0072777Y0116637D02*
X0071743Y0117671D01*
X0071743Y0121808D01*
X0070709Y0120774D02*
X0072777Y0120774D01*
X0075006Y0120774D02*
X0077074Y0120774D01*
X0076040Y0121808D02*
X0076040Y0117671D01*
X0077074Y0116637D01*
X0068400Y0116637D02*
X0068400Y0119740D01*
X0067366Y0120774D01*
X0065298Y0120774D01*
X0064263Y0119740D01*
X0064263Y0122842D02*
X0064263Y0116637D01*
X0079359Y0070698D02*
X0079359Y0064398D01*
X0079358Y0064398D02*
X0079373Y0064337D01*
X0079391Y0064276D01*
X0079413Y0064217D01*
X0079438Y0064159D01*
X0079468Y0064104D01*
X0079500Y0064050D01*
X0079536Y0063998D01*
X0079575Y0063948D01*
X0079617Y0063901D01*
X0079662Y0063857D01*
X0079710Y0063816D01*
X0079760Y0063778D01*
X0079813Y0063743D01*
X0079867Y0063711D01*
X0079924Y0063683D01*
X0079982Y0063658D01*
X0080041Y0063637D01*
X0080102Y0063620D01*
X0080164Y0063607D01*
X0080226Y0063598D01*
X0080289Y0063592D01*
X0080352Y0063591D01*
X0080415Y0063594D01*
X0080478Y0063600D01*
X0080540Y0063610D01*
X0086052Y0063610D02*
X0086112Y0063600D01*
X0086172Y0063594D01*
X0086233Y0063591D01*
X0086293Y0063592D01*
X0086354Y0063596D01*
X0086414Y0063605D01*
X0086473Y0063616D01*
X0086532Y0063632D01*
X0086590Y0063651D01*
X0086646Y0063673D01*
X0086701Y0063699D01*
X0086754Y0063728D01*
X0086806Y0063760D01*
X0086855Y0063795D01*
X0086903Y0063833D01*
X0086947Y0063874D01*
X0086990Y0063917D01*
X0087029Y0063963D01*
X0087066Y0064011D01*
X0087100Y0064062D01*
X0087130Y0064114D01*
X0087158Y0064168D01*
X0087182Y0064224D01*
X0087203Y0064281D01*
X0087220Y0064339D01*
X0087234Y0064398D01*
X0087233Y0064398D02*
X0087233Y0070698D01*
X0087234Y0070698D02*
X0087220Y0070757D01*
X0087203Y0070815D01*
X0087182Y0070872D01*
X0087158Y0070928D01*
X0087130Y0070982D01*
X0087100Y0071034D01*
X0087066Y0071085D01*
X0087029Y0071133D01*
X0086990Y0071179D01*
X0086947Y0071222D01*
X0086903Y0071263D01*
X0086855Y0071301D01*
X0086806Y0071336D01*
X0086754Y0071368D01*
X0086701Y0071397D01*
X0086646Y0071423D01*
X0086590Y0071445D01*
X0086532Y0071464D01*
X0086473Y0071480D01*
X0086414Y0071491D01*
X0086354Y0071500D01*
X0086293Y0071504D01*
X0086233Y0071505D01*
X0086172Y0071502D01*
X0086112Y0071496D01*
X0086052Y0071486D01*
X0080540Y0071486D02*
X0080478Y0071496D01*
X0080415Y0071502D01*
X0080352Y0071505D01*
X0080289Y0071504D01*
X0080226Y0071498D01*
X0080164Y0071489D01*
X0080102Y0071476D01*
X0080041Y0071459D01*
X0079982Y0071438D01*
X0079924Y0071413D01*
X0079867Y0071385D01*
X0079813Y0071353D01*
X0079760Y0071318D01*
X0079710Y0071280D01*
X0079662Y0071239D01*
X0079617Y0071195D01*
X0079575Y0071148D01*
X0079536Y0071098D01*
X0079500Y0071046D01*
X0079468Y0070992D01*
X0079438Y0070937D01*
X0079413Y0070879D01*
X0079391Y0070820D01*
X0079373Y0070759D01*
X0079358Y0070698D01*
X0080261Y0051611D02*
X0080261Y0044524D01*
X0074158Y0044524D01*
X0074158Y0051611D01*
X0074158Y0044524D02*
X0074158Y0041375D01*
X0080261Y0041375D02*
X0080261Y0044524D01*
X0066009Y0045729D02*
X0066009Y0039430D01*
X0061284Y0040217D02*
X0061284Y0045729D01*
X0066009Y0045729D01*
X0061284Y0040217D02*
X0043961Y0040217D01*
X0043961Y0045729D01*
X0039237Y0045729D01*
X0039237Y0039430D01*
X0039237Y0028800D02*
X0066009Y0028800D01*
X0142601Y0082461D02*
X0142603Y0082532D01*
X0142609Y0082603D01*
X0142619Y0082674D01*
X0142633Y0082744D01*
X0142650Y0082813D01*
X0142672Y0082881D01*
X0142697Y0082947D01*
X0142726Y0083013D01*
X0142758Y0083076D01*
X0142794Y0083138D01*
X0142833Y0083197D01*
X0142876Y0083254D01*
X0142922Y0083309D01*
X0142970Y0083361D01*
X0143022Y0083411D01*
X0143076Y0083457D01*
X0143132Y0083500D01*
X0143191Y0083540D01*
X0143252Y0083577D01*
X0143315Y0083610D01*
X0143380Y0083640D01*
X0143446Y0083666D01*
X0143514Y0083689D01*
X0143583Y0083707D01*
X0143653Y0083722D01*
X0143723Y0083733D01*
X0143794Y0083740D01*
X0143865Y0083743D01*
X0143936Y0083742D01*
X0144008Y0083737D01*
X0144078Y0083728D01*
X0144148Y0083715D01*
X0144218Y0083699D01*
X0144286Y0083678D01*
X0144353Y0083654D01*
X0144419Y0083626D01*
X0144482Y0083594D01*
X0144544Y0083559D01*
X0144604Y0083521D01*
X0144662Y0083479D01*
X0144718Y0083434D01*
X0144770Y0083386D01*
X0144820Y0083335D01*
X0144868Y0083282D01*
X0144912Y0083226D01*
X0144953Y0083168D01*
X0144990Y0083107D01*
X0145024Y0083045D01*
X0145055Y0082980D01*
X0145082Y0082914D01*
X0145106Y0082847D01*
X0145125Y0082778D01*
X0145141Y0082709D01*
X0145153Y0082639D01*
X0145161Y0082568D01*
X0145165Y0082497D01*
X0145165Y0082425D01*
X0145161Y0082354D01*
X0145153Y0082283D01*
X0145141Y0082213D01*
X0145125Y0082144D01*
X0145106Y0082075D01*
X0145082Y0082008D01*
X0145055Y0081942D01*
X0145024Y0081877D01*
X0144990Y0081815D01*
X0144953Y0081754D01*
X0144912Y0081696D01*
X0144868Y0081640D01*
X0144820Y0081587D01*
X0144770Y0081536D01*
X0144718Y0081488D01*
X0144662Y0081443D01*
X0144604Y0081401D01*
X0144544Y0081363D01*
X0144482Y0081328D01*
X0144419Y0081296D01*
X0144353Y0081268D01*
X0144286Y0081244D01*
X0144218Y0081223D01*
X0144148Y0081207D01*
X0144078Y0081194D01*
X0144008Y0081185D01*
X0143936Y0081180D01*
X0143865Y0081179D01*
X0143794Y0081182D01*
X0143723Y0081189D01*
X0143653Y0081200D01*
X0143583Y0081215D01*
X0143514Y0081233D01*
X0143446Y0081256D01*
X0143380Y0081282D01*
X0143315Y0081312D01*
X0143252Y0081345D01*
X0143191Y0081382D01*
X0143132Y0081422D01*
X0143076Y0081465D01*
X0143022Y0081511D01*
X0142970Y0081561D01*
X0142922Y0081613D01*
X0142876Y0081668D01*
X0142833Y0081725D01*
X0142794Y0081784D01*
X0142758Y0081846D01*
X0142726Y0081909D01*
X0142697Y0081975D01*
X0142672Y0082041D01*
X0142650Y0082109D01*
X0142633Y0082178D01*
X0142619Y0082248D01*
X0142609Y0082319D01*
X0142603Y0082390D01*
X0142601Y0082461D01*
X0115787Y0120774D02*
X0114753Y0120774D01*
D13*
X0121485Y0126505D02*
X0120402Y0127587D01*
X0120402Y0151997D01*
X0121485Y0153080D01*
X0145894Y0153080D01*
X0146977Y0151997D01*
X0146977Y0127587D01*
X0145894Y0126505D01*
X0121485Y0126505D01*
X0123454Y0147666D02*
X0123456Y0147763D01*
X0123462Y0147860D01*
X0123472Y0147956D01*
X0123486Y0148052D01*
X0123504Y0148148D01*
X0123525Y0148242D01*
X0123551Y0148336D01*
X0123580Y0148428D01*
X0123614Y0148519D01*
X0123650Y0148609D01*
X0123691Y0148697D01*
X0123735Y0148783D01*
X0123783Y0148868D01*
X0123834Y0148950D01*
X0123888Y0149031D01*
X0123946Y0149109D01*
X0124007Y0149184D01*
X0124070Y0149257D01*
X0124137Y0149328D01*
X0124207Y0149395D01*
X0124279Y0149460D01*
X0124354Y0149521D01*
X0124432Y0149580D01*
X0124511Y0149635D01*
X0124593Y0149687D01*
X0124677Y0149735D01*
X0124763Y0149780D01*
X0124851Y0149822D01*
X0124940Y0149860D01*
X0125031Y0149894D01*
X0125123Y0149924D01*
X0125216Y0149951D01*
X0125311Y0149973D01*
X0125406Y0149992D01*
X0125502Y0150007D01*
X0125598Y0150018D01*
X0125695Y0150025D01*
X0125792Y0150028D01*
X0125889Y0150027D01*
X0125986Y0150022D01*
X0126082Y0150013D01*
X0126178Y0150000D01*
X0126274Y0149983D01*
X0126369Y0149962D01*
X0126462Y0149938D01*
X0126555Y0149909D01*
X0126647Y0149877D01*
X0126737Y0149841D01*
X0126825Y0149802D01*
X0126912Y0149758D01*
X0126997Y0149712D01*
X0127080Y0149661D01*
X0127161Y0149608D01*
X0127239Y0149551D01*
X0127316Y0149491D01*
X0127389Y0149428D01*
X0127460Y0149362D01*
X0127528Y0149293D01*
X0127594Y0149221D01*
X0127656Y0149147D01*
X0127715Y0149070D01*
X0127771Y0148991D01*
X0127824Y0148909D01*
X0127874Y0148826D01*
X0127919Y0148740D01*
X0127962Y0148653D01*
X0128001Y0148564D01*
X0128036Y0148474D01*
X0128067Y0148382D01*
X0128094Y0148289D01*
X0128118Y0148195D01*
X0128138Y0148100D01*
X0128154Y0148004D01*
X0128166Y0147908D01*
X0128174Y0147811D01*
X0128178Y0147714D01*
X0128178Y0147618D01*
X0128174Y0147521D01*
X0128166Y0147424D01*
X0128154Y0147328D01*
X0128138Y0147232D01*
X0128118Y0147137D01*
X0128094Y0147043D01*
X0128067Y0146950D01*
X0128036Y0146858D01*
X0128001Y0146768D01*
X0127962Y0146679D01*
X0127919Y0146592D01*
X0127874Y0146506D01*
X0127824Y0146423D01*
X0127771Y0146341D01*
X0127715Y0146262D01*
X0127656Y0146185D01*
X0127594Y0146111D01*
X0127528Y0146039D01*
X0127460Y0145970D01*
X0127389Y0145904D01*
X0127316Y0145841D01*
X0127239Y0145781D01*
X0127161Y0145724D01*
X0127080Y0145671D01*
X0126997Y0145620D01*
X0126912Y0145574D01*
X0126825Y0145530D01*
X0126737Y0145491D01*
X0126647Y0145455D01*
X0126555Y0145423D01*
X0126462Y0145394D01*
X0126369Y0145370D01*
X0126274Y0145349D01*
X0126178Y0145332D01*
X0126082Y0145319D01*
X0125986Y0145310D01*
X0125889Y0145305D01*
X0125792Y0145304D01*
X0125695Y0145307D01*
X0125598Y0145314D01*
X0125502Y0145325D01*
X0125406Y0145340D01*
X0125311Y0145359D01*
X0125216Y0145381D01*
X0125123Y0145408D01*
X0125031Y0145438D01*
X0124940Y0145472D01*
X0124851Y0145510D01*
X0124763Y0145552D01*
X0124677Y0145597D01*
X0124593Y0145645D01*
X0124511Y0145697D01*
X0124432Y0145752D01*
X0124354Y0145811D01*
X0124279Y0145872D01*
X0124207Y0145937D01*
X0124137Y0146004D01*
X0124070Y0146075D01*
X0124007Y0146148D01*
X0123946Y0146223D01*
X0123888Y0146301D01*
X0123834Y0146382D01*
X0123783Y0146464D01*
X0123735Y0146549D01*
X0123691Y0146635D01*
X0123650Y0146723D01*
X0123614Y0146813D01*
X0123580Y0146904D01*
X0123551Y0146996D01*
X0123525Y0147090D01*
X0123504Y0147184D01*
X0123486Y0147280D01*
X0123472Y0147376D01*
X0123462Y0147472D01*
X0123456Y0147569D01*
X0123454Y0147666D01*
X0123690Y0188808D02*
X0113690Y0188808D01*
X0113690Y0221485D01*
X0123690Y0221485D01*
X0123690Y0188808D01*
X0133690Y0188808D01*
X0133690Y0221485D01*
X0143690Y0221485D01*
X0143690Y0188808D01*
X0133690Y0188808D01*
X0143690Y0188808D02*
X0153690Y0188808D01*
X0153690Y0221485D01*
X0163690Y0221485D01*
X0163690Y0188808D01*
X0153690Y0188808D01*
X0163690Y0188808D02*
X0173690Y0188808D01*
X0173690Y0221485D01*
X0183690Y0221485D01*
X0183690Y0188808D01*
X0173690Y0188808D01*
X0183690Y0188808D02*
X0193690Y0188808D01*
X0193690Y0221485D01*
X0203690Y0221485D01*
X0203690Y0188808D01*
X0193690Y0188808D01*
X0203690Y0188808D02*
X0213690Y0188808D01*
X0213690Y0221485D01*
X0223690Y0221485D01*
X0223690Y0188808D01*
X0213690Y0188808D01*
X0223690Y0188808D02*
X0233690Y0188808D01*
X0233690Y0205146D01*
X0033690Y0205146D01*
X0033690Y0221485D01*
X0043690Y0221485D01*
X0043690Y0188808D01*
X0033690Y0188808D01*
X0033690Y0205146D01*
X0043690Y0188808D02*
X0053690Y0188808D01*
X0053690Y0221485D01*
X0063690Y0221485D01*
X0063690Y0188808D01*
X0053690Y0188808D01*
X0063690Y0188808D02*
X0073690Y0188808D01*
X0073690Y0221485D01*
X0083690Y0221485D01*
X0083690Y0188808D01*
X0073690Y0188808D01*
X0083690Y0188808D02*
X0093690Y0188808D01*
X0093690Y0221485D01*
X0103690Y0221485D01*
X0103690Y0188808D01*
X0093690Y0188808D01*
X0103690Y0188808D02*
X0113690Y0188808D01*
X0113690Y0221485D02*
X0103690Y0221485D01*
X0093690Y0221485D02*
X0083690Y0221485D01*
X0073690Y0221485D02*
X0063690Y0221485D01*
X0053690Y0221485D02*
X0043690Y0221485D01*
X0123690Y0221485D02*
X0133690Y0221485D01*
X0143690Y0221485D02*
X0153690Y0221485D01*
X0163690Y0221485D02*
X0173690Y0221485D01*
X0183690Y0221485D02*
X0193690Y0221485D01*
X0203690Y0221485D02*
X0213690Y0221485D01*
X0223690Y0221485D02*
X0233690Y0221485D01*
X0233690Y0205146D01*
D14*
X0230490Y0207045D02*
X0230490Y0208246D01*
X0229889Y0208847D01*
X0228688Y0208847D01*
X0228688Y0207646D01*
X0227487Y0208847D02*
X0226887Y0208246D01*
X0226887Y0207045D01*
X0227487Y0206445D01*
X0229889Y0206445D01*
X0230490Y0207045D01*
X0230490Y0210128D02*
X0226887Y0210128D01*
X0226887Y0211929D01*
X0227487Y0212530D01*
X0228688Y0212530D01*
X0229289Y0211929D01*
X0229289Y0210128D01*
X0230490Y0213811D02*
X0228088Y0216213D01*
X0227487Y0216213D01*
X0226887Y0215613D01*
X0226887Y0214412D01*
X0227487Y0213811D01*
X0230490Y0213811D02*
X0230490Y0216213D01*
X0230490Y0217494D02*
X0230490Y0219896D01*
X0230490Y0218695D02*
X0226887Y0218695D01*
X0228088Y0217494D01*
X0220490Y0218095D02*
X0219889Y0217494D01*
X0217487Y0219896D01*
X0219889Y0219896D01*
X0220490Y0219296D01*
X0220490Y0218095D01*
X0219889Y0217494D02*
X0217487Y0217494D01*
X0216887Y0218095D01*
X0216887Y0219296D01*
X0217487Y0219896D01*
X0217487Y0216213D02*
X0216887Y0215613D01*
X0216887Y0214412D01*
X0217487Y0213811D01*
X0217487Y0212530D02*
X0218688Y0212530D01*
X0219289Y0211929D01*
X0219289Y0210128D01*
X0220490Y0210128D02*
X0216887Y0210128D01*
X0216887Y0211929D01*
X0217487Y0212530D01*
X0220490Y0213811D02*
X0218088Y0216213D01*
X0217487Y0216213D01*
X0220490Y0216213D02*
X0220490Y0213811D01*
X0219889Y0208847D02*
X0218688Y0208847D01*
X0218688Y0207646D01*
X0217487Y0208847D02*
X0216887Y0208246D01*
X0216887Y0207045D01*
X0217487Y0206445D01*
X0219889Y0206445D01*
X0220490Y0207045D01*
X0220490Y0208246D01*
X0219889Y0208847D01*
X0219889Y0203558D02*
X0219289Y0203558D01*
X0218688Y0202957D01*
X0218688Y0201156D01*
X0219889Y0201156D01*
X0220490Y0201756D01*
X0220490Y0202957D01*
X0219889Y0203558D01*
X0217487Y0202357D02*
X0218688Y0201156D01*
X0218088Y0199874D02*
X0217487Y0199874D01*
X0216887Y0199274D01*
X0216887Y0198073D01*
X0217487Y0197472D01*
X0217487Y0196191D02*
X0218688Y0196191D01*
X0219289Y0195591D01*
X0219289Y0193789D01*
X0220490Y0193789D02*
X0216887Y0193789D01*
X0216887Y0195591D01*
X0217487Y0196191D01*
X0220490Y0197472D02*
X0218088Y0199874D01*
X0220490Y0199874D02*
X0220490Y0197472D01*
X0217487Y0202357D02*
X0216887Y0203558D01*
X0210490Y0202957D02*
X0210490Y0201756D01*
X0209889Y0201156D01*
X0208688Y0201756D02*
X0208688Y0203558D01*
X0209889Y0203558D02*
X0207487Y0203558D01*
X0206887Y0202957D01*
X0206887Y0201756D01*
X0207487Y0201156D01*
X0208088Y0201156D01*
X0208688Y0201756D01*
X0210490Y0202957D02*
X0209889Y0203558D01*
X0209889Y0206445D02*
X0207487Y0206445D01*
X0206887Y0207045D01*
X0206887Y0208246D01*
X0207487Y0208847D01*
X0208688Y0208847D02*
X0208688Y0207646D01*
X0208688Y0208847D02*
X0209889Y0208847D01*
X0210490Y0208246D01*
X0210490Y0207045D01*
X0209889Y0206445D01*
X0209289Y0210128D02*
X0209289Y0211929D01*
X0208688Y0212530D01*
X0207487Y0212530D01*
X0206887Y0211929D01*
X0206887Y0210128D01*
X0210490Y0210128D01*
X0210490Y0213811D02*
X0210490Y0216213D01*
X0210490Y0215012D02*
X0206887Y0215012D01*
X0208088Y0213811D01*
X0208688Y0217494D02*
X0208688Y0219296D01*
X0209289Y0219896D01*
X0209889Y0219896D01*
X0210490Y0219296D01*
X0210490Y0218095D01*
X0209889Y0217494D01*
X0208688Y0217494D01*
X0207487Y0218695D01*
X0206887Y0219896D01*
X0200490Y0217454D02*
X0200490Y0215653D01*
X0196887Y0215653D01*
X0196887Y0217454D01*
X0197487Y0218055D01*
X0199889Y0218055D01*
X0200490Y0217454D01*
X0200490Y0214371D02*
X0196887Y0214371D01*
X0196887Y0211969D02*
X0200490Y0214371D01*
X0200490Y0211969D02*
X0196887Y0211969D01*
X0197487Y0210688D02*
X0196887Y0210088D01*
X0196887Y0208887D01*
X0197487Y0208286D01*
X0199889Y0208286D01*
X0200490Y0208887D01*
X0200490Y0210088D01*
X0199889Y0210688D01*
X0198688Y0210688D01*
X0198688Y0209487D01*
X0198088Y0203558D02*
X0198688Y0202957D01*
X0199289Y0203558D01*
X0199889Y0203558D01*
X0200490Y0202957D01*
X0200490Y0201756D01*
X0199889Y0201156D01*
X0200490Y0199874D02*
X0200490Y0197472D01*
X0200490Y0198673D02*
X0196887Y0198673D01*
X0198088Y0197472D01*
X0198688Y0196191D02*
X0199289Y0195591D01*
X0199289Y0193789D01*
X0200490Y0193789D02*
X0196887Y0193789D01*
X0196887Y0195591D01*
X0197487Y0196191D01*
X0198688Y0196191D01*
X0198688Y0192508D02*
X0198688Y0191307D01*
X0198688Y0192508D02*
X0199889Y0192508D01*
X0200490Y0191908D01*
X0200490Y0190707D01*
X0199889Y0190106D01*
X0197487Y0190106D01*
X0196887Y0190707D01*
X0196887Y0191908D01*
X0197487Y0192508D01*
X0190490Y0192548D02*
X0189889Y0191948D01*
X0187487Y0191948D01*
X0186887Y0192548D01*
X0186887Y0193749D01*
X0187487Y0194350D01*
X0188688Y0194350D02*
X0188688Y0193149D01*
X0188688Y0194350D02*
X0189889Y0194350D01*
X0190490Y0193749D01*
X0190490Y0192548D01*
X0190490Y0195631D02*
X0186887Y0195631D01*
X0186887Y0197432D01*
X0187487Y0198033D01*
X0188688Y0198033D01*
X0189289Y0197432D01*
X0189289Y0195631D01*
X0189889Y0199314D02*
X0190490Y0199915D01*
X0190490Y0201116D01*
X0189889Y0201716D01*
X0189289Y0201716D01*
X0188688Y0201116D01*
X0188688Y0199314D01*
X0189889Y0199314D01*
X0188688Y0199314D02*
X0187487Y0200515D01*
X0186887Y0201716D01*
X0187487Y0206445D02*
X0189889Y0206445D01*
X0190490Y0207045D01*
X0190490Y0208246D01*
X0189889Y0208847D01*
X0188688Y0208847D01*
X0188688Y0207646D01*
X0187487Y0208847D02*
X0186887Y0208246D01*
X0186887Y0207045D01*
X0187487Y0206445D01*
X0186887Y0210128D02*
X0186887Y0211929D01*
X0187487Y0212530D01*
X0188688Y0212530D01*
X0189289Y0211929D01*
X0189289Y0210128D01*
X0190490Y0210128D02*
X0186887Y0210128D01*
X0188088Y0213811D02*
X0186887Y0215012D01*
X0190490Y0215012D01*
X0190490Y0213811D02*
X0190490Y0216213D01*
X0190490Y0217494D02*
X0188088Y0219896D01*
X0187487Y0219896D01*
X0186887Y0219296D01*
X0186887Y0218095D01*
X0187487Y0217494D01*
X0190490Y0217494D02*
X0190490Y0219896D01*
X0180490Y0217454D02*
X0180490Y0215653D01*
X0176887Y0215653D01*
X0176887Y0217454D01*
X0177487Y0218055D01*
X0179889Y0218055D01*
X0180490Y0217454D01*
X0180490Y0214371D02*
X0176887Y0214371D01*
X0176887Y0211969D02*
X0180490Y0214371D01*
X0180490Y0211969D02*
X0176887Y0211969D01*
X0177487Y0210688D02*
X0176887Y0210088D01*
X0176887Y0208887D01*
X0177487Y0208286D01*
X0179889Y0208286D01*
X0180490Y0208887D01*
X0180490Y0210088D01*
X0179889Y0210688D01*
X0178688Y0210688D01*
X0178688Y0209487D01*
X0178688Y0201716D02*
X0179889Y0201716D01*
X0180490Y0201116D01*
X0180490Y0199915D01*
X0179889Y0199314D01*
X0178688Y0199314D02*
X0178088Y0200515D01*
X0178088Y0201116D01*
X0178688Y0201716D01*
X0176887Y0201716D02*
X0176887Y0199314D01*
X0178688Y0199314D01*
X0178688Y0198033D02*
X0179289Y0197432D01*
X0179289Y0195631D01*
X0180490Y0195631D02*
X0176887Y0195631D01*
X0176887Y0197432D01*
X0177487Y0198033D01*
X0178688Y0198033D01*
X0178688Y0194350D02*
X0178688Y0193149D01*
X0178688Y0194350D02*
X0179889Y0194350D01*
X0180490Y0193749D01*
X0180490Y0192548D01*
X0179889Y0191948D01*
X0177487Y0191948D01*
X0176887Y0192548D01*
X0176887Y0193749D01*
X0177487Y0194350D01*
X0170490Y0193749D02*
X0169889Y0194350D01*
X0168688Y0194350D01*
X0168688Y0193149D01*
X0167487Y0194350D02*
X0166887Y0193749D01*
X0166887Y0192548D01*
X0167487Y0191948D01*
X0169889Y0191948D01*
X0170490Y0192548D01*
X0170490Y0193749D01*
X0170490Y0195631D02*
X0166887Y0195631D01*
X0166887Y0197432D01*
X0167487Y0198033D01*
X0168688Y0198033D01*
X0169289Y0197432D01*
X0169289Y0195631D01*
X0169889Y0199314D02*
X0167487Y0199314D01*
X0166887Y0199915D01*
X0166887Y0201116D01*
X0167487Y0201716D01*
X0169889Y0199314D01*
X0170490Y0199915D01*
X0170490Y0201116D01*
X0169889Y0201716D01*
X0167487Y0201716D01*
X0167487Y0208286D02*
X0169889Y0208286D01*
X0170490Y0208887D01*
X0170490Y0210088D01*
X0169889Y0210688D01*
X0168688Y0210688D01*
X0168688Y0209487D01*
X0167487Y0208286D02*
X0166887Y0208887D01*
X0166887Y0210088D01*
X0167487Y0210688D01*
X0166887Y0211969D02*
X0166887Y0213771D01*
X0167487Y0214371D01*
X0168688Y0214371D01*
X0169289Y0213771D01*
X0169289Y0211969D01*
X0170490Y0211969D02*
X0166887Y0211969D01*
X0168088Y0215653D02*
X0166887Y0216854D01*
X0170490Y0216854D01*
X0170490Y0215653D02*
X0170490Y0218055D01*
X0160490Y0215653D02*
X0159889Y0215653D01*
X0157487Y0218055D01*
X0156887Y0218055D01*
X0156887Y0215653D01*
X0157487Y0214371D02*
X0158688Y0214371D01*
X0159289Y0213771D01*
X0159289Y0211969D01*
X0160490Y0211969D02*
X0156887Y0211969D01*
X0156887Y0213771D01*
X0157487Y0214371D01*
X0157487Y0210688D02*
X0156887Y0210088D01*
X0156887Y0208887D01*
X0157487Y0208286D01*
X0159889Y0208286D01*
X0160490Y0208887D01*
X0160490Y0210088D01*
X0159889Y0210688D01*
X0158688Y0210688D01*
X0158688Y0209487D01*
X0157487Y0201716D02*
X0156887Y0201116D01*
X0156887Y0199314D01*
X0160490Y0199314D01*
X0160490Y0201116D01*
X0159889Y0201716D01*
X0157487Y0201716D01*
X0156887Y0198033D02*
X0160490Y0198033D01*
X0156887Y0195631D01*
X0160490Y0195631D01*
X0159889Y0194350D02*
X0158688Y0194350D01*
X0158688Y0193149D01*
X0157487Y0194350D02*
X0156887Y0193749D01*
X0156887Y0192548D01*
X0157487Y0191948D01*
X0159889Y0191948D01*
X0160490Y0192548D01*
X0160490Y0193749D01*
X0159889Y0194350D01*
X0150490Y0193789D02*
X0146887Y0193789D01*
X0146887Y0195591D01*
X0147487Y0196191D01*
X0148688Y0196191D01*
X0149289Y0195591D01*
X0149289Y0193789D01*
X0149889Y0192508D02*
X0148688Y0192508D01*
X0148688Y0191307D01*
X0147487Y0190106D02*
X0149889Y0190106D01*
X0150490Y0190707D01*
X0150490Y0191908D01*
X0149889Y0192508D01*
X0147487Y0192508D02*
X0146887Y0191908D01*
X0146887Y0190707D01*
X0147487Y0190106D01*
X0148088Y0197472D02*
X0146887Y0198673D01*
X0150490Y0198673D01*
X0150490Y0197472D02*
X0150490Y0199874D01*
X0150490Y0201156D02*
X0150490Y0203558D01*
X0150490Y0202357D02*
X0146887Y0202357D01*
X0148088Y0201156D01*
X0147487Y0208286D02*
X0149889Y0208286D01*
X0150490Y0208887D01*
X0150490Y0210088D01*
X0149889Y0210688D01*
X0148688Y0210688D01*
X0148688Y0209487D01*
X0147487Y0208286D02*
X0146887Y0208887D01*
X0146887Y0210088D01*
X0147487Y0210688D01*
X0146887Y0211969D02*
X0146887Y0213771D01*
X0147487Y0214371D01*
X0148688Y0214371D01*
X0149289Y0213771D01*
X0149289Y0211969D01*
X0150490Y0211969D02*
X0146887Y0211969D01*
X0147487Y0215653D02*
X0148088Y0215653D01*
X0148688Y0216253D01*
X0148688Y0217454D01*
X0149289Y0218055D01*
X0149889Y0218055D01*
X0150490Y0217454D01*
X0150490Y0216253D01*
X0149889Y0215653D01*
X0149289Y0215653D01*
X0148688Y0216253D01*
X0148688Y0217454D02*
X0148088Y0218055D01*
X0147487Y0218055D01*
X0146887Y0217454D01*
X0146887Y0216253D01*
X0147487Y0215653D01*
X0140490Y0216213D02*
X0140490Y0213811D01*
X0138088Y0216213D01*
X0137487Y0216213D01*
X0136887Y0215613D01*
X0136887Y0214412D01*
X0137487Y0213811D01*
X0137487Y0212530D02*
X0138688Y0212530D01*
X0139289Y0211929D01*
X0139289Y0210128D01*
X0140490Y0210128D02*
X0136887Y0210128D01*
X0136887Y0211929D01*
X0137487Y0212530D01*
X0137487Y0208847D02*
X0136887Y0208246D01*
X0136887Y0207045D01*
X0137487Y0206445D01*
X0139889Y0206445D01*
X0140490Y0207045D01*
X0140490Y0208246D01*
X0139889Y0208847D01*
X0138688Y0208847D01*
X0138688Y0207646D01*
X0138688Y0201716D02*
X0138688Y0199915D01*
X0138088Y0199314D01*
X0137487Y0199314D01*
X0136887Y0199915D01*
X0136887Y0201116D01*
X0137487Y0201716D01*
X0139889Y0201716D01*
X0140490Y0201116D01*
X0140490Y0199915D01*
X0139889Y0199314D01*
X0138688Y0198033D02*
X0139289Y0197432D01*
X0139289Y0195631D01*
X0140490Y0195631D02*
X0136887Y0195631D01*
X0136887Y0197432D01*
X0137487Y0198033D01*
X0138688Y0198033D01*
X0138688Y0194350D02*
X0138688Y0193149D01*
X0138688Y0194350D02*
X0139889Y0194350D01*
X0140490Y0193749D01*
X0140490Y0192548D01*
X0139889Y0191948D01*
X0137487Y0191948D01*
X0136887Y0192548D01*
X0136887Y0193749D01*
X0137487Y0194350D01*
X0130490Y0193789D02*
X0126887Y0193789D01*
X0126887Y0195591D01*
X0127487Y0196191D01*
X0128688Y0196191D01*
X0129289Y0195591D01*
X0129289Y0193789D01*
X0129889Y0192508D02*
X0128688Y0192508D01*
X0128688Y0191307D01*
X0127487Y0190106D02*
X0129889Y0190106D01*
X0130490Y0190707D01*
X0130490Y0191908D01*
X0129889Y0192508D01*
X0127487Y0192508D02*
X0126887Y0191908D01*
X0126887Y0190707D01*
X0127487Y0190106D01*
X0128088Y0197472D02*
X0126887Y0198673D01*
X0130490Y0198673D01*
X0130490Y0197472D02*
X0130490Y0199874D01*
X0129889Y0201156D02*
X0127487Y0203558D01*
X0129889Y0203558D01*
X0130490Y0202957D01*
X0130490Y0201756D01*
X0129889Y0201156D01*
X0127487Y0201156D01*
X0126887Y0201756D01*
X0126887Y0202957D01*
X0127487Y0203558D01*
X0127487Y0208286D02*
X0126887Y0208887D01*
X0126887Y0210088D01*
X0127487Y0210688D01*
X0128688Y0210688D02*
X0128688Y0209487D01*
X0128688Y0210688D02*
X0129889Y0210688D01*
X0130490Y0210088D01*
X0130490Y0208887D01*
X0129889Y0208286D01*
X0127487Y0208286D01*
X0126887Y0211969D02*
X0130490Y0214371D01*
X0126887Y0214371D01*
X0126887Y0215653D02*
X0126887Y0217454D01*
X0127487Y0218055D01*
X0129889Y0218055D01*
X0130490Y0217454D01*
X0130490Y0215653D01*
X0126887Y0215653D01*
X0126887Y0211969D02*
X0130490Y0211969D01*
X0136887Y0217494D02*
X0138688Y0217494D01*
X0138088Y0218695D01*
X0138088Y0219296D01*
X0138688Y0219896D01*
X0139889Y0219896D01*
X0140490Y0219296D01*
X0140490Y0218095D01*
X0139889Y0217494D01*
X0136887Y0217494D02*
X0136887Y0219896D01*
X0120490Y0219296D02*
X0116887Y0219296D01*
X0118688Y0217494D01*
X0118688Y0219896D01*
X0118088Y0216213D02*
X0117487Y0216213D01*
X0116887Y0215613D01*
X0116887Y0214412D01*
X0117487Y0213811D01*
X0117487Y0212530D02*
X0118688Y0212530D01*
X0119289Y0211929D01*
X0119289Y0210128D01*
X0120490Y0210128D02*
X0116887Y0210128D01*
X0116887Y0211929D01*
X0117487Y0212530D01*
X0120490Y0213811D02*
X0118088Y0216213D01*
X0120490Y0216213D02*
X0120490Y0213811D01*
X0119889Y0208847D02*
X0118688Y0208847D01*
X0118688Y0207646D01*
X0117487Y0208847D02*
X0116887Y0208246D01*
X0116887Y0207045D01*
X0117487Y0206445D01*
X0119889Y0206445D01*
X0120490Y0207045D01*
X0120490Y0208246D01*
X0119889Y0208847D01*
X0119889Y0201716D02*
X0120490Y0201116D01*
X0120490Y0199915D01*
X0119889Y0199314D01*
X0118688Y0200515D02*
X0118688Y0201116D01*
X0119289Y0201716D01*
X0119889Y0201716D01*
X0118688Y0201116D02*
X0118088Y0201716D01*
X0117487Y0201716D01*
X0116887Y0201116D01*
X0116887Y0199915D01*
X0117487Y0199314D01*
X0118088Y0198033D02*
X0120490Y0196832D01*
X0118088Y0195631D01*
X0118088Y0194350D02*
X0118688Y0193749D01*
X0119289Y0194350D01*
X0119889Y0194350D01*
X0120490Y0193749D01*
X0120490Y0192548D01*
X0119889Y0191948D01*
X0118688Y0193149D02*
X0118688Y0193749D01*
X0118088Y0194350D02*
X0117487Y0194350D01*
X0116887Y0193749D01*
X0116887Y0192548D01*
X0117487Y0191948D01*
X0110490Y0191908D02*
X0109889Y0192508D01*
X0108688Y0192508D01*
X0108688Y0191307D01*
X0107487Y0190106D02*
X0109889Y0190106D01*
X0110490Y0190707D01*
X0110490Y0191908D01*
X0110490Y0193789D02*
X0106887Y0193789D01*
X0106887Y0195591D01*
X0107487Y0196191D01*
X0108688Y0196191D01*
X0109289Y0195591D01*
X0109289Y0193789D01*
X0107487Y0192508D02*
X0106887Y0191908D01*
X0106887Y0190707D01*
X0107487Y0190106D01*
X0100490Y0190707D02*
X0100490Y0191908D01*
X0099889Y0192508D01*
X0098688Y0192508D01*
X0098688Y0191307D01*
X0097487Y0190106D02*
X0099889Y0190106D01*
X0100490Y0190707D01*
X0097487Y0190106D02*
X0096887Y0190707D01*
X0096887Y0191908D01*
X0097487Y0192508D01*
X0096887Y0193789D02*
X0096887Y0195591D01*
X0097487Y0196191D01*
X0098688Y0196191D01*
X0099289Y0195591D01*
X0099289Y0193789D01*
X0100490Y0193789D02*
X0096887Y0193789D01*
X0097487Y0197472D02*
X0096887Y0198073D01*
X0096887Y0199274D01*
X0097487Y0199874D01*
X0098088Y0199874D01*
X0100490Y0197472D01*
X0100490Y0199874D01*
X0100490Y0201156D02*
X0099889Y0201156D01*
X0097487Y0203558D01*
X0096887Y0203558D01*
X0096887Y0201156D01*
X0090490Y0201156D02*
X0089889Y0201156D01*
X0087487Y0203558D01*
X0086887Y0203558D01*
X0086887Y0201156D01*
X0086887Y0198673D02*
X0090490Y0198673D01*
X0090490Y0197472D02*
X0090490Y0199874D01*
X0088088Y0197472D02*
X0086887Y0198673D01*
X0087487Y0196191D02*
X0088688Y0196191D01*
X0089289Y0195591D01*
X0089289Y0193789D01*
X0090490Y0193789D02*
X0086887Y0193789D01*
X0086887Y0195591D01*
X0087487Y0196191D01*
X0087487Y0192508D02*
X0086887Y0191908D01*
X0086887Y0190707D01*
X0087487Y0190106D01*
X0089889Y0190106D01*
X0090490Y0190707D01*
X0090490Y0191908D01*
X0089889Y0192508D01*
X0088688Y0192508D01*
X0088688Y0191307D01*
X0080490Y0192548D02*
X0080490Y0193749D01*
X0079889Y0194350D01*
X0078688Y0194350D01*
X0078688Y0193149D01*
X0077487Y0194350D02*
X0076887Y0193749D01*
X0076887Y0192548D01*
X0077487Y0191948D01*
X0079889Y0191948D01*
X0080490Y0192548D01*
X0080490Y0195631D02*
X0076887Y0195631D01*
X0080490Y0198033D01*
X0076887Y0198033D01*
X0076887Y0199314D02*
X0076887Y0201116D01*
X0077487Y0201716D01*
X0079889Y0201716D01*
X0080490Y0201116D01*
X0080490Y0199314D01*
X0076887Y0199314D01*
X0070490Y0201116D02*
X0066887Y0201116D01*
X0068688Y0199314D01*
X0068688Y0201716D01*
X0068688Y0198033D02*
X0069289Y0197432D01*
X0069289Y0195631D01*
X0070490Y0195631D02*
X0066887Y0195631D01*
X0066887Y0197432D01*
X0067487Y0198033D01*
X0068688Y0198033D01*
X0068688Y0194350D02*
X0068688Y0193149D01*
X0068688Y0194350D02*
X0069889Y0194350D01*
X0070490Y0193749D01*
X0070490Y0192548D01*
X0069889Y0191948D01*
X0067487Y0191948D01*
X0066887Y0192548D01*
X0066887Y0193749D01*
X0067487Y0194350D01*
X0060490Y0193749D02*
X0059889Y0194350D01*
X0058688Y0194350D01*
X0058688Y0193149D01*
X0057487Y0194350D02*
X0056887Y0193749D01*
X0056887Y0192548D01*
X0057487Y0191948D01*
X0059889Y0191948D01*
X0060490Y0192548D01*
X0060490Y0193749D01*
X0060490Y0195631D02*
X0056887Y0195631D01*
X0056887Y0197432D01*
X0057487Y0198033D01*
X0058688Y0198033D01*
X0059289Y0197432D01*
X0059289Y0195631D01*
X0059889Y0199314D02*
X0060490Y0199915D01*
X0060490Y0201116D01*
X0059889Y0201716D01*
X0059289Y0201716D01*
X0058688Y0201116D01*
X0058688Y0200515D01*
X0058688Y0201116D02*
X0058088Y0201716D01*
X0057487Y0201716D01*
X0056887Y0201116D01*
X0056887Y0199915D01*
X0057487Y0199314D01*
X0050490Y0199314D02*
X0048088Y0201716D01*
X0047487Y0201716D01*
X0046887Y0201116D01*
X0046887Y0199915D01*
X0047487Y0199314D01*
X0047487Y0198033D02*
X0048688Y0198033D01*
X0049289Y0197432D01*
X0049289Y0195631D01*
X0050490Y0195631D02*
X0046887Y0195631D01*
X0046887Y0197432D01*
X0047487Y0198033D01*
X0050490Y0199314D02*
X0050490Y0201716D01*
X0049889Y0194350D02*
X0048688Y0194350D01*
X0048688Y0193149D01*
X0047487Y0194350D02*
X0046887Y0193749D01*
X0046887Y0192548D01*
X0047487Y0191948D01*
X0049889Y0191948D01*
X0050490Y0192548D01*
X0050490Y0193749D01*
X0049889Y0194350D01*
X0040490Y0193749D02*
X0040490Y0192548D01*
X0039889Y0191948D01*
X0038688Y0193149D02*
X0038688Y0193749D01*
X0039289Y0194350D01*
X0039889Y0194350D01*
X0040490Y0193749D01*
X0038688Y0193749D02*
X0038088Y0194350D01*
X0037487Y0194350D01*
X0036887Y0193749D01*
X0036887Y0192548D01*
X0037487Y0191948D01*
X0038088Y0195631D02*
X0040490Y0196832D01*
X0038088Y0198033D01*
X0037487Y0199314D02*
X0036887Y0199915D01*
X0036887Y0201116D01*
X0037487Y0201716D01*
X0038088Y0201716D01*
X0038688Y0201116D01*
X0039289Y0201716D01*
X0039889Y0201716D01*
X0040490Y0201116D01*
X0040490Y0199915D01*
X0039889Y0199314D01*
X0038688Y0200515D02*
X0038688Y0201116D01*
X0038688Y0210128D02*
X0038088Y0211329D01*
X0038088Y0211929D01*
X0038688Y0212530D01*
X0039889Y0212530D01*
X0040490Y0211929D01*
X0040490Y0210728D01*
X0039889Y0210128D01*
X0038688Y0210128D02*
X0036887Y0210128D01*
X0036887Y0212530D01*
X0036887Y0213811D02*
X0039289Y0213811D01*
X0040490Y0215012D01*
X0039289Y0216213D01*
X0036887Y0216213D01*
X0046887Y0216213D02*
X0049289Y0216213D01*
X0050490Y0215012D01*
X0049289Y0213811D01*
X0046887Y0213811D01*
X0046887Y0212530D02*
X0046887Y0210128D01*
X0048688Y0210128D01*
X0048088Y0211329D01*
X0048088Y0211929D01*
X0048688Y0212530D01*
X0049889Y0212530D01*
X0050490Y0211929D01*
X0050490Y0210728D01*
X0049889Y0210128D01*
X0056887Y0210088D02*
X0056887Y0208887D01*
X0057487Y0208286D01*
X0059889Y0208286D01*
X0060490Y0208887D01*
X0060490Y0210088D01*
X0059889Y0210688D01*
X0058688Y0210688D01*
X0058688Y0209487D01*
X0057487Y0210688D02*
X0056887Y0210088D01*
X0056887Y0211969D02*
X0060490Y0214371D01*
X0056887Y0214371D01*
X0056887Y0215653D02*
X0056887Y0217454D01*
X0057487Y0218055D01*
X0059889Y0218055D01*
X0060490Y0217454D01*
X0060490Y0215653D01*
X0056887Y0215653D01*
X0056887Y0211969D02*
X0060490Y0211969D01*
X0066887Y0211929D02*
X0066887Y0210128D01*
X0070490Y0210128D01*
X0069289Y0210128D02*
X0069289Y0211929D01*
X0068688Y0212530D01*
X0067487Y0212530D01*
X0066887Y0211929D01*
X0068088Y0213811D02*
X0066887Y0215012D01*
X0070490Y0215012D01*
X0070490Y0213811D02*
X0070490Y0216213D01*
X0068688Y0217494D02*
X0068688Y0219896D01*
X0066887Y0219296D02*
X0068688Y0217494D01*
X0066887Y0219296D02*
X0070490Y0219296D01*
X0076887Y0219896D02*
X0076887Y0217494D01*
X0078688Y0217494D01*
X0078088Y0218695D01*
X0078088Y0219296D01*
X0078688Y0219896D01*
X0079889Y0219896D01*
X0080490Y0219296D01*
X0080490Y0218095D01*
X0079889Y0217494D01*
X0080490Y0216213D02*
X0080490Y0213811D01*
X0080490Y0215012D02*
X0076887Y0215012D01*
X0078088Y0213811D01*
X0077487Y0212530D02*
X0078688Y0212530D01*
X0079289Y0211929D01*
X0079289Y0210128D01*
X0080490Y0210128D02*
X0076887Y0210128D01*
X0076887Y0211929D01*
X0077487Y0212530D01*
X0077487Y0208847D02*
X0076887Y0208246D01*
X0076887Y0207045D01*
X0077487Y0206445D01*
X0079889Y0206445D01*
X0080490Y0207045D01*
X0080490Y0208246D01*
X0079889Y0208847D01*
X0078688Y0208847D01*
X0078688Y0207646D01*
X0070490Y0208246D02*
X0070490Y0207045D01*
X0069889Y0206445D01*
X0067487Y0206445D01*
X0066887Y0207045D01*
X0066887Y0208246D01*
X0067487Y0208847D01*
X0068688Y0208847D02*
X0068688Y0207646D01*
X0068688Y0208847D02*
X0069889Y0208847D01*
X0070490Y0208246D01*
X0086887Y0208246D02*
X0086887Y0207045D01*
X0087487Y0206445D01*
X0089889Y0206445D01*
X0090490Y0207045D01*
X0090490Y0208246D01*
X0089889Y0208847D01*
X0088688Y0208847D01*
X0088688Y0207646D01*
X0087487Y0208847D02*
X0086887Y0208246D01*
X0086887Y0210128D02*
X0086887Y0211929D01*
X0087487Y0212530D01*
X0088688Y0212530D01*
X0089289Y0211929D01*
X0089289Y0210128D01*
X0090490Y0210128D02*
X0086887Y0210128D01*
X0088088Y0213811D02*
X0086887Y0215012D01*
X0090490Y0215012D01*
X0090490Y0213811D02*
X0090490Y0216213D01*
X0089889Y0217494D02*
X0089289Y0217494D01*
X0088688Y0218095D01*
X0088688Y0219296D01*
X0089289Y0219896D01*
X0089889Y0219896D01*
X0090490Y0219296D01*
X0090490Y0218095D01*
X0089889Y0217494D01*
X0088688Y0218095D02*
X0088088Y0217494D01*
X0087487Y0217494D01*
X0086887Y0218095D01*
X0086887Y0219296D01*
X0087487Y0219896D01*
X0088088Y0219896D01*
X0088688Y0219296D01*
X0096887Y0217454D02*
X0096887Y0215653D01*
X0100490Y0215653D01*
X0100490Y0217454D01*
X0099889Y0218055D01*
X0097487Y0218055D01*
X0096887Y0217454D01*
X0096887Y0214371D02*
X0100490Y0214371D01*
X0096887Y0211969D01*
X0100490Y0211969D01*
X0099889Y0210688D02*
X0098688Y0210688D01*
X0098688Y0209487D01*
X0097487Y0208286D02*
X0099889Y0208286D01*
X0100490Y0208887D01*
X0100490Y0210088D01*
X0099889Y0210688D01*
X0097487Y0210688D02*
X0096887Y0210088D01*
X0096887Y0208887D01*
X0097487Y0208286D01*
X0106887Y0208246D02*
X0106887Y0207045D01*
X0107487Y0206445D01*
X0109889Y0206445D01*
X0110490Y0207045D01*
X0110490Y0208246D01*
X0109889Y0208847D01*
X0108688Y0208847D01*
X0108688Y0207646D01*
X0107487Y0208847D02*
X0106887Y0208246D01*
X0106887Y0210128D02*
X0106887Y0211929D01*
X0107487Y0212530D01*
X0108688Y0212530D01*
X0109289Y0211929D01*
X0109289Y0210128D01*
X0110490Y0210128D02*
X0106887Y0210128D01*
X0107487Y0213811D02*
X0106887Y0214412D01*
X0106887Y0215613D01*
X0107487Y0216213D01*
X0108088Y0216213D01*
X0110490Y0213811D01*
X0110490Y0216213D01*
X0109889Y0217494D02*
X0110490Y0218095D01*
X0110490Y0219296D01*
X0109889Y0219896D01*
X0109289Y0219896D01*
X0108688Y0219296D01*
X0108688Y0218695D01*
X0108688Y0219296D02*
X0108088Y0219896D01*
X0107487Y0219896D01*
X0106887Y0219296D01*
X0106887Y0218095D01*
X0107487Y0217494D01*
X0107487Y0203558D02*
X0106887Y0202957D01*
X0106887Y0201756D01*
X0107487Y0201156D01*
X0107487Y0199874D02*
X0106887Y0199274D01*
X0106887Y0198073D01*
X0107487Y0197472D01*
X0107487Y0199874D02*
X0108088Y0199874D01*
X0110490Y0197472D01*
X0110490Y0199874D01*
X0110490Y0201156D02*
X0108088Y0203558D01*
X0107487Y0203558D01*
X0110490Y0203558D02*
X0110490Y0201156D01*
X0196887Y0201756D02*
X0196887Y0202957D01*
X0197487Y0203558D01*
X0198088Y0203558D01*
X0198688Y0202957D02*
X0198688Y0202357D01*
X0197487Y0201156D02*
X0196887Y0201756D01*
X0206887Y0198673D02*
X0210490Y0198673D01*
X0210490Y0197472D02*
X0210490Y0199874D01*
X0208088Y0197472D02*
X0206887Y0198673D01*
X0207487Y0196191D02*
X0208688Y0196191D01*
X0209289Y0195591D01*
X0209289Y0193789D01*
X0210490Y0193789D02*
X0206887Y0193789D01*
X0206887Y0195591D01*
X0207487Y0196191D01*
X0207487Y0192508D02*
X0206887Y0191908D01*
X0206887Y0190707D01*
X0207487Y0190106D01*
X0209889Y0190106D01*
X0210490Y0190707D01*
X0210490Y0191908D01*
X0209889Y0192508D01*
X0208688Y0192508D01*
X0208688Y0191307D01*
X0216887Y0190707D02*
X0217487Y0190106D01*
X0219889Y0190106D01*
X0220490Y0190707D01*
X0220490Y0191908D01*
X0219889Y0192508D01*
X0218688Y0192508D01*
X0218688Y0191307D01*
X0217487Y0192508D02*
X0216887Y0191908D01*
X0216887Y0190707D01*
X0226887Y0193139D02*
X0227487Y0192538D01*
X0229889Y0192538D01*
X0230490Y0193139D01*
X0230490Y0194340D01*
X0229889Y0194940D01*
X0228688Y0194940D01*
X0228688Y0193739D01*
X0227487Y0194940D02*
X0226887Y0194340D01*
X0226887Y0193139D01*
X0226887Y0196221D02*
X0230490Y0198623D01*
X0226887Y0198623D01*
X0226887Y0199905D02*
X0226887Y0201706D01*
X0227487Y0202307D01*
X0229889Y0202307D01*
X0230490Y0201706D01*
X0230490Y0199905D01*
X0226887Y0199905D01*
X0226887Y0196221D02*
X0230490Y0196221D01*
X0138860Y0102668D02*
X0137326Y0102668D01*
X0137326Y0101133D01*
X0135791Y0099598D02*
X0138860Y0099598D01*
X0139628Y0100366D01*
X0139628Y0101900D01*
X0138860Y0102668D01*
X0135791Y0102668D02*
X0135024Y0101900D01*
X0135024Y0100366D01*
X0135791Y0099598D01*
X0135791Y0098064D02*
X0138860Y0094994D01*
X0139628Y0095762D01*
X0139628Y0097296D01*
X0138860Y0098064D01*
X0135791Y0098064D01*
X0135024Y0097296D01*
X0135024Y0095762D01*
X0135791Y0094994D01*
X0138860Y0094994D01*
X0137326Y0093460D02*
X0137326Y0090391D01*
X0135024Y0092692D01*
X0139628Y0092692D01*
X0138860Y0088856D02*
X0138093Y0088856D01*
X0137326Y0088089D01*
X0137326Y0087321D01*
X0137326Y0088089D02*
X0136558Y0088856D01*
X0135791Y0088856D01*
X0135024Y0088089D01*
X0135024Y0086554D01*
X0135791Y0085787D01*
X0135024Y0084252D02*
X0139628Y0084252D01*
X0138860Y0085787D02*
X0139628Y0086554D01*
X0139628Y0088089D01*
X0138860Y0088856D01*
X0137326Y0084252D02*
X0137326Y0081183D01*
X0138860Y0079648D02*
X0139628Y0078881D01*
X0139628Y0077346D01*
X0138860Y0076579D01*
X0135791Y0076579D01*
X0135024Y0077346D01*
X0135024Y0078881D01*
X0135791Y0079648D01*
X0135024Y0081183D02*
X0139628Y0081183D01*
X0017661Y0150039D02*
X0017661Y0152441D01*
X0016460Y0153642D01*
X0015259Y0152441D01*
X0015259Y0150039D01*
X0013978Y0150640D02*
X0013978Y0153042D01*
X0013377Y0153642D01*
X0011576Y0153642D01*
X0011576Y0150039D01*
X0013377Y0150039D01*
X0013978Y0150640D01*
X0015259Y0151841D02*
X0017661Y0151841D01*
X0010295Y0151240D02*
X0010295Y0150640D01*
X0009694Y0150039D01*
X0008493Y0150039D01*
X0007893Y0150640D01*
X0008493Y0151841D02*
X0007893Y0152441D01*
X0007893Y0153042D01*
X0008493Y0153642D01*
X0009694Y0153642D01*
X0010295Y0153042D01*
X0009694Y0151841D02*
X0010295Y0151240D01*
X0009694Y0151841D02*
X0008493Y0151841D01*
X0008493Y0159803D02*
X0007893Y0160404D01*
X0008493Y0159803D02*
X0009694Y0159803D01*
X0010295Y0160404D01*
X0010295Y0161004D01*
X0009694Y0161605D01*
X0008493Y0161605D01*
X0007893Y0162205D01*
X0007893Y0162806D01*
X0008493Y0163406D01*
X0009694Y0163406D01*
X0010295Y0162806D01*
X0011576Y0162806D02*
X0011576Y0160404D01*
X0012176Y0159803D01*
X0013377Y0159803D01*
X0013978Y0160404D01*
X0015259Y0159803D02*
X0017661Y0159803D01*
X0015259Y0159803D02*
X0015259Y0163406D01*
X0013978Y0162806D02*
X0013377Y0163406D01*
X0012176Y0163406D01*
X0011576Y0162806D01*
X0011576Y0169567D02*
X0011576Y0173170D01*
X0013978Y0169567D01*
X0013978Y0173170D01*
X0015259Y0173170D02*
X0017060Y0173170D01*
X0017661Y0172569D01*
X0017661Y0170167D01*
X0017060Y0169567D01*
X0015259Y0169567D01*
X0015259Y0173170D01*
X0010295Y0172569D02*
X0009694Y0173170D01*
X0008493Y0173170D01*
X0007893Y0172569D01*
X0007893Y0170167D01*
X0008493Y0169567D01*
X0009694Y0169567D01*
X0010295Y0170167D01*
X0010295Y0171368D01*
X0009094Y0171368D01*
X0009734Y0143642D02*
X0009734Y0141841D01*
X0010935Y0142441D01*
X0011536Y0142441D01*
X0012136Y0141841D01*
X0012136Y0140640D01*
X0011536Y0140039D01*
X0010335Y0140039D01*
X0009734Y0140640D01*
X0009734Y0143642D02*
X0012136Y0143642D01*
X0013417Y0143642D02*
X0013417Y0141240D01*
X0014618Y0140039D01*
X0015819Y0141240D01*
X0015819Y0143642D01*
D15*
X0017912Y0107452D02*
X0017912Y0106452D01*
X0019413Y0106452D01*
X0019413Y0105979D02*
X0018662Y0105979D01*
X0018412Y0105729D01*
X0018412Y0104978D01*
X0019413Y0104978D01*
X0019163Y0104506D02*
X0019413Y0104256D01*
X0019413Y0103755D01*
X0019163Y0103505D01*
X0018162Y0104506D01*
X0019163Y0104506D01*
X0019163Y0103505D02*
X0018162Y0103505D01*
X0017912Y0103755D01*
X0017912Y0104256D01*
X0018162Y0104506D01*
X0018162Y0103033D02*
X0019163Y0102032D01*
X0019413Y0102282D01*
X0019413Y0102782D01*
X0019163Y0103033D01*
X0018162Y0103033D01*
X0017912Y0102782D01*
X0017912Y0102282D01*
X0018162Y0102032D01*
X0019163Y0102032D01*
X0019413Y0101559D02*
X0019413Y0100559D01*
X0019413Y0101059D02*
X0017912Y0101059D01*
X0018412Y0100559D01*
X0018662Y0106452D02*
X0018662Y0106952D01*
X0034392Y0104753D02*
X0034392Y0104253D01*
X0034642Y0104003D01*
X0034642Y0103530D02*
X0034392Y0103280D01*
X0034392Y0102780D01*
X0034642Y0102529D01*
X0035643Y0102529D01*
X0035893Y0102780D01*
X0035893Y0103280D01*
X0035643Y0103530D01*
X0035893Y0104003D02*
X0034892Y0105004D01*
X0034642Y0105004D01*
X0034392Y0104753D01*
X0035893Y0105004D02*
X0035893Y0104003D01*
X0053463Y0081907D02*
X0053463Y0080906D01*
X0053463Y0081406D02*
X0051961Y0081406D01*
X0052462Y0080906D01*
X0052212Y0080434D02*
X0051961Y0080183D01*
X0051961Y0079683D01*
X0052212Y0079433D01*
X0053212Y0079433D01*
X0053463Y0079683D01*
X0053463Y0080183D01*
X0053212Y0080434D01*
X0069034Y0080205D02*
X0070535Y0080205D01*
X0070535Y0080705D02*
X0070535Y0079704D01*
X0069534Y0079704D02*
X0069034Y0080205D01*
X0069284Y0081177D02*
X0069034Y0081428D01*
X0069034Y0081928D01*
X0069284Y0082178D01*
X0070285Y0081177D01*
X0070535Y0081428D01*
X0070535Y0081928D01*
X0070285Y0082178D01*
X0069284Y0082178D01*
X0069284Y0082651D02*
X0069034Y0082901D01*
X0069034Y0083401D01*
X0069284Y0083652D01*
X0070285Y0082651D01*
X0070535Y0082901D01*
X0070535Y0083401D01*
X0070285Y0083652D01*
X0069284Y0083652D01*
X0069534Y0084124D02*
X0069534Y0084875D01*
X0069784Y0085125D01*
X0070535Y0085125D01*
X0070535Y0085597D02*
X0069034Y0085597D01*
X0069034Y0086598D01*
X0069784Y0086098D02*
X0069784Y0085597D01*
X0069534Y0084124D02*
X0070535Y0084124D01*
X0070285Y0082651D02*
X0069284Y0082651D01*
X0069284Y0081177D02*
X0070285Y0081177D01*
X0076745Y0067470D02*
X0078246Y0067470D01*
X0078246Y0066970D02*
X0078246Y0067971D01*
X0077245Y0066970D02*
X0076745Y0067470D01*
X0076745Y0066497D02*
X0076745Y0065997D01*
X0076745Y0066247D02*
X0077996Y0066247D01*
X0078246Y0065997D01*
X0078246Y0065747D01*
X0077996Y0065496D01*
X0077996Y0065024D02*
X0078246Y0064774D01*
X0078246Y0064273D01*
X0077996Y0064023D01*
X0077495Y0064273D02*
X0077495Y0064774D01*
X0077746Y0065024D01*
X0077996Y0065024D01*
X0077495Y0064273D02*
X0077245Y0064023D01*
X0076995Y0064023D01*
X0076745Y0064273D01*
X0076745Y0064774D01*
X0076995Y0065024D01*
X0088245Y0065024D02*
X0088245Y0064023D01*
X0089746Y0064023D01*
X0088995Y0064023D02*
X0088995Y0064524D01*
X0088995Y0065496D02*
X0088995Y0066247D01*
X0089246Y0066497D01*
X0089496Y0066497D01*
X0089746Y0066247D01*
X0089746Y0065496D01*
X0088245Y0065496D01*
X0088245Y0066247D01*
X0088495Y0066497D01*
X0088745Y0066497D01*
X0088995Y0066247D01*
X0089246Y0066970D02*
X0089246Y0067720D01*
X0088995Y0067971D01*
X0088495Y0067971D01*
X0088245Y0067720D01*
X0088245Y0066970D01*
X0089746Y0066970D01*
X0082659Y0052383D02*
X0081158Y0052383D01*
X0081158Y0051382D02*
X0082659Y0051382D01*
X0082159Y0051883D01*
X0082659Y0052383D01*
X0082659Y0050910D02*
X0082659Y0049909D01*
X0081158Y0049909D01*
X0081408Y0049437D02*
X0082409Y0048436D01*
X0082659Y0048686D01*
X0082659Y0049187D01*
X0082409Y0049437D01*
X0081408Y0049437D01*
X0081158Y0049187D01*
X0081158Y0048686D01*
X0081408Y0048436D01*
X0082409Y0048436D01*
X0082659Y0047964D02*
X0082659Y0046963D01*
X0081659Y0047964D01*
X0081408Y0047964D01*
X0081158Y0047713D01*
X0081158Y0047213D01*
X0081408Y0046963D01*
X0081158Y0046490D02*
X0081158Y0045489D01*
X0081909Y0045489D01*
X0081659Y0045990D01*
X0081659Y0046240D01*
X0081909Y0046490D01*
X0082409Y0046490D01*
X0082659Y0046240D01*
X0082659Y0045740D01*
X0082409Y0045489D01*
X0082409Y0045017D02*
X0082659Y0044767D01*
X0082659Y0044266D01*
X0082409Y0044016D01*
X0081408Y0045017D01*
X0082409Y0045017D01*
X0081408Y0045017D02*
X0081158Y0044767D01*
X0081158Y0044266D01*
X0081408Y0044016D01*
X0082409Y0044016D01*
X0082409Y0043544D02*
X0082659Y0043294D01*
X0082659Y0042543D01*
X0081158Y0042543D01*
X0081158Y0043294D01*
X0081408Y0043544D01*
X0081659Y0043544D01*
X0081909Y0043294D01*
X0081909Y0042543D01*
X0081909Y0043294D02*
X0082159Y0043544D01*
X0082409Y0043544D01*
X0086465Y0038001D02*
X0087967Y0038001D01*
X0087967Y0038501D02*
X0087967Y0037500D01*
X0086966Y0037500D02*
X0086465Y0038001D01*
X0086465Y0037028D02*
X0086465Y0036027D01*
X0087967Y0036027D01*
X0087216Y0036027D02*
X0087216Y0036528D01*
X0097709Y0037028D02*
X0098210Y0036528D01*
X0097709Y0036027D01*
X0099211Y0036027D01*
X0099211Y0037028D02*
X0097709Y0037028D01*
X0097960Y0037500D02*
X0098960Y0037500D01*
X0099211Y0037751D01*
X0099211Y0038251D01*
X0098960Y0038501D01*
X0098960Y0038974D02*
X0099211Y0039224D01*
X0099211Y0039724D01*
X0098960Y0039975D01*
X0098710Y0039975D01*
X0098460Y0039724D01*
X0098460Y0039474D01*
X0098460Y0039724D02*
X0098210Y0039975D01*
X0097960Y0039975D01*
X0097709Y0039724D01*
X0097709Y0039224D01*
X0097960Y0038974D01*
X0097960Y0038501D02*
X0097709Y0038251D01*
X0097709Y0037751D01*
X0097960Y0037500D01*
X0098460Y0040447D02*
X0098460Y0041198D01*
X0098710Y0041448D01*
X0098960Y0041448D01*
X0099211Y0041198D01*
X0099211Y0040697D01*
X0098960Y0040447D01*
X0098460Y0040447D01*
X0097960Y0040947D01*
X0097709Y0041448D01*
X0097960Y0041920D02*
X0097709Y0042170D01*
X0097709Y0042671D01*
X0097960Y0042921D01*
X0098210Y0042921D01*
X0099211Y0041920D01*
X0099211Y0042921D01*
X0099211Y0043393D02*
X0099211Y0044394D01*
X0099211Y0044867D02*
X0099211Y0045868D01*
X0099211Y0045367D02*
X0097709Y0045367D01*
X0098210Y0044867D01*
X0097709Y0043894D02*
X0099211Y0043894D01*
X0098210Y0043393D02*
X0097709Y0043894D01*
X0106242Y0046483D02*
X0106493Y0046233D01*
X0106242Y0046483D02*
X0106242Y0046983D01*
X0106493Y0047233D01*
X0106743Y0047233D01*
X0107744Y0046233D01*
X0107744Y0047233D01*
X0107744Y0047706D02*
X0106743Y0048707D01*
X0106493Y0048707D01*
X0106242Y0048456D01*
X0106242Y0047956D01*
X0106493Y0047706D01*
X0107744Y0047706D02*
X0107744Y0048707D01*
X0107744Y0049179D02*
X0107744Y0049930D01*
X0107493Y0050180D01*
X0106993Y0050180D01*
X0106743Y0049930D01*
X0106743Y0049179D01*
X0108244Y0049179D01*
X0107744Y0050652D02*
X0106242Y0050652D01*
X0106242Y0051653D01*
X0106993Y0051153D02*
X0106993Y0050652D01*
X0123998Y0049685D02*
X0123998Y0048684D01*
X0124749Y0048684D01*
X0124499Y0049184D01*
X0124499Y0049434D01*
X0124749Y0049685D01*
X0125249Y0049685D01*
X0125500Y0049434D01*
X0125500Y0048934D01*
X0125249Y0048684D01*
X0125249Y0048211D02*
X0125500Y0047961D01*
X0125500Y0047461D01*
X0125249Y0047211D01*
X0124249Y0047211D01*
X0123998Y0047461D01*
X0123998Y0047961D01*
X0124249Y0048211D01*
X0132040Y0053988D02*
X0132290Y0053988D01*
X0132791Y0054488D01*
X0133541Y0054488D01*
X0132791Y0054488D02*
X0132290Y0054989D01*
X0132040Y0054989D01*
X0132540Y0055461D02*
X0132040Y0055961D01*
X0133541Y0055961D01*
X0133541Y0055461D02*
X0133541Y0056462D01*
X0188097Y0043728D02*
X0189098Y0042727D01*
X0189098Y0043728D01*
X0188097Y0043728D02*
X0188097Y0042727D01*
X0188347Y0042255D02*
X0188097Y0042005D01*
X0188097Y0041504D01*
X0188347Y0041254D01*
X0187597Y0041254D02*
X0189098Y0041254D01*
X0189098Y0040781D02*
X0187597Y0040781D01*
X0188097Y0040281D01*
X0187597Y0039781D01*
X0189098Y0039781D01*
X0189098Y0039308D02*
X0189098Y0038307D01*
X0188097Y0039308D01*
X0187847Y0039308D01*
X0187597Y0039058D01*
X0187597Y0038558D01*
X0187847Y0038307D01*
X0187597Y0037335D02*
X0189098Y0037335D01*
X0189098Y0037835D02*
X0189098Y0036834D01*
X0188097Y0036834D02*
X0187597Y0037335D01*
X0188347Y0042255D02*
X0189098Y0042255D01*
X0192786Y0048031D02*
X0193787Y0048031D01*
X0194037Y0048281D01*
X0194037Y0048782D01*
X0193787Y0049032D01*
X0193287Y0049504D02*
X0193287Y0050505D01*
X0194037Y0050255D02*
X0192536Y0050255D01*
X0193287Y0049504D01*
X0192786Y0049032D02*
X0192536Y0048782D01*
X0192536Y0048281D01*
X0192786Y0048031D01*
X0210703Y0047956D02*
X0210953Y0047706D01*
X0210703Y0047956D02*
X0210703Y0048456D01*
X0210953Y0048707D01*
X0211203Y0048707D01*
X0212204Y0047706D01*
X0212204Y0048707D01*
X0212204Y0049179D02*
X0212204Y0049930D01*
X0211954Y0050180D01*
X0211454Y0050180D01*
X0211203Y0049930D01*
X0211203Y0049179D01*
X0212705Y0049179D01*
X0212204Y0050652D02*
X0210703Y0050652D01*
X0210703Y0051653D01*
X0211454Y0051153D02*
X0211454Y0050652D01*
X0211203Y0047233D02*
X0210953Y0047233D01*
X0210703Y0046983D01*
X0210703Y0046483D01*
X0210953Y0046233D01*
X0211203Y0047233D02*
X0212204Y0046233D01*
X0212204Y0047233D01*
X0246807Y0136604D02*
X0247807Y0136604D01*
X0247307Y0136604D02*
X0247307Y0138106D01*
X0246807Y0137605D01*
X0248280Y0137855D02*
X0248530Y0138106D01*
X0249030Y0138106D01*
X0249281Y0137855D01*
X0248280Y0136855D01*
X0248530Y0136604D01*
X0249030Y0136604D01*
X0249281Y0136855D01*
X0249281Y0137855D01*
X0249753Y0137855D02*
X0250003Y0138106D01*
X0250504Y0138106D01*
X0250754Y0137855D01*
X0249753Y0136855D01*
X0250003Y0136604D01*
X0250504Y0136604D01*
X0250754Y0136855D01*
X0250754Y0137855D01*
X0251226Y0137605D02*
X0251977Y0137605D01*
X0252227Y0137355D01*
X0252227Y0136604D01*
X0252700Y0136604D02*
X0252700Y0138106D01*
X0253700Y0138106D01*
X0253200Y0137355D02*
X0252700Y0137355D01*
X0251226Y0137605D02*
X0251226Y0136604D01*
X0249753Y0136855D02*
X0249753Y0137855D01*
X0248280Y0137855D02*
X0248280Y0136855D01*
X0256335Y0148470D02*
X0257336Y0148470D01*
X0257586Y0148721D01*
X0257586Y0149221D01*
X0257336Y0149471D01*
X0257336Y0149944D02*
X0257586Y0150194D01*
X0257586Y0150694D01*
X0257336Y0150945D01*
X0257086Y0150945D01*
X0256836Y0150694D01*
X0256836Y0150444D01*
X0256836Y0150694D02*
X0256585Y0150945D01*
X0256335Y0150945D01*
X0256085Y0150694D01*
X0256085Y0150194D01*
X0256335Y0149944D01*
X0256335Y0149471D02*
X0256085Y0149221D01*
X0256085Y0148721D01*
X0256335Y0148470D01*
X0155490Y0152396D02*
X0153488Y0152396D01*
X0153738Y0152146D02*
X0153738Y0152646D01*
X0153989Y0152896D01*
X0154239Y0153369D02*
X0153738Y0153869D01*
X0155240Y0153869D01*
X0155240Y0153369D02*
X0155240Y0154370D01*
X0154990Y0152896D02*
X0155240Y0152646D01*
X0155240Y0152146D01*
X0154990Y0151896D01*
X0154990Y0151423D02*
X0153738Y0151423D01*
X0153989Y0151896D02*
X0153738Y0152146D01*
X0153989Y0151896D02*
X0154239Y0151896D01*
X0154489Y0152146D01*
X0154489Y0152646D01*
X0154739Y0152896D01*
X0154990Y0152896D01*
X0154990Y0151423D02*
X0155240Y0151173D01*
X0155240Y0150673D01*
X0154990Y0150422D01*
X0153738Y0150422D01*
X0110240Y0150422D02*
X0108738Y0150422D01*
X0108738Y0151423D01*
X0108989Y0151896D02*
X0108738Y0152146D01*
X0108738Y0152646D01*
X0108989Y0152896D01*
X0109990Y0151896D01*
X0110240Y0152146D01*
X0110240Y0152646D01*
X0109990Y0152896D01*
X0108989Y0152896D01*
X0108738Y0153369D02*
X0110240Y0154370D01*
X0110240Y0153369D02*
X0108738Y0154370D01*
X0108989Y0151896D02*
X0109990Y0151896D01*
X0109489Y0150923D02*
X0109489Y0150422D01*
X0109239Y0149950D02*
X0108989Y0149950D01*
X0108738Y0149700D01*
X0108738Y0149199D01*
X0108989Y0148949D01*
X0108989Y0148477D02*
X0109239Y0148477D01*
X0109489Y0148226D01*
X0109739Y0148477D01*
X0109990Y0148477D01*
X0110240Y0148226D01*
X0110240Y0147726D01*
X0109990Y0147476D01*
X0110240Y0147003D02*
X0108738Y0147003D01*
X0109239Y0146503D01*
X0108738Y0146003D01*
X0110240Y0146003D01*
X0110240Y0145030D02*
X0108738Y0145030D01*
X0108738Y0145530D02*
X0108738Y0144529D01*
X0108989Y0144057D02*
X0108738Y0143807D01*
X0108738Y0143306D01*
X0108989Y0143056D01*
X0109239Y0143056D01*
X0109489Y0143306D01*
X0109489Y0143807D01*
X0109739Y0144057D01*
X0109990Y0144057D01*
X0110240Y0143807D01*
X0110240Y0143306D01*
X0109990Y0143056D01*
X0108989Y0147476D02*
X0108738Y0147726D01*
X0108738Y0148226D01*
X0108989Y0148477D01*
X0109489Y0148226D02*
X0109489Y0147976D01*
X0110240Y0148949D02*
X0109239Y0149950D01*
X0110240Y0149950D02*
X0110240Y0148949D01*
X0030397Y0066476D02*
X0030397Y0065475D01*
X0030397Y0065003D02*
X0029897Y0064502D01*
X0029897Y0064753D02*
X0029897Y0064002D01*
X0030397Y0064002D02*
X0028896Y0064002D01*
X0028896Y0064753D01*
X0029146Y0065003D01*
X0029647Y0065003D01*
X0029897Y0064753D01*
X0029396Y0065475D02*
X0028896Y0065976D01*
X0030397Y0065976D01*
X0027451Y0059650D02*
X0027451Y0058149D01*
X0026700Y0058149D01*
X0026450Y0058399D01*
X0026450Y0058900D01*
X0026700Y0059150D01*
X0027451Y0059150D01*
X0025978Y0058900D02*
X0025978Y0058650D01*
X0024977Y0058650D01*
X0024977Y0058900D02*
X0025227Y0059150D01*
X0025727Y0059150D01*
X0025978Y0058900D01*
X0025727Y0058149D02*
X0025227Y0058149D01*
X0024977Y0058399D01*
X0024977Y0058900D01*
X0024504Y0058900D02*
X0024254Y0058650D01*
X0023504Y0058650D01*
X0024004Y0058650D02*
X0024504Y0058149D01*
X0024504Y0058900D02*
X0024504Y0059400D01*
X0024254Y0059650D01*
X0023504Y0059650D01*
X0023504Y0058149D01*
X0014751Y0066811D02*
X0013750Y0066811D01*
X0014250Y0066811D02*
X0014250Y0068312D01*
X0013750Y0067811D01*
X0013278Y0068062D02*
X0013027Y0068312D01*
X0012277Y0068312D01*
X0012277Y0066811D01*
X0013027Y0066811D01*
X0013278Y0067061D01*
X0013278Y0068062D01*
X0011804Y0068312D02*
X0010804Y0068312D01*
X0010804Y0066811D01*
X0011804Y0066811D01*
X0011304Y0067561D02*
X0010804Y0067561D01*
X0010331Y0066811D02*
X0009330Y0066811D01*
X0009330Y0068312D01*
X0036874Y0050682D02*
X0037374Y0050682D01*
X0037124Y0050682D02*
X0037124Y0049431D01*
X0036874Y0049181D01*
X0036624Y0049181D01*
X0036374Y0049431D01*
X0037847Y0049681D02*
X0038598Y0049681D01*
X0038848Y0049931D01*
X0038848Y0050432D01*
X0038598Y0050682D01*
X0037847Y0050682D01*
X0037847Y0049181D01*
X0039320Y0049181D02*
X0040321Y0049181D01*
X0039821Y0049181D02*
X0039821Y0050682D01*
X0039320Y0050182D01*
X0041519Y0057888D02*
X0041269Y0058138D01*
X0041519Y0057888D02*
X0042019Y0057888D01*
X0042270Y0058138D01*
X0042270Y0058388D01*
X0042019Y0058638D01*
X0041769Y0058638D01*
X0042019Y0058638D02*
X0042270Y0058889D01*
X0042270Y0059139D01*
X0042019Y0059389D01*
X0041519Y0059389D01*
X0041269Y0059139D01*
X0042742Y0059139D02*
X0042992Y0059389D01*
X0043493Y0059389D01*
X0043743Y0059139D01*
X0043743Y0058889D01*
X0043493Y0058638D01*
X0043743Y0058388D01*
X0043743Y0058138D01*
X0043493Y0057888D01*
X0042992Y0057888D01*
X0042742Y0058138D01*
X0043242Y0058638D02*
X0043493Y0058638D01*
X0044215Y0058138D02*
X0045216Y0059139D01*
X0045216Y0058138D01*
X0044966Y0057888D01*
X0044466Y0057888D01*
X0044215Y0058138D01*
X0044215Y0059139D01*
X0044466Y0059389D01*
X0044966Y0059389D01*
X0045216Y0059139D01*
X0071658Y0045017D02*
X0073159Y0045017D01*
X0073159Y0045517D02*
X0073159Y0044516D01*
X0072909Y0044044D02*
X0071908Y0044044D01*
X0071658Y0043794D01*
X0071658Y0043043D01*
X0073159Y0043043D01*
X0073159Y0043794D01*
X0072909Y0044044D01*
X0072159Y0044516D02*
X0071658Y0045017D01*
X0016829Y0189114D02*
X0015327Y0189114D01*
X0015327Y0189864D01*
X0015578Y0190115D01*
X0016078Y0190115D01*
X0016328Y0189864D01*
X0016328Y0189114D01*
X0016328Y0189614D02*
X0016829Y0190115D01*
X0016579Y0190587D02*
X0016829Y0190837D01*
X0016829Y0191338D01*
X0016579Y0191588D01*
X0016328Y0191588D01*
X0016078Y0191338D01*
X0016078Y0191087D01*
X0016078Y0191338D02*
X0015828Y0191588D01*
X0015578Y0191588D01*
X0015327Y0191338D01*
X0015327Y0190837D01*
X0015578Y0190587D01*
D16*
X0021028Y0176131D02*
X0020028Y0175131D01*
X0020028Y0167131D01*
X0021028Y0166131D01*
X0020028Y0165131D01*
X0020028Y0157131D01*
X0021028Y0156131D01*
X0020028Y0155131D01*
X0020028Y0147131D01*
X0021028Y0146131D01*
X0020028Y0145131D01*
X0020028Y0137131D01*
X0021028Y0136131D01*
X0029028Y0136131D01*
X0030028Y0137131D01*
X0030028Y0145131D01*
X0029028Y0146131D01*
X0030028Y0147131D01*
X0030028Y0155131D01*
X0029028Y0156131D01*
X0030028Y0157131D01*
X0030028Y0165131D01*
X0029028Y0166131D01*
X0030028Y0167131D01*
X0030028Y0175131D01*
X0029028Y0176131D01*
X0021028Y0176131D01*
X0036190Y0225265D02*
X0041190Y0225265D01*
X0043690Y0227765D01*
X0043690Y0242765D01*
X0046190Y0245265D01*
X0051190Y0245265D01*
X0053690Y0242765D01*
X0053690Y0227765D01*
X0056190Y0225265D01*
X0061190Y0225265D01*
X0063690Y0227765D01*
X0063690Y0242765D01*
X0066190Y0245265D01*
X0071190Y0245265D01*
X0073690Y0242765D01*
X0073690Y0227765D01*
X0076190Y0225265D01*
X0081190Y0225265D01*
X0083690Y0227765D01*
X0083690Y0242765D01*
X0086190Y0245265D01*
X0091190Y0245265D01*
X0093690Y0242765D01*
X0093690Y0227765D01*
X0096190Y0225265D01*
X0101190Y0225265D01*
X0103690Y0227765D01*
X0103690Y0242765D01*
X0106190Y0245265D01*
X0111190Y0245265D01*
X0113690Y0242765D01*
X0113690Y0227765D01*
X0111190Y0225265D01*
X0106190Y0225265D01*
X0103690Y0227765D01*
X0113690Y0227765D02*
X0116190Y0225265D01*
X0121190Y0225265D01*
X0123690Y0227765D01*
X0123690Y0242765D01*
X0126190Y0245265D01*
X0131190Y0245265D01*
X0133690Y0242765D01*
X0133690Y0227765D01*
X0131190Y0225265D01*
X0126190Y0225265D01*
X0123690Y0227765D01*
X0133690Y0227765D02*
X0136190Y0225265D01*
X0141190Y0225265D01*
X0143690Y0227765D01*
X0143690Y0242765D01*
X0146190Y0245265D01*
X0151190Y0245265D01*
X0153690Y0242765D01*
X0153690Y0227765D01*
X0151190Y0225265D01*
X0146190Y0225265D01*
X0143690Y0227765D01*
X0153690Y0227765D02*
X0156190Y0225265D01*
X0161190Y0225265D01*
X0163690Y0227765D01*
X0163690Y0242765D01*
X0166190Y0245265D01*
X0171190Y0245265D01*
X0173690Y0242765D01*
X0173690Y0227765D01*
X0171190Y0225265D01*
X0166190Y0225265D01*
X0163690Y0227765D01*
X0173690Y0227765D02*
X0176190Y0225265D01*
X0181190Y0225265D01*
X0183690Y0227765D01*
X0183690Y0242765D01*
X0186190Y0245265D01*
X0191190Y0245265D01*
X0193690Y0242765D01*
X0193690Y0227765D01*
X0191190Y0225265D01*
X0186190Y0225265D01*
X0183690Y0227765D01*
X0193690Y0227765D02*
X0196190Y0225265D01*
X0201190Y0225265D01*
X0203690Y0227765D01*
X0203690Y0242765D01*
X0206190Y0245265D01*
X0211190Y0245265D01*
X0213690Y0242765D01*
X0213690Y0227765D01*
X0211190Y0225265D01*
X0206190Y0225265D01*
X0203690Y0227765D01*
X0213690Y0227765D02*
X0216190Y0225265D01*
X0221190Y0225265D01*
X0223690Y0227765D01*
X0226190Y0225265D01*
X0231190Y0225265D01*
X0233690Y0227765D01*
X0233690Y0242765D01*
X0231190Y0245265D01*
X0226190Y0245265D01*
X0223690Y0242765D01*
X0223690Y0227765D01*
X0223690Y0242765D02*
X0221190Y0245265D01*
X0216190Y0245265D01*
X0213690Y0242765D01*
X0203690Y0242765D02*
X0201190Y0245265D01*
X0196190Y0245265D01*
X0193690Y0242765D01*
X0183690Y0242765D02*
X0181190Y0245265D01*
X0176190Y0245265D01*
X0173690Y0242765D01*
X0163690Y0242765D02*
X0161190Y0245265D01*
X0156190Y0245265D01*
X0153690Y0242765D01*
X0143690Y0242765D02*
X0141190Y0245265D01*
X0136190Y0245265D01*
X0133690Y0242765D01*
X0123690Y0242765D02*
X0121190Y0245265D01*
X0116190Y0245265D01*
X0113690Y0242765D01*
X0103690Y0242765D02*
X0101190Y0245265D01*
X0096190Y0245265D01*
X0093690Y0242765D01*
X0083690Y0242765D02*
X0081190Y0245265D01*
X0076190Y0245265D01*
X0073690Y0242765D01*
X0063690Y0242765D02*
X0061190Y0245265D01*
X0056190Y0245265D01*
X0053690Y0242765D01*
X0043690Y0242765D02*
X0041190Y0245265D01*
X0036190Y0245265D01*
X0033690Y0242765D01*
X0033690Y0227765D01*
X0036190Y0225265D01*
X0043690Y0227765D02*
X0046190Y0225265D01*
X0051190Y0225265D01*
X0053690Y0227765D01*
X0063690Y0227765D02*
X0066190Y0225265D01*
X0071190Y0225265D01*
X0073690Y0227765D01*
X0083690Y0227765D02*
X0086190Y0225265D01*
X0091190Y0225265D01*
X0093690Y0227765D01*
X0034887Y0096472D02*
X0020287Y0096472D01*
X0020287Y0070072D01*
X0034887Y0070072D01*
X0034887Y0096472D01*
X0138288Y0057623D02*
X0138288Y0053623D01*
X0138288Y0057623D02*
X0138290Y0057683D01*
X0138295Y0057744D01*
X0138304Y0057803D01*
X0138317Y0057862D01*
X0138333Y0057921D01*
X0138353Y0057978D01*
X0138376Y0058033D01*
X0138403Y0058088D01*
X0138432Y0058140D01*
X0138465Y0058191D01*
X0138501Y0058240D01*
X0138539Y0058286D01*
X0138581Y0058330D01*
X0138625Y0058372D01*
X0138671Y0058410D01*
X0138720Y0058446D01*
X0138771Y0058479D01*
X0138823Y0058508D01*
X0138878Y0058535D01*
X0138933Y0058558D01*
X0138990Y0058578D01*
X0139049Y0058594D01*
X0139108Y0058607D01*
X0139167Y0058616D01*
X0139228Y0058621D01*
X0139288Y0058623D01*
X0182288Y0058623D01*
X0182348Y0058621D01*
X0182409Y0058616D01*
X0182468Y0058607D01*
X0182527Y0058594D01*
X0182586Y0058578D01*
X0182643Y0058558D01*
X0182698Y0058535D01*
X0182753Y0058508D01*
X0182805Y0058479D01*
X0182856Y0058446D01*
X0182905Y0058410D01*
X0182951Y0058372D01*
X0182995Y0058330D01*
X0183037Y0058286D01*
X0183075Y0058240D01*
X0183111Y0058191D01*
X0183144Y0058140D01*
X0183173Y0058088D01*
X0183200Y0058033D01*
X0183223Y0057978D01*
X0183243Y0057921D01*
X0183259Y0057862D01*
X0183272Y0057803D01*
X0183281Y0057744D01*
X0183286Y0057683D01*
X0183288Y0057623D01*
X0183288Y0053623D01*
X0183288Y0044623D02*
X0183288Y0040623D01*
X0183286Y0040563D01*
X0183281Y0040502D01*
X0183272Y0040443D01*
X0183259Y0040384D01*
X0183243Y0040325D01*
X0183223Y0040268D01*
X0183200Y0040213D01*
X0183173Y0040158D01*
X0183144Y0040106D01*
X0183111Y0040055D01*
X0183075Y0040006D01*
X0183037Y0039960D01*
X0182995Y0039916D01*
X0182951Y0039874D01*
X0182905Y0039836D01*
X0182856Y0039800D01*
X0182805Y0039767D01*
X0182753Y0039738D01*
X0182698Y0039711D01*
X0182643Y0039688D01*
X0182586Y0039668D01*
X0182527Y0039652D01*
X0182468Y0039639D01*
X0182409Y0039630D01*
X0182348Y0039625D01*
X0182288Y0039623D01*
X0139288Y0039623D01*
X0139228Y0039625D01*
X0139167Y0039630D01*
X0139108Y0039639D01*
X0139049Y0039652D01*
X0138990Y0039668D01*
X0138933Y0039688D01*
X0138878Y0039711D01*
X0138823Y0039738D01*
X0138771Y0039767D01*
X0138720Y0039800D01*
X0138671Y0039836D01*
X0138625Y0039874D01*
X0138581Y0039916D01*
X0138539Y0039960D01*
X0138501Y0040006D01*
X0138465Y0040055D01*
X0138432Y0040106D01*
X0138403Y0040158D01*
X0138376Y0040213D01*
X0138353Y0040268D01*
X0138333Y0040325D01*
X0138317Y0040384D01*
X0138304Y0040443D01*
X0138295Y0040502D01*
X0138290Y0040563D01*
X0138288Y0040623D01*
X0138288Y0044623D01*
X0158288Y0046623D02*
X0158288Y0049123D01*
X0158288Y0051623D01*
X0159788Y0051623D02*
X0161788Y0051623D01*
X0161788Y0046623D01*
X0159788Y0046623D01*
X0159788Y0051623D01*
X0163288Y0051623D02*
X0163288Y0049123D01*
X0163288Y0046623D01*
X0241288Y0066265D02*
X0242288Y0065265D01*
X0250288Y0065265D01*
X0251288Y0066265D01*
X0251288Y0074265D01*
X0250288Y0075265D01*
X0251288Y0076265D01*
X0251288Y0084265D01*
X0250288Y0085265D01*
X0251288Y0086265D01*
X0251288Y0094265D01*
X0250288Y0095265D01*
X0251288Y0096265D01*
X0251288Y0104265D01*
X0250288Y0105265D01*
X0242288Y0105265D01*
X0241288Y0104265D01*
X0241288Y0096265D01*
X0242288Y0095265D01*
X0241288Y0094265D01*
X0241288Y0086265D01*
X0242288Y0085265D01*
X0241288Y0084265D01*
X0241288Y0076265D01*
X0242288Y0075265D01*
X0241288Y0074265D01*
X0241288Y0066265D01*
X0241233Y0136131D02*
X0233233Y0136131D01*
X0232233Y0137131D01*
X0232233Y0145131D01*
X0233233Y0146131D01*
X0232233Y0147131D01*
X0232233Y0155131D01*
X0233233Y0156131D01*
X0232233Y0157131D01*
X0232233Y0165131D01*
X0233233Y0166131D01*
X0232233Y0167131D01*
X0232233Y0175131D01*
X0233233Y0176131D01*
X0241233Y0176131D01*
X0242233Y0175131D01*
X0242233Y0167131D01*
X0241233Y0166131D01*
X0242233Y0165131D01*
X0242233Y0157131D01*
X0241233Y0156131D01*
X0242233Y0155131D01*
X0242233Y0147131D01*
X0241233Y0146131D01*
X0242233Y0145131D01*
X0242233Y0137131D01*
X0241233Y0136131D01*
D17*
X0043237Y0072938D02*
X0040101Y0069802D01*
X0041669Y0069802D02*
X0041669Y0072938D01*
X0040101Y0072938D02*
X0043237Y0069802D01*
X0043237Y0071370D02*
X0040101Y0071370D01*
D18*
X0044767Y0069960D02*
X0045702Y0069960D01*
X0045234Y0069960D02*
X0045234Y0068559D01*
X0045702Y0069026D01*
X0046241Y0068559D02*
X0046241Y0069726D01*
X0046474Y0069960D01*
X0046941Y0069960D01*
X0047175Y0069726D01*
X0047175Y0068559D01*
X0147288Y0057123D02*
X0174288Y0057123D01*
X0174288Y0054123D02*
X0147288Y0054123D01*
X0147288Y0057123D02*
X0147093Y0057121D01*
X0146899Y0057114D01*
X0146704Y0057102D01*
X0146510Y0057085D01*
X0146317Y0057064D01*
X0146124Y0057038D01*
X0145932Y0057007D01*
X0145740Y0056972D01*
X0145550Y0056932D01*
X0145360Y0056887D01*
X0145172Y0056838D01*
X0144985Y0056784D01*
X0144799Y0056726D01*
X0144615Y0056663D01*
X0144432Y0056596D01*
X0144251Y0056524D01*
X0144072Y0056448D01*
X0143895Y0056368D01*
X0143719Y0056283D01*
X0143546Y0056194D01*
X0143375Y0056101D01*
X0143207Y0056004D01*
X0143040Y0055902D01*
X0142877Y0055797D01*
X0142716Y0055687D01*
X0142557Y0055574D01*
X0142402Y0055457D01*
X0142249Y0055336D01*
X0142099Y0055212D01*
X0141953Y0055084D01*
X0141809Y0054952D01*
X0141669Y0054817D01*
X0141532Y0054679D01*
X0141399Y0054537D01*
X0141269Y0054392D01*
X0141142Y0054244D01*
X0141019Y0054093D01*
X0140900Y0053939D01*
X0140785Y0053782D01*
X0140673Y0053623D01*
X0140674Y0044623D02*
X0140785Y0044463D01*
X0140900Y0044307D01*
X0141019Y0044153D01*
X0141142Y0044001D01*
X0141269Y0043853D01*
X0141399Y0043709D01*
X0141532Y0043567D01*
X0141669Y0043428D01*
X0141809Y0043293D01*
X0141953Y0043162D01*
X0142099Y0043034D01*
X0142249Y0042909D01*
X0142402Y0042789D01*
X0142557Y0042672D01*
X0142716Y0042558D01*
X0142877Y0042449D01*
X0143041Y0042344D01*
X0143207Y0042242D01*
X0143375Y0042145D01*
X0143546Y0042052D01*
X0143720Y0041963D01*
X0143895Y0041878D01*
X0144072Y0041798D01*
X0144251Y0041722D01*
X0144432Y0041650D01*
X0144615Y0041583D01*
X0144799Y0041520D01*
X0144985Y0041462D01*
X0145172Y0041408D01*
X0145361Y0041359D01*
X0145550Y0041314D01*
X0145741Y0041274D01*
X0145932Y0041239D01*
X0146124Y0041208D01*
X0146317Y0041182D01*
X0146511Y0041161D01*
X0146705Y0041144D01*
X0146899Y0041132D01*
X0147094Y0041125D01*
X0147288Y0041123D01*
X0174288Y0041123D01*
X0174288Y0044123D02*
X0147288Y0044123D01*
X0147155Y0044125D01*
X0147023Y0044130D01*
X0146891Y0044139D01*
X0146758Y0044151D01*
X0146627Y0044167D01*
X0146495Y0044186D01*
X0146365Y0044209D01*
X0146235Y0044235D01*
X0146105Y0044265D01*
X0145977Y0044298D01*
X0145849Y0044334D01*
X0145723Y0044374D01*
X0145597Y0044417D01*
X0145473Y0044464D01*
X0145350Y0044514D01*
X0145229Y0044567D01*
X0145109Y0044623D01*
X0145109Y0053623D02*
X0145229Y0053679D01*
X0145350Y0053732D01*
X0145473Y0053782D01*
X0145597Y0053829D01*
X0145723Y0053872D01*
X0145849Y0053912D01*
X0145977Y0053948D01*
X0146105Y0053981D01*
X0146235Y0054011D01*
X0146365Y0054037D01*
X0146495Y0054060D01*
X0146627Y0054079D01*
X0146758Y0054095D01*
X0146891Y0054107D01*
X0147023Y0054116D01*
X0147155Y0054121D01*
X0147288Y0054123D01*
X0156288Y0049123D02*
X0158288Y0049123D01*
X0163288Y0049123D02*
X0165288Y0049123D01*
X0174288Y0041123D02*
X0174483Y0041125D01*
X0174678Y0041132D01*
X0174872Y0041144D01*
X0175066Y0041161D01*
X0175259Y0041182D01*
X0175452Y0041208D01*
X0175645Y0041239D01*
X0175836Y0041274D01*
X0176027Y0041314D01*
X0176216Y0041359D01*
X0176404Y0041408D01*
X0176592Y0041462D01*
X0176777Y0041520D01*
X0176962Y0041583D01*
X0177144Y0041650D01*
X0177325Y0041722D01*
X0177504Y0041798D01*
X0177682Y0041878D01*
X0177857Y0041963D01*
X0178030Y0042052D01*
X0178201Y0042145D01*
X0178370Y0042243D01*
X0178536Y0042344D01*
X0178700Y0042449D01*
X0178861Y0042559D01*
X0179019Y0042672D01*
X0179175Y0042789D01*
X0179327Y0042910D01*
X0179477Y0043034D01*
X0179624Y0043162D01*
X0179767Y0043294D01*
X0179907Y0043429D01*
X0180044Y0043567D01*
X0180178Y0043709D01*
X0180308Y0043854D01*
X0180434Y0044002D01*
X0180557Y0044153D01*
X0180676Y0044307D01*
X0180791Y0044464D01*
X0180903Y0044623D01*
X0180902Y0053623D02*
X0180791Y0053783D01*
X0180676Y0053939D01*
X0180557Y0054093D01*
X0180434Y0054245D01*
X0180307Y0054393D01*
X0180177Y0054537D01*
X0180044Y0054679D01*
X0179907Y0054818D01*
X0179767Y0054953D01*
X0179623Y0055084D01*
X0179477Y0055212D01*
X0179327Y0055337D01*
X0179174Y0055457D01*
X0179019Y0055574D01*
X0178860Y0055688D01*
X0178699Y0055797D01*
X0178535Y0055902D01*
X0178369Y0056004D01*
X0178201Y0056101D01*
X0178030Y0056194D01*
X0177856Y0056283D01*
X0177681Y0056368D01*
X0177504Y0056448D01*
X0177325Y0056524D01*
X0177144Y0056596D01*
X0176961Y0056663D01*
X0176777Y0056726D01*
X0176591Y0056784D01*
X0176404Y0056838D01*
X0176215Y0056887D01*
X0176026Y0056932D01*
X0175835Y0056972D01*
X0175644Y0057007D01*
X0175452Y0057038D01*
X0175259Y0057064D01*
X0175065Y0057085D01*
X0174871Y0057102D01*
X0174677Y0057114D01*
X0174482Y0057121D01*
X0174288Y0057123D01*
X0174288Y0054123D02*
X0174421Y0054121D01*
X0174553Y0054116D01*
X0174685Y0054107D01*
X0174818Y0054095D01*
X0174949Y0054079D01*
X0175081Y0054060D01*
X0175211Y0054037D01*
X0175341Y0054011D01*
X0175471Y0053981D01*
X0175599Y0053948D01*
X0175727Y0053912D01*
X0175853Y0053872D01*
X0175979Y0053829D01*
X0176103Y0053782D01*
X0176226Y0053732D01*
X0176347Y0053679D01*
X0176467Y0053623D01*
X0176467Y0044623D02*
X0176347Y0044567D01*
X0176226Y0044514D01*
X0176103Y0044464D01*
X0175979Y0044417D01*
X0175853Y0044374D01*
X0175727Y0044334D01*
X0175599Y0044298D01*
X0175471Y0044265D01*
X0175341Y0044235D01*
X0175211Y0044209D01*
X0175081Y0044186D01*
X0174949Y0044167D01*
X0174818Y0044151D01*
X0174685Y0044139D01*
X0174553Y0044130D01*
X0174421Y0044125D01*
X0174288Y0044123D01*
X0017960Y0201369D02*
X0015758Y0201369D01*
X0015758Y0202469D01*
X0016125Y0202836D01*
X0016859Y0202836D01*
X0017226Y0202469D01*
X0017226Y0201369D01*
X0017226Y0202102D02*
X0017960Y0202836D01*
X0017960Y0203578D02*
X0016492Y0205046D01*
X0016125Y0205046D01*
X0015758Y0204679D01*
X0015758Y0203945D01*
X0016125Y0203578D01*
X0017960Y0203578D02*
X0017960Y0205046D01*
X0035023Y0222120D02*
X0035257Y0222120D01*
X0035490Y0222354D01*
X0035490Y0223522D01*
X0035257Y0223522D02*
X0035724Y0223522D01*
X0036263Y0223522D02*
X0036964Y0223522D01*
X0037197Y0223288D01*
X0037197Y0222821D01*
X0036964Y0222588D01*
X0036263Y0222588D01*
X0036263Y0222120D02*
X0036263Y0223522D01*
X0037736Y0223288D02*
X0037970Y0223522D01*
X0038437Y0223522D01*
X0038670Y0223288D01*
X0038670Y0223055D01*
X0038437Y0222821D01*
X0038670Y0222588D01*
X0038670Y0222354D01*
X0038437Y0222120D01*
X0037970Y0222120D01*
X0037736Y0222354D01*
X0038203Y0222821D02*
X0038437Y0222821D01*
X0035023Y0222120D02*
X0034790Y0222354D01*
D19*
X0015087Y0065284D03*
D20*
X0017942Y0063217D03*
D21*
X0019140Y0129416D02*
X0020641Y0129416D01*
X0019890Y0129416D02*
X0019890Y0133920D01*
X0019140Y0133920D02*
X0020641Y0133920D01*
X0022209Y0133169D02*
X0022960Y0133920D01*
X0024461Y0133920D01*
X0025212Y0133169D01*
X0025212Y0132419D01*
X0022209Y0129416D01*
X0025212Y0129416D01*
X0026813Y0130167D02*
X0027564Y0129416D01*
X0029065Y0129416D01*
X0029816Y0130167D01*
X0029816Y0133169D02*
X0029065Y0133920D01*
X0027564Y0133920D01*
X0026813Y0133169D01*
X0026813Y0130167D01*
X0033010Y0141381D02*
X0031875Y0142515D01*
X0035278Y0142515D01*
X0035278Y0141381D02*
X0035278Y0143649D01*
X0035278Y0151381D02*
X0033010Y0153649D01*
X0032443Y0153649D01*
X0031875Y0153082D01*
X0031875Y0151948D01*
X0032443Y0151381D01*
X0035278Y0151381D02*
X0035278Y0153649D01*
X0034711Y0161381D02*
X0035278Y0161948D01*
X0035278Y0163082D01*
X0034711Y0163649D01*
X0034144Y0163649D01*
X0033577Y0163082D01*
X0033577Y0162515D01*
X0033577Y0163082D02*
X0033010Y0163649D01*
X0032443Y0163649D01*
X0031875Y0163082D01*
X0031875Y0161948D01*
X0032443Y0161381D01*
X0033577Y0171381D02*
X0031875Y0173082D01*
X0035278Y0173082D01*
X0033577Y0173649D02*
X0033577Y0171381D01*
X0226980Y0168924D02*
X0230383Y0168924D01*
X0230383Y0167790D02*
X0230383Y0170058D01*
X0228114Y0167790D02*
X0226980Y0168924D01*
X0227547Y0160058D02*
X0226980Y0159491D01*
X0226980Y0158357D01*
X0227547Y0157790D01*
X0227547Y0160058D02*
X0228114Y0160058D01*
X0230383Y0157790D01*
X0230383Y0160058D01*
X0229816Y0150058D02*
X0229249Y0150058D01*
X0228682Y0149491D01*
X0228682Y0148924D01*
X0228682Y0149491D02*
X0228114Y0150058D01*
X0227547Y0150058D01*
X0226980Y0149491D01*
X0226980Y0148357D01*
X0227547Y0147790D01*
X0229816Y0147790D02*
X0230383Y0148357D01*
X0230383Y0149491D01*
X0229816Y0150058D01*
X0228682Y0140058D02*
X0228682Y0137790D01*
X0226980Y0139491D01*
X0230383Y0139491D01*
X0243979Y0157965D02*
X0243979Y0160217D01*
X0244730Y0160968D01*
X0246231Y0160968D01*
X0246982Y0160217D01*
X0246982Y0157965D01*
X0248483Y0157965D02*
X0243979Y0157965D01*
X0243979Y0162569D02*
X0243979Y0164821D01*
X0244730Y0165571D01*
X0246231Y0165571D01*
X0246982Y0164821D01*
X0246982Y0162569D01*
X0248483Y0162569D02*
X0243979Y0162569D01*
X0246982Y0164070D02*
X0248483Y0165571D01*
X0247732Y0167173D02*
X0244730Y0167173D01*
X0243979Y0167923D01*
X0243979Y0169425D01*
X0244730Y0170175D01*
X0247732Y0170175D01*
X0248483Y0169425D01*
X0248483Y0167923D01*
X0247732Y0167173D01*
X0247732Y0171777D02*
X0244730Y0171777D01*
X0243979Y0172527D01*
X0243979Y0174029D01*
X0244730Y0174779D01*
X0246231Y0174779D02*
X0246231Y0173278D01*
X0246231Y0174779D02*
X0247732Y0174779D01*
X0248483Y0174029D01*
X0248483Y0172527D01*
X0247732Y0171777D01*
X0254837Y0102783D02*
X0254837Y0100515D01*
X0253135Y0102216D01*
X0256538Y0102216D01*
X0255971Y0092783D02*
X0256538Y0092216D01*
X0256538Y0091082D01*
X0255971Y0090515D01*
X0254837Y0091649D02*
X0254837Y0092216D01*
X0255404Y0092783D01*
X0255971Y0092783D01*
X0254837Y0092216D02*
X0254270Y0092783D01*
X0253702Y0092783D01*
X0253135Y0092216D01*
X0253135Y0091082D01*
X0253702Y0090515D01*
X0253702Y0082783D02*
X0253135Y0082216D01*
X0253135Y0081082D01*
X0253702Y0080515D01*
X0253702Y0082783D02*
X0254270Y0082783D01*
X0256538Y0080515D01*
X0256538Y0082783D01*
X0256538Y0072783D02*
X0256538Y0070515D01*
X0256538Y0071649D02*
X0253135Y0071649D01*
X0254270Y0070515D01*
X0239538Y0070118D02*
X0236536Y0070118D01*
X0235034Y0071620D01*
X0236536Y0073121D01*
X0239538Y0073121D01*
X0239538Y0074722D02*
X0235034Y0074722D01*
X0235034Y0076974D01*
X0235785Y0077725D01*
X0237286Y0077725D01*
X0238037Y0076974D01*
X0238037Y0074722D01*
X0238037Y0076224D02*
X0239538Y0077725D01*
X0239538Y0080828D02*
X0235034Y0080828D01*
X0235034Y0082329D02*
X0235034Y0079326D01*
X0237286Y0073121D02*
X0237286Y0070118D01*
X0238788Y0068517D02*
X0239538Y0067766D01*
X0239538Y0066265D01*
X0238788Y0065515D01*
X0235034Y0065515D01*
X0235034Y0068517D02*
X0238788Y0068517D01*
M02*
